<svg version="1.1" viewBox="0.0 0.0 499.70866141732284 466.3307086614173" fill="none" stroke="none" stroke-linecap="square" stroke-miterlimit="10" xmlns:xlink="http://www.w3.org/1999/xlink" xmlns="http://www.w3.org/2000/svg"><clipPath id="p.0"><path d="m0 0l499.70865 0l0 466.33072l-499.70865 0l0 -466.33072z" clip-rule="nonzero"/></clipPath><g clip-path="url(#p.0)"><path fill="#000000" fill-opacity="0.0" d="m0 0l499.70865 0l0 466.33072l-499.70865 0z" fill-rule="evenodd"/><path fill="#000000" fill-opacity="0.0" d="m20.97244 233.16536l0 0c0 -117.44966 102.47391 -212.66142 228.88188 -212.66142l0 0c126.407974 0 228.88188 95.21176 228.88188 212.66142l0 0c0 117.44966 -102.47391 212.66142 -228.88188 212.66142l0 0c-126.407974 0 -228.88188 -95.21176 -228.88188 -212.66142z" fill-rule="evenodd"/><path stroke="#f3f3f3" stroke-width="8.0" stroke-linejoin="round" stroke-linecap="butt" d="m20.97244 233.16536l0 0c0 -117.44966 102.47391 -212.66142 228.88188 -212.66142l0 0c126.407974 0 228.88188 95.21176 228.88188 212.66142l0 0c0 117.44966 -102.47391 212.66142 -228.88188 212.66142l0 0c-126.407974 0 -228.88188 -95.21176 -228.88188 -212.66142z" fill-rule="evenodd"/><path fill="#f3f3f3" d="m291.31546 136.71391l-26.811523 5.9325256l0 172.58821c0 12.914368 0.8139038 24.274963 2.441681 34.081787c1.6277771 9.7664795 4.4607544 17.99939 8.498932 24.6987c4.038147 6.6993103 9.375397 11.723785 16.01175 15.073456c6.636383 3.3496704 15.057037 5.0245056 25.261993 5.0245056c8.639801 0 16.32483 -1.311615 23.055084 -3.934845c6.730255 -2.5828552 11.441437 -4.741974 14.133545 -6.477356l-5.1650696 -28.694061c-1.9408264 1.0089111 -5.368561 2.7039185 -10.283234 5.085022c-4.883362 2.3406982 -11.36319 3.511078 -19.439514 3.511078c-4.6329346 0 -8.686737 -0.74661255 -12.161438 -2.2398376c-3.44339 -1.4931946 -6.3233337 -4.0357056 -8.6397705 -7.627533c-2.2851868 -3.5918274 -4.0068665 -8.5355835 -5.1651 -14.831329c-1.1582336 -6.33609 -1.7373352 -14.347046 -1.7373352 -24.032806l0 -89.290634l56.81598 0l0 -28.99675l-56.81598 0l0 -59.870132z" fill-rule="evenodd"/><path fill="#65aaff" d="m85.82021 190.97891l246.01575 0l0 34.614166l-246.01575 0z" fill-rule="evenodd"/><path fill="#f3f3f3" d="m224.00818 55.876488c-4.8061523 0 -8.905518 1.7949066 -12.298096 5.3847237c-3.3611755 3.5546227 -5.0417633 8.358639 -5.0417633 14.412052c0 6.0534134 1.6805878 10.8750305 5.0417633 14.464844c3.3925781 3.5546188 7.4919434 5.331932 12.298096 5.331932c4.83757 0 8.936951 -1.7773132 12.298111 -5.331932c3.3925781 -3.5898132 5.088867 -8.41143 5.088867 -14.464844c0 -6.0534134 -1.6962891 -10.8574295 -5.088867 -14.412052c-3.3611603 -3.589817 -7.460541 -5.3847237 -12.298111 -5.3847237zm-13.287598 70.0542l0 165.76501c0 12.317993 -1.9790192 21.662079 -5.937027 28.032227c-3.9580078 6.3701477 -10.570404 9.555237 -19.837173 9.555237c-2.1360626 0 -4.460617 -0.21115112 -6.973633 -0.6334839c-2.513031 -0.42233276 -4.7276306 -0.967865 -6.643814 -1.6365356l-3.4868164 24.653595c2.513031 1.0910034 5.6071777 1.9532776 9.282471 2.5867615c3.6753082 0.6687012 6.6595154 1.0030518 8.952652 1.0030518c16.805847 0 29.59085 -5.2439575 38.35501 -15.731842c8.795593 -10.4878845 13.193375 -26.536469 13.193375 -48.145752l0 -165.44827z" fill-rule="evenodd"/><path fill="#65aaff" d="m200.25853 79.55905l0 0c0 -13.254829 10.745163 -23.999996 24.0 -23.999996l0 0c6.365204 0 12.469696 2.5285645 16.970566 7.029438c4.5008698 4.5008698 7.029434 10.60537 7.029434 16.970558l0 0c0 13.254837 -10.745163 24.0 -24.0 24.0l0 0c-13.254837 0 -24.0 -10.745163 -24.0 -24.0z" fill-rule="evenodd"/></g></svg>