<svg version="1.1" viewBox="0.0 0.0 749.3018372703413 363.96062992125985" fill="none" stroke="none" stroke-linecap="square" stroke-miterlimit="10" xmlns:xlink="http://www.w3.org/1999/xlink" xmlns="http://www.w3.org/2000/svg"><clipPath id="p.0"><path d="m0 0l749.3018 0l0 363.96063l-749.3018 0l0 -363.96063z" clip-rule="nonzero"/></clipPath><g clip-path="url(#p.0)"><path fill="#000000" fill-opacity="0.0" d="m0 0l749.3018 0l0 363.96063l-749.3018 0z" fill-rule="evenodd"/><path fill="#cccccc" d="m81.47234 42.79147l0 0c0 -17.373125 14.083702 -31.456825 31.456825 -31.456825l520.20447 0c8.3428955 0 16.344055 3.3141918 22.243347 9.2134905c5.899292 5.8992977 9.213501 13.900465 9.213501 22.243334l0 278.3777c0 17.373138 -14.083679 31.456818 -31.456848 31.456818l-520.20447 0c-17.373123 0 -31.456825 -14.083679 -31.456825 -31.456818z" fill-rule="evenodd"/><path stroke="#434343" stroke-width="3.0" stroke-linejoin="round" stroke-linecap="butt" d="m81.47234 42.79147l0 0c0 -17.373125 14.083702 -31.456825 31.456825 -31.456825l520.20447 0c8.3428955 0 16.344055 3.3141918 22.243347 9.2134905c5.899292 5.8992977 9.213501 13.900465 9.213501 22.243334l0 278.3777c0 17.373138 -14.083679 31.456818 -31.456848 31.456818l-520.20447 0c-17.373123 0 -31.456825 -14.083679 -31.456825 -31.456818z" fill-rule="evenodd"/><path fill="#000000" d="m322.8313 50.785534q1.484375 -0.375 3.953125 -0.796875q2.484375 -0.421875 5.703125 -0.421875q2.890625 0 4.796875 0.828125q1.921875 0.8125 3.0625 2.28125q1.140625 1.46875 1.609375 3.53125q0.46875 2.046875 0.46875 4.515625l0 13.624996l-4.34375 0l0 -12.687496q0 -2.25 -0.3125 -3.828125q-0.296875 -1.59375 -1.0 -2.5625q-0.6875 -0.984375 -1.859375 -1.421875q-1.15625 -0.453125 -2.890625 -0.453125q-0.703125 0 -1.453125 0.046875q-0.734375 0.046875 -1.421875 0.125q-0.671875 0.0625 -1.203125 0.15625q-0.53125 0.09375 -0.765625 0.140625l0 20.484371l-4.34375 0l0 -23.562496zm48.18686 11.4375q0 2.8906212 -0.84375 5.218746q-0.828125 2.328125 -2.34375 4.015625q-1.515625 1.671875 -3.625 2.59375q-2.09375 0.90625 -4.5625 0.90625q-2.46875 0 -4.578125 -0.90625q-2.09375 -0.921875 -3.609375 -2.59375q-1.515625 -1.6875 -2.359375 -4.015625q-0.84375 -2.328125 -0.84375 -5.218746q0 -2.859375 0.84375 -5.203125q0.84375 -2.359375 2.359375 -4.03125q1.515625 -1.6875 3.609375 -2.59375q2.109375 -0.921875 4.578125 -0.921875q2.46875 0 4.5625 0.921875q2.109375 0.90625 3.625 2.59375q1.515625 1.671875 2.34375 4.03125q0.84375 2.34375 0.84375 5.203125zm-4.515625 0q0 -4.109375 -1.84375 -6.515625q-1.84375 -2.40625 -5.015625 -2.40625q-3.171875 0 -5.015625 2.40625q-1.84375 2.40625 -1.84375 6.515625q0 4.093746 1.84375 6.499996q1.84375 2.40625 5.015625 2.40625q3.171875 0 5.015625 -2.40625q1.84375 -2.40625 1.84375 -6.499996zm26.30838 -7.0q-0.796875 -0.65625 -2.296875 -1.265625q-1.484375 -0.609375 -3.25 -0.609375q-1.875 0 -3.203125 0.6875q-1.328125 0.671875 -2.171875 1.859375q-0.828125 1.1875 -1.203125 2.828125q-0.375 1.625 -0.375 3.5q0 4.234371 2.09375 6.546871q2.109375 2.3125 5.609375 2.3125q1.765625 0 2.953125 -0.15625q1.1875 -0.171875 1.84375 -0.359375l0 -15.343746zm0 -16.328125l4.34375 -0.75l0 35.499996q-1.5 0.421875 -3.828125 0.84375q-2.328125 0.421875 -5.359375 0.421875q-2.8125 0 -5.046875 -0.890625q-2.234375 -0.890625 -3.828125 -2.515625q-1.578125 -1.640625 -2.453125 -3.984375q-0.859375 -2.359375 -0.859375 -5.296871q0 -2.8125 0.71875 -5.140625q0.734375 -2.328125 2.125 -4.0q1.40625 -1.6875 3.4375 -2.625q2.03125 -0.9375 4.640625 -0.9375q2.09375 0 3.703125 0.5625q1.609375 0.5625 2.40625 1.078125l0 -12.265625zm10.449219 23.375q0 -3.21875 0.9375 -5.625q0.9375 -2.40625 2.46875 -3.984375q1.546875 -1.59375 3.546875 -2.390625q2.015625 -0.796875 4.109375 -0.796875q4.890625 0 7.5 3.0625q2.625 3.0625 2.625 9.3125q0 0.28125 0 0.71875q0 0.4375 -0.046875 0.8125l-16.609375 0q0.28125 3.7812462 2.1875 5.749996q1.921875 1.953125 5.96875 1.953125q2.296875 0 3.859375 -0.390625q1.5625 -0.40625 2.359375 -0.78125l0.59375 3.640625q-0.78125 0.421875 -2.765625 0.890625q-1.984375 0.46875 -4.5 0.46875q-3.171875 0 -5.484375 -0.953125q-2.3125 -0.96875 -3.8125 -2.640625q-1.484375 -1.6875 -2.21875 -3.984375q-0.71875 -2.3125 -0.71875 -5.062496zm16.65625 -2.390625q0.046875 -2.9375 -1.46875 -4.828125q-1.515625 -1.890625 -4.171875 -1.890625q-1.5 0 -2.640625 0.59375q-1.140625 0.578125 -1.9375 1.515625q-0.78125 0.921875 -1.234375 2.140625q-0.4375 1.21875 -0.578125 2.46875l12.03125 0z" fill-rule="nonzero"/><path fill="#efefef" d="m11.893448 73.77057l0 0c0 -6.3840103 5.17527 -11.559284 11.559286 -11.559284l120.75544 0c3.0657196 0 6.0058594 1.2178497 8.173645 3.3856392c2.167801 2.1677856 3.3856506 5.107933 3.3856506 8.173645l0 46.235764c0 6.384018 -5.1752777 11.55928 -11.559296 11.55928l-120.75544 0c-6.384016 0 -11.559286 -5.1752625 -11.559286 -11.55928z" fill-rule="evenodd"/><path stroke="#434343" stroke-width="2.0" stroke-linejoin="round" stroke-linecap="butt" d="m11.893448 73.77057l0 0c0 -6.3840103 5.17527 -11.559284 11.559286 -11.559284l120.75544 0c3.0657196 0 6.0058594 1.2178497 8.173645 3.3856392c2.167801 2.1677856 3.3856506 5.107933 3.3856506 8.173645l0 46.235764c0 6.384018 -5.1752777 11.55928 -11.559296 11.55928l-120.75544 0c-6.384016 0 -11.559286 -5.1752625 -11.559286 -11.55928z" fill-rule="evenodd"/><path fill="#000000" d="m36.668438 103.02845l-2.09375 0l0 -9.0625l2.09375 0l0 9.0625zm0.21875 -11.71875q0 0.59375 -0.390625 0.9375q-0.375 0.34375 -0.890625 0.34375q-0.53125 0 -0.921875 -0.34375q-0.375 -0.34375 -0.375 -0.9375q0 -0.59375 0.375 -0.9375q0.390625 -0.359375 0.921875 -0.359375q0.515625 0 0.890625 0.359375q0.390625 0.34375 0.390625 0.9375zm2.4387817 2.953125q0.609375 -0.171875 1.578125 -0.328125q0.96875 -0.15625 2.15625 -0.15625q1.109375 0 1.84375 0.3125q0.75 0.296875 1.1875 0.84375q0.453125 0.53125 0.625 1.3125q0.1875 0.765625 0.1875 1.6875l0 5.09375l-2.09375 0l0 -4.765625q0 -0.734375 -0.09375 -1.234375q-0.09375 -0.515625 -0.3125 -0.828125q-0.21875 -0.328125 -0.59375 -0.46875q-0.375 -0.15625 -0.90625 -0.15625q-0.40625 0 -0.84375 0.0625q-0.421875 0.046875 -0.625 0.078125l0 7.3125l-2.109375 0l0 -8.765625zm16.152512 4.28125q0 -1.40625 -0.640625 -2.1875q-0.625 -0.78125 -2.03125 -0.78125q-0.28125 0 -0.609375 0.03125q-0.3125 0.015625 -0.625 0.109375l0 5.1875q0.265625 0.1875 0.71875 0.359375q0.46875 0.15625 0.984375 0.15625q1.15625 0 1.671875 -0.78125q0.53125 -0.78125 0.53125 -2.09375zm2.15625 -0.03125q0 1.03125 -0.28125 1.90625q-0.265625 0.859375 -0.765625 1.484375q-0.5 0.625 -1.25 0.96875q-0.75 0.34375 -1.703125 0.34375q-0.640625 0 -1.1875 -0.15625q-0.53125 -0.15625 -0.875 -0.34375l0 3.515625l-2.109375 0l0 -11.96875q0.640625 -0.171875 1.578125 -0.328125q0.9375 -0.15625 1.984375 -0.15625q1.0625 0 1.90625 0.328125q0.859375 0.328125 1.453125 0.953125q0.609375 0.609375 0.921875 1.484375q0.328125 0.875 0.328125 1.96875zm9.593121 4.234375q-0.609375 0.15625 -1.578125 0.3125q-0.96875 0.171875 -2.1249962 0.171875q-1.09375 0 -1.828125 -0.3125q-0.734375 -0.3125 -1.1875 -0.859375q-0.4375 -0.5625 -0.625 -1.328125q-0.1875 -0.765625 -0.1875 -1.6875l0 -5.078125l2.09375 0l0 4.75q0 1.453125 0.421875 2.078125q0.421875 0.625 1.484375 0.625q0.3749962 0 0.7968712 -0.03125q0.4375 -0.046875 0.640625 -0.09375l0 -7.328125l2.09375 0l0 8.78125zm2.570984 -11.171875l2.09375 -0.34375l0 2.734375l3.21875 0l0 1.75l-3.21875 0l0 3.6875q0 1.09375 0.34375 1.5625q0.34375 0.46875 1.1875 0.46875q0.5625 0 1.0 -0.125q0.453125 -0.125 0.703125 -0.21875l0.34375 1.65625q-0.359375 0.15625 -0.953125 0.3125q-0.578125 0.171875 -1.375 0.171875q-0.96875 0 -1.625 -0.25q-0.65625 -0.265625 -1.03125 -0.75q-0.375 -0.5 -0.53125 -1.203125q-0.15625 -0.703125 -0.15625 -1.609375l0 -7.84375zm11.374298 2.6875q0.609375 -0.171875 1.578125 -0.328125q0.96875 -0.15625 2.15625 -0.15625q1.109375 0 1.84375 0.3125q0.75 0.296875 1.1875 0.84375q0.453125 0.53125 0.625 1.3125q0.1875 0.765625 0.1875 1.6875l0 5.09375l-2.09375 0l0 -4.765625q0 -0.734375 -0.09375 -1.234375q-0.09375 -0.515625 -0.3125 -0.828125q-0.21875 -0.328125 -0.59375 -0.46875q-0.375 -0.15625 -0.90625 -0.15625q-0.40625 0 -0.84375 0.0625q-0.421875 0.046875 -0.625 0.078125l0 7.3125l-2.109375 0l0 -8.765625zm18.340012 4.21875q0 1.078125 -0.3125 1.96875q-0.3125 0.875 -0.890625 1.5q-0.5625 0.625 -1.375 0.984375q-0.796875 0.34375 -1.765625 0.34375q-0.984375 0 -1.78125 -0.34375q-0.796875 -0.359375 -1.375 -0.984375q-0.5625 -0.625 -0.890625 -1.5q-0.3125 -0.890625 -0.3125 -1.96875q0 -1.0625 0.3125 -1.9375q0.328125 -0.875 0.90625 -1.5q0.59375 -0.625 1.390625 -0.953125q0.796875 -0.34375 1.75 -0.34375q0.953125 0 1.75 0.34375q0.8125 0.328125 1.375 0.953125q0.578125 0.625 0.890625 1.5q0.328125 0.875 0.328125 1.9375zm-2.15625 0q0 -1.34375 -0.578125 -2.125q-0.578125 -0.796875 -1.609375 -0.796875q-1.046875 0 -1.625 0.796875q-0.578125 0.78125 -0.578125 2.125q0 1.375 0.578125 2.171875q0.578125 0.796875 1.625 0.796875q1.03125 0 1.609375 -0.796875q0.578125 -0.796875 0.578125 -2.171875zm5.971527 -0.015625q0 1.390625 0.65625 2.1875q0.65625 0.78125 1.8125 0.78125q0.5 0 0.859375 -0.046875q0.359375 -0.046875 0.578125 -0.09375l0 -5.203125q-0.265625 -0.1875 -0.734375 -0.34375q-0.453125 -0.171875 -0.96875 -0.171875q-1.15625 0 -1.6875 0.78125q-0.515625 0.78125 -0.515625 2.109375zm6.015625 4.28125q-0.625 0.1875 -1.578125 0.34375q-0.9375 0.15625 -1.984375 0.15625q-1.078125 0 -1.921875 -0.328125q-0.84375 -0.328125 -1.453125 -0.9375q-0.59375 -0.609375 -0.921875 -1.484375q-0.3125 -0.875 -0.3125 -1.96875q0 -1.078125 0.265625 -1.953125q0.28125 -0.875 0.796875 -1.5q0.515625 -0.625 1.265625 -0.953125q0.75 -0.34375 1.71875 -0.34375q0.65625 0 1.15625 0.15625q0.5 0.15625 0.859375 0.34375l0 -4.34375l2.109375 -0.359375l0 13.171875zm2.1556244 -4.203125q0 -1.203125 0.359375 -2.09375q0.359375 -0.90625 0.9375 -1.5q0.59375 -0.609375 1.359375 -0.90625q0.765625 -0.296875 1.5625 -0.296875q1.859375 0 2.90625 1.15625q1.0625 1.15625 1.0625 3.46875q0 0.171875 -0.015625 0.390625q0 0.203125 -0.03125 0.390625l-5.96875 0q0.078125 1.078125 0.765625 1.6875q0.6875 0.59375 1.984375 0.59375q0.765625 0 1.390625 -0.140625q0.640625 -0.140625 1.0 -0.296875l0.28125 1.71875q-0.171875 0.09375 -0.484375 0.1875q-0.296875 0.09375 -0.6875 0.171875q-0.390625 0.078125 -0.84375 0.125q-0.453125 0.046875 -0.90625 0.046875q-1.203125 0 -2.09375 -0.34375q-0.875 -0.359375 -1.453125 -0.984375q-0.5625 -0.640625 -0.84375 -1.5q-0.28125 -0.859375 -0.28125 -1.875zm6.078125 -0.9375q0 -0.4375 -0.125 -0.828125q-0.109375 -0.390625 -0.34375 -0.671875q-0.234375 -0.28125 -0.578125 -0.4375q-0.328125 -0.171875 -0.796875 -0.171875q-0.484375 0 -0.859375 0.1875q-0.359375 0.171875 -0.609375 0.46875q-0.25 0.296875 -0.390625 0.671875q-0.140625 0.375 -0.1875 0.78125l3.890625 0zm8.587982 -4.09375q1.0 -0.390625 2.0156326 -1.015625q1.015625 -0.625 1.796875 -1.484375l1.46875 0l0 12.015625l-2.09375 0l0 -9.203125q-0.46875 0.359375 -1.1875 0.71875q-0.7031326 0.34375 -1.3593826 0.5625l-0.640625 -1.59375z" fill-rule="nonzero"/><path fill="#000000" fill-opacity="0.0" d="m155.76747 96.88845c20.112244 0 30.169373 21.275589 40.224487 42.551186c10.055115 21.275589 20.10823 42.551178 40.216446 42.551178" fill-rule="evenodd"/><path stroke="#434343" stroke-width="1.0" stroke-linejoin="round" stroke-linecap="butt" d="m155.76747 96.88845c20.112244 0 30.169373 21.275589 40.224487 42.551186c10.055115 21.275589 20.10823 42.551178 40.216446 42.551178" fill-rule="evenodd"/><path fill="#efefef" d="m11.893448 158.86244l0 0c0 -6.384018 5.17527 -11.559296 11.559286 -11.559296l120.75544 0c3.0657196 0 6.0058594 1.2178497 8.173645 3.3856354c2.167801 2.1677856 3.3856506 5.1079407 3.3856506 8.17366l0 46.23575c0 6.384018 -5.1752777 11.559296 -11.559296 11.559296l-120.75544 0c-6.384016 0 -11.559286 -5.1752777 -11.559286 -11.559296z" fill-rule="evenodd"/><path stroke="#434343" stroke-width="2.0" stroke-linejoin="round" stroke-linecap="butt" d="m11.893448 158.86244l0 0c0 -6.384018 5.17527 -11.559296 11.559286 -11.559296l120.75544 0c3.0657196 0 6.0058594 1.2178497 8.173645 3.3856354c2.167801 2.1677856 3.3856506 5.1079407 3.3856506 8.17366l0 46.23575c0 6.384018 -5.1752777 11.559296 -11.559296 11.559296l-120.75544 0c-6.384016 0 -11.559286 -5.1752777 -11.559286 -11.559296z" fill-rule="evenodd"/><path fill="#000000" d="m36.668438 188.12032l-2.09375 0l0 -9.0625l2.09375 0l0 9.0625zm0.21875 -11.71875q0 0.59375 -0.390625 0.9375q-0.375 0.34375 -0.890625 0.34375q-0.53125 0 -0.921875 -0.34375q-0.375 -0.34375 -0.375 -0.9375q0 -0.59375 0.375 -0.9375q0.390625 -0.359375 0.921875 -0.359375q0.515625 0 0.890625 0.359375q0.390625 0.34375 0.390625 0.9375zm2.4387817 2.953125q0.609375 -0.171875 1.578125 -0.328125q0.96875 -0.15625 2.15625 -0.15625q1.109375 0 1.84375 0.3125q0.75 0.296875 1.1875 0.84375q0.453125 0.53125 0.625 1.3125q0.1875 0.765625 0.1875 1.6875l0 5.09375l-2.09375 0l0 -4.765625q0 -0.734375 -0.09375 -1.234375q-0.09375 -0.515625 -0.3125 -0.828125q-0.21875 -0.328125 -0.59375 -0.46875q-0.375 -0.15625 -0.90625 -0.15625q-0.40625 0 -0.84375 0.0625q-0.421875 0.046875 -0.625 0.078125l0 7.3125l-2.109375 0l0 -8.765625zm16.152512 4.28125q0 -1.40625 -0.640625 -2.1875q-0.625 -0.78125 -2.03125 -0.78125q-0.28125 0 -0.609375 0.03125q-0.3125 0.015625 -0.625 0.109375l0 5.1875q0.265625 0.1875 0.71875 0.359375q0.46875 0.15625 0.984375 0.15625q1.15625 0 1.671875 -0.78125q0.53125 -0.78125 0.53125 -2.09375zm2.15625 -0.03125q0 1.03125 -0.28125 1.90625q-0.265625 0.859375 -0.765625 1.484375q-0.5 0.625 -1.25 0.96875q-0.75 0.34375 -1.703125 0.34375q-0.640625 0 -1.1875 -0.15625q-0.53125 -0.15625 -0.875 -0.34375l0 3.515625l-2.109375 0l0 -11.96875q0.640625 -0.171875 1.578125 -0.328125q0.9375 -0.15625 1.984375 -0.15625q1.0625 0 1.90625 0.328125q0.859375 0.328125 1.453125 0.953125q0.609375 0.609375 0.921875 1.484375q0.328125 0.875 0.328125 1.96875zm9.593121 4.234375q-0.609375 0.15625 -1.578125 0.3125q-0.96875 0.171875 -2.1249962 0.171875q-1.09375 0 -1.828125 -0.3125q-0.734375 -0.3125 -1.1875 -0.859375q-0.4375 -0.5625 -0.625 -1.328125q-0.1875 -0.765625 -0.1875 -1.6875l0 -5.078125l2.09375 0l0 4.75q0 1.453125 0.421875 2.078125q0.421875 0.625 1.484375 0.625q0.3749962 0 0.7968712 -0.03125q0.4375 -0.046875 0.640625 -0.09375l0 -7.328125l2.09375 0l0 8.78125zm2.570984 -11.171875l2.09375 -0.34375l0 2.734375l3.21875 0l0 1.75l-3.21875 0l0 3.6875q0 1.09375 0.34375 1.5625q0.34375 0.46875 1.1875 0.46875q0.5625 0 1.0 -0.125q0.453125 -0.125 0.703125 -0.21875l0.34375 1.65625q-0.359375 0.15625 -0.953125 0.3125q-0.578125 0.171875 -1.375 0.171875q-0.96875 0 -1.625 -0.25q-0.65625 -0.265625 -1.03125 -0.75q-0.375 -0.5 -0.53125 -1.203125q-0.15625 -0.703125 -0.15625 -1.609375l0 -7.84375zm11.374298 2.6875q0.609375 -0.171875 1.578125 -0.328125q0.96875 -0.15625 2.15625 -0.15625q1.109375 0 1.84375 0.3125q0.75 0.296875 1.1875 0.84375q0.453125 0.53125 0.625 1.3125q0.1875 0.765625 0.1875 1.6875l0 5.09375l-2.09375 0l0 -4.765625q0 -0.734375 -0.09375 -1.234375q-0.09375 -0.515625 -0.3125 -0.828125q-0.21875 -0.328125 -0.59375 -0.46875q-0.375 -0.15625 -0.90625 -0.15625q-0.40625 0 -0.84375 0.0625q-0.421875 0.046875 -0.625 0.078125l0 7.3125l-2.109375 0l0 -8.765625zm18.340012 4.21875q0 1.078125 -0.3125 1.96875q-0.3125 0.875 -0.890625 1.5q-0.5625 0.625 -1.375 0.984375q-0.796875 0.34375 -1.765625 0.34375q-0.984375 0 -1.78125 -0.34375q-0.796875 -0.359375 -1.375 -0.984375q-0.5625 -0.625 -0.890625 -1.5q-0.3125 -0.890625 -0.3125 -1.96875q0 -1.0625 0.3125 -1.9375q0.328125 -0.875 0.90625 -1.5q0.59375 -0.625 1.390625 -0.953125q0.796875 -0.34375 1.75 -0.34375q0.953125 0 1.75 0.34375q0.8125 0.328125 1.375 0.953125q0.578125 0.625 0.890625 1.5q0.328125 0.875 0.328125 1.9375zm-2.15625 0q0 -1.34375 -0.578125 -2.125q-0.578125 -0.796875 -1.609375 -0.796875q-1.046875 0 -1.625 0.796875q-0.578125 0.78125 -0.578125 2.125q0 1.375 0.578125 2.171875q0.578125 0.796875 1.625 0.796875q1.03125 0 1.609375 -0.796875q0.578125 -0.796875 0.578125 -2.171875zm5.971527 -0.015625q0 1.390625 0.65625 2.1875q0.65625 0.78125 1.8125 0.78125q0.5 0 0.859375 -0.046875q0.359375 -0.046875 0.578125 -0.09375l0 -5.203125q-0.265625 -0.1875 -0.734375 -0.34375q-0.453125 -0.171875 -0.96875 -0.171875q-1.15625 0 -1.6875 0.78125q-0.515625 0.78125 -0.515625 2.109375zm6.015625 4.28125q-0.625 0.1875 -1.578125 0.34375q-0.9375 0.15625 -1.984375 0.15625q-1.078125 0 -1.921875 -0.328125q-0.84375 -0.328125 -1.453125 -0.9375q-0.59375 -0.609375 -0.921875 -1.484375q-0.3125 -0.875 -0.3125 -1.96875q0 -1.078125 0.265625 -1.953125q0.28125 -0.875 0.796875 -1.5q0.515625 -0.625 1.265625 -0.953125q0.75 -0.34375 1.71875 -0.34375q0.65625 0 1.15625 0.15625q0.5 0.15625 0.859375 0.34375l0 -4.34375l2.109375 -0.359375l0 13.171875zm2.1556244 -4.203125q0 -1.203125 0.359375 -2.09375q0.359375 -0.90625 0.9375 -1.5q0.59375 -0.609375 1.359375 -0.90625q0.765625 -0.296875 1.5625 -0.296875q1.859375 0 2.90625 1.15625q1.0625 1.15625 1.0625 3.46875q0 0.171875 -0.015625 0.390625q0 0.203125 -0.03125 0.390625l-5.96875 0q0.078125 1.078125 0.765625 1.6875q0.6875 0.59375 1.984375 0.59375q0.765625 0 1.390625 -0.140625q0.640625 -0.140625 1.0 -0.296875l0.28125 1.71875q-0.171875 0.09375 -0.484375 0.1875q-0.296875 0.09375 -0.6875 0.171875q-0.390625 0.078125 -0.84375 0.125q-0.453125 0.046875 -0.90625 0.046875q-1.203125 0 -2.09375 -0.34375q-0.875 -0.359375 -1.453125 -0.984375q-0.5625 -0.640625 -0.84375 -1.5q-0.28125 -0.859375 -0.28125 -1.875zm6.078125 -0.9375q0 -0.4375 -0.125 -0.828125q-0.109375 -0.390625 -0.34375 -0.671875q-0.234375 -0.28125 -0.578125 -0.4375q-0.328125 -0.171875 -0.796875 -0.171875q-0.484375 0 -0.859375 0.1875q-0.359375 0.171875 -0.609375 0.46875q-0.25 0.296875 -0.390625 0.671875q-0.140625 0.375 -0.1875 0.78125l3.890625 0zm15.353615 -3.46875q0 0.625 -0.265625 1.234375q-0.25 0.59375 -0.65625 1.15625q-0.40625 0.5625 -0.9375 1.09375q-0.515625 0.515625 -1.03125 1.015625q-0.28125 0.265625 -0.625 0.640625q-0.34375 0.359375 -0.65625 0.71875q-0.3125 0.359375 -0.546875 0.703125q-0.21875763 0.328125 -0.23438263 0.5625l5.3437576 0l0 1.765625l-7.6406326 0q-0.015625 -0.140625 -0.015625 -0.328125q0 -0.203125 0 -0.3125q0 -0.828125 0.265625 -1.53125q0.265625 -0.703125 0.6875 -1.3125q0.4375 -0.609375 0.96875 -1.140625q0.5468826 -0.53125 1.0937576 -1.0625q0.40625 -0.390625 0.78125 -0.765625q0.390625 -0.390625 0.671875 -0.765625q0.296875 -0.375 0.46875 -0.765625q0.171875 -0.390625 0.171875 -0.796875q0 -0.90625 -0.53125 -1.28125q-0.515625 -0.390625 -1.25 -0.390625q-0.484375 0 -0.90625 0.140625q-0.42188263 0.140625 -0.7500076 0.328125q-0.3125 0.1875 -0.5625 0.390625q-0.234375 0.203125 -0.359375 0.328125l-1.03125 -1.484375q0.71875 -0.6875 1.703125 -1.109375q0.9843826 -0.421875 2.1093826 -0.421875q1.921875 0 2.828125 0.90625q0.90625 0.90625 0.90625 2.484375z" fill-rule="nonzero"/><path fill="#efefef" d="m11.893454 243.9543l0 0c0 -6.384018 5.175268 -11.55928 11.559286 -11.55928l120.75543 0c3.0657196 0 6.0058746 1.2178497 8.17366 3.3856354c2.1677856 2.1677856 3.3856354 5.1079254 3.3856354 8.173645l0 46.235764c0 6.3840027 -5.1752777 11.559265 -11.559296 11.559265l-120.75543 0c-6.384018 0 -11.559286 -5.1752625 -11.559286 -11.559265z" fill-rule="evenodd"/><path stroke="#434343" stroke-width="2.0" stroke-linejoin="round" stroke-linecap="butt" d="m11.893454 243.9543l0 0c0 -6.384018 5.175268 -11.55928 11.559286 -11.55928l120.75543 0c3.0657196 0 6.0058746 1.2178497 8.17366 3.3856354c2.1677856 2.1677856 3.3856354 5.1079254 3.3856354 8.173645l0 46.235764c0 6.3840027 -5.1752777 11.559265 -11.559296 11.559265l-120.75543 0c-6.384018 0 -11.559286 -5.1752625 -11.559286 -11.559265z" fill-rule="evenodd"/><path fill="#000000" d="m36.521156 273.2122l-2.09375 0l0 -9.0625l2.09375 0l0 9.0625zm0.21875 -11.71875q0 0.59375 -0.390625 0.9375q-0.375 0.34375 -0.890625 0.34375q-0.53125 0 -0.921875 -0.34375q-0.375 -0.34375 -0.375 -0.9375q0 -0.59375 0.375 -0.9375q0.390625 -0.359375 0.921875 -0.359375q0.515625 0 0.890625 0.359375q0.390625 0.34375 0.390625 0.9375zm2.4387817 2.953125q0.609375 -0.171875 1.578125 -0.328125q0.96875 -0.15625 2.15625 -0.15625q1.109375 0 1.84375 0.3125q0.75 0.296875 1.1875 0.84375q0.453125 0.53125 0.625 1.3125q0.1875 0.765625 0.1875 1.6875l0 5.09375l-2.09375 0l0 -4.765625q0 -0.734375 -0.09375 -1.234375q-0.09375 -0.515625 -0.3125 -0.828125q-0.21875 -0.328125 -0.59375 -0.46875q-0.375 -0.15625 -0.90625 -0.15625q-0.40625 0 -0.84375 0.0625q-0.421875 0.046875 -0.625 0.078125l0 7.3125l-2.109375 0l0 -8.765625zm16.152512 4.28125q0 -1.40625 -0.640625 -2.1875q-0.625 -0.78125 -2.03125 -0.78125q-0.28125 0 -0.609375 0.03125q-0.3125 0.015625 -0.625 0.109375l0 5.1875q0.265625 0.1875 0.71875 0.359375q0.46875 0.15625 0.984375 0.15625q1.15625 0 1.671875 -0.78125q0.53125 -0.78125 0.53125 -2.09375zm2.15625 -0.03125q0 1.03125 -0.28125 1.90625q-0.265625 0.859375 -0.765625 1.484375q-0.5 0.625 -1.25 0.96875q-0.75 0.34375 -1.703125 0.34375q-0.640625 0 -1.1875 -0.15625q-0.53125 -0.15625 -0.875 -0.34375l0 3.515625l-2.109375 0l0 -11.96875q0.640625 -0.171875 1.578125 -0.328125q0.9375 -0.15625 1.984375 -0.15625q1.0625 0 1.90625 0.328125q0.859375 0.328125 1.453125 0.953125q0.609375 0.609375 0.921875 1.484375q0.328125 0.875 0.328125 1.96875zm9.593124 4.234375q-0.609375 0.15625 -1.578125 0.3125q-0.96875 0.171875 -2.125 0.171875q-1.09375 0 -1.828125 -0.3125q-0.734375 -0.3125 -1.1875 -0.859375q-0.4375 -0.5625 -0.625 -1.328125q-0.1875 -0.765625 -0.1875 -1.6875l0 -5.078125l2.09375 0l0 4.75q0 1.453125 0.421875 2.078125q0.421875 0.625 1.484375 0.625q0.375 0 0.796875 -0.03125q0.4375 -0.046875 0.640625 -0.09375l0 -7.328125l2.09375 0l0 8.78125zm2.570984 -11.171875l2.09375 -0.34375l0 2.734375l3.21875 0l0 1.75l-3.21875 0l0 3.6875q0 1.09375 0.34375 1.5625q0.34375 0.46875 1.1875 0.46875q0.5625 0 1.0 -0.125q0.453125 -0.125 0.703125 -0.21875l0.34375 1.65625q-0.359375 0.15625 -0.953125 0.3125q-0.578125 0.171875 -1.375 0.171875q-0.96875 0 -1.625 -0.25q-0.65625 -0.265625 -1.03125 -0.75q-0.375 -0.5 -0.53125 -1.203125q-0.15625 -0.703125 -0.15625 -1.609375l0 -7.84375zm11.374298 2.6875q0.609375 -0.171875 1.578125 -0.328125q0.96875 -0.15625 2.15625 -0.15625q1.109375 0 1.84375 0.3125q0.75 0.296875 1.1875 0.84375q0.453125 0.53125 0.625 1.3125q0.1875 0.765625 0.1875 1.6875l0 5.09375l-2.09375 0l0 -4.765625q0 -0.734375 -0.09375 -1.234375q-0.09375 -0.515625 -0.3125 -0.828125q-0.21875 -0.328125 -0.59375 -0.46875q-0.375 -0.15625 -0.90625 -0.15625q-0.40625 0 -0.84375 0.0625q-0.421875 0.046875 -0.625 0.078125l0 7.3125l-2.109375 0l0 -8.765625zm18.340012 4.21875q0 1.078125 -0.3125 1.96875q-0.3125 0.875 -0.890625 1.5q-0.5625 0.625 -1.375 0.984375q-0.796875 0.34375 -1.765625 0.34375q-0.984375 0 -1.78125 -0.34375q-0.796875 -0.359375 -1.375 -0.984375q-0.5625 -0.625 -0.890625 -1.5q-0.3125 -0.890625 -0.3125 -1.96875q0 -1.0625 0.3125 -1.9375q0.328125 -0.875 0.90625 -1.5q0.59375 -0.625 1.390625 -0.953125q0.796875 -0.34375 1.75 -0.34375q0.953125 0 1.75 0.34375q0.8125 0.328125 1.375 0.953125q0.578125 0.625 0.890625 1.5q0.328125 0.875 0.328125 1.9375zm-2.15625 0q0 -1.34375 -0.578125 -2.125q-0.578125 -0.796875 -1.609375 -0.796875q-1.046875 0 -1.625 0.796875q-0.578125 0.78125 -0.578125 2.125q0 1.375 0.578125 2.171875q0.578125 0.796875 1.625 0.796875q1.03125 0 1.609375 -0.796875q0.578125 -0.796875 0.578125 -2.171875zm5.971527 -0.015625q0 1.390625 0.65625 2.1875q0.65625 0.78125 1.8125 0.78125q0.5 0 0.859375 -0.046875q0.359375 -0.046875 0.578125 -0.09375l0 -5.203125q-0.265625 -0.1875 -0.734375 -0.34375q-0.453125 -0.171875 -0.96875 -0.171875q-1.15625 0 -1.6875 0.78125q-0.515625 0.78125 -0.515625 2.109375zm6.015625 4.28125q-0.625 0.1875 -1.578125 0.34375q-0.9375 0.15625 -1.984375 0.15625q-1.078125 0 -1.921875 -0.328125q-0.84375 -0.328125 -1.453125 -0.9375q-0.59375 -0.609375 -0.921875 -1.484375q-0.3125 -0.875 -0.3125 -1.96875q0 -1.078125 0.265625 -1.953125q0.28125 -0.875 0.796875 -1.5q0.515625 -0.625 1.265625 -0.953125q0.75 -0.34375 1.71875 -0.34375q0.65625 0 1.15625 0.15625q0.5 0.15625 0.859375 0.34375l0 -4.34375l2.109375 -0.359375l0 13.171875zm2.1556244 -4.203125q0 -1.203125 0.359375 -2.09375q0.359375 -0.90625 0.9375 -1.5q0.59375 -0.609375 1.359375 -0.90625q0.765625 -0.296875 1.5625 -0.296875q1.859375 0 2.90625 1.15625q1.0625 1.15625 1.0625 3.46875q0 0.171875 -0.015625 0.390625q0 0.203125 -0.03125 0.390625l-5.96875 0q0.078125 1.078125 0.765625 1.6875q0.6875 0.59375 1.984375 0.59375q0.765625 0 1.390625 -0.140625q0.640625 -0.140625 1.0 -0.296875l0.28125 1.71875q-0.171875 0.09375 -0.484375 0.1875q-0.296875 0.09375 -0.6875 0.171875q-0.390625 0.078125 -0.84375 0.125q-0.453125 0.046875 -0.90625 0.046875q-1.203125 0 -2.09375 -0.34375q-0.875 -0.359375 -1.453125 -0.984375q-0.5625 -0.640625 -0.84375 -1.5q-0.28125 -0.859375 -0.28125 -1.875zm6.078125 -0.9375q0 -0.4375 -0.125 -0.828125q-0.109375 -0.390625 -0.34375 -0.671875q-0.234375 -0.28125 -0.578125 -0.4375q-0.328125 -0.171875 -0.796875 -0.171875q-0.484375 0 -0.859375 0.1875q-0.359375 0.171875 -0.609375 0.46875q-0.25 0.296875 -0.390625 0.671875q-0.140625 0.375 -0.1875 0.78125l3.890625 0zm8.353607 -3.34375q0.609375 -0.171875 1.578125 -0.328125q0.9687576 -0.15625 2.1562576 -0.15625q1.109375 0 1.84375 0.3125q0.75 0.296875 1.1875 0.84375q0.453125 0.53125 0.625 1.3125q0.1875 0.765625 0.1875 1.6875l0 5.09375l-2.09375 0l0 -4.765625q0 -0.734375 -0.09375 -1.234375q-0.09375 -0.515625 -0.3125 -0.828125q-0.21875 -0.328125 -0.59375 -0.46875q-0.375 -0.15625 -0.90625 -0.15625q-0.40625 0 -0.84375 0.0625q-0.421875 0.046875 -0.6250076 0.078125l0 7.3125l-2.109375 0l0 -8.765625z" fill-rule="nonzero"/><path fill="#d9ead3" d="m236.21692 158.86244l0 0c0 -6.384018 5.1752625 -11.559296 11.55928 -11.559296l133.1649 0c3.0657043 0 6.0058594 1.2178497 8.173645 3.3856354c2.1677856 2.1677856 3.3856506 5.1079407 3.3856506 8.17366l0 46.23575c0 6.384018 -5.175293 11.559296 -11.559296 11.559296l-133.1649 0c-6.384018 0 -11.55928 -5.1752777 -11.55928 -11.559296z" fill-rule="evenodd"/><path stroke="#434343" stroke-width="2.0" stroke-linejoin="round" stroke-linecap="butt" d="m236.21692 158.86244l0 0c0 -6.384018 5.1752625 -11.559296 11.55928 -11.559296l133.1649 0c3.0657043 0 6.0058594 1.2178497 8.173645 3.3856354c2.1677856 2.1677856 3.3856506 5.1079407 3.3856506 8.17366l0 46.23575c0 6.384018 -5.175293 11.559296 -11.559296 11.559296l-133.1649 0c-6.384018 0 -11.55928 -5.1752777 -11.55928 -11.559296z" fill-rule="evenodd"/><path fill="#000000" d="m266.88232 187.27531q0.90625 0 1.3125 -0.203125q0.40625 -0.21875 0.40625 -0.75q0 -0.484375 -0.4375 -0.796875q-0.4375 -0.3125 -1.4375 -0.6875q-0.625 -0.234375 -1.140625 -0.484375q-0.5 -0.25 -0.875 -0.578125q-0.375 -0.34375 -0.59375 -0.8125q-0.21875 -0.484375 -0.21875 -1.171875q0 -1.34375 0.984375 -2.109375q1.0 -0.78125 2.703125 -0.78125q0.84375 0 1.625 0.15625q0.796875 0.15625 1.1875 0.3125l-0.40625 1.828125q-0.375 -0.171875 -0.953125 -0.3125q-0.578125 -0.140625 -1.34375 -0.140625q-0.6875 0 -1.125 0.234375q-0.421875 0.234375 -0.421875 0.71875q0 0.25 0.078125 0.4375q0.078125 0.1875 0.28125 0.34375q0.21875 0.15625 0.546875 0.3125q0.34375 0.15625 0.828125 0.328125q0.796875 0.296875 1.359375 0.59375q0.5625 0.28125 0.921875 0.65625q0.359375 0.359375 0.53125 0.828125q0.171875 0.453125 0.171875 1.109375q0 1.40625 -1.046875 2.125q-1.03125 0.71875 -2.953125 0.71875q-1.28125 0 -2.078125 -0.21875q-0.78125 -0.21875 -1.09375 -0.34375l0.390625 -1.890625q0.5 0.203125 1.203125 0.390625q0.703125 0.1875 1.59375 0.1875zm14.057159 -8.125q-1.515625 5.546875 -3.515625 10.0625q-0.375 0.84375 -0.765625 1.4375q-0.390625 0.59375 -0.875 0.984375q-0.484375 0.40625 -1.078125 0.578125q-0.59375 0.171875 -1.375 0.171875q-0.53125 0 -1.046875 -0.109375q-0.5 -0.109375 -0.765625 -0.234375l0.40625 -1.8125q0.671875 0.25 1.328125 0.25q0.875 0 1.359375 -0.421875q0.5 -0.40625 0.875 -1.28125q-1.0625 -2.0625 -2.046875 -4.484375q-0.96875 -2.421875 -1.734375 -5.140625l2.40625 0q0.1875 0.78125 0.453125 1.703125q0.265625 0.90625 0.578125 1.84375q0.328125 0.9375 0.671875 1.875q0.359375 0.9375 0.71875 1.734375q0.59375 -1.65625 1.109375 -3.53125q0.53125 -1.875 0.96875 -3.625l2.328125 0zm1.7138367 0.3125q0.65625 -0.1875 1.6875 -0.359375q1.046875 -0.171875 2.328125 -0.171875q1.1875 0 1.984375 0.328125q0.8125 0.328125 1.28125 0.921875q0.484375 0.578125 0.671875 1.421875q0.203125 0.828125 0.203125 1.8125l0 5.484375l-2.265625 0l0 -5.125q0 -0.78125 -0.109375 -1.328125q-0.09375 -0.5625 -0.328125 -0.90625q-0.234375 -0.34375 -0.640625 -0.5q-0.390625 -0.15625 -0.96875 -0.15625q-0.4375 0 -0.90625 0.0625q-0.453125 0.046875 -0.6875 0.078125l0 7.875l-2.25 0l0 -9.4375zm10.367035 4.5625q0 -1.078125 0.328125 -2.015625q0.34375 -0.9375 0.96875 -1.625q0.625 -0.703125 1.515625 -1.09375q0.90625 -0.390625 2.03125 -0.390625q1.375 0 2.609375 0.5l-0.484375 1.84375q-0.390625 -0.15625 -0.890625 -0.265625q-0.5 -0.125 -1.0625 -0.125q-1.3125 0 -2.015625 0.84375q-0.6875 0.828125 -0.6875 2.328125q0 1.453125 0.65625 2.3125q0.65625 0.84375 2.203125 0.84375q0.578125 0 1.140625 -0.109375q0.5625 -0.109375 0.96875 -0.28125l0.3125 1.859375q-0.375 0.1875 -1.125 0.34375q-0.75 0.15625 -1.5625 0.15625q-1.25 0 -2.171875 -0.375q-0.921875 -0.390625 -1.53125 -1.078125q-0.59375 -0.6875 -0.90625 -1.625q-0.296875 -0.9375 -0.296875 -2.046875zm9.352631 4.875l0 -14.109375l2.25 -0.375l0 4.84375q0.375 -0.140625 0.875 -0.234375q0.5 -0.09375 0.984375 -0.09375q1.171875 0 1.9375 0.328125q0.78125 0.328125 1.25 0.921875q0.46875 0.578125 0.65625 1.40625q0.203125 0.8125 0.203125 1.828125l0 5.484375l-2.265625 0l0 -5.125q0 -0.78125 -0.109375 -1.328125q-0.09375 -0.5625 -0.328125 -0.90625q-0.234375 -0.34375 -0.625 -0.5q-0.390625 -0.15625 -0.96875 -0.15625q-0.453125 0 -0.921875 0.09375q-0.453125 0.09375 -0.6875 0.15625l0 7.765625l-2.25 0zm16.42044 -7.71875q-0.28125 -0.09375 -0.78125 -0.1875q-0.484375 -0.109375 -1.140625 -0.109375q-0.375 0 -0.796875 0.078125q-0.421875 0.0625 -0.59375 0.125l0 7.8125l-2.25 0l0 -9.296875q0.65625 -0.234375 1.625 -0.453125q0.984375 -0.21875 2.1875 -0.21875q0.21875 0 0.515625 0.03125q0.296875 0.03125 0.59375 0.078125q0.296875 0.046875 0.578125 0.109375q0.28125 0.0625 0.453125 0.125l-0.390625 1.90625zm10.784088 2.828125q0 1.15625 -0.34375 2.109375q-0.328125 0.953125 -0.953125 1.625q-0.609375 0.671875 -1.484375 1.046875q-0.859375 0.375 -1.90625 0.375q-1.046875 0 -1.90625 -0.375q-0.859375 -0.375 -1.484375 -1.046875q-0.609375 -0.671875 -0.953125 -1.625q-0.34375 -0.953125 -0.34375 -2.109375q0 -1.15625 0.34375 -2.09375q0.34375 -0.9375 0.96875 -1.609375q0.625 -0.671875 1.484375 -1.03125q0.859375 -0.375 1.890625 -0.375q1.03125 0 1.890625 0.375q0.875 0.359375 1.484375 1.03125q0.625 0.671875 0.96875 1.609375q0.34375 0.9375 0.34375 2.09375zm-2.3125 0q0 -1.453125 -0.625 -2.296875q-0.625 -0.859375 -1.75 -0.859375q-1.125 0 -1.75 0.859375q-0.625 0.84375 -0.625 2.296875q0 1.46875 0.625 2.328125q0.625 0.859375 1.75 0.859375q1.125 0 1.75 -0.859375q0.625 -0.859375 0.625 -2.328125zm4.640808 -4.546875q0.65625 -0.1875 1.6875 -0.359375q1.046875 -0.171875 2.328125 -0.171875q1.1875 0 1.984375 0.328125q0.8125 0.328125 1.28125 0.921875q0.484375 0.578125 0.671875 1.421875q0.203125 0.828125 0.203125 1.8125l0 5.484375l-2.265625 0l0 -5.125q0 -0.78125 -0.109375 -1.328125q-0.09375 -0.5625 -0.328125 -0.90625q-0.234375 -0.34375 -0.640625 -0.5q-0.390625 -0.15625 -0.96875 -0.15625q-0.4375 0 -0.90625 0.0625q-0.453125 0.046875 -0.6875 0.078125l0 7.875l-2.25 0l0 -9.4375zm13.19516 9.4375l-2.265625 0l0 -9.75l2.265625 0l0 9.75zm0.234375 -12.609375q0 0.625 -0.40625 1.0q-0.40625 0.375 -0.96875 0.375q-0.578125 0 -1.0 -0.375q-0.40625 -0.375 -0.40625 -1.0q0 -0.65625 0.40625 -1.03125q0.421875 -0.375 1.0 -0.375q0.5625 0 0.96875 0.375q0.40625 0.375 0.40625 1.03125zm5.0710144 10.984375q0.90625 0 1.3125 -0.203125q0.40625 -0.21875 0.40625 -0.75q0 -0.484375 -0.4375 -0.796875q-0.4375 -0.3125 -1.4375 -0.6875q-0.625 -0.234375 -1.140625 -0.484375q-0.5 -0.25 -0.875 -0.578125q-0.375 -0.34375 -0.59375 -0.8125q-0.21875 -0.484375 -0.21875 -1.171875q0 -1.34375 0.984375 -2.109375q1.0 -0.78125 2.703125 -0.78125q0.84375 0 1.625 0.15625q0.796875 0.15625 1.1875 0.3125l-0.40625 1.828125q-0.375 -0.171875 -0.953125 -0.3125q-0.578125 -0.140625 -1.34375 -0.140625q-0.6875 0 -1.125 0.234375q-0.421875 0.234375 -0.421875 0.71875q0 0.25 0.078125 0.4375q0.078125 0.1875 0.28125 0.34375q0.21875 0.15625 0.546875 0.3125q0.34375 0.15625 0.828125 0.328125q0.796875 0.296875 1.359375 0.59375q0.5625 0.28125 0.921875 0.65625q0.359375 0.359375 0.53125 0.828125q0.171875 0.453125 0.171875 1.109375q0 1.40625 -1.046875 2.125q-1.03125 0.71875 -2.953125 0.71875q-1.28125 0 -2.078125 -0.21875q-0.78125 -0.21875 -1.09375 -0.34375l0.390625 -1.890625q0.5 0.203125 1.203125 0.390625q0.703125 0.1875 1.59375 0.1875zm5.5415344 -3.203125q0 -1.296875 0.375 -2.265625q0.390625 -0.96875 1.015625 -1.609375q0.640625 -0.640625 1.46875 -0.96875q0.828125 -0.328125 1.671875 -0.328125q2.015625 0 3.140625 1.25q1.140625 1.25 1.140625 3.734375q0 0.1875 -0.015625 0.421875q0 0.234375 -0.03125 0.421875l-6.421875 0q0.09375 1.171875 0.828125 1.8125q0.734375 0.640625 2.125 0.640625q0.828125 0 1.5 -0.140625q0.6875 -0.15625 1.078125 -0.328125l0.296875 1.859375q-0.1875 0.078125 -0.515625 0.1875q-0.3125 0.109375 -0.734375 0.1875q-0.421875 0.078125 -0.90625 0.140625q-0.484375 0.0625 -1.0 0.0625q-1.28125 0 -2.234375 -0.375q-0.953125 -0.390625 -1.5625 -1.078125q-0.609375 -0.6875 -0.921875 -1.609375q-0.296875 -0.921875 -0.296875 -2.015625zm6.546875 -1.015625q0 -0.46875 -0.125 -0.875q-0.125 -0.421875 -0.390625 -0.734375q-0.25 -0.3125 -0.609375 -0.484375q-0.359375 -0.171875 -0.859375 -0.171875q-0.53125 0 -0.921875 0.203125q-0.390625 0.1875 -0.671875 0.5q-0.265625 0.3125 -0.421875 0.734375q-0.140625 0.40625 -0.1875 0.828125l4.1875 0z" fill-rule="nonzero"/><path fill="#000000" fill-opacity="0.0" d="m155.76747 181.98032c20.112244 0 30.169373 0.01574707 40.224487 0.03149414c10.055115 0.01574707 20.10823 0.03149414 40.216446 0.03149414" fill-rule="evenodd"/><path stroke="#434343" stroke-width="1.0" stroke-linejoin="round" stroke-linecap="butt" d="m155.76746 181.98032c20.112259 0 30.169388 0.01574707 40.224503 0.03149414c5.0275574 0.007873535 10.054626 0.01574707 16.338318 0.021652222c3.1418304 0.002960205 6.5978546 0.00541687 10.525162 0.0071411133l7.3529816 0.0014953613" fill-rule="evenodd"/><path fill="#434343" stroke="#434343" stroke-width="1.0" stroke-linecap="butt" d="m230.20808 183.69382l4.5384216 -1.6508026l-4.5377502 -1.6526489z" fill-rule="evenodd"/><path fill="#000000" fill-opacity="0.0" d="m155.76747 267.07217c20.112244 0 30.169373 -21.275589 40.224487 -42.551178c10.05513 -21.275589 20.10823 -42.551178 40.21646 -42.551178" fill-rule="evenodd"/><path stroke="#434343" stroke-width="1.0" stroke-linejoin="round" stroke-linecap="butt" d="m155.76747 267.07217c20.112244 0 30.169373 -21.275589 40.224487 -42.551178c10.05513 -21.275589 20.10823 -42.551178 40.21646 -42.551178" fill-rule="evenodd"/><path fill="#d9ead3" d="m414.87592 158.89394l0 0c0 -6.384018 5.175293 -11.559296 11.559296 -11.559296l133.16489 0c3.0657349 0 6.0058594 1.2178497 8.173645 3.3856354c2.1677856 2.1677856 3.3856812 5.1079407 3.3856812 8.17366l0 46.23575c0 6.384018 -5.175293 11.559296 -11.559326 11.559296l-133.16489 0c-6.3840027 0 -11.559296 -5.1752777 -11.559296 -11.559296z" fill-rule="evenodd"/><path stroke="#434343" stroke-width="2.0" stroke-linejoin="round" stroke-linecap="butt" d="m414.87592 158.89394l0 0c0 -6.384018 5.175293 -11.559296 11.559296 -11.559296l133.16489 0c3.0657349 0 6.0058594 1.2178497 8.173645 3.3856354c2.1677856 2.1677856 3.3856812 5.1079407 3.3856812 8.17366l0 46.23575c0 6.384018 -5.175293 11.559296 -11.559326 11.559296l-133.16489 0c-6.3840027 0 -11.559296 -5.1752777 -11.559296 -11.559296z" fill-rule="evenodd"/><path fill="#000000" d="m466.65237 184.10368q0 -1.515625 -0.6875 -2.34375q-0.671875 -0.84375 -2.1875 -0.84375q-0.3125 0 -0.65625 0.03125q-0.34375 0.015625 -0.6875 0.109375l0 5.578125q0.3125 0.203125 0.796875 0.390625q0.5 0.171875 1.0625 0.171875q1.21875 0 1.78125 -0.84375q0.578125 -0.84375 0.578125 -2.25zm2.3125 -0.046875q0 1.125 -0.296875 2.0625q-0.28125 0.921875 -0.828125 1.59375q-0.53125 0.671875 -1.34375 1.046875q-0.8125 0.375 -1.84375 0.375q-0.6875 0 -1.265625 -0.171875q-0.578125 -0.15625 -0.953125 -0.359375l0 3.78125l-2.25 0l0 -12.890625q0.6875 -0.1875 1.6875 -0.359375q1.015625 -0.171875 2.140625 -0.171875q1.15625 0 2.0625 0.359375q0.921875 0.359375 1.5625 1.03125q0.640625 0.65625 0.984375 1.59375q0.34375 0.9375 0.34375 2.109375zm7.9003906 -2.84375q-0.28125 -0.09375 -0.78125 -0.1875q-0.484375 -0.109375 -1.140625 -0.109375q-0.375 0 -0.796875 0.078125q-0.421875 0.0625 -0.59375 0.125l0 7.8125l-2.25 0l0 -9.296875q0.65625 -0.234375 1.625 -0.453125q0.984375 -0.21875 2.1875 -0.21875q0.21875 0 0.515625 0.03125q0.296875 0.03125 0.59375 0.078125q0.296875 0.046875 0.578125 0.109375q0.28125 0.0625 0.453125 0.125l-0.390625 1.90625zm1.4090881 2.890625q0 -1.296875 0.375 -2.265625q0.390625 -0.96875 1.015625 -1.609375q0.640625 -0.640625 1.46875 -0.96875q0.828125 -0.328125 1.671875 -0.328125q2.015625 0 3.140625 1.25q1.140625 1.25 1.140625 3.734375q0 0.1875 -0.015625 0.421875q0 0.234375 -0.03125 0.421875l-6.421875 0q0.09375 1.171875 0.828125 1.8125q0.734375 0.640625 2.125 0.640625q0.828125 0 1.5 -0.140625q0.6875 -0.15625 1.078125 -0.328125l0.296875 1.859375q-0.1875 0.078125 -0.515625 0.1875q-0.3125 0.109375 -0.734375 0.1875q-0.421875 0.078125 -0.90625 0.140625q-0.484375 0.0625 -1.0 0.0625q-1.28125 0 -2.234375 -0.375q-0.953125 -0.390625 -1.5625 -1.078125q-0.609375 -0.6875 -0.921875 -1.609375q-0.296875 -0.921875 -0.296875 -2.015625zm6.546875 -1.015625q0 -0.46875 -0.125 -0.875q-0.125 -0.421875 -0.390625 -0.734375q-0.25 -0.3125 -0.609375 -0.484375q-0.359375 -0.171875 -0.859375 -0.171875q-0.53125 0 -0.921875 0.203125q-0.390625 0.1875 -0.671875 0.5q-0.265625 0.3125 -0.421875 0.734375q-0.140625 0.40625 -0.1875 0.828125l4.1875 0zm11.12146 1.015625q0 -1.515625 -0.6875 -2.34375q-0.671875 -0.84375 -2.1875 -0.84375q-0.3125 0 -0.65625 0.03125q-0.34375 0.015625 -0.6875 0.109375l0 5.578125q0.3125 0.203125 0.796875 0.390625q0.5 0.171875 1.0625 0.171875q1.21875 0 1.78125 -0.84375q0.578125 -0.84375 0.578125 -2.25zm2.3125 -0.046875q0 1.125 -0.296875 2.0625q-0.28125 0.921875 -0.828125 1.59375q-0.53125 0.671875 -1.34375 1.046875q-0.8125 0.375 -1.84375 0.375q-0.6875 0 -1.265625 -0.171875q-0.578125 -0.15625 -0.953125 -0.359375l0 3.78125l-2.25 0l0 -12.890625q0.6875 -0.1875 1.6875 -0.359375q1.015625 -0.171875 2.140625 -0.171875q1.15625 0 2.0625 0.359375q0.921875 0.359375 1.5625 1.03125q0.640625 0.65625 0.984375 1.59375q0.34375 0.9375 0.34375 2.109375zm5.7753906 3.296875q1.03125 0 1.578125 -0.125l0 -2.5q-0.1875 -0.046875 -0.546875 -0.09375q-0.34375 -0.0625 -0.78125 -0.0625q-0.375 0 -0.75 0.0625q-0.375 0.046875 -0.6875 0.203125q-0.3125 0.140625 -0.5 0.40625q-0.1875 0.265625 -0.1875 0.6875q0 0.796875 0.5 1.109375q0.515625 0.3125 1.375 0.3125zm-0.1875 -8.421875q1.109375 0 1.875 0.28125q0.765625 0.28125 1.21875 0.78125q0.46875 0.5 0.65625 1.21875q0.203125 0.71875 0.203125 1.578125l0 5.921875q-0.53125 0.109375 -1.59375 0.265625q-1.046875 0.15625 -2.359375 0.15625q-0.875 0 -1.609375 -0.171875q-0.734375 -0.15625 -1.25 -0.53125q-0.5 -0.375 -0.796875 -0.96875q-0.28125 -0.609375 -0.28125 -1.484375q0 -0.828125 0.328125 -1.40625q0.328125 -0.578125 0.875 -0.9375q0.5625 -0.375 1.296875 -0.53125q0.75 -0.15625 1.546875 -0.15625q0.375 0 0.78125 0.046875q0.40625 0.046875 0.875 0.15625l0 -0.375q0 -0.390625 -0.09375 -0.734375q-0.09375 -0.359375 -0.328125 -0.625q-0.234375 -0.28125 -0.625 -0.421875q-0.375 -0.15625 -0.953125 -0.15625q-0.78125 0 -1.4375 0.109375q-0.640625 0.109375 -1.0625 0.265625l-0.28125 -1.828125q0.4375 -0.15625 1.25 -0.296875q0.828125 -0.15625 1.765625 -0.15625zm12.274902 2.28125q-0.28125 -0.09375 -0.78125 -0.1875q-0.484375 -0.109375 -1.140625 -0.109375q-0.375 0 -0.796875 0.078125q-0.421875 0.0625 -0.59375 0.125l0 7.8125l-2.2499695 0l0 -9.296875q0.65625 -0.234375 1.6249695 -0.453125q0.984375 -0.21875 2.1875 -0.21875q0.21875 0 0.515625 0.03125q0.296875 0.03125 0.59375 0.078125q0.296875 0.046875 0.578125 0.109375q0.28125 0.0625 0.453125 0.125l-0.390625 1.90625zm1.4091187 2.890625q0 -1.296875 0.375 -2.265625q0.390625 -0.96875 1.015625 -1.609375q0.640625 -0.640625 1.46875 -0.96875q0.828125 -0.328125 1.671875 -0.328125q2.015625 0 3.140625 1.25q1.140625 1.25 1.140625 3.734375q0 0.1875 -0.015625 0.421875q0 0.234375 -0.03125 0.421875l-6.421875 0q0.09375 1.171875 0.828125 1.8125q0.734375 0.640625 2.125 0.640625q0.828125 0 1.5 -0.140625q0.6875 -0.15625 1.078125 -0.328125l0.296875 1.859375q-0.1875 0.078125 -0.515625 0.1875q-0.3125 0.109375 -0.734375 0.1875q-0.421875 0.078125 -0.90625 0.140625q-0.484375 0.0625 -1.0 0.0625q-1.28125 0 -2.234375 -0.375q-0.953125 -0.390625 -1.5625 -1.078125q-0.609375 -0.6875 -0.921875 -1.609375q-0.296875 -0.921875 -0.296875 -2.015625zm6.546875 -1.015625q0 -0.46875 -0.125 -0.875q-0.125 -0.421875 -0.390625 -0.734375q-0.25 -0.3125 -0.609375 -0.484375q-0.359375 -0.171875 -0.859375 -0.171875q-0.53125 0 -0.921875 0.203125q-0.390625 0.1875 -0.671875 0.5q-0.265625 0.3125 -0.421875 0.734375q-0.140625 0.40625 -0.1875 0.828125l4.1875 0z" fill-rule="nonzero"/><path fill="#000000" fill-opacity="0.0" d="m392.5004 181.98032c5.5939026 0 8.392517 0.01574707 11.187805 0.03149414c2.7952576 0.01574707 5.5871887 0.03149414 11.174377 0.03149414" fill-rule="evenodd"/><path stroke="#434343" stroke-width="1.0" stroke-linejoin="round" stroke-linecap="butt" d="m392.50037 181.98032c5.5939026 0 8.392548 0.01574707 11.187836 0.03149414c1.397644 0.007873535 2.794403 0.01574707 4.540222 0.021652222l0.6341553 0.0015411377" fill-rule="evenodd"/><path fill="#434343" stroke="#434343" stroke-width="1.0" stroke-linecap="butt" d="m408.8603 183.68674l4.5403748 -1.6454468l-4.535797 -1.6580048z" fill-rule="evenodd"/><path fill="#d9d2e9" d="m593.5353 158.92543l0 0c0 -6.384018 5.175293 -11.559296 11.559326 -11.559296l120.75543 0c3.0657349 0 6.0058594 1.2178497 8.173645 3.3856506c2.1677856 2.1677856 3.38562 5.1079254 3.38562 8.173645l0 46.23575c0 6.384018 -5.175232 11.559296 -11.559265 11.559296l-120.75543 0c-6.384033 0 -11.559326 -5.1752777 -11.559326 -11.559296z" fill-rule="evenodd"/><path stroke="#434343" stroke-width="2.0" stroke-linejoin="round" stroke-linecap="butt" d="m593.5353 158.92543l0 0c0 -6.384018 5.175293 -11.559296 11.559326 -11.559296l120.75543 0c3.0657349 0 6.0058594 1.2178497 8.173645 3.3856506c2.1677856 2.1677856 3.38562 5.1079254 3.38562 8.173645l0 46.23575c0 6.384018 -5.175232 11.559296 -11.559265 11.559296l-120.75543 0c-6.384033 0 -11.559326 -5.1752777 -11.559326 -11.559296z" fill-rule="evenodd"/><path fill="#000000" d="m622.41614 183.6208q0 1.390625 0.65625 2.1875q0.65625 0.78125 1.8125 0.78125q0.5 0 0.859375 -0.046875q0.359375 -0.046875 0.578125 -0.09375l0 -5.203125q-0.265625 -0.1875 -0.734375 -0.34375q-0.453125 -0.171875 -0.96875 -0.171875q-1.15625 0 -1.6875 0.78125q-0.515625 0.78125 -0.515625 2.109375zm6.015625 4.28125q-0.625 0.1875 -1.578125 0.34375q-0.9375 0.15625 -1.984375 0.15625q-1.078125 0 -1.921875 -0.328125q-0.84375 -0.328125 -1.453125 -0.9375q-0.59375 -0.609375 -0.921875 -1.484375q-0.3125 -0.875 -0.3125 -1.96875q0 -1.078125 0.265625 -1.953125q0.28125 -0.875 0.796875 -1.5q0.515625 -0.625 1.265625 -0.953125q0.75 -0.34375 1.71875 -0.34375q0.65625 0 1.15625 0.15625q0.5 0.15625 0.859375 0.34375l0 -4.34375l2.109375 -0.359375l0 13.171875zm2.1556396 -4.203125q0 -1.203125 0.359375 -2.09375q0.359375 -0.90625 0.9375 -1.5q0.59375 -0.609375 1.359375 -0.90625q0.765625 -0.296875 1.5625 -0.296875q1.859375 0 2.90625 1.15625q1.0625 1.15625 1.0625 3.46875q0 0.171875 -0.015625 0.390625q0 0.203125 -0.03125 0.390625l-5.96875 0q0.078125 1.078125 0.765625 1.6875q0.6875 0.59375 1.984375 0.59375q0.765625 0 1.390625 -0.140625q0.640625 -0.140625 1.0 -0.296875l0.28125 1.71875q-0.171875 0.09375 -0.484375 0.1875q-0.296875 0.09375 -0.6875 0.171875q-0.390625 0.078125 -0.84375 0.125q-0.453125 0.046875 -0.90625 0.046875q-1.203125 0 -2.09375 -0.34375q-0.875 -0.359375 -1.453125 -0.984375q-0.5625 -0.640625 -0.84375 -1.5q-0.28125 -0.859375 -0.28125 -1.875zm6.078125 -0.9375q0 -0.4375 -0.125 -0.828125q-0.109375 -0.390625 -0.34375 -0.671875q-0.234375 -0.28125 -0.578125 -0.4375q-0.328125 -0.171875 -0.796875 -0.171875q-0.484375 0 -0.859375 0.1875q-0.359375 0.171875 -0.609375 0.46875q-0.25 0.296875 -0.390625 0.671875q-0.140625 0.375 -0.1875 0.78125l3.890625 0zm6.597412 3.921875q0.828125 0 1.203125 -0.203125q0.390625 -0.203125 0.390625 -0.6875q0 -0.453125 -0.40625 -0.75q-0.40625 -0.296875 -1.34375 -0.640625q-0.578125 -0.203125 -1.0625 -0.4375q-0.46875 -0.234375 -0.8125 -0.546875q-0.34375 -0.3125 -0.546875 -0.75q-0.203125 -0.4375 -0.203125 -1.09375q0 -1.234375 0.921875 -1.953125q0.921875 -0.71875 2.5 -0.71875q0.796875 0 1.515625 0.140625q0.734375 0.140625 1.09375 0.28125l-0.375 1.703125q-0.34375 -0.15625 -0.890625 -0.28125q-0.53125 -0.140625 -1.25 -0.140625q-0.640625 0 -1.046875 0.21875q-0.390625 0.21875 -0.390625 0.671875q0 0.21875 0.078125 0.40625q0.078125 0.171875 0.265625 0.3125q0.203125 0.140625 0.515625 0.296875q0.3125 0.140625 0.75 0.296875q0.75 0.28125 1.265625 0.546875q0.53125 0.265625 0.859375 0.609375q0.34375 0.34375 0.5 0.78125q0.15625 0.421875 0.15625 1.03125q0 1.296875 -0.96875 1.96875q-0.953125 0.65625 -2.734375 0.65625q-1.203125 0 -1.9375 -0.203125q-0.71875 -0.1875 -1.015625 -0.3125l0.359375 -1.75q0.46875 0.1875 1.109375 0.375q0.65625 0.171875 1.5 0.171875zm5.5438843 -9.953125l2.09375 -0.34375l0 2.734375l3.21875 0l0 1.75l-3.21875 0l0 3.6875q0 1.09375 0.34375 1.5625q0.34375 0.46875 1.1875 0.46875q0.5625 0 1.0 -0.125q0.453125 -0.125 0.703125 -0.21875l0.34375 1.65625q-0.359375 0.15625 -0.953125 0.3125q-0.578125 0.171875 -1.375 0.171875q-0.96875 0 -1.625 -0.25q-0.65625 -0.265625 -1.03125 -0.75q-0.375 -0.5 -0.53125 -1.203125q-0.15625 -0.703125 -0.15625 -1.609375l0 -7.84375zm9.461914 11.453125l-2.09375 0l0 -9.0625l2.09375 0l0 9.0625zm0.21875 -11.71875q0 0.59375 -0.390625 0.9375q-0.375 0.34375 -0.890625 0.34375q-0.53125 0 -0.921875 -0.34375q-0.375 -0.34375 -0.375 -0.9375q0 -0.59375 0.375 -0.9375q0.390625 -0.359375 0.921875 -0.359375q0.515625 0 0.890625 0.359375q0.390625 0.34375 0.390625 0.9375zm2.4387817 2.953125q0.609375 -0.171875 1.578125 -0.328125q0.96875 -0.15625 2.15625 -0.15625q1.109375 0 1.84375 0.3125q0.75 0.296875 1.1875 0.84375q0.453125 0.53125 0.625 1.3125q0.1875 0.765625 0.1875 1.6875l0 5.09375l-2.09375 0l0 -4.765625q0 -0.734375 -0.09375 -1.234375q-0.09375 -0.515625 -0.3125 -0.828125q-0.21875 -0.328125 -0.59375 -0.46875q-0.375 -0.15625 -0.90625 -0.15625q-0.40625 0 -0.84375 0.0625q-0.421875 0.046875 -0.625 0.078125l0 7.3125l-2.109375 0l0 -8.765625zm13.324341 7.296875q0.984375 0 1.484375 -0.109375l0 -2.328125q-0.171875 -0.046875 -0.515625 -0.09375q-0.328125 -0.0625 -0.71875 -0.0625q-0.34375 0 -0.703125 0.0625q-0.359375 0.046875 -0.640625 0.1875q-0.28125 0.140625 -0.453125 0.390625q-0.171875 0.25 -0.171875 0.625q0 0.75 0.453125 1.046875q0.46875 0.28125 1.265625 0.28125zm-0.171875 -7.8125q1.046875 0 1.75 0.265625q0.71875 0.25 1.140625 0.71875q0.421875 0.46875 0.59375 1.140625q0.1875 0.65625 0.1875 1.453125l0 5.5q-0.484375 0.09375 -1.46875 0.234375q-0.96875 0.15625 -2.203125 0.15625q-0.8125 0 -1.484375 -0.15625q-0.671875 -0.15625 -1.15625 -0.5q-0.46875 -0.34375 -0.75 -0.890625q-0.265625 -0.5625 -0.265625 -1.375q0 -0.78125 0.296875 -1.3125q0.3125 -0.546875 0.828125 -0.875q0.53125 -0.34375 1.203125 -0.484375q0.6875 -0.15625 1.4375 -0.15625q0.34375 0 0.71875 0.046875q0.390625 0.046875 0.828125 0.140625l0 -0.34375q0 -0.359375 -0.09375 -0.6875q-0.078125 -0.328125 -0.296875 -0.578125q-0.21875 -0.265625 -0.578125 -0.390625q-0.359375 -0.140625 -0.890625 -0.140625q-0.734375 0 -1.34375 0.109375q-0.59375 0.09375 -0.984375 0.234375l-0.25 -1.703125q0.390625 -0.140625 1.15625 -0.265625q0.765625 -0.140625 1.625 -0.140625zm6.143799 -2.171875l2.09375 -0.34375l0 2.734375l3.21875 0l0 1.75l-3.21875 0l0 3.6875q0 1.09375 0.34375 1.5625q0.34375 0.46875 1.1875 0.46875q0.5625 0 1.0 -0.125q0.453125 -0.125 0.703125 -0.21875l0.34375 1.65625q-0.359375 0.15625 -0.953125 0.3125q-0.578125 0.171875 -1.375 0.171875q-0.96875 0 -1.625 -0.25q-0.65625 -0.265625 -1.03125 -0.75q-0.375 -0.5 -0.53125 -1.203125q-0.15625 -0.703125 -0.15625 -1.609375l0 -7.84375zm9.461853 11.453125l-2.09375 0l0 -9.0625l2.09375 0l0 9.0625zm0.21875 -11.71875q0 0.59375 -0.390625 0.9375q-0.375 0.34375 -0.890625 0.34375q-0.53125 0 -0.921875 -0.34375q-0.375 -0.34375 -0.375 -0.9375q0 -0.59375 0.375 -0.9375q0.390625 -0.359375 0.921875 -0.359375q0.515625 0 0.890625 0.359375q0.390625 0.34375 0.390625 0.9375zm10.641907 7.171875q0 1.078125 -0.3125 1.96875q-0.3125 0.875 -0.890625 1.5q-0.5625 0.625 -1.375 0.984375q-0.796875 0.34375 -1.765625 0.34375q-0.984375 0 -1.78125 -0.34375q-0.796875 -0.359375 -1.375 -0.984375q-0.5625 -0.625 -0.890625 -1.5q-0.3125 -0.890625 -0.3125 -1.96875q0 -1.0625 0.3125 -1.9375q0.328125 -0.875 0.90625 -1.5q0.59375 -0.625 1.390625 -0.953125q0.796875 -0.34375 1.75 -0.34375q0.953125 0 1.75 0.34375q0.8125 0.328125 1.375 0.953125q0.578125 0.625 0.890625 1.5q0.328125 0.875 0.328125 1.9375zm-2.15625 0q0 -1.34375 -0.578125 -2.125q-0.578125 -0.796875 -1.609375 -0.796875q-1.046875 0 -1.625 0.796875q-0.578125 0.78125 -0.578125 2.125q0 1.375 0.578125 2.171875q0.578125 0.796875 1.625 0.796875q1.03125 0 1.609375 -0.796875q0.578125 -0.796875 0.578125 -2.171875zm4.3153076 -4.21875q0.609375 -0.171875 1.578125 -0.328125q0.96875 -0.15625 2.15625 -0.15625q1.109375 0 1.84375 0.3125q0.75 0.296875 1.1875 0.84375q0.453125 0.53125 0.625 1.3125q0.1875 0.765625 0.1875 1.6875l0 5.09375l-2.09375 0l0 -4.765625q0 -0.734375 -0.09375 -1.234375q-0.09375 -0.515625 -0.3125 -0.828125q-0.21875 -0.328125 -0.59375 -0.46875q-0.375 -0.15625 -0.90625 -0.15625q-0.40625 0 -0.84375 0.0625q-0.421875 0.046875 -0.625 0.078125l0 7.3125l-2.109375 0l0 -8.765625z" fill-rule="nonzero"/><path fill="#000000" fill-opacity="0.0" d="m571.1594 182.01181c5.593994 0 8.3927 0.01574707 11.187988 0.03149414c2.795288 0.01574707 5.587097 0.03149414 11.174194 0.03149414" fill-rule="evenodd"/><path stroke="#434343" stroke-width="1.0" stroke-linejoin="round" stroke-linecap="butt" d="m571.1594 182.01181c5.593994 0 8.392761 0.01574707 11.187988 0.03149414c1.397644 0.007873535 2.7944336 0.01574707 4.540161 0.021652222l0.6340332 0.0015411377" fill-rule="evenodd"/><path fill="#434343" stroke="#434343" stroke-width="1.0" stroke-linecap="butt" d="m587.51935 183.71823l4.540344 -1.6454468l-4.5357666 -1.6580048z" fill-rule="evenodd"/></g></svg>