<svg version="1.1" viewBox="0.0 0.0 850.8425196850394 211.9028871391076" fill="none" stroke="none" stroke-linecap="square" stroke-miterlimit="10" xmlns:xlink="http://www.w3.org/1999/xlink" xmlns="http://www.w3.org/2000/svg"><clipPath id="p.0"><path d="m0 0l850.8425 0l0 211.9029l-850.8425 0l0 -211.9029z" clip-rule="nonzero"/></clipPath><g clip-path="url(#p.0)"><path fill="#000000" fill-opacity="0.0" d="m0 0l850.8425 0l0 211.9029l-850.8425 0z" fill-rule="evenodd"/><path fill="#000000" fill-opacity="0.0" d="m213.22343 105.95062l52.34645 0" fill-rule="evenodd"/><path stroke="#000000" stroke-width="1.0" stroke-linejoin="round" stroke-linecap="butt" d="m213.22343 105.95062l52.34645 0" fill-rule="evenodd"/><path fill="#d9d9d9" d="m21.223438 105.95062l0 0c0 -53.019337 42.980663 -96.0 96.0 -96.0l0 0c25.460785 0 49.87877 10.114257 67.88225 28.117748c18.003494 18.003494 28.117752 42.421467 28.117752 67.88225l0 0c0 53.019333 -42.980667 96.0 -96.0 96.0l0 0c-53.019333 0 -96.0 -42.980667 -96.0 -96.0z" fill-rule="evenodd"/><path stroke="#000000" stroke-width="1.0" stroke-linejoin="round" stroke-linecap="butt" d="m21.223438 105.95062l0 0c0 -53.019337 42.980663 -96.0 96.0 -96.0l0 0c25.460785 0 49.87877 10.114257 67.88225 28.117748c18.003494 18.003494 28.117752 42.421467 28.117752 67.88225l0 0c0 53.019333 -42.980667 96.0 -96.0 96.0l0 0c-53.019333 0 -96.0 -42.980667 -96.0 -96.0z" fill-rule="evenodd"/><path fill="#000000" d="m70.19514 64.98837l-0.328125 -1.3906288l-0.078125 0q-0.296875 0.4218788 -0.609375 0.7187538q-0.296875 0.296875 -0.65625 0.484375q-0.34375 0.1875 -0.78125 0.28125q-0.4375 0.09375 -1.015625 0.09375q-0.625 0 -1.15625 -0.1875q-0.53125 -0.171875 -0.921875 -0.53125q-0.375 -0.375 -0.59375 -0.9375038q-0.21875381 -0.5625 -0.21875381 -1.328125q0 -1.5 1.0468788 -2.296875q1.046875 -0.796875 3.203125 -0.875l1.671875 -0.0625l0 -0.625q0 -0.609375 -0.140625 -1.015625q-0.125 -0.421875 -0.375 -0.671875q-0.25 -0.25 -0.625 -0.359375q-0.359375 -0.109375 -0.828125 -0.109375q-0.765625 0 -1.421875 0.21875q-0.640625 0.21875 -1.234375 0.53125l-0.59375 -1.25q0.671875 -0.359375 1.5 -0.609375q0.84375 -0.265625 1.75 -0.265625q0.921875 0 1.59375 0.1875q0.6875 0.1875 1.125 0.59375q0.453125 0.40625 0.671875 1.03125q0.21875 0.625 0.21875 1.53125l0 6.843754l-1.203125 0zm-3.03125 -1.1562538q0.546875 0 1.015625 -0.171875q0.484375 -0.171875 0.828125 -0.515625q0.34375 -0.359375 0.53125 -0.890625q0.203125 -0.53125 0.203125 -1.25l0 -0.90625l-1.296875 0.0625q-0.828125 0.03125 -1.390625 0.1875q-0.546875 0.140625 -0.875 0.40625q-0.328125 0.25 -0.484375 0.625q-0.140625 0.359375 -0.140625 0.828125q0 0.84375 0.4375 1.234375q0.453125 0.390625 1.171875 0.390625zm13.777023 1.1562538l-0.25 -1.3437538l-0.09375 0q-0.21875 0.3906288 -0.53125 0.6875038q-0.3125 0.28125 -0.6875 0.46875q-0.375 0.1875 -0.796875 0.28125q-0.421875 0.09375 -0.859375 0.09375q-0.828125 0 -1.453125 -0.203125q-0.625 -0.21875 -1.046875 -0.65625q-0.421875 -0.4531288 -0.640625 -1.1406288q-0.203125 -0.703125 -0.203125 -1.65625l0 -6.53125l1.65625 0l0 6.4375q0 1.1875 0.484375 1.78125q0.484375 0.59375 1.484375 0.59375q0.734375 0 1.234375 -0.234375q0.515625 -0.25 0.8125 -0.703125q0.3125 -0.46875 0.4375 -1.140625q0.140625 -0.671875 0.140625 -1.546875l0 -5.1875l1.65625 0l0 10.000004l-1.34375 0zm10.689178 -1.3437538l-0.078125 0q-0.203125 0.3125 -0.46875 0.5937538q-0.265625 0.28125 -0.625 0.5q-0.34375 0.203125 -0.78125 0.3125q-0.4375 0.125 -0.984375 0.125q-0.84375 0 -1.546875 -0.328125q-0.703125 -0.328125 -1.203125 -0.9843788q-0.5 -0.65625 -0.78125 -1.609375q-0.265625 -0.96875 -0.265625 -2.25q0 -1.28125 0.265625 -2.25q0.28125 -0.96875 0.78125 -1.625q0.5 -0.65625 1.203125 -0.984375q0.703125 -0.34375 1.546875 -0.34375q0.53125 0 0.96875 0.125q0.4375 0.109375 0.78125 0.3125q0.359375 0.203125 0.625 0.46875q0.28125 0.265625 0.484375 0.546875l0.109375 0q-0.03125 -0.296875 -0.046875 -0.578125q-0.03125 -0.25 -0.046875 -0.5q-0.015625 -0.25 -0.015625 -0.390625l0 -3.96875l1.65625 0l0 14.171879l-1.34375 0l-0.234375 -1.3437538zm-2.625 0.15625q0.703125 0 1.171875 -0.203125q0.484375 -0.21875 0.78125 -0.640625q0.296875 -0.4375 0.4375 -1.078125q0.140625 -0.640625 0.15625 -1.5l0 -0.375q0 -0.921875 -0.125 -1.625q-0.125 -0.71875 -0.421875 -1.203125q-0.296875 -0.5 -0.796875 -0.75q-0.484375 -0.25 -1.21875 -0.25q-1.21875 0 -1.8125 1.0q-0.578125 0.984375 -0.578125 2.84375q0 1.90625 0.578125 2.84375q0.59375 0.9375 1.828125 0.9375zm9.0407715 1.1875038l-1.671875 0l0 -10.000004l1.671875 0l0 10.000004zm-1.796875 -12.703129q0 -0.546875 0.28125 -0.796875q0.28125 -0.25 0.6875 -0.25q0.203125 0 0.375 0.0625q0.1875 0.0625 0.3125 0.1875q0.140625 0.125 0.203125 0.328125q0.078125 0.1875 0.078125 0.46875q0 0.53125 -0.28125 0.796875q-0.28125 0.25 -0.6875 0.25q-0.40625 0 -0.6875 -0.25q-0.28125 -0.265625 -0.28125 -0.796875zm13.109283 7.6875q0 1.25 -0.3125 2.21875q-0.296875 0.96875 -0.875 1.625q-0.5625 0.6562538 -1.375 1.0156288q-0.796875 0.34375 -1.8125 0.34375q-0.9375 0 -1.734375 -0.34375q-0.796875 -0.359375 -1.375 -1.0156288q-0.578125 -0.65625 -0.90625 -1.625q-0.3125 -0.96875 -0.3125 -2.21875q0 -1.25 0.296875 -2.203125q0.3125 -0.96875 0.875 -1.625q0.5625 -0.65625 1.375 -1.0q0.828125 -0.34375 1.828125 -0.34375q0.9375 0 1.734375 0.34375q0.796875 0.34375 1.375 1.0q0.578125 0.65625 0.890625 1.625q0.328125 0.953125 0.328125 2.203125zm-7.0 0q0 1.90625 0.625 2.875q0.625 0.953125 2.03125 0.953125q1.40625 0 2.015625 -0.953125q0.625 -0.96875 0.625 -2.875q0 -1.90625 -0.625 -2.84375q-0.625 -0.953125 -2.03125 -0.953125q-1.40625 0 -2.03125 0.953125q-0.609375 0.9375 -0.609375 2.84375zm20.441795 2.28125q0 0.71875 -0.265625 1.265625q-0.25 0.5468788 -0.75 0.9218788q-0.5 0.359375 -1.203125 0.546875q-0.703125 0.1875 -1.578125 0.1875q-0.984375 0 -1.703125 -0.171875q-0.703125 -0.15625 -1.25 -0.46875l0 -1.5000038q0.296875 0.140625 0.640625 0.28125q0.34375 0.140625 0.71875 0.25q0.390625 0.109375 0.796875 0.1875q0.40625 0.0625 0.796875 0.0625q0.59375 0 1.0 -0.09375q0.421875 -0.109375 0.6875 -0.296875q0.265625 -0.1875 0.375 -0.453125q0.125 -0.265625 0.125 -0.59375q0 -0.28125 -0.09375 -0.515625q-0.09375 -0.234375 -0.34375 -0.453125q-0.234375 -0.21875 -0.65625 -0.4375q-0.40625 -0.234375 -1.0625 -0.515625q-0.65625 -0.28125 -1.1875 -0.546875q-0.515625 -0.28125 -0.890625 -0.625q-0.359375 -0.34375 -0.5625 -0.78125q-0.1875 -0.4375 -0.1875 -1.046875q0 -0.640625 0.25 -1.140625q0.25 -0.5 0.703125 -0.828125q0.453125 -0.34375 1.09375 -0.515625q0.640625 -0.171875 1.421875 -0.171875q0.875 0 1.609375 0.203125q0.734375 0.1875 1.390625 0.5l-0.5625 1.328125q-0.59375 -0.265625 -1.21875 -0.453125q-0.625 -0.203125 -1.28125 -0.203125q-0.921875 0 -1.375 0.3125q-0.4375 0.296875 -0.4375 0.859375q0 0.328125 0.09375 0.5625q0.109375 0.234375 0.359375 0.453125q0.265625 0.203125 0.6875 0.421875q0.4375 0.203125 1.0625 0.46875q0.65625 0.28125 1.171875 0.5625q0.515625 0.265625 0.875 0.609375q0.375 0.328125 0.5625 0.765625q0.1875 0.4375 0.1875 1.0625zm10.58905 -2.28125q0 1.25 -0.3125 2.21875q-0.296875 0.96875 -0.875 1.625q-0.5625 0.6562538 -1.375 1.0156288q-0.796875 0.34375 -1.8125 0.34375q-0.9375 0 -1.734375 -0.34375q-0.796875 -0.359375 -1.375 -1.0156288q-0.578125 -0.65625 -0.90625 -1.625q-0.3125 -0.96875 -0.3125 -2.21875q0 -1.25 0.296875 -2.203125q0.3125 -0.96875 0.875 -1.625q0.5625 -0.65625 1.375 -1.0q0.828125 -0.34375 1.828125 -0.34375q0.9375 0 1.734375 0.34375q0.796875 0.34375 1.375 1.0q0.578125 0.65625 0.890625 1.625q0.328125 0.953125 0.328125 2.203125zm-7.0 0q0 1.90625 0.625 2.875q0.625 0.953125 2.03125 0.953125q1.40625 0 2.015625 -0.953125q0.625 -0.96875 0.625 -2.875q0 -1.90625 -0.625 -2.84375q-0.625 -0.953125 -2.03125 -0.953125q-1.40625 0 -2.03125 0.953125q-0.609375 0.9375 -0.609375 2.84375zm16.09555 5.015629l-0.25 -1.3437538l-0.09375 0q-0.21875 0.3906288 -0.53125 0.6875038q-0.3125 0.28125 -0.6875 0.46875q-0.375 0.1875 -0.796875 0.28125q-0.421875 0.09375 -0.859375 0.09375q-0.828125 0 -1.453125 -0.203125q-0.625 -0.21875 -1.046875 -0.65625q-0.421875 -0.4531288 -0.640625 -1.1406288q-0.203125 -0.703125 -0.203125 -1.65625l0 -6.53125l1.65625 0l0 6.4375q0 1.1875 0.484375 1.78125q0.484375 0.59375 1.484375 0.59375q0.734375 0 1.234375 -0.234375q0.515625 -0.25 0.8125 -0.703125q0.3125 -0.46875 0.4375 -1.140625q0.140625 -0.671875 0.140625 -1.546875l0 -5.1875l1.65625 0l0 10.000004l-1.34375 0zm8.829803 -10.187504q0.265625 0 0.59375 0.03125q0.328125 0.015625 0.5625 0.0625l-0.21875 1.53125q-0.25 -0.046875 -0.515625 -0.078125q-0.265625 -0.03125 -0.5 -0.03125q-0.578125 0 -1.0625 0.234375q-0.46875 0.234375 -0.8125 0.671875q-0.34375 0.421875 -0.53125 1.03125q-0.171875 0.609375 -0.171875 1.34375l0 5.390629l-1.671875 0l0 -10.000004l1.359375 0l0.203125 1.828125l0.0625 0q0.234375 -0.390625 0.484375 -0.75q0.265625 -0.375 0.578125 -0.640625q0.328125 -0.28125 0.734375 -0.453125q0.40625 -0.171875 0.90625 -0.171875zm6.942459 10.375004q-0.921875 0 -1.71875 -0.28125q-0.796875 -0.296875 -1.390625 -0.9218788q-0.59375 -0.625 -0.9375 -1.59375q-0.328125 -0.96875 -0.328125 -2.34375q0 -1.421875 0.34375 -2.421875q0.34375 -1.0 0.953125 -1.625q0.609375 -0.625 1.421875 -0.90625q0.8125 -0.28125 1.734375 -0.28125q0.703125 0 1.375 0.15625q0.6875 0.15625 1.140625 0.390625l-0.484375 1.390625q-0.203125 -0.078125 -0.46875 -0.171875q-0.25 -0.09375 -0.53125 -0.15625q-0.265625 -0.0625 -0.53125 -0.109375q-0.265625 -0.046875 -0.5 -0.046875q-1.4375 0 -2.09375 0.921875q-0.65625 0.921875 -0.65625 2.84375q0 1.921875 0.65625 2.8125q0.671875 0.890625 2.015625 0.890625q0.75 0 1.34375 -0.171875q0.59375 -0.171875 1.078125 -0.390625l0 1.4687538q-0.484375 0.265625 -1.046875 0.40625q-0.5625 0.140625 -1.375 0.140625zm8.760803 0q-1.0 0 -1.828125 -0.328125q-0.828125 -0.34375 -1.421875 -0.9843788q-0.59375 -0.65625 -0.921875 -1.609375q-0.328125 -0.96875 -0.328125 -2.1875q0 -1.25 0.296875 -2.21875q0.296875 -0.96875 0.84375 -1.640625q0.546875 -0.6875 1.3125 -1.046875q0.765625 -0.359375 1.6875 -0.359375q0.890625 0 1.609375 0.328125q0.71875 0.328125 1.21875 0.921875q0.515625 0.578125 0.78125 1.40625q0.265625 0.8125 0.265625 1.8125l0 1.03125l-6.3125 0q0.046875 1.765625 0.75 2.59375q0.703125 0.828125 2.078125 0.828125q0.453125 0 0.84375 -0.046875q0.40625 -0.046875 0.765625 -0.125q0.375 -0.09375 0.71875 -0.21875q0.359375 -0.140625 0.703125 -0.296875l0 1.4687538q-0.359375 0.171875 -0.71875 0.3125q-0.34375 0.125 -0.71875 0.203125q-0.359375 0.078125 -0.765625 0.109375q-0.390625 0.046875 -0.859375 0.046875zm-0.40625 -9.000004q-1.03125 0 -1.640625 0.71875q-0.609375 0.703125 -0.703125 2.0625l4.484375 0q0 -0.625 -0.125 -1.125q-0.125 -0.515625 -0.390625 -0.875q-0.25 -0.375 -0.65625 -0.578125q-0.40625 -0.203125 -0.96875 -0.203125z" fill-rule="nonzero"/><path fill="#f3f3f3" d="m45.002625 102.02887l144.44095 0l0 60.7874l-144.44095 0z" fill-rule="evenodd"/><path stroke="#000000" stroke-width="1.0" stroke-linejoin="round" stroke-linecap="butt" d="m45.002625 102.02887l144.44095 0l0 60.7874l-144.44095 0z" fill-rule="evenodd"/><path fill="#000000" fill-opacity="0.0" d="m50.7801 158.46368c2.4073334 -8.680542 9.6293335 -52.083206 14.443996 -52.083206c4.8146667 0 12.036667 43.402664 14.444 52.083206" fill-rule="evenodd"/><path stroke="#6aa84f" stroke-width="2.0" stroke-linejoin="round" stroke-linecap="butt" d="m50.7801 158.46368c2.4073334 -8.680542 9.6293335 -52.083206 14.443996 -52.083206c4.8146667 0 12.036667 43.402664 14.444 52.083206" fill-rule="evenodd"/><path fill="#000000" fill-opacity="0.0" d="m45.0025 158.46368l5.777603 0" fill-rule="evenodd"/><path stroke="#6aa84f" stroke-width="2.0" stroke-linejoin="round" stroke-linecap="butt" d="m45.0025 158.46368l5.777603 0" fill-rule="evenodd"/><path fill="#000000" fill-opacity="0.0" d="m85.4457 158.46368c2.4073334 -8.680542 9.6293335 -52.083206 14.444 -52.083206c4.8146667 0 12.036667 43.402664 14.444 52.083206" fill-rule="evenodd"/><path stroke="#6aa84f" stroke-width="2.0" stroke-linejoin="round" stroke-linecap="butt" d="m85.4457 158.46368c2.4073334 -8.680542 9.6293335 -52.083206 14.444 -52.083206c4.8146667 0 12.036667 43.402664 14.444 52.083206" fill-rule="evenodd"/><path fill="#000000" fill-opacity="0.0" d="m79.6681 158.46368l5.777603 0" fill-rule="evenodd"/><path stroke="#6aa84f" stroke-width="2.0" stroke-linejoin="round" stroke-linecap="butt" d="m79.6681 158.46368l5.777603 0" fill-rule="evenodd"/><path fill="#000000" fill-opacity="0.0" d="m120.1113 158.46368c2.4073334 -8.680542 9.6293335 -52.083206 14.444 -52.083206c4.8146667 0 12.036667 43.402664 14.444 52.083206" fill-rule="evenodd"/><path stroke="#6aa84f" stroke-width="2.0" stroke-linejoin="round" stroke-linecap="butt" d="m120.1113 158.46368c2.4073334 -8.680542 9.6293335 -52.083206 14.444 -52.083206c4.8146667 0 12.036667 43.402664 14.444 52.083206" fill-rule="evenodd"/><path fill="#000000" fill-opacity="0.0" d="m114.3337 158.46368l5.7775955 0" fill-rule="evenodd"/><path stroke="#6aa84f" stroke-width="2.0" stroke-linejoin="round" stroke-linecap="butt" d="m114.3337 158.46368l5.7775955 0" fill-rule="evenodd"/><path fill="#000000" fill-opacity="0.0" d="m154.7769 158.46368c2.4073334 -8.680542 9.6293335 -52.083206 14.444 -52.083206c4.8146667 0 12.036667 43.402664 14.444 52.083206" fill-rule="evenodd"/><path stroke="#6aa84f" stroke-width="2.0" stroke-linejoin="round" stroke-linecap="butt" d="m154.7769 158.46368c2.4073334 -8.680542 9.6293335 -52.083206 14.444 -52.083206c4.8146667 0 12.036667 43.402664 14.444 52.083206" fill-rule="evenodd"/><path fill="#000000" fill-opacity="0.0" d="m148.9993 158.46368l5.777603 0" fill-rule="evenodd"/><path stroke="#6aa84f" stroke-width="2.0" stroke-linejoin="round" stroke-linecap="butt" d="m148.9993 158.46368l5.777603 0" fill-rule="evenodd"/><path fill="#000000" fill-opacity="0.0" d="m183.6649 158.46368l5.777603 0" fill-rule="evenodd"/><path stroke="#6aa84f" stroke-width="2.0" stroke-linejoin="round" stroke-linecap="butt" d="m183.6649 158.46368l5.777603 0" fill-rule="evenodd"/><path fill="#f3f3f3" d="m265.5866 67.16987l0 0c0 -10.70961 8.681854 -19.391464 19.39148 -19.391464l352.74463 0c5.1429443 0 10.075195 2.043026 13.711853 5.6796303c3.6365967 3.6366043 5.6796265 8.568897 5.6796265 13.711834l0 77.56353c0 10.70961 -8.681885 19.391464 -19.39148 19.391464l-352.74463 0c-10.709625 0 -19.39148 -8.681854 -19.39148 -19.391464z" fill-rule="evenodd"/><path stroke="#000000" stroke-width="1.0" stroke-linejoin="round" stroke-linecap="butt" d="m265.5866 67.16987l0 0c0 -10.70961 8.681854 -19.391464 19.39148 -19.391464l352.74463 0c5.1429443 0 10.075195 2.043026 13.711853 5.6796303c3.6365967 3.6366043 5.6796265 8.568897 5.6796265 13.711834l0 77.56353c0 10.70961 -8.681885 19.391464 -19.39148 19.391464l-352.74463 0c-10.709625 0 -19.39148 -8.681854 -19.39148 -19.391464z" fill-rule="evenodd"/><path fill="#000000" d="m428.67865 80.37797l-0.328125 -1.390625l-0.078125 0q-0.296875 0.421875 -0.609375 0.71875q-0.296875 0.296875 -0.65625 0.484375q-0.34375 0.1875 -0.78125 0.28125q-0.4375 0.09375 -1.015625 0.09375q-0.625 0 -1.15625 -0.1875q-0.53125 -0.171875 -0.921875 -0.53125q-0.375 -0.375 -0.59375 -0.9375q-0.21875 -0.5625 -0.21875 -1.328125q0 -1.5 1.046875 -2.296875q1.046875 -0.796875 3.203125 -0.875l1.671875 -0.0625l0 -0.625q0 -0.609375 -0.140625 -1.015625q-0.125 -0.421875 -0.375 -0.671875q-0.25 -0.25 -0.625 -0.359375q-0.359375 -0.109375 -0.828125 -0.109375q-0.765625 0 -1.421875 0.21875q-0.640625 0.21875 -1.234375 0.53125l-0.59375 -1.25q0.671875 -0.359375 1.5 -0.609375q0.84375 -0.265625 1.75 -0.265625q0.921875 0 1.59375 0.1875q0.6875 0.1875 1.125 0.59375q0.453125 0.40625 0.671875 1.03125q0.21875 0.625 0.21875 1.53125l0 6.84375l-1.203125 0zm-3.03125 -1.15625q0.546875 0 1.015625 -0.171875q0.484375 -0.171875 0.828125 -0.515625q0.34375 -0.359375 0.53125 -0.890625q0.203125 -0.53125 0.203125 -1.25l0 -0.90625l-1.296875 0.0625q-0.828125 0.03125 -1.390625 0.1875q-0.546875 0.140625 -0.875 0.40625q-0.328125 0.25 -0.484375 0.625q-0.140625 0.359375 -0.140625 0.828125q0 0.84375 0.4375 1.234375q0.453125 0.390625 1.171875 0.390625zm13.777039 1.15625l-0.25 -1.34375l-0.09375 0q-0.21875 0.390625 -0.53125 0.6875q-0.3125 0.28125 -0.6875 0.46875q-0.375 0.1875 -0.796875 0.28125q-0.421875 0.09375 -0.859375 0.09375q-0.828125 0 -1.453125 -0.203125q-0.625 -0.21875 -1.046875 -0.65625q-0.421875 -0.453125 -0.640625 -1.140625q-0.203125 -0.703125 -0.203125 -1.65625l0 -6.53125l1.65625 0l0 6.4375q0 1.1875 0.484375 1.78125q0.484375 0.59375 1.484375 0.59375q0.734375 0 1.234375 -0.234375q0.515625 -0.25 0.8125 -0.703125q0.3125 -0.46875 0.4375 -1.140625q0.140625 -0.671875 0.140625 -1.546875l0 -5.1875l1.65625 0l0 10.0l-1.34375 0zm10.689178 -1.34375l-0.078125 0q-0.203125 0.3125 -0.46875 0.59375q-0.265625 0.28125 -0.625 0.5q-0.34375 0.203125 -0.78125 0.3125q-0.4375 0.125 -0.984375 0.125q-0.84375 0 -1.546875 -0.328125q-0.703125 -0.328125 -1.203125 -0.984375q-0.5 -0.65625 -0.78125 -1.609375q-0.265625 -0.96875 -0.265625 -2.25q0 -1.28125 0.265625 -2.25q0.28125 -0.96875 0.78125 -1.625q0.5 -0.65625 1.203125 -0.984375q0.703125 -0.34375 1.546875 -0.34375q0.53125 0 0.96875 0.125q0.4375 0.109375 0.78125 0.3125q0.359375 0.203125 0.625 0.46875q0.28125 0.265625 0.484375 0.546875l0.109375 0q-0.03125 -0.296875 -0.046875 -0.578125q-0.03125 -0.25 -0.046875 -0.5q-0.015625 -0.25 -0.015625 -0.390625l0 -3.96875l1.65625 0l0 14.171875l-1.34375 0l-0.234375 -1.34375zm-2.625 0.15625q0.703125 0 1.171875 -0.203125q0.484375 -0.21875 0.78125 -0.640625q0.296875 -0.4375 0.4375 -1.078125q0.140625 -0.640625 0.15625 -1.5l0 -0.375q0 -0.921875 -0.125 -1.625q-0.125 -0.71875 -0.421875 -1.203125q-0.296875 -0.5 -0.796875 -0.75q-0.484375 -0.25 -1.21875 -0.25q-1.21875 0 -1.8125 1.0q-0.578125 0.984375 -0.578125 2.84375q0 1.90625 0.578125 2.84375q0.59375 0.9375 1.828125 0.9375zm9.0407715 1.1875l-1.671875 0l0 -10.0l1.671875 0l0 10.0zm-1.796875 -12.703125q0 -0.546875 0.28125 -0.796875q0.28125 -0.25 0.6875 -0.25q0.203125 0 0.375 0.0625q0.1875 0.0625 0.3125 0.1875q0.140625 0.125 0.203125 0.328125q0.078125 0.1875 0.078125 0.46875q0 0.53125 -0.28125 0.796875q-0.28125 0.25 -0.6875 0.25q-0.40625 0 -0.6875 -0.25q-0.28125 -0.265625 -0.28125 -0.796875zm13.109283 7.6875q0 1.25 -0.3125 2.21875q-0.296875 0.96875 -0.875 1.625q-0.5625 0.65625 -1.375 1.015625q-0.796875 0.34375 -1.8125 0.34375q-0.9375 0 -1.734375 -0.34375q-0.796875 -0.359375 -1.375 -1.015625q-0.578125 -0.65625 -0.90625 -1.625q-0.3125 -0.96875 -0.3125 -2.21875q0 -1.25 0.296875 -2.203125q0.3125 -0.96875 0.875 -1.625q0.5625 -0.65625 1.375 -1.0q0.828125 -0.34375 1.828125 -0.34375q0.9375 0 1.734375 0.34375q0.796875 0.34375 1.375 1.0q0.578125 0.65625 0.890625 1.625q0.328125 0.953125 0.328125 2.203125zm-7.0 0q0 1.90625 0.625 2.875q0.625 0.953125 2.03125 0.953125q1.40625 0 2.015625 -0.953125q0.625 -0.96875 0.625 -2.875q0 -1.90625 -0.625 -2.84375q-0.625 -0.953125 -2.03125 -0.953125q-1.40625 0 -2.03125 0.953125q-0.609375 0.9375 -0.609375 2.84375zm15.736176 7.96875l-7.734375 0l0 -1.28125l7.734375 0l0 1.28125zm5.8733215 -13.140625q0.265625 0 0.59375 0.03125q0.328125 0.015625 0.5625 0.0625l-0.21875 1.53125q-0.25 -0.046875 -0.515625 -0.078125q-0.265625 -0.03125 -0.5 -0.03125q-0.578125 0 -1.0625 0.234375q-0.46875 0.234375 -0.8125 0.671875q-0.34375 0.421875 -0.53125 1.03125q-0.171875 0.609375 -0.171875 1.34375l0 5.390625l-1.671875 0l0 -10.0l1.359375 0l0.203125 1.828125l0.0625 0q0.234375 -0.390625 0.484375 -0.75q0.265625 -0.375 0.578125 -0.640625q0.328125 -0.28125 0.734375 -0.453125q0.40625 -0.171875 0.90625 -0.171875zm6.145569 9.015625q0.15625 0 0.359375 -0.015625q0.21875 -0.03125 0.40625 -0.046875q0.1875 -0.03125 0.34375 -0.0625q0.171875 -0.046875 0.25 -0.0625l0 1.25q-0.125 0.0625 -0.3125 0.109375q-0.171875 0.046875 -0.390625 0.09375q-0.21875 0.046875 -0.453125 0.0625q-0.234375 0.03125 -0.46875 0.03125q-0.5625 0 -1.046875 -0.15625q-0.484375 -0.140625 -0.84375 -0.484375q-0.34375 -0.359375 -0.546875 -0.96875q-0.1875 -0.609375 -0.1875 -1.53125l0 -5.796875l-1.421875 0l0 -0.734375l1.421875 -0.71875l0.703125 -2.09375l0.953125 0l0 2.296875l2.515625 0l0 1.25l-2.515625 0l0 5.796875q0 0.890625 0.28125 1.34375q0.296875 0.4375 0.953125 0.4375zm7.821991 1.359375q-0.546875 0 -0.984375 -0.125q-0.4375 -0.109375 -0.796875 -0.3125q-0.34375 -0.203125 -0.609375 -0.453125q-0.265625 -0.265625 -0.46875 -0.5625l-0.109375 0q0.015625 0.3125 0.046875 0.59375q0.015625 0.234375 0.03125 0.484375q0.03125 0.25 0.03125 0.390625l0 4.28125l-1.671875 0l0 -14.484375l1.359375 0l0.234375 1.34375l0.078125 0q0.203125 -0.3125 0.46875 -0.59375q0.265625 -0.28125 0.609375 -0.484375q0.359375 -0.203125 0.796875 -0.328125q0.4375 -0.125 0.984375 -0.125q0.84375 0 1.546875 0.328125q0.703125 0.328125 1.203125 0.984375q0.5 0.65625 0.765625 1.625q0.28125 0.953125 0.28125 2.234375q0 1.28125 -0.28125 2.25q-0.265625 0.96875 -0.765625 1.625q-0.5 0.65625 -1.203125 1.0q-0.703125 0.328125 -1.546875 0.328125zm-0.328125 -9.0q-0.6875 0 -1.171875 0.21875q-0.46875 0.203125 -0.765625 0.640625q-0.296875 0.421875 -0.4375 1.0625q-0.140625 0.625 -0.15625 1.5l0 0.375q0 0.921875 0.109375 1.640625q0.125 0.703125 0.421875 1.203125q0.296875 0.484375 0.78125 0.734375q0.5 0.25 1.234375 0.25q1.234375 0 1.8125 -0.984375q0.578125 -1.0 0.578125 -2.859375q0 -1.90625 -0.578125 -2.84375q-0.578125 -0.9375 -1.828125 -0.9375z" fill-rule="nonzero"/><path fill="#ffffff" d="m305.47244 102.03018l139.71652 0l0 41.95276l-139.71652 0z" fill-rule="evenodd"/><path stroke="#000000" stroke-width="1.0" stroke-linejoin="round" stroke-linecap="butt" d="m305.47244 102.03018l139.71652 0l0 41.95276l-139.71652 0z" fill-rule="evenodd"/><path fill="#000000" d="m326.03775 128.76656l1.453125 0l0 -7.3437424l3.265625 0l0 -1.109375l-3.265625 0l0 -0.59375q0 -0.53125 0.140625 -0.921875q0.140625 -0.40625 0.40625 -0.65625q0.25 -0.25 0.625 -0.359375q0.375 -0.125 0.875 -0.125q0.484375 0 0.90625 0.078125q0.421875 0.078125 0.75 0.1875l0.171875 -1.1875q-0.203125 -0.0625 -0.40625 -0.09375q-0.1875 -0.046875 -0.390625 -0.09375q-0.296875 -0.046875 -0.609375 -0.078125q-0.296875 -0.046875 -0.609375 -0.046875q-0.75 0 -1.359375 0.21875q-0.609375 0.203125 -1.03125 0.625q-0.4375 0.40625 -0.6875 1.03125q-0.234375 0.609375 -0.234375 1.421875l0 0.59375l-2.328125 0l0 1.109375l2.328125 0l0 7.3437424zm9.6015625 0l1.453125 0l0 -7.3437424l3.265625 0l0 -1.109375l-3.265625 0l0 -0.59375q0 -0.53125 0.140625 -0.921875q0.140625 -0.40625 0.40625 -0.65625q0.25 -0.25 0.625 -0.359375q0.375 -0.125 0.875 -0.125q0.484375 0 0.90625 0.078125q0.421875 0.078125 0.75 0.1875l0.171875 -1.1875q-0.203125 -0.0625 -0.40625 -0.09375q-0.1875 -0.046875 -0.390625 -0.09375q-0.296875 -0.046875 -0.609375 -0.078125q-0.296875 -0.046875 -0.609375 -0.046875q-0.75 0 -1.359375 0.21875q-0.609375 0.203125 -1.03125 0.625q-0.4375 0.40625 -0.6875 1.03125q-0.234375 0.609375 -0.234375 1.421875l0 0.59375l-2.328125 0l0 1.109375l2.328125 0l0 7.3437424zm8.1171875 -8.453117l-1.296875 0l0 8.453117l1.375 0l0 -6.7343674q0.046875 -0.125 0.109375 -0.234375q0.078125 -0.109375 0.1875 -0.1875q0.125 -0.109375 0.3125 -0.171875q0.203125 -0.0625 0.453125 -0.0625q0.234375 0 0.40625 0.0625q0.1875 0.0625 0.296875 0.1875q0.125 0.125 0.1875 0.328125q0.0625 0.203125 0.0625 0.46875l0 6.3437424l1.375 0l0 -6.3281174q0 -0.046875 0 -0.078125q0 -0.046875 0 -0.078125q0.015625 -0.203125 0.078125 -0.359375q0.078125 -0.15625 0.203125 -0.28125q0.125 -0.125 0.3125 -0.1875q0.1875 -0.078125 0.453125 -0.078125q0.234375 0 0.421875 0.0625q0.1875 0.0625 0.3125 0.1875q0.109375 0.140625 0.171875 0.34375q0.0625 0.203125 0.0625 0.46875l0 6.3281174l1.375 0l0 -6.3124924q0 -0.609375 -0.140625 -1.0625q-0.140625 -0.453125 -0.40625 -0.734375q-0.234375 -0.25 -0.59375 -0.375q-0.34375 -0.125 -0.78125 -0.125q-0.328125 0 -0.59375 0.078125q-0.265625 0.078125 -0.484375 0.21875q-0.171875 0.109375 -0.328125 0.265625q-0.140625 0.15625 -0.25 0.34375q-0.09375 -0.203125 -0.21875 -0.359375q-0.109375 -0.15625 -0.265625 -0.265625q-0.203125 -0.140625 -0.46875 -0.203125q-0.265625 -0.078125 -0.609375 -0.078125q-0.59375 0 -1.015625 0.25q-0.40625 0.25 -0.671875 0.703125l-0.03125 -0.796875zm8.9296875 11.703117l1.4375 0l0 -4.0624924q0.15625 0.17186737 0.328125 0.31249237q0.1875 0.140625 0.390625 0.265625q0.34375 0.1875 0.75 0.28125q0.421875 0.109375 0.90625 0.109375q0.796875 0 1.421875 -0.328125q0.625 -0.328125 1.046875 -0.9062424q0.421875 -0.578125 0.640625 -1.359375q0.21875 -0.796875 0.21875 -1.703125l0 -0.15625q0 -0.953125 -0.21875 -1.734375q-0.21875 -0.796875 -0.640625 -1.375q-0.421875 -0.5625 -1.046875 -0.875q-0.625 -0.328125 -1.4375 -0.328125q-0.46875 0 -0.875 0.09375q-0.390625 0.09375 -0.71875 0.28125q-0.234375 0.125 -0.4375 0.3125q-0.203125 0.171875 -0.375 0.390625l-0.078125 -0.921875l-1.3125 0l0 11.703117zm5.6875 -7.5468674l0 0.15625q0 0.625 -0.140625 1.1875q-0.125 0.5625 -0.40625 0.984375q-0.28125 0.4375 -0.71875 0.6875q-0.4375 0.25 -1.046875 0.25q-0.375 0 -0.6875 -0.09375q-0.296875 -0.09375 -0.546875 -0.25q-0.21875 -0.140625 -0.390625 -0.34375q-0.171875 -0.203125 -0.3125 -0.4375l0 -4.078125q0.15625 -0.265625 0.34375 -0.484375q0.203125 -0.21875 0.453125 -0.359375q0.21875 -0.15625 0.5 -0.234375q0.296875 -0.078125 0.625 -0.078125q0.609375 0 1.046875 0.25q0.4375 0.25 0.734375 0.671875q0.28125 0.4375 0.40625 1.0q0.140625 0.546875 0.140625 1.171875zm7.6484375 4.4531174q1.234375 0 2.078125 -0.5q0.84375 -0.49999237 1.265625 -1.1406174l-0.890625 -0.6875q-0.390625 0.515625 -1.0 0.828125q-0.59375 0.3125 -1.375 0.3125q-0.578125 0 -1.0625 -0.21875q-0.484375 -0.21875 -0.828125 -0.59375q-0.34375 -0.359375 -0.53125 -0.828125q-0.1875 -0.46875 -0.25 -1.09375l0 -0.046875l6.046875 0l0 -0.65625q0 -0.875 -0.234375 -1.625q-0.21875 -0.765625 -0.671875 -1.328125q-0.453125 -0.5625 -1.140625 -0.875q-0.671875 -0.3125 -1.59375 -0.3125q-0.71875 0 -1.421875 0.296875q-0.6875 0.296875 -1.21875 0.84375q-0.546875 0.5625 -0.875 1.375q-0.328125 0.8125 -0.328125 1.828125l0 0.328125q0 0.890625 0.296875 1.640625q0.296875 0.75 0.828125 1.296875q0.53125 0.5468674 1.265625 0.8593674q0.75 0.296875 1.640625 0.296875zm-0.1875 -7.5781174q0.5625 0 0.953125 0.203125q0.40625 0.203125 0.671875 0.53125q0.265625 0.328125 0.40625 0.78125q0.15625 0.4375 0.15625 0.828125l0 0.078125l-4.546875 0q0.09375 -0.59375 0.296875 -1.03125q0.21875 -0.453125 0.53125 -0.765625q0.3125 -0.3125 0.703125 -0.46875q0.390625 -0.15625 0.828125 -0.15625zm5.7890625 3.125l0 0.15625q0 0.90625 0.234375 1.703125q0.234375 0.78125 0.671875 1.359375q0.4375 0.5781174 1.0625 0.9062424q0.625 0.328125 1.390625 0.328125q0.46875 0 0.859375 -0.109375q0.40625 -0.09375 0.734375 -0.265625q0.203125 -0.125 0.390625 -0.28125q0.1875 -0.15625 0.34375 -0.34374237l0 0.7343674q0 0.546875 -0.15625 0.96875q-0.15625 0.421875 -0.4375 0.703125q-0.296875 0.296875 -0.71875 0.4375q-0.40625 0.15625 -0.921875 0.15625q-0.296875 0 -0.59375 -0.0625q-0.28125 -0.0625 -0.5625 -0.1875q-0.296875 -0.140625 -0.578125 -0.359375q-0.28125 -0.21875 -0.546875 -0.546875l-0.75 0.875q0.296875 0.40625 0.6875 0.6875q0.40625 0.28125 0.84375 0.453125q0.4375 0.171875 0.859375 0.234375q0.421875 0.078125 0.75 0.078125q0.796875 0 1.453125 -0.234375q0.65625 -0.234375 1.125 -0.6875q0.46875 -0.453125 0.734375 -1.109375q0.265625 -0.640625 0.265625 -1.484375l0 -8.265617l-1.3125 0l-0.078125 0.921875q-0.140625 -0.1875 -0.3125 -0.34375q-0.171875 -0.15625 -0.359375 -0.28125q-0.34375 -0.21875 -0.765625 -0.328125q-0.421875 -0.125 -0.9375 -0.125q-0.78125 0 -1.40625 0.328125q-0.625 0.3125 -1.0625 0.875q-0.4375 0.578125 -0.671875 1.375q-0.234375 0.78125 -0.234375 1.734375zm1.453125 0.15625l0 -0.15625q0 -0.625 0.125 -1.171875q0.125 -0.5625 0.40625 -1.0q0.28125 -0.421875 0.703125 -0.671875q0.4375 -0.25 1.046875 -0.25q0.359375 0 0.65625 0.09375q0.296875 0.09375 0.546875 0.25q0.234375 0.15625 0.421875 0.375q0.1875 0.21875 0.328125 0.484375l0 3.875q-0.140625 0.28125 -0.328125 0.515625q-0.1875 0.21875 -0.421875 0.375q-0.234375 0.171875 -0.546875 0.265625q-0.296875 0.078125 -0.671875 0.078125q-0.59375 0 -1.03125 -0.234375q-0.421875 -0.25 -0.703125 -0.671875q-0.28125 -0.421875 -0.40625 -0.96875q-0.125 -0.5625 -0.125 -1.1875zm15.4296875 5.3281174l0 -1.1875l-7.15625 0l0 1.1875l7.15625 0zm2.5859375 2.0625l1.4375 0l0 -4.0624924q0.15625 0.17186737 0.328125 0.31249237q0.1875 0.140625 0.390625 0.265625q0.34375 0.1875 0.75 0.28125q0.421875 0.109375 0.90625 0.109375q0.796875 0 1.421875 -0.328125q0.625 -0.328125 1.046875 -0.9062424q0.421875 -0.578125 0.640625 -1.359375q0.21875 -0.796875 0.21875 -1.703125l0 -0.15625q0 -0.953125 -0.21875 -1.734375q-0.21875 -0.796875 -0.640625 -1.375q-0.421875 -0.5625 -1.046875 -0.875q-0.625 -0.328125 -1.4375 -0.328125q-0.46875 0 -0.875 0.09375q-0.390625 0.09375 -0.71875 0.28125q-0.234375 0.125 -0.4375 0.3125q-0.203125 0.171875 -0.375 0.390625l-0.078125 -0.921875l-1.3125 0l0 11.703117zm5.6875 -7.5468674l0 0.15625q0 0.625 -0.140625 1.1875q-0.125 0.5625 -0.40625 0.984375q-0.28125 0.4375 -0.71875 0.6875q-0.4375 0.25 -1.046875 0.25q-0.375 0 -0.6875 -0.09375q-0.296875 -0.09375 -0.546875 -0.25q-0.21875 -0.140625 -0.390625 -0.34375q-0.171875 -0.203125 -0.3125 -0.4375l0 -4.078125q0.15625 -0.265625 0.34375 -0.484375q0.203125 -0.21875 0.453125 -0.359375q0.21875 -0.15625 0.5 -0.234375q0.296875 -0.078125 0.625 -0.078125q0.609375 0 1.046875 0.25q0.4375 0.25 0.734375 0.671875q0.28125 0.4375 0.40625 1.0q0.140625 0.546875 0.140625 1.171875zm9.4609375 -4.3125q-0.921875 0 -1.65625 0.40625q-0.71875 0.390625 -1.234375 1.09375l0 -0.21875l-0.0625 -1.125l-1.375 0l0 8.453117l1.453125 0l0 -5.4218674q0.140625 -0.390625 0.34375 -0.703125q0.21875 -0.328125 0.515625 -0.546875q0.3125 -0.25 0.734375 -0.375q0.4375 -0.125 0.96875 -0.125q0.421875 0 0.796875 0.046875q0.375 0.03125 0.796875 0.125l0.203125 -1.40625q-0.21875 -0.09375 -0.65625 -0.140625q-0.4375 -0.0625 -0.828125 -0.0625zm3.6484375 4.296875l0 0.171875q0 0.921875 0.265625 1.703125q0.265625 0.78125 0.765625 1.359375q0.5 0.5781174 1.203125 0.9062424q0.71875 0.328125 1.625 0.328125q0.890625 0 1.59375 -0.328125q0.71875 -0.328125 1.21875 -0.9062424q0.484375 -0.578125 0.75 -1.359375q0.265625 -0.78125 0.265625 -1.703125l0 -0.171875q0 -0.90625 -0.265625 -1.6875q-0.265625 -0.796875 -0.75 -1.375q-0.5 -0.578125 -1.21875 -0.90625q-0.71875 -0.328125 -1.609375 -0.328125q-0.890625 0 -1.609375 0.328125q-0.703125 0.328125 -1.203125 0.90625q-0.5 0.578125 -0.765625 1.375q-0.265625 0.78125 -0.265625 1.6875zm1.453125 0.171875l0 -0.171875q0 -0.609375 0.140625 -1.171875q0.15625 -0.578125 0.453125 -1.0q0.296875 -0.4375 0.734375 -0.6875q0.453125 -0.25 1.0625 -0.25q0.59375 0 1.046875 0.25q0.453125 0.25 0.75 0.6875q0.296875 0.421875 0.453125 1.0q0.15625 0.5625 0.15625 1.171875l0 0.171875q0 0.625 -0.15625 1.203125q-0.140625 0.5625 -0.4375 0.984375q-0.3125 0.4375 -0.765625 0.6875q-0.4375 0.25 -1.03125 0.25q-0.609375 0 -1.0625 -0.25q-0.453125 -0.25 -0.75 -0.6875q-0.296875 -0.421875 -0.453125 -0.984375q-0.140625 -0.578125 -0.140625 -1.203125zm12.1640625 3.125q-0.6875 0 -1.140625 -0.265625q-0.453125 -0.28125 -0.734375 -0.71875q-0.28125 -0.421875 -0.40625 -0.96875q-0.109375 -0.546875 -0.109375 -1.09375l0 -0.328125q0 -0.546875 0.109375 -1.078125q0.125 -0.546875 0.40625 -0.984375q0.28125 -0.4375 0.734375 -0.703125q0.46875 -0.265625 1.140625 -0.265625q0.4375 0 0.8125 0.15625q0.375 0.140625 0.65625 0.390625q0.265625 0.265625 0.421875 0.609375q0.171875 0.328125 0.171875 0.71875l1.375 0q0 -0.640625 -0.265625 -1.203125q-0.25 -0.5625 -0.703125 -0.984375q-0.46875 -0.40625 -1.09375 -0.640625q-0.625 -0.234375 -1.375 -0.234375q-0.96875 0 -1.6875 0.34375q-0.71875 0.34375 -1.1875 0.921875q-0.484375 0.578125 -0.734375 1.34375q-0.234375 0.765625 -0.234375 1.609375l0 0.328125q0 0.84375 0.234375 1.609375q0.25 0.75 0.734375 1.328125q0.46875 0.5937424 1.1875 0.9374924q0.71875 0.34375 1.6875 0.34375q0.671875 0 1.28125 -0.234375q0.625 -0.234375 1.09375 -0.625q0.484375 -0.37499237 0.765625 -0.8906174q0.28125 -0.515625 0.296875 -1.078125l-1.375 0q0 0.359375 -0.1875 0.65625q-0.171875 0.296875 -0.453125 0.515625q-0.296875 0.234375 -0.671875 0.359375q-0.359375 0.125 -0.75 0.125z" fill-rule="nonzero"/><path fill="#ffffff" d="m477.4908 102.03018l139.71652 0l0 41.95276l-139.71652 0z" fill-rule="evenodd"/><path stroke="#000000" stroke-width="1.0" stroke-linejoin="round" stroke-linecap="butt" d="m477.4908 102.03018l139.71652 0l0 41.95276l-139.71652 0z" fill-rule="evenodd"/><path fill="#000000" d="m506.24753 120.15719q-0.921875 0 -1.65625 0.40625q-0.71875 0.390625 -1.234375 1.09375l0 -0.21875l-0.0625 -1.125l-1.375 0l0 8.453117l1.453125 0l0 -5.4218674q0.140625 -0.390625 0.34375 -0.703125q0.21875 -0.328125 0.515625 -0.546875q0.3125 -0.25 0.734375 -0.375q0.4375 -0.125 0.96875 -0.125q0.421875 0 0.796875 0.046875q0.375 0.03125 0.796875 0.125l0.203125 -1.40625q-0.21875 -0.09375 -0.65625 -0.140625q-0.4375 -0.0625 -0.828125 -0.0625zm7.476532 -1.890625l-1.453125 0l0 2.046875l-2.2187195 0l0 1.109375l2.2187195 0l0 4.59375q0 0.78125 0.203125 1.34375q0.21875 0.546875 0.578125 0.8906174q0.359375 0.34375 0.84375 0.515625q0.484375 0.15625 1.046875 0.15625q0.34375 0 0.671875 -0.03125q0.34375 -0.03125 0.65625 -0.09375q0.296875 -0.0625 0.546875 -0.140625q0.265625 -0.078125 0.453125 -0.1875l-0.203125 -1.0312424q-0.140625 0.03125 -0.34375 0.078125q-0.203125 0.046875 -0.4375 0.078125q-0.25 0.046875 -0.5 0.078125q-0.25 0.015625 -0.484375 0.015625q-0.3125 0 -0.609375 -0.078125q-0.28125 -0.078125 -0.5 -0.265625q-0.21875 -0.1875 -0.34375 -0.5q-0.125 -0.328125 -0.125 -0.828125l0 -4.59375l3.21875 0l0 -1.109375l-3.21875 0l0 -2.046875zm6.1796875 13.749992l1.4375 0l0 -4.0624924q0.15625 0.17186737 0.328125 0.31249237q0.1875 0.140625 0.390625 0.265625q0.34375 0.1875 0.75 0.28125q0.421875 0.109375 0.90625 0.109375q0.796875 0 1.421875 -0.328125q0.625 -0.328125 1.046875 -0.9062424q0.421875 -0.578125 0.640625 -1.359375q0.21875 -0.796875 0.21875 -1.703125l0 -0.15625q0 -0.953125 -0.21875 -1.734375q-0.21875 -0.796875 -0.640625 -1.375q-0.421875 -0.5625 -1.046875 -0.875q-0.625 -0.328125 -1.4375 -0.328125q-0.46875 0 -0.875 0.09375q-0.390625 0.09375 -0.71875 0.28125q-0.234375 0.125 -0.4375 0.3125q-0.203125 0.171875 -0.375 0.390625l-0.078125 -0.921875l-1.3125 0l0 11.703117zm5.6875 -7.5468674l0 0.15625q0 0.625 -0.140625 1.1875q-0.125 0.5625 -0.40625 0.984375q-0.28125 0.4375 -0.71875 0.6875q-0.4375 0.25 -1.046875 0.25q-0.375 0 -0.6875 -0.09375q-0.296875 -0.09375 -0.546875 -0.25q-0.21875 -0.140625 -0.390625 -0.34375q-0.171875 -0.203125 -0.3125 -0.4375l0 -4.078125q0.15625 -0.265625 0.34375 -0.484375q0.203125 -0.21875 0.453125 -0.359375q0.21875 -0.15625 0.5 -0.234375q0.296875 -0.078125 0.625 -0.078125q0.609375 0 1.046875 0.25q0.4375 0.25 0.734375 0.671875q0.28125 0.4375 0.40625 1.0q0.140625 0.546875 0.140625 1.171875zm10.9296875 5.4843674l0 -1.1875l-7.15625 0l0 1.1875l7.15625 0zm6.1953125 -2.2031174q-0.6875 0 -1.140625 -0.265625q-0.453125 -0.28125 -0.734375 -0.71875q-0.28125 -0.421875 -0.40625 -0.96875q-0.109375 -0.546875 -0.109375 -1.09375l0 -0.328125q0 -0.546875 0.109375 -1.078125q0.125 -0.546875 0.40625 -0.984375q0.28125 -0.4375 0.734375 -0.703125q0.46875 -0.265625 1.140625 -0.265625q0.4375 0 0.8125 0.15625q0.375 0.140625 0.65625 0.390625q0.265625 0.265625 0.421875 0.609375q0.171875 0.328125 0.171875 0.71875l1.375 0q0 -0.640625 -0.265625 -1.203125q-0.25 -0.5625 -0.703125 -0.984375q-0.46875 -0.40625 -1.09375 -0.640625q-0.625 -0.234375 -1.375 -0.234375q-0.96875 0 -1.6875 0.34375q-0.71875 0.34375 -1.1875 0.921875q-0.484375 0.578125 -0.734375 1.34375q-0.234375 0.765625 -0.234375 1.609375l0 0.328125q0 0.84375 0.234375 1.609375q0.25 0.75 0.734375 1.328125q0.46875 0.5937424 1.1875 0.9374924q0.71875 0.34375 1.6875 0.34375q0.671875 0 1.28125 -0.234375q0.625 -0.234375 1.09375 -0.625q0.484375 -0.37499237 0.765625 -0.8906174q0.28125 -0.515625 0.296875 -1.078125l-1.375 0q0 0.359375 -0.1875 0.65625q-0.171875 0.296875 -0.453125 0.515625q-0.296875 0.234375 -0.671875 0.359375q-0.359375 0.125 -0.75 0.125zm6.2265625 -10.984375l0 1.25l2.875 0l0 9.5l-2.875 0l0 1.2499924l7.078125 0l0 -1.2499924l-2.765625 0l0 -10.75l-4.3125 0zm9.6015625 3.546875l0 1.25l2.875 0l0 5.953125l-2.875 0l0 1.2499924l7.078125 0l0 -1.2499924l-2.765625 0l0 -7.203125l-4.3125 0zm2.6875 -2.21875q0 0.34375 0.203125 0.578125q0.21875 0.234375 0.65625 0.234375q0.4375 0 0.65625 -0.234375q0.21875 -0.234375 0.21875 -0.578125q0 -0.203125 -0.0625 -0.359375q-0.0625 -0.171875 -0.1875 -0.28125q-0.109375 -0.09375 -0.265625 -0.15625q-0.15625 -0.0625 -0.359375 -0.0625q-0.203125 0 -0.359375 0.0625q-0.15625 0.0625 -0.265625 0.15625q-0.125 0.125 -0.1875 0.296875q-0.046875 0.15625 -0.046875 0.34375zm10.4140625 10.828117q1.234375 0 2.078125 -0.5q0.84375 -0.49999237 1.265625 -1.1406174l-0.890625 -0.6875q-0.390625 0.515625 -1.0 0.828125q-0.59375 0.3125 -1.375 0.3125q-0.578125 0 -1.0625 -0.21875q-0.484375 -0.21875 -0.828125 -0.59375q-0.34375 -0.359375 -0.53125 -0.828125q-0.1875 -0.46875 -0.25 -1.09375l0 -0.046875l6.046875 0l0 -0.65625q0 -0.875 -0.234375 -1.625q-0.21875 -0.765625 -0.671875 -1.328125q-0.453125 -0.5625 -1.140625 -0.875q-0.671875 -0.3125 -1.59375 -0.3125q-0.71875 0 -1.421875 0.296875q-0.6875 0.296875 -1.21875 0.84375q-0.546875 0.5625 -0.875 1.375q-0.328125 0.8125 -0.328125 1.828125l0 0.328125q0 0.890625 0.296875 1.640625q0.296875 0.75 0.828125 1.296875q0.53125 0.5468674 1.265625 0.8593674q0.75 0.296875 1.640625 0.296875zm-0.1875 -7.5781174q0.5625 0 0.953125 0.203125q0.40625 0.203125 0.671875 0.53125q0.265625 0.328125 0.40625 0.78125q0.15625 0.4375 0.15625 0.828125l0 0.078125l-4.546875 0q0.09375 -0.59375 0.296875 -1.03125q0.21875 -0.453125 0.53125 -0.765625q0.3125 -0.3125 0.703125 -0.46875q0.390625 -0.15625 0.828125 -0.15625zm6.0546875 7.4218674l1.453125 0l0 -6.0624924q0.140625 -0.28125 0.34375 -0.5q0.203125 -0.234375 0.4375 -0.40625q0.28125 -0.1875 0.625 -0.296875q0.34375 -0.125 0.75 -0.125q0.453125 0 0.8125 0.109375q0.359375 0.109375 0.609375 0.359375q0.234375 0.234375 0.359375 0.625q0.125 0.390625 0.125 0.953125l0 5.3437424l1.453125 0l0 -5.3749924q0 -0.84375 -0.21875 -1.453125q-0.203125 -0.609375 -0.578125 -1.015625q-0.390625 -0.390625 -0.9375 -0.578125q-0.53125 -0.1875 -1.203125 -0.1875q-0.484375 0 -0.9375 0.140625q-0.4375 0.140625 -0.8125 0.390625q-0.25 0.15625 -0.46875 0.390625q-0.21875 0.21875 -0.40625 0.484375l-0.109375 -1.25l-1.296875 0l0 8.453117zm13.0234375 -10.499992l-1.453125 0l0 2.046875l-2.21875 0l0 1.109375l2.21875 0l0 4.59375q0 0.78125 0.203125 1.34375q0.21875 0.546875 0.578125 0.8906174q0.359375 0.34375 0.84375 0.515625q0.484375 0.15625 1.046875 0.15625q0.34375 0 0.671875 -0.03125q0.34375 -0.03125 0.65625 -0.09375q0.296875 -0.0625 0.546875 -0.140625q0.265625 -0.078125 0.453125 -0.1875l-0.203125 -1.0312424q-0.140625 0.03125 -0.34375 0.078125q-0.203125 0.046875 -0.4375 0.078125q-0.25 0.046875 -0.5 0.078125q-0.25 0.015625 -0.484375 0.015625q-0.3125 0 -0.609375 -0.078125q-0.28125 -0.078125 -0.5 -0.265625q-0.21875 -0.1875 -0.34375 -0.5q-0.125 -0.328125 -0.125 -0.828125l0 -4.59375l3.21875 0l0 -1.109375l-3.21875 0l0 -2.046875z" fill-rule="nonzero"/><path fill="#000000" fill-opacity="0.0" d="m265.5866 105.95164l39.874023 17.039368" fill-rule="evenodd"/><path stroke="#000000" stroke-width="1.0" stroke-linejoin="round" stroke-linecap="butt" stroke-dasharray="4.0,3.0" d="m265.5866 105.95164l34.35666 14.681648" fill-rule="evenodd"/><path fill="#000000" stroke="#000000" stroke-width="1.0" stroke-linecap="butt" d="m299.29422 122.152145l4.822113 0.2644043l-3.5239868 -3.3021317z" fill-rule="evenodd"/><path fill="#000000" fill-opacity="0.0" d="m445.93176 123.00655l31.559052 0" fill-rule="evenodd"/><path stroke="#000000" stroke-width="1.0" stroke-linejoin="round" stroke-linecap="butt" stroke-dasharray="4.0,3.0" d="m445.93176 123.00655l25.559052 0" fill-rule="evenodd"/><path fill="#000000" stroke="#000000" stroke-width="1.0" stroke-linecap="butt" d="m471.4908 124.65829l4.538086 -1.6517334l-4.538086 -1.6517334z" fill-rule="evenodd"/><path fill="#000000" fill-opacity="0.0" d="m617.20734 123.00656l39.905518 -17.039368" fill-rule="evenodd"/><path stroke="#000000" stroke-width="1.0" stroke-linejoin="round" stroke-linecap="butt" stroke-dasharray="4.0,3.0" d="m617.20734 123.00656l39.905518 -17.039368" fill-rule="evenodd"/><path fill="#000000" fill-opacity="0.0" d="m657.1142 105.95164l50.42517 0" fill-rule="evenodd"/><path stroke="#000000" stroke-width="1.0" stroke-linejoin="round" stroke-linecap="butt" d="m657.1142 105.95164l44.42517 0" fill-rule="evenodd"/><path fill="#000000" stroke="#000000" stroke-width="1.0" stroke-linecap="butt" d="m701.53937 107.60337l4.538086 -1.6517334l-4.538086 -1.6517334z" fill-rule="evenodd"/><path fill="#f3f3f3" d="m707.5407 93.44881l0 0c0 -3.452942 2.7991333 -6.252098 6.252075 -6.252098l109.574524 0c1.6582031 0 3.248413 0.65869904 4.4208984 1.8311996c1.1724854 1.172493 1.8312378 2.7627335 1.8312378 4.4208984l0 25.007622c0 3.4529343 -2.7991943 6.2520905 -6.252136 6.2520905l-109.574524 0c-3.452942 0 -6.252075 -2.7991562 -6.252075 -6.2520905z" fill-rule="evenodd"/><path stroke="#000000" stroke-width="1.0" stroke-linejoin="round" stroke-linecap="butt" d="m707.5407 93.44881l0 0c0 -3.452942 2.7991333 -6.252098 6.252075 -6.252098l109.574524 0c1.6582031 0 3.248413 0.65869904 4.4208984 1.8311996c1.1724854 1.172493 1.8312378 2.7627335 1.8312378 4.4208984l0 25.007622c0 3.4529343 -2.7991943 6.2520905 -6.252136 6.2520905l-109.574524 0c-3.452942 0 -6.252075 -2.7991562 -6.252075 -6.2520905z" fill-rule="evenodd"/><path fill="#000000" d="m738.3409 111.52886l-0.078125 0q-0.203125 0.3125 -0.46875 0.59375q-0.265625 0.28125 -0.625 0.5q-0.34375 0.203125 -0.78125 0.3125q-0.4375 0.125 -0.984375 0.125q-0.84375 0 -1.546875 -0.328125q-0.703125 -0.328125 -1.203125 -0.984375q-0.5 -0.65625 -0.78125 -1.609375q-0.265625 -0.96875 -0.265625 -2.25q0 -1.28125 0.265625 -2.25q0.28125 -0.96875 0.78125 -1.625q0.5 -0.65625 1.203125 -0.984375q0.703125 -0.34375 1.546875 -0.34375q0.53125 0 0.96875 0.125q0.4375 0.109375 0.78125 0.3125q0.359375 0.203125 0.625 0.46875q0.28125 0.265625 0.484375 0.546875l0.109375 0q-0.03125 -0.296875 -0.046875 -0.578125q-0.03125 -0.25 -0.046875 -0.5q-0.015625 -0.25 -0.015625 -0.390625l0 -3.96875l1.65625 0l0 14.171875l-1.34375 0l-0.234375 -1.34375zm-2.625 0.15625q0.703125 0 1.171875 -0.203125q0.484375 -0.21875 0.78125 -0.640625q0.296875 -0.4375 0.4375 -1.078125q0.140625 -0.640625 0.15625 -1.5l0 -0.375q0 -0.921875 -0.125 -1.625q-0.125 -0.71875 -0.421875 -1.203125q-0.296875 -0.5 -0.796875 -0.75q-0.484375 -0.25 -1.21875 -0.25q-1.21875 0 -1.8125 1.0q-0.578125 0.984375 -0.578125 2.84375q0 1.90625 0.578125 2.84375q0.59375 0.9375 1.828125 0.9375zm13.3532715 -1.546875q0 0.71875 -0.265625 1.265625q-0.25 0.546875 -0.75 0.921875q-0.5 0.359375 -1.203125 0.546875q-0.703125 0.1875 -1.578125 0.1875q-0.984375 0 -1.703125 -0.171875q-0.703125 -0.15625 -1.25 -0.46875l0 -1.5q0.296875 0.140625 0.640625 0.28125q0.34375 0.140625 0.71875 0.25q0.390625 0.109375 0.796875 0.1875q0.40625 0.0625 0.796875 0.0625q0.59375 0 1.0 -0.09375q0.421875 -0.109375 0.6875 -0.296875q0.265625 -0.1875 0.375 -0.453125q0.125 -0.265625 0.125 -0.59375q0 -0.28125 -0.09375 -0.515625q-0.09375 -0.234375 -0.34375 -0.453125q-0.234375 -0.21875 -0.65625 -0.4375q-0.40625 -0.234375 -1.0625 -0.515625q-0.65625 -0.28125 -1.1875 -0.546875q-0.515625 -0.28125 -0.890625 -0.625q-0.359375 -0.34375 -0.5625 -0.78125q-0.1875 -0.4375 -0.1875 -1.046875q0 -0.640625 0.25 -1.140625q0.25 -0.5 0.703125 -0.828125q0.453125 -0.34375 1.09375 -0.515625q0.640625 -0.171875 1.421875 -0.171875q0.875 0 1.609375 0.203125q0.734375 0.1875 1.390625 0.5l-0.5625 1.328125q-0.59375 -0.265625 -1.21875 -0.453125q-0.625 -0.203125 -1.28125 -0.203125q-0.921875 0 -1.375 0.3125q-0.4375 0.296875 -0.4375 0.859375q0 0.328125 0.09375 0.5625q0.109375 0.234375 0.359375 0.453125q0.265625 0.203125 0.6875 0.421875q0.4375 0.203125 1.0625 0.46875q0.65625 0.28125 1.171875 0.5625q0.515625 0.265625 0.875 0.609375q0.375 0.328125 0.5625 0.765625q0.1875 0.4375 0.1875 1.0625zm5.4640503 1.5625q0.15625 0 0.359375 -0.015625q0.21875 -0.03125 0.40625 -0.046875q0.1875 -0.03125 0.34375 -0.0625q0.171875 -0.046875 0.25 -0.0625l0 1.25q-0.125 0.0625 -0.3125 0.109375q-0.171875 0.046875 -0.390625 0.09375q-0.21875 0.046875 -0.453125 0.0625q-0.234375 0.03125 -0.46875 0.03125q-0.5625 0 -1.046875 -0.15625q-0.484375 -0.140625 -0.84375 -0.484375q-0.34375 -0.359375 -0.546875 -0.96875q-0.1875 -0.609375 -0.1875 -1.53125l0 -5.796875l-1.421875 0l0 -0.734375l1.421875 -0.71875l0.703125 -2.09375l0.953125 0l0 2.296875l2.515625 0l0 1.25l-2.515625 0l0 5.796875q0 0.890625 0.28125 1.34375q0.296875 0.4375 0.953125 0.4375zm9.41571 4.125l-7.734375 0l0 -1.28125l7.734375 0l0 1.28125zm7.795227 -2.953125l0 -6.4375q0 -1.1875 -0.484375 -1.78125q-0.46875 -0.59375 -1.484375 -0.59375q-0.734375 0 -1.234375 0.25q-0.5 0.234375 -0.8125 0.703125q-0.3125 0.453125 -0.4375 1.125q-0.125 0.671875 -0.125 1.546875l0 5.1875l-1.671875 0l0 -10.0l1.359375 0l0.234375 1.34375l0.09375 0q0.21875 -0.390625 0.53125 -0.671875q0.328125 -0.296875 0.6875 -0.484375q0.375 -0.1875 0.796875 -0.28125q0.421875 -0.09375 0.859375 -0.09375q1.671875 0 2.5 0.875q0.84375 0.875 0.84375 2.78125l0 6.53125l-1.65625 0zm12.892273 -5.015625q0 1.25 -0.3125 2.21875q-0.296875 0.96875 -0.875 1.625q-0.5625 0.65625 -1.375 1.015625q-0.796875 0.34375 -1.8125 0.34375q-0.9375 0 -1.734375 -0.34375q-0.796875 -0.359375 -1.375 -1.015625q-0.578125 -0.65625 -0.90625 -1.625q-0.3125 -0.96875 -0.3125 -2.21875q0 -1.25 0.296875 -2.203125q0.3125 -0.96875 0.875 -1.625q0.5625 -0.65625 1.375 -1.0q0.828125 -0.34375 1.828125 -0.34375q0.9375 0 1.734375 0.34375q0.796875 0.34375 1.375 1.0q0.578125 0.65625 0.890625 1.625q0.328125 0.953125 0.328125 2.203125zm-7.0 0q0 1.90625 0.625 2.875q0.625 0.953125 2.03125 0.953125q1.40625 0 2.015625 -0.953125q0.625 -0.96875 0.625 -2.875q0 -1.90625 -0.625 -2.84375q-0.625 -0.953125 -2.03125 -0.953125q-1.40625 0 -2.03125 0.953125q-0.609375 0.9375 -0.609375 2.84375zm15.798706 3.671875l-0.078125 0q-0.203125 0.3125 -0.46875 0.59375q-0.265625 0.28125 -0.625 0.5q-0.34375 0.203125 -0.78125 0.3125q-0.4375 0.125 -0.984375 0.125q-0.84375 0 -1.546875 -0.328125q-0.703125 -0.328125 -1.203125 -0.984375q-0.5 -0.65625 -0.78125 -1.609375q-0.265625 -0.96875 -0.265625 -2.25q0 -1.28125 0.265625 -2.25q0.28125 -0.96875 0.78125 -1.625q0.5 -0.65625 1.203125 -0.984375q0.703125 -0.34375 1.546875 -0.34375q0.53125 0 0.96875 0.125q0.4375 0.109375 0.78125 0.3125q0.359375 0.203125 0.625 0.46875q0.28125 0.265625 0.484375 0.546875l0.109375 0q-0.03125 -0.296875 -0.046875 -0.578125q-0.03125 -0.25 -0.046875 -0.5q-0.015625 -0.25 -0.015625 -0.390625l0 -3.96875l1.65625 0l0 14.171875l-1.34375 0l-0.234375 -1.34375zm-2.625 0.15625q0.703125 0 1.171875 -0.203125q0.484375 -0.21875 0.78125 -0.640625q0.296875 -0.4375 0.4375 -1.078125q0.140625 -0.640625 0.15625 -1.5l0 -0.375q0 -0.921875 -0.125 -1.625q-0.125 -0.71875 -0.421875 -1.203125q-0.296875 -0.5 -0.796875 -0.75q-0.484375 -0.25 -1.21875 -0.25q-1.21875 0 -1.8125 1.0q-0.578125 0.984375 -0.578125 2.84375q0 1.90625 0.578125 2.84375q0.59375 0.9375 1.828125 0.9375zm11.3220215 1.375q-1.0 0 -1.828125 -0.328125q-0.828125 -0.34375 -1.421875 -0.984375q-0.59375 -0.65625 -0.921875 -1.609375q-0.328125 -0.96875 -0.328125 -2.1875q0 -1.25 0.296875 -2.21875q0.296875 -0.96875 0.84375 -1.640625q0.546875 -0.6875 1.3125 -1.046875q0.765625 -0.359375 1.6875 -0.359375q0.890625 0 1.609375 0.328125q0.71875 0.328125 1.21875 0.921875q0.515625 0.578125 0.78125 1.40625q0.265625 0.8125 0.265625 1.8125l0 1.03125l-6.3125 0q0.046875 1.765625 0.75 2.59375q0.703125 0.828125 2.078125 0.828125q0.453125 0 0.84375 -0.046875q0.40625 -0.046875 0.765625 -0.125q0.375 -0.09375 0.71875 -0.21875q0.359375 -0.140625 0.703125 -0.296875l0 1.46875q-0.359375 0.171875 -0.71875 0.3125q-0.34375 0.125 -0.71875 0.203125q-0.359375 0.078125 -0.765625 0.109375q-0.390625 0.046875 -0.859375 0.046875zm-0.40625 -9.0q-1.03125 0 -1.640625 0.71875q-0.609375 0.703125 -0.703125 2.0625l4.484375 0q0 -0.625 -0.125 -1.125q-0.125 -0.515625 -0.390625 -0.875q-0.25 -0.375 -0.65625 -0.578125q-0.40625 -0.203125 -0.96875 -0.203125z" fill-rule="nonzero"/></g></svg>