<svg version="1.1" viewBox="0.0 0.0 547.8976377952756 417.31496062992125" fill="none" stroke="none" stroke-linecap="square" stroke-miterlimit="10" xmlns:xlink="http://www.w3.org/1999/xlink" xmlns="http://www.w3.org/2000/svg"><clipPath id="p.0"><path d="m0 0l547.89764 0l0 417.31497l-547.89764 0l0 -417.31497z" clip-rule="nonzero"/></clipPath><g clip-path="url(#p.0)"><path fill="#000000" fill-opacity="0.0" d="m0 0l547.89764 0l0 417.31497l-547.89764 0z" fill-rule="evenodd"/><path fill="#cccccc" d="m13.066929 47.606377l0 0c0 -20.101904 16.295813 -36.397717 36.397717 -36.397717l448.96832 0c9.65329 0 18.911194 3.8347483 25.73706 10.660644c6.8259277 6.825897 10.660645 16.083797 10.660645 25.737072l0 322.1022c0 20.101898 -16.295776 36.397705 -36.397705 36.397705l-448.96832 0c-20.101904 0 -36.397717 -16.295807 -36.397717 -36.397705z" fill-rule="evenodd"/><path stroke="#434343" stroke-width="3.0" stroke-linejoin="round" stroke-linecap="butt" d="m13.066929 47.606377l0 0c0 -20.101904 16.295813 -36.397717 36.397717 -36.397717l448.96832 0c9.65329 0 18.911194 3.8347483 25.73706 10.660644c6.8259277 6.825897 10.660645 16.083797 10.660645 25.737072l0 322.1022c0 20.101898 -16.295776 36.397705 -36.397705 36.397705l-448.96832 0c-20.101904 0 -36.397717 -16.295807 -36.397717 -36.397705z" fill-rule="evenodd"/><path fill="#000000" d="m171.32687 49.14106q0 -2.1875 -0.546875 -3.15625q-0.546875 -0.984375 -2.046875 -0.984375q-0.53125 0 -1.171875 0.09375q-0.640625 0.078125 -0.953125 0.125l0 11.25l-3.234375 0l0 -13.484375q0.9375 -0.265625 2.4375 -0.5q1.515625 -0.25 3.1875 -0.25q1.4375 0 2.359375 0.375q0.921875 0.375 1.53125 0.984375q0.296875 -0.21875 0.75 -0.453125q0.453125 -0.234375 1.015625 -0.4375q0.5625 -0.203125 1.1875 -0.328125q0.625 -0.140625 1.265625 -0.140625q1.625 0 2.671875 0.46875q1.0625 0.46875 1.65625 1.3125q0.609375 0.828125 0.828125 2.015625q0.234375 1.1875 0.234375 2.59375l0 7.84375l-3.234375 0l0 -7.328125q0 -2.1875 -0.53125 -3.15625q-0.53125 -0.984375 -2.046875 -0.984375q-0.78125 0 -1.484375 0.265625q-0.6875 0.25 -1.03125 0.484375q0.21875 0.671875 0.296875 1.421875q0.078125 0.734375 0.078125 1.59375l0 7.703125l-3.21875 0l0 -7.328125zm14.338821 0.421875q0 -1.84375 0.546875 -3.21875q0.546875 -1.390625 1.453125 -2.3125q0.90625 -0.921875 2.078125 -1.375q1.171875 -0.46875 2.390625 -0.46875q2.890625 0 4.5 1.78125q1.609375 1.78125 1.609375 5.328125q0 0.265625 -0.015625 0.609375q-0.015625 0.328125 -0.03125 0.59375l-9.203125 0q0.140625 1.671875 1.1875 2.59375q1.046875 0.921875 3.046875 0.921875q1.171875 0 2.140625 -0.203125q0.984375 -0.21875 1.546875 -0.46875l0.421875 2.640625q-0.265625 0.140625 -0.734375 0.296875q-0.46875 0.140625 -1.0625 0.25q-0.59375 0.125 -1.296875 0.203125q-0.6875 0.078125 -1.40625 0.078125q-1.84375 0 -3.203125 -0.546875q-1.359375 -0.546875 -2.25 -1.515625q-0.875 -0.96875 -1.296875 -2.28125q-0.421875 -1.328125 -0.421875 -2.90625zm9.359375 -1.4375q0 -0.671875 -0.1875 -1.265625q-0.1875 -0.59375 -0.546875 -1.03125q-0.359375 -0.453125 -0.890625 -0.703125q-0.515625 -0.25 -1.234375 -0.25q-0.75 0 -1.3125 0.28125q-0.546875 0.28125 -0.9375 0.734375q-0.390625 0.453125 -0.609375 1.046875q-0.203125 0.578125 -0.28125 1.1875l6.0 0zm10.126907 6.03125q1.28125 0 1.859375 -0.3125q0.59375 -0.3125 0.59375 -1.046875q0 -0.703125 -0.625 -1.15625q-0.625 -0.453125 -2.078125 -0.984375q-0.875 -0.3125 -1.609375 -0.671875q-0.734375 -0.359375 -1.265625 -0.84375q-0.53125 -0.484375 -0.84375 -1.15625q-0.296875 -0.6875 -0.296875 -1.671875q0 -1.921875 1.40625 -3.015625q1.421875 -1.109375 3.84375 -1.109375q1.21875 0 2.34375 0.234375q1.125 0.21875 1.6875 0.421875l-0.59375 2.609375q-0.53125 -0.234375 -1.359375 -0.4375q-0.828125 -0.203125 -1.921875 -0.203125q-0.984375 0 -1.59375 0.34375q-0.609375 0.328125 -0.609375 1.015625q0 0.359375 0.109375 0.625q0.125 0.265625 0.40625 0.5q0.296875 0.21875 0.78125 0.453125q0.484375 0.21875 1.171875 0.453125q1.15625 0.421875 1.953125 0.84375q0.796875 0.40625 1.3125 0.9375q0.53125 0.515625 0.765625 1.1875q0.234375 0.65625 0.234375 1.59375q0 2.0 -1.484375 3.03125q-1.46875 1.015625 -4.21875 1.015625q-1.84375 0 -2.96875 -0.3125q-1.109375 -0.296875 -1.5625 -0.484375l0.5625 -2.6875q0.71875 0.28125 1.71875 0.5625q1.0 0.265625 2.28125 0.265625zm12.181854 0q1.28125 0 1.859375 -0.3125q0.59375 -0.3125 0.59375 -1.046875q0 -0.703125 -0.625 -1.15625q-0.625 -0.453125 -2.078125 -0.984375q-0.875 -0.3125 -1.609375 -0.671875q-0.734375 -0.359375 -1.265625 -0.84375q-0.53125 -0.484375 -0.84375 -1.15625q-0.296875 -0.6875 -0.296875 -1.671875q0 -1.921875 1.40625 -3.015625q1.421875 -1.109375 3.84375 -1.109375q1.21875 0 2.34375 0.234375q1.125 0.21875 1.6875 0.421875l-0.59375 2.609375q-0.53125 -0.234375 -1.359375 -0.4375q-0.828125 -0.203125 -1.921875 -0.203125q-0.984375 0 -1.59375 0.34375q-0.609375 0.328125 -0.609375 1.015625q0 0.359375 0.109375 0.625q0.125 0.265625 0.40625 0.5q0.296875 0.21875 0.78125 0.453125q0.484375 0.21875 1.171875 0.453125q1.15625 0.421875 1.953125 0.84375q0.796875 0.40625 1.3125 0.9375q0.53125 0.515625 0.765625 1.1875q0.234375 0.65625 0.234375 1.59375q0 2.0 -1.484375 3.03125q-1.46875 1.015625 -4.21875 1.015625q-1.84375 0 -2.96875 -0.3125q-1.109375 -0.296875 -1.5625 -0.484375l0.5625 -2.6875q0.71875 0.28125 1.71875 0.5625q1.0 0.265625 2.28125 0.265625zm13.588104 0.046875q1.5 0 2.265625 -0.15625l0 -3.578125q-0.265625 -0.078125 -0.78125 -0.15625q-0.5 -0.078125 -1.109375 -0.078125q-0.53125 0 -1.078125 0.078125q-0.546875 0.078125 -0.984375 0.296875q-0.4375 0.203125 -0.703125 0.59375q-0.265625 0.390625 -0.265625 0.96875q0 1.15625 0.71875 1.59375q0.71875 0.4375 1.9375 0.4375zm-0.265625 -12.015625q1.609375 0 2.6875 0.40625q1.09375 0.390625 1.75 1.109375q0.65625 0.71875 0.9375 1.75q0.28125 1.015625 0.28125 2.25l0 8.453125q-0.75 0.15625 -2.265625 0.375q-1.5 0.234375 -3.390625 0.234375q-1.25 0 -2.296875 -0.25q-1.03125 -0.234375 -1.765625 -0.765625q-0.734375 -0.53125 -1.15625 -1.375q-0.40625 -0.859375 -0.40625 -2.125q0 -1.1875 0.46875 -2.015625q0.46875 -0.828125 1.265625 -1.34375q0.796875 -0.53125 1.84375 -0.75q1.0625 -0.234375 2.203125 -0.234375q0.546875 0 1.125 0.078125q0.59375 0.0625 1.25 0.21875l0 -0.53125q0 -0.5625 -0.140625 -1.0625q-0.125 -0.515625 -0.453125 -0.890625q-0.328125 -0.390625 -0.875 -0.59375q-0.546875 -0.21875 -1.375 -0.21875q-1.125 0 -2.0625 0.15625q-0.921875 0.15625 -1.515625 0.375l-0.390625 -2.609375q0.609375 -0.21875 1.78125 -0.421875q1.171875 -0.21875 2.5 -0.21875zm12.125015 6.953125q0 2.046875 0.890625 3.0q0.90625 0.9375 2.3125 0.9375q0.78125 0 1.453125 -0.203125q0.6875 -0.21875 1.109375 -0.515625l0 -7.21875q-0.34375 -0.078125 -0.859375 -0.140625q-0.5 -0.078125 -1.28125 -0.078125q-1.75 0 -2.6875 1.171875q-0.9375 1.15625 -0.9375 3.046875zm8.984375 5.921875q0 3.328125 -1.6875 4.875q-1.6875 1.546875 -5.1875 1.546875q-1.28125 0 -2.5 -0.21875q-1.203125 -0.21875 -2.1875 -0.5625l0.578125 -2.734375q0.828125 0.34375 1.875 0.546875q1.0625 0.21875 2.296875 0.21875q1.9375 0 2.765625 -0.796875q0.828125 -0.796875 0.828125 -2.375l0 -0.53125q-0.484375 0.234375 -1.265625 0.484375q-0.78125 0.234375 -1.796875 0.234375q-1.34375 0 -2.453125 -0.421875q-1.09375 -0.4375 -1.890625 -1.25q-0.78125 -0.828125 -1.21875 -2.0625q-0.4375 -1.25 -0.4375 -2.875q0 -1.515625 0.46875 -2.796875q0.46875 -1.28125 1.359375 -2.1875q0.890625 -0.90625 2.171875 -1.40625q1.28125 -0.515625 2.90625 -0.515625q1.5625 0 2.96875 0.25q1.421875 0.234375 2.40625 0.5l0 12.078125zm3.3392487 -5.5q0 -1.84375 0.546875 -3.21875q0.546875 -1.390625 1.453125 -2.3125q0.90625 -0.921875 2.078125 -1.375q1.171875 -0.46875 2.390625 -0.46875q2.890625 0 4.5 1.78125q1.609375 1.78125 1.609375 5.328125q0 0.265625 -0.015625 0.609375q-0.015625 0.328125 -0.03125 0.59375l-9.203125 0q0.140625 1.671875 1.1875 2.59375q1.046875 0.921875 3.046875 0.921875q1.171875 0 2.140625 -0.203125q0.984375 -0.21875 1.546875 -0.46875l0.421875 2.640625q-0.265625 0.140625 -0.734375 0.296875q-0.46875 0.140625 -1.0625 0.25q-0.59375 0.125 -1.296875 0.203125q-0.6875 0.078125 -1.40625 0.078125q-1.84375 0 -3.203125 -0.546875q-1.359375 -0.546875 -2.25 -1.515625q-0.875 -0.96875 -1.296875 -2.28125q-0.421875 -1.328125 -0.421875 -2.90625zm9.359375 -1.4375q0 -0.671875 -0.1875 -1.265625q-0.1875 -0.59375 -0.546875 -1.03125q-0.359375 -0.453125 -0.890625 -0.703125q-0.515625 -0.25 -1.234375 -0.25q-0.75 0 -1.3125 0.28125q-0.546875 0.28125 -0.9375 0.734375q-0.390625 0.453125 -0.609375 1.046875q-0.203125 0.578125 -0.28125 1.1875l6.0 0zm13.275269 -12.53125l6.609375 0l0 2.5625l-3.578125 0l0 20.6875l3.578125 0l0 2.5625l-6.609375 0l0 -25.8125zm21.059082 2.40625l0 2.90625l-5.6875 0l0 15.5625l-3.375 0l0 -15.5625l-5.6875 0l0 -2.90625l14.75 0zm0.34014893 20.703125l13.328125 0l0 2.703125l-13.328125 0l0 -2.703125zm18.624939 -2.234375l-3.21875 0l0 -13.9375l3.21875 0l0 13.9375zm0.359375 -18.015625q0 0.90625 -0.59375 1.4375q-0.578125 0.53125 -1.390625 0.53125q-0.8125 0 -1.40625 -0.53125q-0.59375 -0.53125 -0.59375 -1.4375q0 -0.9375 0.59375 -1.46875q0.59375 -0.53125 1.40625 -0.53125q0.8125 0 1.390625 0.53125q0.59375 0.53125 0.59375 1.46875zm3.7477417 4.53125q0.9375 -0.265625 2.421875 -0.5q1.5 -0.25 3.3125 -0.25q1.703125 0 2.84375 0.46875q1.15625 0.46875 1.828125 1.3125q0.6875 0.828125 0.96875 2.015625q0.28125 1.1875 0.28125 2.59375l0 7.84375l-3.234375 0l0 -7.328125q0 -1.125 -0.140625 -1.90625q-0.140625 -0.78125 -0.484375 -1.28125q-0.328125 -0.5 -0.90625 -0.71875q-0.5625 -0.234375 -1.390625 -0.234375q-0.609375 0 -1.28125 0.09375q-0.671875 0.078125 -0.984375 0.125l0 11.25l-3.234375 0l0 -13.484375zm24.843842 6.578125q0 -2.15625 -0.96875 -3.359375q-0.96875 -1.203125 -3.125 -1.203125q-0.453125 0 -0.953125 0.046875q-0.5 0.046875 -0.96875 0.171875l0 7.96875q0.421875 0.296875 1.125 0.546875q0.71875 0.25 1.515625 0.25q1.75 0 2.5625 -1.1875q0.8125 -1.203125 0.8125 -3.234375zm3.3125 -0.046875q0 1.59375 -0.421875 2.9375q-0.40625 1.328125 -1.1875 2.296875q-0.765625 0.953125 -1.921875 1.484375q-1.15625 0.53125 -2.625 0.53125q-0.984375 0 -1.8125 -0.25q-0.828125 -0.234375 -1.359375 -0.53125l0 5.421875l-3.234375 0l0 -18.421875q0.984375 -0.265625 2.421875 -0.5q1.453125 -0.25 3.046875 -0.25q1.65625 0 2.953125 0.515625q1.3125 0.5 2.234375 1.453125q0.921875 0.9375 1.40625 2.28125q0.5 1.34375 0.5 3.03125zm14.762054 6.53125q-0.921875 0.234375 -2.421875 0.484375q-1.5 0.25 -3.28125 0.25q-1.671875 0 -2.8125 -0.46875q-1.125 -0.484375 -1.8125 -1.328125q-0.671875 -0.859375 -0.96875 -2.046875q-0.296875 -1.1875 -0.296875 -2.59375l0 -7.8125l3.234375 0l0 7.296875q0 2.25 0.640625 3.203125q0.65625 0.953125 2.28125 0.953125q0.59375 0 1.234375 -0.046875q0.65625 -0.046875 0.984375 -0.140625l0 -11.265625l3.21875 0l0 13.515625zm3.9468079 -17.203125l3.234375 -0.53125l0 4.21875l4.953125 0l0 2.6875l-4.953125 0l0 5.671875q0 1.6875 0.53125 2.40625q0.53125 0.71875 1.8125 0.71875q0.875 0 1.546875 -0.1875q0.6875 -0.1875 1.09375 -0.34375l0.53125 2.5625q-0.5625 0.234375 -1.46875 0.484375q-0.90625 0.25 -2.140625 0.25q-1.484375 0 -2.484375 -0.390625q-1.0 -0.40625 -1.59375 -1.15625q-0.578125 -0.765625 -0.828125 -1.84375q-0.234375 -1.078125 -0.234375 -2.46875l0 -12.078125zm8.752289 22.5625l0 -2.5625l3.53125 0l0 -20.6875l-3.53125 0l0 -2.5625l6.609375 0l0 25.8125l-6.609375 0z" fill-rule="nonzero"/><path fill="#000000" d="m40.883705 120.781685q-1.671875 0 -2.953125 -0.53125q-1.265625 -0.53125 -2.125 -1.484375q-0.859375 -0.96875 -1.296875 -2.28125q-0.421875 -1.3125 -0.421875 -2.921875q0 -1.59375 0.46875 -2.921875q0.46875 -1.34375 1.3125 -2.3125q0.859375 -0.96875 2.09375 -1.515625q1.25 -0.546875 2.765625 -0.546875q0.9375 0 1.859375 0.15625q0.9375 0.15625 1.796875 0.5l-0.5625 2.109375q-0.5625 -0.265625 -1.296875 -0.421875q-0.734375 -0.15625 -1.5625 -0.15625q-2.078125 0 -3.1875 1.3125q-1.109375 1.296875 -1.109375 3.796875q0 1.125 0.25 2.0625q0.265625 0.921875 0.8125 1.59375q0.546875 0.671875 1.390625 1.03125q0.859375 0.359375 2.09375 0.359375q0.984375 0 1.78125 -0.1875q0.796875 -0.1875 1.25 -0.40625l0.34375 2.078125q-0.203125 0.140625 -0.609375 0.265625q-0.40625 0.109375 -0.90625 0.203125q-0.5 0.09375 -1.078125 0.15625q-0.578125 0.0625 -1.109375 0.0625zm11.488861 -14.46875q0.328125 0 0.734375 0.046875q0.40625 0.03125 0.8125 0.109375q0.40625 0.0625 0.734375 0.125q0.328125 0.0625 0.484375 0.125l-0.421875 2.15625q-0.296875 -0.109375 -0.984375 -0.25q-0.671875 -0.15625 -1.734375 -0.15625q-0.6875 0 -1.375 0.15625q-0.671875 0.140625 -0.890625 0.1875l0 11.65625l-2.484375 0l0 -13.28125q0.890625 -0.3125 2.1875 -0.59375q1.3125 -0.28125 2.9375 -0.28125zm4.398651 7.25q0 -1.84375 0.53125 -3.203125q0.53125 -1.375 1.40625 -2.28125q0.890625 -0.90625 2.03125 -1.359375q1.15625 -0.453125 2.34375 -0.453125q2.796875 0 4.296875 1.75q1.5 1.734375 1.5 5.3125q0 0.15625 0 0.40625q0 0.25 -0.03125 0.46875l-9.5 0q0.171875 2.15625 1.265625 3.28125q1.09375 1.125 3.40625 1.125q1.3125 0 2.203125 -0.21875q0.890625 -0.234375 1.34375 -0.453125l0.34375 2.078125q-0.453125 0.234375 -1.59375 0.5q-1.125 0.265625 -2.5625 0.265625q-1.8125 0 -3.140625 -0.53125q-1.3125 -0.546875 -2.171875 -1.5q-0.84375 -0.96875 -1.265625 -2.28125q-0.40625 -1.328125 -0.40625 -2.90625zm9.515625 -1.359375q0.03125 -1.671875 -0.84375 -2.75q-0.859375 -1.09375 -2.375 -1.09375q-0.859375 0 -1.515625 0.34375q-0.65625 0.328125 -1.109375 0.859375q-0.453125 0.53125 -0.703125 1.234375q-0.25 0.6875 -0.328125 1.40625l6.875 0zm10.853912 6.484375q0.875 0 1.546875 -0.03125q0.6875 -0.046875 1.140625 -0.15625l0 -4.140625q-0.265625 -0.125 -0.875 -0.21875q-0.59375 -0.09375 -1.4375 -0.09375q-0.5625 0 -1.1875 0.078125q-0.625 0.078125 -1.15625 0.34375q-0.515625 0.25 -0.859375 0.6875q-0.34375 0.4375 -0.34375 1.15625q0 1.328125 0.84375 1.859375q0.859375 0.515625 2.328125 0.515625zm-0.21875 -12.421875q1.5 0 2.515625 0.390625q1.03125 0.375 1.65625 1.09375q0.625 0.703125 0.890625 1.671875q0.265625 0.96875 0.265625 2.140625l0 8.671875q-0.3125 0.046875 -0.890625 0.140625q-0.578125 0.09375 -1.296875 0.171875q-0.71875 0.078125 -1.5625 0.140625q-0.828125 0.078125 -1.65625 0.078125q-1.171875 0 -2.15625 -0.25q-0.984375 -0.234375 -1.703125 -0.75q-0.71875 -0.515625 -1.125 -1.375q-0.40625 -0.859375 -0.40625 -2.046875q0 -1.15625 0.46875 -1.984375q0.46875 -0.828125 1.265625 -1.328125q0.796875 -0.5 1.859375 -0.734375q1.078125 -0.25 2.25 -0.25q0.375 0 0.765625 0.046875q0.40625 0.03125 0.765625 0.109375q0.359375 0.0625 0.625 0.109375q0.265625 0.046875 0.375 0.078125l0 -0.6875q0 -0.625 -0.140625 -1.21875q-0.125 -0.59375 -0.46875 -1.0625q-0.34375 -0.46875 -0.953125 -0.75q-0.59375 -0.28125 -1.5625 -0.28125q-1.21875 0 -2.140625 0.171875q-0.921875 0.171875 -1.375 0.359375l-0.296875 -2.046875q0.484375 -0.21875 1.59375 -0.40625q1.125 -0.203125 2.4375 -0.203125zm11.758255 0.34375l5.25 0l0 2.078125l-5.25 0l0 6.390625q0 1.046875 0.15625 1.734375q0.15625 0.671875 0.46875 1.0625q0.328125 0.375 0.8125 0.546875q0.484375 0.15625 1.125 0.15625q1.109375 0 1.78125 -0.25q0.6875 -0.265625 0.953125 -0.359375l0.484375 2.046875q-0.375 0.1875 -1.3125 0.46875q-0.921875 0.28125 -2.125 0.28125q-1.40625 0 -2.328125 -0.359375q-0.921875 -0.359375 -1.484375 -1.078125q-0.5625 -0.71875 -0.796875 -1.765625q-0.21875 -1.0625 -0.21875 -2.453125l0 -12.359375l2.484375 -0.4375l0 4.296875zm20.264313 6.921875q0 1.65625 -0.484375 3.0q-0.484375 1.328125 -1.359375 2.296875q-0.859375 0.953125 -2.0625 1.46875q-1.1875 0.515625 -2.609375 0.515625q-1.40625 0 -2.609375 -0.515625q-1.203125 -0.515625 -2.078125 -1.46875q-0.859375 -0.96875 -1.34375 -2.296875q-0.46875 -1.34375 -0.46875 -3.0q0 -1.625 0.46875 -2.96875q0.484375 -1.34375 1.34375 -2.296875q0.875 -0.96875 2.078125 -1.484375q1.203125 -0.515625 2.609375 -0.515625q1.421875 0 2.609375 0.515625q1.203125 0.515625 2.0625 1.484375q0.875 0.953125 1.359375 2.296875q0.484375 1.34375 0.484375 2.96875zm-2.59375 0q0 -2.34375 -1.0625 -3.703125q-1.046875 -1.375 -2.859375 -1.375q-1.8125 0 -2.875 1.375q-1.046875 1.359375 -1.046875 3.703125q0 2.359375 1.046875 3.734375q1.0625 1.359375 2.875 1.359375q1.8125 0 2.859375 -1.359375q1.0625 -1.375 1.0625 -3.734375zm11.195877 -7.21875q0.328125 0 0.734375 0.046875q0.40625 0.03125 0.8125 0.109375q0.40625 0.0625 0.734375 0.125q0.328125 0.0625 0.484375 0.125l-0.421875 2.15625q-0.296875 -0.109375 -0.984375 -0.25q-0.671875 -0.15625 -1.734375 -0.15625q-0.6875 0 -1.375 0.15625q-0.671875 0.140625 -0.890625 0.1875l0 11.65625l-2.484375 0l0 -13.28125q0.890625 -0.3125 2.1875 -0.59375q1.3125 -0.28125 2.9375 -0.28125z" fill-rule="nonzero"/><path fill="#000000" d="m45.68058 138.60982q-1.03125 3.890625 -2.4375 7.46875q-1.40625 3.5625 -2.703125 6.390625l-2.234375 0q-1.3125 -2.828125 -2.71875 -6.390625q-1.390625 -3.578125 -2.4375 -7.46875l2.671875 0q0.3125 1.296875 0.75 2.78125q0.453125 1.484375 0.9375 2.9375q0.5 1.453125 1.0 2.8125q0.515625 1.359375 0.96875 2.421875q0.453125 -1.0625 0.953125 -2.421875q0.5 -1.359375 1.0 -2.8125q0.5 -1.453125 0.9375 -2.9375q0.4375 -1.484375 0.75 -2.78125l2.5625 0zm1.4143066 6.953125q0 -1.84375 0.53125 -3.203125q0.53125 -1.375 1.40625 -2.28125q0.890625 -0.90625 2.03125 -1.359375q1.15625 -0.453125 2.34375 -0.453125q2.796875 0 4.296875 1.75q1.5 1.734375 1.5 5.3125q0 0.15625 0 0.40625q0 0.25 -0.03125 0.46875l-9.5 0q0.171875 2.15625 1.265625 3.28125q1.09375 1.125 3.40625 1.125q1.3125 0 2.203125 -0.21875q0.890625 -0.234375 1.34375 -0.453125l0.34375 2.078125q-0.453125 0.234375 -1.59375 0.5q-1.125 0.265625 -2.5625 0.265625q-1.8125 0 -3.140625 -0.53125q-1.3125 -0.546875 -2.171875 -1.5q-0.84375 -0.96875 -1.265625 -2.28125q-0.40625 -1.328125 -0.40625 -2.90625zm9.515625 -1.359375q0.03125 -1.671875 -0.84375 -2.75q-0.859375 -1.09375 -2.375 -1.09375q-0.859375 0 -1.515625 0.34375q-0.65625 0.328125 -1.109375 0.859375q-0.453125 0.53125 -0.703125 1.234375q-0.25 0.6875 -0.328125 1.40625l6.875 0zm11.275787 -5.890625q0.328125 0 0.734375 0.046875q0.40625 0.03125 0.8125 0.109375q0.40625 0.0625 0.734375 0.125q0.328125 0.0625 0.484375 0.125l-0.421875 2.15625q-0.296875 -0.109375 -0.984375 -0.25q-0.671875 -0.15625 -1.734375 -0.15625q-0.6875 0 -1.375 0.15625q-0.671875 0.140625 -0.890625 0.1875l0 11.65625l-2.484375 0l0 -13.28125q0.890625 -0.3125 2.1875 -0.59375q1.3125 -0.28125 2.9375 -0.28125zm8.398651 12.375q1.515625 0 2.25 -0.390625q0.734375 -0.40625 0.734375 -1.296875q0 -0.90625 -0.71875 -1.4375q-0.71875 -0.53125 -2.375 -1.203125q-0.796875 -0.3125 -1.53125 -0.640625q-0.734375 -0.34375 -1.265625 -0.796875q-0.53125 -0.453125 -0.859375 -1.09375q-0.3125 -0.640625 -0.3125 -1.5625q0 -1.84375 1.359375 -2.921875q1.359375 -1.078125 3.703125 -1.078125q0.59375 0 1.171875 0.0625q0.59375 0.0625 1.09375 0.15625q0.5 0.09375 0.890625 0.203125q0.390625 0.109375 0.609375 0.1875l-0.453125 2.125q-0.40625 -0.203125 -1.265625 -0.421875q-0.84375 -0.234375 -2.046875 -0.234375q-1.046875 0 -1.8125 0.421875q-0.765625 0.40625 -0.765625 1.28125q0 0.453125 0.171875 0.796875q0.171875 0.34375 0.53125 0.625q0.359375 0.28125 0.890625 0.53125q0.53125 0.234375 1.28125 0.5q0.984375 0.375 1.75 0.734375q0.78125 0.359375 1.328125 0.84375q0.546875 0.46875 0.828125 1.15625q0.296875 0.671875 0.296875 1.65625q0 1.921875 -1.421875 2.90625q-1.421875 0.984375 -4.0625 0.984375q-1.84375 0 -2.890625 -0.3125q-1.03125 -0.296875 -1.40625 -0.453125l0.453125 -2.125q0.4375 0.15625 1.359375 0.484375q0.9375 0.3125 2.484375 0.3125zm11.138641 1.78125l-2.484375 0l0 -13.859375l2.484375 0l0 13.859375zm-1.25 -16.359375q-0.671875 0 -1.140625 -0.4375q-0.453125 -0.453125 -0.453125 -1.203125q0 -0.734375 0.453125 -1.171875q0.46875 -0.453125 1.140625 -0.453125q0.671875 0 1.125 0.453125q0.46875 0.4375 0.46875 1.171875q0 0.75 -0.46875 1.203125q-0.453125 0.4375 -1.125 0.4375zm17.759628 9.421875q0 1.65625 -0.484375 3.0q-0.484375 1.328125 -1.359375 2.296875q-0.859375 0.953125 -2.0625 1.46875q-1.1875 0.515625 -2.609375 0.515625q-1.40625 0 -2.609375 -0.515625q-1.203125 -0.515625 -2.078125 -1.46875q-0.859375 -0.96875 -1.34375 -2.296875q-0.46875 -1.34375 -0.46875 -3.0q0 -1.625 0.46875 -2.96875q0.484375 -1.34375 1.34375 -2.296875q0.875 -0.96875 2.078125 -1.484375q1.203125 -0.515625 2.609375 -0.515625q1.421875 0 2.609375 0.515625q1.203125 0.515625 2.0625 1.484375q0.875 0.953125 1.359375 2.296875q0.484375 1.34375 0.484375 2.96875zm-2.59375 0q0 -2.34375 -1.0625 -3.703125q-1.046875 -1.375 -2.859375 -1.375q-1.8125 0 -2.875 1.375q-1.046875 1.359375 -1.046875 3.703125q0 2.359375 1.046875 3.734375q1.0625 1.359375 2.875 1.359375q1.8125 0 2.859375 -1.359375q1.0625 -1.375 1.0625 -3.734375zm6.070877 -6.53125q0.859375 -0.203125 2.265625 -0.4375q1.421875 -0.25 3.265625 -0.25q1.640625 0 2.734375 0.46875q1.09375 0.46875 1.75 1.3125q0.65625 0.828125 0.921875 2.0q0.265625 1.171875 0.265625 2.59375l0 7.78125l-2.484375 0l0 -7.25q0 -1.28125 -0.171875 -2.1875q-0.171875 -0.90625 -0.578125 -1.46875q-0.390625 -0.5625 -1.0625 -0.8125q-0.65625 -0.25 -1.640625 -0.25q-0.40625 0 -0.84375 0.03125q-0.421875 0.015625 -0.8125 0.0625q-0.375 0.046875 -0.6875 0.09375q-0.296875 0.046875 -0.4375 0.078125l0 11.703125l-2.484375 0l0 -13.46875z" fill-rule="nonzero"/><path fill="#000000" fill-opacity="0.0" d="m-109.437004 287.1076l-58.14173 0.34646606" fill-rule="evenodd"/><path stroke="#f3f3f3" stroke-width="3.0" stroke-linejoin="round" stroke-linecap="butt" d="m-127.43669 287.21487l-40.142044 0.23919678" fill-rule="evenodd"/><path fill="#f3f3f3" stroke="#f3f3f3" stroke-width="3.0" stroke-linecap="butt" d="m-127.40716 292.16998l13.584518 -5.0362244l-13.643578 -4.873993z" fill-rule="evenodd"/><path fill="#d9ead3" d="m43.985565 193.7995l0 0c0 -8.0481415 6.524315 -14.572464 14.572468 -14.572464l186.03616 0c3.8648682 0 7.5714264 1.5353088 10.304291 4.268173c2.7328644 2.7328644 4.268173 6.439438 4.268173 10.304291l0 58.28813c0 8.048172 -6.5243073 14.572464 -14.572464 14.572464l-186.03616 0l0 0c-8.048153 0 -14.572468 -6.524292 -14.572468 -14.572464z" fill-rule="evenodd"/><path stroke="#434343" stroke-width="2.0" stroke-linejoin="round" stroke-linecap="butt" d="m43.985565 193.7995l0 0c0 -8.0481415 6.524315 -14.572464 14.572468 -14.572464l186.03616 0c3.8648682 0 7.5714264 1.5353088 10.304291 4.268173c2.7328644 2.7328644 4.268173 6.439438 4.268173 10.304291l0 58.28813c0 8.048172 -6.5243073 14.572464 -14.572464 14.572464l-186.03616 0l0 0c-8.048153 0 -14.572468 -6.524292 -14.572468 -14.572464z" fill-rule="evenodd"/><path fill="#000000" d="m64.25369 205.29016q0 -1.53125 -0.3906212 -2.203125q-0.375 -0.6875 -1.421875 -0.6875q-0.375 0 -0.828125 0.0625q-0.4375 0.046875 -0.671875 0.078125l0 7.875l-2.25 0l0 -9.4375q0.65625 -0.1875 1.703125 -0.359375q1.0625 -0.171875 2.234375 -0.171875q1.0 0 1.6406212 0.265625q0.65625 0.265625 1.078125 0.6875q0.203125 -0.140625 0.515625 -0.3125q0.328125 -0.171875 0.71875 -0.3125q0.390625 -0.140625 0.828125 -0.234375q0.4375 -0.09375 0.890625 -0.09375q1.140625 0 1.875 0.328125q0.734375 0.328125 1.15625 0.921875q0.421875 0.578125 0.578125 1.421875q0.15625 0.828125 0.15625 1.8125l0 5.484375l-2.25 0l0 -5.125q0 -1.53125 -0.375 -2.203125q-0.375 -0.6875 -1.4375 -0.6875q-0.546875 0 -1.03125 0.171875q-0.484375 0.171875 -0.71875 0.34375q0.140625 0.46875 0.1875 1.0q0.0625 0.515625 0.0625 1.109375l0 5.390625l-2.25 0l0 -5.125zm10.02829 0.296875q0 -1.296875 0.375 -2.265625q0.390625 -0.96875 1.015625 -1.609375q0.640625 -0.640625 1.46875 -0.96875q0.828125 -0.328125 1.671875 -0.328125q2.015625 0 3.140625 1.25q1.140625 1.25 1.140625 3.734375q0 0.1875 -0.015625 0.421875q0 0.234375 -0.03125 0.421875l-6.421875 0q0.09375 1.171875 0.828125 1.8125q0.734375 0.640625 2.125 0.640625q0.828125 0 1.5 -0.140625q0.6875 -0.15625 1.078125 -0.328125l0.296875 1.859375q-0.1875 0.078125 -0.515625 0.1875q-0.3125 0.109375 -0.734375 0.1875q-0.421875 0.078125 -0.90625 0.140625q-0.484375 0.0625 -1.0 0.0625q-1.28125 0 -2.234375 -0.375q-0.953125 -0.390625 -1.5625 -1.078125q-0.609375 -0.6875 -0.921875 -1.609375q-0.296875 -0.921875 -0.296875 -2.015625zm6.546875 -1.015625q0 -0.46875 -0.125 -0.875q-0.125 -0.421875 -0.390625 -0.734375q-0.25 -0.3125 -0.609375 -0.484375q-0.359375 -0.171875 -0.859375 -0.171875q-0.53125 0 -0.921875 0.203125q-0.390625 0.1875 -0.671875 0.5q-0.265625 0.3125 -0.421875 0.734375q-0.140625 0.40625 -0.1875 0.828125l4.1875 0zm4.54335 -6.484375l2.25 -0.375l0 2.953125l3.46875 0l0 1.875l-3.46875 0l0 3.96875q0 1.1875 0.375 1.6875q0.375 0.5 1.265625 0.5q0.625 0 1.09375 -0.125q0.484375 -0.140625 0.765625 -0.25l0.359375 1.796875q-0.390625 0.171875 -1.03125 0.34375q-0.625 0.171875 -1.484375 0.171875q-1.046875 0 -1.75 -0.265625q-0.6875 -0.28125 -1.109375 -0.8125q-0.40625 -0.546875 -0.578125 -1.296875q-0.15625 -0.75 -0.15625 -1.71875l0 -8.453125zm11.345184 10.75q1.03125 0 1.578125 -0.125l0 -2.5q-0.1875 -0.046875 -0.546875 -0.09375q-0.34375 -0.0625 -0.78125 -0.0625q-0.375 0 -0.75 0.0625q-0.375 0.046875 -0.6875 0.203125q-0.3125 0.140625 -0.5 0.40625q-0.1875 0.265625 -0.1875 0.6875q0 0.796875 0.5 1.109375q0.515625 0.3125 1.375 0.3125zm-0.1875 -8.421875q1.109375 0 1.875 0.28125q0.765625 0.28125 1.21875 0.78125q0.46875 0.5 0.65625 1.21875q0.203125 0.71875 0.203125 1.578125l0 5.921875q-0.53125 0.109375 -1.59375 0.265625q-1.046875 0.15625 -2.359375 0.15625q-0.875 0 -1.609375 -0.171875q-0.734375 -0.15625 -1.25 -0.53125q-0.5 -0.375 -0.796875 -0.96875q-0.28125 -0.609375 -0.28125 -1.484375q0 -0.828125 0.328125 -1.40625q0.328125 -0.578125 0.875 -0.9375q0.5625 -0.375 1.296875 -0.53125q0.75 -0.15625 1.546875 -0.15625q0.375 0 0.78125 0.046875q0.40625 0.046875 0.875 0.15625l0 -0.375q0 -0.390625 -0.09375 -0.734375q-0.09375 -0.359375 -0.328125 -0.625q-0.234375 -0.28125 -0.625 -0.421875q-0.375 -0.15625 -0.953125 -0.15625q-0.78125 0 -1.4375 0.109375q-0.640625 0.109375 -1.0625 0.265625l-0.28125 -1.828125q0.4375 -0.15625 1.25 -0.296875q0.828125 -0.15625 1.765625 -0.15625zm10.309341 3.546875q0.859375 0 1.25 -0.53125q0.40625 -0.53125 0.40625 -1.265625l0 -2.734375q0 -0.875 0.171875 -1.5625q0.171875 -0.6875 0.59375 -1.140625q0.4375 -0.453125 1.203125 -0.6875q0.765625 -0.234375 1.953125 -0.234375l0.140625 0l0 1.796875q-0.546875 0 -0.921875 0.078125q-0.375 0.0625 -0.59375 0.265625q-0.21875 0.1875 -0.328125 0.515625q-0.109375 0.328125 -0.109375 0.828125l0 2.671875q0 1.125 -0.296875 1.796875q-0.28125 0.65625 -0.96875 1.078125q0.6875 0.421875 0.96875 1.09375q0.296875 0.671875 0.296875 1.78125l0 2.6875q0 0.5 0.109375 0.8125q0.109375 0.328125 0.328125 0.515625q0.21875 0.203125 0.59375 0.265625q0.375 0.078125 0.921875 0.078125l0 1.796875q-1.25 0 -2.046875 -0.234375q-0.78125 -0.21875 -1.234375 -0.671875q-0.4375 -0.453125 -0.609375 -1.125q-0.171875 -0.671875 -0.171875 -1.578125l0 -2.75q0 -0.71875 -0.40625 -1.25q-0.390625 -0.53125 -1.25 -0.53125l0 -1.765625zm15.948654 1.765625q-0.859375 0 -1.265625 0.53125q-0.390625 0.53125 -0.390625 1.25l0 2.75q0 0.90625 -0.171875 1.578125q-0.15625 0.671875 -0.609375 1.125q-0.453125 0.453125 -1.234375 0.671875q-0.78125 0.234375 -2.03125 0.234375l0 -1.796875q1.078125 0 1.5 -0.34375q0.4375 -0.34375 0.4375 -1.328125l0 -2.6875q0 -1.109375 0.28125 -1.78125q0.296875 -0.671875 0.984375 -1.09375q-0.6875 -0.421875 -0.984375 -1.078125q-0.28125 -0.671875 -0.28125 -1.796875l0 -2.671875q0 -0.5 -0.109375 -0.828125q-0.09375 -0.328125 -0.328125 -0.515625q-0.21875 -0.203125 -0.59375 -0.265625q-0.359375 -0.078125 -0.90625 -0.078125l0 -1.796875l0.125 0q1.203125 0 1.96875 0.234375q0.765625 0.234375 1.1875 0.6875q0.4375 0.453125 0.59375 1.140625q0.171875 0.6875 0.171875 1.5625l0 2.734375q0 0.734375 0.390625 1.265625q0.40625 0.53125 1.265625 0.53125l0 1.765625z" fill-rule="nonzero"/><path fill="#000000" d="m137.10155 217.43329q0.5625 0 0.953125 0.078125q0.40625 0.078125 0.578125 0.140625l-0.203125 1.28125q-0.171875 -0.0625 -0.484375 -0.140625q-0.296875 -0.078125 -0.734375 -0.078125q-1.046875 0 -1.46875 0.578125q-0.40625 0.5625 -0.40625 1.515625l0 0.734375l3.203125 0l0 1.234375l-3.203125 0l0 7.078125l-1.484375 0l0 -9.078125q0 -1.59375 0.78125 -2.46875q0.78125 -0.875 2.46875 -0.875zm4.484375 12.421875l-1.5 0l0 -8.3125l1.5 0l0 8.3125zm-0.765625 -9.828125q-0.390625 0 -0.671875 -0.265625q-0.28125 -0.265625 -0.28125 -0.703125q0 -0.453125 0.28125 -0.71875q0.28125 -0.265625 0.671875 -0.265625q0.40625 0 0.6875 0.265625q0.28125 0.265625 0.28125 0.71875q0 0.4375 -0.28125 0.703125q-0.28125 0.265625 -0.6875 0.265625zm2.850525 5.6875q0 -1.109375 0.3125 -1.921875q0.328125 -0.828125 0.859375 -1.375q0.53125 -0.546875 1.21875 -0.8125q0.6875 -0.28125 1.40625 -0.28125q1.671875 0 2.5625 1.046875q0.90625 1.046875 0.90625 3.203125q0 0.09375 0 0.25q0 0.140625 -0.015625 0.265625l-5.6875 0q0.09375 1.296875 0.75 1.96875q0.65625 0.671875 2.046875 0.671875q0.78125 0 1.3125 -0.125q0.546875 -0.140625 0.8125 -0.265625l0.203125 1.25q-0.265625 0.140625 -0.953125 0.296875q-0.671875 0.15625 -1.53125 0.15625q-1.09375 0 -1.890625 -0.328125q-0.78125 -0.328125 -1.296875 -0.890625q-0.515625 -0.578125 -0.765625 -1.375q-0.25 -0.796875 -0.25 -1.734375zm5.71875 -0.8125q0.015625 -1.015625 -0.515625 -1.65625q-0.515625 -0.65625 -1.421875 -0.65625q-0.515625 0 -0.90625 0.203125q-0.390625 0.203125 -0.671875 0.53125q-0.265625 0.3125 -0.421875 0.734375q-0.140625 0.40625 -0.1875 0.84375l4.125 0zm6.1940155 5.109375q-1.375 -0.03125 -1.953125 -0.578125q-0.578125 -0.5625 -0.578125 -1.75l0 -9.984375l1.484375 -0.265625l0 10.0q0 0.375 0.0625 0.625q0.0625 0.234375 0.203125 0.375q0.15625 0.140625 0.390625 0.21875q0.234375 0.0625 0.59375 0.109375l-0.203125 1.25zm7.2430115 -6.71875q-0.265625 -0.21875 -0.78125 -0.421875q-0.515625 -0.21875 -1.125 -0.21875q-0.640625 0 -1.09375 0.234375q-0.453125 0.234375 -0.75 0.640625q-0.28125 0.40625 -0.40625 0.96875q-0.125 0.5625 -0.125 1.203125q0 1.453125 0.71875 2.25q0.71875 0.78125 1.921875 0.78125q0.59375 0 1.0 -0.046875q0.421875 -0.0625 0.640625 -0.125l0 -5.265625zm0 -5.59375l1.484375 -0.265625l0 12.1875q-0.515625 0.140625 -1.3125 0.28125q-0.796875 0.140625 -1.84375 0.140625q-0.953125 0 -1.71875 -0.296875q-0.765625 -0.3125 -1.3125 -0.859375q-0.546875 -0.5625 -0.84375 -1.375q-0.296875 -0.8125 -0.296875 -1.8125q0 -0.96875 0.25 -1.765625q0.25 -0.796875 0.71875 -1.375q0.484375 -0.578125 1.171875 -0.890625q0.703125 -0.328125 1.609375 -0.328125q0.71875 0 1.265625 0.203125q0.5625 0.1875 0.828125 0.359375l0 -4.203125zm2.7052765 13.859375l8.0 0l0 1.25l-8.0 0l0 -1.25zm9.418884 -10.5q0.921875 -0.359375 1.78125 -0.90625q0.859375 -0.546875 1.578125 -1.390625l1.0625 0l0 11.09375l-1.484375 0l0 -9.03125q-0.203125 0.1875 -0.484375 0.375q-0.28125 0.1875 -0.609375 0.375q-0.3125 0.171875 -0.6875 0.328125q-0.359375 0.15625 -0.6875 0.265625l-0.46875 -1.109375zm10.586517 7.9375q0 0.421875 -0.296875 0.75q-0.28125 0.3125 -0.78125 0.3125q-0.5 0 -0.796875 -0.3125q-0.28125 -0.328125 -0.28125 -0.75q0 -0.4375 0.28125 -0.75q0.296875 -0.328125 0.796875 -0.328125q0.5 0 0.78125 0.328125q0.296875 0.3125 0.296875 0.75zm0 -6.390625q0 0.421875 -0.296875 0.75q-0.28125 0.3125 -0.78125 0.3125q-0.5 0 -0.796875 -0.3125q-0.28125 -0.328125 -0.28125 -0.75q0 -0.4375 0.28125 -0.75q0.296875 -0.328125 0.796875 -0.328125q0.5 0 0.78125 0.328125q0.296875 0.3125 0.296875 0.75zm12.366394 -1.0625q-0.625 2.328125 -1.46875 4.46875q-0.84375 2.140625 -1.625 3.84375l-1.34375 0q-0.78125 -1.703125 -1.625 -3.84375q-0.84375 -2.140625 -1.46875 -4.46875l1.609375 0q0.1875 0.78125 0.453125 1.671875q0.265625 0.875 0.5625 1.75q0.296875 0.875 0.59375 1.6875q0.3125 0.8125 0.578125 1.453125q0.265625 -0.640625 0.5625 -1.453125q0.3125 -0.8125 0.609375 -1.6875q0.296875 -0.875 0.5625 -1.75q0.265625 -0.890625 0.453125 -1.671875l1.546875 0zm4.344513 7.234375q0.53125 0 0.9375 -0.015625q0.40625 -0.03125 0.6875 -0.09375l0 -2.46875q-0.171875 -0.09375 -0.53125 -0.140625q-0.359375 -0.0625 -0.875 -0.0625q-0.328125 0 -0.703125 0.046875q-0.375 0.046875 -0.6875 0.203125q-0.3125 0.15625 -0.53125 0.421875q-0.203125 0.265625 -0.203125 0.6875q0 0.796875 0.515625 1.109375q0.515625 0.3125 1.390625 0.3125zm-0.125 -7.453125q0.890625 0 1.5 0.234375q0.625 0.234375 1.0 0.65625q0.375 0.421875 0.53125 1.015625q0.171875 0.578125 0.171875 1.28125l0 5.203125q-0.203125 0.03125 -0.546875 0.09375q-0.34375 0.046875 -0.78125 0.09375q-0.421875 0.046875 -0.921875 0.078125q-0.5 0.046875 -1.0 0.046875q-0.703125 0 -1.296875 -0.140625q-0.59375 -0.140625 -1.03125 -0.453125q-0.421875 -0.3125 -0.671875 -0.828125q-0.234375 -0.515625 -0.234375 -1.234375q0 -0.6875 0.28125 -1.171875q0.28125 -0.5 0.75 -0.796875q0.484375 -0.3125 1.125 -0.453125q0.640625 -0.15625 1.34375 -0.15625q0.234375 0 0.46875 0.03125q0.234375 0.015625 0.453125 0.0625q0.21875 0.046875 0.375 0.078125q0.15625 0.03125 0.234375 0.046875l0 -0.421875q0 -0.359375 -0.09375 -0.71875q-0.078125 -0.375 -0.28125 -0.640625q-0.203125 -0.28125 -0.5625 -0.453125q-0.359375 -0.171875 -0.9375 -0.171875q-0.734375 0 -1.296875 0.109375q-0.546875 0.09375 -0.8125 0.21875l-0.1875 -1.234375q0.296875 -0.125 0.96875 -0.25q0.671875 -0.125 1.453125 -0.125zm8.16452 8.6875q-1.375 -0.03125 -1.953125 -0.578125q-0.578125 -0.5625 -0.578125 -1.75l0 -9.984375l1.484375 -0.265625l0 10.0q0 0.375 0.0625 0.625q0.0625 0.234375 0.203125 0.375q0.15625 0.140625 0.390625 0.21875q0.234375 0.0625 0.59375 0.109375l-0.203125 1.25zm8.493011 -0.390625q-0.515625 0.125 -1.359375 0.265625q-0.828125 0.140625 -1.9375 0.140625q-0.96875 0 -1.625 -0.28125q-0.640625 -0.28125 -1.046875 -0.78125q-0.40625 -0.515625 -0.578125 -1.203125q-0.171875 -0.703125 -0.171875 -1.546875l0 -4.671875l1.484375 0l0 4.34375q0 1.515625 0.46875 2.171875q0.484375 0.65625 1.625 0.65625q0.25 0 0.5 -0.015625q0.25 -0.015625 0.46875 -0.03125q0.234375 -0.03125 0.421875 -0.046875q0.1875 -0.03125 0.265625 -0.0625l0 -7.015625l1.484375 0l0 8.078125zm2.090271 -3.90625q0 -1.109375 0.3125 -1.921875q0.328125 -0.828125 0.859375 -1.375q0.53125 -0.546875 1.21875 -0.8125q0.6875 -0.28125 1.40625 -0.28125q1.671875 0 2.5625 1.046875q0.90625 1.046875 0.90625 3.203125q0 0.09375 0 0.25q0 0.140625 -0.015625 0.265625l-5.6875 0q0.09375 1.296875 0.75 1.96875q0.65625 0.671875 2.046875 0.671875q0.78125 0 1.3125 -0.125q0.546875 -0.140625 0.8125 -0.265625l0.203125 1.25q-0.265625 0.140625 -0.953125 0.296875q-0.671875 0.15625 -1.53125 0.15625q-1.09375 0 -1.890625 -0.328125q-0.78125 -0.328125 -1.296875 -0.890625q-0.515625 -0.578125 -0.765625 -1.375q-0.25 -0.796875 -0.25 -1.734375zm5.71875 -0.8125q0.015625 -1.015625 -0.515625 -1.65625q-0.515625 -0.65625 -1.421875 -0.65625q-0.515625 0 -0.90625 0.203125q-0.390625 0.203125 -0.671875 0.53125q-0.265625 0.3125 -0.421875 0.734375q-0.140625 0.40625 -0.1875 0.84375l4.125 0zm2.3502655 6.65625l8.0 0l0 1.25l-8.0 0l0 -1.25zm9.418884 -10.5q0.921875 -0.359375 1.78125 -0.90625q0.859375 -0.546875 1.578125 -1.390625l1.0625 0l0 11.09375l-1.484375 0l0 -9.03125q-0.203125 0.1875 -0.484375 0.375q-0.28125 0.1875 -0.609375 0.375q-0.3125 0.171875 -0.6875 0.328125q-0.359375 0.15625 -0.6875 0.265625l-0.46875 -1.109375z" fill-rule="nonzero"/><path fill="#000000" d="m136.78154 236.43329q0.5625 0 0.953125 0.078125q0.40625 0.078125 0.578125 0.140625l-0.203125 1.28125q-0.171875 -0.0625 -0.484375 -0.140625q-0.296875 -0.078125 -0.734375 -0.078125q-1.046875 0 -1.46875 0.578125q-0.40625 0.5625 -0.40625 1.515625l0 0.734375l3.203125 0l0 1.234375l-3.203125 0l0 7.078125l-1.484375 0l0 -9.078125q0 -1.59375 0.78125 -2.46875q0.78125 -0.875 2.46875 -0.875zm4.484375 12.421875l-1.5 0l0 -8.3125l1.5 0l0 8.3125zm-0.765625 -9.828125q-0.390625 0 -0.671875 -0.265625q-0.28125 -0.265625 -0.28125 -0.703125q0 -0.453125 0.28125 -0.71875q0.28125 -0.265625 0.671875 -0.265625q0.40625 0 0.6875 0.265625q0.28125 0.265625 0.28125 0.71875q0 0.4375 -0.28125 0.703125q-0.28125 0.265625 -0.6875 0.265625zm2.850525 5.6875q0 -1.109375 0.3125 -1.921875q0.328125 -0.828125 0.859375 -1.375q0.53125 -0.546875 1.21875 -0.8125q0.6875 -0.28125 1.40625 -0.28125q1.671875 0 2.5625 1.046875q0.90625 1.046875 0.90625 3.203125q0 0.09375 0 0.25q0 0.140625 -0.015625 0.265625l-5.6875 0q0.09375 1.296875 0.75 1.96875q0.65625 0.671875 2.046875 0.671875q0.78125 0 1.3125 -0.125q0.546875 -0.140625 0.8125 -0.265625l0.203125 1.25q-0.265625 0.140625 -0.953125 0.296875q-0.671875 0.15625 -1.53125 0.15625q-1.09375 0 -1.890625 -0.328125q-0.78125 -0.328125 -1.296875 -0.890625q-0.515625 -0.578125 -0.765625 -1.375q-0.25 -0.796875 -0.25 -1.734375zm5.71875 -0.8125q0.015625 -1.015625 -0.515625 -1.65625q-0.515625 -0.65625 -1.421875 -0.65625q-0.515625 0 -0.90625 0.203125q-0.390625 0.203125 -0.671875 0.53125q-0.265625 0.3125 -0.421875 0.734375q-0.140625 0.40625 -0.1875 0.84375l4.125 0zm6.1940155 5.109375q-1.375 -0.03125 -1.953125 -0.578125q-0.578125 -0.5625 -0.578125 -1.75l0 -9.984375l1.484375 -0.265625l0 10.0q0 0.375 0.0625 0.625q0.0625 0.234375 0.203125 0.375q0.15625 0.140625 0.390625 0.21875q0.234375 0.0625 0.59375 0.109375l-0.203125 1.25zm7.2430115 -6.71875q-0.265625 -0.21875 -0.78125 -0.421875q-0.515625 -0.21875 -1.125 -0.21875q-0.640625 0 -1.09375 0.234375q-0.453125 0.234375 -0.75 0.640625q-0.28125 0.40625 -0.40625 0.96875q-0.125 0.5625 -0.125 1.203125q0 1.453125 0.71875 2.25q0.71875 0.78125 1.921875 0.78125q0.59375 0 1.0 -0.046875q0.421875 -0.0625 0.640625 -0.125l0 -5.265625zm0 -5.59375l1.484375 -0.265625l0 12.1875q-0.515625 0.140625 -1.3125 0.28125q-0.796875 0.140625 -1.84375 0.140625q-0.953125 0 -1.71875 -0.296875q-0.765625 -0.3125 -1.3125 -0.859375q-0.546875 -0.5625 -0.84375 -1.375q-0.296875 -0.8125 -0.296875 -1.8125q0 -0.96875 0.25 -1.765625q0.25 -0.796875 0.71875 -1.375q0.484375 -0.578125 1.171875 -0.890625q0.703125 -0.328125 1.609375 -0.328125q0.71875 0 1.265625 0.203125q0.5625 0.1875 0.828125 0.359375l0 -4.203125zm2.7052765 13.859375l8.0 0l0 1.25l-8.0 0l0 -1.25zm9.215759 -9.78125q0.515625 -0.125 1.359375 -0.265625q0.84375 -0.15625 1.953125 -0.15625q0.984375 0 1.640625 0.28125q0.65625 0.28125 1.046875 0.796875q0.40625 0.5 0.5625 1.203125q0.15625 0.703125 0.15625 1.546875l0 4.671875l-1.484375 0l0 -4.359375q0 -0.765625 -0.109375 -1.296875q-0.109375 -0.546875 -0.34375 -0.875q-0.234375 -0.34375 -0.640625 -0.5q-0.390625 -0.15625 -0.984375 -0.15625q-0.25 0 -0.5 0.015625q-0.25 0.015625 -0.484375 0.046875q-0.234375 0.015625 -0.421875 0.046875q-0.1875 0.03125 -0.265625 0.046875l0 7.03125l-1.484375 0l0 -8.078125zm10.949646 7.21875q0 0.421875 -0.296875 0.75q-0.28125 0.3125 -0.78125 0.3125q-0.5 0 -0.796875 -0.3125q-0.28125 -0.328125 -0.28125 -0.75q0 -0.4375 0.28125 -0.75q0.296875 -0.328125 0.796875 -0.328125q0.5 0 0.78125 0.328125q0.296875 0.3125 0.296875 0.75zm0 -6.390625q0 0.421875 -0.296875 0.75q-0.28125 0.3125 -0.78125 0.3125q-0.5 0 -0.796875 -0.3125q-0.28125 -0.328125 -0.28125 -0.75q0 -0.4375 0.28125 -0.75q0.296875 -0.328125 0.796875 -0.328125q0.5 0 0.78125 0.328125q0.296875 0.3125 0.296875 0.75zm12.366394 -1.0625q-0.625 2.328125 -1.46875 4.46875q-0.84375 2.140625 -1.625 3.84375l-1.34375 0q-0.78125 -1.703125 -1.625 -3.84375q-0.84375 -2.140625 -1.46875 -4.46875l1.609375 0q0.1875 0.78125 0.453125 1.671875q0.265625 0.875 0.5625 1.75q0.296875 0.875 0.59375 1.6875q0.3125 0.8125 0.578125 1.453125q0.265625 -0.640625 0.5625 -1.453125q0.3125 -0.8125 0.609375 -1.6875q0.296875 -0.875 0.5625 -1.75q0.265625 -0.890625 0.453125 -1.671875l1.546875 0zm4.344513 7.234375q0.53125 0 0.9375 -0.015625q0.40625 -0.03125 0.6875 -0.09375l0 -2.46875q-0.171875 -0.09375 -0.53125 -0.140625q-0.359375 -0.0625 -0.875 -0.0625q-0.328125 0 -0.703125 0.046875q-0.375 0.046875 -0.6875 0.203125q-0.3125 0.15625 -0.53125 0.421875q-0.203125 0.265625 -0.203125 0.6875q0 0.796875 0.515625 1.109375q0.515625 0.3125 1.390625 0.3125zm-0.125 -7.453125q0.890625 0 1.5 0.234375q0.625 0.234375 1.0 0.65625q0.375 0.421875 0.53125 1.015625q0.171875 0.578125 0.171875 1.28125l0 5.203125q-0.203125 0.03125 -0.546875 0.09375q-0.34375 0.046875 -0.78125 0.09375q-0.421875 0.046875 -0.921875 0.078125q-0.5 0.046875 -1.0 0.046875q-0.703125 0 -1.296875 -0.140625q-0.59375 -0.140625 -1.03125 -0.453125q-0.421875 -0.3125 -0.671875 -0.828125q-0.234375 -0.515625 -0.234375 -1.234375q0 -0.6875 0.28125 -1.171875q0.28125 -0.5 0.75 -0.796875q0.484375 -0.3125 1.125 -0.453125q0.640625 -0.15625 1.34375 -0.15625q0.234375 0 0.46875 0.03125q0.234375 0.015625 0.453125 0.0625q0.21875 0.046875 0.375 0.078125q0.15625 0.03125 0.234375 0.046875l0 -0.421875q0 -0.359375 -0.09375 -0.71875q-0.078125 -0.375 -0.28125 -0.640625q-0.203125 -0.28125 -0.5625 -0.453125q-0.359375 -0.171875 -0.9375 -0.171875q-0.734375 0 -1.296875 0.109375q-0.546875 0.09375 -0.8125 0.21875l-0.1875 -1.234375q0.296875 -0.125 0.96875 -0.25q0.671875 -0.125 1.453125 -0.125zm8.16452 8.6875q-1.375 -0.03125 -1.953125 -0.578125q-0.578125 -0.5625 -0.578125 -1.75l0 -9.984375l1.484375 -0.265625l0 10.0q0 0.375 0.0625 0.625q0.0625 0.234375 0.203125 0.375q0.15625 0.140625 0.390625 0.21875q0.234375 0.0625 0.59375 0.109375l-0.203125 1.25zm8.493011 -0.390625q-0.515625 0.125 -1.359375 0.265625q-0.828125 0.140625 -1.9375 0.140625q-0.96875 0 -1.625 -0.28125q-0.640625 -0.28125 -1.046875 -0.78125q-0.40625 -0.515625 -0.578125 -1.203125q-0.171875 -0.703125 -0.171875 -1.546875l0 -4.671875l1.484375 0l0 4.34375q0 1.515625 0.46875 2.171875q0.484375 0.65625 1.625 0.65625q0.25 0 0.5 -0.015625q0.25 -0.015625 0.46875 -0.03125q0.234375 -0.03125 0.421875 -0.046875q0.1875 -0.03125 0.265625 -0.0625l0 -7.015625l1.484375 0l0 8.078125zm2.090271 -3.90625q0 -1.109375 0.3125 -1.921875q0.328125 -0.828125 0.859375 -1.375q0.53125 -0.546875 1.21875 -0.8125q0.6875 -0.28125 1.40625 -0.28125q1.671875 0 2.5625 1.046875q0.90625 1.046875 0.90625 3.203125q0 0.09375 0 0.25q0 0.140625 -0.015625 0.265625l-5.6875 0q0.09375 1.296875 0.75 1.96875q0.65625 0.671875 2.046875 0.671875q0.78125 0 1.3125 -0.125q0.546875 -0.140625 0.8125 -0.265625l0.203125 1.25q-0.265625 0.140625 -0.953125 0.296875q-0.671875 0.15625 -1.53125 0.15625q-1.09375 0 -1.890625 -0.328125q-0.78125 -0.328125 -1.296875 -0.890625q-0.515625 -0.578125 -0.765625 -1.375q-0.25 -0.796875 -0.25 -1.734375zm5.71875 -0.8125q0.015625 -1.015625 -0.515625 -1.65625q-0.515625 -0.65625 -1.421875 -0.65625q-0.515625 0 -0.90625 0.203125q-0.390625 0.203125 -0.671875 0.53125q-0.265625 0.3125 -0.421875 0.734375q-0.140625 0.40625 -0.1875 0.84375l4.125 0zm2.3502655 6.65625l8.0 0l0 1.25l-8.0 0l0 -1.25zm9.215759 -9.78125q0.515625 -0.125 1.359375 -0.265625q0.84375 -0.15625 1.953125 -0.15625q0.984375 0 1.640625 0.28125q0.65625 0.28125 1.046875 0.796875q0.40625 0.5 0.5625 1.203125q0.15625 0.703125 0.15625 1.546875l0 4.671875l-1.484375 0l0 -4.359375q0 -0.765625 -0.109375 -1.296875q-0.109375 -0.546875 -0.34375 -0.875q-0.234375 -0.34375 -0.640625 -0.5q-0.390625 -0.15625 -0.984375 -0.15625q-0.25 0 -0.5 0.015625q-0.25 0.015625 -0.484375 0.046875q-0.234375 0.015625 -0.421875 0.046875q-0.1875 0.03125 -0.265625 0.046875l0 7.03125l-1.484375 0l0 -8.078125z" fill-rule="nonzero"/><path fill="#d9ead3" d="m43.985565 296.47668l0 0c0 -8.048157 6.524315 -14.572479 14.572468 -14.572479l186.03616 0c3.8648682 0 7.5714264 1.5353088 10.304291 4.268158c2.7328644 2.7328796 4.268173 6.439453 4.268173 10.304321l0 58.288116c0 8.048157 -6.5243073 14.572479 -14.572464 14.572479l-186.03616 0l0 0c-8.048153 0 -14.572468 -6.5243225 -14.572468 -14.572479z" fill-rule="evenodd"/><path stroke="#434343" stroke-width="2.0" stroke-linejoin="round" stroke-linecap="butt" d="m43.985565 296.47668l0 0c0 -8.048157 6.524315 -14.572479 14.572468 -14.572479l186.03616 0c3.8648682 0 7.5714264 1.5353088 10.304291 4.268158c2.7328644 2.7328796 4.268173 6.439453 4.268173 10.304321l0 58.288116c0 8.048157 -6.5243073 14.572479 -14.572464 14.572479l-186.03616 0l0 0c-8.048153 0 -14.572468 -6.5243225 -14.572468 -14.572479z" fill-rule="evenodd"/><path fill="#000000" d="m58.58182 300.7642l2.25 -0.375l0 2.953125l3.4687462 0l0 1.875l-3.4687462 0l0 3.96875q0 1.1875 0.375 1.6875q0.375 0.5 1.265625 0.5q0.625 0 1.09375 -0.125q0.4843712 -0.140625 0.7656212 -0.25l0.359375 1.796875q-0.390625 0.171875 -1.0312462 0.34375q-0.625 0.171875 -1.484375 0.171875q-1.046875 0 -1.75 -0.265625q-0.6875 -0.28125 -1.109375 -0.8125q-0.40625 -0.546875 -0.578125 -1.296875q-0.15625 -0.75 -0.15625 -1.71875l0 -8.453125zm10.1889305 12.328125l-2.265625 0l0 -9.75l2.265625 0l0 9.75zm0.234375 -12.609375q0 0.625 -0.40625 1.0q-0.40625 0.375 -0.96875 0.375q-0.578125 0 -1.0 -0.375q-0.40625 -0.375 -0.40625 -1.0q0 -0.65625 0.40625 -1.03125q0.421875 -0.375 1.0 -0.375q0.5625 0 0.96875 0.375q0.40625 0.375 0.40625 1.03125zm8.195999 7.484375q0 -1.53125 -0.390625 -2.203125q-0.375 -0.6875 -1.421875 -0.6875q-0.375 0 -0.828125 0.0625q-0.4375 0.046875 -0.671875 0.078125l0 7.875l-2.25 0l0 -9.4375q0.65625 -0.1875 1.703125 -0.359375q1.0625 -0.171875 2.234375 -0.171875q1.0 0 1.640625 0.265625q0.65625 0.265625 1.078125 0.6875q0.203125 -0.140625 0.515625 -0.3125q0.328125 -0.171875 0.71875 -0.3125q0.390625 -0.140625 0.828125 -0.234375q0.4375 -0.09375 0.890625 -0.09375q1.140625 0 1.875 0.328125q0.734375 0.328125 1.15625 0.921875q0.421875 0.578125 0.578125 1.421875q0.15625 0.828125 0.15625 1.8125l0 5.484375l-2.25 0l0 -5.125q0 -1.53125 -0.375 -2.203125q-0.375 -0.6875 -1.4375 -0.6875q-0.546875 0 -1.03125 0.171875q-0.484375 0.171875 -0.71875 0.34375q0.140625 0.46875 0.1875 1.0q0.0625 0.515625 0.0625 1.109375l0 5.390625l-2.25 0l0 -5.125zm10.02829 0.296875q0 -1.296875 0.375 -2.265625q0.390625 -0.96875 1.015625 -1.609375q0.640625 -0.640625 1.46875 -0.96875q0.828125 -0.328125 1.671875 -0.328125q2.015625 0 3.140625 1.25q1.140625 1.25 1.140625 3.734375q0 0.1875 -0.015625 0.421875q0 0.234375 -0.03125 0.421875l-6.421875 0q0.09375 1.171875 0.828125 1.8125q0.734375 0.640625 2.125 0.640625q0.828125 0 1.5 -0.140625q0.6875 -0.15625 1.078125 -0.328125l0.296875 1.859375q-0.1875 0.078125 -0.515625 0.1875q-0.3125 0.109375 -0.734375 0.1875q-0.421875 0.078125 -0.90625 0.140625q-0.484375 0.0625 -1.0 0.0625q-1.28125 0 -2.234375 -0.375q-0.953125 -0.390625 -1.5625 -1.078125q-0.609375 -0.6875 -0.921875 -1.609375q-0.296875 -0.921875 -0.296875 -2.015625zm6.546875 -1.015625q0 -0.46875 -0.125 -0.875q-0.125 -0.421875 -0.390625 -0.734375q-0.25 -0.3125 -0.609375 -0.484375q-0.359375 -0.171875 -0.859375 -0.171875q-0.53125 0 -0.921875 0.203125q-0.390625 0.1875 -0.671875 0.5q-0.265625 0.3125 -0.421875 0.734375q-0.140625 0.40625 -0.1875 0.828125l4.1875 0zm10.215225 -1.875q-0.28125 -0.09375 -0.78125 -0.1875q-0.484375 -0.109375 -1.140625 -0.109375q-0.375 0 -0.796875 0.078125q-0.421875 0.0625 -0.59375 0.125l0 7.8125l-2.25 0l0 -9.296875q0.65625 -0.234375 1.625 -0.453125q0.984375 -0.21875 2.1875 -0.21875q0.21875 0 0.515625 0.03125q0.296875 0.03125 0.59375 0.078125q0.296875 0.046875 0.578125 0.109375q0.28125 0.0625 0.453125 0.125l-0.390625 1.90625zm4.393463 6.09375q0.90625 0 1.3125 -0.203125q0.40625 -0.21875 0.40625 -0.75q0 -0.484375 -0.4375 -0.796875q-0.4375 -0.3125 -1.4375 -0.6875q-0.625 -0.234375 -1.140625 -0.484375q-0.5 -0.25 -0.875 -0.578125q-0.375 -0.34375 -0.59375 -0.8125q-0.21875 -0.484375 -0.21875 -1.171875q0 -1.34375 0.984375 -2.109375q1.0 -0.78125 2.703125 -0.78125q0.84375 0 1.625 0.15625q0.796875 0.15625 1.1875 0.3125l-0.40625 1.828125q-0.375 -0.171875 -0.953125 -0.3125q-0.578125 -0.140625 -1.34375 -0.140625q-0.6875 0 -1.125 0.234375q-0.421875 0.234375 -0.421875 0.71875q0 0.25 0.078125 0.4375q0.078125 0.1875 0.28125 0.34375q0.21875 0.15625 0.546875 0.3125q0.34375 0.15625 0.828125 0.328125q0.796875 0.296875 1.359375 0.59375q0.5625 0.28125 0.921875 0.65625q0.359375 0.359375 0.53125 0.828125q0.171875 0.453125 0.171875 1.109375q0 1.40625 -1.046875 2.125q-1.03125 0.71875 -2.953125 0.71875q-1.28125 0 -2.078125 -0.21875q-0.78125 -0.21875 -1.09375 -0.34375l0.390625 -1.890625q0.5 0.203125 1.203125 0.390625q0.703125 0.1875 1.59375 0.1875zm9.685318 -4.828125q0.859375 0 1.25 -0.53125q0.40625 -0.53125 0.40625 -1.265625l0 -2.734375q0 -0.875 0.171875 -1.5625q0.171875 -0.6875 0.59375 -1.140625q0.4375 -0.453125 1.203125 -0.6875q0.765625 -0.234375 1.953125 -0.234375l0.140625 0l0 1.796875q-0.546875 0 -0.921875 0.078125q-0.375 0.0625 -0.59375 0.265625q-0.21875 0.1875 -0.328125 0.515625q-0.109375 0.328125 -0.109375 0.828125l0 2.671875q0 1.125 -0.296875 1.796875q-0.28125 0.65625 -0.96875 1.078125q0.6875 0.421875 0.96875 1.09375q0.296875 0.671875 0.296875 1.78125l0 2.6875q0 0.5 0.109375 0.8125q0.109375 0.328125 0.328125 0.515625q0.21875 0.203125 0.59375 0.265625q0.375 0.078125 0.921875 0.078125l0 1.796875q-1.25 0 -2.046875 -0.234375q-0.78125 -0.21875 -1.234375 -0.671875q-0.4375 -0.453125 -0.609375 -1.125q-0.171875 -0.671875 -0.171875 -1.578125l0 -2.75q0 -0.71875 -0.40625 -1.25q-0.390625 -0.53125 -1.25 -0.53125l0 -1.765625zm15.948654 1.765625q-0.859375 0 -1.265625 0.53125q-0.390625 0.53125 -0.390625 1.25l0 2.75q0 0.90625 -0.171875 1.578125q-0.15625 0.671875 -0.609375 1.125q-0.453125 0.453125 -1.234375 0.671875q-0.78125 0.234375 -2.03125 0.234375l0 -1.796875q1.078125 0 1.5 -0.34375q0.4375 -0.34375 0.4375 -1.328125l0 -2.6875q0 -1.109375 0.28125 -1.78125q0.296875 -0.671875 0.984375 -1.09375q-0.6875 -0.421875 -0.984375 -1.078125q-0.28125 -0.671875 -0.28125 -1.796875l0 -2.671875q0 -0.5 -0.109375 -0.828125q-0.09375 -0.328125 -0.328125 -0.515625q-0.21875 -0.203125 -0.59375 -0.265625q-0.359375 -0.078125 -0.90625 -0.078125l0 -1.796875l0.125 0q1.203125 0 1.96875 0.234375q0.765625 0.234375 1.1875 0.6875q0.4375 0.453125 0.59375 1.140625q0.171875 0.6875 0.171875 1.5625l0 2.734375q0 0.734375 0.390625 1.265625q0.40625 0.53125 1.265625 0.53125l0 1.765625z" fill-rule="nonzero"/><path fill="#000000" d="m161.03535 328.37607q0 0.984375 -0.296875 1.796875q-0.28125 0.796875 -0.796875 1.375q-0.515625 0.5625 -1.25 0.875q-0.71875 0.3125 -1.5625 0.3125q-0.84375 0 -1.5625 -0.3125q-0.71875 -0.3125 -1.25 -0.875q-0.515625 -0.578125 -0.8125 -1.375q-0.28125 -0.8125 -0.28125 -1.796875q0 -0.984375 0.28125 -1.78125q0.296875 -0.8125 0.8125 -1.390625q0.53125 -0.578125 1.25 -0.890625q0.71875 -0.3125 1.5625 -0.3125q0.84375 0 1.5625 0.3125q0.734375 0.3125 1.25 0.890625q0.515625 0.578125 0.796875 1.390625q0.296875 0.796875 0.296875 1.78125zm-1.546875 0q0 -1.40625 -0.640625 -2.234375q-0.625 -0.828125 -1.71875 -0.828125q-1.09375 0 -1.71875 0.828125q-0.625 0.828125 -0.625 2.234375q0 1.40625 0.625 2.234375q0.625 0.8125 1.71875 0.8125q1.09375 0 1.71875 -0.8125q0.640625 -0.828125 0.640625 -2.234375zm9.424393 0.015625q0 -1.453125 -0.734375 -2.234375q-0.71875 -0.796875 -1.90625 -0.796875q-0.671875 0 -1.0625 0.046875q-0.375 0.046875 -0.59375 0.109375l0 5.25q0.28125 0.234375 0.78125 0.4375q0.515625 0.203125 1.125 0.203125q0.640625 0 1.09375 -0.21875q0.453125 -0.234375 0.734375 -0.640625q0.296875 -0.421875 0.421875 -0.96875q0.140625 -0.546875 0.140625 -1.1875zm1.546875 0q0 0.9375 -0.25 1.75q-0.25 0.796875 -0.734375 1.375q-0.46875 0.5625 -1.171875 0.890625q-0.6875 0.3125 -1.59375 0.3125q-0.71875 0 -1.265625 -0.1875q-0.546875 -0.1875 -0.828125 -0.375l0 3.328125l-1.484375 0l0 -11.015625q0.53125 -0.125 1.3125 -0.28125q0.796875 -0.15625 1.84375 -0.15625q0.953125 0 1.71875 0.3125q0.765625 0.296875 1.3125 0.859375q0.546875 0.5625 0.84375 1.375q0.296875 0.796875 0.296875 1.8125zm0.7521515 5.84375l8.0 0l0 1.25l-8.0 0l0 -1.25zm9.418884 -10.5q0.921875 -0.359375 1.78125 -0.90625q0.859375 -0.546875 1.578125 -1.390625l1.0625 0l0 11.09375l-1.484375 0l0 -9.03125q-0.203125 0.1875 -0.484375 0.375q-0.28125 0.1875 -0.609375 0.375q-0.3125 0.171875 -0.6875 0.328125q-0.359375 0.15625 -0.6875 0.265625l-0.46875 -1.109375zm10.586517 7.9375q0 0.421875 -0.296875 0.75q-0.28125 0.3125 -0.78125 0.3125q-0.5 0 -0.796875 -0.3125q-0.28125 -0.328125 -0.28125 -0.75q0 -0.4375 0.28125 -0.75q0.296875 -0.328125 0.796875 -0.328125q0.5 0 0.78125 0.328125q0.296875 0.3125 0.296875 0.75zm0 -6.390625q0 0.421875 -0.296875 0.75q-0.28125 0.3125 -0.78125 0.3125q-0.5 0 -0.796875 -0.3125q-0.28125 -0.328125 -0.28125 -0.75q0 -0.4375 0.28125 -0.75q0.296875 -0.328125 0.796875 -0.328125q0.5 0 0.78125 0.328125q0.296875 0.3125 0.296875 0.75zm7.257019 -1.0625l3.15625 0l0 1.234375l-3.15625 0l0 3.84375q0 0.625 0.09375 1.03125q0.09375 0.40625 0.28125 0.640625q0.203125 0.234375 0.484375 0.328125q0.296875 0.09375 0.671875 0.09375q0.671875 0 1.078125 -0.140625q0.421875 -0.15625 0.578125 -0.21875l0.28125 1.234375q-0.21875 0.109375 -0.78125 0.265625q-0.5625 0.171875 -1.28125 0.171875q-0.84375 0 -1.40625 -0.203125q-0.546875 -0.21875 -0.890625 -0.65625q-0.328125 -0.4375 -0.46875 -1.0625q-0.125 -0.640625 -0.125 -1.46875l0 -7.421875l1.484375 -0.25l0 2.578125zm6.525757 8.3125l-1.484375 0l0 -8.3125l1.484375 0l0 8.3125zm-0.75 -9.828125q-0.40625 0 -0.6875 -0.265625q-0.265625 -0.265625 -0.265625 -0.703125q0 -0.453125 0.265625 -0.71875q0.28125 -0.265625 0.6875 -0.265625q0.40625 0 0.671875 0.265625q0.28125 0.265625 0.28125 0.71875q0 0.4375 -0.28125 0.703125q-0.265625 0.265625 -0.671875 0.265625zm3.3136292 1.75q0.515625 -0.125 1.34375 -0.265625q0.84375 -0.15625 1.953125 -0.15625q0.796875 0 1.34375 0.21875q0.546875 0.21875 0.90625 0.640625q0.109375 -0.09375 0.34375 -0.234375q0.25 -0.140625 0.59375 -0.265625q0.359375 -0.140625 0.78125 -0.25q0.4375 -0.109375 0.9375 -0.109375q0.96875 0 1.5625 0.28125q0.609375 0.28125 0.953125 0.796875q0.359375 0.515625 0.46875 1.21875q0.125 0.703125 0.125 1.53125l0 4.671875l-1.484375 0l0 -4.359375q0 -0.734375 -0.078125 -1.25q-0.078125 -0.53125 -0.28125 -0.875q-0.1875 -0.359375 -0.53125 -0.53125q-0.34375 -0.171875 -0.890625 -0.171875q-0.75 0 -1.25 0.203125q-0.484375 0.203125 -0.65625 0.359375q0.125 0.421875 0.1875 0.921875q0.078125 0.484375 0.078125 1.03125l0 4.671875l-1.5 0l0 -4.359375q0 -0.734375 -0.078125 -1.25q-0.078125 -0.53125 -0.28125 -0.875q-0.203125 -0.359375 -0.546875 -0.53125q-0.34375 -0.171875 -0.859375 -0.171875q-0.234375 0 -0.484375 0.015625q-0.25 0.015625 -0.484375 0.046875q-0.234375 0.015625 -0.4375 0.046875q-0.1875 0.03125 -0.25 0.046875l0 7.03125l-1.484375 0l0 -8.078125zm13.3072815 3.9375q0 -1.109375 0.3125 -1.921875q0.328125 -0.828125 0.859375 -1.375q0.53125 -0.546875 1.21875 -0.8125q0.6875 -0.28125 1.40625 -0.28125q1.671875 0 2.5625 1.046875q0.90625 1.046875 0.90625 3.203125q0 0.09375 0 0.25q0 0.140625 -0.015625 0.265625l-5.6875 0q0.09375 1.296875 0.75 1.96875q0.65625 0.671875 2.046875 0.671875q0.78125 0 1.3125 -0.125q0.546875 -0.140625 0.8125 -0.265625l0.203125 1.25q-0.265625 0.140625 -0.953125 0.296875q-0.671875 0.15625 -1.53125 0.15625q-1.09375 0 -1.890625 -0.328125q-0.78125 -0.328125 -1.296875 -0.890625q-0.515625 -0.578125 -0.765625 -1.375q-0.25 -0.796875 -0.25 -1.734375zm5.71875 -0.8125q0.015625 -1.015625 -0.515625 -1.65625q-0.515625 -0.65625 -1.421875 -0.65625q-0.515625 0 -0.90625 0.203125q-0.390625 0.203125 -0.671875 0.53125q-0.265625 0.3125 -0.421875 0.734375q-0.140625 0.40625 -0.1875 0.84375l4.125 0zm2.3502655 6.65625l8.0 0l0 1.25l-8.0 0l0 -1.25zm9.418884 -10.5q0.921875 -0.359375 1.78125 -0.90625q0.859375 -0.546875 1.578125 -1.390625l1.0625 0l0 11.09375l-1.484375 0l0 -9.03125q-0.203125 0.1875 -0.484375 0.375q-0.28125 0.1875 -0.609375 0.375q-0.3125 0.171875 -0.6875 0.328125q-0.359375 0.15625 -0.6875 0.265625l-0.46875 -1.109375z" fill-rule="nonzero"/><path fill="#000000" d="m160.71535 347.37607q0 0.984375 -0.296875 1.796875q-0.28125 0.796875 -0.796875 1.375q-0.515625 0.5625 -1.25 0.875q-0.71875 0.3125 -1.5625 0.3125q-0.84375 0 -1.5625 -0.3125q-0.71875 -0.3125 -1.25 -0.875q-0.515625 -0.578125 -0.8125 -1.375q-0.28125 -0.8125 -0.28125 -1.796875q0 -0.984375 0.28125 -1.78125q0.296875 -0.8125 0.8125 -1.390625q0.53125 -0.578125 1.25 -0.890625q0.71875 -0.3125 1.5625 -0.3125q0.84375 0 1.5625 0.3125q0.734375 0.3125 1.25 0.890625q0.515625 0.578125 0.796875 1.390625q0.296875 0.796875 0.296875 1.78125zm-1.546875 0q0 -1.40625 -0.640625 -2.234375q-0.625 -0.828125 -1.71875 -0.828125q-1.09375 0 -1.71875 0.828125q-0.625 0.828125 -0.625 2.234375q0 1.40625 0.625 2.234375q0.625 0.8125 1.71875 0.8125q1.09375 0 1.71875 -0.8125q0.640625 -0.828125 0.640625 -2.234375zm9.424393 0.015625q0 -1.453125 -0.734375 -2.234375q-0.71875 -0.796875 -1.90625 -0.796875q-0.671875 0 -1.0625 0.046875q-0.375 0.046875 -0.59375 0.109375l0 5.25q0.28125 0.234375 0.78125 0.4375q0.515625 0.203125 1.125 0.203125q0.640625 0 1.09375 -0.21875q0.453125 -0.234375 0.734375 -0.640625q0.296875 -0.421875 0.421875 -0.96875q0.140625 -0.546875 0.140625 -1.1875zm1.546875 0q0 0.9375 -0.25 1.75q-0.25 0.796875 -0.734375 1.375q-0.46875 0.5625 -1.171875 0.890625q-0.6875 0.3125 -1.59375 0.3125q-0.71875 0 -1.265625 -0.1875q-0.546875 -0.1875 -0.828125 -0.375l0 3.328125l-1.484375 0l0 -11.015625q0.53125 -0.125 1.3125 -0.28125q0.796875 -0.15625 1.84375 -0.15625q0.953125 0 1.71875 0.3125q0.765625 0.296875 1.3125 0.859375q0.546875 0.5625 0.84375 1.375q0.296875 0.796875 0.296875 1.8125zm0.7521515 5.84375l8.0 0l0 1.25l-8.0 0l0 -1.25zm9.215759 -9.78125q0.515625 -0.125 1.359375 -0.265625q0.84375 -0.15625 1.953125 -0.15625q0.984375 0 1.640625 0.28125q0.65625 0.28125 1.046875 0.796875q0.40625 0.5 0.5625 1.203125q0.15625 0.703125 0.15625 1.546875l0 4.671875l-1.484375 0l0 -4.359375q0 -0.765625 -0.109375 -1.296875q-0.109375 -0.546875 -0.34375 -0.875q-0.234375 -0.34375 -0.640625 -0.5q-0.390625 -0.15625 -0.984375 -0.15625q-0.25 0 -0.5 0.015625q-0.25 0.015625 -0.484375 0.046875q-0.234375 0.015625 -0.421875 0.046875q-0.1875 0.03125 -0.265625 0.046875l0 7.03125l-1.484375 0l0 -8.078125zm10.949646 7.21875q0 0.421875 -0.296875 0.75q-0.28125 0.3125 -0.78125 0.3125q-0.5 0 -0.796875 -0.3125q-0.28125 -0.328125 -0.28125 -0.75q0 -0.4375 0.28125 -0.75q0.296875 -0.328125 0.796875 -0.328125q0.5 0 0.78125 0.328125q0.296875 0.3125 0.296875 0.75zm0 -6.390625q0 0.421875 -0.296875 0.75q-0.28125 0.3125 -0.78125 0.3125q-0.5 0 -0.796875 -0.3125q-0.28125 -0.328125 -0.28125 -0.75q0 -0.4375 0.28125 -0.75q0.296875 -0.328125 0.796875 -0.328125q0.5 0 0.78125 0.328125q0.296875 0.3125 0.296875 0.75zm7.257019 -1.0625l3.15625 0l0 1.234375l-3.15625 0l0 3.84375q0 0.625 0.09375 1.03125q0.09375 0.40625 0.28125 0.640625q0.203125 0.234375 0.484375 0.328125q0.296875 0.09375 0.671875 0.09375q0.671875 0 1.078125 -0.140625q0.421875 -0.15625 0.578125 -0.21875l0.28125 1.234375q-0.21875 0.109375 -0.78125 0.265625q-0.5625 0.171875 -1.28125 0.171875q-0.84375 0 -1.40625 -0.203125q-0.546875 -0.21875 -0.890625 -0.65625q-0.328125 -0.4375 -0.46875 -1.0625q-0.125 -0.640625 -0.125 -1.46875l0 -7.421875l1.484375 -0.25l0 2.578125zm6.525757 8.3125l-1.484375 0l0 -8.3125l1.484375 0l0 8.3125zm-0.75 -9.828125q-0.40625 0 -0.6875 -0.265625q-0.265625 -0.265625 -0.265625 -0.703125q0 -0.453125 0.265625 -0.71875q0.28125 -0.265625 0.6875 -0.265625q0.40625 0 0.671875 0.265625q0.28125 0.265625 0.28125 0.71875q0 0.4375 -0.28125 0.703125q-0.265625 0.265625 -0.671875 0.265625zm3.3136292 1.75q0.515625 -0.125 1.34375 -0.265625q0.84375 -0.15625 1.953125 -0.15625q0.796875 0 1.34375 0.21875q0.546875 0.21875 0.90625 0.640625q0.109375 -0.09375 0.34375 -0.234375q0.25 -0.140625 0.59375 -0.265625q0.359375 -0.140625 0.78125 -0.25q0.4375 -0.109375 0.9375 -0.109375q0.96875 0 1.5625 0.28125q0.609375 0.28125 0.953125 0.796875q0.359375 0.515625 0.46875 1.21875q0.125 0.703125 0.125 1.53125l0 4.671875l-1.484375 0l0 -4.359375q0 -0.734375 -0.078125 -1.25q-0.078125 -0.53125 -0.28125 -0.875q-0.1875 -0.359375 -0.53125 -0.53125q-0.34375 -0.171875 -0.890625 -0.171875q-0.75 0 -1.25 0.203125q-0.484375 0.203125 -0.65625 0.359375q0.125 0.421875 0.1875 0.921875q0.078125 0.484375 0.078125 1.03125l0 4.671875l-1.5 0l0 -4.359375q0 -0.734375 -0.078125 -1.25q-0.078125 -0.53125 -0.28125 -0.875q-0.203125 -0.359375 -0.546875 -0.53125q-0.34375 -0.171875 -0.859375 -0.171875q-0.234375 0 -0.484375 0.015625q-0.25 0.015625 -0.484375 0.046875q-0.234375 0.015625 -0.4375 0.046875q-0.1875 0.03125 -0.25 0.046875l0 7.03125l-1.484375 0l0 -8.078125zm13.3072815 3.9375q0 -1.109375 0.3125 -1.921875q0.328125 -0.828125 0.859375 -1.375q0.53125 -0.546875 1.21875 -0.8125q0.6875 -0.28125 1.40625 -0.28125q1.671875 0 2.5625 1.046875q0.90625 1.046875 0.90625 3.203125q0 0.09375 0 0.25q0 0.140625 -0.015625 0.265625l-5.6875 0q0.09375 1.296875 0.75 1.96875q0.65625 0.671875 2.046875 0.671875q0.78125 0 1.3125 -0.125q0.546875 -0.140625 0.8125 -0.265625l0.203125 1.25q-0.265625 0.140625 -0.953125 0.296875q-0.671875 0.15625 -1.53125 0.15625q-1.09375 0 -1.890625 -0.328125q-0.78125 -0.328125 -1.296875 -0.890625q-0.515625 -0.578125 -0.765625 -1.375q-0.25 -0.796875 -0.25 -1.734375zm5.71875 -0.8125q0.015625 -1.015625 -0.515625 -1.65625q-0.515625 -0.65625 -1.421875 -0.65625q-0.515625 0 -0.90625 0.203125q-0.390625 0.203125 -0.671875 0.53125q-0.265625 0.3125 -0.421875 0.734375q-0.140625 0.40625 -0.1875 0.84375l4.125 0zm2.3502655 6.65625l8.0 0l0 1.25l-8.0 0l0 -1.25zm9.215759 -9.78125q0.515625 -0.125 1.359375 -0.265625q0.84375 -0.15625 1.953125 -0.15625q0.984375 0 1.640625 0.28125q0.65625 0.28125 1.046875 0.796875q0.40625 0.5 0.5625 1.203125q0.15625 0.703125 0.15625 1.546875l0 4.671875l-1.484375 0l0 -4.359375q0 -0.765625 -0.109375 -1.296875q-0.109375 -0.546875 -0.34375 -0.875q-0.234375 -0.34375 -0.640625 -0.5q-0.390625 -0.15625 -0.984375 -0.15625q-0.25 0 -0.5 0.015625q-0.25 0.015625 -0.484375 0.046875q-0.234375 0.015625 -0.421875 0.046875q-0.1875 0.03125 -0.265625 0.046875l0 7.03125l-1.484375 0l0 -8.078125z" fill-rule="nonzero"/><path fill="#65aaff" d="m276.93045 193.7995l0 0c0 -8.0481415 6.5243225 -14.572464 14.572479 -14.572464l198.3511 0c3.8648682 0 7.5714417 1.5353088 10.304291 4.268173c2.7328796 2.7328644 4.2681885 6.439438 4.2681885 10.304291l0 58.28813c0 8.048172 -6.5243225 14.572464 -14.572479 14.572464l-198.3511 0l0 0c-8.048157 0 -14.572479 -6.524292 -14.572479 -14.572464z" fill-rule="evenodd"/><path stroke="#434343" stroke-width="2.0" stroke-linejoin="round" stroke-linecap="butt" d="m276.93045 193.7995l0 0c0 -8.0481415 6.5243225 -14.572464 14.572479 -14.572464l198.3511 0c3.8648682 0 7.5714417 1.5353088 10.304291 4.268173c2.7328796 2.7328644 4.2681885 6.439438 4.2681885 10.304291l0 58.28813c0 8.048172 -6.5243225 14.572464 -14.572479 14.572464l-198.3511 0l0 0c-8.048157 0 -14.572479 -6.524292 -14.572479 -14.572464z" fill-rule="evenodd"/><path fill="#000000" d="m298.10483 205.58704q0 -1.515625 -0.6875 -2.34375q-0.671875 -0.84375 -2.1875 -0.84375q-0.3125 0 -0.65625 0.03125q-0.34375 0.015625 -0.6875 0.109375l0 5.578125q0.3125 0.203125 0.796875 0.390625q0.5 0.171875 1.0625 0.171875q1.21875 0 1.78125 -0.84375q0.578125 -0.84375 0.578125 -2.25zm2.3125 -0.046875q0 1.125 -0.296875 2.0625q-0.28125 0.921875 -0.828125 1.59375q-0.53125 0.671875 -1.34375 1.046875q-0.8125 0.375 -1.84375 0.375q-0.6875 0 -1.265625 -0.171875q-0.578125 -0.15625 -0.953125 -0.359375l0 3.78125l-2.25 0l0 -12.890625q0.6875 -0.1875 1.6875 -0.359375q1.015625 -0.171875 2.140625 -0.171875q1.15625 0 2.0625 0.359375q0.921875 0.359375 1.5625 1.03125q0.640625 0.65625 0.984375 1.59375q0.34375 0.9375 0.34375 2.109375zm5.77536 3.296875q1.03125 0 1.578125 -0.125l0 -2.5q-0.1875 -0.046875 -0.546875 -0.09375q-0.34375 -0.0625 -0.78125 -0.0625q-0.375 0 -0.75 0.0625q-0.375 0.046875 -0.6875 0.203125q-0.3125 0.140625 -0.5 0.40625q-0.1875 0.265625 -0.1875 0.6875q0 0.796875 0.5 1.109375q0.515625 0.3125 1.375 0.3125zm-0.1875 -8.421875q1.109375 0 1.875 0.28125q0.765625 0.28125 1.21875 0.78125q0.46875 0.5 0.65625 1.21875q0.203125 0.71875 0.203125 1.578125l0 5.921875q-0.53125 0.109375 -1.59375 0.265625q-1.046875 0.15625 -2.359375 0.15625q-0.875 0 -1.609375 -0.171875q-0.734375 -0.15625 -1.25 -0.53125q-0.5 -0.375 -0.796875 -0.96875q-0.28125 -0.609375 -0.28125 -1.484375q0 -0.828125 0.328125 -1.40625q0.328125 -0.578125 0.875 -0.9375q0.5625 -0.375 1.296875 -0.53125q0.75 -0.15625 1.546875 -0.15625q0.375 0 0.78125 0.046875q0.40625 0.046875 0.875 0.15625l0 -0.375q0 -0.390625 -0.09375 -0.734375q-0.09375 -0.359375 -0.328125 -0.625q-0.234375 -0.28125 -0.625 -0.421875q-0.375 -0.15625 -0.953125 -0.15625q-0.78125 0 -1.4375 0.109375q-0.640625 0.109375 -1.0625 0.265625l-0.28125 -1.828125q0.4375 -0.15625 1.25 -0.296875q0.828125 -0.15625 1.765625 -0.15625zm14.438538 0.25q-1.515625 5.546875 -3.515625 10.0625q-0.375 0.84375 -0.765625 1.4375q-0.390625 0.59375 -0.875 0.984375q-0.484375 0.40625 -1.078125 0.578125q-0.59375 0.171875 -1.375 0.171875q-0.53125 0 -1.046875 -0.109375q-0.5 -0.109375 -0.765625 -0.234375l0.40625 -1.8125q0.671875 0.25 1.328125 0.25q0.875 0 1.359375 -0.421875q0.5 -0.40625 0.875 -1.28125q-1.0625 -2.0625 -2.046875 -4.484375q-0.96875 -2.421875 -1.734375 -5.140625l2.40625 0q0.1875 0.78125 0.453125 1.703125q0.265625 0.90625 0.578125 1.84375q0.328125 0.9375 0.671875 1.875q0.359375 0.9375 0.71875 1.734375q0.59375 -1.65625 1.109375 -3.53125q0.53125 -1.875 0.96875 -3.625l2.328125 0zm5.1044617 9.9375q-1.0 -0.015625 -1.671875 -0.21875q-0.65625 -0.21875 -1.046875 -0.59375q-0.390625 -0.375 -0.546875 -0.9375q-0.15625 -0.578125 -0.15625 -1.3125l0 -11.234375l2.25 -0.375l0 11.1875q0 0.40625 0.0625 0.6875q0.0625 0.28125 0.234375 0.484375q0.171875 0.1875 0.453125 0.296875q0.296875 0.09375 0.75 0.15625l-0.328125 1.859375zm10.978424 -5.078125q0 1.15625 -0.34375 2.109375q-0.328125 0.953125 -0.953125 1.625q-0.609375 0.671875 -1.484375 1.046875q-0.859375 0.375 -1.90625 0.375q-1.046875 0 -1.90625 -0.375q-0.859375 -0.375 -1.484375 -1.046875q-0.609375 -0.671875 -0.953125 -1.625q-0.34375 -0.953125 -0.34375 -2.109375q0 -1.15625 0.34375 -2.09375q0.34375 -0.9375 0.96875 -1.609375q0.625 -0.671875 1.484375 -1.03125q0.859375 -0.375 1.890625 -0.375q1.03125 0 1.890625 0.375q0.875 0.359375 1.484375 1.03125q0.625 0.671875 0.96875 1.609375q0.34375 0.9375 0.34375 2.09375zm-2.3125 0q0 -1.453125 -0.625 -2.296875q-0.625 -0.859375 -1.75 -0.859375q-1.125 0 -1.75 0.859375q-0.625 0.84375 -0.625 2.296875q0 1.46875 0.625 2.328125q0.625 0.859375 1.75 0.859375q1.125 0 1.75 -0.859375q0.625 -0.859375 0.625 -2.328125zm8.078308 3.3125q1.03125 0 1.578125 -0.125l0 -2.5q-0.1875 -0.046875 -0.546875 -0.09375q-0.34375 -0.0625 -0.78125 -0.0625q-0.375 0 -0.75 0.0625q-0.375 0.046875 -0.6875 0.203125q-0.3125 0.140625 -0.5 0.40625q-0.1875 0.265625 -0.1875 0.6875q0 0.796875 0.5 1.109375q0.515625 0.3125 1.375 0.3125zm-0.1875 -8.421875q1.109375 0 1.875 0.28125q0.765625 0.28125 1.21875 0.78125q0.46875 0.5 0.65625 1.21875q0.203125 0.71875 0.203125 1.578125l0 5.921875q-0.53125 0.109375 -1.59375 0.265625q-1.046875 0.15625 -2.359375 0.15625q-0.875 0 -1.609375 -0.171875q-0.734375 -0.15625 -1.25 -0.53125q-0.5 -0.375 -0.796875 -0.96875q-0.28125 -0.609375 -0.28125 -1.484375q0 -0.828125 0.328125 -1.40625q0.328125 -0.578125 0.875 -0.9375q0.5625 -0.375 1.296875 -0.53125q0.75 -0.15625 1.546875 -0.15625q0.375 0 0.78125 0.046875q0.40625 0.046875 0.875 0.15625l0 -0.375q0 -0.390625 -0.09375 -0.734375q-0.09375 -0.359375 -0.328125 -0.625q-0.234375 -0.28125 -0.625 -0.421875q-0.375 -0.15625 -0.953125 -0.15625q-0.78125 0 -1.4375 0.109375q-0.640625 0.109375 -1.0625 0.265625l-0.28125 -1.828125q0.4375 -0.15625 1.25 -0.296875q0.828125 -0.15625 1.765625 -0.15625zm8.478058 5.09375q0 1.484375 0.703125 2.34375q0.71875 0.84375 1.96875 0.84375q0.546875 0 0.921875 -0.046875q0.390625 -0.046875 0.625 -0.09375l0 -5.609375q-0.296875 -0.203125 -0.796875 -0.375q-0.484375 -0.171875 -1.046875 -0.171875q-1.234375 0 -1.8125 0.84375q-0.5625 0.828125 -0.5625 2.265625zm6.484375 4.609375q-0.671875 0.203125 -1.6875 0.375q-1.015625 0.171875 -2.140625 0.171875q-1.15625 0 -2.078125 -0.359375q-0.90625 -0.359375 -1.5625 -1.015625q-0.640625 -0.671875 -0.984375 -1.609375q-0.34375 -0.9375 -0.34375 -2.109375q0 -1.15625 0.28125 -2.09375q0.296875 -0.953125 0.859375 -1.625q0.5625 -0.671875 1.359375 -1.03125q0.8125 -0.375 1.859375 -0.375q0.703125 0 1.234375 0.171875q0.546875 0.171875 0.9375 0.375l0 -4.6875l2.265625 -0.375l0 14.1875zm7.512909 -14.3125l4.625 0l0 1.796875l-2.5 0l0 14.46875l2.5 0l0 1.796875l-4.625 0l0 -18.0625zm14.741852 1.6875l0 2.03125l-3.984375 0l0 10.890625l-2.359375 0l0 -10.890625l-3.96875 0l0 -2.03125l10.3125 0zm0.23947144 14.484375l9.328125 0l0 1.890625l-9.328125 0l0 -1.890625zm13.046875 -1.5625l-2.265625 0l0 -9.75l2.265625 0l0 9.75zm0.234375 -12.609375q0 0.625 -0.40625 1.0q-0.40625 0.375 -0.96875 0.375q-0.578125 0 -1.0 -0.375q-0.40625 -0.375 -0.40625 -1.0q0 -0.65625 0.40625 -1.03125q0.421875 -0.375 1.0 -0.375q0.5625 0 0.96875 0.375q0.40625 0.375 0.40625 1.03125zm2.633484 3.171875q0.65625 -0.1875 1.6875 -0.359375q1.046875 -0.171875 2.328125 -0.171875q1.1875 0 1.984375 0.328125q0.8125 0.328125 1.28125 0.921875q0.484375 0.578125 0.671875 1.421875q0.203125 0.828125 0.203125 1.8125l0 5.484375l-2.265625 0l0 -5.125q0 -0.78125 -0.109375 -1.328125q-0.09375 -0.5625 -0.328125 -0.90625q-0.234375 -0.34375 -0.640625 -0.5q-0.390625 -0.15625 -0.96875 -0.15625q-0.4375 0 -0.90625 0.0625q-0.453125 0.046875 -0.6875 0.078125l0 7.875l-2.25 0l0 -9.4375zm17.38266 4.609375q0 -1.515625 -0.6875 -2.34375q-0.671875 -0.84375 -2.1875 -0.84375q-0.3125 0 -0.65625 0.03125q-0.34375 0.015625 -0.6875 0.109375l0 5.578125q0.3125 0.203125 0.796875 0.390625q0.5 0.171875 1.0625 0.171875q1.21875 0 1.78125 -0.84375q0.578125 -0.84375 0.578125 -2.25zm2.3125 -0.046875q0 1.125 -0.296875 2.0625q-0.28125 0.921875 -0.828125 1.59375q-0.53125 0.671875 -1.34375 1.046875q-0.8125 0.375 -1.84375 0.375q-0.6875 0 -1.265625 -0.171875q-0.578125 -0.15625 -0.953125 -0.359375l0 3.78125l-2.25 0l0 -12.890625q0.6875 -0.1875 1.6875 -0.359375q1.015625 -0.171875 2.140625 -0.171875q1.15625 0 2.0625 0.359375q0.921875 0.359375 1.5625 1.03125q0.640625 0.65625 0.984375 1.59375q0.34375 0.9375 0.34375 2.109375zm10.337891 4.578125q-0.65625 0.171875 -1.703125 0.34375q-1.03125 0.171875 -2.28125 0.171875q-1.1875 0 -1.984375 -0.328125q-0.78125 -0.34375 -1.265625 -0.9375q-0.46875 -0.59375 -0.671875 -1.421875q-0.203125 -0.828125 -0.203125 -1.828125l0 -5.453125l2.25 0l0 5.109375q0 1.5625 0.453125 2.234375q0.46875 0.671875 1.609375 0.671875q0.40625 0 0.859375 -0.03125q0.453125 -0.046875 0.6875 -0.09375l0 -7.890625l2.25 0l0 9.453125zm2.767212 -12.03125l2.25 -0.375l0 2.953125l3.46875 0l0 1.875l-3.46875 0l0 3.96875q0 1.1875 0.375 1.6875q0.375 0.5 1.265625 0.5q0.625 0 1.09375 -0.125q0.484375 -0.140625 0.765625 -0.25l0.359375 1.796875q-0.390625 0.171875 -1.03125 0.34375q-0.625 0.171875 -1.484375 0.171875q-1.046875 0 -1.75 -0.265625q-0.6875 -0.28125 -1.109375 -0.8125q-0.40625 -0.546875 -0.578125 -1.296875q-0.15625 -0.75 -0.15625 -1.71875l0 -8.453125zm6.1159363 15.78125l0 -1.796875l2.484375 0l0 -14.46875l-2.484375 0l0 -1.796875l4.625 0l0 18.0625l-4.625 0z" fill-rule="nonzero"/><path fill="#000000" d="m402.43842 242.29266q-0.265625 -0.21875 -0.78125 -0.421875q-0.515625 -0.21875 -1.125 -0.21875q-0.640625 0 -1.09375 0.234375q-0.453125 0.234375 -0.75 0.640625q-0.28125 0.40625 -0.40625 0.96875q-0.125 0.5625 -0.125 1.203125q0 1.453125 0.71875 2.25q0.71875 0.78125 1.921875 0.78125q0.59375 0 1.0 -0.046875q0.421875 -0.0625 0.640625 -0.125l0 -5.265625zm0 -5.59375l1.484375 -0.265625l0 12.1875q-0.515625 0.140625 -1.3125 0.28125q-0.796875 0.140625 -1.84375 0.140625q-0.953125 0 -1.71875 -0.296875q-0.765625 -0.3125 -1.3125 -0.859375q-0.546875 -0.5625 -0.84375 -1.375q-0.296875 -0.8125 -0.296875 -1.8125q0 -0.96875 0.25 -1.765625q0.25 -0.796875 0.71875 -1.375q0.484375 -0.578125 1.171875 -0.890625q0.703125 -0.328125 1.609375 -0.328125q0.71875 0 1.265625 0.203125q0.5625 0.1875 0.828125 0.359375l0 -4.203125zm6.8615417 11.078125q0.53125 0 0.9375 -0.015625q0.40625 -0.03125 0.6875 -0.09375l0 -2.46875q-0.171875 -0.09375 -0.53125 -0.140625q-0.359375 -0.0625 -0.875 -0.0625q-0.328125 0 -0.703125 0.046875q-0.375 0.046875 -0.6875 0.203125q-0.3125 0.15625 -0.53125 0.421875q-0.203125 0.265625 -0.203125 0.6875q0 0.796875 0.515625 1.109375q0.515625 0.3125 1.390625 0.3125zm-0.125 -7.453125q0.890625 0 1.5 0.234375q0.625 0.234375 1.0 0.65625q0.375 0.421875 0.53125 1.015625q0.171875 0.578125 0.171875 1.28125l0 5.203125q-0.203125 0.03125 -0.546875 0.09375q-0.34375 0.046875 -0.78125 0.09375q-0.421875 0.046875 -0.921875 0.078125q-0.5 0.046875 -1.0 0.046875q-0.703125 0 -1.296875 -0.140625q-0.59375 -0.140625 -1.03125 -0.453125q-0.421875 -0.3125 -0.671875 -0.828125q-0.234375 -0.515625 -0.234375 -1.234375q0 -0.6875 0.28125 -1.171875q0.28125 -0.5 0.75 -0.796875q0.484375 -0.3125 1.125 -0.453125q0.640625 -0.15625 1.34375 -0.15625q0.234375 0 0.46875 0.03125q0.234375 0.015625 0.453125 0.0625q0.21875 0.046875 0.375 0.078125q0.15625 0.03125 0.234375 0.046875l0 -0.421875q0 -0.359375 -0.09375 -0.71875q-0.078125 -0.375 -0.28125 -0.640625q-0.203125 -0.28125 -0.5625 -0.453125q-0.359375 -0.171875 -0.9375 -0.171875q-0.734375 0 -1.296875 0.109375q-0.546875 0.09375 -0.8125 0.21875l-0.1875 -1.234375q0.296875 -0.125 0.96875 -0.25q0.671875 -0.125 1.453125 -0.125zm7.0551453 0.21875l3.15625 0l0 1.234375l-3.15625 0l0 3.84375q0 0.625 0.09375 1.03125q0.09375 0.40625 0.28125 0.640625q0.203125 0.234375 0.484375 0.328125q0.296875 0.09375 0.671875 0.09375q0.671875 0 1.078125 -0.140625q0.421875 -0.15625 0.578125 -0.21875l0.28125 1.234375q-0.21875 0.109375 -0.78125 0.265625q-0.5625 0.171875 -1.28125 0.171875q-0.84375 0 -1.40625 -0.203125q-0.546875 -0.21875 -0.890625 -0.65625q-0.328125 -0.4375 -0.46875 -1.0625q-0.125 -0.640625 -0.125 -1.46875l0 -7.421875l1.484375 -0.25l0 2.578125zm7.853882 7.234375q0.53125 0 0.9375 -0.015625q0.40625 -0.03125 0.6875 -0.09375l0 -2.46875q-0.171875 -0.09375 -0.53125 -0.140625q-0.359375 -0.0625 -0.875 -0.0625q-0.328125 0 -0.703125 0.046875q-0.375 0.046875 -0.6875 0.203125q-0.3125 0.15625 -0.53125 0.421875q-0.203125 0.265625 -0.203125 0.6875q0 0.796875 0.515625 1.109375q0.515625 0.3125 1.390625 0.3125zm-0.125 -7.453125q0.890625 0 1.5 0.234375q0.625 0.234375 1.0 0.65625q0.375 0.421875 0.53125 1.015625q0.171875 0.578125 0.171875 1.28125l0 5.203125q-0.203125 0.03125 -0.546875 0.09375q-0.34375 0.046875 -0.78125 0.09375q-0.421875 0.046875 -0.921875 0.078125q-0.5 0.046875 -1.0 0.046875q-0.703125 0 -1.296875 -0.140625q-0.59375 -0.140625 -1.03125 -0.453125q-0.421875 -0.3125 -0.671875 -0.828125q-0.234375 -0.515625 -0.234375 -1.234375q0 -0.6875 0.28125 -1.171875q0.28125 -0.5 0.75 -0.796875q0.484375 -0.3125 1.125 -0.453125q0.640625 -0.15625 1.34375 -0.15625q0.234375 0 0.46875 0.03125q0.234375 0.015625 0.453125 0.0625q0.21875 0.046875 0.375 0.078125q0.15625 0.03125 0.234375 0.046875l0 -0.421875q0 -0.359375 -0.09375 -0.71875q-0.078125 -0.375 -0.28125 -0.640625q-0.203125 -0.28125 -0.5625 -0.453125q-0.359375 -0.171875 -0.9375 -0.171875q-0.734375 0 -1.296875 0.109375q-0.546875 0.09375 -0.8125 0.21875l-0.1875 -1.234375q0.296875 -0.125 0.96875 -0.25q0.671875 -0.125 1.453125 -0.125zm7.4301453 7.671875q0 0.421875 -0.296875 0.75q-0.28125 0.3125 -0.78125 0.3125q-0.5 0 -0.796875 -0.3125q-0.28125 -0.328125 -0.28125 -0.75q0 -0.4375 0.28125 -0.75q0.296875 -0.328125 0.796875 -0.328125q0.5 0 0.78125 0.328125q0.296875 0.3125 0.296875 0.75zm0 -6.390625q0 0.421875 -0.296875 0.75q-0.28125 0.3125 -0.78125 0.3125q-0.5 0 -0.796875 -0.3125q-0.28125 -0.328125 -0.28125 -0.75q0 -0.4375 0.28125 -0.75q0.296875 -0.328125 0.796875 -0.328125q0.5 0 0.78125 0.328125q0.296875 0.3125 0.296875 0.75zm13.366394 -3.84375l0 1.34375l-3.484375 0l0 9.75l-1.546875 0l0 -9.75l-3.5 0l0 -1.34375l8.53125 0zm0.19625854 12.796875l8.0 0l0 1.25l-8.0 0l0 -1.25zm10.700134 -1.703125l-1.484375 0l0 -8.3125l1.484375 0l0 8.3125zm-0.75 -9.828125q-0.40625 0 -0.6875 -0.265625q-0.265625 -0.265625 -0.265625 -0.703125q0 -0.453125 0.265625 -0.71875q0.28125 -0.265625 0.6875 -0.265625q0.40625 0 0.671875 0.265625q0.28125 0.265625 0.28125 0.71875q0 0.4375 -0.28125 0.703125q-0.265625 0.265625 -0.671875 0.265625zm3.3136292 1.75q0.515625 -0.125 1.359375 -0.265625q0.84375 -0.15625 1.953125 -0.15625q0.984375 0 1.640625 0.28125q0.65625 0.28125 1.046875 0.796875q0.40625 0.5 0.5625 1.203125q0.15625 0.703125 0.15625 1.546875l0 4.671875l-1.484375 0l0 -4.359375q0 -0.765625 -0.109375 -1.296875q-0.109375 -0.546875 -0.34375 -0.875q-0.234375 -0.34375 -0.640625 -0.5q-0.390625 -0.15625 -0.984375 -0.15625q-0.25 0 -0.5 0.015625q-0.25 0.015625 -0.484375 0.046875q-0.234375 0.015625 -0.421875 0.046875q-0.1875 0.03125 -0.265625 0.046875l0 7.03125l-1.484375 0l0 -8.078125zm14.965271 3.9375q0 -1.453125 -0.734375 -2.234375q-0.71875 -0.796875 -1.90625 -0.796875q-0.671875 0 -1.0625 0.046875q-0.375 0.046875 -0.59375 0.109375l0 5.25q0.28125 0.234375 0.78125 0.4375q0.515625 0.203125 1.125 0.203125q0.640625 0 1.09375 -0.21875q0.453125 -0.234375 0.734375 -0.640625q0.296875 -0.421875 0.421875 -0.96875q0.140625 -0.546875 0.140625 -1.1875zm1.546875 0q0 0.9375 -0.25 1.75q-0.25 0.796875 -0.734375 1.375q-0.46875 0.5625 -1.171875 0.890625q-0.6875 0.3125 -1.59375 0.3125q-0.71875 0 -1.265625 -0.1875q-0.546875 -0.1875 -0.828125 -0.375l0 3.328125l-1.484375 0l0 -11.015625q0.53125 -0.125 1.3125 -0.28125q0.796875 -0.15625 1.84375 -0.15625q0.953125 0 1.71875 0.3125q0.765625 0.296875 1.3125 0.859375q0.546875 0.5625 0.84375 1.375q0.296875 0.796875 0.296875 1.8125zm8.720917 3.90625q-0.515625 0.125 -1.359375 0.265625q-0.828125 0.140625 -1.9375 0.140625q-0.96875 0 -1.625 -0.28125q-0.640625 -0.28125 -1.046875 -0.78125q-0.40625 -0.515625 -0.578125 -1.203125q-0.171875 -0.703125 -0.171875 -1.546875l0 -4.671875l1.484375 0l0 4.34375q0 1.515625 0.46875 2.171875q0.484375 0.65625 1.625 0.65625q0.25 0 0.5 -0.015625q0.25 -0.015625 0.46875 -0.03125q0.234375 -0.03125 0.421875 -0.046875q0.1875 -0.03125 0.265625 -0.0625l0 -7.015625l1.484375 0l0 8.078125zm3.949646 -8.078125l3.15625 0l0 1.234375l-3.15625 0l0 3.84375q0 0.625 0.09375 1.03125q0.09375 0.40625 0.28125 0.640625q0.203125 0.234375 0.484375 0.328125q0.296875 0.09375 0.671875 0.09375q0.671875 0 1.078125 -0.140625q0.421875 -0.15625 0.578125 -0.21875l0.28125 1.234375q-0.21875 0.109375 -0.78125 0.265625q-0.5625 0.171875 -1.28125 0.171875q-0.84375 0 -1.40625 -0.203125q-0.546875 -0.21875 -0.890625 -0.65625q-0.328125 -0.4375 -0.46875 -1.0625q-0.125 -0.640625 -0.125 -1.46875l0 -7.421875l1.484375 -0.25l0 2.578125z" fill-rule="nonzero"/></g></svg>