<svg version="1.1" viewBox="0.0 0.0 815.2834645669292 366.87664041994753" fill="none" stroke="none" stroke-linecap="square" stroke-miterlimit="10" xmlns:xlink="http://www.w3.org/1999/xlink" xmlns="http://www.w3.org/2000/svg"><clipPath id="p.0"><path d="m0 0l815.28345 0l0 366.87665l-815.28345 0l0 -366.87665z" clip-rule="nonzero"/></clipPath><g clip-path="url(#p.0)"><path fill="#000000" fill-opacity="0.0" d="m0 0l815.28345 0l0 366.87665l-815.28345 0z" fill-rule="evenodd"/><path fill="#cccccc" d="m83.08793 44.249474l0 0c0 -17.373123 14.083694 -31.456821 31.456818 -31.456821l567.3226 0c8.3428955 0 16.344055 3.3141909 22.243347 9.2134905c5.899292 5.8992977 9.213501 13.900463 9.213501 22.243332l0 278.3777c0 17.373138 -14.08374 31.456818 -31.456848 31.456818l-567.3226 0c-17.373123 0 -31.456818 -14.083679 -31.456818 -31.456818z" fill-rule="evenodd"/><path stroke="#434343" stroke-width="3.0" stroke-linejoin="round" stroke-linecap="butt" d="m83.08793 44.249474l0 0c0 -17.373123 14.083694 -31.456821 31.456818 -31.456821l567.3226 0c8.3428955 0 16.344055 3.3141909 22.243347 9.2134905c5.899292 5.8992977 9.213501 13.900463 9.213501 22.243332l0 278.3777c0 17.373138 -14.08374 31.456818 -31.456848 31.456818l-567.3226 0c-17.373123 0 -31.456818 -14.083679 -31.456818 -31.456818z" fill-rule="evenodd"/><path fill="#000000" d="m348.00592 52.243538q1.4843445 -0.375 3.9530945 -0.796875q2.484375 -0.421875 5.703125 -0.421875q2.890625 0 4.796875 0.828125q1.921875 0.8125 3.0625 2.28125q1.140625 1.46875 1.609375 3.53125q0.46875 2.046875 0.46875 4.515625l0 13.625l-4.34375 0l0 -12.6875q0 -2.25 -0.3125 -3.828125q-0.296875 -1.59375 -1.0 -2.5625q-0.6875 -0.984375 -1.859375 -1.421875q-1.15625 -0.453125 -2.890625 -0.453125q-0.703125 0 -1.453125 0.046875q-0.734375 0.046875 -1.421875 0.125q-0.671875 0.0625 -1.203125 0.15625q-0.53125 0.09375 -0.765625 0.140625l0 20.484375l-4.3437195 0l0 -23.5625zm48.18686 11.4375q0 2.890625 -0.84375 5.21875q-0.828125 2.328125 -2.34375 4.015625q-1.515625 1.671875 -3.625 2.59375q-2.09375 0.90625 -4.5625 0.90625q-2.46875 0 -4.578125 -0.90625q-2.09375 -0.921875 -3.609375 -2.59375q-1.515625 -1.6875 -2.359375 -4.015625q-0.84375 -2.328125 -0.84375 -5.21875q0 -2.859375 0.84375 -5.203125q0.84375 -2.359375 2.359375 -4.03125q1.515625 -1.6875 3.609375 -2.59375q2.109375 -0.921875 4.578125 -0.921875q2.46875 0 4.5625 0.921875q2.109375 0.90625 3.625 2.59375q1.515625 1.671875 2.34375 4.03125q0.84375 2.34375 0.84375 5.203125zm-4.515625 0q0 -4.109375 -1.84375 -6.515625q-1.84375 -2.40625 -5.015625 -2.40625q-3.171875 0 -5.015625 2.40625q-1.84375 2.40625 -1.84375 6.515625q0 4.09375 1.84375 6.5q1.84375 2.40625 5.015625 2.40625q3.171875 0 5.015625 -2.40625q1.84375 -2.40625 1.84375 -6.5zm26.30835 -7.0q-0.796875 -0.65625 -2.296875 -1.265625q-1.484375 -0.609375 -3.25 -0.609375q-1.875 0 -3.203125 0.6875q-1.328125 0.671875 -2.171875 1.859375q-0.828125 1.1875 -1.203125 2.828125q-0.375 1.625 -0.375 3.5q0 4.234375 2.09375 6.546875q2.109375 2.3125 5.609375 2.3125q1.765625 0 2.953125 -0.15625q1.1875 -0.171875 1.84375 -0.359375l0 -15.34375zm0 -16.328125l4.34375 -0.75l0 35.5q-1.5 0.421875 -3.828125 0.84375q-2.328125 0.421875 -5.359375 0.421875q-2.8125 0 -5.046875 -0.890625q-2.234375 -0.890625 -3.828125 -2.515625q-1.578125 -1.640625 -2.453125 -3.984375q-0.859375 -2.359375 -0.859375 -5.296875q0 -2.8125 0.71875 -5.140625q0.734375 -2.328125 2.125 -4.0q1.40625 -1.6875 3.4375 -2.625q2.03125 -0.9375 4.640625 -0.9375q2.09375 0 3.703125 0.5625q1.609375 0.5625 2.40625 1.078125l0 -12.265625zm10.449219 23.375q0 -3.21875 0.9375 -5.625q0.9375 -2.40625 2.46875 -3.984375q1.546875 -1.59375 3.546875 -2.390625q2.015625 -0.796875 4.109375 -0.796875q4.890625 0 7.5 3.0625q2.625 3.0625 2.625 9.3125q0 0.28125 0 0.71875q0 0.4375 -0.046875 0.8125l-16.609375 0q0.28125 3.78125 2.1875 5.75q1.921875 1.953125 5.96875 1.953125q2.296875 0 3.859375 -0.390625q1.5625 -0.40625 2.359375 -0.78125l0.59375 3.640625q-0.78125 0.421875 -2.765625 0.890625q-1.984375 0.46875 -4.5 0.46875q-3.171875 0 -5.484375 -0.953125q-2.3125 -0.96875 -3.8125 -2.640625q-1.484375 -1.6875 -2.21875 -3.984375q-0.71875 -2.3125 -0.71875 -5.0625zm16.65625 -2.390625q0.046875 -2.9375 -1.46875 -4.828125q-1.515625 -1.890625 -4.171875 -1.890625q-1.5 0 -2.640625 0.59375q-1.140625 0.578125 -1.9375 1.515625q-0.78125 0.921875 -1.234375 2.140625q-0.4375 1.21875 -0.578125 2.46875l12.03125 0z" fill-rule="nonzero"/><path fill="#efefef" d="m13.510246 75.22858l0 0c0 -6.384018 5.175268 -11.559284 11.559286 -11.559284l120.75545 0c3.0657043 0 6.0058594 1.2178459 8.173645 3.3856392c2.1677856 2.1677856 3.3856354 5.107933 3.3856354 8.173645l0 46.235756c0 6.384018 -5.1752625 11.559288 -11.55928 11.559288l-120.75545 0c-6.384018 0 -11.559286 -5.17527 -11.559286 -11.559288z" fill-rule="evenodd"/><path stroke="#434343" stroke-width="2.0" stroke-linejoin="round" stroke-linecap="butt" d="m13.510246 75.22858l0 0c0 -6.384018 5.175268 -11.559284 11.559286 -11.559284l120.75545 0c3.0657043 0 6.0058594 1.2178459 8.173645 3.3856392c2.1677856 2.1677856 3.3856354 5.107933 3.3856354 8.173645l0 46.235756c0 6.384018 -5.1752625 11.559288 -11.55928 11.559288l-120.75545 0c-6.384018 0 -11.559286 -5.17527 -11.559286 -11.559288z" fill-rule="evenodd"/><path fill="#000000" d="m38.285236 104.48646l-2.09375 0l0 -9.0625l2.09375 0l0 9.0625zm0.21875 -11.71875q0 0.59375 -0.390625 0.9375q-0.375 0.34375 -0.890625 0.34375q-0.53125 0 -0.921875 -0.34375q-0.375 -0.34375 -0.375 -0.9375q0 -0.59375 0.375 -0.9375q0.390625 -0.359375 0.921875 -0.359375q0.515625 0 0.890625 0.359375q0.390625 0.34375 0.390625 0.9375zm2.4387817 2.953125q0.609375 -0.171875 1.578125 -0.328125q0.96875 -0.15625 2.15625 -0.15625q1.109375 0 1.84375 0.3125q0.75 0.296875 1.1875 0.84375q0.453125 0.53125 0.625 1.3125q0.1875 0.765625 0.1875 1.6875l0 5.09375l-2.09375 0l0 -4.765625q0 -0.734375 -0.09375 -1.234375q-0.09375 -0.515625 -0.3125 -0.828125q-0.21875 -0.328125 -0.59375 -0.46875q-0.375 -0.15625 -0.90625 -0.15625q-0.40625 0 -0.84375 0.0625q-0.421875 0.046875 -0.625 0.078125l0 7.3125l-2.109375 0l0 -8.765625zm16.152512 4.28125q0 -1.40625 -0.640625 -2.1875q-0.625 -0.78125 -2.03125 -0.78125q-0.28125 0 -0.609375 0.03125q-0.3125 0.015625 -0.625 0.109375l0 5.1875q0.265625 0.1875 0.71875 0.359375q0.46875 0.15625 0.984375 0.15625q1.15625 0 1.671875 -0.78125q0.53125 -0.78125 0.53125 -2.09375zm2.15625 -0.03125q0 1.03125 -0.28125 1.90625q-0.265625 0.859375 -0.765625 1.484375q-0.5 0.625 -1.25 0.96875q-0.75 0.34375 -1.703125 0.34375q-0.640625 0 -1.1875 -0.15625q-0.53125 -0.15625 -0.875 -0.34375l0 3.515625l-2.109375 0l0 -11.96875q0.640625 -0.171875 1.578125 -0.328125q0.9375 -0.15625 1.984375 -0.15625q1.0625 0 1.90625 0.328125q0.859375 0.328125 1.453125 0.953125q0.609375 0.609375 0.921875 1.484375q0.328125 0.875 0.328125 1.96875zm9.593121 4.234375q-0.609375 0.15625 -1.578125 0.3125q-0.96875 0.171875 -2.125 0.171875q-1.09375 0 -1.8281212 -0.3125q-0.734375 -0.3125 -1.1875 -0.859375q-0.4375 -0.5625 -0.625 -1.328125q-0.1875 -0.765625 -0.1875 -1.6875l0 -5.078125l2.09375 0l0 4.75q0 1.453125 0.421875 2.078125q0.4218712 0.625 1.4843712 0.625q0.375 0 0.796875 -0.03125q0.4375 -0.046875 0.640625 -0.09375l0 -7.328125l2.09375 0l0 8.78125zm2.570984 -11.171875l2.09375 -0.34375l0 2.734375l3.21875 0l0 1.75l-3.21875 0l0 3.6875q0 1.09375 0.34375 1.5625q0.34375 0.46875 1.1875 0.46875q0.5625 0 1.0 -0.125q0.453125 -0.125 0.703125 -0.21875l0.34375 1.65625q-0.359375 0.15625 -0.953125 0.3125q-0.578125 0.171875 -1.375 0.171875q-0.96875 0 -1.625 -0.25q-0.65625 -0.265625 -1.03125 -0.75q-0.375 -0.5 -0.53125 -1.203125q-0.15625 -0.703125 -0.15625 -1.609375l0 -7.84375zm11.374298 2.6875q0.609375 -0.171875 1.578125 -0.328125q0.96875 -0.15625 2.15625 -0.15625q1.109375 0 1.84375 0.3125q0.75 0.296875 1.1875 0.84375q0.453125 0.53125 0.625 1.3125q0.1875 0.765625 0.1875 1.6875l0 5.09375l-2.09375 0l0 -4.765625q0 -0.734375 -0.09375 -1.234375q-0.09375 -0.515625 -0.3125 -0.828125q-0.21875 -0.328125 -0.59375 -0.46875q-0.375 -0.15625 -0.90625 -0.15625q-0.40625 0 -0.84375 0.0625q-0.421875 0.046875 -0.625 0.078125l0 7.3125l-2.109375 0l0 -8.765625zm18.340012 4.21875q0 1.078125 -0.3125 1.96875q-0.3125 0.875 -0.890625 1.5q-0.5625 0.625 -1.375 0.984375q-0.796875 0.34375 -1.765625 0.34375q-0.984375 0 -1.78125 -0.34375q-0.796875 -0.359375 -1.375 -0.984375q-0.5625 -0.625 -0.890625 -1.5q-0.3125 -0.890625 -0.3125 -1.96875q0 -1.0625 0.3125 -1.9375q0.328125 -0.875 0.90625 -1.5q0.59375 -0.625 1.390625 -0.953125q0.796875 -0.34375 1.75 -0.34375q0.953125 0 1.75 0.34375q0.8125 0.328125 1.375 0.953125q0.578125 0.625 0.890625 1.5q0.328125 0.875 0.328125 1.9375zm-2.15625 0q0 -1.34375 -0.578125 -2.125q-0.578125 -0.796875 -1.609375 -0.796875q-1.046875 0 -1.625 0.796875q-0.578125 0.78125 -0.578125 2.125q0 1.375 0.578125 2.171875q0.578125 0.796875 1.625 0.796875q1.03125 0 1.609375 -0.796875q0.578125 -0.796875 0.578125 -2.171875zm5.971527 -0.015625q0 1.390625 0.65625 2.1875q0.65625 0.78125 1.8125 0.78125q0.5 0 0.859375 -0.046875q0.359375 -0.046875 0.578125 -0.09375l0 -5.203125q-0.265625 -0.1875 -0.734375 -0.34375q-0.453125 -0.171875 -0.96875 -0.171875q-1.15625 0 -1.6875 0.78125q-0.515625 0.78125 -0.515625 2.109375zm6.015625 4.28125q-0.625 0.1875 -1.578125 0.34375q-0.9375 0.15625 -1.984375 0.15625q-1.078125 0 -1.921875 -0.328125q-0.84375 -0.328125 -1.453125 -0.9375q-0.59375 -0.609375 -0.921875 -1.484375q-0.3125 -0.875 -0.3125 -1.96875q0 -1.078125 0.265625 -1.953125q0.28125 -0.875 0.796875 -1.5q0.515625 -0.625 1.265625 -0.953125q0.75 -0.34375 1.71875 -0.34375q0.65625 0 1.15625 0.15625q0.5 0.15625 0.859375 0.34375l0 -4.34375l2.109375 -0.359375l0 13.171875zm2.1556244 -4.203125q0 -1.203125 0.359375 -2.09375q0.359375 -0.90625 0.9375 -1.5q0.59375 -0.609375 1.359375 -0.90625q0.765625 -0.296875 1.5625 -0.296875q1.859375 0 2.90625 1.15625q1.0625 1.15625 1.0625 3.46875q0 0.171875 -0.015625 0.390625q0 0.203125 -0.03125 0.390625l-5.96875 0q0.078125 1.078125 0.765625 1.6875q0.6875 0.59375 1.984375 0.59375q0.765625 0 1.390625 -0.140625q0.640625 -0.140625 1.0 -0.296875l0.28125 1.71875q-0.171875 0.09375 -0.484375 0.1875q-0.296875 0.09375 -0.6875 0.171875q-0.390625 0.078125 -0.84375 0.125q-0.453125 0.046875 -0.90625 0.046875q-1.203125 0 -2.09375 -0.34375q-0.875 -0.359375 -1.453125 -0.984375q-0.5625 -0.640625 -0.84375 -1.5q-0.28125 -0.859375 -0.28125 -1.875zm6.078125 -0.9375q0 -0.4375 -0.125 -0.828125q-0.109375 -0.390625 -0.34375 -0.671875q-0.234375 -0.28125 -0.578125 -0.4375q-0.328125 -0.171875 -0.796875 -0.171875q-0.484375 0 -0.859375 0.1875q-0.359375 0.171875 -0.609375 0.46875q-0.25 0.296875 -0.390625 0.671875q-0.140625 0.375 -0.1875 0.78125l3.890625 0zm8.587982 -4.09375q1.0 -0.390625 2.015625 -1.015625q1.015625 -0.625 1.796875 -1.484375l1.46875 0l0 12.015625l-2.09375 0l0 -9.203125q-0.46875 0.359375 -1.1875 0.71875q-0.703125 0.34375 -1.359375 0.5625l-0.640625 -1.59375z" fill-rule="nonzero"/><path fill="#000000" fill-opacity="0.0" d="m157.38426 98.34646c20.112244 0 30.169373 21.275589 40.224487 42.551186c10.05513 21.275589 20.10823 42.551178 40.21646 42.551178" fill-rule="evenodd"/><path stroke="#434343" stroke-width="1.0" stroke-linejoin="round" stroke-linecap="butt" d="m157.38426 98.34646c20.112244 0 30.169373 21.275589 40.224487 42.551186c10.05513 21.275589 20.10823 42.551178 40.21646 42.551178" fill-rule="evenodd"/><path fill="#efefef" d="m13.510246 160.32043l0 0c0 -6.384018 5.175268 -11.55928 11.559286 -11.55928l120.75545 0c3.0657043 0 6.0058594 1.2178497 8.173645 3.3856354c2.1677856 2.1677856 3.3856354 5.1079407 3.3856354 8.173645l0 46.235764c0 6.384018 -5.1752625 11.55928 -11.55928 11.55928l-120.75545 0c-6.384018 0 -11.559286 -5.1752625 -11.559286 -11.55928z" fill-rule="evenodd"/><path stroke="#434343" stroke-width="2.0" stroke-linejoin="round" stroke-linecap="butt" d="m13.510246 160.32043l0 0c0 -6.384018 5.175268 -11.55928 11.559286 -11.55928l120.75545 0c3.0657043 0 6.0058594 1.2178497 8.173645 3.3856354c2.1677856 2.1677856 3.3856354 5.1079407 3.3856354 8.173645l0 46.235764c0 6.384018 -5.1752625 11.55928 -11.55928 11.55928l-120.75545 0c-6.384018 0 -11.559286 -5.1752625 -11.559286 -11.55928z" fill-rule="evenodd"/><path fill="#000000" d="m38.285236 189.57832l-2.09375 0l0 -9.0625l2.09375 0l0 9.0625zm0.21875 -11.71875q0 0.59375 -0.390625 0.9375q-0.375 0.34375 -0.890625 0.34375q-0.53125 0 -0.921875 -0.34375q-0.375 -0.34375 -0.375 -0.9375q0 -0.59375 0.375 -0.9375q0.390625 -0.359375 0.921875 -0.359375q0.515625 0 0.890625 0.359375q0.390625 0.34375 0.390625 0.9375zm2.4387817 2.953125q0.609375 -0.171875 1.578125 -0.328125q0.96875 -0.15625 2.15625 -0.15625q1.109375 0 1.84375 0.3125q0.75 0.296875 1.1875 0.84375q0.453125 0.53125 0.625 1.3125q0.1875 0.765625 0.1875 1.6875l0 5.09375l-2.09375 0l0 -4.765625q0 -0.734375 -0.09375 -1.234375q-0.09375 -0.515625 -0.3125 -0.828125q-0.21875 -0.328125 -0.59375 -0.46875q-0.375 -0.15625 -0.90625 -0.15625q-0.40625 0 -0.84375 0.0625q-0.421875 0.046875 -0.625 0.078125l0 7.3125l-2.109375 0l0 -8.765625zm16.152512 4.28125q0 -1.40625 -0.640625 -2.1875q-0.625 -0.78125 -2.03125 -0.78125q-0.28125 0 -0.609375 0.03125q-0.3125 0.015625 -0.625 0.109375l0 5.1875q0.265625 0.1875 0.71875 0.359375q0.46875 0.15625 0.984375 0.15625q1.15625 0 1.671875 -0.78125q0.53125 -0.78125 0.53125 -2.09375zm2.15625 -0.03125q0 1.03125 -0.28125 1.90625q-0.265625 0.859375 -0.765625 1.484375q-0.5 0.625 -1.25 0.96875q-0.75 0.34375 -1.703125 0.34375q-0.640625 0 -1.1875 -0.15625q-0.53125 -0.15625 -0.875 -0.34375l0 3.515625l-2.109375 0l0 -11.96875q0.640625 -0.171875 1.578125 -0.328125q0.9375 -0.15625 1.984375 -0.15625q1.0625 0 1.90625 0.328125q0.859375 0.328125 1.453125 0.953125q0.609375 0.609375 0.921875 1.484375q0.328125 0.875 0.328125 1.96875zm9.593121 4.234375q-0.609375 0.15625 -1.578125 0.3125q-0.96875 0.171875 -2.125 0.171875q-1.09375 0 -1.8281212 -0.3125q-0.734375 -0.3125 -1.1875 -0.859375q-0.4375 -0.5625 -0.625 -1.328125q-0.1875 -0.765625 -0.1875 -1.6875l0 -5.078125l2.09375 0l0 4.75q0 1.453125 0.421875 2.078125q0.4218712 0.625 1.4843712 0.625q0.375 0 0.796875 -0.03125q0.4375 -0.046875 0.640625 -0.09375l0 -7.328125l2.09375 0l0 8.78125zm2.570984 -11.171875l2.09375 -0.34375l0 2.734375l3.21875 0l0 1.75l-3.21875 0l0 3.6875q0 1.09375 0.34375 1.5625q0.34375 0.46875 1.1875 0.46875q0.5625 0 1.0 -0.125q0.453125 -0.125 0.703125 -0.21875l0.34375 1.65625q-0.359375 0.15625 -0.953125 0.3125q-0.578125 0.171875 -1.375 0.171875q-0.96875 0 -1.625 -0.25q-0.65625 -0.265625 -1.03125 -0.75q-0.375 -0.5 -0.53125 -1.203125q-0.15625 -0.703125 -0.15625 -1.609375l0 -7.84375zm11.374298 2.6875q0.609375 -0.171875 1.578125 -0.328125q0.96875 -0.15625 2.15625 -0.15625q1.109375 0 1.84375 0.3125q0.75 0.296875 1.1875 0.84375q0.453125 0.53125 0.625 1.3125q0.1875 0.765625 0.1875 1.6875l0 5.09375l-2.09375 0l0 -4.765625q0 -0.734375 -0.09375 -1.234375q-0.09375 -0.515625 -0.3125 -0.828125q-0.21875 -0.328125 -0.59375 -0.46875q-0.375 -0.15625 -0.90625 -0.15625q-0.40625 0 -0.84375 0.0625q-0.421875 0.046875 -0.625 0.078125l0 7.3125l-2.109375 0l0 -8.765625zm18.340012 4.21875q0 1.078125 -0.3125 1.96875q-0.3125 0.875 -0.890625 1.5q-0.5625 0.625 -1.375 0.984375q-0.796875 0.34375 -1.765625 0.34375q-0.984375 0 -1.78125 -0.34375q-0.796875 -0.359375 -1.375 -0.984375q-0.5625 -0.625 -0.890625 -1.5q-0.3125 -0.890625 -0.3125 -1.96875q0 -1.0625 0.3125 -1.9375q0.328125 -0.875 0.90625 -1.5q0.59375 -0.625 1.390625 -0.953125q0.796875 -0.34375 1.75 -0.34375q0.953125 0 1.75 0.34375q0.8125 0.328125 1.375 0.953125q0.578125 0.625 0.890625 1.5q0.328125 0.875 0.328125 1.9375zm-2.15625 0q0 -1.34375 -0.578125 -2.125q-0.578125 -0.796875 -1.609375 -0.796875q-1.046875 0 -1.625 0.796875q-0.578125 0.78125 -0.578125 2.125q0 1.375 0.578125 2.171875q0.578125 0.796875 1.625 0.796875q1.03125 0 1.609375 -0.796875q0.578125 -0.796875 0.578125 -2.171875zm5.971527 -0.015625q0 1.390625 0.65625 2.1875q0.65625 0.78125 1.8125 0.78125q0.5 0 0.859375 -0.046875q0.359375 -0.046875 0.578125 -0.09375l0 -5.203125q-0.265625 -0.1875 -0.734375 -0.34375q-0.453125 -0.171875 -0.96875 -0.171875q-1.15625 0 -1.6875 0.78125q-0.515625 0.78125 -0.515625 2.109375zm6.015625 4.28125q-0.625 0.1875 -1.578125 0.34375q-0.9375 0.15625 -1.984375 0.15625q-1.078125 0 -1.921875 -0.328125q-0.84375 -0.328125 -1.453125 -0.9375q-0.59375 -0.609375 -0.921875 -1.484375q-0.3125 -0.875 -0.3125 -1.96875q0 -1.078125 0.265625 -1.953125q0.28125 -0.875 0.796875 -1.5q0.515625 -0.625 1.265625 -0.953125q0.75 -0.34375 1.71875 -0.34375q0.65625 0 1.15625 0.15625q0.5 0.15625 0.859375 0.34375l0 -4.34375l2.109375 -0.359375l0 13.171875zm2.1556244 -4.203125q0 -1.203125 0.359375 -2.09375q0.359375 -0.90625 0.9375 -1.5q0.59375 -0.609375 1.359375 -0.90625q0.765625 -0.296875 1.5625 -0.296875q1.859375 0 2.90625 1.15625q1.0625 1.15625 1.0625 3.46875q0 0.171875 -0.015625 0.390625q0 0.203125 -0.03125 0.390625l-5.96875 0q0.078125 1.078125 0.765625 1.6875q0.6875 0.59375 1.984375 0.59375q0.765625 0 1.390625 -0.140625q0.640625 -0.140625 1.0 -0.296875l0.28125 1.71875q-0.171875 0.09375 -0.484375 0.1875q-0.296875 0.09375 -0.6875 0.171875q-0.390625 0.078125 -0.84375 0.125q-0.453125 0.046875 -0.90625 0.046875q-1.203125 0 -2.09375 -0.34375q-0.875 -0.359375 -1.453125 -0.984375q-0.5625 -0.640625 -0.84375 -1.5q-0.28125 -0.859375 -0.28125 -1.875zm6.078125 -0.9375q0 -0.4375 -0.125 -0.828125q-0.109375 -0.390625 -0.34375 -0.671875q-0.234375 -0.28125 -0.578125 -0.4375q-0.328125 -0.171875 -0.796875 -0.171875q-0.484375 0 -0.859375 0.1875q-0.359375 0.171875 -0.609375 0.46875q-0.25 0.296875 -0.390625 0.671875q-0.140625 0.375 -0.1875 0.78125l3.890625 0zm15.353607 -3.46875q0 0.625 -0.265625 1.234375q-0.25 0.59375 -0.65625 1.15625q-0.40625 0.5625 -0.9375 1.09375q-0.515625 0.515625 -1.03125 1.015625q-0.28125 0.265625 -0.625 0.640625q-0.34375 0.359375 -0.65625 0.71875q-0.3125 0.359375 -0.546875 0.703125q-0.21875 0.328125 -0.234375 0.5625l5.34375 0l0 1.765625l-7.640625 0q-0.015625 -0.140625 -0.015625 -0.328125q0 -0.203125 0 -0.3125q0 -0.828125 0.265625 -1.53125q0.265625 -0.703125 0.6875 -1.3125q0.4375 -0.609375 0.96875 -1.140625q0.546875 -0.53125 1.09375 -1.0625q0.40625 -0.390625 0.78125 -0.765625q0.390625 -0.390625 0.671875 -0.765625q0.296875 -0.375 0.46875 -0.765625q0.171875 -0.390625 0.171875 -0.796875q0 -0.90625 -0.53125 -1.28125q-0.515625 -0.390625 -1.25 -0.390625q-0.484375 0 -0.90625 0.140625q-0.421875 0.140625 -0.75 0.328125q-0.3125 0.1875 -0.5625 0.390625q-0.234375 0.203125 -0.359375 0.328125l-1.03125 -1.484375q0.71875 -0.6875 1.703125 -1.109375q0.984375 -0.421875 2.109375 -0.421875q1.921875 0 2.828125 0.90625q0.90625 0.90625 0.90625 2.484375z" fill-rule="nonzero"/><path fill="#efefef" d="m13.510251 245.41231l0 0c0 -6.384018 5.175269 -11.559296 11.559287 -11.559296l120.75545 0c3.0657196 0 6.0058594 1.2178497 8.173645 3.3856354c2.1677856 2.167801 3.3856354 5.1079407 3.3856354 8.17366l0 46.235764c0 6.3840027 -5.1752625 11.559265 -11.55928 11.559265l-120.75545 0c-6.384018 0 -11.559287 -5.1752625 -11.559287 -11.559265z" fill-rule="evenodd"/><path stroke="#434343" stroke-width="2.0" stroke-linejoin="round" stroke-linecap="butt" d="m13.510251 245.41231l0 0c0 -6.384018 5.175269 -11.559296 11.559287 -11.559296l120.75545 0c3.0657196 0 6.0058594 1.2178497 8.173645 3.3856354c2.1677856 2.167801 3.3856354 5.1079407 3.3856354 8.17366l0 46.235764c0 6.3840027 -5.1752625 11.559265 -11.55928 11.559265l-120.75545 0c-6.384018 0 -11.559287 -5.1752625 -11.559287 -11.559265z" fill-rule="evenodd"/><path fill="#000000" d="m38.137955 274.6702l-2.09375 0l0 -9.0625l2.09375 0l0 9.0625zm0.21875 -11.71875q0 0.59375 -0.390625 0.9375q-0.375 0.34375 -0.890625 0.34375q-0.53125 0 -0.921875 -0.34375q-0.375 -0.34375 -0.375 -0.9375q0 -0.59375 0.375 -0.9375q0.390625 -0.359375 0.921875 -0.359375q0.515625 0 0.890625 0.359375q0.390625 0.34375 0.390625 0.9375zm2.4387817 2.953125q0.609375 -0.171875 1.578125 -0.328125q0.96875 -0.15625 2.15625 -0.15625q1.109375 0 1.84375 0.3125q0.75 0.296875 1.1875 0.84375q0.453125 0.53125 0.625 1.3125q0.1875 0.765625 0.1875 1.6875l0 5.09375l-2.09375 0l0 -4.765625q0 -0.734375 -0.09375 -1.234375q-0.09375 -0.515625 -0.3125 -0.828125q-0.21875 -0.328125 -0.59375 -0.46875q-0.375 -0.15625 -0.90625 -0.15625q-0.40625 0 -0.84375 0.0625q-0.421875 0.046875 -0.625 0.078125l0 7.3125l-2.109375 0l0 -8.765625zm16.152512 4.28125q0 -1.40625 -0.640625 -2.1875q-0.625 -0.78125 -2.03125 -0.78125q-0.28125 0 -0.609375 0.03125q-0.3125 0.015625 -0.625 0.109375l0 5.1875q0.265625 0.1875 0.71875 0.359375q0.46875 0.15625 0.984375 0.15625q1.15625 0 1.671875 -0.78125q0.53125 -0.78125 0.53125 -2.09375zm2.15625 -0.03125q0 1.03125 -0.28125 1.90625q-0.265625 0.859375 -0.765625 1.484375q-0.5 0.625 -1.25 0.96875q-0.75 0.34375 -1.703125 0.34375q-0.640625 0 -1.1875 -0.15625q-0.53125 -0.15625 -0.875 -0.34375l0 3.515625l-2.109375 0l0 -11.96875q0.640625 -0.171875 1.578125 -0.328125q0.9375 -0.15625 1.984375 -0.15625q1.0625 0 1.90625 0.328125q0.859375 0.328125 1.453125 0.953125q0.609375 0.609375 0.921875 1.484375q0.328125 0.875 0.328125 1.96875zm9.593124 4.234375q-0.609375 0.15625 -1.578125 0.3125q-0.96875 0.171875 -2.125 0.171875q-1.09375 0 -1.828125 -0.3125q-0.734375 -0.3125 -1.1875 -0.859375q-0.4375 -0.5625 -0.625 -1.328125q-0.1875 -0.765625 -0.1875 -1.6875l0 -5.078125l2.09375 0l0 4.75q0 1.453125 0.421875 2.078125q0.421875 0.625 1.484375 0.625q0.375 0 0.796875 -0.03125q0.4375 -0.046875 0.640625 -0.09375l0 -7.328125l2.09375 0l0 8.78125zm2.570984 -11.171875l2.09375 -0.34375l0 2.734375l3.21875 0l0 1.75l-3.21875 0l0 3.6875q0 1.09375 0.34375 1.5625q0.34375 0.46875 1.1875 0.46875q0.5625 0 1.0 -0.125q0.453125 -0.125 0.703125 -0.21875l0.34375 1.65625q-0.359375 0.15625 -0.953125 0.3125q-0.578125 0.171875 -1.375 0.171875q-0.96875 0 -1.625 -0.25q-0.65625 -0.265625 -1.03125 -0.75q-0.375 -0.5 -0.53125 -1.203125q-0.15625 -0.703125 -0.15625 -1.609375l0 -7.84375zm11.374298 2.6875q0.609375 -0.171875 1.578125 -0.328125q0.96875 -0.15625 2.15625 -0.15625q1.109375 0 1.84375 0.3125q0.75 0.296875 1.1875 0.84375q0.453125 0.53125 0.625 1.3125q0.1875 0.765625 0.1875 1.6875l0 5.09375l-2.09375 0l0 -4.765625q0 -0.734375 -0.09375 -1.234375q-0.09375 -0.515625 -0.3125 -0.828125q-0.21875 -0.328125 -0.59375 -0.46875q-0.375 -0.15625 -0.90625 -0.15625q-0.40625 0 -0.84375 0.0625q-0.421875 0.046875 -0.625 0.078125l0 7.3125l-2.109375 0l0 -8.765625zm18.340012 4.21875q0 1.078125 -0.3125 1.96875q-0.3125 0.875 -0.890625 1.5q-0.5625 0.625 -1.375 0.984375q-0.796875 0.34375 -1.765625 0.34375q-0.984375 0 -1.78125 -0.34375q-0.796875 -0.359375 -1.375 -0.984375q-0.5625 -0.625 -0.890625 -1.5q-0.3125 -0.890625 -0.3125 -1.96875q0 -1.0625 0.3125 -1.9375q0.328125 -0.875 0.90625 -1.5q0.59375 -0.625 1.390625 -0.953125q0.796875 -0.34375 1.75 -0.34375q0.953125 0 1.75 0.34375q0.8125 0.328125 1.375 0.953125q0.578125 0.625 0.890625 1.5q0.328125 0.875 0.328125 1.9375zm-2.15625 0q0 -1.34375 -0.578125 -2.125q-0.578125 -0.796875 -1.609375 -0.796875q-1.046875 0 -1.625 0.796875q-0.578125 0.78125 -0.578125 2.125q0 1.375 0.578125 2.171875q0.578125 0.796875 1.625 0.796875q1.03125 0 1.609375 -0.796875q0.578125 -0.796875 0.578125 -2.171875zm5.971527 -0.015625q0 1.390625 0.65625 2.1875q0.65625 0.78125 1.8125 0.78125q0.5 0 0.859375 -0.046875q0.359375 -0.046875 0.578125 -0.09375l0 -5.203125q-0.265625 -0.1875 -0.734375 -0.34375q-0.453125 -0.171875 -0.96875 -0.171875q-1.15625 0 -1.6875 0.78125q-0.515625 0.78125 -0.515625 2.109375zm6.015625 4.28125q-0.625 0.1875 -1.578125 0.34375q-0.9375 0.15625 -1.984375 0.15625q-1.078125 0 -1.921875 -0.328125q-0.84375 -0.328125 -1.453125 -0.9375q-0.59375 -0.609375 -0.921875 -1.484375q-0.3125 -0.875 -0.3125 -1.96875q0 -1.078125 0.265625 -1.953125q0.28125 -0.875 0.796875 -1.5q0.515625 -0.625 1.265625 -0.953125q0.75 -0.34375 1.71875 -0.34375q0.65625 0 1.15625 0.15625q0.5 0.15625 0.859375 0.34375l0 -4.34375l2.109375 -0.359375l0 13.171875zm2.1556244 -4.203125q0 -1.203125 0.359375 -2.09375q0.359375 -0.90625 0.9375 -1.5q0.59375 -0.609375 1.359375 -0.90625q0.765625 -0.296875 1.5625 -0.296875q1.859375 0 2.90625 1.15625q1.0625 1.15625 1.0625 3.46875q0 0.171875 -0.015625 0.390625q0 0.203125 -0.03125 0.390625l-5.96875 0q0.078125 1.078125 0.765625 1.6875q0.6875 0.59375 1.984375 0.59375q0.765625 0 1.390625 -0.140625q0.640625 -0.140625 1.0 -0.296875l0.28125 1.71875q-0.171875 0.09375 -0.484375 0.1875q-0.296875 0.09375 -0.6875 0.171875q-0.390625 0.078125 -0.84375 0.125q-0.453125 0.046875 -0.90625 0.046875q-1.203125 0 -2.09375 -0.34375q-0.875 -0.359375 -1.453125 -0.984375q-0.5625 -0.640625 -0.84375 -1.5q-0.28125 -0.859375 -0.28125 -1.875zm6.078125 -0.9375q0 -0.4375 -0.125 -0.828125q-0.109375 -0.390625 -0.34375 -0.671875q-0.234375 -0.28125 -0.578125 -0.4375q-0.328125 -0.171875 -0.796875 -0.171875q-0.484375 0 -0.859375 0.1875q-0.359375 0.171875 -0.609375 0.46875q-0.25 0.296875 -0.390625 0.671875q-0.140625 0.375 -0.1875 0.78125l3.890625 0zm8.353607 -3.34375q0.609375 -0.171875 1.578125 -0.328125q0.96875 -0.15625 2.15625 -0.15625q1.109375 0 1.84375 0.3125q0.75 0.296875 1.1875 0.84375q0.453125 0.53125 0.625 1.3125q0.1875 0.765625 0.1875 1.6875l0 5.09375l-2.09375 0l0 -4.765625q0 -0.734375 -0.09375 -1.234375q-0.09375 -0.515625 -0.3125 -0.828125q-0.21875 -0.328125 -0.59375 -0.46875q-0.375 -0.15625 -0.90625 -0.15625q-0.40625 0 -0.84375 0.0625q-0.421875 0.046875 -0.625 0.078125l0 7.3125l-2.109375 0l0 -8.765625z" fill-rule="nonzero"/><path fill="#d9ead3" d="m237.83372 160.32043l0 0c0 -6.384018 5.1752625 -11.55928 11.55928 -11.55928l133.16489 0c3.0657043 0 6.0058594 1.2178497 8.173645 3.3856354c2.1677856 2.1677856 3.3856506 5.1079407 3.3856506 8.173645l0 46.235764c0 6.384018 -5.1752625 11.55928 -11.559296 11.55928l-133.16489 0c-6.384018 0 -11.55928 -5.1752625 -11.55928 -11.55928z" fill-rule="evenodd"/><path stroke="#434343" stroke-width="2.0" stroke-linejoin="round" stroke-linecap="butt" d="m237.83372 160.32043l0 0c0 -6.384018 5.1752625 -11.55928 11.55928 -11.55928l133.16489 0c3.0657043 0 6.0058594 1.2178497 8.173645 3.3856354c2.1677856 2.1677856 3.3856506 5.1079407 3.3856506 8.173645l0 46.235764c0 6.384018 -5.1752625 11.55928 -11.559296 11.55928l-133.16489 0c-6.384018 0 -11.55928 -5.1752625 -11.55928 -11.55928z" fill-rule="evenodd"/><path fill="#000000" d="m268.4991 188.73332q0.90625 0 1.3125 -0.203125q0.40625 -0.21875 0.40625 -0.75q0 -0.484375 -0.4375 -0.796875q-0.4375 -0.3125 -1.4375 -0.6875q-0.625 -0.234375 -1.140625 -0.484375q-0.5 -0.25 -0.875 -0.578125q-0.375 -0.34375 -0.59375 -0.8125q-0.21875 -0.484375 -0.21875 -1.171875q0 -1.34375 0.984375 -2.109375q1.0 -0.78125 2.703125 -0.78125q0.84375 0 1.625 0.15625q0.796875 0.15625 1.1875 0.3125l-0.40625 1.828125q-0.375 -0.171875 -0.953125 -0.3125q-0.578125 -0.140625 -1.34375 -0.140625q-0.6875 0 -1.125 0.234375q-0.421875 0.234375 -0.421875 0.71875q0 0.25 0.078125 0.4375q0.078125 0.1875 0.28125 0.34375q0.21875 0.15625 0.546875 0.3125q0.34375 0.15625 0.828125 0.328125q0.796875 0.296875 1.359375 0.59375q0.5625 0.28125 0.921875 0.65625q0.359375 0.359375 0.53125 0.828125q0.171875 0.453125 0.171875 1.109375q0 1.40625 -1.046875 2.125q-1.03125 0.71875 -2.953125 0.71875q-1.28125 0 -2.078125 -0.21875q-0.78125 -0.21875 -1.09375 -0.34375l0.390625 -1.890625q0.5 0.203125 1.203125 0.390625q0.703125 0.1875 1.59375 0.1875zm14.057159 -8.125q-1.515625 5.546875 -3.515625 10.0625q-0.375 0.84375 -0.765625 1.4375q-0.390625 0.59375 -0.875 0.984375q-0.484375 0.40625 -1.078125 0.578125q-0.59375 0.171875 -1.375 0.171875q-0.53125 0 -1.046875 -0.109375q-0.5 -0.109375 -0.765625 -0.234375l0.40625 -1.8125q0.671875 0.25 1.328125 0.25q0.875 0 1.359375 -0.421875q0.5 -0.40625 0.875 -1.28125q-1.0625 -2.0625 -2.046875 -4.484375q-0.96875 -2.421875 -1.734375 -5.140625l2.40625 0q0.1875 0.78125 0.453125 1.703125q0.265625 0.90625 0.578125 1.84375q0.328125 0.9375 0.671875 1.875q0.359375 0.9375 0.71875 1.734375q0.59375 -1.65625 1.109375 -3.53125q0.53125 -1.875 0.96875 -3.625l2.328125 0zm1.7138367 0.3125q0.65625 -0.1875 1.6875 -0.359375q1.046875 -0.171875 2.328125 -0.171875q1.1875 0 1.984375 0.328125q0.8125 0.328125 1.28125 0.921875q0.484375 0.578125 0.671875 1.421875q0.203125 0.828125 0.203125 1.8125l0 5.484375l-2.265625 0l0 -5.125q0 -0.78125 -0.109375 -1.328125q-0.09375 -0.5625 -0.328125 -0.90625q-0.234375 -0.34375 -0.640625 -0.5q-0.390625 -0.15625 -0.96875 -0.15625q-0.4375 0 -0.90625 0.0625q-0.453125 0.046875 -0.6875 0.078125l0 7.875l-2.25 0l0 -9.4375zm10.367035 4.5625q0 -1.078125 0.328125 -2.015625q0.34375 -0.9375 0.96875 -1.625q0.625 -0.703125 1.515625 -1.09375q0.90625 -0.390625 2.03125 -0.390625q1.375 0 2.609375 0.5l-0.484375 1.84375q-0.390625 -0.15625 -0.890625 -0.265625q-0.5 -0.125 -1.0625 -0.125q-1.3125 0 -2.015625 0.84375q-0.6875 0.828125 -0.6875 2.328125q0 1.453125 0.65625 2.3125q0.65625 0.84375 2.203125 0.84375q0.578125 0 1.140625 -0.109375q0.5625 -0.109375 0.96875 -0.28125l0.3125 1.859375q-0.375 0.1875 -1.125 0.34375q-0.75 0.15625 -1.5625 0.15625q-1.25 0 -2.171875 -0.375q-0.921875 -0.390625 -1.53125 -1.078125q-0.59375 -0.6875 -0.90625 -1.625q-0.296875 -0.9375 -0.296875 -2.046875zm9.352631 4.875l0 -14.109375l2.25 -0.375l0 4.84375q0.375 -0.140625 0.875 -0.234375q0.5 -0.09375 0.984375 -0.09375q1.171875 0 1.9375 0.328125q0.78125 0.328125 1.25 0.921875q0.46875 0.578125 0.65625 1.40625q0.203125 0.8125 0.203125 1.828125l0 5.484375l-2.265625 0l0 -5.125q0 -0.78125 -0.109375 -1.328125q-0.09375 -0.5625 -0.328125 -0.90625q-0.234375 -0.34375 -0.625 -0.5q-0.390625 -0.15625 -0.96875 -0.15625q-0.453125 0 -0.921875 0.09375q-0.453125 0.09375 -0.6875 0.15625l0 7.765625l-2.25 0zm16.42044 -7.71875q-0.28125 -0.09375 -0.78125 -0.1875q-0.484375 -0.109375 -1.140625 -0.109375q-0.375 0 -0.796875 0.078125q-0.421875 0.0625 -0.59375 0.125l0 7.8125l-2.25 0l0 -9.296875q0.65625 -0.234375 1.625 -0.453125q0.984375 -0.21875 2.1875 -0.21875q0.21875 0 0.515625 0.03125q0.296875 0.03125 0.59375 0.078125q0.296875 0.046875 0.578125 0.109375q0.28125 0.0625 0.453125 0.125l-0.390625 1.90625zm10.784088 2.828125q0 1.15625 -0.34375 2.109375q-0.328125 0.953125 -0.953125 1.625q-0.609375 0.671875 -1.484375 1.046875q-0.859375 0.375 -1.90625 0.375q-1.046875 0 -1.90625 -0.375q-0.859375 -0.375 -1.484375 -1.046875q-0.609375 -0.671875 -0.953125 -1.625q-0.34375 -0.953125 -0.34375 -2.109375q0 -1.15625 0.34375 -2.09375q0.34375 -0.9375 0.96875 -1.609375q0.625 -0.671875 1.484375 -1.03125q0.859375 -0.375 1.890625 -0.375q1.03125 0 1.890625 0.375q0.875 0.359375 1.484375 1.03125q0.625 0.671875 0.96875 1.609375q0.34375 0.9375 0.34375 2.09375zm-2.3125 0q0 -1.453125 -0.625 -2.296875q-0.625 -0.859375 -1.75 -0.859375q-1.125 0 -1.75 0.859375q-0.625 0.84375 -0.625 2.296875q0 1.46875 0.625 2.328125q0.625 0.859375 1.75 0.859375q1.125 0 1.75 -0.859375q0.625 -0.859375 0.625 -2.328125zm4.640808 -4.546875q0.65625 -0.1875 1.6875 -0.359375q1.046875 -0.171875 2.328125 -0.171875q1.1875 0 1.984375 0.328125q0.8125 0.328125 1.28125 0.921875q0.484375 0.578125 0.671875 1.421875q0.203125 0.828125 0.203125 1.8125l0 5.484375l-2.265625 0l0 -5.125q0 -0.78125 -0.109375 -1.328125q-0.09375 -0.5625 -0.328125 -0.90625q-0.234375 -0.34375 -0.640625 -0.5q-0.390625 -0.15625 -0.96875 -0.15625q-0.4375 0 -0.90625 0.0625q-0.453125 0.046875 -0.6875 0.078125l0 7.875l-2.25 0l0 -9.4375zm13.19516 9.4375l-2.265625 0l0 -9.75l2.265625 0l0 9.75zm0.234375 -12.609375q0 0.625 -0.40625 1.0q-0.40625 0.375 -0.96875 0.375q-0.578125 0 -1.0 -0.375q-0.40625 -0.375 -0.40625 -1.0q0 -0.65625 0.40625 -1.03125q0.421875 -0.375 1.0 -0.375q0.5625 0 0.96875 0.375q0.40625 0.375 0.40625 1.03125zm5.0710144 10.984375q0.90625 0 1.3125 -0.203125q0.40625 -0.21875 0.40625 -0.75q0 -0.484375 -0.4375 -0.796875q-0.4375 -0.3125 -1.4375 -0.6875q-0.625 -0.234375 -1.140625 -0.484375q-0.5 -0.25 -0.875 -0.578125q-0.375 -0.34375 -0.59375 -0.8125q-0.21875 -0.484375 -0.21875 -1.171875q0 -1.34375 0.984375 -2.109375q1.0 -0.78125 2.703125 -0.78125q0.84375 0 1.625 0.15625q0.796875 0.15625 1.1875 0.3125l-0.40625 1.828125q-0.375 -0.171875 -0.953125 -0.3125q-0.578125 -0.140625 -1.34375 -0.140625q-0.6875 0 -1.125 0.234375q-0.421875 0.234375 -0.421875 0.71875q0 0.25 0.078125 0.4375q0.078125 0.1875 0.28125 0.34375q0.21875 0.15625 0.546875 0.3125q0.34375 0.15625 0.828125 0.328125q0.796875 0.296875 1.359375 0.59375q0.5625 0.28125 0.921875 0.65625q0.359375 0.359375 0.53125 0.828125q0.171875 0.453125 0.171875 1.109375q0 1.40625 -1.046875 2.125q-1.03125 0.71875 -2.953125 0.71875q-1.28125 0 -2.078125 -0.21875q-0.78125 -0.21875 -1.09375 -0.34375l0.390625 -1.890625q0.5 0.203125 1.203125 0.390625q0.703125 0.1875 1.59375 0.1875zm5.5415344 -3.203125q0 -1.296875 0.375 -2.265625q0.390625 -0.96875 1.015625 -1.609375q0.640625 -0.640625 1.46875 -0.96875q0.828125 -0.328125 1.671875 -0.328125q2.015625 0 3.140625 1.25q1.140625 1.25 1.140625 3.734375q0 0.1875 -0.015625 0.421875q0 0.234375 -0.03125 0.421875l-6.421875 0q0.09375 1.171875 0.828125 1.8125q0.734375 0.640625 2.125 0.640625q0.828125 0 1.5 -0.140625q0.6875 -0.15625 1.078125 -0.328125l0.296875 1.859375q-0.1875 0.078125 -0.515625 0.1875q-0.3125 0.109375 -0.734375 0.1875q-0.421875 0.078125 -0.90625 0.140625q-0.484375 0.0625 -1.0 0.0625q-1.28125 0 -2.234375 -0.375q-0.953125 -0.390625 -1.5625 -1.078125q-0.609375 -0.6875 -0.921875 -1.609375q-0.296875 -0.921875 -0.296875 -2.015625zm6.546875 -1.015625q0 -0.46875 -0.125 -0.875q-0.125 -0.421875 -0.390625 -0.734375q-0.25 -0.3125 -0.609375 -0.484375q-0.359375 -0.171875 -0.859375 -0.171875q-0.53125 0 -0.921875 0.203125q-0.390625 0.1875 -0.671875 0.5q-0.265625 0.3125 -0.421875 0.734375q-0.140625 0.40625 -0.1875 0.828125l4.1875 0z" fill-rule="nonzero"/><path fill="#000000" fill-opacity="0.0" d="m157.38426 183.43832c20.112244 0 30.169373 0.01574707 40.224487 0.03149414c10.05513 0.01574707 20.10823 0.03149414 40.21646 0.03149414" fill-rule="evenodd"/><path stroke="#434343" stroke-width="1.0" stroke-linejoin="round" stroke-linecap="butt" d="m157.38426 183.43832c20.112259 0 30.169373 0.01574707 40.224503 0.03149414c5.0275574 0.007873535 10.054626 0.01574707 16.338318 0.021652222c3.1418304 0.0029449463 6.5978394 0.00541687 10.5251465 0.0071411133l7.3529816 0.0014953613" fill-rule="evenodd"/><path fill="#434343" stroke="#434343" stroke-width="1.0" stroke-linecap="butt" d="m231.82487 185.15182l4.538437 -1.6508026l-4.5377655 -1.6526642z" fill-rule="evenodd"/><path fill="#000000" fill-opacity="0.0" d="m157.38426 268.53018c20.112259 0 30.169388 -21.275589 40.224503 -42.551178c10.055115 -21.275589 20.108215 -42.551178 40.216446 -42.551178" fill-rule="evenodd"/><path stroke="#434343" stroke-width="1.0" stroke-linejoin="round" stroke-linecap="butt" d="m157.38426 268.53018c20.112259 0 30.169388 -21.275589 40.224503 -42.551178c10.055115 -21.275589 20.108215 -42.551178 40.216446 -42.551178" fill-rule="evenodd"/><path fill="#d9ead3" d="m426.21188 160.32043l0 0c0 -6.384018 5.1752625 -11.55928 11.559296 -11.55928l133.16492 0c3.0656738 0 6.0058594 1.2178497 8.173645 3.3856354c2.1677856 2.1677856 3.38562 5.1079407 3.38562 8.173645l0 46.235764c0 6.384018 -5.175293 11.55928 -11.559265 11.55928l-133.16492 0c-6.384033 0 -11.559296 -5.1752625 -11.559296 -11.55928z" fill-rule="evenodd"/><path stroke="#434343" stroke-width="2.0" stroke-linejoin="round" stroke-linecap="butt" d="m426.21188 160.32043l0 0c0 -6.384018 5.1752625 -11.55928 11.559296 -11.55928l133.16492 0c3.0656738 0 6.0058594 1.2178497 8.173645 3.3856354c2.1677856 2.1677856 3.38562 5.1079407 3.38562 8.173645l0 46.235764c0 6.384018 -5.175293 11.55928 -11.559265 11.55928l-133.16492 0c-6.384033 0 -11.559296 -5.1752625 -11.559296 -11.55928z" fill-rule="evenodd"/><path fill="#000000" d="m467.1576 185.48332q0 -1.078125 0.328125 -2.015625q0.34375 -0.9375 0.96875 -1.625q0.625 -0.703125 1.515625 -1.09375q0.90625 -0.390625 2.03125 -0.390625q1.375 0 2.609375 0.5l-0.484375 1.84375q-0.390625 -0.15625 -0.890625 -0.265625q-0.5 -0.125 -1.0625 -0.125q-1.3125 0 -2.015625 0.84375q-0.6875 0.828125 -0.6875 2.328125q0 1.453125 0.65625 2.3125q0.65625 0.84375 2.203125 0.84375q0.578125 0 1.140625 -0.109375q0.5625 -0.109375 0.96875 -0.28125l0.3125 1.859375q-0.375 0.1875 -1.125 0.34375q-0.75 0.15625 -1.5625 0.15625q-1.25 0 -2.171875 -0.375q-0.921875 -0.390625 -1.53125 -1.078125q-0.59375 -0.6875 -0.90625 -1.625q-0.296875 -0.9375 -0.296875 -2.046875zm17.975433 -0.015625q0 1.15625 -0.34375 2.109375q-0.328125 0.953125 -0.953125 1.625q-0.609375 0.671875 -1.484375 1.046875q-0.859375 0.375 -1.90625 0.375q-1.046875 0 -1.90625 -0.375q-0.859375 -0.375 -1.484375 -1.046875q-0.609375 -0.671875 -0.953125 -1.625q-0.34375 -0.953125 -0.34375 -2.109375q0 -1.15625 0.34375 -2.09375q0.34375 -0.9375 0.96875 -1.609375q0.625 -0.671875 1.484375 -1.03125q0.859375 -0.375 1.890625 -0.375q1.03125 0 1.890625 0.375q0.875 0.359375 1.484375 1.03125q0.625 0.671875 0.96875 1.609375q0.34375 0.9375 0.34375 2.09375zm-2.3125 0q0 -1.453125 -0.625 -2.296875q-0.625 -0.859375 -1.75 -0.859375q-1.125 0 -1.75 0.859375q-0.625 0.84375 -0.625 2.296875q0 1.46875 0.625 2.328125q0.625 0.859375 1.75 0.859375q1.125 0 1.75 -0.859375q0.625 -0.859375 0.625 -2.328125zm10.203308 -0.234375q0 -1.53125 -0.390625 -2.203125q-0.375 -0.6875 -1.421875 -0.6875q-0.375 0 -0.828125 0.0625q-0.4375 0.046875 -0.671875 0.078125l0 7.875l-2.25 0l0 -9.4375q0.65625 -0.1875 1.703125 -0.359375q1.0625 -0.171875 2.234375 -0.171875q1.0 0 1.640625 0.265625q0.65625 0.265625 1.078125 0.6875q0.203125 -0.140625 0.515625 -0.3125q0.328125 -0.171875 0.71875 -0.3125q0.390625 -0.140625 0.828125 -0.234375q0.4375 -0.09375 0.890625 -0.09375q1.140625 0 1.875 0.328125q0.734375 0.328125 1.15625 0.921875q0.421875 0.578125 0.578125 1.421875q0.15625 0.828125 0.15625 1.8125l0 5.484375l-2.25 0l0 -5.125q0 -1.53125 -0.375 -2.203125q-0.375 -0.6875 -1.4375 -0.6875q-0.546875 0 -1.03125 0.171875q-0.484375 0.171875 -0.71875 0.34375q0.140625 0.46875 0.1875 1.0q0.0625 0.515625 0.0625 1.109375l0 5.390625l-2.25 0l0 -5.125zm17.043915 0.296875q0 -1.515625 -0.6875 -2.34375q-0.671875 -0.84375 -2.1875 -0.84375q-0.3125 0 -0.65625 0.03125q-0.34375 0.015625 -0.6875 0.109375l0 5.578125q0.3125 0.203125 0.796875 0.390625q0.5 0.171875 1.0625 0.171875q1.21875 0 1.78125 -0.84375q0.578125 -0.84375 0.578125 -2.25zm2.3125 -0.046875q0 1.125 -0.296875 2.0625q-0.28125 0.921875 -0.828125 1.59375q-0.53125 0.671875 -1.34375 1.046875q-0.8125 0.375 -1.84375 0.375q-0.6875 0 -1.265625 -0.171875q-0.578125 -0.15625 -0.953125 -0.359375l0 3.78125l-2.25 0l0 -12.890625q0.6875 -0.1875 1.6875 -0.359375q1.015625 -0.171875 2.140625 -0.171875q1.15625 0 2.0625 0.359375q0.921875 0.359375 1.5625 1.03125q0.640625 0.65625 0.984375 1.59375q0.34375 0.9375 0.34375 2.109375zm10.337891 4.578125q-0.65625 0.171875 -1.703125 0.34375q-1.03125 0.171875 -2.28125 0.171875q-1.1875 0 -1.984375 -0.328125q-0.78125 -0.34375 -1.265625 -0.9375q-0.46875 -0.59375 -0.671875 -1.421875q-0.203125 -0.828125 -0.203125 -1.828125l0 -5.453125l2.25 0l0 5.109375q0 1.5625 0.453125 2.234375q0.46875 0.671875 1.609375 0.671875q0.40625 0 0.859375 -0.03125q0.453125 -0.046875 0.6875 -0.09375l0 -7.890625l2.25 0l0 9.453125zm2.767212 -12.03125l2.25 -0.375l0 2.953125l3.46875 0l0 1.875l-3.46875 0l0 3.96875q0 1.1875 0.375 1.6875q0.375 0.5 1.265625 0.5q0.625 0 1.09375 -0.125q0.484375 -0.140625 0.765625 -0.25l0.359375 1.796875q-0.390625 0.171875 -1.03125 0.34375q-0.625 0.171875 -1.484375 0.171875q-1.046875 0 -1.75 -0.265625q-0.6875 -0.28125 -1.109375 -0.8125q-0.40625 -0.546875 -0.578125 -1.296875q-0.15625 -0.75 -0.15625 -1.71875l0 -8.453125zm7.19281 7.5q0 -1.296875 0.375 -2.265625q0.390625 -0.96875 1.015625 -1.609375q0.640625 -0.640625 1.46875 -0.96875q0.828125 -0.328125 1.671875 -0.328125q2.015625 0 3.140625 1.25q1.140625 1.25 1.140625 3.734375q0 0.1875 -0.015625 0.421875q0 0.234375 -0.03125 0.421875l-6.421875 0q0.09375 1.171875 0.828125 1.8125q0.734375 0.640625 2.125 0.640625q0.828125 0 1.5 -0.140625q0.6875 -0.15625 1.078125 -0.328125l0.296875 1.859375q-0.1875 0.078125 -0.515625 0.1875q-0.3125 0.109375 -0.734375 0.1875q-0.421875 0.078125 -0.90625 0.140625q-0.484375 0.0625 -1.0 0.0625q-1.28125 0 -2.234375 -0.375q-0.953125 -0.390625 -1.5625 -1.078125q-0.609375 -0.6875 -0.921875 -1.609375q-0.296875 -0.921875 -0.296875 -2.015625zm6.546875 -1.015625q0 -0.46875 -0.125 -0.875q-0.125 -0.421875 -0.390625 -0.734375q-0.25 -0.3125 -0.609375 -0.484375q-0.359375 -0.171875 -0.859375 -0.171875q-0.53125 0 -0.921875 0.203125q-0.390625 0.1875 -0.671875 0.5q-0.265625 0.3125 -0.421875 0.734375q-0.140625 0.40625 -0.1875 0.828125l4.1875 0z" fill-rule="nonzero"/><path fill="#000000" fill-opacity="0.0" d="m394.1172 183.43832c8.023621 0 12.035431 0.01574707 16.047241 0.03149414c4.0118103 0.01574707 8.023621 0.03149414 16.047241 0.03149414" fill-rule="evenodd"/><path stroke="#434343" stroke-width="1.0" stroke-linejoin="round" stroke-linecap="butt" d="m394.11716 183.43832c8.023621 0 12.035431 0.01574707 16.047241 0.03149414c2.0059204 0.007873535 4.0118103 0.01574707 6.5191956 0.021652222l3.5280762 0.0059814453" fill-rule="evenodd"/><path fill="#434343" stroke="#434343" stroke-width="1.0" stroke-linecap="butt" d="m420.2106 185.1492l4.539154 -1.648819l-4.5370483 -1.6546478z" fill-rule="evenodd"/><path fill="#efefef" d="m657.89777 75.22858l0 0c0 -6.384018 5.175232 -11.559284 11.559265 -11.559284l120.75543 0c3.0657349 0 6.0058594 1.2178459 8.173645 3.3856392c2.1677856 2.1677856 3.38562 5.107933 3.38562 8.173645l0 46.235756c0 6.384018 -5.175232 11.559288 -11.559265 11.559288l-120.75543 0c-6.384033 0 -11.559265 -5.17527 -11.559265 -11.559288z" fill-rule="evenodd"/><path stroke="#434343" stroke-width="2.0" stroke-linejoin="round" stroke-linecap="butt" d="m657.89777 75.22858l0 0c0 -6.384018 5.175232 -11.559284 11.559265 -11.559284l120.75543 0c3.0657349 0 6.0058594 1.2178459 8.173645 3.3856392c2.1677856 2.1677856 3.38562 5.107933 3.38562 8.173645l0 46.235756c0 6.384018 -5.175232 11.559288 -11.559265 11.559288l-120.75543 0c-6.384033 0 -11.559265 -5.17527 -11.559265 -11.559288z" fill-rule="evenodd"/><path fill="#000000" d="m682.3568 99.93958q0 1.078125 -0.3125 1.96875q-0.3125 0.875 -0.890625 1.5q-0.5625 0.625 -1.375 0.984375q-0.796875 0.34375 -1.765625 0.34375q-0.984375 0 -1.78125 -0.34375q-0.796875 -0.359375 -1.375 -0.984375q-0.5625 -0.625 -0.890625 -1.5q-0.3125 -0.890625 -0.3125 -1.96875q0 -1.0625 0.3125 -1.9375q0.328125 -0.875 0.90625 -1.5q0.59375 -0.625 1.390625 -0.953125q0.796875 -0.34375 1.75 -0.34375q0.953125 0 1.75 0.34375q0.8125 0.328125 1.375 0.953125q0.578125 0.625 0.890625 1.5q0.328125 0.875 0.328125 1.9375zm-2.15625 0q0 -1.34375 -0.578125 -2.125q-0.578125 -0.796875 -1.609375 -0.796875q-1.046875 0 -1.625 0.796875q-0.578125 0.78125 -0.578125 2.125q0 1.375 0.578125 2.171875q0.578125 0.796875 1.625 0.796875q1.03125 0 1.609375 -0.796875q0.578125 -0.796875 0.578125 -2.171875zm11.752747 4.265625q-0.609375 0.15625 -1.578125 0.3125q-0.96875 0.171875 -2.125 0.171875q-1.09375 0 -1.828125 -0.3125q-0.734375 -0.3125 -1.1875 -0.859375q-0.4375 -0.5625 -0.625 -1.328125q-0.1875 -0.765625 -0.1875 -1.6875l0 -5.078125l2.09375 0l0 4.75q0 1.453125 0.421875 2.078125q0.421875 0.625 1.484375 0.625q0.375 0 0.796875 -0.03125q0.4375 -0.046875 0.640625 -0.09375l0 -7.328125l2.09375 0l0 8.78125zm2.570984 -11.171875l2.09375 -0.34375l0 2.734375l3.21875 0l0 1.75l-3.21875 0l0 3.6875q0 1.09375 0.34375 1.5625q0.34375 0.46875 1.1875 0.46875q0.5625 0 1.0 -0.125q0.453125 -0.125 0.703125 -0.21875l0.34375 1.65625q-0.359375 0.15625 -0.953125 0.3125q-0.578125 0.171875 -1.375 0.171875q-0.96875 0 -1.625 -0.25q-0.65625 -0.265625 -1.03125 -0.75q-0.375 -0.5 -0.53125 -1.203125q-0.15625 -0.703125 -0.15625 -1.609375l0 -7.84375zm13.352539 6.96875q0 -1.40625 -0.640625 -2.1875q-0.625 -0.78125 -2.03125 -0.78125q-0.28125 0 -0.609375 0.03125q-0.3125 0.015625 -0.625 0.109375l0 5.1875q0.265625 0.1875 0.71875 0.359375q0.46875 0.15625 0.984375 0.15625q1.15625 0 1.671875 -0.78125q0.53125 -0.78125 0.53125 -2.09375zm2.15625 -0.03125q0 1.03125 -0.28125 1.90625q-0.265625 0.859375 -0.765625 1.484375q-0.5 0.625 -1.25 0.96875q-0.75 0.34375 -1.703125 0.34375q-0.640625 0 -1.1875 -0.15625q-0.53125 -0.15625 -0.875 -0.34375l0 3.515625l-2.109375 0l0 -11.96875q0.640625 -0.171875 1.578125 -0.328125q0.9375 -0.15625 1.984375 -0.15625q1.0625 0 1.90625 0.328125q0.859375 0.328125 1.453125 0.953125q0.609375 0.609375 0.921875 1.484375q0.328125 0.875 0.328125 1.96875zm9.593079 4.234375q-0.609375 0.15625 -1.578125 0.3125q-0.96875 0.171875 -2.125 0.171875q-1.09375 0 -1.828125 -0.3125q-0.734375 -0.3125 -1.1875 -0.859375q-0.4375 -0.5625 -0.625 -1.328125q-0.1875 -0.765625 -0.1875 -1.6875l0 -5.078125l2.09375 0l0 4.75q0 1.453125 0.421875 2.078125q0.421875 0.625 1.484375 0.625q0.375 0 0.796875 -0.03125q0.4375 -0.046875 0.640625 -0.09375l0 -7.328125l2.09375 0l0 8.78125zm2.570984 -11.171875l2.09375 -0.34375l0 2.734375l3.21875 0l0 1.75l-3.21875 0l0 3.6875q0 1.09375 0.34375 1.5625q0.34375 0.46875 1.1875 0.46875q0.5625 0 1.0 -0.125q0.453125 -0.125 0.703125 -0.21875l0.34375 1.65625q-0.359375 0.15625 -0.953125 0.3125q-0.578125 0.171875 -1.375 0.171875q-0.96875 0 -1.625 -0.25q-0.65625 -0.265625 -1.03125 -0.75q-0.375 -0.5 -0.53125 -1.203125q-0.15625 -0.703125 -0.15625 -1.609375l0 -7.84375zm11.374329 2.6875q0.609375 -0.171875 1.578125 -0.328125q0.96875 -0.15625 2.15625 -0.15625q1.109375 0 1.84375 0.3125q0.75 0.296875 1.1875 0.84375q0.453125 0.53125 0.625 1.3125q0.1875 0.765625 0.1875 1.6875l0 5.09375l-2.09375 0l0 -4.765625q0 -0.734375 -0.09375 -1.234375q-0.09375 -0.515625 -0.3125 -0.828125q-0.21875 -0.328125 -0.59375 -0.46875q-0.375 -0.15625 -0.90625 -0.15625q-0.40625 0 -0.84375 0.0625q-0.421875 0.046875 -0.625 0.078125l0 7.3125l-2.109375 0l0 -8.765625zm18.340027 4.21875q0 1.078125 -0.3125 1.96875q-0.3125 0.875 -0.890625 1.5q-0.5625 0.625 -1.375 0.984375q-0.796875 0.34375 -1.765625 0.34375q-0.984375 0 -1.78125 -0.34375q-0.796875 -0.359375 -1.375 -0.984375q-0.5625 -0.625 -0.890625 -1.5q-0.3125 -0.890625 -0.3125 -1.96875q0 -1.0625 0.3125 -1.9375q0.328125 -0.875 0.90625 -1.5q0.59375 -0.625 1.390625 -0.953125q0.796875 -0.34375 1.75 -0.34375q0.953125 0 1.75 0.34375q0.8125 0.328125 1.375 0.953125q0.578125 0.625 0.890625 1.5q0.328125 0.875 0.328125 1.9375zm-2.15625 0q0 -1.34375 -0.578125 -2.125q-0.578125 -0.796875 -1.609375 -0.796875q-1.046875 0 -1.625 0.796875q-0.578125 0.78125 -0.578125 2.125q0 1.375 0.578125 2.171875q0.578125 0.796875 1.625 0.796875q1.03125 0 1.609375 -0.796875q0.578125 -0.796875 0.578125 -2.171875zm5.9714966 -0.015625q0 1.390625 0.65625 2.1875q0.65625 0.78125 1.8125 0.78125q0.5 0 0.859375 -0.046875q0.359375 -0.046875 0.578125 -0.09375l0 -5.203125q-0.265625 -0.1875 -0.734375 -0.34375q-0.453125 -0.171875 -0.96875 -0.171875q-1.15625 0 -1.6875 0.78125q-0.515625 0.78125 -0.515625 2.109375zm6.015625 4.28125q-0.625 0.1875 -1.578125 0.34375q-0.9375 0.15625 -1.984375 0.15625q-1.078125 0 -1.921875 -0.328125q-0.84375 -0.328125 -1.453125 -0.9375q-0.59375 -0.609375 -0.921875 -1.484375q-0.3125 -0.875 -0.3125 -1.96875q0 -1.078125 0.265625 -1.953125q0.28125 -0.875 0.796875 -1.5q0.515625 -0.625 1.265625 -0.953125q0.75 -0.34375 1.71875 -0.34375q0.65625 0 1.15625 0.15625q0.5 0.15625 0.859375 0.34375l0 -4.34375l2.109375 -0.359375l0 13.171875zm2.1556396 -4.203125q0 -1.203125 0.359375 -2.09375q0.359375 -0.90625 0.9375 -1.5q0.59375 -0.609375 1.359375 -0.90625q0.765625 -0.296875 1.5625 -0.296875q1.859375 0 2.90625 1.15625q1.0625 1.15625 1.0625 3.46875q0 0.171875 -0.015625 0.390625q0 0.203125 -0.03125 0.390625l-5.96875 0q0.078125 1.078125 0.765625 1.6875q0.6875 0.59375 1.984375 0.59375q0.765625 0 1.390625 -0.140625q0.640625 -0.140625 1.0 -0.296875l0.28125 1.71875q-0.171875 0.09375 -0.484375 0.1875q-0.296875 0.09375 -0.6875 0.171875q-0.390625 0.078125 -0.84375 0.125q-0.453125 0.046875 -0.90625 0.046875q-1.203125 0 -2.09375 -0.34375q-0.875 -0.359375 -1.453125 -0.984375q-0.5625 -0.640625 -0.84375 -1.5q-0.28125 -0.859375 -0.28125 -1.875zm6.078125 -0.9375q0 -0.4375 -0.125 -0.828125q-0.109375 -0.390625 -0.34375 -0.671875q-0.234375 -0.28125 -0.578125 -0.4375q-0.328125 -0.171875 -0.796875 -0.171875q-0.484375 0 -0.859375 0.1875q-0.359375 0.171875 -0.609375 0.46875q-0.25 0.296875 -0.390625 0.671875q-0.140625 0.375 -0.1875 0.78125l3.890625 0zm8.587952 -4.09375q1.0 -0.390625 2.015625 -1.015625q1.015625 -0.625 1.796875 -1.484375l1.46875 0l0 12.015625l-2.09375 0l0 -9.203125q-0.46875 0.359375 -1.1875 0.71875q-0.703125 0.34375 -1.359375 0.5625l-0.640625 -1.59375z" fill-rule="nonzero"/><path fill="#efefef" d="m657.8975 160.32043l0 0c0 -6.384018 5.175232 -11.55928 11.559265 -11.55928l120.75543 0c3.0657349 0 6.0058594 1.2178497 8.173645 3.3856354c2.1677856 2.1677856 3.3856812 5.1079407 3.3856812 8.173645l0 46.235764c0 6.384018 -5.175293 11.55928 -11.559326 11.55928l-120.75543 0c-6.384033 0 -11.559265 -5.1752625 -11.559265 -11.55928z" fill-rule="evenodd"/><path stroke="#434343" stroke-width="2.0" stroke-linejoin="round" stroke-linecap="butt" d="m657.8975 160.32043l0 0c0 -6.384018 5.175232 -11.55928 11.559265 -11.55928l120.75543 0c3.0657349 0 6.0058594 1.2178497 8.173645 3.3856354c2.1677856 2.1677856 3.3856812 5.1079407 3.3856812 8.173645l0 46.235764c0 6.384018 -5.175293 11.55928 -11.559326 11.55928l-120.75543 0c-6.384033 0 -11.559265 -5.1752625 -11.559265 -11.55928z" fill-rule="evenodd"/><path fill="#000000" d="m682.35657 185.03145q0 1.078125 -0.3125 1.96875q-0.3125 0.875 -0.890625 1.5q-0.5625 0.625 -1.375 0.984375q-0.796875 0.34375 -1.765625 0.34375q-0.984375 0 -1.78125 -0.34375q-0.796875 -0.359375 -1.375 -0.984375q-0.5625 -0.625 -0.890625 -1.5q-0.3125 -0.890625 -0.3125 -1.96875q0 -1.0625 0.3125 -1.9375q0.328125 -0.875 0.90625 -1.5q0.59375 -0.625 1.390625 -0.953125q0.796875 -0.34375 1.75 -0.34375q0.953125 0 1.75 0.34375q0.8125 0.328125 1.375 0.953125q0.578125 0.625 0.890625 1.5q0.328125 0.875 0.328125 1.9375zm-2.15625 0q0 -1.34375 -0.578125 -2.125q-0.578125 -0.796875 -1.609375 -0.796875q-1.046875 0 -1.625 0.796875q-0.578125 0.78125 -0.578125 2.125q0 1.375 0.578125 2.171875q0.578125 0.796875 1.625 0.796875q1.03125 0 1.609375 -0.796875q0.578125 -0.796875 0.578125 -2.171875zm11.752808 4.265625q-0.609375 0.15625 -1.578125 0.3125q-0.96875 0.171875 -2.125 0.171875q-1.09375 0 -1.828125 -0.3125q-0.734375 -0.3125 -1.1875 -0.859375q-0.4375 -0.5625 -0.625 -1.328125q-0.1875 -0.765625 -0.1875 -1.6875l0 -5.078125l2.09375 0l0 4.75q0 1.453125 0.421875 2.078125q0.421875 0.625 1.484375 0.625q0.375 0 0.796875 -0.03125q0.4375 -0.046875 0.640625 -0.09375l0 -7.328125l2.09375 0l0 8.78125zm2.570984 -11.171875l2.09375 -0.34375l0 2.734375l3.21875 0l0 1.75l-3.21875 0l0 3.6875q0 1.09375 0.34375 1.5625q0.34375 0.46875 1.1875 0.46875q0.5625 0 1.0 -0.125q0.453125 -0.125 0.703125 -0.21875l0.34375 1.65625q-0.359375 0.15625 -0.953125 0.3125q-0.578125 0.171875 -1.375 0.171875q-0.96875 0 -1.625 -0.25q-0.65625 -0.265625 -1.03125 -0.75q-0.375 -0.5 -0.53125 -1.203125q-0.15625 -0.703125 -0.15625 -1.609375l0 -7.84375zm13.352478 6.96875q0 -1.40625 -0.640625 -2.1875q-0.625 -0.78125 -2.03125 -0.78125q-0.28125 0 -0.609375 0.03125q-0.3125 0.015625 -0.625 0.109375l0 5.1875q0.265625 0.1875 0.71875 0.359375q0.46875 0.15625 0.984375 0.15625q1.15625 0 1.671875 -0.78125q0.53125 -0.78125 0.53125 -2.09375zm2.15625 -0.03125q0 1.03125 -0.28125 1.90625q-0.265625 0.859375 -0.765625 1.484375q-0.5 0.625 -1.25 0.96875q-0.75 0.34375 -1.703125 0.34375q-0.640625 0 -1.1875 -0.15625q-0.53125 -0.15625 -0.875 -0.34375l0 3.515625l-2.109375 0l0 -11.96875q0.640625 -0.171875 1.578125 -0.328125q0.9375 -0.15625 1.984375 -0.15625q1.0625 0 1.90625 0.328125q0.859375 0.328125 1.453125 0.953125q0.609375 0.609375 0.921875 1.484375q0.328125 0.875 0.328125 1.96875zm9.59314 4.234375q-0.609375 0.15625 -1.578125 0.3125q-0.96875 0.171875 -2.125 0.171875q-1.09375 0 -1.828125 -0.3125q-0.734375 -0.3125 -1.1875 -0.859375q-0.4375 -0.5625 -0.625 -1.328125q-0.1875 -0.765625 -0.1875 -1.6875l0 -5.078125l2.09375 0l0 4.75q0 1.453125 0.421875 2.078125q0.421875 0.625 1.484375 0.625q0.375 0 0.796875 -0.03125q0.4375 -0.046875 0.640625 -0.09375l0 -7.328125l2.09375 0l0 8.78125zm2.570984 -11.171875l2.09375 -0.34375l0 2.734375l3.21875 0l0 1.75l-3.21875 0l0 3.6875q0 1.09375 0.34375 1.5625q0.34375 0.46875 1.1875 0.46875q0.5625 0 1.0 -0.125q0.453125 -0.125 0.703125 -0.21875l0.34375 1.65625q-0.359375 0.15625 -0.953125 0.3125q-0.578125 0.171875 -1.375 0.171875q-0.96875 0 -1.625 -0.25q-0.65625 -0.265625 -1.03125 -0.75q-0.375 -0.5 -0.53125 -1.203125q-0.15625 -0.703125 -0.15625 -1.609375l0 -7.84375zm11.374268 2.6875q0.609375 -0.171875 1.578125 -0.328125q0.96875 -0.15625 2.15625 -0.15625q1.109375 0 1.84375 0.3125q0.75 0.296875 1.1875 0.84375q0.453125 0.53125 0.625 1.3125q0.1875 0.765625 0.1875 1.6875l0 5.09375l-2.09375 0l0 -4.765625q0 -0.734375 -0.09375 -1.234375q-0.09375 -0.515625 -0.3125 -0.828125q-0.21875 -0.328125 -0.59375 -0.46875q-0.375 -0.15625 -0.90625 -0.15625q-0.40625 0 -0.84375 0.0625q-0.421875 0.046875 -0.625 0.078125l0 7.3125l-2.109375 0l0 -8.765625zm18.340027 4.21875q0 1.078125 -0.3125 1.96875q-0.3125 0.875 -0.890625 1.5q-0.5625 0.625 -1.375 0.984375q-0.796875 0.34375 -1.765625 0.34375q-0.984375 0 -1.78125 -0.34375q-0.796875 -0.359375 -1.375 -0.984375q-0.5625 -0.625 -0.890625 -1.5q-0.3125 -0.890625 -0.3125 -1.96875q0 -1.0625 0.3125 -1.9375q0.328125 -0.875 0.90625 -1.5q0.59375 -0.625 1.390625 -0.953125q0.796875 -0.34375 1.75 -0.34375q0.953125 0 1.75 0.34375q0.8125 0.328125 1.375 0.953125q0.578125 0.625 0.890625 1.5q0.328125 0.875 0.328125 1.9375zm-2.15625 0q0 -1.34375 -0.578125 -2.125q-0.578125 -0.796875 -1.609375 -0.796875q-1.046875 0 -1.625 0.796875q-0.578125 0.78125 -0.578125 2.125q0 1.375 0.578125 2.171875q0.578125 0.796875 1.625 0.796875q1.03125 0 1.609375 -0.796875q0.578125 -0.796875 0.578125 -2.171875zm5.9714966 -0.015625q0 1.390625 0.65625 2.1875q0.65625 0.78125 1.8125 0.78125q0.5 0 0.859375 -0.046875q0.359375 -0.046875 0.578125 -0.09375l0 -5.203125q-0.265625 -0.1875 -0.734375 -0.34375q-0.453125 -0.171875 -0.96875 -0.171875q-1.15625 0 -1.6875 0.78125q-0.515625 0.78125 -0.515625 2.109375zm6.015625 4.28125q-0.625 0.1875 -1.578125 0.34375q-0.9375 0.15625 -1.984375 0.15625q-1.078125 0 -1.921875 -0.328125q-0.84375 -0.328125 -1.453125 -0.9375q-0.59375 -0.609375 -0.921875 -1.484375q-0.3125 -0.875 -0.3125 -1.96875q0 -1.078125 0.265625 -1.953125q0.28125 -0.875 0.796875 -1.5q0.515625 -0.625 1.265625 -0.953125q0.75 -0.34375 1.71875 -0.34375q0.65625 0 1.15625 0.15625q0.5 0.15625 0.859375 0.34375l0 -4.34375l2.109375 -0.359375l0 13.171875zm2.1556396 -4.203125q0 -1.203125 0.359375 -2.09375q0.359375 -0.90625 0.9375 -1.5q0.59375 -0.609375 1.359375 -0.90625q0.765625 -0.296875 1.5625 -0.296875q1.859375 0 2.90625 1.15625q1.0625 1.15625 1.0625 3.46875q0 0.171875 -0.015625 0.390625q0 0.203125 -0.03125 0.390625l-5.96875 0q0.078125 1.078125 0.765625 1.6875q0.6875 0.59375 1.984375 0.59375q0.765625 0 1.390625 -0.140625q0.640625 -0.140625 1.0 -0.296875l0.28125 1.71875q-0.171875 0.09375 -0.484375 0.1875q-0.296875 0.09375 -0.6875 0.171875q-0.390625 0.078125 -0.84375 0.125q-0.453125 0.046875 -0.90625 0.046875q-1.203125 0 -2.09375 -0.34375q-0.875 -0.359375 -1.453125 -0.984375q-0.5625 -0.640625 -0.84375 -1.5q-0.28125 -0.859375 -0.28125 -1.875zm6.078125 -0.9375q0 -0.4375 -0.125 -0.828125q-0.109375 -0.390625 -0.34375 -0.671875q-0.234375 -0.28125 -0.578125 -0.4375q-0.328125 -0.171875 -0.796875 -0.171875q-0.484375 0 -0.859375 0.1875q-0.359375 0.171875 -0.609375 0.46875q-0.25 0.296875 -0.390625 0.671875q-0.140625 0.375 -0.1875 0.78125l3.890625 0zm15.353638 -3.46875q0 0.625 -0.265625 1.234375q-0.25 0.59375 -0.65625 1.15625q-0.40625 0.5625 -0.9375 1.09375q-0.515625 0.515625 -1.03125 1.015625q-0.28125 0.265625 -0.625 0.640625q-0.34375 0.359375 -0.65625 0.71875q-0.3125 0.359375 -0.546875 0.703125q-0.21875 0.328125 -0.234375 0.5625l5.34375 0l0 1.765625l-7.640625 0q-0.015625 -0.140625 -0.015625 -0.328125q0 -0.203125 0 -0.3125q0 -0.828125 0.265625 -1.53125q0.265625 -0.703125 0.6875 -1.3125q0.4375 -0.609375 0.96875 -1.140625q0.546875 -0.53125 1.09375 -1.0625q0.40625 -0.390625 0.78125 -0.765625q0.390625 -0.390625 0.671875 -0.765625q0.296875 -0.375 0.46875 -0.765625q0.171875 -0.390625 0.171875 -0.796875q0 -0.90625 -0.53125 -1.28125q-0.515625 -0.390625 -1.25 -0.390625q-0.484375 0 -0.90625 0.140625q-0.421875 0.140625 -0.75 0.328125q-0.3125 0.1875 -0.5625 0.390625q-0.234375 0.203125 -0.359375 0.328125l-1.03125 -1.484375q0.71875 -0.6875 1.703125 -1.109375q0.984375 -0.421875 2.109375 -0.421875q1.921875 0 2.828125 0.90625q0.90625 0.90625 0.90625 2.484375z" fill-rule="nonzero"/><path fill="#efefef" d="m657.8975 245.41231l0 0c0 -6.384018 5.175232 -11.559296 11.559265 -11.559296l120.75543 0c3.0657349 0 6.0058594 1.2178497 8.173645 3.3856354c2.1677856 2.167801 3.3856812 5.1079407 3.3856812 8.17366l0 46.235764c0 6.3840027 -5.175293 11.559265 -11.559326 11.559265l-120.75543 0c-6.384033 0 -11.559265 -5.1752625 -11.559265 -11.559265z" fill-rule="evenodd"/><path stroke="#434343" stroke-width="2.0" stroke-linejoin="round" stroke-linecap="butt" d="m657.8975 245.41231l0 0c0 -6.384018 5.175232 -11.559296 11.559265 -11.559296l120.75543 0c3.0657349 0 6.0058594 1.2178497 8.173645 3.3856354c2.1677856 2.167801 3.3856812 5.1079407 3.3856812 8.17366l0 46.235764c0 6.3840027 -5.175293 11.559265 -11.559326 11.559265l-120.75543 0c-6.384033 0 -11.559265 -5.1752625 -11.559265 -11.559265z" fill-rule="evenodd"/><path fill="#000000" d="m682.2093 270.12332q0 1.078125 -0.3125 1.96875q-0.3125 0.875 -0.890625 1.5q-0.5625 0.625 -1.375 0.984375q-0.796875 0.34375 -1.765625 0.34375q-0.984375 0 -1.78125 -0.34375q-0.796875 -0.359375 -1.375 -0.984375q-0.5625 -0.625 -0.890625 -1.5q-0.3125 -0.890625 -0.3125 -1.96875q0 -1.0625 0.3125 -1.9375q0.328125 -0.875 0.90625 -1.5q0.59375 -0.625 1.390625 -0.953125q0.796875 -0.34375 1.75 -0.34375q0.953125 0 1.75 0.34375q0.8125 0.328125 1.375 0.953125q0.578125 0.625 0.890625 1.5q0.328125 0.875 0.328125 1.9375zm-2.15625 0q0 -1.34375 -0.578125 -2.125q-0.578125 -0.796875 -1.609375 -0.796875q-1.046875 0 -1.625 0.796875q-0.578125 0.78125 -0.578125 2.125q0 1.375 0.578125 2.171875q0.578125 0.796875 1.625 0.796875q1.03125 0 1.609375 -0.796875q0.578125 -0.796875 0.578125 -2.171875zm11.752808 4.265625q-0.609375 0.15625 -1.578125 0.3125q-0.96875 0.171875 -2.125 0.171875q-1.09375 0 -1.828125 -0.3125q-0.734375 -0.3125 -1.1875 -0.859375q-0.4375 -0.5625 -0.625 -1.328125q-0.1875 -0.765625 -0.1875 -1.6875l0 -5.078125l2.09375 0l0 4.75q0 1.453125 0.421875 2.078125q0.421875 0.625 1.484375 0.625q0.375 0 0.796875 -0.03125q0.4375 -0.046875 0.640625 -0.09375l0 -7.328125l2.09375 0l0 8.78125zm2.570984 -11.171875l2.09375 -0.34375l0 2.734375l3.21875 0l0 1.75l-3.21875 0l0 3.6875q0 1.09375 0.34375 1.5625q0.34375 0.46875 1.1875 0.46875q0.5625 0 1.0 -0.125q0.453125 -0.125 0.703125 -0.21875l0.34375 1.65625q-0.359375 0.15625 -0.953125 0.3125q-0.578125 0.171875 -1.375 0.171875q-0.96875 0 -1.625 -0.25q-0.65625 -0.265625 -1.03125 -0.75q-0.375 -0.5 -0.53125 -1.203125q-0.15625 -0.703125 -0.15625 -1.609375l0 -7.84375zm13.352478 6.96875q0 -1.40625 -0.640625 -2.1875q-0.625 -0.78125 -2.03125 -0.78125q-0.28125 0 -0.609375 0.03125q-0.3125 0.015625 -0.625 0.109375l0 5.1875q0.265625 0.1875 0.71875 0.359375q0.46875 0.15625 0.984375 0.15625q1.15625 0 1.671875 -0.78125q0.53125 -0.78125 0.53125 -2.09375zm2.15625 -0.03125q0 1.03125 -0.28125 1.90625q-0.265625 0.859375 -0.765625 1.484375q-0.5 0.625 -1.25 0.96875q-0.75 0.34375 -1.703125 0.34375q-0.640625 0 -1.1875 -0.15625q-0.53125 -0.15625 -0.875 -0.34375l0 3.515625l-2.109375 0l0 -11.96875q0.640625 -0.171875 1.578125 -0.328125q0.9375 -0.15625 1.984375 -0.15625q1.0625 0 1.90625 0.328125q0.859375 0.328125 1.453125 0.953125q0.609375 0.609375 0.921875 1.484375q0.328125 0.875 0.328125 1.96875zm9.59314 4.234375q-0.609375 0.15625 -1.578125 0.3125q-0.96875 0.171875 -2.125 0.171875q-1.09375 0 -1.828125 -0.3125q-0.734375 -0.3125 -1.1875 -0.859375q-0.4375 -0.5625 -0.625 -1.328125q-0.1875 -0.765625 -0.1875 -1.6875l0 -5.078125l2.09375 0l0 4.75q0 1.453125 0.421875 2.078125q0.421875 0.625 1.484375 0.625q0.375 0 0.796875 -0.03125q0.4375 -0.046875 0.640625 -0.09375l0 -7.328125l2.09375 0l0 8.78125zm2.570984 -11.171875l2.09375 -0.34375l0 2.734375l3.21875 0l0 1.75l-3.21875 0l0 3.6875q0 1.09375 0.34375 1.5625q0.34375 0.46875 1.1875 0.46875q0.5625 0 1.0 -0.125q0.453125 -0.125 0.703125 -0.21875l0.34375 1.65625q-0.359375 0.15625 -0.953125 0.3125q-0.578125 0.171875 -1.375 0.171875q-0.96875 0 -1.625 -0.25q-0.65625 -0.265625 -1.03125 -0.75q-0.375 -0.5 -0.53125 -1.203125q-0.15625 -0.703125 -0.15625 -1.609375l0 -7.84375zm11.374268 2.6875q0.609375 -0.171875 1.578125 -0.328125q0.96875 -0.15625 2.15625 -0.15625q1.109375 0 1.84375 0.3125q0.75 0.296875 1.1875 0.84375q0.453125 0.53125 0.625 1.3125q0.1875 0.765625 0.1875 1.6875l0 5.09375l-2.09375 0l0 -4.765625q0 -0.734375 -0.09375 -1.234375q-0.09375 -0.515625 -0.3125 -0.828125q-0.21875 -0.328125 -0.59375 -0.46875q-0.375 -0.15625 -0.90625 -0.15625q-0.40625 0 -0.84375 0.0625q-0.421875 0.046875 -0.625 0.078125l0 7.3125l-2.109375 0l0 -8.765625zm18.340027 4.21875q0 1.078125 -0.3125 1.96875q-0.3125 0.875 -0.890625 1.5q-0.5625 0.625 -1.375 0.984375q-0.796875 0.34375 -1.765625 0.34375q-0.984375 0 -1.78125 -0.34375q-0.796875 -0.359375 -1.375 -0.984375q-0.5625 -0.625 -0.890625 -1.5q-0.3125 -0.890625 -0.3125 -1.96875q0 -1.0625 0.3125 -1.9375q0.328125 -0.875 0.90625 -1.5q0.59375 -0.625 1.390625 -0.953125q0.796875 -0.34375 1.75 -0.34375q0.953125 0 1.75 0.34375q0.8125 0.328125 1.375 0.953125q0.578125 0.625 0.890625 1.5q0.328125 0.875 0.328125 1.9375zm-2.15625 0q0 -1.34375 -0.578125 -2.125q-0.578125 -0.796875 -1.609375 -0.796875q-1.046875 0 -1.625 0.796875q-0.578125 0.78125 -0.578125 2.125q0 1.375 0.578125 2.171875q0.578125 0.796875 1.625 0.796875q1.03125 0 1.609375 -0.796875q0.578125 -0.796875 0.578125 -2.171875zm5.9714966 -0.015625q0 1.390625 0.65625 2.1875q0.65625 0.78125 1.8125 0.78125q0.5 0 0.859375 -0.046875q0.359375 -0.046875 0.578125 -0.09375l0 -5.203125q-0.265625 -0.1875 -0.734375 -0.34375q-0.453125 -0.171875 -0.96875 -0.171875q-1.15625 0 -1.6875 0.78125q-0.515625 0.78125 -0.515625 2.109375zm6.015625 4.28125q-0.625 0.1875 -1.578125 0.34375q-0.9375 0.15625 -1.984375 0.15625q-1.078125 0 -1.921875 -0.328125q-0.84375 -0.328125 -1.453125 -0.9375q-0.59375 -0.609375 -0.921875 -1.484375q-0.3125 -0.875 -0.3125 -1.96875q0 -1.078125 0.265625 -1.953125q0.28125 -0.875 0.796875 -1.5q0.515625 -0.625 1.265625 -0.953125q0.75 -0.34375 1.71875 -0.34375q0.65625 0 1.15625 0.15625q0.5 0.15625 0.859375 0.34375l0 -4.34375l2.109375 -0.359375l0 13.171875zm2.1556396 -4.203125q0 -1.203125 0.359375 -2.09375q0.359375 -0.90625 0.9375 -1.5q0.59375 -0.609375 1.359375 -0.90625q0.765625 -0.296875 1.5625 -0.296875q1.859375 0 2.90625 1.15625q1.0625 1.15625 1.0625 3.46875q0 0.171875 -0.015625 0.390625q0 0.203125 -0.03125 0.390625l-5.96875 0q0.078125 1.078125 0.765625 1.6875q0.6875 0.59375 1.984375 0.59375q0.765625 0 1.390625 -0.140625q0.640625 -0.140625 1.0 -0.296875l0.28125 1.71875q-0.171875 0.09375 -0.484375 0.1875q-0.296875 0.09375 -0.6875 0.171875q-0.390625 0.078125 -0.84375 0.125q-0.453125 0.046875 -0.90625 0.046875q-1.203125 0 -2.09375 -0.34375q-0.875 -0.359375 -1.453125 -0.984375q-0.5625 -0.640625 -0.84375 -1.5q-0.28125 -0.859375 -0.28125 -1.875zm6.078125 -0.9375q0 -0.4375 -0.125 -0.828125q-0.109375 -0.390625 -0.34375 -0.671875q-0.234375 -0.28125 -0.578125 -0.4375q-0.328125 -0.171875 -0.796875 -0.171875q-0.484375 0 -0.859375 0.1875q-0.359375 0.171875 -0.609375 0.46875q-0.25 0.296875 -0.390625 0.671875q-0.140625 0.375 -0.1875 0.78125l3.890625 0zm8.353638 -3.34375q0.609375 -0.171875 1.578125 -0.328125q0.96875 -0.15625 2.15625 -0.15625q1.109375 0 1.84375 0.3125q0.75 0.296875 1.1875 0.84375q0.453125 0.53125 0.625 1.3125q0.1875 0.765625 0.1875 1.6875l0 5.09375l-2.09375 0l0 -4.765625q0 -0.734375 -0.09375 -1.234375q-0.09375 -0.515625 -0.3125 -0.828125q-0.21875 -0.328125 -0.59375 -0.46875q-0.375 -0.15625 -0.90625 -0.15625q-0.40625 0 -0.84375 0.0625q-0.421875 0.046875 -0.625 0.078125l0 7.3125l-2.109375 0l0 -8.765625z" fill-rule="nonzero"/><path fill="#000000" fill-opacity="0.0" d="m582.49536 183.43832c18.850769 0 28.276306 -21.275589 37.701538 -42.551178c9.425171 -21.275597 18.850037 -42.551186 37.700012 -42.551186" fill-rule="evenodd"/><path stroke="#434343" stroke-width="1.0" stroke-linejoin="round" stroke-linecap="butt" d="m582.49536 183.43832c18.850769 0 28.276306 -21.275589 37.701538 -42.551178c4.7125854 -10.637802 9.42511 -21.275597 15.315674 -29.253944c2.9453735 -3.989174 6.1851807 -7.313484 9.866821 -9.640503c1.8408203 -1.1635056 3.7920532 -2.0776901 5.8721924 -2.701004c0.13000488 -0.03895569 0.26049805 -0.07678223 0.39154053 -0.1134491l0.30218506 -0.08163452" fill-rule="evenodd"/><path fill="#434343" stroke="#434343" stroke-width="1.0" stroke-linecap="butt" d="m652.1547 100.73502l4.2921143 -2.2137299l-4.7108765 -1.0630875z" fill-rule="evenodd"/><path fill="#000000" fill-opacity="0.0" d="m582.49536 183.43832c18.850403 0 28.275574 0.01574707 37.700806 0.03149414c9.425171 0.01574707 18.850342 0.03149414 37.700745 0.03149414" fill-rule="evenodd"/><path stroke="#434343" stroke-width="1.0" stroke-linejoin="round" stroke-linecap="butt" d="m582.49536 183.43832c18.850403 0 28.275574 0.01574707 37.700806 0.03149414c4.7125854 0.007873535 9.425171 0.01574707 15.315918 0.021652222c2.9453735 0.0029449463 6.1853027 0.00541687 9.867004 0.0071411133l6.5178223 0.0014038086" fill-rule="evenodd"/><path fill="#434343" stroke="#434343" stroke-width="1.0" stroke-linecap="butt" d="m651.8966 185.15175l4.538452 -1.6507568l-4.537781 -1.65271z" fill-rule="evenodd"/><path fill="#000000" fill-opacity="0.0" d="m582.49536 183.43832c18.850403 0 28.275574 21.275589 37.700806 42.551178c9.425171 21.275589 18.850342 42.551178 37.700745 42.551178" fill-rule="evenodd"/><path stroke="#434343" stroke-width="1.0" stroke-linejoin="round" stroke-linecap="butt" d="m582.49536 183.43832c18.850403 0 28.275574 21.275589 37.700806 42.551178c4.7125854 10.637802 9.425171 21.275589 15.315918 29.253937c2.9453735 3.9891663 6.1853027 7.3134766 9.867004 9.640503c1.8408813 1.1635132 3.7921753 2.0776978 5.8723755 2.7009888c0.12994385 0.038970947 0.26049805 0.07678223 0.39154053 0.113464355l0.30230713 0.08166504" fill-rule="evenodd"/><path fill="#434343" stroke="#434343" stroke-width="1.0" stroke-linecap="butt" d="m651.73596 269.41846l4.7108765 -1.0631104l-4.2921143 -2.213684z" fill-rule="evenodd"/></g></svg>