<svg version="1.1" viewBox="0.0 0.0 586.0314960629921 362.01837270341207" fill="none" stroke="none" stroke-linecap="square" stroke-miterlimit="10" xmlns:xlink="http://www.w3.org/1999/xlink" xmlns="http://www.w3.org/2000/svg"><clipPath id="p.0"><path d="m0 0l586.0315 0l0 362.01837l-586.0315 0l0 -362.01837z" clip-rule="nonzero"/></clipPath><g clip-path="url(#p.0)"><path fill="#000000" fill-opacity="0.0" d="m0 0l586.0315 0l0 362.01837l-586.0315 0z" fill-rule="evenodd"/><path fill="#cccccc" d="m83.088776 44.249474l0 0c0 -17.373123 14.083702 -31.456821 31.456825 -31.456821l345.27533 0c8.342865 0 16.344055 3.3141909 22.243347 9.2134905c5.899292 5.8992977 9.21347 13.900463 9.21347 22.243332l0 278.3777c0 17.373138 -14.083679 31.456818 -31.456818 31.456818l-345.27533 0c-17.373123 0 -31.456825 -14.083679 -31.456825 -31.456818z" fill-rule="evenodd"/><path stroke="#434343" stroke-width="3.0" stroke-linejoin="round" stroke-linecap="butt" d="m83.088776 44.249474l0 0c0 -17.373123 14.083702 -31.456821 31.456825 -31.456821l345.27533 0c8.342865 0 16.344055 3.3141909 22.243347 9.2134905c5.899292 5.8992977 9.21347 13.900463 9.21347 22.243332l0 278.3777c0 17.373138 -14.083679 31.456818 -31.456818 31.456818l-345.27533 0c-17.373123 0 -31.456825 -14.083679 -31.456825 -31.456818z" fill-rule="evenodd"/><path fill="#000000" d="m236.98315 52.243538q1.484375 -0.375 3.953125 -0.796875q2.484375 -0.421875 5.703125 -0.421875q2.890625 0 4.796875 0.828125q1.921875 0.8125 3.0625 2.28125q1.140625 1.46875 1.609375 3.53125q0.46875 2.046875 0.46875 4.515625l0 13.625l-4.34375 0l0 -12.6875q0 -2.25 -0.3125 -3.828125q-0.296875 -1.59375 -1.0 -2.5625q-0.6875 -0.984375 -1.859375 -1.421875q-1.15625 -0.453125 -2.890625 -0.453125q-0.703125 0 -1.453125 0.046875q-0.734375 0.046875 -1.421875 0.125q-0.671875 0.0625 -1.203125 0.15625q-0.53125 0.09375 -0.765625 0.140625l0 20.484375l-4.34375 0l0 -23.5625zm48.18686 11.4375q0 2.890625 -0.84375 5.21875q-0.828125 2.328125 -2.34375 4.015625q-1.515625 1.671875 -3.625 2.59375q-2.09375 0.90625 -4.5625 0.90625q-2.46875 0 -4.578125 -0.90625q-2.09375 -0.921875 -3.609375 -2.59375q-1.515625 -1.6875 -2.359375 -4.015625q-0.84375 -2.328125 -0.84375 -5.21875q0 -2.859375 0.84375 -5.203125q0.84375 -2.359375 2.359375 -4.03125q1.515625 -1.6875 3.609375 -2.59375q2.109375 -0.921875 4.578125 -0.921875q2.46875 0 4.5625 0.921875q2.109375 0.90625 3.625 2.59375q1.515625 1.671875 2.34375 4.03125q0.84375 2.34375 0.84375 5.203125zm-4.515625 0q0 -4.109375 -1.84375 -6.515625q-1.84375 -2.40625 -5.015625 -2.40625q-3.171875 0 -5.015625 2.40625q-1.84375 2.40625 -1.84375 6.515625q0 4.09375 1.84375 6.5q1.84375 2.40625 5.015625 2.40625q3.171875 0 5.015625 -2.40625q1.84375 -2.40625 1.84375 -6.5zm26.30838 -7.0q-0.796875 -0.65625 -2.296875 -1.265625q-1.484375 -0.609375 -3.25 -0.609375q-1.875 0 -3.203125 0.6875q-1.328125 0.671875 -2.171875 1.859375q-0.828125 1.1875 -1.203125 2.828125q-0.375 1.625 -0.375 3.5q0 4.234375 2.09375 6.546875q2.109375 2.3125 5.609375 2.3125q1.765625 0 2.953125 -0.15625q1.1875 -0.171875 1.84375 -0.359375l0 -15.34375zm0 -16.328125l4.34375 -0.75l0 35.5q-1.5 0.421875 -3.828125 0.84375q-2.328125 0.421875 -5.359375 0.421875q-2.8125 0 -5.046875 -0.890625q-2.234375 -0.890625 -3.828125 -2.515625q-1.578125 -1.640625 -2.453125 -3.984375q-0.859375 -2.359375 -0.859375 -5.296875q0 -2.8125 0.71875 -5.140625q0.734375 -2.328125 2.125 -4.0q1.40625 -1.6875 3.4375 -2.625q2.03125 -0.9375 4.640625 -0.9375q2.09375 0 3.703125 0.5625q1.609375 0.5625 2.40625 1.078125l0 -12.265625zm10.449219 23.375q0 -3.21875 0.9375 -5.625q0.9375 -2.40625 2.46875 -3.984375q1.546875 -1.59375 3.546875 -2.390625q2.015625 -0.796875 4.109375 -0.796875q4.890625 0 7.5 3.0625q2.625 3.0625 2.625 9.3125q0 0.28125 0 0.71875q0 0.4375 -0.046875 0.8125l-16.609375 0q0.28125 3.78125 2.1875 5.75q1.921875 1.953125 5.96875 1.953125q2.296875 0 3.859375 -0.390625q1.5625 -0.40625 2.359375 -0.78125l0.59375 3.640625q-0.78125 0.421875 -2.765625 0.890625q-1.984375 0.46875 -4.5 0.46875q-3.171875 0 -5.484375 -0.953125q-2.3125 -0.96875 -3.8125 -2.640625q-1.484375 -1.6875 -2.21875 -3.984375q-0.71875 -2.3125 -0.71875 -5.0625zm16.65625 -2.390625q0.046875 -2.9375 -1.46875 -4.828125q-1.515625 -1.890625 -4.171875 -1.890625q-1.5 0 -2.640625 0.59375q-1.140625 0.578125 -1.9375 1.515625q-0.78125 0.921875 -1.234375 2.140625q-0.4375 1.21875 -0.578125 2.46875l12.03125 0z" fill-rule="nonzero"/><path fill="#65aaff" d="m13.510246 160.32043l0 0c0 -6.384018 5.175268 -11.55928 11.559286 -11.55928l120.75545 0c3.0657043 0 6.0058594 1.2178497 8.173645 3.3856354c2.1677856 2.1677856 3.3856354 5.1079407 3.3856354 8.173645l0 46.235764c0 6.384018 -5.1752625 11.55928 -11.55928 11.55928l-120.75545 0c-6.384018 0 -11.559286 -5.1752625 -11.559286 -11.55928z" fill-rule="evenodd"/><path stroke="#434343" stroke-width="2.0" stroke-linejoin="round" stroke-linecap="butt" d="m13.510246 160.32043l0 0c0 -6.384018 5.175268 -11.55928 11.559286 -11.55928l120.75545 0c3.0657043 0 6.0058594 1.2178497 8.173645 3.3856354c2.1677856 2.1677856 3.3856354 5.1079407 3.3856354 8.173645l0 46.235764c0 6.384018 -5.1752625 11.55928 -11.55928 11.55928l-120.75545 0c-6.384018 0 -11.559286 -5.1752625 -11.559286 -11.55928z" fill-rule="evenodd"/><path fill="#000000" d="m28.48475 185.1577q0 -1.109375 0.328125 -1.9375q0.328125 -0.828125 0.875 -1.375q0.546875 -0.5625 1.25 -0.84375q0.703125 -0.28125 1.4375019 -0.28125q1.734375 0 2.6875 1.078125q0.96875 1.0625 0.96875 3.203125q0 0.15625 -0.015625 0.359375q0 0.1875 -0.015625 0.359375l-5.515627 0q0.078125 1.0 0.703125 1.5625q0.640625 0.546875 1.8437519 0.546875q0.703125 0 1.28125 -0.125q0.59375 -0.140625 0.921875 -0.28125l0.265625 1.59375q-0.171875 0.078125 -0.453125 0.171875q-0.265625 0.078125 -0.625 0.140625q-0.359375 0.078125 -0.78125 0.125q-0.421875 0.046875 -0.84375 0.046875q-1.1093769 0 -1.9218769 -0.328125q-0.8125 -0.328125 -1.34375 -0.90625q-0.53125 -0.578125 -0.796875 -1.375q-0.25 -0.796875 -0.25 -1.734375zm5.625002 -0.875q0 -0.390625 -0.125 -0.75q-0.109375 -0.359375 -0.328125 -0.625q-0.203125 -0.265625 -0.515625 -0.40625q-0.3125 -0.15625 -0.75 -0.15625q-0.4531269 0 -0.7968769 0.171875q-0.328125 0.15625 -0.5625 0.4375q-0.21875 0.265625 -0.359375 0.625q-0.125 0.34375 -0.171875 0.703125l3.609377 0zm6.979767 -0.609375l1.78125 -2.75l2.03125 0l-2.75 3.953125q0.859375 1.125 1.65625 2.265625q0.796875 1.140625 1.296875 2.15625l-2.09375 0q-0.140625 -0.296875 -0.375 -0.6875q-0.234375 -0.40625 -0.5 -0.828125q-0.25 -0.421875 -0.546875 -0.828125q-0.28125 -0.421875 -0.5625 -0.796875q-0.5625 0.71875 -1.09375 1.59375q-0.53125 0.875 -0.890625 1.546875l-1.984375 0q0.25 -0.484375 0.578125 -1.015625q0.34375 -0.546875 0.71875 -1.109375q0.390625 -0.578125 0.796875 -1.140625q0.40625 -0.578125 0.8125 -1.09375l-2.765625 -4.015625l2.125 0l1.765625 2.75zm5.37027 -4.953125l1.9375 -0.3125l0 2.515625l2.96875 0l0 1.625l-2.96875 0l0 3.40625q0 1.0 0.3125 1.4375q0.328125 0.4375 1.09375 0.4375q0.53125 0 0.9375 -0.109375q0.40625 -0.125 0.640625 -0.21875l0.328125 1.546875q-0.34375 0.140625 -0.890625 0.28125q-0.546875 0.15625 -1.28125 0.15625q-0.890625 0 -1.5 -0.234375q-0.59375 -0.234375 -0.953125 -0.6875q-0.34375 -0.46875 -0.484375 -1.109375q-0.140625 -0.65625 -0.140625 -1.484375l0 -7.25zm6.1690216 6.4375q0 -1.109375 0.328125 -1.9375q0.328125 -0.828125 0.875 -1.375q0.546875 -0.5625 1.25 -0.84375q0.703125 -0.28125 1.4375 -0.28125q1.734375 0 2.6875 1.078125q0.96875 1.0625 0.96875 3.203125q0 0.15625 -0.015625 0.359375q0 0.1875 -0.015625 0.359375l-5.515625 0q0.078125 1.0 0.703125 1.5625q0.640625 0.546875 1.84375 0.546875q0.703125 0 1.28125 -0.125q0.59375 -0.140625 0.921875 -0.28125l0.265625 1.59375q-0.171875 0.078125 -0.453125 0.171875q-0.265625 0.078125 -0.625 0.140625q-0.359375 0.078125 -0.78125 0.125q-0.421875 0.046875 -0.84375 0.046875q-1.109375 0 -1.921875 -0.328125q-0.8125 -0.328125 -1.34375 -0.90625q-0.53125 -0.578125 -0.796875 -1.375q-0.25 -0.796875 -0.25 -1.734375zm5.625 -0.875q0 -0.390625 -0.125 -0.75q-0.109375 -0.359375 -0.328125 -0.625q-0.203125 -0.265625 -0.515625 -0.40625q-0.3125 -0.15625 -0.75 -0.15625q-0.453125 0 -0.796875 0.171875q-0.328125 0.15625 -0.5625 0.4375q-0.21875 0.265625 -0.359375 0.625q-0.125 0.34375 -0.171875 0.703125l3.609375 0zm8.745388 -1.609375q-0.234375 -0.078125 -0.671875 -0.15625q-0.421875 -0.09375 -0.96875 -0.09375q-0.328125 0 -0.6875 0.0625q-0.359375 0.0625 -0.5 0.109375l0 6.703125l-1.9374962 0l0 -7.96875q0.5625 -0.203125 1.390625 -0.390625q0.8437462 -0.1875 1.8749962 -0.1875q0.1875 0 0.4375 0.03125q0.265625 0.015625 0.515625 0.0625q0.265625 0.03125 0.5 0.09375q0.234375 0.0625 0.390625 0.109375l-0.34375 1.625zm1.6823883 -1.46875q0.5625 -0.15625 1.453125 -0.296875q0.890625 -0.15625 1.984375 -0.15625q1.03125 0 1.71875 0.28125q0.6875 0.28125 1.09375 0.796875q0.40625 0.5 0.5625 1.21875q0.171875 0.703125 0.171875 1.546875l0 4.703125l-1.9375 0l0 -4.40625q0 -0.671875 -0.09375 -1.140625q-0.078125 -0.46875 -0.28125 -0.765625q-0.1875 -0.296875 -0.53125 -0.421875q-0.34375 -0.140625 -0.84375 -0.140625q-0.375 0 -0.78125 0.046875q-0.390625 0.046875 -0.578125 0.078125l0 6.75l-1.9375 0l0 -8.09375zm12.297516 6.734375q0.90625 0 1.359375 -0.09375l0 -2.140625q-0.15625 -0.046875 -0.46875 -0.09375q-0.296875 -0.0625 -0.65625 -0.0625q-0.328125 0 -0.65625 0.0625q-0.328125 0.046875 -0.59375 0.171875q-0.265625 0.125 -0.421875 0.359375q-0.15625 0.234375 -0.15625 0.578125q0 0.6875 0.421875 0.953125q0.4375 0.265625 1.171875 0.265625zm-0.15625 -7.21875q0.953125 0 1.609375 0.25q0.65625 0.234375 1.046875 0.671875q0.40625 0.421875 0.5625 1.046875q0.171875 0.609375 0.171875 1.34375l0 5.078125q-0.453125 0.09375 -1.359375 0.21875q-0.890625 0.140625 -2.03125 0.140625q-0.75 0 -1.375 -0.140625q-0.625 -0.140625 -1.0625 -0.453125q-0.4375 -0.328125 -0.6875 -0.84375q-0.25 -0.515625 -0.25 -1.265625q0 -0.71875 0.28125 -1.203125q0.28125 -0.5 0.75 -0.8125q0.484375 -0.3125 1.109375 -0.453125q0.640625 -0.140625 1.328125 -0.140625q0.328125 0 0.671875 0.046875q0.359375 0.03125 0.75 0.140625l0 -0.328125q0 -0.328125 -0.078125 -0.625q-0.078125 -0.3125 -0.28125 -0.546875q-0.203125 -0.234375 -0.53125 -0.359375q-0.328125 -0.125 -0.8125 -0.125q-0.671875 0 -1.234375 0.09375q-0.5625 0.09375 -0.90625 0.21875l-0.25 -1.5625q0.375 -0.125 1.078125 -0.25q0.703125 -0.140625 1.5 -0.140625zm8.669022 8.734375q-0.859375 -0.015625 -1.4375 -0.1875q-0.5625 -0.171875 -0.90625 -0.5q-0.328125 -0.328125 -0.46875 -0.8125q-0.125 -0.5 -0.125 -1.125l0 -9.625l1.9375 -0.328125l0 9.59375q0 0.34375 0.046875 0.59375q0.0625 0.234375 0.203125 0.40625q0.140625 0.171875 0.390625 0.265625q0.25 0.078125 0.640625 0.125l-0.28125 1.59375zm7.6675262 -1.546875q0.765625 0 1.109375 -0.1875q0.359375 -0.1875 0.359375 -0.625q0 -0.421875 -0.375 -0.6875q-0.375 -0.28125 -1.234375 -0.59375q-0.53125 -0.203125 -0.96875 -0.40625q-0.4375 -0.21875 -0.765625 -0.5q-0.3125 -0.296875 -0.5 -0.703125q-0.1875 -0.40625 -0.1875 -1.0q0 -1.15625 0.84375 -1.8125q0.859375 -0.671875 2.3125 -0.671875q0.734375 0 1.40625 0.140625q0.671875 0.140625 1.015625 0.265625l-0.359375 1.5625q-0.328125 -0.140625 -0.828125 -0.25q-0.484375 -0.125 -1.140625 -0.125q-0.59375 0 -0.96875 0.203125q-0.359375 0.1875 -0.359375 0.609375q0 0.203125 0.0625 0.375q0.078125 0.15625 0.25 0.296875q0.1875 0.125 0.46875 0.265625q0.296875 0.125 0.703125 0.28125q0.6875 0.25 1.171875 0.5q0.484375 0.25 0.796875 0.5625q0.3125 0.3125 0.453125 0.71875q0.140625 0.390625 0.140625 0.953125q0 1.1875 -0.890625 1.8125q-0.890625 0.609375 -2.53125 0.609375q-1.109375 0 -1.78125 -0.1875q-0.671875 -0.171875 -0.9375 -0.28125l0.328125 -1.625q0.4375 0.171875 1.03125 0.34375q0.609375 0.15625 1.375 0.15625zm12.780762 -2.796875q0 0.984375 -0.296875 1.8125q-0.28125 0.8125 -0.8125 1.390625q-0.515625 0.5625 -1.265625 0.890625q-0.734375 0.3125 -1.640625 0.3125q-0.890625 0 -1.625 -0.3125q-0.734375 -0.328125 -1.265625 -0.890625q-0.53125 -0.578125 -0.828125 -1.390625q-0.296875 -0.828125 -0.296875 -1.8125q0 -1.0 0.296875 -1.796875q0.296875 -0.8125 0.828125 -1.390625q0.546875 -0.578125 1.28125 -0.890625q0.734375 -0.3125 1.609375 -0.3125q0.875 0 1.625 0.3125q0.75 0.3125 1.265625 0.890625q0.53125 0.578125 0.828125 1.390625q0.296875 0.796875 0.296875 1.796875zm-1.984375 0q0 -1.25 -0.53125 -1.96875q-0.53125 -0.734375 -1.5 -0.734375q-0.953125 0 -1.5 0.734375q-0.53125 0.71875 -0.53125 1.96875q0 1.265625 0.53125 2.0q0.546875 0.734375 1.5 0.734375q0.96875 0 1.5 -0.734375q0.53125 -0.734375 0.53125 -2.0zm10.849274 3.9375q-0.5625 0.140625 -1.453125 0.28125q-0.890625 0.15625 -1.96875 0.15625q-1.015625 0 -1.703125 -0.28125q-0.671875 -0.296875 -1.078125 -0.796875q-0.40625 -0.515625 -0.578125 -1.21875q-0.171875 -0.71875 -0.171875 -1.578125l0 -4.6875l1.9375 0l0 4.390625q0 1.34375 0.390625 1.921875q0.390625 0.578125 1.359375 0.578125q0.359375 0 0.75 -0.03125q0.390625 -0.03125 0.578125 -0.078125l0 -6.78125l1.9375 0l0 8.125zm7.234268 -6.375q-0.234375 -0.078125 -0.671875 -0.15625q-0.421875 -0.09375 -0.96875 -0.09375q-0.328125 0 -0.6875 0.0625q-0.359375 0.0625 -0.5 0.109375l0 6.703125l-1.9375 0l0 -7.96875q0.5625 -0.203125 1.390625 -0.390625q0.84375 -0.1875 1.875 -0.1875q0.1875 0 0.4375 0.03125q0.265625 0.015625 0.515625 0.0625q0.265625 0.03125 0.5 0.09375q0.234375 0.0625 0.390625 0.109375l-0.34375 1.625zm1.2136383 2.453125q0 -0.9375 0.28125 -1.734375q0.296875 -0.8125 0.8281326 -1.40625q0.546875 -0.59375 1.3125 -0.921875q0.765625 -0.34375 1.71875 -0.34375q1.1875 0 2.25 0.4375l-0.421875 1.578125q-0.328125 -0.140625 -0.765625 -0.234375q-0.421875 -0.09375 -0.890625 -0.09375q-1.140625 0 -1.734375 0.71875q-0.59375 0.703125 -0.59375 2.0q0 1.25 0.5625 1.984375q0.5625 0.71875 1.890625 0.71875q0.5 0 0.96875 -0.09375q0.484375 -0.09375 0.84375 -0.25l0.265625 1.609375q-0.328125 0.15625 -0.984375 0.28125q-0.640625 0.125 -1.328125 0.125q-1.0625 0 -1.859375 -0.328125q-0.796875 -0.328125 -1.3125 -0.90625q-0.5156326 -0.578125 -0.7812576 -1.390625q-0.25 -0.8125 -0.25 -1.75zm7.552025 0.03125q0 -1.109375 0.328125 -1.9375q0.328125 -0.828125 0.875 -1.375q0.546875 -0.5625 1.25 -0.84375q0.703125 -0.28125 1.4375 -0.28125q1.734375 0 2.6875 1.078125q0.96875 1.0625 0.96875 3.203125q0 0.15625 -0.015625 0.359375q0 0.1875 -0.015625 0.359375l-5.515625 0q0.078125 1.0 0.703125 1.5625q0.640625 0.546875 1.84375 0.546875q0.703125 0 1.28125 -0.125q0.59375 -0.140625 0.921875 -0.28125l0.265625 1.59375q-0.171875 0.078125 -0.453125 0.171875q-0.265625 0.078125 -0.625 0.140625q-0.359375 0.078125 -0.78125 0.125q-0.421875 0.046875 -0.84375 0.046875q-1.109375 0 -1.921875 -0.328125q-0.8125 -0.328125 -1.34375 -0.90625q-0.53125 -0.578125 -0.796875 -1.375q-0.25 -0.796875 -0.25 -1.734375zm5.625 -0.875q0 -0.390625 -0.125 -0.75q-0.109375 -0.359375 -0.328125 -0.625q-0.203125 -0.265625 -0.515625 -0.40625q-0.3125 -0.15625 -0.75 -0.15625q-0.453125 0 -0.796875 0.171875q-0.328125 0.15625 -0.5625 0.4375q-0.21875 0.265625 -0.359375 0.625q-0.125 0.34375 -0.171875 0.703125l3.609375 0z" fill-rule="nonzero"/><path fill="#000000" fill-opacity="0.0" d="m157.38426 183.43832c12.914154 0 19.371628 0.01574707 25.828323 0.03149414c6.4566956 0.01574707 12.912613 0.03149414 25.825226 0.03149414" fill-rule="evenodd"/><path stroke="#434343" stroke-width="1.0" stroke-linejoin="round" stroke-linecap="butt" d="m157.38426 183.43832c12.914154 0 19.371628 0.01574707 25.828323 0.03149414c3.2283325 0.007873535 6.456497 0.01574707 10.491623 0.021652222c2.0175781 0.0029449463 4.236908 0.00541687 6.7588654 0.0071411133l2.5747375 8.087158E-4" fill-rule="evenodd"/><path fill="#434343" stroke="#434343" stroke-width="1.0" stroke-linecap="butt" d="m203.0373 185.15115l4.53862 -1.6502991l-4.5375824 -1.6531677z" fill-rule="evenodd"/><path fill="#d9ead3" d="m209.04129 160.35194l0 0c0 -6.384018 5.1752625 -11.559296 11.55928 -11.559296l133.1649 0c3.0657043 0 6.0058594 1.2178497 8.173645 3.3856354c2.1677856 2.1677856 3.38562 5.1079407 3.38562 8.17366l0 46.23575c0 6.384018 -5.1752625 11.559296 -11.559265 11.559296l-133.1649 0c-6.384018 0 -11.55928 -5.1752777 -11.55928 -11.559296z" fill-rule="evenodd"/><path stroke="#434343" stroke-width="2.0" stroke-linejoin="round" stroke-linecap="butt" d="m209.04129 160.35194l0 0c0 -6.384018 5.1752625 -11.559296 11.55928 -11.559296l133.1649 0c3.0657043 0 6.0058594 1.2178497 8.173645 3.3856354c2.1677856 2.1677856 3.38562 5.1079407 3.38562 8.17366l0 46.23575c0 6.384018 -5.1752625 11.559296 -11.559265 11.559296l-133.1649 0c-6.384018 0 -11.55928 -5.1752777 -11.55928 -11.559296z" fill-rule="evenodd"/><path fill="#000000" d="m260.81775 185.56169q0 -1.515625 -0.6875 -2.34375q-0.671875 -0.84375 -2.1875 -0.84375q-0.3125 0 -0.65625 0.03125q-0.34375 0.015625 -0.6875 0.109375l0 5.578125q0.3125 0.203125 0.796875 0.390625q0.5 0.171875 1.0625 0.171875q1.21875 0 1.78125 -0.84375q0.578125 -0.84375 0.578125 -2.25zm2.3125 -0.046875q0 1.125 -0.296875 2.0625q-0.28125 0.921875 -0.828125 1.59375q-0.53125 0.671875 -1.34375 1.046875q-0.8125 0.375 -1.84375 0.375q-0.6875 0 -1.265625 -0.171875q-0.578125 -0.15625 -0.953125 -0.359375l0 3.78125l-2.2500153 0l0 -12.890625q0.6875 -0.1875 1.6875153 -0.359375q1.015625 -0.171875 2.140625 -0.171875q1.15625 0 2.0625 0.359375q0.921875 0.359375 1.5625 1.03125q0.640625 0.65625 0.984375 1.59375q0.34375 0.9375 0.34375 2.109375zm7.90036 -2.84375q-0.28125 -0.09375 -0.78125 -0.1875q-0.484375 -0.109375 -1.140625 -0.109375q-0.375 0 -0.796875 0.078125q-0.421875 0.0625 -0.59375 0.125l0 7.8125l-2.25 0l0 -9.296875q0.65625 -0.234375 1.625 -0.453125q0.984375 -0.21875 2.1875 -0.21875q0.21875 0 0.515625 0.03125q0.296875 0.03125 0.59375 0.078125q0.296875 0.046875 0.578125 0.109375q0.28125 0.0625 0.453125 0.125l-0.390625 1.90625zm1.4090881 2.890625q0 -1.296875 0.375 -2.265625q0.390625 -0.96875 1.015625 -1.609375q0.640625 -0.640625 1.46875 -0.96875q0.828125 -0.328125 1.671875 -0.328125q2.015625 0 3.140625 1.25q1.140625 1.25 1.140625 3.734375q0 0.1875 -0.015625 0.421875q0 0.234375 -0.03125 0.421875l-6.421875 0q0.09375 1.171875 0.828125 1.8125q0.734375 0.640625 2.125 0.640625q0.828125 0 1.5 -0.140625q0.6875 -0.15625 1.078125 -0.328125l0.296875 1.859375q-0.1875 0.078125 -0.515625 0.1875q-0.3125 0.109375 -0.734375 0.1875q-0.421875 0.078125 -0.90625 0.140625q-0.484375 0.0625 -1.0 0.0625q-1.28125 0 -2.234375 -0.375q-0.953125 -0.390625 -1.5625 -1.078125q-0.609375 -0.6875 -0.921875 -1.609375q-0.296875 -0.921875 -0.296875 -2.015625zm6.546875 -1.015625q0 -0.46875 -0.125 -0.875q-0.125 -0.421875 -0.390625 -0.734375q-0.25 -0.3125 -0.609375 -0.484375q-0.359375 -0.171875 -0.859375 -0.171875q-0.53125 0 -0.921875 0.203125q-0.390625 0.1875 -0.671875 0.5q-0.265625 0.3125 -0.421875 0.734375q-0.140625 0.40625 -0.1875 0.828125l4.1875 0zm11.1214905 1.015625q0 -1.515625 -0.6875 -2.34375q-0.671875 -0.84375 -2.1875 -0.84375q-0.3125 0 -0.65625 0.03125q-0.34375 0.015625 -0.6875 0.109375l0 5.578125q0.3125 0.203125 0.796875 0.390625q0.5 0.171875 1.0625 0.171875q1.21875 0 1.78125 -0.84375q0.578125 -0.84375 0.578125 -2.25zm2.3125 -0.046875q0 1.125 -0.296875 2.0625q-0.28125 0.921875 -0.828125 1.59375q-0.53125 0.671875 -1.34375 1.046875q-0.8125 0.375 -1.84375 0.375q-0.6875 0 -1.265625 -0.171875q-0.578125 -0.15625 -0.953125 -0.359375l0 3.78125l-2.25 0l0 -12.890625q0.6875 -0.1875 1.6875 -0.359375q1.015625 -0.171875 2.140625 -0.171875q1.15625 0 2.0625 0.359375q0.921875 0.359375 1.5625 1.03125q0.640625 0.65625 0.984375 1.59375q0.34375 0.9375 0.34375 2.109375zm5.77536 3.296875q1.03125 0 1.578125 -0.125l0 -2.5q-0.1875 -0.046875 -0.546875 -0.09375q-0.34375 -0.0625 -0.78125 -0.0625q-0.375 0 -0.75 0.0625q-0.375 0.046875 -0.6875 0.203125q-0.3125 0.140625 -0.5 0.40625q-0.1875 0.265625 -0.1875 0.6875q0 0.796875 0.5 1.109375q0.515625 0.3125 1.375 0.3125zm-0.1875 -8.421875q1.109375 0 1.875 0.28125q0.765625 0.28125 1.21875 0.78125q0.46875 0.5 0.65625 1.21875q0.203125 0.71875 0.203125 1.578125l0 5.921875q-0.53125 0.109375 -1.59375 0.265625q-1.046875 0.15625 -2.359375 0.15625q-0.875 0 -1.609375 -0.171875q-0.734375 -0.15625 -1.25 -0.53125q-0.5 -0.375 -0.796875 -0.96875q-0.28125 -0.609375 -0.28125 -1.484375q0 -0.828125 0.328125 -1.40625q0.328125 -0.578125 0.875 -0.9375q0.5625 -0.375 1.296875 -0.53125q0.75 -0.15625 1.546875 -0.15625q0.375 0 0.78125 0.046875q0.40625 0.046875 0.875 0.15625l0 -0.375q0 -0.390625 -0.09375 -0.734375q-0.09375 -0.359375 -0.328125 -0.625q-0.234375 -0.28125 -0.625 -0.421875q-0.375 -0.15625 -0.953125 -0.15625q-0.78125 0 -1.4375 0.109375q-0.640625 0.109375 -1.0625 0.265625l-0.28125 -1.828125q0.4375 -0.15625 1.25 -0.296875q0.828125 -0.15625 1.765625 -0.15625zm12.274933 2.28125q-0.28125 -0.09375 -0.78125 -0.1875q-0.484375 -0.109375 -1.140625 -0.109375q-0.375 0 -0.796875 0.078125q-0.421875 0.0625 -0.59375 0.125l0 7.8125l-2.25 0l0 -9.296875q0.65625 -0.234375 1.625 -0.453125q0.984375 -0.21875 2.1875 -0.21875q0.21875 0 0.515625 0.03125q0.296875 0.03125 0.59375 0.078125q0.296875 0.046875 0.578125 0.109375q0.28125 0.0625 0.453125 0.125l-0.390625 1.90625zm1.4090881 2.890625q0 -1.296875 0.375 -2.265625q0.390625 -0.96875 1.015625 -1.609375q0.640625 -0.640625 1.46875 -0.96875q0.828125 -0.328125 1.671875 -0.328125q2.015625 0 3.140625 1.25q1.140625 1.25 1.140625 3.734375q0 0.1875 -0.015625 0.421875q0 0.234375 -0.03125 0.421875l-6.421875 0q0.09375 1.171875 0.828125 1.8125q0.734375 0.640625 2.125 0.640625q0.828125 0 1.5 -0.140625q0.6875 -0.15625 1.078125 -0.328125l0.296875 1.859375q-0.1875 0.078125 -0.515625 0.1875q-0.3125 0.109375 -0.734375 0.1875q-0.421875 0.078125 -0.90625 0.140625q-0.484375 0.0625 -1.0 0.0625q-1.28125 0 -2.234375 -0.375q-0.953125 -0.390625 -1.5625 -1.078125q-0.609375 -0.6875 -0.921875 -1.609375q-0.296875 -0.921875 -0.296875 -2.015625zm6.546875 -1.015625q0 -0.46875 -0.125 -0.875q-0.125 -0.421875 -0.390625 -0.734375q-0.25 -0.3125 -0.609375 -0.484375q-0.359375 -0.171875 -0.859375 -0.171875q-0.53125 0 -0.921875 0.203125q-0.390625 0.1875 -0.671875 0.5q-0.265625 0.3125 -0.421875 0.734375q-0.140625 0.40625 -0.1875 0.828125l4.1875 0z" fill-rule="nonzero"/><path fill="#efefef" d="m430.9686 75.29157l0 0c0 -6.384018 5.1752625 -11.559288 11.559296 -11.559288l120.75543 0c3.0657349 0 6.0058594 1.2178497 8.173645 3.3856354c2.1677856 2.1677856 3.38562 5.107933 3.38562 8.173653l0 46.235756c0 6.384018 -5.175232 11.55928 -11.559265 11.55928l-120.75543 0c-6.384033 0 -11.559296 -5.1752625 -11.559296 -11.55928z" fill-rule="evenodd"/><path stroke="#434343" stroke-width="2.0" stroke-linejoin="round" stroke-linecap="butt" d="m430.9686 75.29157l0 0c0 -6.384018 5.1752625 -11.559288 11.559296 -11.559288l120.75543 0c3.0657349 0 6.0058594 1.2178497 8.173645 3.3856354c2.1677856 2.1677856 3.38562 5.107933 3.38562 8.173653l0 46.235756c0 6.384018 -5.175232 11.55928 -11.559265 11.55928l-120.75543 0c-6.384033 0 -11.559296 -5.1752625 -11.559296 -11.55928z" fill-rule="evenodd"/><path fill="#000000" d="m455.42767 100.00257q0 1.078125 -0.3125 1.96875q-0.3125 0.875 -0.890625 1.5q-0.5625 0.625 -1.375 0.984375q-0.796875 0.34375 -1.765625 0.34375q-0.984375 0 -1.78125 -0.34375q-0.796875 -0.359375 -1.375 -0.984375q-0.5625 -0.625 -0.890625 -1.5q-0.3125 -0.890625 -0.3125 -1.96875q0 -1.0625 0.3125 -1.9375q0.328125 -0.875 0.90625 -1.5q0.59375 -0.625 1.390625 -0.953125q0.796875 -0.34375 1.75 -0.34375q0.953125 0 1.75 0.34375q0.8125 0.328125 1.375 0.953125q0.578125 0.625 0.890625 1.5q0.328125 0.875 0.328125 1.9375zm-2.15625 0q0 -1.34375 -0.578125 -2.125q-0.578125 -0.796875 -1.609375 -0.796875q-1.046875 0 -1.625 0.796875q-0.578125 0.78125 -0.578125 2.125q0 1.375 0.578125 2.171875q0.578125 0.796875 1.625 0.796875q1.03125 0 1.609375 -0.796875q0.578125 -0.796875 0.578125 -2.171875zm11.752777 4.265625q-0.609375 0.15625 -1.578125 0.3125q-0.96875 0.171875 -2.125 0.171875q-1.09375 0 -1.828125 -0.3125q-0.734375 -0.3125 -1.1875 -0.859375q-0.4375 -0.5625 -0.625 -1.328125q-0.1875 -0.765625 -0.1875 -1.6875l0 -5.078125l2.09375 0l0 4.75q0 1.453125 0.421875 2.078125q0.421875 0.625 1.484375 0.625q0.375 0 0.796875 -0.03125q0.4375 -0.046875 0.640625 -0.09375l0 -7.328125l2.09375 0l0 8.78125zm2.570984 -11.171875l2.09375 -0.34375l0 2.734375l3.21875 0l0 1.75l-3.21875 0l0 3.6875q0 1.09375 0.34375 1.5625q0.34375 0.46875 1.1875 0.46875q0.5625 0 1.0 -0.125q0.453125 -0.125 0.703125 -0.21875l0.34375 1.65625q-0.359375 0.15625 -0.953125 0.3125q-0.578125 0.171875 -1.375 0.171875q-0.96875 0 -1.625 -0.25q-0.65625 -0.265625 -1.03125 -0.75q-0.375 -0.5 -0.53125 -1.203125q-0.15625 -0.703125 -0.15625 -1.609375l0 -7.84375zm13.352509 6.96875q0 -1.40625 -0.640625 -2.1875q-0.625 -0.78125 -2.03125 -0.78125q-0.28125 0 -0.609375 0.03125q-0.3125 0.015625 -0.625 0.109375l0 5.1875q0.265625 0.1875 0.71875 0.359375q0.46875 0.15625 0.984375 0.15625q1.15625 0 1.671875 -0.78125q0.53125 -0.78125 0.53125 -2.09375zm2.15625 -0.03125q0 1.03125 -0.28125 1.90625q-0.265625 0.859375 -0.765625 1.484375q-0.5 0.625 -1.25 0.96875q-0.75 0.34375 -1.703125 0.34375q-0.640625 0 -1.1875 -0.15625q-0.53125 -0.15625 -0.875 -0.34375l0 3.515625l-2.109375 0l0 -11.96875q0.640625 -0.171875 1.578125 -0.328125q0.9375 -0.15625 1.984375 -0.15625q1.0625 0 1.90625 0.328125q0.859375 0.328125 1.453125 0.953125q0.609375 0.609375 0.921875 1.484375q0.328125 0.875 0.328125 1.96875zm9.593109 4.234375q-0.609375 0.15625 -1.578125 0.3125q-0.96875 0.171875 -2.125 0.171875q-1.09375 0 -1.828125 -0.3125q-0.734375 -0.3125 -1.1875 -0.859375q-0.4375 -0.5625 -0.625 -1.328125q-0.1875 -0.765625 -0.1875 -1.6875l0 -5.078125l2.09375 0l0 4.75q0 1.453125 0.421875 2.078125q0.421875 0.625 1.484375 0.625q0.375 0 0.796875 -0.03125q0.4375 -0.046875 0.640625 -0.09375l0 -7.328125l2.09375 0l0 8.78125zm2.570984 -11.171875l2.09375 -0.34375l0 2.734375l3.21875 0l0 1.75l-3.21875 0l0 3.6875q0 1.09375 0.34375 1.5625q0.34375 0.46875 1.1875 0.46875q0.5625 0 1.0 -0.125q0.453125 -0.125 0.703125 -0.21875l0.34375 1.65625q-0.359375 0.15625 -0.953125 0.3125q-0.578125 0.171875 -1.375 0.171875q-0.96875 0 -1.625 -0.25q-0.65625 -0.265625 -1.03125 -0.75q-0.375 -0.5 -0.53125 -1.203125q-0.15625 -0.703125 -0.15625 -1.609375l0 -7.84375zm11.374298 2.6875q0.609375 -0.171875 1.578125 -0.328125q0.96875 -0.15625 2.15625 -0.15625q1.109375 0 1.84375 0.3125q0.75 0.296875 1.1875 0.84375q0.453125 0.53125 0.625 1.3125q0.1875 0.765625 0.1875 1.6875l0 5.09375l-2.09375 0l0 -4.765625q0 -0.734375 -0.09375 -1.234375q-0.09375 -0.515625 -0.3125 -0.828125q-0.21875 -0.328125 -0.59375 -0.46875q-0.375 -0.15625 -0.90625 -0.15625q-0.40625 0 -0.84375 0.0625q-0.421875 0.046875 -0.625 0.078125l0 7.3125l-2.109375 0l0 -8.765625zm18.340027 4.21875q0 1.078125 -0.3125 1.96875q-0.3125 0.875 -0.890625 1.5q-0.5625 0.625 -1.375 0.984375q-0.796875 0.34375 -1.765625 0.34375q-0.984375 0 -1.78125 -0.34375q-0.796875 -0.359375 -1.375 -0.984375q-0.5625 -0.625 -0.890625 -1.5q-0.3125 -0.890625 -0.3125 -1.96875q0 -1.0625 0.3125 -1.9375q0.328125 -0.875 0.90625 -1.5q0.59375 -0.625 1.390625 -0.953125q0.796875 -0.34375 1.75 -0.34375q0.953125 0 1.75 0.34375q0.8125 0.328125 1.375 0.953125q0.578125 0.625 0.890625 1.5q0.328125 0.875 0.328125 1.9375zm-2.15625 0q0 -1.34375 -0.578125 -2.125q-0.578125 -0.796875 -1.609375 -0.796875q-1.046875 0 -1.625 0.796875q-0.578125 0.78125 -0.578125 2.125q0 1.375 0.578125 2.171875q0.578125 0.796875 1.625 0.796875q1.03125 0 1.609375 -0.796875q0.578125 -0.796875 0.578125 -2.171875zm5.9714966 -0.015625q0 1.390625 0.65625 2.1875q0.65625 0.78125 1.8125 0.78125q0.5 0 0.859375 -0.046875q0.359375 -0.046875 0.578125 -0.09375l0 -5.203125q-0.265625 -0.1875 -0.734375 -0.34375q-0.453125 -0.171875 -0.96875 -0.171875q-1.15625 0 -1.6875 0.78125q-0.515625 0.78125 -0.515625 2.109375zm6.015625 4.28125q-0.625 0.1875 -1.578125 0.34375q-0.9375 0.15625 -1.984375 0.15625q-1.078125 0 -1.921875 -0.328125q-0.84375 -0.328125 -1.453125 -0.9375q-0.59375 -0.609375 -0.921875 -1.484375q-0.3125 -0.875 -0.3125 -1.96875q0 -1.078125 0.265625 -1.953125q0.28125 -0.875 0.796875 -1.5q0.515625 -0.625 1.265625 -0.953125q0.75 -0.34375 1.71875 -0.34375q0.65625 0 1.15625 0.15625q0.5 0.15625 0.859375 0.34375l0 -4.34375l2.109375 -0.359375l0 13.171875zm2.1556396 -4.203125q0 -1.203125 0.359375 -2.09375q0.359375 -0.90625 0.9375 -1.5q0.59375 -0.609375 1.359375 -0.90625q0.765625 -0.296875 1.5625 -0.296875q1.859375 0 2.90625 1.15625q1.0625 1.15625 1.0625 3.46875q0 0.171875 -0.015625 0.390625q0 0.203125 -0.03125 0.390625l-5.96875 0q0.078125 1.078125 0.765625 1.6875q0.6875 0.59375 1.984375 0.59375q0.765625 0 1.390625 -0.140625q0.640625 -0.140625 1.0 -0.296875l0.28125 1.71875q-0.171875 0.09375 -0.484375 0.1875q-0.296875 0.09375 -0.6875 0.171875q-0.390625 0.078125 -0.84375 0.125q-0.453125 0.046875 -0.90625 0.046875q-1.203125 0 -2.09375 -0.34375q-0.875 -0.359375 -1.453125 -0.984375q-0.5625 -0.640625 -0.84375 -1.5q-0.28125 -0.859375 -0.28125 -1.875zm6.078125 -0.9375q0 -0.4375 -0.125 -0.828125q-0.109375 -0.390625 -0.34375 -0.671875q-0.234375 -0.28125 -0.578125 -0.4375q-0.328125 -0.171875 -0.796875 -0.171875q-0.484375 0 -0.859375 0.1875q-0.359375 0.171875 -0.609375 0.46875q-0.25 0.296875 -0.390625 0.671875q-0.140625 0.375 -0.1875 0.78125l3.890625 0zm8.588013 -4.09375q1.0 -0.390625 2.015625 -1.015625q1.015625 -0.625 1.796875 -1.484375l1.46875 0l0 12.015625l-2.09375 0l0 -9.203125q-0.46875 0.359375 -1.1875 0.71875q-0.703125 0.34375 -1.359375 0.5625l-0.640625 -1.59375z" fill-rule="nonzero"/><path fill="#efefef" d="m430.96838 160.38344l0 0c0 -6.384018 5.1752625 -11.559296 11.559265 -11.559296l120.75543 0c3.0657349 0 6.0058594 1.2178497 8.173645 3.3856354c2.1677856 2.1677856 3.3856812 5.1079407 3.3856812 8.17366l0 46.23575c0 6.384018 -5.175293 11.559296 -11.559326 11.559296l-120.75543 0c-6.3840027 0 -11.559265 -5.1752777 -11.559265 -11.559296z" fill-rule="evenodd"/><path stroke="#434343" stroke-width="2.0" stroke-linejoin="round" stroke-linecap="butt" d="m430.96838 160.38344l0 0c0 -6.384018 5.1752625 -11.559296 11.559265 -11.559296l120.75543 0c3.0657349 0 6.0058594 1.2178497 8.173645 3.3856354c2.1677856 2.1677856 3.3856812 5.1079407 3.3856812 8.17366l0 46.23575c0 6.384018 -5.175293 11.559296 -11.559326 11.559296l-120.75543 0c-6.3840027 0 -11.559265 -5.1752777 -11.559265 -11.559296z" fill-rule="evenodd"/><path fill="#000000" d="m455.42746 185.09444q0 1.078125 -0.3125 1.96875q-0.3125 0.875 -0.890625 1.5q-0.5625 0.625 -1.375 0.984375q-0.796875 0.34375 -1.765625 0.34375q-0.984375 0 -1.78125 -0.34375q-0.796875 -0.359375 -1.375 -0.984375q-0.5625 -0.625 -0.890625 -1.5q-0.3125 -0.890625 -0.3125 -1.96875q0 -1.0625 0.3125 -1.9375q0.328125 -0.875 0.90625 -1.5q0.59375 -0.625 1.390625 -0.953125q0.796875 -0.34375 1.75 -0.34375q0.953125 0 1.75 0.34375q0.8125 0.328125 1.375 0.953125q0.578125 0.625 0.890625 1.5q0.328125 0.875 0.328125 1.9375zm-2.15625 0q0 -1.34375 -0.578125 -2.125q-0.578125 -0.796875 -1.609375 -0.796875q-1.046875 0 -1.625 0.796875q-0.578125 0.78125 -0.578125 2.125q0 1.375 0.578125 2.171875q0.578125 0.796875 1.625 0.796875q1.03125 0 1.609375 -0.796875q0.578125 -0.796875 0.578125 -2.171875zm11.752777 4.265625q-0.609375 0.15625 -1.578125 0.3125q-0.96875 0.171875 -2.125 0.171875q-1.09375 0 -1.828125 -0.3125q-0.734375 -0.3125 -1.1875 -0.859375q-0.4375 -0.5625 -0.625 -1.328125q-0.1875 -0.765625 -0.1875 -1.6875l0 -5.078125l2.09375 0l0 4.75q0 1.453125 0.421875 2.078125q0.421875 0.625 1.484375 0.625q0.375 0 0.796875 -0.03125q0.4375 -0.046875 0.640625 -0.09375l0 -7.328125l2.09375 0l0 8.78125zm2.570984 -11.171875l2.09375 -0.34375l0 2.734375l3.21875 0l0 1.75l-3.21875 0l0 3.6875q0 1.09375 0.34375 1.5625q0.34375 0.46875 1.1875 0.46875q0.5625 0 1.0 -0.125q0.453125 -0.125 0.703125 -0.21875l0.34375 1.65625q-0.359375 0.15625 -0.953125 0.3125q-0.578125 0.171875 -1.375 0.171875q-0.96875 0 -1.625 -0.25q-0.65625 -0.265625 -1.03125 -0.75q-0.375 -0.5 -0.53125 -1.203125q-0.15625 -0.703125 -0.15625 -1.609375l0 -7.84375zm13.352478 6.96875q0 -1.40625 -0.640625 -2.1875q-0.625 -0.78125 -2.03125 -0.78125q-0.28125 0 -0.609375 0.03125q-0.3125 0.015625 -0.625 0.109375l0 5.1875q0.265625 0.1875 0.71875 0.359375q0.46875 0.15625 0.984375 0.15625q1.15625 0 1.671875 -0.78125q0.53125 -0.78125 0.53125 -2.09375zm2.15625 -0.03125q0 1.03125 -0.28125 1.90625q-0.265625 0.859375 -0.765625 1.484375q-0.5 0.625 -1.25 0.96875q-0.75 0.34375 -1.703125 0.34375q-0.640625 0 -1.1875 -0.15625q-0.53125 -0.15625 -0.875 -0.34375l0 3.515625l-2.109375 0l0 -11.96875q0.640625 -0.171875 1.578125 -0.328125q0.9375 -0.15625 1.984375 -0.15625q1.0625 0 1.90625 0.328125q0.859375 0.328125 1.453125 0.953125q0.609375 0.609375 0.921875 1.484375q0.328125 0.875 0.328125 1.96875zm9.59314 4.234375q-0.609375 0.15625 -1.578125 0.3125q-0.96875 0.171875 -2.125 0.171875q-1.09375 0 -1.828125 -0.3125q-0.734375 -0.3125 -1.1875 -0.859375q-0.4375 -0.5625 -0.625 -1.328125q-0.1875 -0.765625 -0.1875 -1.6875l0 -5.078125l2.09375 0l0 4.75q0 1.453125 0.421875 2.078125q0.421875 0.625 1.484375 0.625q0.375 0 0.796875 -0.03125q0.4375 -0.046875 0.640625 -0.09375l0 -7.328125l2.09375 0l0 8.78125zm2.570984 -11.171875l2.09375 -0.34375l0 2.734375l3.21875 0l0 1.75l-3.21875 0l0 3.6875q0 1.09375 0.34375 1.5625q0.34375 0.46875 1.1875 0.46875q0.5625 0 1.0 -0.125q0.453125 -0.125 0.703125 -0.21875l0.34375 1.65625q-0.359375 0.15625 -0.953125 0.3125q-0.578125 0.171875 -1.375 0.171875q-0.96875 0 -1.625 -0.25q-0.65625 -0.265625 -1.03125 -0.75q-0.375 -0.5 -0.53125 -1.203125q-0.15625 -0.703125 -0.15625 -1.609375l0 -7.84375zm11.374298 2.6875q0.609375 -0.171875 1.578125 -0.328125q0.96875 -0.15625 2.15625 -0.15625q1.109375 0 1.8437195 0.3125q0.75 0.296875 1.1875 0.84375q0.453125 0.53125 0.625 1.3125q0.1875 0.765625 0.1875 1.6875l0 5.09375l-2.09375 0l0 -4.765625q0 -0.734375 -0.09375 -1.234375q-0.09371948 -0.515625 -0.31246948 -0.828125q-0.21875 -0.328125 -0.59375 -0.46875q-0.375 -0.15625 -0.90625 -0.15625q-0.40625 0 -0.84375 0.0625q-0.421875 0.046875 -0.625 0.078125l0 7.3125l-2.109375 0l0 -8.765625zm18.339996 4.21875q0 1.078125 -0.3125 1.96875q-0.3125 0.875 -0.890625 1.5q-0.5625 0.625 -1.375 0.984375q-0.796875 0.34375 -1.765625 0.34375q-0.984375 0 -1.78125 -0.34375q-0.796875 -0.359375 -1.375 -0.984375q-0.5625 -0.625 -0.890625 -1.5q-0.3125 -0.890625 -0.3125 -1.96875q0 -1.0625 0.3125 -1.9375q0.328125 -0.875 0.90625 -1.5q0.59375 -0.625 1.390625 -0.953125q0.796875 -0.34375 1.75 -0.34375q0.953125 0 1.75 0.34375q0.8125 0.328125 1.375 0.953125q0.578125 0.625 0.890625 1.5q0.328125 0.875 0.328125 1.9375zm-2.15625 0q0 -1.34375 -0.578125 -2.125q-0.578125 -0.796875 -1.609375 -0.796875q-1.046875 0 -1.625 0.796875q-0.578125 0.78125 -0.578125 2.125q0 1.375 0.578125 2.171875q0.578125 0.796875 1.625 0.796875q1.03125 0 1.609375 -0.796875q0.578125 -0.796875 0.578125 -2.171875zm5.9715576 -0.015625q0 1.390625 0.65625 2.1875q0.65625 0.78125 1.8125 0.78125q0.5 0 0.859375 -0.046875q0.359375 -0.046875 0.578125 -0.09375l0 -5.203125q-0.265625 -0.1875 -0.734375 -0.34375q-0.453125 -0.171875 -0.96875 -0.171875q-1.15625 0 -1.6875 0.78125q-0.515625 0.78125 -0.515625 2.109375zm6.015625 4.28125q-0.625 0.1875 -1.578125 0.34375q-0.9375 0.15625 -1.984375 0.15625q-1.078125 0 -1.921875 -0.328125q-0.84375 -0.328125 -1.453125 -0.9375q-0.59375 -0.609375 -0.921875 -1.484375q-0.3125 -0.875 -0.3125 -1.96875q0 -1.078125 0.265625 -1.953125q0.28125 -0.875 0.796875 -1.5q0.515625 -0.625 1.265625 -0.953125q0.75 -0.34375 1.71875 -0.34375q0.65625 0 1.15625 0.15625q0.5 0.15625 0.859375 0.34375l0 -4.34375l2.109375 -0.359375l0 13.171875zm2.1555786 -4.203125q0 -1.203125 0.359375 -2.09375q0.359375 -0.90625 0.9375 -1.5q0.59375 -0.609375 1.359375 -0.90625q0.765625 -0.296875 1.5625 -0.296875q1.859375 0 2.90625 1.15625q1.0625 1.15625 1.0625 3.46875q0 0.171875 -0.015625 0.390625q0 0.203125 -0.03125 0.390625l-5.96875 0q0.078125 1.078125 0.765625 1.6875q0.6875 0.59375 1.984375 0.59375q0.765625 0 1.390625 -0.140625q0.640625 -0.140625 1.0 -0.296875l0.28125 1.71875q-0.171875 0.09375 -0.484375 0.1875q-0.296875 0.09375 -0.6875 0.171875q-0.390625 0.078125 -0.84375 0.125q-0.453125 0.046875 -0.90625 0.046875q-1.203125 0 -2.09375 -0.34375q-0.875 -0.359375 -1.453125 -0.984375q-0.5625 -0.640625 -0.84375 -1.5q-0.28125 -0.859375 -0.28125 -1.875zm6.078125 -0.9375q0 -0.4375 -0.125 -0.828125q-0.109375 -0.390625 -0.34375 -0.671875q-0.234375 -0.28125 -0.578125 -0.4375q-0.328125 -0.171875 -0.796875 -0.171875q-0.484375 0 -0.859375 0.1875q-0.359375 0.171875 -0.609375 0.46875q-0.25 0.296875 -0.390625 0.671875q-0.140625 0.375 -0.1875 0.78125l3.890625 0zm15.353638 -3.46875q0 0.625 -0.265625 1.234375q-0.25 0.59375 -0.65625 1.15625q-0.40625 0.5625 -0.9375 1.09375q-0.515625 0.515625 -1.03125 1.015625q-0.28125 0.265625 -0.625 0.640625q-0.34375 0.359375 -0.65625 0.71875q-0.3125 0.359375 -0.546875 0.703125q-0.21875 0.328125 -0.234375 0.5625l5.34375 0l0 1.765625l-7.640625 0q-0.015625 -0.140625 -0.015625 -0.328125q0 -0.203125 0 -0.3125q0 -0.828125 0.265625 -1.53125q0.265625 -0.703125 0.6875 -1.3125q0.4375 -0.609375 0.96875 -1.140625q0.546875 -0.53125 1.09375 -1.0625q0.40625 -0.390625 0.78125 -0.765625q0.390625 -0.390625 0.671875 -0.765625q0.296875 -0.375 0.46875 -0.765625q0.171875 -0.390625 0.171875 -0.796875q0 -0.90625 -0.53125 -1.28125q-0.515625 -0.390625 -1.25 -0.390625q-0.484375 0 -0.90625 0.140625q-0.421875 0.140625 -0.75 0.328125q-0.3125 0.1875 -0.5625 0.390625q-0.234375 0.203125 -0.359375 0.328125l-1.03125 -1.484375q0.71875 -0.6875 1.703125 -1.109375q0.984375 -0.421875 2.109375 -0.421875q1.921875 0 2.828125 0.90625q0.90625 0.90625 0.90625 2.484375z" fill-rule="nonzero"/><path fill="#efefef" d="m430.96838 245.4753l0 0c0 -6.384018 5.1752625 -11.55928 11.559296 -11.55928l120.7554 0c3.0657349 0 6.0059204 1.2178497 8.173706 3.3856354c2.1677856 2.1677856 3.38562 5.1079254 3.38562 8.173645l0 46.235764c0 6.3840027 -5.175293 11.559296 -11.559326 11.559296l-120.7554 0c-6.384033 0 -11.559296 -5.175293 -11.559296 -11.559296z" fill-rule="evenodd"/><path stroke="#434343" stroke-width="2.0" stroke-linejoin="round" stroke-linecap="butt" d="m430.96838 245.4753l0 0c0 -6.384018 5.1752625 -11.55928 11.559296 -11.55928l120.7554 0c3.0657349 0 6.0059204 1.2178497 8.173706 3.3856354c2.1677856 2.1677856 3.38562 5.1079254 3.38562 8.173645l0 46.235764c0 6.3840027 -5.175293 11.559296 -11.559326 11.559296l-120.7554 0c-6.384033 0 -11.559296 -5.175293 -11.559296 -11.559296z" fill-rule="evenodd"/><path fill="#000000" d="m455.28015 270.1863q0 1.078125 -0.3125 1.96875q-0.3125 0.875 -0.890625 1.5q-0.5625 0.625 -1.375 0.984375q-0.796875 0.34375 -1.765625 0.34375q-0.984375 0 -1.78125 -0.34375q-0.796875 -0.359375 -1.375 -0.984375q-0.5625 -0.625 -0.890625 -1.5q-0.3125 -0.890625 -0.3125 -1.96875q0 -1.0625 0.3125 -1.9375q0.328125 -0.875 0.90625 -1.5q0.59375 -0.625 1.390625 -0.953125q0.796875 -0.34375 1.75 -0.34375q0.953125 0 1.75 0.34375q0.8125 0.328125 1.375 0.953125q0.578125 0.625 0.890625 1.5q0.328125 0.875 0.328125 1.9375zm-2.15625 0q0 -1.34375 -0.578125 -2.125q-0.578125 -0.796875 -1.609375 -0.796875q-1.046875 0 -1.625 0.796875q-0.578125 0.78125 -0.578125 2.125q0 1.375 0.578125 2.171875q0.578125 0.796875 1.625 0.796875q1.03125 0 1.609375 -0.796875q0.578125 -0.796875 0.578125 -2.171875zm11.752777 4.265625q-0.609375 0.15625 -1.578125 0.3125q-0.96875 0.171875 -2.125 0.171875q-1.09375 0 -1.828125 -0.3125q-0.734375 -0.3125 -1.1875 -0.859375q-0.4375 -0.5625 -0.625 -1.328125q-0.1875 -0.765625 -0.1875 -1.6875l0 -5.078125l2.09375 0l0 4.75q0 1.453125 0.421875 2.078125q0.421875 0.625 1.484375 0.625q0.375 0 0.796875 -0.03125q0.4375 -0.046875 0.640625 -0.09375l0 -7.328125l2.09375 0l0 8.78125zm2.570984 -11.171875l2.09375 -0.34375l0 2.734375l3.21875 0l0 1.75l-3.21875 0l0 3.6875q0 1.09375 0.34375 1.5625q0.34375 0.46875 1.1875 0.46875q0.5625 0 1.0 -0.125q0.453125 -0.125 0.703125 -0.21875l0.34375 1.65625q-0.359375 0.15625 -0.953125 0.3125q-0.578125 0.171875 -1.375 0.171875q-0.96875 0 -1.625 -0.25q-0.65625 -0.265625 -1.03125 -0.75q-0.375 -0.5 -0.53125 -1.203125q-0.15625 -0.703125 -0.15625 -1.609375l0 -7.84375zm13.352509 6.96875q0 -1.40625 -0.640625 -2.1875q-0.625 -0.78125 -2.03125 -0.78125q-0.28125 0 -0.609375 0.03125q-0.3125 0.015625 -0.625 0.109375l0 5.1875q0.265625 0.1875 0.71875 0.359375q0.46875 0.15625 0.984375 0.15625q1.15625 0 1.671875 -0.78125q0.53125 -0.78125 0.53125 -2.09375zm2.15625 -0.03125q0 1.03125 -0.28125 1.90625q-0.265625 0.859375 -0.765625 1.484375q-0.5 0.625 -1.25 0.96875q-0.75 0.34375 -1.703125 0.34375q-0.640625 0 -1.1875 -0.15625q-0.53125 -0.15625 -0.875 -0.34375l0 3.515625l-2.109375 0l0 -11.96875q0.640625 -0.171875 1.578125 -0.328125q0.9375 -0.15625 1.984375 -0.15625q1.0625 0 1.90625 0.328125q0.859375 0.328125 1.453125 0.953125q0.609375 0.609375 0.921875 1.484375q0.328125 0.875 0.328125 1.96875zm9.593109 4.234375q-0.609375 0.15625 -1.578125 0.3125q-0.96875 0.171875 -2.125 0.171875q-1.09375 0 -1.828125 -0.3125q-0.734375 -0.3125 -1.1875 -0.859375q-0.4375 -0.5625 -0.625 -1.328125q-0.1875 -0.765625 -0.1875 -1.6875l0 -5.078125l2.09375 0l0 4.75q0 1.453125 0.421875 2.078125q0.421875 0.625 1.484375 0.625q0.375 0 0.796875 -0.03125q0.4375 -0.046875 0.640625 -0.09375l0 -7.328125l2.09375 0l0 8.78125zm2.570984 -11.171875l2.09375 -0.34375l0 2.734375l3.21875 0l0 1.75l-3.21875 0l0 3.6875q0 1.09375 0.34375 1.5625q0.34375 0.46875 1.1875 0.46875q0.5625 0 1.0 -0.125q0.453125 -0.125 0.703125 -0.21875l0.34375 1.65625q-0.359375 0.15625 -0.953125 0.3125q-0.578125 0.171875 -1.375 0.171875q-0.96875 0 -1.625 -0.25q-0.65625 -0.265625 -1.03125 -0.75q-0.375 -0.5 -0.53125 -1.203125q-0.15625 -0.703125 -0.15625 -1.609375l0 -7.84375zm11.374298 2.6875q0.609375 -0.171875 1.578125 -0.328125q0.96875 -0.15625 2.15625 -0.15625q1.109375 0 1.84375 0.3125q0.75 0.296875 1.1875 0.84375q0.453125 0.53125 0.625 1.3125q0.1875 0.765625 0.1875 1.6875l0 5.09375l-2.09375 0l0 -4.765625q0 -0.734375 -0.09375 -1.234375q-0.09375 -0.515625 -0.3125 -0.828125q-0.21875 -0.328125 -0.59375 -0.46875q-0.375 -0.15625 -0.90625 -0.15625q-0.40625 0 -0.84375 0.0625q-0.421875 0.046875 -0.625 0.078125l0 7.3125l-2.109375 0l0 -8.765625zm18.340027 4.21875q0 1.078125 -0.3125 1.96875q-0.3125 0.875 -0.890625 1.5q-0.5625 0.625 -1.375 0.984375q-0.796875 0.34375 -1.765625 0.34375q-0.984375 0 -1.78125 -0.34375q-0.796875 -0.359375 -1.375 -0.984375q-0.5625 -0.625 -0.890625 -1.5q-0.3125 -0.890625 -0.3125 -1.96875q0 -1.0625 0.3125 -1.9375q0.328125 -0.875 0.90625 -1.5q0.59375 -0.625 1.390625 -0.953125q0.796875 -0.34375 1.75 -0.34375q0.953125 0 1.75 0.34375q0.8125 0.328125 1.375 0.953125q0.578125 0.625 0.890625 1.5q0.328125 0.875 0.328125 1.9375zm-2.15625 0q0 -1.34375 -0.578125 -2.125q-0.578125 -0.796875 -1.609375 -0.796875q-1.046875 0 -1.625 0.796875q-0.578125 0.78125 -0.578125 2.125q0 1.375 0.578125 2.171875q0.578125 0.796875 1.625 0.796875q1.03125 0 1.609375 -0.796875q0.578125 -0.796875 0.578125 -2.171875zm5.9714966 -0.015625q0 1.390625 0.65625 2.1875q0.65625 0.78125 1.8125 0.78125q0.5 0 0.859375 -0.046875q0.359375 -0.046875 0.578125 -0.09375l0 -5.203125q-0.265625 -0.1875 -0.734375 -0.34375q-0.453125 -0.171875 -0.96875 -0.171875q-1.15625 0 -1.6875 0.78125q-0.515625 0.78125 -0.515625 2.109375zm6.015625 4.28125q-0.625 0.1875 -1.578125 0.34375q-0.9375 0.15625 -1.984375 0.15625q-1.078125 0 -1.921875 -0.328125q-0.84375 -0.328125 -1.453125 -0.9375q-0.59375 -0.609375 -0.921875 -1.484375q-0.3125 -0.875 -0.3125 -1.96875q0 -1.078125 0.265625 -1.953125q0.28125 -0.875 0.796875 -1.5q0.515625 -0.625 1.265625 -0.953125q0.75 -0.34375 1.71875 -0.34375q0.65625 0 1.15625 0.15625q0.5 0.15625 0.859375 0.34375l0 -4.34375l2.109375 -0.359375l0 13.171875zm2.1556396 -4.203125q0 -1.203125 0.359375 -2.09375q0.359375 -0.90625 0.9375 -1.5q0.59375 -0.609375 1.359375 -0.90625q0.765625 -0.296875 1.5625 -0.296875q1.859375 0 2.90625 1.15625q1.0625 1.15625 1.0625 3.46875q0 0.171875 -0.015625 0.390625q0 0.203125 -0.03125 0.390625l-5.96875 0q0.078125 1.078125 0.765625 1.6875q0.6875 0.59375 1.984375 0.59375q0.765625 0 1.390625 -0.140625q0.640625 -0.140625 1.0 -0.296875l0.28125 1.71875q-0.171875 0.09375 -0.484375 0.1875q-0.296875 0.09375 -0.6875 0.171875q-0.390625 0.078125 -0.84375 0.125q-0.453125 0.046875 -0.90625 0.046875q-1.203125 0 -2.09375 -0.34375q-0.875 -0.359375 -1.453125 -0.984375q-0.5625 -0.640625 -0.84375 -1.5q-0.28125 -0.859375 -0.28125 -1.875zm6.078125 -0.9375q0 -0.4375 -0.125 -0.828125q-0.109375 -0.390625 -0.34375 -0.671875q-0.234375 -0.28125 -0.578125 -0.4375q-0.328125 -0.171875 -0.796875 -0.171875q-0.484375 0 -0.859375 0.1875q-0.359375 0.171875 -0.609375 0.46875q-0.25 0.296875 -0.390625 0.671875q-0.140625 0.375 -0.1875 0.78125l3.890625 0zm8.353638 -3.34375q0.609375 -0.171875 1.578125 -0.328125q0.96875 -0.15625 2.15625 -0.15625q1.109375 0 1.84375 0.3125q0.75 0.296875 1.1875 0.84375q0.453125 0.53125 0.625 1.3125q0.1875 0.765625 0.1875 1.6875l0 5.09375l-2.09375 0l0 -4.765625q0 -0.734375 -0.09375 -1.234375q-0.09375 -0.515625 -0.3125 -0.828125q-0.21875 -0.328125 -0.59375 -0.46875q-0.375 -0.15625 -0.90625 -0.15625q-0.40625 0 -0.84375 0.0625q-0.421875 0.046875 -0.625 0.078125l0 7.3125l-2.109375 0l0 -8.765625z" fill-rule="nonzero"/><path fill="#000000" fill-opacity="0.0" d="m365.32474 183.46982c16.411102 0 24.617462 -21.267715 32.822205 -42.53543c8.204712 -21.267723 16.407806 -42.53544 32.815613 -42.53544" fill-rule="evenodd"/><path stroke="#434343" stroke-width="1.0" stroke-linejoin="round" stroke-linecap="butt" d="m365.32477 183.46982c16.411072 0 24.617462 -21.267715 32.822174 -42.53543c4.102356 -10.633865 8.204315 -21.267723 13.331665 -29.24311c2.5636292 -3.9877014 5.383667 -7.3107834 8.588226 -9.63694c0.8012085 -0.58153534 1.6263733 -1.100769 2.4775696 -1.5524979c0.42562866 -0.22586823 0.85775757 -0.43486023 1.2966309 -0.6263275c0.21942139 -0.09572601 0.44055176 -0.18708038 0.6633911 -0.27397156c0.11141968 -0.0434494 0.22329712 -0.08576965 0.3356018 -0.12697601l0.20681763 -0.073524475" fill-rule="evenodd"/><path fill="#434343" stroke="#434343" stroke-width="1.0" stroke-linecap="butt" d="m425.3227 101.02957l4.1984863 -2.3864594l-4.7502136 -0.87060547z" fill-rule="evenodd"/><path fill="#000000" fill-opacity="0.0" d="m365.32474 183.46982c16.410767 0 24.616821 0.01574707 32.821533 0.03149414c8.204712 0.01574707 16.408142 0.03149414 32.816284 0.03149414" fill-rule="evenodd"/><path stroke="#434343" stroke-width="1.0" stroke-linejoin="round" stroke-linecap="butt" d="m365.32477 183.46982c16.410767 0 24.61679 0.01574707 32.821503 0.03149414c4.1023865 0.007873535 8.204407 0.01574707 13.331879 0.021652222c2.5637207 0.002960205 5.3838196 0.00541687 8.58844 0.0071411133l4.8959656 0.0012054443" fill-rule="evenodd"/><path fill="#434343" stroke="#434343" stroke-width="1.0" stroke-linecap="butt" d="m424.96216 185.18304l4.5384827 -1.6506042l-4.5376587 -1.6528473z" fill-rule="evenodd"/><path fill="#000000" fill-opacity="0.0" d="m365.32474 183.46982c16.410767 0 24.616821 21.283463 32.821533 42.566925c8.204712 21.283463 16.408142 42.566925 32.816284 42.566925" fill-rule="evenodd"/><path stroke="#434343" stroke-width="1.0" stroke-linejoin="round" stroke-linecap="butt" d="m365.32477 183.46982c16.410767 0 24.61679 21.283463 32.821503 42.566925c4.1023865 10.641739 8.204407 21.283463 13.331879 29.26477c2.5637207 3.990631 5.3838196 7.3161926 8.58844 9.6440735c0.801178 0.5819702 1.6264038 1.1015625 2.4776611 1.5536194c0.42559814 0.22607422 0.85772705 0.43521118 1.2966309 0.62683105c0.2194519 0.09579468 0.44058228 0.18719482 0.66342163 0.27416992c0.11141968 0.04345703 0.22329712 0.08581543 0.3356018 0.1270752l0.20706177 0.073638916" fill-rule="evenodd"/><path fill="#434343" stroke="#434343" stroke-width="1.0" stroke-linecap="butt" d="m424.7709 269.22943l4.750305 -0.87008667l-4.1982117 -2.3869324z" fill-rule="evenodd"/></g></svg>