<svg version="1.1" viewBox="0.0 0.0 451.66141732283467 404.76640419947506" fill="none" stroke="none" stroke-linecap="square" stroke-miterlimit="10" xmlns:xlink="http://www.w3.org/1999/xlink" xmlns="http://www.w3.org/2000/svg"><clipPath id="p.0"><path d="m0 0l451.6614 0l0 404.76642l-451.6614 0l0 -404.76642z" clip-rule="nonzero"/></clipPath><g clip-path="url(#p.0)"><path fill="#000000" fill-opacity="0.0" d="m0 0l451.6614 0l0 404.76642l-451.6614 0z" fill-rule="evenodd"/><path fill="#cccccc" d="m8.051181 43.70843l0 0c0 -19.805298 16.055367 -35.86066 35.86066 -35.86066l363.83774 0c9.510834 0 18.632141 3.7781653 25.35733 10.5033455c6.7251587 6.725178 10.503326 15.846479 10.503326 25.357317l0 317.34955c0 19.805298 -16.055359 35.860657 -35.860657 35.860657l-363.83774 0c-19.805296 0 -35.86066 -16.055359 -35.86066 -35.860657z" fill-rule="evenodd"/><path stroke="#434343" stroke-width="3.0" stroke-linejoin="round" stroke-linecap="butt" d="m8.051181 43.70843l0 0c0 -19.805298 16.055367 -35.86066 35.86066 -35.86066l363.83774 0c9.510834 0 18.632141 3.7781653 25.35733 10.5033455c6.7251587 6.725178 10.503326 15.846479 10.503326 25.357317l0 317.34955c0 19.805298 -16.055359 35.860657 -35.860657 35.860657l-363.83774 0c-19.805296 0 -35.86066 -16.055359 -35.86066 -35.860657z" fill-rule="evenodd"/><path fill="#efefef" d="m87.014435 45.412273l0 0c0 -5.522957 4.4772415 -10.000198 10.000198 -10.000198l99.71614 0c2.6522217 0 5.195801 1.0535889 7.071213 2.9289894c1.8753967 1.8754005 2.9289856 4.418991 2.9289856 7.071209l0 39.9996c0 5.522957 -4.477249 10.000198 -10.000198 10.000198l-99.71614 0c-5.522957 0 -10.000198 -4.4772415 -10.000198 -10.000198z" fill-rule="evenodd"/><path stroke="#434343" stroke-width="2.0" stroke-linejoin="round" stroke-linecap="butt" d="m87.014435 45.412273l0 0c0 -5.522957 4.4772415 -10.000198 10.000198 -10.000198l99.71614 0c2.6522217 0 5.195801 1.0535889 7.071213 2.9289894c1.8753967 1.8754005 2.9289856 4.418991 2.9289856 7.071209l0 39.9996c0 5.522957 -4.477249 10.000198 -10.000198 10.000198l-99.71614 0c-5.522957 0 -10.000198 -4.4772415 -10.000198 -10.000198z" fill-rule="evenodd"/><path fill="#000000" d="m125.84865 55.147076q-0.234375 -0.078125 -0.671875 -0.15625q-0.421875 -0.09375 -0.96875 -0.09375q-0.328125 0 -0.6875 0.0625q-0.359375 0.0625 -0.5 0.109375l0 6.703125l-1.9375 0l0 -7.96875q0.5625 -0.203125 1.390625 -0.390625q0.84375 -0.1875 1.875 -0.1875q0.1875 0 0.4375 0.03125q0.265625 0.015625 0.515625 0.0625q0.265625 0.03125 0.5 0.09375q0.234375 0.0625 0.390625 0.109375l-0.34375 1.625zm1.2136383 2.484375q0 -1.109375 0.328125 -1.9375q0.328125 -0.828125 0.875 -1.375q0.546875 -0.5625 1.25 -0.84375q0.703125 -0.28125 1.4375 -0.28125q1.734375 0 2.6875 1.078125q0.96875 1.0625 0.96875 3.203125q0 0.15625 -0.015625 0.359375q0 0.1875 -0.015625 0.359375l-5.515625 0q0.078125 1.0 0.703125 1.5625q0.640625 0.546875 1.84375 0.546875q0.703125 0 1.28125 -0.125q0.59375 -0.140625 0.921875 -0.28125l0.265625 1.59375q-0.171875 0.078125 -0.453125 0.171875q-0.265625 0.078125 -0.625 0.140625q-0.359375 0.078125 -0.78125 0.125q-0.421875 0.046875 -0.84375 0.046875q-1.109375 0 -1.921875 -0.328125q-0.8125 -0.328125 -1.34375 -0.90625q-0.53125 -0.578125 -0.796875 -1.375q-0.25 -0.796875 -0.25 -1.734375zm5.625 -0.875q0 -0.390625 -0.125 -0.75q-0.109375 -0.359375 -0.328125 -0.625q-0.203125 -0.265625 -0.515625 -0.40625q-0.3125 -0.15625 -0.75 -0.15625q-0.453125 0 -0.796875 0.171875q-0.328125 0.15625 -0.5625 0.4375q-0.21875 0.265625 -0.359375 0.625q-0.125 0.34375 -0.171875 0.703125l3.609375 0zm3.5110168 0.84375q0 -0.9375 0.28125 -1.734375q0.296875 -0.8125 0.828125 -1.40625q0.546875 -0.59375 1.3125 -0.921875q0.765625 -0.34375 1.71875 -0.34375q1.1875 0 2.25 0.4375l-0.421875 1.578125q-0.328125 -0.140625 -0.765625 -0.234375q-0.421875 -0.09375 -0.890625 -0.09375q-1.140625 0 -1.734375 0.71875q-0.59375 0.703125 -0.59375 2.0q0 1.25 0.5625 1.984375q0.5625 0.71875 1.890625 0.71875q0.5 0 0.96875 -0.09375q0.484375 -0.09375 0.84375 -0.25l0.265625 1.609375q-0.328125 0.15625 -0.984375 0.28125q-0.640625 0.125 -1.328125 0.125q-1.0625 0 -1.859375 -0.328125q-0.796875 -0.328125 -1.3125 -0.90625q-0.515625 -0.578125 -0.78125 -1.390625q-0.25 -0.8125 -0.25 -1.75zm7.552017 0.03125q0 -1.109375 0.328125 -1.9375q0.328125 -0.828125 0.875 -1.375q0.546875 -0.5625 1.25 -0.84375q0.703125 -0.28125 1.4375 -0.28125q1.734375 0 2.6875 1.078125q0.96875 1.0625 0.96875 3.203125q0 0.15625 -0.015625 0.359375q0 0.1875 -0.015625 0.359375l-5.515625 0q0.078125 1.0 0.703125 1.5625q0.640625 0.546875 1.84375 0.546875q0.703125 0 1.28125 -0.125q0.59375 -0.140625 0.921875 -0.28125l0.265625 1.59375q-0.171875 0.078125 -0.453125 0.171875q-0.265625 0.078125 -0.625 0.140625q-0.359375 0.078125 -0.78125 0.125q-0.421875 0.046875 -0.84375 0.046875q-1.109375 0 -1.921875 -0.328125q-0.8125 -0.328125 -1.34375 -0.90625q-0.53125 -0.578125 -0.796875 -1.375q-0.25 -0.796875 -0.25 -1.734375zm5.625 -0.875q0 -0.390625 -0.125 -0.75q-0.109375 -0.359375 -0.328125 -0.625q-0.203125 -0.265625 -0.515625 -0.40625q-0.3125 -0.15625 -0.75 -0.15625q-0.453125 0 -0.796875 0.171875q-0.328125 0.15625 -0.5625 0.4375q-0.21875 0.265625 -0.359375 0.625q-0.125 0.34375 -0.171875 0.703125l3.609375 0zm5.932892 5.015625l-1.9375 0l0 -8.375l1.9375 0l0 8.375zm0.203125 -10.8125q0 0.546875 -0.359375 0.875q-0.34375 0.3125 -0.828125 0.3125q-0.484375 0 -0.84375 -0.3125q-0.34375 -0.328125 -0.34375 -0.875q0 -0.5625 0.34375 -0.875q0.359375 -0.328125 0.84375 -0.328125q0.484375 0 0.828125 0.328125q0.359375 0.3125 0.359375 0.875zm4.4003906 10.8125q-0.796875 -1.640625 -1.640625 -3.78125q-0.84375 -2.140625 -1.53125 -4.59375l2.0625 0q0.1875 0.71875 0.40625 1.53125q0.234375 0.796875 0.5 1.609375q0.265625 0.796875 0.546875 1.5625q0.28125 0.765625 0.515625 1.375q0.25 -0.609375 0.515625 -1.375q0.28125 -0.765625 0.53125 -1.5625q0.265625 -0.8125 0.5 -1.609375q0.25 -0.8125 0.421875 -1.53125l2.0 0q-0.6875 2.453125 -1.53125 4.59375q-0.828125 2.140625 -1.625 3.78125l-1.671875 0zm5.6146393 -4.140625q0 -1.109375 0.328125 -1.9375q0.328125 -0.828125 0.875 -1.375q0.546875 -0.5625 1.25 -0.84375q0.703125 -0.28125 1.4375 -0.28125q1.734375 0 2.6875 1.078125q0.96875 1.0625 0.96875 3.203125q0 0.15625 -0.015625 0.359375q0 0.1875 -0.015625 0.359375l-5.515625 0q0.078125 1.0 0.703125 1.5625q0.640625 0.546875 1.84375 0.546875q0.703125 0 1.28125 -0.125q0.59375 -0.140625 0.921875 -0.28125l0.265625 1.59375q-0.171875 0.078125 -0.453125 0.171875q-0.265625 0.078125 -0.625 0.140625q-0.359375 0.078125 -0.78125 0.125q-0.421875 0.046875 -0.84375 0.046875q-1.109375 0 -1.921875 -0.328125q-0.8125 -0.328125 -1.34375 -0.90625q-0.53125 -0.578125 -0.796875 -1.375q-0.25 -0.796875 -0.25 -1.734375zm5.625 -0.875q0 -0.390625 -0.125 -0.75q-0.109375 -0.359375 -0.328125 -0.625q-0.203125 -0.265625 -0.515625 -0.40625q-0.3125 -0.15625 -0.75 -0.15625q-0.453125 0 -0.796875 0.171875q-0.328125 0.15625 -0.5625 0.4375q-0.21875 0.265625 -0.359375 0.625q-0.125 0.34375 -0.171875 0.703125l3.609375 0z" fill-rule="nonzero"/><path fill="#000000" d="m127.40415 80.77207l-1.9375 0l0 -8.375l1.9375 0l0 8.375zm0.203125 -10.8125q0 0.546875 -0.359375 0.875q-0.34375 0.3125 -0.828125 0.3125q-0.484375 0 -0.84375 -0.3125q-0.34375 -0.328125 -0.34375 -0.875q0 -0.5625 0.34375 -0.875q0.359375 -0.328125 0.84375 -0.328125q0.484375 0 0.828125 0.328125q0.359375 0.3125 0.359375 0.875zm7.0253983 6.40625q0 -1.3125 -0.328125 -1.890625q-0.328125 -0.578125 -1.21875 -0.578125q-0.328125 0 -0.71875 0.046875q-0.375 0.046875 -0.5625 0.078125l0 6.75l-1.9375 0l0 -8.09375q0.5625 -0.15625 1.453125 -0.296875q0.90625 -0.15625 1.921875 -0.15625q0.859375 0 1.40625 0.234375q0.5625 0.21875 0.921875 0.578125q0.1875 -0.125 0.453125 -0.265625q0.265625 -0.140625 0.609375 -0.265625q0.34375 -0.125 0.71875 -0.203125q0.375 -0.078125 0.75 -0.078125q0.984375 0 1.609375 0.28125q0.640625 0.28125 1.0 0.796875q0.359375 0.5 0.484375 1.21875q0.140625 0.703125 0.140625 1.546875l0 4.703125l-1.9375 0l0 -4.40625q0 -1.3125 -0.328125 -1.890625q-0.3125 -0.578125 -1.21875 -0.578125q-0.46875 0 -0.890625 0.15625q-0.40625 0.140625 -0.609375 0.28125q0.125 0.40625 0.171875 0.859375q0.046875 0.4375 0.046875 0.953125l0 4.625l-1.9375 0l0 -4.40625zm12.011902 3.046875q0.90625 0 1.359375 -0.09375l0 -2.140625q-0.15625 -0.046875 -0.46875 -0.09375q-0.296875 -0.0625 -0.65625 -0.0625q-0.328125 0 -0.65625 0.0625q-0.328125 0.046875 -0.59375 0.171875q-0.265625 0.125 -0.421875 0.359375q-0.15625 0.234375 -0.15625 0.578125q0 0.6875 0.421875 0.953125q0.4375 0.265625 1.171875 0.265625zm-0.15625 -7.21875q0.953125 0 1.609375 0.25q0.65625 0.234375 1.046875 0.671875q0.40625 0.421875 0.5625 1.046875q0.171875 0.609375 0.171875 1.34375l0 5.078125q-0.453125 0.09375 -1.359375 0.21875q-0.890625 0.140625 -2.03125 0.140625q-0.75 0 -1.375 -0.140625q-0.625 -0.140625 -1.0625 -0.453125q-0.4375 -0.328125 -0.6875 -0.84375q-0.25 -0.515625 -0.25 -1.265625q0 -0.71875 0.28125 -1.203125q0.28125 -0.5 0.75 -0.8125q0.484375 -0.3125 1.109375 -0.453125q0.640625 -0.140625 1.328125 -0.140625q0.328125 0 0.671875 0.046875q0.359375 0.03125 0.75 0.140625l0 -0.328125q0 -0.328125 -0.078125 -0.625q-0.078125 -0.3125 -0.28125 -0.546875q-0.203125 -0.234375 -0.53125 -0.359375q-0.328125 -0.125 -0.8125 -0.125q-0.671875 0 -1.234375 0.09375q-0.5625 0.09375 -0.90625 0.21875l-0.25 -1.5625q0.375 -0.125 1.078125 -0.25q0.703125 -0.140625 1.5 -0.140625zm7.2783966 4.171875q0 1.234375 0.53123474 1.8125q0.546875 0.5625 1.390625 0.5625q0.46875 0 0.875 -0.125q0.40625 -0.125 0.65625 -0.3125l0 -4.328125q-0.203125 -0.046875 -0.515625 -0.078125q-0.296875 -0.046875 -0.765625 -0.046875q-1.046875 0 -1.609375 0.703125q-0.56248474 0.6875 -0.56248474 1.8125zm5.3906097 3.5625q0 2.0 -1.015625 2.921875q-1.015625 0.9375 -3.109375 0.9375q-0.765625 0 -1.4999847 -0.140625q-0.71875 -0.125 -1.3125 -0.328125l0.34375 -1.65625q0.5 0.21875 1.125 0.34375q0.64060974 0.125 1.3749847 0.125q1.171875 0 1.65625 -0.484375q0.5 -0.46875 0.5 -1.421875l0 -0.3125q-0.28125 0.140625 -0.765625 0.28125q-0.46875 0.140625 -1.0625 0.140625q-0.8125 0 -1.4843597 -0.25q-0.65625 -0.25 -1.125 -0.75q-0.46875 -0.5 -0.734375 -1.234375q-0.265625 -0.75 -0.265625 -1.734375q0 -0.90625 0.28125 -1.671875q0.28125 -0.765625 0.8125 -1.3125q0.546875 -0.546875 1.3124847 -0.84375q0.765625 -0.3125 1.734375 -0.3125q0.953125 0 1.796875 0.15625q0.84375 0.140625 1.4375 0.296875l0 7.25zm2.0010223 -3.296875q0 -1.109375 0.328125 -1.9375q0.328125 -0.828125 0.875 -1.375q0.546875 -0.5625 1.25 -0.84375q0.703125 -0.28125 1.4375 -0.28125q1.734375 0 2.6875 1.078125q0.96875 1.0625 0.96875 3.203125q0 0.15625 -0.015625 0.359375q0 0.1875 -0.015625 0.359375l-5.515625 0q0.078125 1.0 0.703125 1.5625q0.640625 0.546875 1.84375 0.546875q0.703125 0 1.28125 -0.125q0.59375 -0.140625 0.921875 -0.28125l0.265625 1.59375q-0.171875 0.078125 -0.453125 0.171875q-0.265625 0.078125 -0.625 0.140625q-0.359375 0.078125 -0.78125 0.125q-0.421875 0.046875 -0.84375 0.046875q-1.109375 0 -1.921875 -0.328125q-0.8125 -0.328125 -1.34375 -0.90625q-0.53125 -0.578125 -0.796875 -1.375q-0.25 -0.796875 -0.25 -1.734375zm5.625 -0.875q0 -0.390625 -0.125 -0.75q-0.109375 -0.359375 -0.328125 -0.625q-0.203125 -0.265625 -0.515625 -0.40625q-0.3125 -0.15625 -0.75 -0.15625q-0.453125 0 -0.796875 0.171875q-0.328125 0.15625 -0.5625 0.4375q-0.21875 0.265625 -0.359375 0.625q-0.125 0.34375 -0.171875 0.703125l3.609375 0z" fill-rule="nonzero"/><path fill="#f6b26b" d="m21.077427 232.92918l0 0c0 -5.5229645 4.4772434 -10.000214 10.0002 -10.000214l230.67677 0c2.6522217 0 5.195801 1.0535889 7.0711975 2.9290009c1.8753967 1.8753967 2.929016 4.418991 2.929016 7.071213l0 39.999588c0 5.522949 -4.4772644 10.000214 -10.000214 10.000214l-230.67677 0c-5.522957 0 -10.0002 -4.4772644 -10.0002 -10.000214z" fill-rule="evenodd"/><path stroke="#434343" stroke-width="2.0" stroke-linejoin="round" stroke-linecap="butt" d="m21.077427 232.92918l0 0c0 -5.5229645 4.4772434 -10.000214 10.0002 -10.000214l230.67677 0c2.6522217 0 5.195801 1.0535889 7.0711975 2.9290009c1.8753967 1.8753967 2.929016 4.418991 2.929016 7.071213l0 39.999588c0 5.522949 -4.4772644 10.000214 -10.000214 10.000214l-230.67677 0c-5.522957 0 -10.0002 -4.4772644 -10.0002 -10.000214z" fill-rule="evenodd"/><path fill="#000000" d="m59.891304 258.78897l-1.9375 0l0 -8.375l1.9375 0l0 8.375zm0.203125 -10.8125q0 0.546875 -0.359375 0.875q-0.34375 0.3125 -0.828125 0.3125q-0.484375 0 -0.84375 -0.3125q-0.34375 -0.328125 -0.34375 -0.875q0 -0.5625 0.34375 -0.875q0.359375 -0.328125 0.84375 -0.328125q0.484375 0 0.828125 0.328125q0.359375 0.3125 0.359375 0.875zm4.3535156 9.421875q0.765625 0 1.109375 -0.1875q0.359375 -0.1875 0.359375 -0.625q0 -0.421875 -0.375 -0.6875q-0.375 -0.28125 -1.234375 -0.59375q-0.53125 -0.203125 -0.96875 -0.40625q-0.4375 -0.21875 -0.765625 -0.5q-0.3125 -0.296875 -0.5 -0.703125q-0.1875 -0.40625 -0.1875 -1.0q0 -1.15625 0.84375 -1.8125q0.859375 -0.671875 2.3125 -0.671875q0.734375 0 1.40625 0.140625q0.671875 0.140625 1.015625 0.265625l-0.359375 1.5625q-0.328125 -0.140625 -0.828125 -0.25q-0.484375 -0.125 -1.140625 -0.125q-0.59375 0 -0.96875 0.203125q-0.359375 0.1875 -0.359375 0.609375q0 0.203125 0.0625 0.375q0.078125 0.15625 0.25 0.296875q0.1875 0.125 0.46875 0.265625q0.296875 0.125 0.703125 0.28125q0.6875 0.25 1.171875 0.5q0.484375 0.25 0.796875 0.5625q0.3125 0.3125 0.453125 0.71875q0.140625 0.390625 0.140625 0.953125q0 1.1875 -0.890625 1.8125q-0.890625 0.609375 -2.53125 0.609375q-1.109375 0 -1.78125 -0.1875q-0.671875 -0.171875 -0.9375 -0.28125l0.328125 -1.625q0.4375 0.171875 1.03125 0.34375q0.609375 0.15625 1.375 0.15625zm11.883774 0.03125q0.90625 0 1.359375 -0.09375l0 -2.140625q-0.15625 -0.046875 -0.46875 -0.09375q-0.296875 -0.0625 -0.65625 -0.0625q-0.328125 0 -0.65625 0.0625q-0.328125 0.046875 -0.59375 0.171875q-0.265625 0.125 -0.421875 0.359375q-0.15625 0.234375 -0.15625 0.578125q0 0.6875 0.421875 0.953125q0.4375 0.265625 1.171875 0.265625zm-0.15625 -7.21875q0.953125 0 1.609375 0.25q0.65625 0.234375 1.046875 0.671875q0.40625 0.421875 0.5625 1.046875q0.171875 0.609375 0.171875 1.34375l0 5.078125q-0.453125 0.09375 -1.359375 0.21875q-0.890625 0.140625 -2.03125 0.140625q-0.75 0 -1.375 -0.140625q-0.625 -0.140625 -1.0625 -0.453125q-0.4375 -0.328125 -0.6875 -0.84375q-0.25 -0.515625 -0.25 -1.265625q0 -0.71875 0.28125 -1.203125q0.28125 -0.5 0.75 -0.8125q0.484375 -0.3125 1.109375 -0.453125q0.640625 -0.140625 1.328125 -0.140625q0.328125 0 0.671875 0.046875q0.359375 0.03125 0.75 0.140625l0 -0.328125q0 -0.328125 -0.078125 -0.625q-0.078125 -0.3125 -0.28125 -0.546875q-0.203125 -0.234375 -0.53125 -0.359375q-0.328125 -0.125 -0.8125 -0.125q-0.671875 0 -1.234375 0.09375q-0.5625 0.09375 -0.90625 0.21875l-0.25 -1.5625q0.375 -0.125 1.078125 -0.25q0.703125 -0.140625 1.5 -0.140625zm5.7627716 0.484375q0.5625 -0.15625 1.453125 -0.296875q0.890625 -0.15625 1.984375 -0.15625q1.03125 0 1.71875 0.28125q0.6875 0.28125 1.09375 0.796875q0.40625 0.5 0.5625 1.21875q0.171875 0.703125 0.171875 1.546875l0 4.703125l-1.9375 0l0 -4.40625q0 -0.671875 -0.09375 -1.140625q-0.078125 -0.46875 -0.28125 -0.765625q-0.1875 -0.296875 -0.53125 -0.421875q-0.34375 -0.140625 -0.84375 -0.140625q-0.375 0 -0.78125 0.046875q-0.390625 0.046875 -0.578125 0.078125l0 6.75l-1.9375 0l0 -8.09375zm15.932144 -0.28125q-1.296875 4.78125 -3.0 8.640625q-0.328125 0.71875 -0.671875 1.234375q-0.328125 0.515625 -0.75 0.84375q-0.40625 0.34375 -0.921875 0.484375q-0.515625 0.15625 -1.1875 0.15625q-0.4375 0 -0.890625 -0.09375q-0.4375 -0.09375 -0.65625 -0.203125l0.359375 -1.546875q0.5625 0.21875 1.125 0.21875q0.75 0 1.171875 -0.359375q0.4375 -0.359375 0.75 -1.109375q-0.90625 -1.765625 -1.75 -3.84375q-0.84375 -2.078125 -1.5 -4.421875l2.0625 0q0.171875 0.671875 0.390625 1.46875q0.234375 0.78125 0.5 1.59375q0.28125 0.796875 0.578125 1.609375q0.3125 0.796875 0.609375 1.484375q0.515625 -1.421875 0.96875 -3.03125q0.453125 -1.609375 0.8125 -3.125l2.0 0zm12.766403 4.1875q0 0.984375 -0.296875 1.8125q-0.28125 0.8125 -0.8125 1.390625q-0.515625 0.5625 -1.265625 0.890625q-0.734375 0.3125 -1.640625 0.3125q-0.890625 0 -1.625 -0.3125q-0.734375 -0.328125 -1.265625 -0.890625q-0.53125 -0.578125 -0.828125 -1.390625q-0.296875 -0.828125 -0.296875 -1.8125q0 -1.0 0.296875 -1.796875q0.296875 -0.8125 0.828125 -1.390625q0.546875 -0.578125 1.28125 -0.890625q0.734375 -0.3125 1.609375 -0.3125q0.875 0 1.625 0.3125q0.75 0.3125 1.265625 0.890625q0.53125 0.578125 0.828125 1.390625q0.296875 0.796875 0.296875 1.796875zm-1.984375 0q0 -1.25 -0.53125 -1.96875q-0.53125 -0.734375 -1.5 -0.734375q-0.953125 0 -1.5 0.734375q-0.53125 0.71875 -0.53125 1.96875q0 1.265625 0.53125 2.0q0.546875 0.734375 1.5 0.734375q0.96875 0 1.5 -0.734375q0.53125 -0.734375 0.53125 -2.0zm7.3961487 -8.234375q0.671875 0 1.1875 0.125q0.515625 0.125 0.765625 0.21875l-0.375 1.59375q-0.265625 -0.125 -0.625 -0.203125q-0.359375 -0.078125 -0.78125 -0.078125q-0.453125 0 -0.78125 0.140625q-0.3125 0.125 -0.515625 0.375q-0.1875 0.234375 -0.265625 0.578125q-0.078125 0.34375 -0.078125 0.75l0 0.546875l3.03125 0l0 1.625l-3.03125 0l0 6.75l-1.9375 0l0 -8.953125q0 -1.625 0.84375 -2.546875q0.84375 -0.921875 2.5625 -0.921875zm6.6280212 1.84375l1.9375 -0.3125l0 2.515625l2.96875 0l0 1.625l-2.96875 0l0 3.40625q0 1.0 0.3125 1.4375q0.328125 0.4375 1.09375 0.4375q0.53125 0 0.9375 -0.109375q0.40625 -0.125 0.640625 -0.21875l0.328125 1.546875q-0.34375 0.140625 -0.890625 0.28125q-0.546875 0.15625 -1.28125 0.15625q-0.890625 0 -1.5 -0.234375q-0.59375 -0.234375 -0.953125 -0.6875q-0.34375 -0.46875 -0.484375 -1.109375q-0.140625 -0.65625 -0.140625 -1.484375l0 -7.25zm6.7817764 10.578125l0 -12.09375l1.9375 -0.328125l0 4.15625q0.3125 -0.125 0.734375 -0.203125q0.4375 -0.078125 0.84375 -0.078125q1.015625 0 1.671875 0.28125q0.671875 0.28125 1.0625 0.796875q0.40625 0.5 0.5625 1.203125q0.171875 0.703125 0.171875 1.5625l0 4.703125l-1.9375 0l0 -4.40625q0 -0.671875 -0.09375 -1.140625q-0.078125 -0.46875 -0.28125 -0.765625q-0.1875 -0.296875 -0.53125 -0.421875q-0.328125 -0.140625 -0.828125 -0.140625q-0.390625 0 -0.796875 0.078125q-0.390625 0.078125 -0.578125 0.140625l0 6.65625l-1.9375 0zm8.843262 -4.140625q0 -1.109375 0.328125 -1.9375q0.328125 -0.828125 0.875 -1.375q0.546875 -0.5625 1.25 -0.84375q0.703125 -0.28125 1.4375 -0.28125q1.734375 0 2.6875 1.078125q0.96875 1.0625 0.96875 3.203125q0 0.15625 -0.015625 0.359375q0 0.1875 -0.015625 0.359375l-5.515625 0q0.078125 1.0 0.703125 1.5625q0.640625 0.546875 1.84375 0.546875q0.703125 0 1.28125 -0.125q0.59375 -0.140625 0.921875 -0.28125l0.265625 1.59375q-0.171875 0.078125 -0.453125 0.171875q-0.265625 0.078125 -0.625 0.140625q-0.359375 0.078125 -0.78125 0.125q-0.421875 0.046875 -0.84375 0.046875q-1.109375 0 -1.921875 -0.328125q-0.8125 -0.328125 -1.34375 -0.90625q-0.53125 -0.578125 -0.796875 -1.375q-0.25 -0.796875 -0.25 -1.734375zm5.625 -0.875q0 -0.390625 -0.125 -0.75q-0.109375 -0.359375 -0.328125 -0.625q-0.203125 -0.265625 -0.515625 -0.40625q-0.3125 -0.15625 -0.75 -0.15625q-0.453125 0 -0.796875 0.171875q-0.328125 0.15625 -0.5625 0.4375q-0.21875 0.265625 -0.359375 0.625q-0.125 0.34375 -0.171875 0.703125l3.609375 0zm7.239029 0.84375q0 -0.9375 0.28125 -1.734375q0.296875 -0.8125 0.828125 -1.40625q0.546875 -0.59375 1.3125 -0.921875q0.765625 -0.34375 1.71875 -0.34375q1.1875 0 2.25 0.4375l-0.421875 1.578125q-0.328125 -0.140625 -0.765625 -0.234375q-0.421875 -0.09375 -0.890625 -0.09375q-1.140625 0 -1.734375 0.71875q-0.59375 0.703125 -0.59375 2.0q0 1.25 0.5625 1.984375q0.5625 0.71875 1.890625 0.71875q0.5 0 0.96875 -0.09375q0.484375 -0.09375 0.84375 -0.25l0.265625 1.609375q-0.328125 0.15625 -0.984375 0.28125q-0.640625 0.125 -1.328125 0.125q-1.0625 0 -1.859375 -0.328125q-0.796875 -0.328125 -1.3125 -0.90625q-0.515625 -0.578125 -0.78125 -1.390625q-0.25 -0.8125 -0.25 -1.75zm10.958267 2.8125q0.90625 0 1.359375 -0.09375l0 -2.140625q-0.15625 -0.046875 -0.46875 -0.09375q-0.296875 -0.0625 -0.65625 -0.0625q-0.328125 0 -0.65625 0.0625q-0.328125 0.046875 -0.59375 0.171875q-0.265625 0.125 -0.421875 0.359375q-0.15625 0.234375 -0.15625 0.578125q0 0.6875 0.421875 0.953125q0.4375 0.265625 1.171875 0.265625zm-0.15625 -7.21875q0.953125 0 1.609375 0.25q0.65625 0.234375 1.046875 0.671875q0.40625 0.421875 0.5625 1.046875q0.171875 0.609375 0.171875 1.34375l0 5.078125q-0.453125 0.09375 -1.359375 0.21875q-0.890625 0.140625 -2.03125 0.140625q-0.75 0 -1.375 -0.140625q-0.625 -0.140625 -1.0625 -0.453125q-0.4375 -0.328125 -0.6875 -0.84375q-0.25 -0.515625 -0.25 -1.265625q0 -0.71875 0.28125 -1.203125q0.28125 -0.5 0.75 -0.8125q0.484375 -0.3125 1.109375 -0.453125q0.640625 -0.140625 1.328125 -0.140625q0.328125 0 0.671875 0.046875q0.359375 0.03125 0.75 0.140625l0 -0.328125q0 -0.328125 -0.078125 -0.625q-0.078125 -0.3125 -0.28125 -0.546875q-0.203125 -0.234375 -0.53125 -0.359375q-0.328125 -0.125 -0.8125 -0.125q-0.671875 0 -1.234375 0.09375q-0.5625 0.09375 -0.90625 0.21875l-0.25 -1.5625q0.375 -0.125 1.078125 -0.25q0.703125 -0.140625 1.5 -0.140625zm5.6690216 -2.0l1.9375 -0.3125l0 2.515625l2.96875 0l0 1.625l-2.96875 0l0 3.40625q0 1.0 0.3125 1.4375q0.328125 0.4375 1.09375 0.4375q0.53125 0 0.9375 -0.109375q0.40625 -0.125 0.640625 -0.21875l0.328125 1.546875q-0.34375 0.140625 -0.890625 0.28125q-0.546875 0.15625 -1.28125 0.15625q-0.890625 0 -1.5 -0.234375q-0.59375 -0.234375 -0.953125 -0.6875q-0.34375 -0.46875 -0.484375 -1.109375q-0.140625 -0.65625 -0.140625 -1.484375l0 -7.25zm18.07228 6.390625q0 0.984375 -0.296875 1.8125q-0.28125 0.8125 -0.8125 1.390625q-0.515625 0.5625 -1.265625 0.890625q-0.734375 0.3125 -1.640625 0.3125q-0.890625 0 -1.625 -0.3125q-0.734375 -0.328125 -1.265625 -0.890625q-0.53125 -0.578125 -0.828125 -1.390625q-0.296875 -0.828125 -0.296875 -1.8125q0 -1.0 0.296875 -1.796875q0.296875 -0.8125 0.828125 -1.390625q0.546875 -0.578125 1.28125 -0.890625q0.734375 -0.3125 1.609375 -0.3125q0.875 0 1.625 0.3125q0.75 0.3125 1.265625 0.890625q0.53125 0.578125 0.828125 1.390625q0.296875 0.796875 0.296875 1.796875zm-1.984375 0q0 -1.25 -0.53125 -1.96875q-0.53125 -0.734375 -1.5 -0.734375q-0.953125 0 -1.5 0.734375q-0.53125 0.71875 -0.53125 1.96875q0 1.265625 0.53125 2.0q0.546875 0.734375 1.5 0.734375q0.96875 0 1.5 -0.734375q0.53125 -0.734375 0.53125 -2.0zm8.755524 -2.4375q-0.234375 -0.078125 -0.671875 -0.15625q-0.421875 -0.09375 -0.96875 -0.09375q-0.328125 0 -0.6875 0.0625q-0.359375 0.0625 -0.5 0.109375l0 6.703125l-1.9375 0l0 -7.96875q0.5625 -0.203125 1.390625 -0.390625q0.84375 -0.1875 1.875 -0.1875q0.1875 0 0.4375 0.03125q0.265625 0.015625 0.515625 0.0625q0.265625 0.03125 0.5 0.09375q0.234375 0.0625 0.390625 0.109375l-0.34375 1.625zm4.6198883 5.265625q0.90625 0 1.359375 -0.09375l0 -2.140625q-0.15625 -0.046875 -0.46875 -0.09375q-0.296875 -0.0625 -0.65625 -0.0625q-0.328125 0 -0.65625 0.0625q-0.328125 0.046875 -0.59375 0.171875q-0.265625 0.125 -0.421875 0.359375q-0.15625 0.234375 -0.15625 0.578125q0 0.6875 0.421875 0.953125q0.4375 0.265625 1.171875 0.265625zm-0.15625 -7.21875q0.953125 0 1.609375 0.25q0.65625 0.234375 1.046875 0.671875q0.40625 0.421875 0.5625 1.046875q0.171875 0.609375 0.171875 1.34375l0 5.078125q-0.453125 0.09375 -1.359375 0.21875q-0.890625 0.140625 -2.03125 0.140625q-0.75 0 -1.375 -0.140625q-0.625 -0.140625 -1.0625 -0.453125q-0.4375 -0.328125 -0.6875 -0.84375q-0.25 -0.515625 -0.25 -1.265625q0 -0.71875 0.28125 -1.203125q0.28125 -0.5 0.75 -0.8125q0.484375 -0.3125 1.109375 -0.453125q0.640625 -0.140625 1.328125 -0.140625q0.328125 0 0.671875 0.046875q0.359375 0.03125 0.75 0.140625l0 -0.328125q0 -0.328125 -0.078125 -0.625q-0.078125 -0.3125 -0.28125 -0.546875q-0.203125 -0.234375 -0.53125 -0.359375q-0.328125 -0.125 -0.8125 -0.125q-0.671875 0 -1.234375 0.09375q-0.5625 0.09375 -0.90625 0.21875l-0.25 -1.5625q0.375 -0.125 1.078125 -0.25q0.703125 -0.140625 1.5 -0.140625zm5.7627716 0.484375q0.5625 -0.15625 1.453125 -0.296875q0.890625 -0.15625 1.984375 -0.15625q1.03125 0 1.71875 0.28125q0.6875 0.28125 1.09375 0.796875q0.40625 0.5 0.5625 1.21875q0.171875 0.703125 0.171875 1.546875l0 4.703125l-1.9375 0l0 -4.40625q0 -0.671875 -0.09375 -1.140625q-0.078125 -0.46875 -0.28125 -0.765625q-0.1875 -0.296875 -0.53125 -0.421875q-0.34375 -0.140625 -0.84375 -0.140625q-0.375 0 -0.78125 0.046875q-0.390625 0.046875 -0.578125 0.078125l0 6.75l-1.9375 0l0 -8.09375zm10.875641 3.6875q0 1.234375 0.53125 1.8125q0.546875 0.5625 1.390625 0.5625q0.46875 0 0.875 -0.125q0.40625 -0.125 0.65625 -0.3125l0 -4.328125q-0.203125 -0.046875 -0.515625 -0.078125q-0.296875 -0.046875 -0.765625 -0.046875q-1.046875 0 -1.609375 0.703125q-0.5625 0.6875 -0.5625 1.8125zm5.390625 3.5625q0 2.0 -1.015625 2.921875q-1.015625 0.9375 -3.109375 0.9375q-0.765625 0 -1.5 -0.140625q-0.71875 -0.125 -1.3125 -0.328125l0.34375 -1.65625q0.5 0.21875 1.125 0.34375q0.640625 0.125 1.375 0.125q1.171875 0 1.65625 -0.484375q0.5 -0.46875 0.5 -1.421875l0 -0.3125q-0.28125 0.140625 -0.765625 0.28125q-0.46875 0.140625 -1.0625 0.140625q-0.8125 0 -1.484375 -0.25q-0.65625 -0.25 -1.125 -0.75q-0.46875 -0.5 -0.734375 -1.234375q-0.265625 -0.75 -0.265625 -1.734375q0 -0.90625 0.28125 -1.671875q0.28125 -0.765625 0.8125 -1.3125q0.546875 -0.546875 1.3125 -0.84375q0.765625 -0.3125 1.734375 -0.3125q0.953125 0 1.796875 0.15625q0.84375 0.140625 1.4375 0.296875l0 7.25zm2.0010223 -3.296875q0 -1.109375 0.328125 -1.9375q0.328125 -0.828125 0.875 -1.375q0.546875 -0.5625 1.25 -0.84375q0.703125 -0.28125 1.4375 -0.28125q1.734375 0 2.6875 1.078125q0.96875 1.0625 0.96875 3.203125q0 0.15625 -0.015625 0.359375q0 0.1875 -0.015625 0.359375l-5.515625 0q0.078125 1.0 0.703125 1.5625q0.640625 0.546875 1.84375 0.546875q0.703125 0 1.28125 -0.125q0.59375 -0.140625 0.921875 -0.28125l0.265625 1.59375q-0.171875 0.078125 -0.453125 0.171875q-0.265625 0.078125 -0.625 0.140625q-0.359375 0.078125 -0.78125 0.125q-0.421875 0.046875 -0.84375 0.046875q-1.109375 0 -1.921875 -0.328125q-0.8125 -0.328125 -1.34375 -0.90625q-0.53125 -0.578125 -0.796875 -1.375q-0.25 -0.796875 -0.25 -1.734375zm5.625 -0.875q0 -0.390625 -0.125 -0.75q-0.109375 -0.359375 -0.328125 -0.625q-0.203125 -0.265625 -0.515625 -0.40625q-0.3125 -0.15625 -0.75 -0.15625q-0.453125 0 -0.796875 0.171875q-0.328125 0.15625 -0.5625 0.4375q-0.21875 0.265625 -0.359375 0.625q-0.125 0.34375 -0.171875 0.703125l3.609375 0zm5.682892 -4.6875q-0.546875 0 -1.0625 0.140625q-0.515625 0.140625 -1.078125 0.4375l-0.546875 -1.484375q0.59375 -0.328125 1.359375 -0.53125q0.765625 -0.203125 1.5625 -0.203125q0.953125 0 1.578125 0.265625q0.625 0.265625 0.984375 0.671875q0.375 0.390625 0.515625 0.875q0.15625 0.46875 0.15625 0.921875q0 0.546875 -0.203125 0.984375q-0.203125 0.421875 -0.515625 0.796875q-0.296875 0.359375 -0.65625 0.6875q-0.34375 0.328125 -0.65625 0.671875q-0.296875 0.34375 -0.5 0.734375q-0.1875 0.375 -0.1875 0.859375q0 0.078125 0 0.1875q0 0.109375 0.015625 0.203125l-1.671875 0q-0.03125 -0.15625 -0.046875 -0.34375q-0.015625 -0.1875 -0.015625 -0.34375q0 -0.53125 0.171875 -0.9375q0.171875 -0.421875 0.4375 -0.765625q0.28125 -0.359375 0.59375 -0.65625q0.3125 -0.3125 0.578125 -0.609375q0.28125 -0.3125 0.453125 -0.625q0.1875 -0.328125 0.1875 -0.71875q0 -0.53125 -0.375 -0.875q-0.359375 -0.34375 -1.078125 -0.34375zm1.25 8.640625q0 0.5625 -0.375 0.921875q-0.359375 0.34375 -0.90625 0.34375q-0.515625 0 -0.90625 -0.34375q-0.375 -0.359375 -0.375 -0.921875q0 -0.546875 0.375 -0.90625q0.390625 -0.375 0.90625 -0.375q0.546875 0 0.90625 0.375q0.375 0.359375 0.375 0.90625z" fill-rule="nonzero"/><path fill="#efefef" d="m86.55774 331.7115l0 0c0 -5.522949 4.477249 -10.000214 10.000206 -10.000214l99.71613 0c2.6522217 0 5.195801 1.0535889 7.071213 2.929016c1.8753967 1.8753967 2.9289856 4.418976 2.9289856 7.0711975l0 39.999603c0 5.522949 -4.477234 10.000183 -10.000198 10.000183l-99.71613 0c-5.522957 0 -10.000206 -4.477234 -10.000206 -10.000183z" fill-rule="evenodd"/><path stroke="#434343" stroke-width="2.0" stroke-linejoin="round" stroke-linecap="butt" d="m86.55774 331.7115l0 0c0 -5.522949 4.477249 -10.000214 10.000206 -10.000214l99.71613 0c2.6522217 0 5.195801 1.0535889 7.071213 2.929016c1.8753967 1.8753967 2.9289856 4.418976 2.9289856 7.0711975l0 39.999603c0 5.522949 -4.477234 10.000183 -10.000198 10.000183l-99.71613 0c-5.522957 0 -10.000206 -4.477234 -10.000206 -10.000183z" fill-rule="evenodd"/><path fill="#000000" d="m109.97604 356.18066q0.765625 0 1.109375 -0.1875q0.359375 -0.1875 0.359375 -0.625q0 -0.421875 -0.375 -0.6875q-0.375 -0.28125 -1.234375 -0.59375q-0.53125 -0.203125 -0.96875 -0.40625q-0.4375 -0.21875 -0.765625 -0.5q-0.3125 -0.296875 -0.5 -0.703125q-0.1875 -0.40625 -0.1875 -1.0q0 -1.15625 0.84375 -1.8125q0.859375 -0.671875 2.3125 -0.671875q0.734375 0 1.40625 0.140625q0.671875 0.140625 1.015625 0.265625l-0.359375 1.5625q-0.328125 -0.140625 -0.828125 -0.25q-0.484375 -0.125 -1.140625 -0.125q-0.59375 0 -0.96875 0.203125q-0.359375 0.1875 -0.359375 0.609375q0 0.203125 0.0625 0.375q0.078125 0.15625 0.25 0.296875q0.1875 0.125 0.46875 0.265625q0.296875 0.125 0.703125 0.28125q0.6875 0.25 1.171875 0.5q0.484375 0.25 0.796875 0.5625q0.3125 0.3125 0.453125 0.71875q0.140625 0.390625 0.140625 0.953125q0 1.1875 -0.890625 1.8125q-0.890625 0.609375 -2.53125 0.609375q-1.109375 0 -1.78125 -0.1875q-0.671875 -0.171875 -0.9375 -0.28125l0.328125 -1.625q0.4375 0.171875 1.03125 0.34375q0.609375 0.15625 1.375 0.15625zm4.7495117 -2.75q0 -1.109375 0.328125 -1.9375q0.328125 -0.828125 0.875 -1.375q0.546875 -0.5625 1.25 -0.84375q0.703125 -0.28125 1.4375 -0.28125q1.734375 0 2.6875 1.078125q0.96875 1.0625 0.96875 3.203125q0 0.15625 -0.015625 0.359375q0 0.1875 -0.015625 0.359375l-5.515625 0q0.078125 1.0 0.703125 1.5625q0.640625 0.546875 1.84375 0.546875q0.703125 0 1.28125 -0.125q0.59375 -0.140625 0.921875 -0.28125l0.265625 1.59375q-0.171875 0.078125 -0.453125 0.171875q-0.265625 0.078125 -0.625 0.140625q-0.359375 0.078125 -0.78125 0.125q-0.421875 0.046875 -0.84375 0.046875q-1.109375 0 -1.921875 -0.328125q-0.8125 -0.328125 -1.34375 -0.90625q-0.53125 -0.578125 -0.796875 -1.375q-0.25 -0.796875 -0.25 -1.734375zm5.625 -0.875q0 -0.390625 -0.125 -0.75q-0.109375 -0.359375 -0.328125 -0.625q-0.203125 -0.265625 -0.515625 -0.40625q-0.3125 -0.15625 -0.75 -0.15625q-0.453125 0 -0.796875 0.171875q-0.328125 0.15625 -0.5625 0.4375q-0.21875 0.265625 -0.359375 0.625q-0.125 0.34375 -0.171875 0.703125l3.609375 0zm3.9797668 -3.078125q0.5625 -0.15625 1.453125 -0.296875q0.890625 -0.15625 1.984375 -0.15625q1.03125 0 1.71875 0.28125q0.6875 0.28125 1.09375 0.796875q0.40625 0.5 0.5625 1.21875q0.171875 0.703125 0.171875 1.546875l0 4.703125l-1.9375 0l0 -4.40625q0 -0.671875 -0.09375 -1.140625q-0.078125 -0.46875 -0.28125 -0.765625q-0.1875 -0.296875 -0.53125 -0.421875q-0.34375 -0.140625 -0.84375 -0.140625q-0.375 0 -0.78125 0.046875q-0.390625 0.046875 -0.578125 0.078125l0 6.75l-1.9375 0l0 -8.09375zm10.875641 3.890625q0 1.28125 0.609375 2.015625q0.609375 0.71875 1.6875 0.71875q0.453125 0 0.78125 -0.03125q0.328125 -0.046875 0.546875 -0.09375l0 -4.8125q-0.265625 -0.171875 -0.6875 -0.3125q-0.421875 -0.15625 -0.90625 -0.15625q-1.046875 0 -1.546875 0.71875q-0.484375 0.71875 -0.484375 1.953125zm5.546875 3.953125q-0.5625 0.171875 -1.4375 0.3125q-0.875 0.140625 -1.828125 0.140625q-1.0 0 -1.78125 -0.296875q-0.78125 -0.3125 -1.34375 -0.875q-0.546875 -0.5625 -0.84375 -1.375q-0.296875 -0.8125 -0.296875 -1.8125q0 -1.0 0.25 -1.796875q0.25 -0.8125 0.71875 -1.390625q0.484375 -0.578125 1.171875 -0.890625q0.6875 -0.3125 1.59375 -0.3125q0.609375 0 1.0625 0.15625q0.46875 0.140625 0.8125 0.3125l0 -4.015625l1.921875 -0.328125l0 12.171875zm9.139038 -1.109375q0.90625 0 1.359375 -0.09375l0 -2.140625q-0.15625 -0.046875 -0.46875 -0.09375q-0.296875 -0.0625 -0.65625 -0.0625q-0.328125 0 -0.65625 0.0625q-0.328125 0.046875 -0.59375 0.171875q-0.265625 0.125 -0.421875 0.359375q-0.15625 0.234375 -0.15625 0.578125q0 0.6875 0.421875 0.953125q0.4375 0.265625 1.171875 0.265625zm-0.15625 -7.21875q0.953125 0 1.609375 0.25q0.65625 0.234375 1.046875 0.671875q0.40625 0.421875 0.5625 1.046875q0.171875 0.609375 0.171875 1.34375l0 5.078125q-0.453125 0.09375 -1.359375 0.21875q-0.890625 0.140625 -2.03125 0.140625q-0.75 0 -1.375 -0.140625q-0.625 -0.140625 -1.0625 -0.453125q-0.4375 -0.328125 -0.6875 -0.84375q-0.25 -0.515625 -0.25 -1.265625q0 -0.71875 0.28125 -1.203125q0.28125 -0.5 0.75 -0.8125q0.484375 -0.3125 1.109375 -0.453125q0.640625 -0.140625 1.328125 -0.140625q0.328125 0 0.671875 0.046875q0.359375 0.03125 0.75 0.140625l0 -0.328125q0 -0.328125 -0.078125 -0.625q-0.078125 -0.3125 -0.28125 -0.546875q-0.203125 -0.234375 -0.53125 -0.359375q-0.328125 -0.125 -0.8125 -0.125q-0.671875 0 -1.234375 0.09375q-0.5625 0.09375 -0.90625 0.21875l-0.25 -1.5625q0.375 -0.125 1.078125 -0.25q0.703125 -0.140625 1.5 -0.140625zm8.669022 8.734375q-0.859375 -0.015625 -1.4375 -0.1875q-0.5625 -0.171875 -0.90625 -0.5q-0.328125 -0.328125 -0.46875 -0.8125q-0.125 -0.5 -0.125 -1.125l0 -9.625l1.9375 -0.328125l0 9.59375q0 0.34375 0.046875 0.59375q0.0625 0.234375 0.203125 0.40625q0.140625 0.171875 0.390625 0.265625q0.25 0.078125 0.640625 0.125l-0.28125 1.59375zm1.3770142 -4.296875q0 -1.109375 0.328125 -1.9375q0.328125 -0.828125 0.875 -1.375q0.546875 -0.5625 1.25 -0.84375q0.703125 -0.28125 1.4375 -0.28125q1.734375 0 2.6875 1.078125q0.96875 1.0625 0.96875 3.203125q0 0.15625 -0.015625 0.359375q0 0.1875 -0.015625 0.359375l-5.515625 0q0.078125 1.0 0.703125 1.5625q0.640625 0.546875 1.84375 0.546875q0.703125 0 1.28125 -0.125q0.59375 -0.140625 0.921875 -0.28125l0.265625 1.59375q-0.171875 0.078125 -0.453125 0.171875q-0.265625 0.078125 -0.625 0.140625q-0.359375 0.078125 -0.78125 0.125q-0.421875 0.046875 -0.84375 0.046875q-1.109375 0 -1.921875 -0.328125q-0.8125 -0.328125 -1.34375 -0.90625q-0.53125 -0.578125 -0.796875 -1.375q-0.25 -0.796875 -0.25 -1.734375zm5.625 -0.875q0 -0.390625 -0.125 -0.75q-0.109375 -0.359375 -0.328125 -0.625q-0.203125 -0.265625 -0.515625 -0.40625q-0.3125 -0.15625 -0.75 -0.15625q-0.453125 0 -0.796875 0.171875q-0.328125 0.15625 -0.5625 0.4375q-0.21875 0.265625 -0.359375 0.625q-0.125 0.34375 -0.171875 0.703125l3.609375 0zm8.745392 -1.609375q-0.234375 -0.078125 -0.671875 -0.15625q-0.421875 -0.09375 -0.96875 -0.09375q-0.328125 0 -0.6875 0.0625q-0.359375 0.0625 -0.5 0.109375l0 6.703125l-1.9375 0l0 -7.96875q0.5625 -0.203125 1.390625 -0.390625q0.84375 -0.1875 1.875 -0.1875q0.1875 0 0.4375 0.03125q0.265625 0.015625 0.515625 0.0625q0.265625 0.03125 0.5 0.09375q0.234375 0.0625 0.390625 0.109375l-0.34375 1.625zm1.5886383 -3.953125l1.9375 -0.3125l0 2.515625l2.96875 0l0 1.625l-2.96875 0l0 3.40625q0 1.0 0.3125 1.4375q0.328125 0.4375 1.09375 0.4375q0.53125 0 0.9375 -0.109375q0.40625 -0.125 0.640625 -0.21875l0.328125 1.546875q-0.34375 0.140625 -0.890625 0.28125q-0.546875 0.15625 -1.28125 0.15625q-0.890625 0 -1.5 -0.234375q-0.59375 -0.234375 -0.953125 -0.6875q-0.34375 -0.46875 -0.484375 -1.109375q-0.140625 -0.65625 -0.140625 -1.484375l0 -7.25zm9.031769 2.46875q0 1.328125 -0.09375 2.4375q-0.09375 1.09375 -0.234375 2.21875l-1.375 0q-0.171875 -1.125 -0.265625 -2.234375q-0.09375 -1.109375 -0.09375 -2.421875l0 -2.984375l2.0625 0l0 2.984375zm0.25 7.046875q0 0.5625 -0.375 0.921875q-0.375 0.34375 -0.90625 0.34375q-0.53125 0 -0.90625 -0.34375q-0.375 -0.359375 -0.375 -0.921875q0 -0.546875 0.375 -0.90625q0.375 -0.375 0.90625 -0.375q0.53125 0 0.90625 0.375q0.375 0.359375 0.375 0.90625z" fill-rule="nonzero"/><path fill="#000000" fill-opacity="0.0" d="m146.8727 95.41207c0 7.183693 -0.11810303 10.776825 -0.23620605 14.367378c-0.118118286 3.5905533 -0.23622131 7.1785126 -0.23622131 14.357033" fill-rule="evenodd"/><path stroke="#434343" stroke-width="1.0" stroke-linejoin="round" stroke-linecap="butt" d="m146.8727 95.41207c0 7.1836853 -0.11810303 10.776825 -0.23620605 14.367371c-0.059066772 1.7952805 -0.118118286 3.5899124 -0.16241455 5.8330307c-0.011062622 0.5607834 -0.021209717 1.1495972 -0.030212402 1.7734604l-0.00881958 0.7506561" fill-rule="evenodd"/><path fill="#434343" stroke="#434343" stroke-width="1.0" stroke-linecap="butt" d="m144.78334 118.12701l1.6253967 4.5476l1.678009 -4.52845z" fill-rule="evenodd"/><path fill="#000000" fill-opacity="0.0" d="m146.41602 184.14699c0 9.695435 0.01574707 14.544403 0.03149414 19.390854c0.01574707 4.846466 0.03149414 9.690399 0.03149414 19.380798" fill-rule="evenodd"/><path stroke="#434343" stroke-width="1.0" stroke-linejoin="round" stroke-linecap="butt" d="m146.41602 184.14699c0 9.695435 0.01574707 14.544403 0.03149414 19.39087c0.007873535 2.4232178 0.01574707 4.84581 0.021652222 7.8739014c0.0029449463 1.5140533 0.00541687 3.1794739 0.0071411133 5.0720215l0.0012512207 3.0077667" fill-rule="evenodd"/><path fill="#434343" stroke="#434343" stroke-width="1.0" stroke-linecap="butt" d="m146.47755 219.49155l-1.1250458 -1.124115l1.125885 3.0892944l1.1232758 -3.0902405z" fill-rule="evenodd"/><path fill="#000000" fill-opacity="0.0" d="m271.7546 252.92897c50.472412 0 100.944855 -34.393692 100.944855 -68.7874" fill-rule="evenodd"/><path stroke="#434343" stroke-width="1.0" stroke-linejoin="round" stroke-linecap="butt" d="m271.7546 252.92897c25.236206 0 50.472412 -8.598419 69.3996 -21.496063c9.463562 -6.448822 17.349884 -13.972443 22.87033 -22.033463c2.7601929 -4.0305176 4.928955 -8.195374 6.4076233 -12.427414c0.73934937 -2.1160126 1.3061523 -4.248825 1.6881714 -6.390045c0.09552002 -0.5352936 0.17944336 -1.0711212 0.25164795 -1.6073456c0.036071777 -0.26811218 0.069244385 -0.5363159 0.099487305 -0.8046112c0.015075684 -0.13414001 0.029449463 -0.26831055 0.043060303 -0.40249634l0.019470215 -0.20288086" fill-rule="evenodd"/><path fill="#434343" stroke="#434343" stroke-width="1.0" stroke-linecap="butt" d="m372.534 187.56465l1.0689697 1.1775818l-0.9740906 -3.1404724l-1.2724609 3.0318604z" fill-rule="evenodd"/><path fill="#000000" fill-opacity="0.0" d="m146.41602 282.929c0 9.695618 0.01574707 14.5448 0.03149414 19.391235c0.01574707 4.846466 0.03149414 9.690216 0.03149414 19.380402" fill-rule="evenodd"/><path stroke="#434343" stroke-width="1.0" stroke-linejoin="round" stroke-linecap="butt" d="m146.41602 282.92896c0 9.695648 0.01574707 14.54483 0.03149414 19.391266c0.007873535 2.4232483 0.01574707 4.8457947 0.021652222 7.87381c0.0029449463 1.5140076 0.00541687 3.1793823 0.0071411133 5.0718994l0.0012512207 3.0075989" fill-rule="evenodd"/><path fill="#434343" stroke="#434343" stroke-width="1.0" stroke-linecap="butt" d="m146.47755 318.27353l-1.1250458 -1.124115l1.125885 3.0892944l1.1232758 -3.0902405z" fill-rule="evenodd"/><path fill="#efefef" d="m312.82547 134.14719l0 0c0 -5.5229645 4.477234 -10.000206 10.000183 -10.000206l99.716156 0c2.6521912 0 5.195801 1.0535889 7.0711975 2.9289932c1.8753967 1.8753967 2.9289856 4.418991 2.9289856 7.071213l0 39.999588c0 5.5229645 -4.477234 10.000214 -10.000183 10.000214l-99.716156 0c-5.522949 0 -10.000183 -4.477249 -10.000183 -10.000214z" fill-rule="evenodd"/><path stroke="#434343" stroke-width="2.0" stroke-linejoin="round" stroke-linecap="butt" d="m312.82547 134.14719l0 0c0 -5.5229645 4.477234 -10.000206 10.000183 -10.000206l99.716156 0c2.6521912 0 5.195801 1.0535889 7.0711975 2.9289932c1.8753967 1.8753967 2.9289856 4.418991 2.9289856 7.071213l0 39.999588c0 5.5229645 -4.477234 10.000214 -10.000183 10.000214l-99.716156 0c-5.522949 0 -10.000183 -4.477249 -10.000183 -10.000214z" fill-rule="evenodd"/><path fill="#000000" d="m334.97763 155.80386q0 1.28125 0.609375 2.015625q0.609375 0.71875 1.6875 0.71875q0.453125 0 0.78125 -0.03125q0.328125 -0.046875 0.546875 -0.09375l0 -4.8125q-0.265625 -0.171875 -0.6875 -0.3125q-0.421875 -0.15625 -0.90625 -0.15625q-1.046875 0 -1.546875 0.71875q-0.484375 0.71875 -0.484375 1.953125zm5.546875 3.953125q-0.5625 0.171875 -1.4375 0.3125q-0.875 0.140625 -1.828125 0.140625q-1.0 0 -1.78125 -0.296875q-0.78125 -0.3125 -1.34375 -0.875q-0.546875 -0.5625 -0.84375 -1.375q-0.296875 -0.8125 -0.296875 -1.8125q0 -1.0 0.25 -1.796875q0.25 -0.8125 0.71875 -1.390625q0.484375 -0.578125 1.171875 -0.890625q0.6875 -0.3125 1.59375 -0.3125q0.609375 0 1.0625 0.15625q0.46875 0.140625 0.8125 0.3125l0 -4.015625l1.921875 -0.328125l0 12.171875zm10.036041 -3.9375q0 0.984375 -0.296875 1.8125q-0.28125 0.8125 -0.8125 1.390625q-0.515625 0.5625 -1.265625 0.890625q-0.734375 0.3125 -1.640625 0.3125q-0.890625 0 -1.625 -0.3125q-0.734375 -0.328125 -1.265625 -0.890625q-0.53125 -0.578125 -0.828125 -1.390625q-0.296875 -0.828125 -0.296875 -1.8125q0 -1.0 0.296875 -1.796875q0.296875 -0.8125 0.828125 -1.390625q0.546875 -0.578125 1.28125 -0.890625q0.734375 -0.3125 1.609375 -0.3125q0.875 0 1.625 0.3125q0.75 0.3125 1.265625 0.890625q0.53125 0.578125 0.828125 1.390625q0.296875 0.796875 0.296875 1.796875zm-1.984375 0q0 -1.25 -0.53125 -1.96875q-0.53125 -0.734375 -1.5 -0.734375q-0.953125 0 -1.5 0.734375q-0.53125 0.71875 -0.53125 1.96875q0 1.265625 0.53125 2.0q0.546875 0.734375 1.5 0.734375q0.96875 0 1.5 -0.734375q0.53125 -0.734375 0.53125 -2.0zm7.7178955 -3.90625q0.5625 -0.15625 1.453125 -0.296875q0.890625 -0.15625 1.984375 -0.15625q1.03125 0 1.71875 0.28125q0.6875 0.28125 1.09375 0.796875q0.40625 0.5 0.5625 1.21875q0.171875 0.703125 0.171875 1.546875l0 4.703125l-1.9375 0l0 -4.40625q0 -0.671875 -0.09375 -1.140625q-0.078125 -0.46875 -0.28125 -0.765625q-0.1875 -0.296875 -0.53125 -0.421875q-0.34375 -0.140625 -0.84375 -0.140625q-0.375 0 -0.78125 0.046875q-0.390625 0.046875 -0.578125 0.078125l0 6.75l-1.9375 0l0 -8.09375zm16.922516 3.90625q0 0.984375 -0.296875 1.8125q-0.28125 0.8125 -0.8125 1.390625q-0.515625 0.5625 -1.265625 0.890625q-0.734375 0.3125 -1.640625 0.3125q-0.890625 0 -1.625 -0.3125q-0.734375 -0.328125 -1.265625 -0.890625q-0.53125 -0.578125 -0.828125 -1.390625q-0.296875 -0.828125 -0.296875 -1.8125q0 -1.0 0.296875 -1.796875q0.296875 -0.8125 0.828125 -1.390625q0.546875 -0.578125 1.28125 -0.890625q0.734375 -0.3125 1.609375 -0.3125q0.875 0 1.625 0.3125q0.75 0.3125 1.265625 0.890625q0.53125 0.578125 0.828125 1.390625q0.296875 0.796875 0.296875 1.796875zm-1.984375 0q0 -1.25 -0.53125 -1.96875q-0.53125 -0.734375 -1.5 -0.734375q-0.953125 0 -1.5 0.734375q-0.53125 0.71875 -0.53125 1.96875q0 1.265625 0.53125 2.0q0.546875 0.734375 1.5 0.734375q0.96875 0 1.5 -0.734375q0.53125 -0.734375 0.53125 -2.0zm3.8961487 -6.390625l1.9375 -0.3125l0 2.515625l2.96875 0l0 1.625l-2.96875 0l0 3.40625q0 1.0 0.3125 1.4375q0.328125 0.4375 1.09375 0.4375q0.53125 0 0.9375 -0.109375q0.40625 -0.125 0.640625 -0.21875l0.328125 1.546875q-0.34375 0.140625 -0.890625 0.28125q-0.546875 0.15625 -1.28125 0.15625q-0.890625 0 -1.5 -0.234375q-0.59375 -0.234375 -0.953125 -0.6875q-0.34375 -0.46875 -0.484375 -1.109375q-0.140625 -0.65625 -0.140625 -1.484375l0 -7.25zm6.781769 10.578125l0 -12.09375l1.9375 -0.328125l0 4.15625q0.3125 -0.125 0.734375 -0.203125q0.4375 -0.078125 0.84375 -0.078125q1.015625 0 1.671875 0.28125q0.671875 0.28125 1.0625 0.796875q0.40625 0.5 0.5625 1.203125q0.171875 0.703125 0.171875 1.5625l0 4.703125l-1.9375 0l0 -4.40625q0 -0.671875 -0.09375 -1.140625q-0.078125 -0.46875 -0.28125 -0.765625q-0.1875 -0.296875 -0.53125 -0.421875q-0.328125 -0.140625 -0.828125 -0.140625q-0.390625 0 -0.796875 0.078125q-0.390625 0.078125 -0.578125 0.140625l0 6.65625l-1.9375 0zm11.265137 0l-1.9375 0l0 -8.375l1.9375 0l0 8.375zm0.203125 -10.8125q0 0.546875 -0.359375 0.875q-0.34375 0.3125 -0.828125 0.3125q-0.484375 0 -0.84375 -0.3125q-0.34375 -0.328125 -0.34375 -0.875q0 -0.5625 0.34375 -0.875q0.359375 -0.328125 0.84375 -0.328125q0.484375 0 0.828125 0.328125q0.359375 0.3125 0.359375 0.875zm2.2597656 2.71875q0.5625 -0.15625 1.453125 -0.296875q0.890625 -0.15625 1.984375 -0.15625q1.03125 0 1.71875 0.28125q0.6875 0.28125 1.09375 0.796875q0.40625 0.5 0.5625 1.21875q0.171875 0.703125 0.171875 1.546875l0 4.703125l-1.9375 0l0 -4.40625q0 -0.671875 -0.09375 -1.140625q-0.078125 -0.46875 -0.28125 -0.765625q-0.1875 -0.296875 -0.53125 -0.421875q-0.34375 -0.140625 -0.84375 -0.140625q-0.375 0 -0.78125 0.046875q-0.390625 0.046875 -0.578125 0.078125l0 6.75l-1.9375 0l0 -8.09375zm10.875641 3.6875q0 1.234375 0.53125 1.8125q0.546875 0.5625 1.390625 0.5625q0.46875 0 0.875 -0.125q0.40625 -0.125 0.65625 -0.3125l0 -4.328125q-0.203125 -0.046875 -0.515625 -0.078125q-0.296875 -0.046875 -0.765625 -0.046875q-1.046875 0 -1.609375 0.703125q-0.5625 0.6875 -0.5625 1.8125zm5.390625 3.5625q0 2.0 -1.015625 2.921875q-1.015625 0.9375 -3.109375 0.9375q-0.765625 0 -1.5 -0.140625q-0.71875 -0.125 -1.3125 -0.328125l0.34375 -1.65625q0.5 0.21875 1.125 0.34375q0.640625 0.125 1.375 0.125q1.171875 0 1.65625 -0.484375q0.5 -0.46875 0.5 -1.421875l0 -0.3125q-0.28125 0.140625 -0.765625 0.28125q-0.46875 0.140625 -1.0625 0.140625q-0.8125 0 -1.484375 -0.25q-0.65625 -0.25 -1.125 -0.75q-0.46875 -0.5 -0.734375 -1.234375q-0.265625 -0.75 -0.265625 -1.734375q0 -0.90625 0.28125 -1.671875q0.28125 -0.765625 0.8125 -1.3125q0.546875 -0.546875 1.3125 -0.84375q0.765625 -0.3125 1.734375 -0.3125q0.953125 0 1.796875 0.15625q0.84375 0.140625 1.4375 0.296875l0 7.25z" fill-rule="nonzero"/><path fill="#000000" fill-opacity="0.0" d="m271.7546 154.14699c10.2677 0 15.40155 0.01574707 20.53543 0.03149414c5.13385 0.01574707 10.2677 0.03149414 20.53543 0.03149414" fill-rule="evenodd"/><path stroke="#434343" stroke-width="1.0" stroke-linejoin="round" stroke-linecap="butt" d="m271.7546 154.14699c10.2677 0 15.40155 0.01574707 20.53543 0.03149414c2.566925 0.007873535 5.13385 0.01574707 8.342499 0.021652222c1.6043396 0.0029449463 3.36911 0.00541687 5.3745117 0.0071258545l3.391327 0.0013427734" fill-rule="evenodd"/><path fill="#434343" stroke="#434343" stroke-width="1.0" stroke-linecap="butt" d="m309.39838 154.20862l-1.1250305 1.1241302l3.09021 -1.123352l-3.089325 -1.1258087z" fill-rule="evenodd"/><path fill="#65aaff" d="m21.077427 134.14719l0 0c0 -5.5229645 4.4772434 -10.000206 10.0002 -10.000206l230.67677 0c2.6522217 0 5.195801 1.0535889 7.0711975 2.9289932c1.8753967 1.8753967 2.929016 4.418991 2.929016 7.071213l0 39.999588c0 5.5229645 -4.4772644 10.000214 -10.000214 10.000214l-230.67677 0c-5.522957 0 -10.0002 -4.477249 -10.0002 -10.000214z" fill-rule="evenodd"/><path stroke="#434343" stroke-width="2.0" stroke-linejoin="round" stroke-linecap="butt" d="m21.077427 134.14719l0 0c0 -5.5229645 4.4772434 -10.000206 10.0002 -10.000206l230.67677 0c2.6522217 0 5.195801 1.0535889 7.0711975 2.9289932c1.8753967 1.8753967 2.929016 4.418991 2.929016 7.071213l0 39.999588c0 5.5229645 -4.4772644 10.000214 -10.000214 10.000214l-230.67677 0c-5.522957 0 -10.0002 -4.477249 -10.0002 -10.000214z" fill-rule="evenodd"/><path fill="#000000" d="m45.355644 158.64761q0.90625 0 1.359375 -0.09375l0 -2.140625q-0.15625 -0.046875 -0.46875 -0.09375q-0.296875 -0.0625 -0.65625 -0.0625q-0.328125 0 -0.65625 0.0625q-0.328125 0.046875 -0.59375 0.171875q-0.265625 0.125 -0.421875 0.359375q-0.15625 0.234375 -0.15625 0.578125q0 0.6875 0.421875 0.953125q0.4375 0.265625 1.171875 0.265625zm-0.15625 -7.21875q0.953125 0 1.609375 0.25q0.65625 0.234375 1.046875 0.671875q0.40625 0.421875 0.5625 1.046875q0.171875 0.609375 0.171875 1.34375l0 5.078125q-0.453125 0.09375 -1.359375 0.21875q-0.890625 0.140625 -2.03125 0.140625q-0.75 0 -1.375 -0.140625q-0.625 -0.140625 -1.0625 -0.453125q-0.4375 -0.328125 -0.6875 -0.84375q-0.25 -0.515625 -0.25 -1.265625q0 -0.71875 0.28125 -1.203125q0.28125 -0.5 0.75 -0.8125q0.484375 -0.3125 1.109375 -0.453125q0.640625 -0.140625 1.328125 -0.140625q0.328125 0 0.671875 0.046875q0.359375 0.03125 0.75 0.140625l0 -0.328125q0 -0.328125 -0.078125 -0.625q-0.078125 -0.3125 -0.28125 -0.546875q-0.203125 -0.234375 -0.53125 -0.359375q-0.328125 -0.125 -0.8125 -0.125q-0.671875 0 -1.234375 0.09375q-0.5625 0.09375 -0.90625 0.21875l-0.25 -1.5625q0.375 -0.125 1.078125 -0.25q0.703125 -0.140625 1.5 -0.140625zm10.528397 1.953125q-0.234375 -0.078125 -0.671875 -0.15625q-0.421875 -0.09375 -0.96875 -0.09375q-0.328125 0 -0.6875 0.0625q-0.359375 0.0625 -0.5 0.109375l0 6.703125l-1.9375 0l0 -7.96875q0.5625 -0.203125 1.390625 -0.390625q0.84375 -0.1875 1.875 -0.1875q0.1875 0 0.4375 0.03125q0.265625 0.015625 0.515625 0.0625q0.265625 0.03125 0.5 0.09375q0.234375 0.0625 0.390625 0.109375l-0.34375 1.625zm1.2136383 2.484375q0 -1.109375 0.328125 -1.9375q0.328125 -0.828125 0.875 -1.375q0.546875 -0.5625 1.25 -0.84375q0.703125 -0.28125 1.4375 -0.28125q1.734375 0 2.6875 1.078125q0.96875 1.0625 0.96875 3.203125q0 0.15625 -0.015625 0.359375q0 0.1875 -0.015625 0.359375l-5.515625 0q0.078125 1.0 0.703125 1.5625q0.640625 0.546875 1.84375 0.546875q0.703125 0 1.28125 -0.125q0.59375 -0.140625 0.921875 -0.28125l0.265625 1.59375q-0.171875 0.078125 -0.453125 0.171875q-0.265625 0.078125 -0.625 0.140625q-0.359375 0.078125 -0.78125 0.125q-0.421875 0.046875 -0.84375 0.046875q-1.109375 0 -1.921875 -0.328125q-0.8125 -0.328125 -1.34375 -0.90625q-0.53125 -0.578125 -0.796875 -1.375q-0.25 -0.796875 -0.25 -1.734375zm5.625 -0.875q0 -0.390625 -0.125 -0.75q-0.109375 -0.359375 -0.328125 -0.625q-0.203125 -0.265625 -0.515625 -0.40625q-0.3125 -0.15625 -0.75 -0.15625q-0.453125 0 -0.796875 0.171875q-0.328125 0.15625 -0.5625 0.4375q-0.21875 0.265625 -0.359375 0.625q-0.125 0.34375 -0.171875 0.703125l3.609375 0zm7.614029 -5.5625l1.9375 -0.3125l0 2.515625l2.96875 0l0 1.625l-2.96875 0l0 3.40625q0 1.0 0.3125 1.4375q0.328125 0.4375 1.09375 0.4375q0.53125 0 0.9375 -0.109375q0.40625 -0.125 0.640625 -0.21875l0.328125 1.546875q-0.34375 0.140625 -0.890625 0.28125q-0.546875 0.15625 -1.28125 0.15625q-0.890625 0 -1.5 -0.234375q-0.59375 -0.234375 -0.953125 -0.6875q-0.34375 -0.46875 -0.484375 -1.109375q-0.140625 -0.65625 -0.140625 -1.484375l0 -7.25zm6.781769 10.578125l0 -12.09375l1.9375 -0.328125l0 4.15625q0.3125 -0.125 0.734375 -0.203125q0.4375 -0.078125 0.84375 -0.078125q1.015625 0 1.671875 0.28125q0.671875 0.28125 1.0625 0.796875q0.40625 0.5 0.5625 1.203125q0.171875 0.703125 0.171875 1.5625l0 4.703125l-1.9375 0l0 -4.40625q0 -0.671875 -0.09375 -1.140625q-0.078125 -0.46875 -0.28125 -0.765625q-0.1875 -0.296875 -0.53125 -0.421875q-0.328125 -0.140625 -0.828125 -0.140625q-0.390625 0 -0.796875 0.078125q-0.390625 0.078125 -0.578125 0.140625l0 6.65625l-1.9375 0zm8.843262 -4.140625q0 -1.109375 0.328125 -1.9375q0.328125 -0.828125 0.875 -1.375q0.546875 -0.5625 1.25 -0.84375q0.703125 -0.28125 1.4375 -0.28125q1.734375 0 2.6875 1.078125q0.96875 1.0625 0.96875 3.203125q0 0.15625 -0.015625 0.359375q0 0.1875 -0.015625 0.359375l-5.515625 0q0.078125 1.0 0.703125 1.5625q0.640625 0.546875 1.84375 0.546875q0.703125 0 1.28125 -0.125q0.59375 -0.140625 0.921875 -0.28125l0.265625 1.59375q-0.171875 0.078125 -0.453125 0.171875q-0.265625 0.078125 -0.625 0.140625q-0.359375 0.078125 -0.78125 0.125q-0.421875 0.046875 -0.84375 0.046875q-1.109375 0 -1.921875 -0.328125q-0.8125 -0.328125 -1.34375 -0.90625q-0.53125 -0.578125 -0.796875 -1.375q-0.25 -0.796875 -0.25 -1.734375zm5.625 -0.875q0 -0.390625 -0.125 -0.75q-0.109375 -0.359375 -0.328125 -0.625q-0.203125 -0.265625 -0.515625 -0.40625q-0.3125 -0.15625 -0.75 -0.15625q-0.453125 0 -0.796875 0.171875q-0.328125 0.15625 -0.5625 0.4375q-0.21875 0.265625 -0.359375 0.625q-0.125 0.34375 -0.171875 0.703125l3.609375 0zm8.745392 -1.609375q-0.234375 -0.078125 -0.671875 -0.15625q-0.421875 -0.09375 -0.96875 -0.09375q-0.328125 0 -0.6875 0.0625q-0.359375 0.0625 -0.5 0.109375l0 6.703125l-1.9375 0l0 -7.96875q0.5625 -0.203125 1.390625 -0.390625q0.84375 -0.1875 1.875 -0.1875q0.1875 0 0.4375 0.03125q0.265625 0.015625 0.515625 0.0625q0.265625 0.03125 0.5 0.09375q0.234375 0.0625 0.390625 0.109375l-0.34375 1.625zm1.2136383 2.484375q0 -1.109375 0.328125 -1.9375q0.328125 -0.828125 0.875 -1.375q0.546875 -0.5625 1.25 -0.84375q0.703125 -0.28125 1.4375 -0.28125q1.734375 0 2.6875 1.078125q0.96875 1.0625 0.96875 3.203125q0 0.15625 -0.015625 0.359375q0 0.1875 -0.015625 0.359375l-5.515625 0q0.078125 1.0 0.703125 1.5625q0.640625 0.546875 1.84375 0.546875q0.703125 0 1.28125 -0.125q0.59375 -0.140625 0.921875 -0.28125l0.265625 1.59375q-0.171875 0.078125 -0.453125 0.171875q-0.265625 0.078125 -0.625 0.140625q-0.359375 0.078125 -0.78125 0.125q-0.421875 0.046875 -0.84375 0.046875q-1.109375 0 -1.921875 -0.328125q-0.8125 -0.328125 -1.34375 -0.90625q-0.53125 -0.578125 -0.796875 -1.375q-0.25 -0.796875 -0.25 -1.734375zm5.625 -0.875q0 -0.390625 -0.125 -0.75q-0.109375 -0.359375 -0.328125 -0.625q-0.203125 -0.265625 -0.515625 -0.40625q-0.3125 -0.15625 -0.75 -0.15625q-0.453125 0 -0.796875 0.171875q-0.328125 0.15625 -0.5625 0.4375q-0.21875 0.265625 -0.359375 0.625q-0.125 0.34375 -0.171875 0.703125l3.609375 0zm10.645279 3.65625q0.90625 0 1.359375 -0.09375l0 -2.140625q-0.15625 -0.046875 -0.46875 -0.09375q-0.296875 -0.0625 -0.65625 -0.0625q-0.328125 0 -0.65625 0.0625q-0.328125 0.046875 -0.59375 0.171875q-0.265625 0.125 -0.421875 0.359375q-0.15625 0.234375 -0.15625 0.578125q0 0.6875 0.421875 0.953125q0.4375 0.265625 1.171875 0.265625zm-0.15625 -7.21875q0.953125 0 1.609375 0.25q0.65625 0.234375 1.046875 0.671875q0.40625 0.421875 0.5625 1.046875q0.171875 0.609375 0.171875 1.34375l0 5.078125q-0.453125 0.09375 -1.359375 0.21875q-0.890625 0.140625 -2.03125 0.140625q-0.75 0 -1.375 -0.140625q-0.625 -0.140625 -1.0625 -0.453125q-0.4375 -0.328125 -0.6875 -0.84375q-0.25 -0.515625 -0.25 -1.265625q0 -0.71875 0.28125 -1.203125q0.28125 -0.5 0.75 -0.8125q0.484375 -0.3125 1.109375 -0.453125q0.640625 -0.140625 1.328125 -0.140625q0.328125 0 0.671875 0.046875q0.359375 0.03125 0.75 0.140625l0 -0.328125q0 -0.328125 -0.078125 -0.625q-0.078125 -0.3125 -0.28125 -0.546875q-0.203125 -0.234375 -0.53125 -0.359375q-0.328125 -0.125 -0.8125 -0.125q-0.671875 0 -1.234375 0.09375q-0.5625 0.09375 -0.90625 0.21875l-0.25 -1.5625q0.375 -0.125 1.078125 -0.25q0.703125 -0.140625 1.5 -0.140625zm5.7627716 0.484375q0.5625 -0.15625 1.453125 -0.296875q0.890625 -0.15625 1.984375 -0.15625q1.03125 0 1.7187576 0.28125q0.6875 0.28125 1.09375 0.796875q0.40625 0.5 0.5625 1.21875q0.171875 0.703125 0.171875 1.546875l0 4.703125l-1.9375 0l0 -4.40625q0 -0.671875 -0.09375 -1.140625q-0.078125 -0.46875 -0.28125763 -0.765625q-0.1875 -0.296875 -0.53125 -0.421875q-0.34375 -0.140625 -0.84375 -0.140625q-0.375 0 -0.78125 0.046875q-0.390625 0.046875 -0.578125 0.078125l0 6.75l-1.9375 0l0 -8.09375zm15.932152 -0.28125q-1.296875 4.78125 -3.0 8.640625q-0.328125 0.71875 -0.671875 1.234375q-0.328125 0.515625 -0.75 0.84375q-0.40625 0.34375 -0.921875 0.484375q-0.515625 0.15625 -1.1875 0.15625q-0.4375 0 -0.890625 -0.09375q-0.4375 -0.09375 -0.65625 -0.203125l0.359375 -1.546875q0.5625 0.21875 1.125 0.21875q0.75 0 1.171875 -0.359375q0.4375 -0.359375 0.75 -1.109375q-0.90625 -1.765625 -1.75 -3.84375q-0.84375 -2.078125 -1.5 -4.421875l2.0625 0q0.171875 0.671875 0.390625 1.46875q0.234375 0.78125 0.5 1.59375q0.28125 0.796875 0.578125 1.609375q0.3125 0.796875 0.609375 1.484375q0.515625 -1.421875 0.96875 -3.03125q0.453125 -1.609375 0.8125 -3.125l2.0 0zm4.735153 4.203125q0 -0.9375 0.28125 -1.734375q0.296875 -0.8125 0.828125 -1.40625q0.546875 -0.59375 1.3125 -0.921875q0.765625 -0.34375 1.71875 -0.34375q1.1875 0 2.25 0.4375l-0.421875 1.578125q-0.328125 -0.140625 -0.765625 -0.234375q-0.421875 -0.09375 -0.890625 -0.09375q-1.140625 0 -1.734375 0.71875q-0.59375 0.703125 -0.59375 2.0q0 1.25 0.5625 1.984375q0.5625 0.71875 1.890625 0.71875q0.5 0 0.96875 -0.09375q0.484375 -0.09375 0.84375 -0.25l0.265625 1.609375q-0.328125 0.15625 -0.984375 0.28125q-0.640625 0.125 -1.328125 0.125q-1.0625 0 -1.859375 -0.328125q-0.796875 -0.328125 -1.3125 -0.90625q-0.515625 -0.578125 -0.78125 -1.390625q-0.25 -0.8125 -0.25 -1.75zm10.958267 2.8125q0.90625 0 1.359375 -0.09375l0 -2.140625q-0.15625 -0.046875 -0.46875 -0.09375q-0.296875 -0.0625 -0.65625 -0.0625q-0.328125 0 -0.65625 0.0625q-0.328125 0.046875 -0.59375 0.171875q-0.265625 0.125 -0.421875 0.359375q-0.15625 0.234375 -0.15625 0.578125q0 0.6875 0.421875 0.953125q0.4375 0.265625 1.171875 0.265625zm-0.15625 -7.21875q0.953125 0 1.609375 0.25q0.65625 0.234375 1.046875 0.671875q0.40625 0.421875 0.5625 1.046875q0.171875 0.609375 0.171875 1.34375l0 5.078125q-0.453125 0.09375 -1.359375 0.21875q-0.890625 0.140625 -2.03125 0.140625q-0.75 0 -1.375 -0.140625q-0.625 -0.140625 -1.0625 -0.453125q-0.4375 -0.328125 -0.6875 -0.84375q-0.25 -0.515625 -0.25 -1.265625q0 -0.71875 0.28125 -1.203125q0.28125 -0.5 0.75 -0.8125q0.484375 -0.3125 1.109375 -0.453125q0.640625 -0.140625 1.328125 -0.140625q0.328125 0 0.671875 0.046875q0.359375 0.03125 0.75 0.140625l0 -0.328125q0 -0.328125 -0.078125 -0.625q-0.078125 -0.3125 -0.28125 -0.546875q-0.203125 -0.234375 -0.53125 -0.359375q-0.328125 -0.125 -0.8125 -0.125q-0.671875 0 -1.234375 0.09375q-0.5625 0.09375 -0.90625 0.21875l-0.25 -1.5625q0.375 -0.125 1.078125 -0.25q0.703125 -0.140625 1.5 -0.140625zm5.6690216 -2.0l1.9375 -0.3125l0 2.515625l2.96875 0l0 1.625l-2.96875 0l0 3.40625q0 1.0 0.3125 1.4375q0.328125 0.4375 1.09375 0.4375q0.53125 0 0.9375 -0.109375q0.40625 -0.125 0.640625 -0.21875l0.328125 1.546875q-0.34375 0.140625 -0.890625 0.28125q-0.546875 0.15625 -1.28125 0.15625q-0.890625 0 -1.5 -0.234375q-0.59375 -0.234375 -0.953125 -0.6875q-0.34375 -0.46875 -0.484375 -1.109375q-0.140625 -0.65625 -0.140625 -1.484375l0 -7.25zm8.875519 9.1875q0.765625 0 1.109375 -0.1875q0.359375 -0.1875 0.359375 -0.625q0 -0.421875 -0.375 -0.6875q-0.375 -0.28125 -1.234375 -0.59375q-0.53125 -0.203125 -0.96875 -0.40625q-0.4375 -0.21875 -0.765625 -0.5q-0.3125 -0.296875 -0.5 -0.703125q-0.1875 -0.40625 -0.1875 -1.0q0 -1.15625 0.84375 -1.8125q0.859375 -0.671875 2.3125 -0.671875q0.734375 0 1.40625 0.140625q0.671875 0.140625 1.015625 0.265625l-0.359375 1.5625q-0.328125 -0.140625 -0.828125 -0.25q-0.484375 -0.125 -1.140625 -0.125q-0.59375 0 -0.96875 0.203125q-0.359375 0.1875 -0.359375 0.609375q0 0.203125 0.0625 0.375q0.078125 0.15625 0.25 0.296875q0.1875 0.125 0.46875 0.265625q0.296875 0.125 0.703125 0.28125q0.6875 0.25 1.171875 0.5q0.484375 0.25 0.796875 0.5625q0.3125 0.3125 0.453125 0.71875q0.140625 0.390625 0.140625 0.953125q0 1.1875 -0.890625 1.8125q-0.890625 0.609375 -2.53125 0.609375q-1.109375 0 -1.78125 -0.1875q-0.671875 -0.171875 -0.9375 -0.28125l0.328125 -1.625q0.4375 0.171875 1.03125 0.34375q0.609375 0.15625 1.375 0.15625zm10.899399 1.390625l-1.9375 0l0 -8.375l1.9375 0l0 8.375zm0.203125 -10.8125q0 0.546875 -0.359375 0.875q-0.34375 0.3125 -0.828125 0.3125q-0.484375 0 -0.84375 -0.3125q-0.34375 -0.328125 -0.34375 -0.875q0 -0.5625 0.34375 -0.875q0.359375 -0.328125 0.84375 -0.328125q0.484375 0 0.828125 0.328125q0.359375 0.3125 0.359375 0.875zm2.2597656 2.71875q0.5625 -0.15625 1.453125 -0.296875q0.890625 -0.15625 1.984375 -0.15625q1.03125 0 1.71875 0.28125q0.6875 0.28125 1.09375 0.796875q0.40625 0.5 0.5625 1.21875q0.171875 0.703125 0.171875 1.546875l0 4.703125l-1.9375 0l0 -4.40625q0 -0.671875 -0.09375 -1.140625q-0.078125 -0.46875 -0.28125 -0.765625q-0.1875 -0.296875 -0.53125 -0.421875q-0.34375 -0.140625 -0.84375 -0.140625q-0.375 0 -0.78125 0.046875q-0.390625 0.046875 -0.578125 0.078125l0 6.75l-1.9375 0l0 -8.09375zm12.994278 -2.484375l1.9375 -0.3125l0 2.515625l2.96875 0l0 1.625l-2.96875 0l0 3.40625q0 1.0 0.3125 1.4375q0.328125 0.4375 1.09375 0.4375q0.53125 0 0.9375 -0.109375q0.40625 -0.125 0.640625 -0.21875l0.328125 1.546875q-0.34375 0.140625 -0.890625 0.28125q-0.546875 0.15625 -1.28125 0.15625q-0.890625 0 -1.5 -0.234375q-0.59375 -0.234375 -0.953125 -0.6875q-0.34375 -0.46875 -0.484375 -1.109375q-0.140625 -0.65625 -0.140625 -1.484375l0 -7.25zm6.781769 10.578125l0 -12.09375l1.9375 -0.328125l0 4.15625q0.3125 -0.125 0.734375 -0.203125q0.4375 -0.078125 0.84375 -0.078125q1.015625 0 1.671875 0.28125q0.671875 0.28125 1.0625 0.796875q0.40625 0.5 0.5625 1.203125q0.171875 0.703125 0.171875 1.5625l0 4.703125l-1.9375 0l0 -4.40625q0 -0.671875 -0.09375 -1.140625q-0.078125 -0.46875 -0.28125 -0.765625q-0.1875 -0.296875 -0.53125 -0.421875q-0.328125 -0.140625 -0.828125 -0.140625q-0.390625 0 -0.796875 0.078125q-0.390625 0.078125 -0.578125 0.140625l0 6.65625l-1.9375 0zm8.843262 -4.140625q0 -1.109375 0.328125 -1.9375q0.328125 -0.828125 0.875 -1.375q0.546875 -0.5625 1.25 -0.84375q0.703125 -0.28125 1.4375 -0.28125q1.734375 0 2.6875 1.078125q0.96875 1.0625 0.96875 3.203125q0 0.15625 -0.015625 0.359375q0 0.1875 -0.015625 0.359375l-5.515625 0q0.078125 1.0 0.703125 1.5625q0.640625 0.546875 1.84375 0.546875q0.703125 0 1.28125 -0.125q0.59375 -0.140625 0.921875 -0.28125l0.265625 1.59375q-0.171875 0.078125 -0.453125 0.171875q-0.265625 0.078125 -0.625 0.140625q-0.359375 0.078125 -0.78125 0.125q-0.421875 0.046875 -0.84375 0.046875q-1.109375 0 -1.921875 -0.328125q-0.8125 -0.328125 -1.34375 -0.90625q-0.53125 -0.578125 -0.796875 -1.375q-0.25 -0.796875 -0.25 -1.734375zm5.625 -0.875q0 -0.390625 -0.125 -0.75q-0.109375 -0.359375 -0.328125 -0.625q-0.203125 -0.265625 -0.515625 -0.40625q-0.3125 -0.15625 -0.75 -0.15625q-0.453125 0 -0.796875 0.171875q-0.328125 0.15625 -0.5625 0.4375q-0.21875 0.265625 -0.359375 0.625q-0.125 0.34375 -0.171875 0.703125l3.609375 0zm13.254654 0.875q0 -1.296875 -0.59375 -2.015625q-0.578125 -0.71875 -1.875 -0.71875q-0.265625 0 -0.5625 0.03125q-0.296875 0.015625 -0.578125 0.09375l0 4.78125q0.25 0.171875 0.671875 0.328125q0.421875 0.15625 0.90625 0.15625q1.0625 0 1.546875 -0.71875q0.484375 -0.71875 0.484375 -1.9375zm1.984375 -0.03125q0 0.953125 -0.25 1.765625q-0.25 0.796875 -0.71875 1.375q-0.453125 0.5625 -1.15625 0.890625q-0.6875 0.3125 -1.5625 0.3125q-0.59375 0 -1.09375 -0.140625q-0.5 -0.140625 -0.8125 -0.3125l0 3.234375l-1.9375 0l0 -11.046875q0.59375 -0.15625 1.453125 -0.296875q0.859375 -0.15625 1.828125 -0.15625q0.984375 0 1.765625 0.3125q0.796875 0.296875 1.34375 0.875q0.546875 0.5625 0.84375 1.375q0.296875 0.796875 0.296875 1.8125zm3.957901 4.171875l-1.9375 0l0 -8.375l1.9375 0l0 8.375zm0.203125 -10.8125q0 0.546875 -0.359375 0.875q-0.34375 0.3125 -0.828125 0.3125q-0.484375 0 -0.84375 -0.3125q-0.34375 -0.328125 -0.34375 -0.875q0 -0.5625 0.34375 -0.875q0.359375 -0.328125 0.84375 -0.328125q0.484375 0 0.828125 0.328125q0.359375 0.3125 0.359375 0.875zm1.7910156 6.640625q0 -0.9375 0.28125 -1.734375q0.296875 -0.8125 0.828125 -1.40625q0.546875 -0.59375 1.3125 -0.921875q0.765625 -0.34375 1.71875 -0.34375q1.1875 0 2.25 0.4375l-0.421875 1.578125q-0.328125 -0.140625 -0.765625 -0.234375q-0.421875 -0.09375 -0.890625 -0.09375q-1.140625 0 -1.734375 0.71875q-0.59375 0.703125 -0.59375 2.0q0 1.25 0.5625 1.984375q0.5625 0.71875 1.890625 0.71875q0.5 0 0.96875 -0.09375q0.484375 -0.09375 0.84375 -0.25l0.265625 1.609375q-0.328125 0.15625 -0.984375 0.28125q-0.640625 0.125 -1.328125 0.125q-1.0625 0 -1.859375 -0.328125q-0.796875 -0.328125 -1.3125 -0.90625q-0.515625 -0.578125 -0.78125 -1.390625q-0.25 -0.8125 -0.25 -1.75zm9.723892 -5.53125q-0.546875 0 -1.0625 0.140625q-0.515625 0.140625 -1.078125 0.4375l-0.546875 -1.484375q0.59375 -0.328125 1.359375 -0.53125q0.765625 -0.203125 1.5625 -0.203125q0.953125 0 1.578125 0.265625q0.625 0.265625 0.984375 0.671875q0.375 0.390625 0.515625 0.875q0.15625 0.46875 0.15625 0.921875q0 0.546875 -0.203125 0.984375q-0.203125 0.421875 -0.515625 0.796875q-0.296875 0.359375 -0.65625 0.6875q-0.34375 0.328125 -0.65625 0.671875q-0.296875 0.34375 -0.5 0.734375q-0.1875 0.375 -0.1875 0.859375q0 0.078125 0 0.1875q0 0.109375 0.015625 0.203125l-1.671875 0q-0.03125 -0.15625 -0.046875 -0.34375q-0.015625 -0.1875 -0.015625 -0.34375q0 -0.53125 0.171875 -0.9375q0.171875 -0.421875 0.4375 -0.765625q0.28125 -0.359375 0.59375 -0.65625q0.3125 -0.3125 0.578125 -0.609375q0.28125 -0.3125 0.453125 -0.625q0.1875 -0.328125 0.1875 -0.71875q0 -0.53125 -0.375 -0.875q-0.359375 -0.34375 -1.078125 -0.34375zm1.25 8.640625q0 0.5625 -0.375 0.921875q-0.359375 0.34375 -0.90625 0.34375q-0.515625 0 -0.90625 -0.34375q-0.375 -0.359375 -0.375 -0.921875q0 -0.546875 0.375 -0.90625q0.390625 -0.375 0.90625 -0.375q0.546875 0 0.90625 0.375q0.375 0.359375 0.375 0.90625z" fill-rule="nonzero"/><path fill="#000000" fill-opacity="0.0" d="m250.81139 121.133545l75.43306 0l0 38.771652l-75.43306 0z" fill-rule="evenodd"/><path fill="#6aa84f" d="m280.0849 137.36855q0.609375 -0.171875 1.5625 -0.328125q0.953125 -0.15625 2.015625 -0.15625q1.078125 0 1.78125 0.28125q0.71875 0.28125 1.125 0.796875q0.421875 0.5 0.59375 1.21875q0.1875 0.703125 0.1875 1.5625l0 4.75l-2.390625 0l0 -4.46875q0 -1.140625 -0.3125 -1.625q-0.296875 -0.484375 -1.125 -0.484375q-0.265625 0 -0.546875 0.03125q-0.28125 0.015625 -0.515625 0.046875l0 6.5l-2.375 0l0 -8.125zm17.283417 3.90625q0 0.984375 -0.28125 1.8125q-0.28125 0.828125 -0.828125 1.40625q-0.546875 0.578125 -1.3125 0.90625q-0.75 0.3125 -1.703125 0.3125q-0.921875 0 -1.6875 -0.3125q-0.75 -0.328125 -1.296875 -0.90625q-0.546875 -0.578125 -0.859375 -1.40625q-0.296875 -0.828125 -0.296875 -1.8125q0 -1.0 0.3125 -1.8125q0.3125 -0.8125 0.859375 -1.390625q0.5625 -0.578125 1.3125 -0.890625q0.765625 -0.328125 1.65625 -0.328125q0.921875 0 1.671875 0.328125q0.765625 0.3125 1.3125 0.890625q0.546875 0.578125 0.84375 1.390625q0.296875 0.8125 0.296875 1.8125zm-2.421875 0q0 -1.109375 -0.4375 -1.734375q-0.4375 -0.640625 -1.265625 -0.640625q-0.8125 0 -1.265625 0.640625q-0.4375 0.625 -0.4375 1.734375q0 1.09375 0.4375 1.75q0.453125 0.640625 1.265625 0.640625q0.828125 0 1.265625 -0.640625q0.4375 -0.65625 0.4375 -1.75z" fill-rule="nonzero"/><path fill="#000000" fill-opacity="0.0" d="m280.11285 206.91077l75.433075 0l0 38.771652l-75.433075 0z" fill-rule="evenodd"/><path fill="#6aa84f" d="m309.38638 223.14577q0.609375 -0.171875 1.5625 -0.328125q0.953125 -0.15625 2.015625 -0.15625q1.078125 0 1.78125 0.28125q0.71875 0.28125 1.125 0.796875q0.421875 0.5 0.59375 1.21875q0.1875 0.703125 0.1875 1.5625l0 4.75l-2.390625 0l0 -4.46875q0 -1.140625 -0.3125 -1.625q-0.296875 -0.484375 -1.125 -0.484375q-0.265625 0 -0.546875 0.03125q-0.28125 0.015625 -0.515625 0.046875l0 6.5l-2.375 0l0 -8.125zm17.283386 3.90625q0 0.984375 -0.28125 1.8125q-0.28125 0.828125 -0.828125 1.40625q-0.546875 0.578125 -1.3125 0.90625q-0.75 0.3125 -1.703125 0.3125q-0.921875 0 -1.6875 -0.3125q-0.75 -0.328125 -1.296875 -0.90625q-0.546875 -0.578125 -0.859375 -1.40625q-0.296875 -0.828125 -0.296875 -1.8125q0 -1.0 0.3125 -1.8125q0.3125 -0.8125 0.859375 -1.390625q0.5625 -0.578125 1.3125 -0.890625q0.765625 -0.328125 1.65625 -0.328125q0.921875 0 1.671875 0.328125q0.765625 0.3125 1.3125 0.890625q0.546875 0.578125 0.84375 1.390625q0.296875 0.8125 0.296875 1.8125zm-2.421875 0q0 -1.109375 -0.4375 -1.734375q-0.4375 -0.640625 -1.265625 -0.640625q-0.8125 0 -1.265625 0.640625q-0.4375 0.625 -0.4375 1.734375q0 1.09375 0.4375 1.75q0.453125 0.640625 1.265625 0.640625q0.828125 0 1.265625 -0.640625q0.4375 -0.65625 0.4375 -1.75z" fill-rule="nonzero"/><path fill="#000000" fill-opacity="0.0" d="m146.47769 184.15749l75.433075 0l0 38.771652l-75.433075 0z" fill-rule="evenodd"/><path fill="#cc0000" d="m179.97195 200.09561q-0.71875 2.4375 -1.515625 4.5625q-0.78125 2.125 -1.703125 4.125q-0.328125 0.71875 -0.671875 1.21875q-0.328125 0.515625 -0.734375 0.84375q-0.40625 0.328125 -0.90625 0.46875q-0.5 0.15625 -1.171875 0.15625q-0.5625 0 -1.03125 -0.109375q-0.46875 -0.09375 -0.78125 -0.21875l0.421875 -1.90625q0.359375 0.125 0.640625 0.171875q0.296875 0.046875 0.625 0.046875q0.640625 0 0.984375 -0.34375q0.34375 -0.34375 0.578125 -0.953125q-0.8125 -1.59375 -1.640625 -3.578125q-0.8125 -2.0 -1.53125 -4.484375l2.53125 0q0.15625 0.625 0.375 1.359375q0.21875 0.71875 0.453125 1.46875q0.25 0.75 0.484375 1.453125q0.25 0.703125 0.484375 1.28125q0.203125 -0.578125 0.421875 -1.28125q0.234375 -0.703125 0.4375 -1.453125q0.21875 -0.75 0.421875 -1.46875q0.203125 -0.734375 0.359375 -1.359375l2.46875 0zm0.65301514 4.28125q0 -1.125 0.34375 -1.953125q0.34375 -0.84375 0.90625 -1.40625q0.5625 -0.5625 1.28125 -0.84375q0.734375 -0.296875 1.5 -0.296875q1.796875 0 2.828125 1.09375q1.046875 1.09375 1.046875 3.234375q0 0.203125 -0.015625 0.453125q-0.015625 0.25 -0.03125 0.4375l-5.40625 0q0.078125 0.734375 0.6875 1.171875q0.609375 0.421875 1.625 0.421875q0.65625 0 1.28125 -0.109375q0.640625 -0.125 1.046875 -0.296875l0.3125 1.9375q-0.1875 0.09375 -0.515625 0.1875q-0.3125 0.09375 -0.703125 0.15625q-0.390625 0.078125 -0.84375 0.125q-0.453125 0.046875 -0.890625 0.046875q-1.140625 0 -1.984375 -0.328125q-0.828125 -0.34375 -1.390625 -0.921875q-0.546875 -0.578125 -0.8125 -1.375q-0.265625 -0.8125 -0.265625 -1.734375zm5.59375 -0.921875q-0.015625 -0.296875 -0.109375 -0.578125q-0.078125 -0.296875 -0.265625 -0.515625q-0.171875 -0.234375 -0.453125 -0.375q-0.28125 -0.140625 -0.703125 -0.140625q-0.390625 0 -0.6875 0.140625q-0.28125 0.125 -0.484375 0.359375q-0.1875 0.21875 -0.296875 0.515625q-0.09375 0.296875 -0.140625 0.59375l3.140625 0zm6.5627747 3.34375q0.65625 0 0.921875 -0.125q0.28125 -0.125 0.28125 -0.5q0 -0.28125 -0.359375 -0.5q-0.34375 -0.21875 -1.0625 -0.484375q-0.5625 -0.203125 -1.015625 -0.421875q-0.453125 -0.234375 -0.78125 -0.546875q-0.3125 -0.3125 -0.5 -0.734375q-0.171875 -0.4375 -0.171875 -1.046875q0 -1.1875 0.875 -1.875q0.890625 -0.6875 2.421875 -0.6875q0.765625 0 1.46875 0.140625q0.703125 0.125 1.125 0.296875l-0.421875 1.84375q-0.40625 -0.140625 -0.90625 -0.25q-0.484375 -0.109375 -1.09375 -0.109375q-1.109375 0 -1.109375 0.625q0 0.140625 0.046875 0.25q0.046875 0.109375 0.1875 0.21875q0.140625 0.109375 0.390625 0.234375q0.25 0.109375 0.640625 0.25q0.78125 0.296875 1.28125 0.578125q0.515625 0.28125 0.8125 0.609375q0.296875 0.328125 0.421875 0.734375q0.125 0.390625 0.125 0.921875q0 1.234375 -0.9375 1.875q-0.9375 0.640625 -2.65625 0.640625q-1.109375 0 -1.859375 -0.1875q-0.75 -0.1875 -1.03125 -0.3125l0.40625 -1.9375q0.59375 0.234375 1.234375 0.375q0.640625 0.125 1.265625 0.125z" fill-rule="nonzero"/><path fill="#000000" fill-opacity="0.0" d="m146.47769 282.93964l75.433075 0l0 38.771637l-75.433075 0z" fill-rule="evenodd"/><path fill="#cc0000" d="m179.97195 298.87775q-0.71875 2.4375 -1.515625 4.5625q-0.78125 2.125 -1.703125 4.125q-0.328125 0.71875 -0.671875 1.21875q-0.328125 0.515625 -0.734375 0.84375q-0.40625 0.328125 -0.90625 0.46875q-0.5 0.15625 -1.171875 0.15625q-0.5625 0 -1.03125 -0.109375q-0.46875 -0.09375 -0.78125 -0.21875l0.421875 -1.90625q0.359375 0.125 0.640625 0.171875q0.296875 0.046875 0.625 0.046875q0.640625 0 0.984375 -0.34375q0.34375 -0.34375 0.578125 -0.953125q-0.8125 -1.59375 -1.640625 -3.578125q-0.8125 -2.0 -1.53125 -4.484375l2.53125 0q0.15625 0.625 0.375 1.359375q0.21875 0.71875 0.453125 1.46875q0.25 0.75 0.484375 1.453125q0.25 0.703125 0.484375 1.28125q0.203125 -0.578125 0.421875 -1.28125q0.234375 -0.703125 0.4375 -1.453125q0.21875 -0.75 0.421875 -1.46875q0.203125 -0.734375 0.359375 -1.359375l2.46875 0zm0.65301514 4.28125q0 -1.125 0.34375 -1.953125q0.34375 -0.84375 0.90625 -1.40625q0.5625 -0.5625 1.28125 -0.84375q0.734375 -0.296875 1.5 -0.296875q1.796875 0 2.828125 1.09375q1.046875 1.09375 1.046875 3.234375q0 0.203125 -0.015625 0.453125q-0.015625 0.25 -0.03125 0.4375l-5.40625 0q0.078125 0.734375 0.6875 1.171875q0.609375 0.421875 1.625 0.421875q0.65625 0 1.28125 -0.109375q0.640625 -0.125 1.046875 -0.296875l0.3125 1.9375q-0.1875 0.09375 -0.515625 0.1875q-0.3125 0.09375 -0.703125 0.15625q-0.390625 0.078125 -0.84375 0.125q-0.453125 0.046875 -0.890625 0.046875q-1.140625 0 -1.984375 -0.328125q-0.828125 -0.34375 -1.390625 -0.921875q-0.546875 -0.578125 -0.8125 -1.375q-0.265625 -0.8125 -0.265625 -1.734375zm5.59375 -0.921875q-0.015625 -0.296875 -0.109375 -0.578125q-0.078125 -0.296875 -0.265625 -0.515625q-0.171875 -0.234375 -0.453125 -0.375q-0.28125 -0.140625 -0.703125 -0.140625q-0.390625 0 -0.6875 0.140625q-0.28125 0.125 -0.484375 0.359375q-0.1875 0.21875 -0.296875 0.515625q-0.09375 0.296875 -0.140625 0.59375l3.140625 0zm6.5627747 3.34375q0.65625 0 0.921875 -0.125q0.28125 -0.125 0.28125 -0.5q0 -0.28125 -0.359375 -0.5q-0.34375 -0.21875 -1.0625 -0.484375q-0.5625 -0.203125 -1.015625 -0.421875q-0.453125 -0.234375 -0.78125 -0.546875q-0.3125 -0.3125 -0.5 -0.734375q-0.171875 -0.4375 -0.171875 -1.046875q0 -1.1875 0.875 -1.875q0.890625 -0.6875 2.421875 -0.6875q0.765625 0 1.46875 0.140625q0.703125 0.125 1.125 0.296875l-0.421875 1.84375q-0.40625 -0.140625 -0.90625 -0.25q-0.484375 -0.109375 -1.09375 -0.109375q-1.109375 0 -1.109375 0.625q0 0.140625 0.046875 0.25q0.046875 0.109375 0.1875 0.21875q0.140625 0.109375 0.390625 0.234375q0.25 0.109375 0.640625 0.25q0.78125 0.296875 1.28125 0.578125q0.515625 0.28125 0.8125 0.609375q0.296875 0.328125 0.421875 0.734375q0.125 0.390625 0.125 0.921875q0 1.234375 -0.9375 1.875q-0.9375 0.640625 -2.65625 0.640625q-1.109375 0 -1.859375 -0.1875q-0.75 -0.1875 -1.03125 -0.3125l0.40625 -1.9375q0.59375 0.234375 1.234375 0.375q0.640625 0.125 1.265625 0.125z" fill-rule="nonzero"/></g></svg>
