<svg version="1.1" viewBox="0.0 0.0 499.70866141732284 466.3307086614173" fill="none" stroke="none" stroke-linecap="square" stroke-miterlimit="10" xmlns:xlink="http://www.w3.org/1999/xlink" xmlns="http://www.w3.org/2000/svg"><clipPath id="p.0"><path d="m0 0l499.70865 0l0 466.33072l-499.70865 0l0 -466.33072z" clip-rule="nonzero"/></clipPath><g clip-path="url(#p.0)"><path fill="#000000" fill-opacity="0.0" d="m0 0l499.70865 0l0 466.33072l-499.70865 0z" fill-rule="evenodd"/><path fill="#434343" d="m20.97244 233.16536l0 0c0 -117.44966 102.47391 -212.66142 228.88188 -212.66142l0 0c126.407974 0 228.88188 95.21176 228.88188 212.66142l0 0c0 117.44966 -102.47391 212.66142 -228.88188 212.66142l0 0c-126.407974 0 -228.88188 -95.21176 -228.88188 -212.66142z" fill-rule="evenodd"/><path stroke="#f3f3f3" stroke-width="8.0" stroke-linejoin="round" stroke-linecap="butt" d="m20.97244 233.16536l0 0c0 -117.44966 102.47391 -212.66142 228.88188 -212.66142l0 0c126.407974 0 228.88188 95.21176 228.88188 212.66142l0 0c0 117.44966 -102.47391 212.66142 -228.88188 212.66142l0 0c-126.407974 0 -228.88188 -95.21176 -228.88188 -212.66142z" fill-rule="evenodd"/><path fill="#65aaff" d="m159.9738 240.68767l280.44092 0l0 34.61418l-280.44092 0z" fill-rule="evenodd"/><path fill="#f3f3f3" d="m261.76907 90.194c-1.1806335 0.5904083 -1.8443909 2.1422424 -1.9913025 4.655487c-0.30438232 2.4243546 -0.20214844 5.1473236 0.30673218 8.168922c0.50942993 2.9685059 0.88275146 5.5294952 1.1200256 7.682953c0.7498474 4.803337 1.4132996 8.540237 1.9903564 11.210716c0.5559387 2.628212 1.213562 5.866043 1.9729309 9.713501c0.6114197 3.5515747 1.269867 6.7097473 1.9753418 9.474518c0.70599365 2.71167 1.4418335 5.6726227 2.20755 8.8828125c0.6489258 1.9476166 0.9350891 3.5218353 0.8584595 4.7226257c-0.07611084 1.1476898 -0.2581482 2.1105957 -0.5461731 2.8887024c-0.26315308 0.44865417 -1.187439 1.254303 -2.7727966 2.4169922c-1.6065063 1.1204224 -3.308899 2.1302643 -5.107239 3.0295715c-1.7983093 0.89930725 -3.096466 1.3635406 -3.8944092 1.3927002c-0.541687 0.27087402 -0.6687622 2.2102509 -0.38131714 5.8181458c0.30914307 3.597046 0.9815674 6.431183 2.017334 8.50238c0.5073242 1.0144806 1.4553528 2.1519928 2.8441162 3.4125977c1.3887634 1.2606049 2.6758118 1.91156 3.8611145 1.9528809l10.11853 0.32965088l5.925171 25.253555c1.9430847 6.214554 4.029114 13.229462 6.258087 21.0448c2.2295227 7.762207 4.054779 13.903595 5.4757385 18.424149c1.6567078 4.666916 4.181885 10.881012 7.5755615 18.642273c3.372528 7.7189636 6.6132507 14.605652 9.722107 20.659943c3.1088562 6.054291 5.1240845 9.352997 6.0457153 9.896088c0 0 0.36331177 0.32028198 1.0899048 0.96087646c0.72717285 0.5874939 1.2175598 1.1348572 1.4712219 1.6420898c1.6793823 2.3833923 3.8962402 4.9207764 6.6505127 7.6121216c2.7759705 2.6805115 5.5458374 4.888489 8.309631 6.623932c2.7643127 1.6823425 5.0099792 2.4087524 6.7369385 2.1791992c1.9658508 -0.20184326 3.947937 -0.8024292 5.946228 -1.8017273c2.191681 -1.0960083 4.4028625 -2.6716614 6.633606 -4.7269287c4.264618 -3.9291687 7.579895 -11.029602 9.945801 -21.301239c1.9214783 -6.7733154 2.372528 -12.018677 1.3531494 -15.7361145c-1.0193481 -3.7174377 -2.3111572 -7.1401367 -3.8753357 -10.268066c-2.1058655 -2.8570862 -3.749878 -4.465576 -4.9320374 -4.8255615c-0.3253479 -0.113708496 -0.5913391 -0.11895752 -0.7979126 -0.015655518c-0.5435791 0.2718506 -0.67581177 1.2951965 -0.39666748 3.0700989c0 0 -0.24731445 1.0219727 -0.74194336 3.0658875c-0.4941101 1.9908142 -1.0093689 3.939392 -1.5457458 5.845642c-0.56121826 2.2357178 -1.2841797 4.473053 -2.1687927 6.712036c-0.88409424 2.185852 -1.7351685 4.3023376 -2.5532532 6.349457c-1.3348694 1.9885254 -3.5429993 3.9910583 -6.62442 6.0075684c-1.835846 1.2033997 -3.4050598 2.1307983 -4.707672 2.782196c-0.8683777 0.43426514 -1.6182556 0.7458801 -2.2496643 0.93478394c-3.048645 0.8904724 -5.5217896 0.27783203 -7.419464 -1.8378906c-1.9187927 -2.1580505 -4.2349854 -6.627228 -6.9485474 -13.407593c-4.250305 -10.503326 -8.4096985 -21.474792 -12.47821 -32.914444c-4.046814 -11.450485 -7.8653564 -23.09439 -11.455627 -34.931732c-1.01828 -5.990097 -2.0957947 -11.448624 -3.2324524 -16.37555c-1.1361694 -4.9800415 -1.7084656 -8.1284485 -1.716919 -9.445236c-0.4940796 -2.3420868 -0.7989807 -4.197525 -0.9147339 -5.56633c-0.11517334 -1.4219208 0.23123169 -2.651947 1.0392151 -3.690094c0.78686523 -1.0804138 1.4403076 -1.7506409 1.9602966 -2.0106812c0.541687 -0.27087402 1.6157532 -0.9665222 3.2222595 -2.0869293c1.0616455 -0.5309143 2.687439 -1.4231873 4.87735 -2.676834c2.2115784 -1.2644806 4.6564636 -3.2268677 7.334656 -5.8871765c5.0483093 -2.5245514 7.786255 -4.68631 8.213776 -6.485306c0.40637207 -1.8412781 -1.1390686 -5.7711945 -4.636322 -11.78978c-2.4794922 -4.3082886 -5.072052 -7.0012207 -7.7777405 -8.078827c-1.6163635 -0.64375305 -3.3211975 -0.51724243 -5.1144714 0.37953186c-1.2085266 0.60435486 -2.4572144 1.5585327 -3.7460938 2.8625336c-3.681549 3.4427338 -6.4938354 5.6499176 -8.436768 6.6215363c-0.813324 0.40672302 -1.4743347 0.5969391 -1.9830017 0.5706482c-1.7232666 -0.14219666 -2.939209 -3.6027985 -3.6478577 -10.381836c-1.0278015 -5.0342255 -1.9475708 -10.096069 -2.7592468 -15.185532c-0.8111572 -5.142563 -1.7850647 -10.177322 -2.921753 -15.104263c-0.6261902 -4.2310867 -1.3319092 -6.9693146 -2.1171875 -8.214661c-0.7852783 -1.2453537 -2.3534546 -2.8917923 -4.704529 -4.939308c-3.6843567 -2.3847427 -6.197418 -3.3208923 -7.539154 -2.8084335c-0.07614136 0.028930664 -0.1503601 0.06147766 -0.22265625 0.09762573z" fill-rule="evenodd"/><path fill="#f3f3f3" d="m225.35593 75.824135c-0.48086548 0 -0.9668884 0.042381287 -1.4580383 0.1271286c-3.0602417 0.48744202 -5.9209137 2.599701 -8.582016 6.3367615c-3.2598267 5.240013 -5.2556458 10.480019 -5.987442 15.720032c-0.6985321 5.240013 0.06652832 9.484833 2.2951813 12.734451c1.6755066 1.7391434 3.43013 2.6087112 5.2638702 2.6087112c1.0786743 0 2.184723 -0.30088806 3.3181458 -0.9026642c3.093521 -1.6248169 7.184952 -5.930565 12.274277 -12.917236c2.2619324 -3.9807816 3.3928833 -7.271019 3.3928833 -9.87072c0 -2.6403122 -1.1309509 -6.0930405 -3.3928833 -10.358162c-2.2339935 -2.318863 -4.608658 -3.478302 -7.1239777 -3.478302zm-23.861084 83.87592c-0.74842834 0 -1.347168 0.27418518 -1.7962341 0.82255554c0 1.0155182 -0.26611328 2.9652863 -0.7983246 5.8493195c-0.49894714 2.8434143 -0.74842834 6.133667 -0.74842834 9.870712c-1.0311737 2.5184479 -1.6465454 5.3415527 -1.8461304 8.46933c-0.19958496 3.0871277 -0.29937744 5.138443 -0.29937744 6.153961c0 1.0155029 -0.56547546 3.9604797 -1.6964417 8.8349c-1.1309662 4.833832 -2.0956116 10.622208 -2.8939362 17.365158c-2.0623474 12.226685 -4.0581665 23.70192 -5.9874573 34.42566c-1.9292908 10.72374 -4.1246796 21.203781 -6.5861816 31.440079c-1.4303436 4.7525635 -3.6257477 10.926849 -6.586197 18.522827c-2.9604645 7.636627 -5.920929 14.948242 -8.881393 21.934937c-2.9604645 6.986664 -5.471863 12.104828 -7.53421 15.354431c-2.228653 4.4682617 -5.2390137 7.941284 -9.031067 10.419098c-2.7338104 1.8156433 -5.0613403 2.7234497 -6.9825745 2.7234497c-0.7437134 0 -1.4265442 -0.13601685 -2.0485077 -0.40808105c-2.661087 0 -4.706787 -1.5029297 -6.1371307 -4.50885c-1.4303284 -3.0059204 -2.1455078 -6.377411 -2.1455078 -10.114441c0 -1.990387 -0.29936218 -3.676117 -0.89811707 -5.0572205c-0.6320038 -1.381073 -1.347168 -2.4372253 -2.1455002 -3.168396c-0.83158875 -0.73114014 -1.76297 -1.0967407 -2.7941437 -1.0967407c-2.0290756 0 -3.0935135 2.0513306 -3.193306 6.153961c-0.13304901 4.102661 0.4656906 8.8958435 1.7962341 14.379578c1.3305435 5.524353 3.2265701 10.642487 5.68808 15.354462c4.9230194 6.255493 10.893829 9.444214 17.91246 9.566071c0.15330505 0.0026245117 0.30599976 0.003967285 0.45811462 0.003967285c6.844818 0 12.47998 -2.682251 16.905487 -8.046783c1.8294983 -1.7466736 3.958374 -4.6916504 6.386612 -8.8349c2.4615173 -4.102661 4.873123 -8.530243 7.234848 -13.282837c2.3617096 -4.7119446 4.041519 -8.570892 5.0394287 -11.576752c2.860672 -7.7178345 4.7566986 -13.465607 5.68808 -17.243286c0.9313812 -3.737091 1.496872 -6.093048 1.6964417 -7.067932c0.19958496 -1.7466736 0.9646454 -4.7525635 2.2951965 -9.0177c1.3305359 -4.224518 2.6111908 -8.509949 3.8419495 -12.856293c1.2307434 -4.3869934 1.9459229 -7.33197 2.1454926 -8.83493c0.19958496 -1.7466431 0.79833984 -4.8540955 1.7962494 -9.322327c1.0311584 -4.50885 1.9625397 -8.65213 2.7941437 -12.429794c0.5987396 -3.4933624 1.4136963 -7.9209595 2.44487 -13.282822c1.0311737 -5.3618774 2.0457153 -10.90654 3.0436249 -16.634003c1.0311737 -5.7274475 1.8461304 -10.906525 2.44487 -15.537231c0.6320038 -4.630707 0.9480133 -7.6975555 0.9480133 -9.200485c1.0311737 -9.22081 1.6964417 -15.943466 1.9958191 -20.167953c0.29937744 -4.2651367 0.19958496 -7.3928833 -0.29937744 -9.3832855c-0.49894714 -1.990387 -1.5800171 -3.9807892 -3.2431946 -5.971176c-0.99790955 -1.2592316 -2.16214 -2.254425 -3.492691 -2.9855804c-1.3305359 -0.77178955 -2.5612946 -1.279541 -3.6922607 -1.5232544c-0.2827301 -0.060943604 -0.5488434 -0.09140015 -0.7983246 -0.09140015z" fill-rule="evenodd"/><path fill="#65aaff" d="m192.17586 91.00439l0 0c0 -13.254829 10.745163 -24.0 24.0 -24.0l0 0c6.3651886 0 12.469681 2.5285645 16.970566 7.029442c4.5008698 4.5008698 7.029434 10.60537 7.029434 16.970558l0 0c0 13.254837 -10.745163 24.0 -24.0 24.0l0 0c-13.254837 0 -24.0 -10.745163 -24.0 -24.0z" fill-rule="evenodd"/><path fill="#65aaff" d="m242.90027 240.68767l88.15747 0l0 34.61418l-88.15747 0z" fill-rule="evenodd"/></g></svg>