<svg version="1.1" viewBox="0.0 0.0 789.4619422572179 293.01049868766404" fill="none" stroke="none" stroke-linecap="square" stroke-miterlimit="10" xmlns:xlink="http://www.w3.org/1999/xlink" xmlns="http://www.w3.org/2000/svg"><clipPath id="p.0"><path d="m0 0l789.4619 0l0 293.0105l-789.4619 0l0 -293.0105z" clip-rule="nonzero"/></clipPath><g clip-path="url(#p.0)"><path fill="#000000" fill-opacity="0.0" d="m0 0l789.4619 0l0 293.0105l-789.4619 0z" fill-rule="evenodd"/><path fill="#cccccc" d="m77.61286 38.88951l0 0c0 -13.432266 10.889 -24.32127 24.321266 -24.32127l599.074 0c6.4504395 0 12.636597 2.5624123 17.197754 7.123535c4.561096 4.561123 7.123535 10.747334 7.123535 17.197735l0 215.23148c0 13.432266 -10.889038 24.321274 -24.32129 24.321274l-599.074 0c-13.432266 0 -24.321266 -10.889008 -24.321266 -24.321274z" fill-rule="evenodd"/><path stroke="#434343" stroke-width="3.0" stroke-linejoin="round" stroke-linecap="butt" d="m77.61286 38.88951l0 0c0 -13.432266 10.889 -24.32127 24.321266 -24.32127l599.074 0c6.4504395 0 12.636597 2.5624123 17.197754 7.123535c4.561096 4.561123 7.123535 10.747334 7.123535 17.197735l0 215.23148c0 13.432266 -10.889038 24.321274 -24.32129 24.321274l-599.074 0c-13.432266 0 -24.321266 -10.889008 -24.321266 -24.321274z" fill-rule="evenodd"/><path fill="#65aaff" d="m18.604986 71.99629l0 0c0 -6.384018 5.17527 -11.559284 11.559286 -11.559284l154.26726 0c3.0657043 0 6.0058594 1.2178497 8.173645 3.3856354c2.1677856 2.1677895 3.3856354 5.107937 3.3856354 8.173649l0 46.235764c0 6.384018 -5.1752625 11.55928 -11.55928 11.55928l-154.26726 0l0 0c-6.384016 0 -11.559286 -5.1752625 -11.559286 -11.55928z" fill-rule="evenodd"/><path stroke="#434343" stroke-width="2.0" stroke-linejoin="round" stroke-linecap="butt" d="m18.604986 71.99629l0 0c0 -6.384018 5.17527 -11.559284 11.559286 -11.559284l154.26726 0c3.0657043 0 6.0058594 1.2178497 8.173645 3.3856354c2.1677856 2.1677895 3.3856354 5.107937 3.3856354 8.173649l0 46.235764c0 6.384018 -5.1752625 11.55928 -11.55928 11.55928l-154.26726 0l0 0c-6.384016 0 -11.559286 -5.1752625 -11.559286 -11.55928z" fill-rule="evenodd"/><path fill="#000000" d="m71.81821 86.20605q0 -1.296875 0.375 -2.265625q0.390625 -0.96875 1.015625 -1.609375q0.640625 -0.640625 1.46875 -0.96875q0.828125 -0.328125 1.671875 -0.328125q2.015625 0 3.140625 1.25q1.140625 1.25 1.140625 3.734375q0 0.1875 -0.015625 0.421875q0 0.234375 -0.03125 0.421875l-6.421875 0q0.09375 1.171875 0.828125 1.8125q0.734375 0.640625 2.125 0.640625q0.828125 0 1.5 -0.140625q0.6875 -0.15625 1.078125 -0.328125l0.296875 1.859375q-0.1875 0.078125 -0.515625 0.1875q-0.3125 0.109375 -0.734375 0.1875q-0.421875 0.078125 -0.90625 0.140625q-0.484375 0.0625 -1.0 0.0625q-1.28125 0 -2.234375 -0.375q-0.953125 -0.390625 -1.5625 -1.078125q-0.609375 -0.6875 -0.921875 -1.609375q-0.296875 -0.921875 -0.296875 -2.015625zm6.546875 -1.015625q0 -0.46875 -0.125 -0.875q-0.125 -0.421875 -0.390625 -0.734375q-0.25 -0.3125 -0.609375 -0.484375q-0.359375 -0.171875 -0.859375 -0.171875q-0.53125 0 -0.921875 0.203125q-0.390625 0.1875 -0.671875 0.5q-0.265625 0.3125 -0.421875 0.734375q-0.140625 0.40625 -0.1875 0.828125l4.1875 0zm8.152725 -0.71875l2.078125 -3.1875l2.375 0l-3.21875 4.59375q1.015625 1.3125 1.9375 2.65625q0.921875 1.328125 1.515625 2.5l-2.4375 0q-0.171875 -0.359375 -0.453125 -0.8125q-0.265625 -0.453125 -0.578125 -0.9375q-0.296875 -0.5 -0.640625 -0.984375q-0.328125 -0.5 -0.640625 -0.921875q-0.65625 0.84375 -1.28125 1.859375q-0.625 1.015625 -1.03125 1.796875l-2.3125 0q0.265625 -0.5625 0.65625 -1.1875q0.40625 -0.640625 0.84375 -1.296875q0.453125 -0.671875 0.921875 -1.328125q0.484375 -0.671875 0.953125 -1.265625l-3.234375 -4.671875l2.484375 0l2.0625 3.1875zm6.259781 -5.765625l2.25 -0.375l0 2.953125l3.46875 0l0 1.875l-3.46875 0l0 3.96875q0 1.1875 0.375 1.6875q0.375 0.5 1.265625 0.5q0.625 0 1.09375 -0.125q0.484375 -0.140625 0.765625 -0.25l0.359375 1.796875q-0.390625 0.171875 -1.03125 0.34375q-0.625 0.171875 -1.484375 0.171875q-1.046875 0 -1.75 -0.265625q-0.6875 -0.28125 -1.109375 -0.8125q-0.40625 -0.546875 -0.578125 -1.296875q-0.15625 -0.75 -0.15625 -1.71875l0 -8.453125zm7.19281 7.5q0 -1.296875 0.375 -2.265625q0.390625 -0.96875 1.015625 -1.609375q0.640625 -0.640625 1.46875 -0.96875q0.828125 -0.328125 1.671875 -0.328125q2.015625 0 3.140625 1.25q1.140625 1.25 1.140625 3.734375q0 0.1875 -0.015625 0.421875q0 0.234375 -0.03125 0.421875l-6.421875 0q0.09375 1.171875 0.828125 1.8125q0.734375 0.640625 2.125 0.640625q0.828125 0 1.5 -0.140625q0.6875 -0.15625 1.078125 -0.328125l0.296875 1.859375q-0.1875 0.078125 -0.515625 0.1875q-0.3125 0.109375 -0.734375 0.1875q-0.421875 0.078125 -0.90625 0.140625q-0.484375 0.0625 -1.0 0.0625q-1.28125 0 -2.234375 -0.375q-0.953125 -0.390625 -1.5625 -1.078125q-0.609375 -0.6875 -0.921875 -1.609375q-0.296875 -0.921875 -0.296875 -2.015625zm6.546875 -1.015625q0 -0.46875 -0.125 -0.875q-0.125 -0.421875 -0.390625 -0.734375q-0.25 -0.3125 -0.609375 -0.484375q-0.359375 -0.171875 -0.859375 -0.171875q-0.53125 0 -0.921875 0.203125q-0.390625 0.1875 -0.671875 0.5q-0.265625 0.3125 -0.421875 0.734375q-0.140625 0.40625 -0.1875 0.828125l4.1875 0zm10.215225 -1.875q-0.28125 -0.09375 -0.78125 -0.1875q-0.484375 -0.109375 -1.140625 -0.109375q-0.375 0 -0.796875 0.078125q-0.421875 0.0625 -0.59375 0.125l0 7.8125l-2.25 0l0 -9.296875q0.65625 -0.234375 1.625 -0.453125q0.984375 -0.21875 2.1875 -0.21875q0.21875 0 0.515625 0.03125q0.296875 0.03125 0.59375 0.078125q0.296875 0.046875 0.578125 0.109375q0.28125 0.0625 0.453125 0.125l-0.390625 1.90625zm1.9559631 -1.71875q0.65625 -0.1875 1.6875 -0.359375q1.046875 -0.171875 2.328125 -0.171875q1.1875 0 1.984375 0.328125q0.8125 0.328125 1.28125 0.921875q0.484375 0.578125 0.671875 1.421875q0.203125 0.828125 0.203125 1.8125l0 5.484375l-2.265625 0l0 -5.125q0 -0.78125 -0.109375 -1.328125q-0.09375 -0.5625 -0.328125 -0.90625q-0.234375 -0.34375 -0.640625 -0.5q-0.390625 -0.15625 -0.96875 -0.15625q-0.4375 0 -0.90625 0.0625q-0.453125 0.046875 -0.6875 0.078125l0 7.875l-2.25 0l0 -9.4375zm14.35141 7.859375q1.03125 0 1.578125 -0.125l0 -2.5q-0.1875 -0.046875 -0.546875 -0.09375q-0.34375 -0.0625 -0.78125 -0.0625q-0.375 0 -0.75 0.0625q-0.375 0.046875 -0.6875 0.203125q-0.3125 0.140625 -0.5 0.40625q-0.1875 0.265625 -0.1875 0.6875q0 0.796875 0.5 1.109375q0.515625 0.3125 1.375 0.3125zm-0.1875 -8.421875q1.109375 0 1.875 0.28125q0.765625 0.28125 1.21875 0.78125q0.46875 0.5 0.65625 1.21875q0.203125 0.71875 0.203125 1.578125l0 5.921875q-0.53125 0.109375 -1.59375 0.265625q-1.046875 0.15625 -2.359375 0.15625q-0.875 0 -1.609375 -0.171875q-0.734375 -0.15625 -1.25 -0.53125q-0.5 -0.375 -0.796875 -0.96875q-0.28125 -0.609375 -0.28125 -1.484375q0 -0.828125 0.328125 -1.40625q0.328125 -0.578125 0.875 -0.9375q0.5625 -0.375 1.296875 -0.53125q0.75 -0.15625 1.546875 -0.15625q0.375 0 0.78125 0.046875q0.40625 0.046875 0.875 0.15625l0 -0.375q0 -0.390625 -0.09375 -0.734375q-0.09375 -0.359375 -0.328125 -0.625q-0.234375 -0.28125 -0.625 -0.421875q-0.375 -0.15625 -0.953125 -0.15625q-0.78125 0 -1.4375 0.109375q-0.640625 0.109375 -1.0625 0.265625l-0.28125 -1.828125q0.4375 -0.15625 1.25 -0.296875q0.828125 -0.15625 1.765625 -0.15625zm10.103058 10.1875q-1.0 -0.015625 -1.671875 -0.21875q-0.65625 -0.21875 -1.046875 -0.59375q-0.390625 -0.375 -0.546875 -0.9375q-0.15625 -0.578125 -0.15625 -1.3125l0 -11.234375l2.25 -0.375l0 11.1875q0 0.40625 0.0625 0.6875q0.0625 0.28125 0.234375 0.484375q0.171875 0.1875 0.453125 0.296875q0.296875 0.09375 0.75 0.15625l-0.328125 1.859375z" fill-rule="nonzero"/><path fill="#000000" d="m82.40495 111.40917q0.90625 0 1.3125 -0.203125q0.40625 -0.21875 0.40625 -0.75q0 -0.484375 -0.4375 -0.796875q-0.4375 -0.3125 -1.4375 -0.6875q-0.625 -0.234375 -1.140625 -0.484375q-0.5 -0.25 -0.875 -0.578125q-0.375 -0.34375 -0.59375 -0.8125q-0.21875 -0.484375 -0.21875 -1.171875q0 -1.34375 0.984375 -2.109375q1.0 -0.78125 2.703125 -0.78125q0.84375 0 1.625 0.15625q0.796875 0.15625 1.1875 0.3125l-0.40625 1.828125q-0.375 -0.171875 -0.953125 -0.3125q-0.578125 -0.140625 -1.34375 -0.140625q-0.6875 0 -1.125 0.234375q-0.421875 0.234375 -0.421875 0.71875q0 0.25 0.078125 0.4375q0.078125 0.1875 0.28125 0.34375q0.21875 0.15625 0.546875 0.3125q0.34375 0.15625 0.828125 0.328125q0.796875 0.296875 1.359375 0.59375q0.5625 0.28125 0.921875 0.65625q0.359375 0.359375 0.53125 0.828125q0.171875 0.453125 0.171875 1.109375q0 1.40625 -1.046875 2.125q-1.03125 0.71875 -2.953125 0.71875q-1.28125 0 -2.078125 -0.21875q-0.78125 -0.21875 -1.09375 -0.34375l0.390625 -1.890625q0.5 0.203125 1.203125 0.390625q0.703125 0.1875 1.59375 0.1875zm14.916534 -3.265625q0 1.15625 -0.34375 2.109375q-0.328125 0.953125 -0.953125 1.625q-0.609375 0.671875 -1.484375 1.046875q-0.859375 0.375 -1.90625 0.375q-1.046875 0 -1.90625 -0.375q-0.859375 -0.375 -1.484375 -1.046875q-0.609375 -0.671875 -0.953125 -1.625q-0.34375 -0.953125 -0.34375 -2.109375q0 -1.15625 0.34375 -2.09375q0.34375 -0.9375 0.96875 -1.609375q0.625 -0.671875 1.484375 -1.03125q0.859375 -0.375 1.890625 -0.375q1.03125 0 1.890625 0.375q0.875 0.359375 1.484375 1.03125q0.625 0.671875 0.96875 1.609375q0.34375 0.9375 0.34375 2.09375zm-2.3125 0q0 -1.453125 -0.625 -2.296875q-0.625 -0.859375 -1.75 -0.859375q-1.125 0 -1.75 0.859375q-0.625 0.84375 -0.625 2.296875q0 1.46875 0.625 2.328125q0.625 0.859375 1.75 0.859375q1.125 0 1.75 -0.859375q0.625 -0.859375 0.625 -2.328125zm12.640808 4.59375q-0.65625 0.171875 -1.703125 0.34375q-1.03125 0.171875 -2.28125 0.171875q-1.1875 0 -1.984375 -0.328125q-0.78125 -0.34375 -1.265625 -0.9375q-0.46875 -0.59375 -0.671875 -1.421875q-0.203125 -0.828125 -0.203125 -1.828125l0 -5.453125l2.25 0l0 5.109375q0 1.5625 0.453125 2.234375q0.46875 0.671875 1.609375 0.671875q0.40625 0 0.859375 -0.03125q0.453125 -0.046875 0.6875 -0.09375l0 -7.890625l2.25 0l0 9.453125zm8.439102 -7.421875q-0.28125 -0.09375 -0.78125 -0.1875q-0.484375 -0.109375 -1.140625 -0.109375q-0.375 0 -0.796875 0.078125q-0.421875 0.0625 -0.59375 0.125l0 7.8125l-2.25 0l0 -9.296875q0.65625 -0.234375 1.625 -0.453125q0.984375 -0.21875 2.1875 -0.21875q0.21875 0 0.515625 0.03125q0.296875 0.03125 0.59375 0.078125q0.296875 0.046875 0.578125 0.109375q0.28125 0.0625 0.453125 0.125l-0.390625 1.90625zm1.4090881 2.84375q0 -1.078125 0.328125 -2.015625q0.34375 -0.9375 0.96875 -1.625q0.625 -0.703125 1.515625 -1.09375q0.90625 -0.390625 2.03125 -0.390625q1.375 0 2.609375 0.5l-0.484375 1.84375q-0.390625 -0.15625 -0.890625 -0.265625q-0.5 -0.125 -1.0625 -0.125q-1.3125 0 -2.015625 0.84375q-0.6875 0.828125 -0.6875 2.328125q0 1.453125 0.65625 2.3125q0.65625 0.84375 2.203125 0.84375q0.578125 0 1.140625 -0.109375q0.5625 -0.109375 0.96875 -0.28125l0.3125 1.859375q-0.375 0.1875 -1.125 0.34375q-0.75 0.15625 -1.5625 0.15625q-1.25 0 -2.171875 -0.375q-0.921875 -0.390625 -1.53125 -1.078125q-0.59375 -0.6875 -0.90625 -1.625q-0.296875 -0.9375 -0.296875 -2.046875zm8.805756 0.046875q0 -1.296875 0.375 -2.265625q0.390625 -0.96875 1.015625 -1.609375q0.640625 -0.640625 1.46875 -0.96875q0.828125 -0.328125 1.671875 -0.328125q2.015625 0 3.140625 1.25q1.140625 1.25 1.140625 3.734375q0 0.1875 -0.015625 0.421875q0 0.234375 -0.03125 0.421875l-6.421875 0q0.09375 1.171875 0.828125 1.8125q0.734375 0.640625 2.125 0.640625q0.828125 0 1.5 -0.140625q0.6875 -0.15625 1.078125 -0.328125l0.296875 1.859375q-0.1875 0.078125 -0.515625 0.1875q-0.3125 0.109375 -0.734375 0.1875q-0.421875 0.078125 -0.90625 0.140625q-0.484375 0.0625 -1.0 0.0625q-1.28125 0 -2.234375 -0.375q-0.953125 -0.390625 -1.5625 -1.078125q-0.609375 -0.6875 -0.921875 -1.609375q-0.296875 -0.921875 -0.296875 -2.015625zm6.546875 -1.015625q0 -0.46875 -0.125 -0.875q-0.125 -0.421875 -0.390625 -0.734375q-0.25 -0.3125 -0.609375 -0.484375q-0.359375 -0.171875 -0.859375 -0.171875q-0.53125 0 -0.921875 0.203125q-0.390625 0.1875 -0.671875 0.5q-0.265625 0.3125 -0.421875 0.734375q-0.140625 0.40625 -0.1875 0.828125l4.1875 0z" fill-rule="nonzero"/><path fill="#d9ead3" d="m226.43832 71.97267l0 0c0 -6.384018 5.1752625 -11.559284 11.55928 -11.559284l121.82631 0c3.0657043 0 6.0058594 1.2178497 8.173645 3.3856354c2.1677856 2.1677895 3.3856506 5.107937 3.3856506 8.173649l0 46.235756c0 6.384018 -5.1752625 11.559288 -11.559296 11.559288l-121.82631 0l0 0c-6.384018 0 -11.55928 -5.17527 -11.55928 -11.559288z" fill-rule="evenodd"/><path stroke="#434343" stroke-width="2.0" stroke-linejoin="round" stroke-linecap="butt" d="m226.43832 71.97267l0 0c0 -6.384018 5.1752625 -11.559284 11.55928 -11.559284l121.82631 0c3.0657043 0 6.0058594 1.2178497 8.173645 3.3856354c2.1677856 2.1677895 3.3856506 5.107937 3.3856506 8.173649l0 46.235756c0 6.384018 -5.1752625 11.559288 -11.559296 11.559288l-121.82631 0l0 0c-6.384018 0 -11.55928 -5.17527 -11.55928 -11.559288z" fill-rule="evenodd"/><path fill="#000000" d="m248.71251 100.43243q1.03125 0 1.578125 -0.125l0 -2.5q-0.1875 -0.046875 -0.546875 -0.09375q-0.34375 -0.0625 -0.78125 -0.0625q-0.375 0 -0.75 0.0625q-0.375 0.046875 -0.6875 0.203125q-0.3125 0.140625 -0.5 0.40625q-0.1875 0.265625 -0.1875 0.6875q0 0.796875 0.5 1.109375q0.515625 0.3125 1.375 0.3125zm-0.1875 -8.421875q1.109375 0 1.875 0.28125q0.765625 0.28125 1.21875 0.78125q0.46875 0.5 0.65625 1.21875q0.203125 0.71875 0.203125 1.578125l0 5.921875q-0.53125 0.109375 -1.59375 0.265625q-1.046875 0.15625 -2.359375 0.15625q-0.875 0 -1.609375 -0.171875q-0.734375 -0.15625 -1.25 -0.53125q-0.5 -0.375 -0.796875 -0.96875q-0.28125 -0.609375 -0.28125 -1.484375q0 -0.828125 0.328125 -1.40625q0.328125 -0.578125 0.875 -0.9375q0.5625 -0.375 1.296875 -0.53125q0.75 -0.15625 1.546875 -0.15625q0.375 0 0.78125 0.046875q0.40625 0.046875 0.875 0.15625l0 -0.375q0 -0.390625 -0.09375 -0.734375q-0.09375 -0.359375 -0.328125 -0.625q-0.234375 -0.28125 -0.625 -0.421875q-0.375 -0.15625 -0.953125 -0.15625q-0.78125 0 -1.4375 0.109375q-0.640625 0.109375 -1.0625 0.265625l-0.28125 -1.828125q0.4375 -0.15625 1.25 -0.296875q0.828125 -0.15625 1.765625 -0.15625zm14.712418 9.703125q-0.65625 0.171875 -1.703125 0.34375q-1.03125 0.171875 -2.28125 0.171875q-1.1875 0 -1.984375 -0.328125q-0.78125 -0.34375 -1.265625 -0.9375q-0.46873474 -0.59375 -0.67185974 -1.421875q-0.203125 -0.828125 -0.203125 -1.828125l0 -5.453125l2.2499847 0l0 5.109375q0 1.5625 0.453125 2.234375q0.46875 0.671875 1.609375 0.671875q0.40625 0 0.859375 -0.03125q0.453125 -0.046875 0.6875 -0.09375l0 -7.890625l2.25 0l0 9.453125zm4.6422424 -4.609375q0 1.484375 0.703125 2.34375q0.71875 0.84375 1.96875 0.84375q0.546875 0 0.921875 -0.046875q0.390625 -0.046875 0.625 -0.09375l0 -5.609375q-0.296875 -0.203125 -0.796875 -0.375q-0.484375 -0.171875 -1.046875 -0.171875q-1.234375 0 -1.8125 0.84375q-0.5625 0.828125 -0.5625 2.265625zm6.484375 4.609375q-0.671875 0.203125 -1.6875 0.375q-1.015625 0.171875 -2.140625 0.171875q-1.15625 0 -2.078125 -0.359375q-0.90625 -0.359375 -1.5625 -1.015625q-0.640625 -0.671875 -0.984375 -1.609375q-0.34375 -0.9375 -0.34375 -2.109375q0 -1.15625 0.28125 -2.09375q0.296875 -0.953125 0.859375 -1.625q0.5625 -0.671875 1.359375 -1.03125q0.8125 -0.375 1.859375 -0.375q0.703125 0 1.234375 0.171875q0.546875 0.171875 0.9375 0.375l0 -4.6875l2.265625 -0.375l0 14.1875zm5.15036 0.296875l-2.265625 0l0 -9.75l2.265625 0l0 9.75zm0.234375 -12.609375q0 0.625 -0.40625 1.0q-0.40625 0.375 -0.96875 0.375q-0.578125 0 -1.0 -0.375q-0.40625 -0.375 -0.40625 -1.0q0 -0.65625 0.40625 -1.03125q0.421875 -0.375 1.0 -0.375q0.5625 0 0.96875 0.375q0.40625 0.375 0.40625 1.03125zm11.461639 7.71875q0 1.15625 -0.34375 2.109375q-0.328125 0.953125 -0.953125 1.625q-0.609375 0.671875 -1.484375 1.046875q-0.859375 0.375 -1.90625 0.375q-1.046875 0 -1.90625 -0.375q-0.859375 -0.375 -1.484375 -1.046875q-0.609375 -0.671875 -0.953125 -1.625q-0.34375 -0.953125 -0.34375 -2.109375q0 -1.15625 0.34375 -2.09375q0.34375 -0.9375 0.96875 -1.609375q0.625 -0.671875 1.484375 -1.03125q0.859375 -0.375 1.890625 -0.375q1.03125 0 1.890625 0.375q0.875 0.359375 1.484375 1.03125q0.625 0.671875 0.96875 1.609375q0.34375 0.9375 0.34375 2.09375zm-2.3125 0q0 -1.453125 -0.625 -2.296875q-0.625 -0.859375 -1.75 -0.859375q-1.125 0 -1.75 0.859375q-0.625 0.84375 -0.625 2.296875q0 1.46875 0.625 2.328125q0.625 0.859375 1.75 0.859375q1.125 0 1.75 -0.859375q0.625 -0.859375 0.625 -2.328125zm11.425201 3.265625q0.90625 0 1.3125 -0.203125q0.40625 -0.21875 0.40625 -0.75q0 -0.484375 -0.4375 -0.796875q-0.4375 -0.3125 -1.4375 -0.6875q-0.625 -0.234375 -1.140625 -0.484375q-0.5 -0.25 -0.875 -0.578125q-0.375 -0.34375 -0.59375 -0.8125q-0.21875 -0.484375 -0.21875 -1.171875q0 -1.34375 0.984375 -2.109375q1.0 -0.78125 2.703125 -0.78125q0.84375 0 1.625 0.15625q0.796875 0.15625 1.1875 0.3125l-0.40625 1.828125q-0.375 -0.171875 -0.953125 -0.3125q-0.578125 -0.140625 -1.34375 -0.140625q-0.6875 0 -1.125 0.234375q-0.421875 0.234375 -0.421875 0.71875q0 0.25 0.078125 0.4375q0.078125 0.1875 0.28125 0.34375q0.21875 0.15625 0.546875 0.3125q0.34375 0.15625 0.828125 0.328125q0.796875 0.296875 1.359375 0.59375q0.5625 0.28125 0.921875 0.65625q0.359375 0.359375 0.53125 0.828125q0.171875 0.453125 0.171875 1.109375q0 1.40625 -1.046875 2.125q-1.03125 0.71875 -2.953125 0.71875q-1.28125 0 -2.078125 -0.21875q-0.78125 -0.21875 -1.09375 -0.34375l0.390625 -1.890625q0.5 0.203125 1.203125 0.390625q0.703125 0.1875 1.59375 0.1875zm14.916534 -3.265625q0 1.15625 -0.34375 2.109375q-0.328125 0.953125 -0.953125 1.625q-0.609375 0.671875 -1.484375 1.046875q-0.859375 0.375 -1.90625 0.375q-1.046875 0 -1.90625 -0.375q-0.859375 -0.375 -1.484375 -1.046875q-0.609375 -0.671875 -0.953125 -1.625q-0.34375 -0.953125 -0.34375 -2.109375q0 -1.15625 0.34375 -2.09375q0.34375 -0.9375 0.96875 -1.609375q0.625 -0.671875 1.484375 -1.03125q0.859375 -0.375 1.890625 -0.375q1.03125 0 1.890625 0.375q0.875 0.359375 1.484375 1.03125q0.625 0.671875 0.96875 1.609375q0.34375 0.9375 0.34375 2.09375zm-2.3125 0q0 -1.453125 -0.625 -2.296875q-0.625 -0.859375 -1.75 -0.859375q-1.125 0 -1.75 0.859375q-0.625 0.84375 -0.625 2.296875q0 1.46875 0.625 2.328125q0.625 0.859375 1.75 0.859375q1.125 0 1.75 -0.859375q0.625 -0.859375 0.625 -2.328125zm12.640808 4.59375q-0.65625 0.171875 -1.703125 0.34375q-1.03125 0.171875 -2.28125 0.171875q-1.1875 0 -1.984375 -0.328125q-0.78125 -0.34375 -1.265625 -0.9375q-0.46875 -0.59375 -0.671875 -1.421875q-0.203125 -0.828125 -0.203125 -1.828125l0 -5.453125l2.25 0l0 5.109375q0 1.5625 0.453125 2.234375q0.46875 0.671875 1.609375 0.671875q0.40625 0 0.859375 -0.03125q0.453125 -0.046875 0.6875 -0.09375l0 -7.890625l2.25 0l0 9.453125zm8.439117 -7.421875q-0.28125 -0.09375 -0.78125 -0.1875q-0.484375 -0.109375 -1.140625 -0.109375q-0.375 0 -0.796875 0.078125q-0.421875 0.0625 -0.59375 0.125l0 7.8125l-2.25 0l0 -9.296875q0.65625 -0.234375 1.625 -0.453125q0.984375 -0.21875 2.1875 -0.21875q0.21875 0 0.515625 0.03125q0.296875 0.03125 0.59375 0.078125q0.296875 0.046875 0.578125 0.109375q0.28125 0.0625 0.453125 0.125l-0.390625 1.90625zm1.4090881 2.84375q0 -1.078125 0.328125 -2.015625q0.34375 -0.9375 0.96875 -1.625q0.625 -0.703125 1.515625 -1.09375q0.90625 -0.390625 2.03125 -0.390625q1.375 0 2.609375 0.5l-0.484375 1.84375q-0.390625 -0.15625 -0.890625 -0.265625q-0.5 -0.125 -1.0625 -0.125q-1.3125 0 -2.015625 0.84375q-0.6875 0.828125 -0.6875 2.328125q0 1.453125 0.65625 2.3125q0.65625 0.84375 2.203125 0.84375q0.578125 0 1.140625 -0.109375q0.5625 -0.109375 0.96875 -0.28125l0.3125 1.859375q-0.375 0.1875 -1.125 0.34375q-0.75 0.15625 -1.5625 0.15625q-1.25 0 -2.171875 -0.375q-0.921875 -0.390625 -1.53125 -1.078125q-0.59375 -0.6875 -0.90625 -1.625q-0.296875 -0.9375 -0.296875 -2.046875zm8.805756 0.046875q0 -1.296875 0.375 -2.265625q0.390625 -0.96875 1.015625 -1.609375q0.640625 -0.640625 1.46875 -0.96875q0.828125 -0.328125 1.671875 -0.328125q2.015625 0 3.140625 1.25q1.140625 1.25 1.140625 3.734375q0 0.1875 -0.015625 0.421875q0 0.234375 -0.03125 0.421875l-6.421875 0q0.09375 1.171875 0.828125 1.8125q0.734375 0.640625 2.125 0.640625q0.828125 0 1.5 -0.140625q0.6875 -0.15625 1.078125 -0.328125l0.296875 1.859375q-0.1875 0.078125 -0.515625 0.1875q-0.3125 0.109375 -0.734375 0.1875q-0.421875 0.078125 -0.90625 0.140625q-0.484375 0.0625 -1.0 0.0625q-1.28125 0 -2.234375 -0.375q-0.953125 -0.390625 -1.5625 -1.078125q-0.609375 -0.6875 -0.921875 -1.609375q-0.296875 -0.921875 -0.296875 -2.015625zm6.546875 -1.015625q0 -0.46875 -0.125 -0.875q-0.125 -0.421875 -0.390625 -0.734375q-0.25 -0.3125 -0.609375 -0.484375q-0.359375 -0.171875 -0.859375 -0.171875q-0.53125 0 -0.921875 0.203125q-0.390625 0.1875 -0.671875 0.5q-0.265625 0.3125 -0.421875 0.734375q-0.140625 0.40625 -0.1875 0.828125l4.1875 0z" fill-rule="nonzero"/><path fill="#000000" fill-opacity="0.0" d="m195.99081 95.114174c7.6118927 0 11.416687 0.01574707 15.22377 0.03149414c3.8070984 0.01574707 7.6164703 0.03149414 15.232925 0.03149414" fill-rule="evenodd"/><path stroke="#434343" stroke-width="1.0" stroke-linejoin="round" stroke-linecap="butt" d="m195.99081 95.114174c7.6118927 0 11.416687 0.01574707 15.22377 0.03149414c1.9035492 0.007873535 3.807663 0.01574707 6.187958 0.021652222l3.0449677 0.005455017" fill-rule="evenodd"/><path fill="#434343" stroke="#434343" stroke-width="1.0" stroke-linecap="butt" d="m220.4463 96.8245l4.5393066 -1.648407l-4.5368958 -1.6550522z" fill-rule="evenodd"/><path fill="#efefef" d="m401.83423 72.004166l0 0c0 -6.384018 5.175293 -11.559284 11.559296 -11.559284l79.59009 0c3.0657349 0 6.0058594 1.2178497 8.173645 3.3856354c2.1677856 2.1677895 3.3856506 5.107937 3.3856506 8.173649l0 46.235764c0 6.384018 -5.1752625 11.55928 -11.559296 11.55928l-79.59009 0c-6.3840027 0 -11.559296 -5.1752625 -11.559296 -11.55928z" fill-rule="evenodd"/><path stroke="#434343" stroke-width="2.0" stroke-linejoin="round" stroke-linecap="butt" d="m401.83423 72.004166l0 0c0 -6.384018 5.175293 -11.559284 11.559296 -11.559284l79.59009 0c3.0657349 0 6.0058594 1.2178497 8.173645 3.3856354c2.1677856 2.1677895 3.3856506 5.107937 3.3856506 8.173649l0 46.235764c0 6.384018 -5.1752625 11.55928 -11.559296 11.55928l-79.59009 0c-6.3840027 0 -11.559296 -5.1752625 -11.559296 -11.55928z" fill-rule="evenodd"/><path fill="#000000" d="m445.00232 100.417046q0.90625 0 1.3125 -0.203125q0.40625 -0.21875 0.40625 -0.75q0 -0.484375 -0.4375 -0.796875q-0.4375 -0.3125 -1.4375 -0.6875q-0.625 -0.234375 -1.140625 -0.484375q-0.5 -0.25 -0.875 -0.578125q-0.375 -0.34375 -0.59375 -0.8125q-0.21875 -0.484375 -0.21875 -1.171875q0 -1.34375 0.984375 -2.109375q1.0 -0.78125 2.703125 -0.78125q0.84375 0 1.625 0.15625q0.796875 0.15625 1.1875 0.3125l-0.40625 1.828125q-0.375 -0.171875 -0.953125 -0.3125q-0.578125 -0.140625 -1.34375 -0.140625q-0.6875 0 -1.125 0.234375q-0.421875 0.234375 -0.421875 0.71875q0 0.25 0.078125 0.4375q0.078125 0.1875 0.28125 0.34375q0.21875 0.15625 0.546875 0.3125q0.34375 0.15625 0.828125 0.328125q0.796875 0.296875 1.359375 0.59375q0.5625 0.28125 0.921875 0.65625q0.359375 0.359375 0.53125 0.828125q0.171875 0.453125 0.171875 1.109375q0 1.40625 -1.046875 2.125q-1.03125 0.71875 -2.953125 0.71875q-1.28125 0 -2.078125 -0.21875q-0.78125 -0.21875 -1.09375 -0.34375l0.390625 -1.890625q0.5 0.203125 1.203125 0.390625q0.703125 0.1875 1.59375 0.1875zm5.9790344 -10.703125l2.25 -0.375l0 2.953125l3.46875 0l0 1.875l-3.46875 0l0 3.96875q0 1.1875 0.375 1.6875q0.375 0.5 1.265625 0.5q0.625 0 1.09375 -0.125q0.484375 -0.140625 0.765625 -0.25l0.359375 1.796875q-0.390625 0.171875 -1.03125 0.34375q-0.625 0.171875 -1.484375 0.171875q-1.046875 0 -1.75 -0.265625q-0.6875 -0.28125 -1.109375 -0.8125q-0.40625 -0.546875 -0.578125 -1.296875q-0.15625 -0.75 -0.15625 -1.71875l0 -8.453125zm7.7983093 0l2.25 -0.375l0 2.953125l3.46875 0l0 1.875l-3.46875 0l0 3.96875q0 1.1875 0.375 1.6875q0.375 0.5 1.265625 0.5q0.625 0 1.09375 -0.125q0.484375 -0.140625 0.765625 -0.25l0.359375 1.796875q-0.390625 0.171875 -1.03125 0.34375q-0.625 0.171875 -1.484375 0.171875q-1.046875 0 -1.75 -0.265625q-0.6875 -0.28125 -1.109375 -0.8125q-0.40625 -0.546875 -0.578125 -1.296875q-0.15625 -0.75 -0.15625 -1.71875l0 -8.453125z" fill-rule="nonzero"/><path fill="#000000" fill-opacity="0.0" d="m371.3832 95.09055c7.612793 0 11.418518 0.01574707 15.225586 0.03149414c3.8070984 0.01574707 7.61557 0.03149414 15.23111 0.03149414" fill-rule="evenodd"/><path stroke="#000000" stroke-width="1.0" stroke-linejoin="round" stroke-linecap="butt" d="m371.3832 95.09055c7.6128235 0 11.418518 0.01574707 15.225586 0.03149414c1.9035339 0.007873535 3.8074646 0.01574707 6.187378 0.021652222l3.0437317 0.0054473877" fill-rule="evenodd"/><path fill="#000000" stroke="#000000" stroke-width="1.0" stroke-linecap="butt" d="m395.83868 96.80088l4.5393066 -1.648407l-4.5368958 -1.6550598z" fill-rule="evenodd"/><path fill="#efefef" d="m534.9917 72.03567l0 0c0 -6.384018 5.175293 -11.559288 11.559326 -11.559288l79.59009 0c3.0656738 0 6.0058594 1.2178497 8.173645 3.3856354c2.1677856 2.1677856 3.38562 5.107933 3.38562 8.173653l0 46.235756c0 6.384018 -5.175232 11.55928 -11.559265 11.55928l-79.59009 0c-6.384033 0 -11.559326 -5.1752625 -11.559326 -11.55928z" fill-rule="evenodd"/><path stroke="#434343" stroke-width="2.0" stroke-linejoin="round" stroke-linecap="butt" d="m534.9917 72.03567l0 0c0 -6.384018 5.175293 -11.559288 11.559326 -11.559288l79.59009 0c3.0656738 0 6.0058594 1.2178497 8.173645 3.3856354c2.1677856 2.1677856 3.38562 5.107933 3.38562 8.173653l0 46.235756c0 6.384018 -5.175232 11.55928 -11.559265 11.55928l-79.59009 0c-6.384033 0 -11.559326 -5.1752625 -11.559326 -11.55928z" fill-rule="evenodd"/><path fill="#000000" d="m551.1223 89.840416l2.09375 -0.34375l0 2.734375l3.21875 0l0 1.75l-3.21875 0l0 3.6875q0 1.09375 0.34375 1.5625q0.34375 0.46875 1.1875 0.46875q0.5625 0 1.0 -0.125q0.453125 -0.125 0.703125 -0.21875l0.34375 1.65625q-0.359375 0.15625 -0.953125 0.3125q-0.578125 0.171875 -1.375 0.171875q-0.96875 0 -1.625 -0.25q-0.65625 -0.265625 -1.03125 -0.75q-0.375 -0.5 -0.53125 -1.203125q-0.15625 -0.703125 -0.15625 -1.609375l0 -7.84375zm12.508728 4.28125q-0.265625 -0.09375 -0.734375 -0.1875q-0.453125 -0.09375 -1.046875 -0.09375q-0.359375 0 -0.75 0.078125q-0.375 0.0625 -0.53125 0.109375l0 7.265625l-2.109375 0l0 -8.625q0.609375 -0.234375 1.515625 -0.421875q0.921875 -0.203125 2.03125 -0.203125q0.203125 0 0.46875 0.03125q0.28125 0.015625 0.5625 0.0625q0.28125 0.046875 0.53125 0.109375q0.265625 0.046875 0.421875 0.109375l-0.359375 1.765625zm4.9988403 5.703125q0.984375 0 1.484375 -0.109375l0 -2.328125q-0.171875 -0.046875 -0.515625 -0.09375q-0.328125 -0.0625 -0.71875 -0.0625q-0.34375 0 -0.703125 0.0625q-0.359375 0.046875 -0.640625 0.1875q-0.28125 0.140625 -0.453125 0.390625q-0.171875 0.25 -0.171875 0.625q0 0.75 0.453125 1.046875q0.46875 0.28125 1.265625 0.28125zm-0.171875 -7.8125q1.046875 0 1.75 0.265625q0.71875 0.25 1.140625 0.71875q0.421875 0.46875 0.59375 1.140625q0.1875 0.65625 0.1875 1.453125l0 5.5q-0.484375 0.09375 -1.46875 0.234375q-0.96875 0.15625 -2.203125 0.15625q-0.8125 0 -1.484375 -0.15625q-0.671875 -0.15625 -1.15625 -0.5q-0.46875 -0.34375 -0.75 -0.890625q-0.265625 -0.5625 -0.265625 -1.375q0 -0.78125 0.296875 -1.3125q0.3125 -0.546875 0.828125 -0.875q0.53125 -0.34375 1.203125 -0.484375q0.6875 -0.15625 1.4375 -0.15625q0.34375 0 0.71875 0.046875q0.390625 0.046875 0.828125 0.140625l0 -0.34375q0 -0.359375 -0.09375 -0.6875q-0.078125 -0.328125 -0.296875 -0.578125q-0.21875 -0.265625 -0.578125 -0.390625q-0.359375 -0.140625 -0.890625 -0.140625q-0.734375 0 -1.34375 0.109375q-0.59375 0.09375 -0.984375 0.234375l-0.25 -1.703125q0.390625 -0.140625 1.15625 -0.265625q0.765625 -0.140625 1.625 -0.140625zm6.237549 0.515625q0.609375 -0.171875 1.578125 -0.328125q0.96875 -0.15625 2.15625 -0.15625q1.109375 0 1.84375 0.3125q0.75 0.296875 1.1875 0.84375q0.453125 0.53125 0.625 1.3125q0.1875 0.765625 0.1875 1.6875l0 5.09375l-2.09375 0l0 -4.765625q0 -0.734375 -0.09375 -1.234375q-0.09375 -0.515625 -0.3125 -0.828125q-0.21875 -0.328125 -0.59375 -0.46875q-0.375 -0.15625 -0.90625 -0.15625q-0.40625 0 -0.84375 0.0625q-0.421875 0.046875 -0.625 0.078125l0 7.3125l-2.109375 0l0 -8.765625zm12.418091 7.265625q0.828125 0 1.203125 -0.203125q0.390625 -0.203125 0.390625 -0.6875q0 -0.453125 -0.40625 -0.75q-0.40625 -0.296875 -1.34375 -0.640625q-0.578125 -0.203125 -1.0625 -0.4375q-0.46875 -0.234375 -0.8125 -0.546875q-0.34375 -0.3125 -0.546875 -0.75q-0.203125 -0.4375 -0.203125 -1.09375q0 -1.234375 0.921875 -1.953125q0.921875 -0.71875 2.5 -0.71875q0.796875 0 1.515625 0.140625q0.734375 0.140625 1.09375 0.28125l-0.375 1.703125q-0.34375 -0.15625 -0.890625 -0.28125q-0.53125 -0.140625 -1.25 -0.140625q-0.640625 0 -1.046875 0.21875q-0.390625 0.21875 -0.390625 0.671875q0 0.21875 0.078125 0.40625q0.078125 0.171875 0.265625 0.3125q0.203125 0.140625 0.515625 0.296875q0.3125 0.140625 0.75 0.296875q0.75 0.28125 1.265625 0.546875q0.53125 0.265625 0.859375 0.609375q0.34375 0.34375 0.5 0.78125q0.15625 0.421875 0.15625 1.03125q0 1.296875 -0.96875 1.96875q-0.953125 0.65625 -2.734375 0.65625q-1.203125 0 -1.9375 -0.203125q-0.71875 -0.1875 -1.015625 -0.3125l0.359375 -1.75q0.46875 0.1875 1.109375 0.375q0.65625 0.171875 1.5 0.171875zm8.793945 1.671875q-0.9375 -0.015625 -1.546875 -0.203125q-0.609375 -0.1875 -0.984375 -0.546875q-0.359375 -0.359375 -0.515625 -0.890625q-0.140625 -0.53125 -0.140625 -1.203125l0 -10.421875l2.09375 -0.359375l0 10.390625q0 0.375 0.0625 0.640625q0.0625 0.25 0.21875 0.4375q0.15625 0.1875 0.421875 0.28125q0.265625 0.09375 0.6875 0.140625l-0.296875 1.734375zm5.1776733 -1.640625q0.984375 0 1.484375 -0.109375l0 -2.328125q-0.171875 -0.046875 -0.515625 -0.09375q-0.328125 -0.0625 -0.71875 -0.0625q-0.34375 0 -0.703125 0.0625q-0.359375 0.046875 -0.640625 0.1875q-0.28125 0.140625 -0.453125 0.390625q-0.171875 0.25 -0.171875 0.625q0 0.75 0.453125 1.046875q0.46875 0.28125 1.265625 0.28125zm-0.171875 -7.8125q1.046875 0 1.75 0.265625q0.71875 0.25 1.140625 0.71875q0.421875 0.46875 0.59375 1.140625q0.1875 0.65625 0.1875 1.453125l0 5.5q-0.484375 0.09375 -1.46875 0.234375q-0.96875 0.15625 -2.203125 0.15625q-0.8125 0 -1.484375 -0.15625q-0.671875 -0.15625 -1.15625 -0.5q-0.46875 -0.34375 -0.75 -0.890625q-0.265625 -0.5625 -0.265625 -1.375q0 -0.78125 0.296875 -1.3125q0.3125 -0.546875 0.828125 -0.875q0.53125 -0.34375 1.203125 -0.484375q0.6875 -0.15625 1.4375 -0.15625q0.34375 0 0.71875 0.046875q0.390625 0.046875 0.828125 0.140625l0 -0.34375q0 -0.359375 -0.09375 -0.6875q-0.078125 -0.328125 -0.296875 -0.578125q-0.21875 -0.265625 -0.578125 -0.390625q-0.359375 -0.140625 -0.890625 -0.140625q-0.734375 0 -1.34375 0.109375q-0.59375 0.09375 -0.984375 0.234375l-0.25 -1.703125q0.390625 -0.140625 1.15625 -0.265625q0.765625 -0.140625 1.625 -0.140625zm6.143738 -2.171875l2.09375 -0.34375l0 2.734375l3.21875 0l0 1.75l-3.21875 0l0 3.6875q0 1.09375 0.34375 1.5625q0.34375 0.46875 1.1875 0.46875q0.5625 0 1.0 -0.125q0.453125 -0.125 0.703125 -0.21875l0.34375 1.65625q-0.359375 0.15625 -0.953125 0.3125q-0.578125 0.171875 -1.375 0.171875q-0.96875 0 -1.625 -0.25q-0.65625 -0.265625 -1.03125 -0.75q-0.375 -0.5 -0.53125 -1.203125q-0.15625 -0.703125 -0.15625 -1.609375l0 -7.84375zm6.680908 6.96875q0 -1.203125 0.359375 -2.09375q0.359375 -0.90625 0.9375 -1.5q0.59375 -0.609375 1.359375 -0.90625q0.765625 -0.296875 1.5625 -0.296875q1.859375 0 2.90625 1.15625q1.0625 1.15625 1.0625 3.46875q0 0.171875 -0.015625 0.390625q0 0.203125 -0.03125 0.390625l-5.96875 0q0.078125 1.078125 0.765625 1.6875q0.6875 0.59375 1.984375 0.59375q0.765625 0 1.390625 -0.140625q0.640625 -0.140625 1.0 -0.296875l0.28125 1.71875q-0.171875 0.09375 -0.484375 0.1875q-0.296875 0.09375 -0.6875 0.171875q-0.390625 0.078125 -0.84375 0.125q-0.453125 0.046875 -0.90625 0.046875q-1.203125 0 -2.09375 -0.34375q-0.875 -0.359375 -1.453125 -0.984375q-0.5625 -0.640625 -0.84375 -1.5q-0.28125 -0.859375 -0.28125 -1.875zm6.078125 -0.9375q0 -0.4375 -0.125 -0.828125q-0.109375 -0.390625 -0.34375 -0.671875q-0.234375 -0.28125 -0.578125 -0.4375q-0.328125 -0.171875 -0.796875 -0.171875q-0.484375 0 -0.859375 0.1875q-0.359375 0.171875 -0.609375 0.46875q-0.25 0.296875 -0.390625 0.671875q-0.140625 0.375 -0.1875 0.78125l3.890625 0z" fill-rule="nonzero"/><path fill="#000000" fill-opacity="0.0" d="m453.18857 129.79921c0 8.413452 0.01574707 12.61824 0.03149414 16.826904c0.01574707 4.208664 0.03149414 8.421188 0.03149414 16.842392" fill-rule="evenodd"/><path stroke="#000000" stroke-width="1.0" stroke-linejoin="round" stroke-linecap="butt" d="m453.18857 129.79921c0 8.413452 0.01574707 12.61824 0.03149414 16.826904c0.007873535 2.1043396 0.01574707 4.2096252 0.02166748 6.8414917l0.0064697266 4.0009003" fill-rule="evenodd"/><path fill="#000000" stroke="#000000" stroke-width="1.0" stroke-linecap="butt" d="m451.59647 157.46944l1.6542664 4.5371704l1.6492004 -4.539032z" fill-rule="evenodd"/><path fill="#000000" fill-opacity="0.0" d="m504.5429 95.12205c7.6121826 0 11.417297 0.01574707 15.224365 0.03149414c3.807129 0.01574707 7.61615 0.03149414 15.2323 0.03149414" fill-rule="evenodd"/><path stroke="#000000" stroke-width="1.0" stroke-linejoin="round" stroke-linecap="butt" d="m504.5429 95.12205c7.6121826 0 11.417297 0.01574707 15.224426 0.03149414c1.9035034 0.007873535 3.8075562 0.01574707 6.187744 0.021652222l3.0444946 0.005455017" fill-rule="evenodd"/><path fill="#000000" stroke="#000000" stroke-width="1.0" stroke-linecap="butt" d="m528.99835 96.832375l4.5393066 -1.648407l-4.536865 -1.6550522z" fill-rule="evenodd"/><path fill="#d9d2e9" d="m668.14923 71.97267l0 0c0 -6.384018 5.175232 -11.559284 11.559265 -11.559284l79.59009 0c3.0657349 0 6.0058594 1.2178497 8.173645 3.3856354c2.1677856 2.1677895 3.38562 5.107937 3.38562 8.173649l0 46.235756c0 6.384018 -5.175232 11.559288 -11.559265 11.559288l-79.59009 0c-6.384033 0 -11.559265 -5.17527 -11.559265 -11.559288z" fill-rule="evenodd"/><path stroke="#434343" stroke-width="2.0" stroke-linejoin="round" stroke-linecap="butt" d="m668.14923 71.97267l0 0c0 -6.384018 5.175232 -11.559284 11.559265 -11.559284l79.59009 0c3.0657349 0 6.0058594 1.2178497 8.173645 3.3856354c2.1677856 2.1677895 3.38562 5.107937 3.38562 8.173649l0 46.235756c0 6.384018 -5.175232 11.559288 -11.559265 11.559288l-79.59009 0c-6.384033 0 -11.559265 -5.17527 -11.559265 -11.559288z" fill-rule="evenodd"/><path fill="#000000" d="m683.07733 96.31118q0 1.171875 0.5625 1.84375q0.5625 0.671875 1.53125 0.671875q0.4375 0 0.734375 -0.03125q0.296875 -0.046875 0.484375 -0.09375l0 -4.390625q-0.234375 -0.171875 -0.625 -0.296875q-0.375 -0.140625 -0.828125 -0.140625q-0.953125 0 -1.40625 0.65625q-0.453125 0.65625 -0.453125 1.78125zm5.09375 3.625q-0.53125 0.15625 -1.328125 0.28125q-0.796875 0.140625 -1.671875 0.140625q-0.921875 0 -1.640625 -0.265625q-0.71875 -0.28125 -1.21875 -0.796875q-0.5 -0.53125 -0.78125 -1.265625q-0.265625 -0.75 -0.265625 -1.671875q0 -0.90625 0.21875 -1.640625q0.234375 -0.75 0.671875 -1.265625q0.4375 -0.53125 1.0625 -0.8125q0.640625 -0.296875 1.46875 -0.296875q0.546875 0 0.96875 0.140625q0.4375 0.125 0.734375 0.28125l0 -3.671875l1.78125 -0.296875l0 11.140625zm1.8289185 -3.5625q0 -1.015625 0.296875 -1.765625q0.296875 -0.765625 0.796875 -1.265625q0.5 -0.515625 1.140625 -0.765625q0.65625 -0.265625 1.328125 -0.265625q1.578125 0 2.46875 0.984375q0.890625 0.984375 0.890625 2.9375q0 0.140625 -0.015625 0.328125q0 0.1875 -0.015625 0.328125l-5.0625 0q0.078125 0.921875 0.65625 1.4375q0.578125 0.5 1.671875 0.5q0.65625 0 1.1875 -0.109375q0.53125 -0.125 0.84375 -0.265625l0.234375 1.453125q-0.15625 0.078125 -0.40625 0.15625q-0.25 0.078125 -0.59375 0.140625q-0.328125 0.078125 -0.703125 0.109375q-0.375 0.046875 -0.78125 0.046875q-1.0 0 -1.75 -0.296875q-0.75 -0.296875 -1.234375 -0.828125q-0.484375 -0.546875 -0.71875 -1.265625q-0.234375 -0.734375 -0.234375 -1.59375zm5.140625 -0.796875q0 -0.359375 -0.109375 -0.6875q-0.09375 -0.328125 -0.296875 -0.5625q-0.1875 -0.25 -0.484375 -0.390625q-0.28125 -0.140625 -0.671875 -0.140625q-0.40625 0 -0.71875 0.15625q-0.3125 0.15625 -0.53125 0.40625q-0.203125 0.25 -0.328125 0.578125q-0.109375 0.3125 -0.15625 0.640625l3.296875 0zm5.5718994 3.3125q0.703125 0 1.015625 -0.15625q0.328125 -0.171875 0.328125 -0.578125q0 -0.390625 -0.34375 -0.640625q-0.34375 -0.25 -1.125 -0.53125q-0.484375 -0.1875 -0.890625 -0.375q-0.40625 -0.203125 -0.703125 -0.46875q-0.28125 -0.265625 -0.453125 -0.640625q-0.171875 -0.375 -0.171875 -0.90625q0 -1.0625 0.765625 -1.671875q0.78125 -0.609375 2.125 -0.609375q0.671875 0 1.28125 0.125q0.625 0.125 0.921875 0.25l-0.3125 1.4375q-0.296875 -0.140625 -0.75 -0.25q-0.453125 -0.109375 -1.0625 -0.109375q-0.53125 0 -0.875 0.1875q-0.328125 0.1875 -0.328125 0.5625q0 0.1875 0.0625 0.34375q0.0625 0.140625 0.21875 0.265625q0.171875 0.125 0.421875 0.25q0.265625 0.125 0.65625 0.25q0.625 0.234375 1.0625 0.46875q0.4375 0.21875 0.71875 0.515625q0.296875 0.28125 0.421875 0.65625q0.140625 0.359375 0.140625 0.875q0 1.09375 -0.8125 1.65625q-0.8125 0.5625 -2.328125 0.5625q-1.015625 0 -1.625 -0.171875q-0.609375 -0.15625 -0.859375 -0.265625l0.296875 -1.484375q0.40625 0.171875 0.953125 0.3125q0.546875 0.140625 1.25 0.140625zm4.697937 -8.40625l1.765625 -0.296875l0 2.3125l2.734375 0l0 1.484375l-2.734375 0l0 3.125q0 0.921875 0.296875 1.328125q0.296875 0.390625 1.0 0.390625q0.484375 0 0.84375 -0.09375q0.375 -0.109375 0.609375 -0.203125l0.28125 1.40625q-0.296875 0.125 -0.796875 0.265625q-0.5 0.140625 -1.171875 0.140625q-0.828125 0 -1.375 -0.21875q-0.546875 -0.21875 -0.875 -0.625q-0.328125 -0.421875 -0.453125 -1.015625q-0.125 -0.59375 -0.125 -1.359375l0 -6.640625zm8.001343 9.6875l-1.78125 0l0 -7.671875l1.78125 0l0 7.671875zm0.1875 -9.90625q0 0.5 -0.328125 0.796875q-0.3125 0.28125 -0.765625 0.28125q-0.453125 0 -0.78125 -0.28125q-0.3125 -0.296875 -0.3125 -0.796875q0 -0.515625 0.3125 -0.796875q0.328125 -0.296875 0.78125 -0.296875q0.453125 0 0.765625 0.296875q0.328125 0.28125 0.328125 0.796875zm2.06073 2.484375q0.515625 -0.140625 1.328125 -0.265625q0.828125 -0.140625 1.828125 -0.140625q0.9375 0 1.5625 0.265625q0.640625 0.25 1.0 0.71875q0.375 0.453125 0.53125 1.109375q0.15625 0.65625 0.15625 1.421875l0 4.3125l-1.765625 0l0 -4.03125q0 -0.609375 -0.09375 -1.046875q-0.078125 -0.4375 -0.265625 -0.703125q-0.171875 -0.265625 -0.484375 -0.390625q-0.3125 -0.125 -0.78125 -0.125q-0.328125 0 -0.703125 0.046875q-0.359375 0.03125 -0.53125 0.0625l0 6.1875l-1.78125 0l0 -7.421875zm11.2771 6.171875q0.8125 0 1.25 -0.078125l0 -1.96875q-0.15625 -0.046875 -0.4375 -0.078125q-0.265625 -0.046875 -0.609375 -0.046875q-0.296875 0 -0.59375 0.046875q-0.296875 0.03125 -0.546875 0.15625q-0.234375 0.109375 -0.390625 0.328125q-0.140625 0.203125 -0.140625 0.53125q0 0.625 0.390625 0.875q0.40625 0.234375 1.078125 0.234375zm-0.15625 -6.609375q0.890625 0 1.484375 0.21875q0.609375 0.21875 0.96875 0.625q0.359375 0.390625 0.5 0.953125q0.15625 0.5625 0.15625 1.234375l0 4.65625q-0.40625 0.078125 -1.234375 0.203125q-0.828125 0.125 -1.875 0.125q-0.6875 0 -1.265625 -0.140625q-0.5625 -0.125 -0.96875 -0.40625q-0.390625 -0.296875 -0.625 -0.765625q-0.21875 -0.46875 -0.21875 -1.15625q0 -0.65625 0.25 -1.109375q0.25 -0.46875 0.6875 -0.75q0.453125 -0.28125 1.03125 -0.40625q0.578125 -0.125 1.203125 -0.125q0.296875 0 0.609375 0.046875q0.328125 0.03125 0.703125 0.109375l0 -0.296875q0 -0.296875 -0.078125 -0.578125q-0.078125 -0.28125 -0.265625 -0.484375q-0.171875 -0.21875 -0.484375 -0.328125q-0.296875 -0.125 -0.75 -0.125q-0.609375 0 -1.125 0.09375q-0.515625 0.078125 -0.84375 0.203125l-0.21875 -1.4375q0.34375 -0.125 0.984375 -0.234375q0.65625 -0.125 1.375 -0.125zm5.201416 -1.828125l1.765625 -0.296875l0 2.3125l2.734375 0l0 1.484375l-2.734375 0l0 3.125q0 0.921875 0.296875 1.328125q0.296875 0.390625 1.0 0.390625q0.484375 0 0.84375 -0.09375q0.375 -0.109375 0.609375 -0.203125l0.28125 1.40625q-0.296875 0.125 -0.796875 0.265625q-0.5 0.140625 -1.171875 0.140625q-0.828125 0 -1.375 -0.21875q-0.546875 -0.21875 -0.875 -0.625q-0.328125 -0.421875 -0.453125 -1.015625q-0.125 -0.59375 -0.125 -1.359375l0 -6.640625zm8.001343 9.6875l-1.78125 0l0 -7.671875l1.78125 0l0 7.671875zm0.1875 -9.90625q0 0.5 -0.328125 0.796875q-0.3125 0.28125 -0.765625 0.28125q-0.453125 0 -0.78125 -0.28125q-0.3125 -0.296875 -0.3125 -0.796875q0 -0.515625 0.3125 -0.796875q0.328125 -0.296875 0.78125 -0.296875q0.453125 0 0.765625 0.296875q0.328125 0.28125 0.328125 0.796875zm8.998291 6.0625q0 0.90625 -0.265625 1.65625q-0.265625 0.75 -0.75 1.28125q-0.484375 0.53125 -1.171875 0.828125q-0.671875 0.28125 -1.5 0.28125q-0.8125 0 -1.484375 -0.28125q-0.671875 -0.296875 -1.15625 -0.828125q-0.484375 -0.53125 -0.765625 -1.28125q-0.265625 -0.75 -0.265625 -1.65625q0 -0.90625 0.265625 -1.640625q0.28125 -0.75 0.765625 -1.265625q0.5 -0.53125 1.171875 -0.8125q0.671875 -0.296875 1.46875 -0.296875q0.8125 0 1.484375 0.296875q0.6875 0.28125 1.171875 0.8125q0.484375 0.515625 0.75 1.265625q0.28125 0.734375 0.28125 1.640625zm-1.8125 0q0 -1.140625 -0.5 -1.796875q-0.484375 -0.671875 -1.375 -0.671875q-0.875 0 -1.375 0.671875q-0.484375 0.65625 -0.484375 1.796875q0 1.15625 0.484375 1.84375q0.5 0.671875 1.375 0.671875q0.890625 0 1.375 -0.671875q0.5 -0.6875 0.5 -1.84375zm3.6394653 -3.578125q0.515625 -0.140625 1.328125 -0.265625q0.828125 -0.140625 1.828125 -0.140625q0.9375 0 1.5625 0.265625q0.640625 0.25 1.0 0.71875q0.375 0.453125 0.53125 1.109375q0.15625 0.65625 0.15625 1.421875l0 4.3125l-1.765625 0l0 -4.03125q0 -0.609375 -0.09375 -1.046875q-0.078125 -0.4375 -0.265625 -0.703125q-0.171875 -0.265625 -0.484375 -0.390625q-0.3125 -0.125 -0.78125 -0.125q-0.328125 0 -0.703125 0.046875q-0.359375 0.03125 -0.53125 0.0625l0 6.1875l-1.78125 0l0 -7.421875z" fill-rule="nonzero"/><path fill="#efefef" d="m401.83423 175.01204l0 0c0 -6.384018 5.175293 -11.55928 11.559296 -11.55928l79.59009 0c3.0657349 0 6.0058594 1.2178497 8.173645 3.3856354c2.1677856 2.1677856 3.3856506 5.1079407 3.3856506 8.173645l0 46.235764c0 6.384018 -5.1752625 11.55928 -11.559296 11.55928l-79.59009 0c-6.3840027 0 -11.559296 -5.1752625 -11.559296 -11.55928z" fill-rule="evenodd"/><path stroke="#434343" stroke-width="2.0" stroke-linejoin="round" stroke-linecap="butt" d="m401.83423 175.01204l0 0c0 -6.384018 5.175293 -11.55928 11.559296 -11.55928l79.59009 0c3.0657349 0 6.0058594 1.2178497 8.173645 3.3856354c2.1677856 2.1677856 3.3856506 5.1079407 3.3856506 8.173645l0 46.235764c0 6.384018 -5.1752625 11.55928 -11.559296 11.55928l-79.59009 0c-6.3840027 0 -11.559296 -5.1752625 -11.559296 -11.55928z" fill-rule="evenodd"/><path fill="#000000" d="m419.0701 203.42491q0.90625 0 1.3125 -0.203125q0.40625 -0.21875 0.40625 -0.75q0 -0.484375 -0.4375 -0.796875q-0.4375 -0.3125 -1.4375 -0.6875q-0.625 -0.234375 -1.140625 -0.484375q-0.5 -0.25 -0.875 -0.578125q-0.375 -0.34375 -0.59375 -0.8125q-0.21875 -0.484375 -0.21875 -1.171875q0 -1.34375 0.984375 -2.109375q1.0 -0.78125 2.703125 -0.78125q0.84375 0 1.625 0.15625q0.796875 0.15625 1.1875 0.3125l-0.40625 1.828125q-0.375 -0.171875 -0.953125 -0.3125q-0.578125 -0.140625 -1.34375 -0.140625q-0.6875 0 -1.125 0.234375q-0.421875 0.234375 -0.421875 0.71875q0 0.25 0.078125 0.4375q0.078125 0.1875 0.28125 0.34375q0.21875 0.15625 0.546875 0.3125q0.34375 0.15625 0.828125 0.328125q0.796875 0.296875 1.359375 0.59375q0.5625 0.28125 0.921875 0.65625q0.359375 0.359375 0.53125 0.828125q0.171875 0.453125 0.171875 1.109375q0 1.40625 -1.046875 2.125q-1.03125 0.71875 -2.953125 0.71875q-1.28125 0 -2.078125 -0.21875q-0.78125 -0.21875 -1.09375 -0.34375l0.390625 -1.890625q0.5 0.203125 1.203125 0.390625q0.703125 0.1875 1.59375 0.1875zm14.088409 1.328125q-0.65625 0.171875 -1.703125 0.34375q-1.03125 0.171875 -2.28125 0.171875q-1.1875 0 -1.984375 -0.328125q-0.78125 -0.34375 -1.265625 -0.9375q-0.46875 -0.59375 -0.671875 -1.421875q-0.203125 -0.828125 -0.203125 -1.828125l0 -5.453125l2.25 0l0 5.109375q0 1.5625 0.453125 2.234375q0.46875 0.671875 1.609375 0.671875q0.40625 0 0.859375 -0.03125q0.453125 -0.046875 0.6875 -0.09375l0 -7.890625l2.25 0l0 9.453125zm9.345367 -4.609375q0 -1.4375 -0.578125 -2.265625q-0.5625 -0.84375 -1.78125 -0.84375q-0.5625 0 -1.0625 0.171875q-0.484375 0.15625 -0.796875 0.359375l0 5.625q0.25 0.046875 0.625 0.09375q0.390625 0.046875 0.9375 0.046875q1.25 0 1.953125 -0.84375q0.703125 -0.859375 0.703125 -2.34375zm2.3125 0.03125q0 1.1875 -0.34375 2.125q-0.34375 0.9375 -0.984375 1.609375q-0.640625 0.671875 -1.5625 1.03125q-0.90625 0.359375 -2.0625 0.359375q-1.125 0 -2.140625 -0.171875q-1.015625 -0.171875 -1.6875 -0.375l0 -13.8125l2.25 -0.375l0 5.0625q0.390625 -0.203125 0.953125 -0.375q0.578125 -0.171875 1.265625 -0.171875q1.03125 0 1.84375 0.375q0.8125 0.359375 1.34375 1.03125q0.546875 0.671875 0.828125 1.625q0.296875 0.9375 0.296875 2.0625zm2.228485 -7.453125l2.25 -0.375l0 2.953125l3.46875 0l0 1.875l-3.46875 0l0 3.96875q0 1.1875 0.375 1.6875q0.375 0.5 1.265625 0.5q0.625 0 1.09375 -0.125q0.484375 -0.140625 0.765625 -0.25l0.359375 1.796875q-0.390625 0.171875 -1.03125 0.34375q-0.625 0.171875 -1.484375 0.171875q-1.046875 0 -1.75 -0.265625q-0.6875 -0.28125 -1.109375 -0.8125q-0.40625 -0.546875 -0.578125 -1.296875q-0.15625 -0.75 -0.15625 -1.71875l0 -8.453125zm10.188934 12.328125l-2.265625 0l0 -9.75l2.265625 0l0 9.75zm0.234375 -12.609375q0 0.625 -0.40625 1.0q-0.40625 0.375 -0.96875 0.375q-0.578125 0 -1.0 -0.375q-0.40625 -0.375 -0.40625 -1.0q0 -0.65625 0.40625 -1.03125q0.421875 -0.375 1.0 -0.375q0.5625 0 0.96875 0.375q0.40625 0.375 0.40625 1.03125zm2.5241394 0.28125l2.25 -0.375l0 2.953125l3.46875 0l0 1.875l-3.46875 0l0 3.96875q0 1.1875 0.375 1.6875q0.375 0.5 1.265625 0.5q0.625 0 1.09375 -0.125q0.484375 -0.140625 0.765625 -0.25l0.359375 1.796875q-0.390625 0.171875 -1.03125 0.34375q-0.625 0.171875 -1.484375 0.171875q-1.046875 0 -1.75 -0.265625q-0.6875 -0.28125 -1.109375 -0.8125q-0.40625 -0.546875 -0.578125 -1.296875q-0.15625 -0.75 -0.15625 -1.71875l0 -8.453125zm11.298309 12.515625q-1.0 -0.015625 -1.671875 -0.21875q-0.65625 -0.21875 -1.046875 -0.59375q-0.390625 -0.375 -0.546875 -0.9375q-0.15625 -0.578125 -0.15625 -1.3125l0 -11.234375l2.25 -0.375l0 11.1875q0 0.40625 0.0625 0.6875q0.0625 0.28125 0.234375 0.484375q0.171875 0.1875 0.453125 0.296875q0.296875 0.09375 0.75 0.15625l-0.328125 1.859375zm1.6033936 -5.015625q0 -1.296875 0.375 -2.265625q0.390625 -0.96875 1.015625 -1.609375q0.640625 -0.640625 1.46875 -0.96875q0.828125 -0.328125 1.671875 -0.328125q2.015625 0 3.140625 1.25q1.140625 1.25 1.140625 3.734375q0 0.1875 -0.015625 0.421875q0 0.234375 -0.03125 0.421875l-6.421875 0q0.09375 1.171875 0.828125 1.8125q0.734375 0.640625 2.125 0.640625q0.828125 0 1.5 -0.140625q0.6875 -0.15625 1.078125 -0.328125l0.296875 1.859375q-0.1875 0.078125 -0.515625 0.1875q-0.3125 0.109375 -0.734375 0.1875q-0.421875 0.078125 -0.90625 0.140625q-0.484375 0.0625 -1.0 0.0625q-1.28125 0 -2.234375 -0.375q-0.953125 -0.390625 -1.5625 -1.078125q-0.609375 -0.6875 -0.921875 -1.609375q-0.296875 -0.921875 -0.296875 -2.015625zm6.546875 -1.015625q0 -0.46875 -0.125 -0.875q-0.125 -0.421875 -0.390625 -0.734375q-0.25 -0.3125 -0.609375 -0.484375q-0.359375 -0.171875 -0.859375 -0.171875q-0.53125 0 -0.921875 0.203125q-0.390625 0.1875 -0.671875 0.5q-0.265625 0.3125 -0.421875 0.734375q-0.140625 0.40625 -0.1875 0.828125l4.1875 0zm7.0902405 4.21875q0.90625 0 1.3125 -0.203125q0.40625 -0.21875 0.40625 -0.75q0 -0.484375 -0.4375 -0.796875q-0.4375 -0.3125 -1.4375 -0.6875q-0.625 -0.234375 -1.140625 -0.484375q-0.5 -0.25 -0.875 -0.578125q-0.375 -0.34375 -0.59375 -0.8125q-0.21875 -0.484375 -0.21875 -1.171875q0 -1.34375 0.984375 -2.109375q1.0 -0.78125 2.703125 -0.78125q0.84375 0 1.625 0.15625q0.796875 0.15625 1.1875 0.3125l-0.40625 1.828125q-0.375 -0.171875 -0.953125 -0.3125q-0.578125 -0.140625 -1.34375 -0.140625q-0.6875 0 -1.125 0.234375q-0.421875 0.234375 -0.421875 0.71875q0 0.25 0.078125 0.4375q0.078125 0.1875 0.28125 0.34375q0.21875 0.15625 0.546875 0.3125q0.34375 0.15625 0.828125 0.328125q0.796875 0.296875 1.359375 0.59375q0.5625 0.28125 0.921875 0.65625q0.359375 0.359375 0.53125 0.828125q0.171875 0.453125 0.171875 1.109375q0 1.40625 -1.046875 2.125q-1.03125 0.71875 -2.953125 0.71875q-1.28125 0 -2.078125 -0.21875q-0.78125 -0.21875 -1.09375 -0.34375l0.390625 -1.890625q0.5 0.203125 1.203125 0.390625q0.703125 0.1875 1.59375 0.1875z" fill-rule="nonzero"/><path fill="#d9d2e9" d="m668.14923 175.01204l0 0c0 -6.384018 5.175232 -11.55928 11.559265 -11.55928l79.59009 0c3.0657349 0 6.0058594 1.2178497 8.173645 3.3856354c2.1677856 2.1677856 3.38562 5.1079407 3.38562 8.173645l0 46.235764c0 6.384018 -5.175232 11.55928 -11.559265 11.55928l-79.59009 0c-6.384033 0 -11.559265 -5.1752625 -11.559265 -11.55928z" fill-rule="evenodd"/><path stroke="#434343" stroke-width="2.0" stroke-linejoin="round" stroke-linecap="butt" d="m668.14923 175.01204l0 0c0 -6.384018 5.175232 -11.55928 11.559265 -11.55928l79.59009 0c3.0657349 0 6.0058594 1.2178497 8.173645 3.3856354c2.1677856 2.1677856 3.38562 5.1079407 3.38562 8.173645l0 46.235764c0 6.384018 -5.175232 11.55928 -11.559265 11.55928l-79.59009 0c-6.384033 0 -11.559265 -5.1752625 -11.559265 -11.55928z" fill-rule="evenodd"/><path fill="#000000" d="m683.07733 199.35054q0 1.171875 0.5625 1.84375q0.5625 0.671875 1.53125 0.671875q0.4375 0 0.734375 -0.03125q0.296875 -0.046875 0.484375 -0.09375l0 -4.390625q-0.234375 -0.171875 -0.625 -0.296875q-0.375 -0.140625 -0.828125 -0.140625q-0.953125 0 -1.40625 0.65625q-0.453125 0.65625 -0.453125 1.78125zm5.09375 3.625q-0.53125 0.15625 -1.328125 0.28125q-0.796875 0.140625 -1.671875 0.140625q-0.921875 0 -1.640625 -0.265625q-0.71875 -0.28125 -1.21875 -0.796875q-0.5 -0.53125 -0.78125 -1.265625q-0.265625 -0.75 -0.265625 -1.671875q0 -0.90625 0.21875 -1.640625q0.234375 -0.75 0.671875 -1.265625q0.4375 -0.53125 1.0625 -0.8125q0.640625 -0.296875 1.46875 -0.296875q0.546875 0 0.96875 0.140625q0.4375 0.125 0.734375 0.28125l0 -3.671875l1.78125 -0.296875l0 11.140625zm1.8289185 -3.5625q0 -1.015625 0.296875 -1.765625q0.296875 -0.765625 0.796875 -1.265625q0.5 -0.515625 1.140625 -0.765625q0.65625 -0.265625 1.328125 -0.265625q1.578125 0 2.46875 0.984375q0.890625 0.984375 0.890625 2.9375q0 0.140625 -0.015625 0.328125q0 0.1875 -0.015625 0.328125l-5.0625 0q0.078125 0.921875 0.65625 1.4375q0.578125 0.5 1.671875 0.5q0.65625 0 1.1875 -0.109375q0.53125 -0.125 0.84375 -0.265625l0.234375 1.453125q-0.15625 0.078125 -0.40625 0.15625q-0.25 0.078125 -0.59375 0.140625q-0.328125 0.078125 -0.703125 0.109375q-0.375 0.046875 -0.78125 0.046875q-1.0 0 -1.75 -0.296875q-0.75 -0.296875 -1.234375 -0.828125q-0.484375 -0.546875 -0.71875 -1.265625q-0.234375 -0.734375 -0.234375 -1.59375zm5.140625 -0.796875q0 -0.359375 -0.109375 -0.6875q-0.09375 -0.328125 -0.296875 -0.5625q-0.1875 -0.25 -0.484375 -0.390625q-0.28125 -0.140625 -0.671875 -0.140625q-0.40625 0 -0.71875 0.15625q-0.3125 0.15625 -0.53125 0.40625q-0.203125 0.25 -0.328125 0.578125q-0.109375 0.3125 -0.15625 0.640625l3.296875 0zm5.5718994 3.3125q0.703125 0 1.015625 -0.15625q0.328125 -0.171875 0.328125 -0.578125q0 -0.390625 -0.34375 -0.640625q-0.34375 -0.25 -1.125 -0.53125q-0.484375 -0.1875 -0.890625 -0.375q-0.40625 -0.203125 -0.703125 -0.46875q-0.28125 -0.265625 -0.453125 -0.640625q-0.171875 -0.375 -0.171875 -0.90625q0 -1.0625 0.765625 -1.671875q0.78125 -0.609375 2.125 -0.609375q0.671875 0 1.28125 0.125q0.625 0.125 0.921875 0.25l-0.3125 1.4375q-0.296875 -0.140625 -0.75 -0.25q-0.453125 -0.109375 -1.0625 -0.109375q-0.53125 0 -0.875 0.1875q-0.328125 0.1875 -0.328125 0.5625q0 0.1875 0.0625 0.34375q0.0625 0.140625 0.21875 0.265625q0.171875 0.125 0.421875 0.25q0.265625 0.125 0.65625 0.25q0.625 0.234375 1.0625 0.46875q0.4375 0.21875 0.71875 0.515625q0.296875 0.28125 0.421875 0.65625q0.140625 0.359375 0.140625 0.875q0 1.09375 -0.8125 1.65625q-0.8125 0.5625 -2.328125 0.5625q-1.015625 0 -1.625 -0.171875q-0.609375 -0.15625 -0.859375 -0.265625l0.296875 -1.484375q0.40625 0.171875 0.953125 0.3125q0.546875 0.140625 1.25 0.140625zm4.697937 -8.40625l1.765625 -0.296875l0 2.3125l2.734375 0l0 1.484375l-2.734375 0l0 3.125q0 0.921875 0.296875 1.328125q0.296875 0.390625 1.0 0.390625q0.484375 0 0.84375 -0.09375q0.375 -0.109375 0.609375 -0.203125l0.28125 1.40625q-0.296875 0.125 -0.796875 0.265625q-0.5 0.140625 -1.171875 0.140625q-0.828125 0 -1.375 -0.21875q-0.546875 -0.21875 -0.875 -0.625q-0.328125 -0.421875 -0.453125 -1.015625q-0.125 -0.59375 -0.125 -1.359375l0 -6.640625zm8.001343 9.6875l-1.78125 0l0 -7.671875l1.78125 0l0 7.671875zm0.1875 -9.90625q0 0.5 -0.328125 0.796875q-0.3125 0.28125 -0.765625 0.28125q-0.453125 0 -0.78125 -0.28125q-0.3125 -0.296875 -0.3125 -0.796875q0 -0.515625 0.3125 -0.796875q0.328125 -0.296875 0.78125 -0.296875q0.453125 0 0.765625 0.296875q0.328125 0.28125 0.328125 0.796875zm2.06073 2.484375q0.515625 -0.140625 1.328125 -0.265625q0.828125 -0.140625 1.828125 -0.140625q0.9375 0 1.5625 0.265625q0.640625 0.25 1.0 0.71875q0.375 0.453125 0.53125 1.109375q0.15625 0.65625 0.15625 1.421875l0 4.3125l-1.765625 0l0 -4.03125q0 -0.609375 -0.09375 -1.046875q-0.078125 -0.4375 -0.265625 -0.703125q-0.171875 -0.265625 -0.484375 -0.390625q-0.3125 -0.125 -0.78125 -0.125q-0.328125 0 -0.703125 0.046875q-0.359375 0.03125 -0.53125 0.0625l0 6.1875l-1.78125 0l0 -7.421875zm11.2771 6.171875q0.8125 0 1.25 -0.078125l0 -1.96875q-0.15625 -0.046875 -0.4375 -0.078125q-0.265625 -0.046875 -0.609375 -0.046875q-0.296875 0 -0.59375 0.046875q-0.296875 0.03125 -0.546875 0.15625q-0.234375 0.109375 -0.390625 0.328125q-0.140625 0.203125 -0.140625 0.53125q0 0.625 0.390625 0.875q0.40625 0.234375 1.078125 0.234375zm-0.15625 -6.609375q0.890625 0 1.484375 0.21875q0.609375 0.21875 0.96875 0.625q0.359375 0.390625 0.5 0.953125q0.15625 0.5625 0.15625 1.234375l0 4.65625q-0.40625 0.078125 -1.234375 0.203125q-0.828125 0.125 -1.875 0.125q-0.6875 0 -1.265625 -0.140625q-0.5625 -0.125 -0.96875 -0.40625q-0.390625 -0.296875 -0.625 -0.765625q-0.21875 -0.46875 -0.21875 -1.15625q0 -0.65625 0.25 -1.109375q0.25 -0.46875 0.6875 -0.75q0.453125 -0.28125 1.03125 -0.40625q0.578125 -0.125 1.203125 -0.125q0.296875 0 0.609375 0.046875q0.328125 0.03125 0.703125 0.109375l0 -0.296875q0 -0.296875 -0.078125 -0.578125q-0.078125 -0.28125 -0.265625 -0.484375q-0.171875 -0.21875 -0.484375 -0.328125q-0.296875 -0.125 -0.75 -0.125q-0.609375 0 -1.125 0.09375q-0.515625 0.078125 -0.84375 0.203125l-0.21875 -1.4375q0.34375 -0.125 0.984375 -0.234375q0.65625 -0.125 1.375 -0.125zm5.201416 -1.828125l1.765625 -0.296875l0 2.3125l2.734375 0l0 1.484375l-2.734375 0l0 3.125q0 0.921875 0.296875 1.328125q0.296875 0.390625 1.0 0.390625q0.484375 0 0.84375 -0.09375q0.375 -0.109375 0.609375 -0.203125l0.28125 1.40625q-0.296875 0.125 -0.796875 0.265625q-0.5 0.140625 -1.171875 0.140625q-0.828125 0 -1.375 -0.21875q-0.546875 -0.21875 -0.875 -0.625q-0.328125 -0.421875 -0.453125 -1.015625q-0.125 -0.59375 -0.125 -1.359375l0 -6.640625zm8.001343 9.6875l-1.78125 0l0 -7.671875l1.78125 0l0 7.671875zm0.1875 -9.90625q0 0.5 -0.328125 0.796875q-0.3125 0.28125 -0.765625 0.28125q-0.453125 0 -0.78125 -0.28125q-0.3125 -0.296875 -0.3125 -0.796875q0 -0.515625 0.3125 -0.796875q0.328125 -0.296875 0.78125 -0.296875q0.453125 0 0.765625 0.296875q0.328125 0.28125 0.328125 0.796875zm8.998291 6.0625q0 0.90625 -0.265625 1.65625q-0.265625 0.75 -0.75 1.28125q-0.484375 0.53125 -1.171875 0.828125q-0.671875 0.28125 -1.5 0.28125q-0.8125 0 -1.484375 -0.28125q-0.671875 -0.296875 -1.15625 -0.828125q-0.484375 -0.53125 -0.765625 -1.28125q-0.265625 -0.75 -0.265625 -1.65625q0 -0.90625 0.265625 -1.640625q0.28125 -0.75 0.765625 -1.265625q0.5 -0.53125 1.171875 -0.8125q0.671875 -0.296875 1.46875 -0.296875q0.8125 0 1.484375 0.296875q0.6875 0.28125 1.171875 0.8125q0.484375 0.515625 0.75 1.265625q0.28125 0.734375 0.28125 1.640625zm-1.8125 0q0 -1.140625 -0.5 -1.796875q-0.484375 -0.671875 -1.375 -0.671875q-0.875 0 -1.375 0.671875q-0.484375 0.65625 -0.484375 1.796875q0 1.15625 0.484375 1.84375q0.5 0.671875 1.375 0.671875q0.890625 0 1.375 -0.671875q0.5 -0.6875 0.5 -1.84375zm3.6394653 -3.578125q0.515625 -0.140625 1.328125 -0.265625q0.828125 -0.140625 1.828125 -0.140625q0.9375 0 1.5625 0.265625q0.640625 0.25 1.0 0.71875q0.375 0.453125 0.53125 1.109375q0.15625 0.65625 0.15625 1.421875l0 4.3125l-1.765625 0l0 -4.03125q0 -0.609375 -0.09375 -1.046875q-0.078125 -0.4375 -0.265625 -0.703125q-0.171875 -0.265625 -0.484375 -0.390625q-0.3125 -0.125 -0.78125 -0.125q-0.328125 0 -0.703125 0.046875q-0.359375 0.03125 -0.53125 0.0625l0 6.1875l-1.78125 0l0 -7.421875z" fill-rule="nonzero"/><path fill="#000000" fill-opacity="0.0" d="m504.5429 198.12993c40.90143 0 61.350098 0.01574707 81.80286 0.03149414c20.452759 0.01574707 40.909607 0.03149414 81.819214 0.03149414" fill-rule="evenodd"/><path stroke="#000000" stroke-width="1.0" stroke-linejoin="round" stroke-linecap="butt" d="m504.5429 198.12993c40.90143 0 61.350098 0.01574707 81.80286 0.03149414c10.226379 0.007873535 20.453796 0.01574707 33.23828 0.021652222c6.392273 0.0029449463 13.423767 0.00541687 21.414062 0.0071258545l21.16681 0.0021209717" fill-rule="evenodd"/><path fill="#000000" stroke="#000000" stroke-width="1.0" stroke-linecap="butt" d="m662.1648 199.84406l4.538269 -1.6512909l-4.537964 -1.6521759z" fill-rule="evenodd"/><path fill="#000000" fill-opacity="0.0" d="m637.7004 95.15354c7.6121826 0 11.417297 -0.01574707 15.224365 -0.03149414c3.807129 -0.01574707 7.616211 -0.03149414 15.232361 -0.03149414" fill-rule="evenodd"/><path stroke="#000000" stroke-width="1.0" stroke-linejoin="round" stroke-linecap="butt" d="m637.7004 95.15354c7.6121826 0 11.417297 -0.01574707 15.224426 -0.03149414c1.9035034 -0.007873535 3.8075562 -0.01574707 6.187744 -0.021652222l3.0444946 -0.005455017" fill-rule="evenodd"/><path fill="#000000" stroke="#000000" stroke-width="1.0" stroke-linecap="butt" d="m662.15826 96.74667l4.5369263 -1.6550522l-4.5393066 -1.648407z" fill-rule="evenodd"/><path fill="#65aaff" d="m18.604986 175.03566l0 0c0 -6.384018 5.17527 -11.55928 11.559286 -11.55928l154.26726 0c3.0657043 0 6.0058594 1.2178497 8.173645 3.3856354c2.1677856 2.1677856 3.3856354 5.1079407 3.3856354 8.173645l0 46.235764c0 6.384018 -5.1752625 11.55928 -11.55928 11.55928l-154.26726 0l0 0c-6.384016 0 -11.559286 -5.1752625 -11.559286 -11.55928z" fill-rule="evenodd"/><path stroke="#434343" stroke-width="2.0" stroke-linejoin="round" stroke-linecap="butt" d="m18.604986 175.03566l0 0c0 -6.384018 5.17527 -11.55928 11.559286 -11.55928l154.26726 0c3.0657043 0 6.0058594 1.2178497 8.173645 3.3856354c2.1677856 2.1677856 3.3856354 5.1079407 3.3856354 8.173645l0 46.235764c0 6.384018 -5.1752625 11.55928 -11.55928 11.55928l-154.26726 0l0 0c-6.384016 0 -11.559286 -5.1752625 -11.559286 -11.55928z" fill-rule="evenodd"/><path fill="#000000" d="m71.81821 189.24542q0 -1.296875 0.375 -2.265625q0.390625 -0.96875 1.015625 -1.609375q0.640625 -0.640625 1.46875 -0.96875q0.828125 -0.328125 1.671875 -0.328125q2.015625 0 3.140625 1.25q1.140625 1.25 1.140625 3.734375q0 0.1875 -0.015625 0.421875q0 0.234375 -0.03125 0.421875l-6.421875 0q0.09375 1.171875 0.828125 1.8125q0.734375 0.640625 2.125 0.640625q0.828125 0 1.5 -0.140625q0.6875 -0.15625 1.078125 -0.328125l0.296875 1.859375q-0.1875 0.078125 -0.515625 0.1875q-0.3125 0.109375 -0.734375 0.1875q-0.421875 0.078125 -0.90625 0.140625q-0.484375 0.0625 -1.0 0.0625q-1.28125 0 -2.234375 -0.375q-0.953125 -0.390625 -1.5625 -1.078125q-0.609375 -0.6875 -0.921875 -1.609375q-0.296875 -0.921875 -0.296875 -2.015625zm6.546875 -1.015625q0 -0.46875 -0.125 -0.875q-0.125 -0.421875 -0.390625 -0.734375q-0.25 -0.3125 -0.609375 -0.484375q-0.359375 -0.171875 -0.859375 -0.171875q-0.53125 0 -0.921875 0.203125q-0.390625 0.1875 -0.671875 0.5q-0.265625 0.3125 -0.421875 0.734375q-0.140625 0.40625 -0.1875 0.828125l4.1875 0zm8.152725 -0.71875l2.078125 -3.1875l2.375 0l-3.21875 4.59375q1.015625 1.3125 1.9375 2.65625q0.921875 1.328125 1.515625 2.5l-2.4375 0q-0.171875 -0.359375 -0.453125 -0.8125q-0.265625 -0.453125 -0.578125 -0.9375q-0.296875 -0.5 -0.640625 -0.984375q-0.328125 -0.5 -0.640625 -0.921875q-0.65625 0.84375 -1.28125 1.859375q-0.625 1.015625 -1.03125 1.796875l-2.3125 0q0.265625 -0.5625 0.65625 -1.1875q0.40625 -0.640625 0.84375 -1.296875q0.453125 -0.671875 0.921875 -1.328125q0.484375 -0.671875 0.953125 -1.265625l-3.234375 -4.671875l2.484375 0l2.0625 3.1875zm6.259781 -5.765625l2.25 -0.375l0 2.953125l3.46875 0l0 1.875l-3.46875 0l0 3.96875q0 1.1875 0.375 1.6875q0.375 0.5 1.265625 0.5q0.625 0 1.09375 -0.125q0.484375 -0.140625 0.765625 -0.25l0.359375 1.796875q-0.390625 0.171875 -1.03125 0.34375q-0.625 0.171875 -1.484375 0.171875q-1.046875 0 -1.75 -0.265625q-0.6875 -0.28125 -1.109375 -0.8125q-0.40625 -0.546875 -0.578125 -1.296875q-0.15625 -0.75 -0.15625 -1.71875l0 -8.453125zm7.19281 7.5q0 -1.296875 0.375 -2.265625q0.390625 -0.96875 1.015625 -1.609375q0.640625 -0.640625 1.46875 -0.96875q0.828125 -0.328125 1.671875 -0.328125q2.015625 0 3.140625 1.25q1.140625 1.25 1.140625 3.734375q0 0.1875 -0.015625 0.421875q0 0.234375 -0.03125 0.421875l-6.421875 0q0.09375 1.171875 0.828125 1.8125q0.734375 0.640625 2.125 0.640625q0.828125 0 1.5 -0.140625q0.6875 -0.15625 1.078125 -0.328125l0.296875 1.859375q-0.1875 0.078125 -0.515625 0.1875q-0.3125 0.109375 -0.734375 0.1875q-0.421875 0.078125 -0.90625 0.140625q-0.484375 0.0625 -1.0 0.0625q-1.28125 0 -2.234375 -0.375q-0.953125 -0.390625 -1.5625 -1.078125q-0.609375 -0.6875 -0.921875 -1.609375q-0.296875 -0.921875 -0.296875 -2.015625zm6.546875 -1.015625q0 -0.46875 -0.125 -0.875q-0.125 -0.421875 -0.390625 -0.734375q-0.25 -0.3125 -0.609375 -0.484375q-0.359375 -0.171875 -0.859375 -0.171875q-0.53125 0 -0.921875 0.203125q-0.390625 0.1875 -0.671875 0.5q-0.265625 0.3125 -0.421875 0.734375q-0.140625 0.40625 -0.1875 0.828125l4.1875 0zm10.215225 -1.875q-0.28125 -0.09375 -0.78125 -0.1875q-0.484375 -0.109375 -1.140625 -0.109375q-0.375 0 -0.796875 0.078125q-0.421875 0.0625 -0.59375 0.125l0 7.8125l-2.25 0l0 -9.296875q0.65625 -0.234375 1.625 -0.453125q0.984375 -0.21875 2.1875 -0.21875q0.21875 0 0.515625 0.03125q0.296875 0.03125 0.59375 0.078125q0.296875 0.046875 0.578125 0.109375q0.28125 0.0625 0.453125 0.125l-0.390625 1.90625zm1.9559631 -1.71875q0.65625 -0.1875 1.6875 -0.359375q1.046875 -0.171875 2.328125 -0.171875q1.1875 0 1.984375 0.328125q0.8125 0.328125 1.28125 0.921875q0.484375 0.578125 0.671875 1.421875q0.203125 0.828125 0.203125 1.8125l0 5.484375l-2.265625 0l0 -5.125q0 -0.78125 -0.109375 -1.328125q-0.09375 -0.5625 -0.328125 -0.90625q-0.234375 -0.34375 -0.640625 -0.5q-0.390625 -0.15625 -0.96875 -0.15625q-0.4375 0 -0.90625 0.0625q-0.453125 0.046875 -0.6875 0.078125l0 7.875l-2.25 0l0 -9.4375zm14.35141 7.859375q1.03125 0 1.578125 -0.125l0 -2.5q-0.1875 -0.046875 -0.546875 -0.09375q-0.34375 -0.0625 -0.78125 -0.0625q-0.375 0 -0.75 0.0625q-0.375 0.046875 -0.6875 0.203125q-0.3125 0.140625 -0.5 0.40625q-0.1875 0.265625 -0.1875 0.6875q0 0.796875 0.5 1.109375q0.515625 0.3125 1.375 0.3125zm-0.1875 -8.421875q1.109375 0 1.875 0.28125q0.765625 0.28125 1.21875 0.78125q0.46875 0.5 0.65625 1.21875q0.203125 0.71875 0.203125 1.578125l0 5.921875q-0.53125 0.109375 -1.59375 0.265625q-1.046875 0.15625 -2.359375 0.15625q-0.875 0 -1.609375 -0.171875q-0.734375 -0.15625 -1.25 -0.53125q-0.5 -0.375 -0.796875 -0.96875q-0.28125 -0.609375 -0.28125 -1.484375q0 -0.828125 0.328125 -1.40625q0.328125 -0.578125 0.875 -0.9375q0.5625 -0.375 1.296875 -0.53125q0.75 -0.15625 1.546875 -0.15625q0.375 0 0.78125 0.046875q0.40625 0.046875 0.875 0.15625l0 -0.375q0 -0.390625 -0.09375 -0.734375q-0.09375 -0.359375 -0.328125 -0.625q-0.234375 -0.28125 -0.625 -0.421875q-0.375 -0.15625 -0.953125 -0.15625q-0.78125 0 -1.4375 0.109375q-0.640625 0.109375 -1.0625 0.265625l-0.28125 -1.828125q0.4375 -0.15625 1.25 -0.296875q0.828125 -0.15625 1.765625 -0.15625zm10.103058 10.1875q-1.0 -0.015625 -1.671875 -0.21875q-0.65625 -0.21875 -1.046875 -0.59375q-0.390625 -0.375 -0.546875 -0.9375q-0.15625 -0.578125 -0.15625 -1.3125l0 -11.234375l2.25 -0.375l0 11.1875q0 0.40625 0.0625 0.6875q0.0625 0.28125 0.234375 0.484375q0.171875 0.1875 0.453125 0.296875q0.296875 0.09375 0.75 0.15625l-0.328125 1.859375z" fill-rule="nonzero"/><path fill="#000000" d="m82.40495 214.44855q0.90625 0 1.3125 -0.203125q0.40625 -0.21875 0.40625 -0.75q0 -0.484375 -0.4375 -0.796875q-0.4375 -0.3125 -1.4375 -0.6875q-0.625 -0.234375 -1.140625 -0.484375q-0.5 -0.25 -0.875 -0.578125q-0.375 -0.34375 -0.59375 -0.8125q-0.21875 -0.484375 -0.21875 -1.171875q0 -1.34375 0.984375 -2.109375q1.0 -0.78125 2.703125 -0.78125q0.84375 0 1.625 0.15625q0.796875 0.15625 1.1875 0.3125l-0.40625 1.828125q-0.375 -0.171875 -0.953125 -0.3125q-0.578125 -0.140625 -1.34375 -0.140625q-0.6875 0 -1.125 0.234375q-0.421875 0.234375 -0.421875 0.71875q0 0.25 0.078125 0.4375q0.078125 0.1875 0.28125 0.34375q0.21875 0.15625 0.546875 0.3125q0.34375 0.15625 0.828125 0.328125q0.796875 0.296875 1.359375 0.59375q0.5625 0.28125 0.921875 0.65625q0.359375 0.359375 0.53125 0.828125q0.171875 0.453125 0.171875 1.109375q0 1.40625 -1.046875 2.125q-1.03125 0.71875 -2.953125 0.71875q-1.28125 0 -2.078125 -0.21875q-0.78125 -0.21875 -1.09375 -0.34375l0.390625 -1.890625q0.5 0.203125 1.203125 0.390625q0.703125 0.1875 1.59375 0.1875zm14.916534 -3.265625q0 1.15625 -0.34375 2.109375q-0.328125 0.953125 -0.953125 1.625q-0.609375 0.671875 -1.484375 1.046875q-0.859375 0.375 -1.90625 0.375q-1.046875 0 -1.90625 -0.375q-0.859375 -0.375 -1.484375 -1.046875q-0.609375 -0.671875 -0.953125 -1.625q-0.34375 -0.953125 -0.34375 -2.109375q0 -1.15625 0.34375 -2.09375q0.34375 -0.9375 0.96875 -1.609375q0.625 -0.671875 1.484375 -1.03125q0.859375 -0.375 1.890625 -0.375q1.03125 0 1.890625 0.375q0.875 0.359375 1.484375 1.03125q0.625 0.671875 0.96875 1.609375q0.34375 0.9375 0.34375 2.09375zm-2.3125 0q0 -1.453125 -0.625 -2.296875q-0.625 -0.859375 -1.75 -0.859375q-1.125 0 -1.75 0.859375q-0.625 0.84375 -0.625 2.296875q0 1.46875 0.625 2.328125q0.625 0.859375 1.75 0.859375q1.125 0 1.75 -0.859375q0.625 -0.859375 0.625 -2.328125zm12.640808 4.59375q-0.65625 0.171875 -1.703125 0.34375q-1.03125 0.171875 -2.28125 0.171875q-1.1875 0 -1.984375 -0.328125q-0.78125 -0.34375 -1.265625 -0.9375q-0.46875 -0.59375 -0.671875 -1.421875q-0.203125 -0.828125 -0.203125 -1.828125l0 -5.453125l2.25 0l0 5.109375q0 1.5625 0.453125 2.234375q0.46875 0.671875 1.609375 0.671875q0.40625 0 0.859375 -0.03125q0.453125 -0.046875 0.6875 -0.09375l0 -7.890625l2.25 0l0 9.453125zm8.439102 -7.421875q-0.28125 -0.09375 -0.78125 -0.1875q-0.484375 -0.109375 -1.140625 -0.109375q-0.375 0 -0.796875 0.078125q-0.421875 0.0625 -0.59375 0.125l0 7.8125l-2.25 0l0 -9.296875q0.65625 -0.234375 1.625 -0.453125q0.984375 -0.21875 2.1875 -0.21875q0.21875 0 0.515625 0.03125q0.296875 0.03125 0.59375 0.078125q0.296875 0.046875 0.578125 0.109375q0.28125 0.0625 0.453125 0.125l-0.390625 1.90625zm1.4090881 2.84375q0 -1.078125 0.328125 -2.015625q0.34375 -0.9375 0.96875 -1.625q0.625 -0.703125 1.515625 -1.09375q0.90625 -0.390625 2.03125 -0.390625q1.375 0 2.609375 0.5l-0.484375 1.84375q-0.390625 -0.15625 -0.890625 -0.265625q-0.5 -0.125 -1.0625 -0.125q-1.3125 0 -2.015625 0.84375q-0.6875 0.828125 -0.6875 2.328125q0 1.453125 0.65625 2.3125q0.65625 0.84375 2.203125 0.84375q0.578125 0 1.140625 -0.109375q0.5625 -0.109375 0.96875 -0.28125l0.3125 1.859375q-0.375 0.1875 -1.125 0.34375q-0.75 0.15625 -1.5625 0.15625q-1.25 0 -2.171875 -0.375q-0.921875 -0.390625 -1.53125 -1.078125q-0.59375 -0.6875 -0.90625 -1.625q-0.296875 -0.9375 -0.296875 -2.046875zm8.805756 0.046875q0 -1.296875 0.375 -2.265625q0.390625 -0.96875 1.015625 -1.609375q0.640625 -0.640625 1.46875 -0.96875q0.828125 -0.328125 1.671875 -0.328125q2.015625 0 3.140625 1.25q1.140625 1.25 1.140625 3.734375q0 0.1875 -0.015625 0.421875q0 0.234375 -0.03125 0.421875l-6.421875 0q0.09375 1.171875 0.828125 1.8125q0.734375 0.640625 2.125 0.640625q0.828125 0 1.5 -0.140625q0.6875 -0.15625 1.078125 -0.328125l0.296875 1.859375q-0.1875 0.078125 -0.515625 0.1875q-0.3125 0.109375 -0.734375 0.1875q-0.421875 0.078125 -0.90625 0.140625q-0.484375 0.0625 -1.0 0.0625q-1.28125 0 -2.234375 -0.375q-0.953125 -0.390625 -1.5625 -1.078125q-0.609375 -0.6875 -0.921875 -1.609375q-0.296875 -0.921875 -0.296875 -2.015625zm6.546875 -1.015625q0 -0.46875 -0.125 -0.875q-0.125 -0.421875 -0.390625 -0.734375q-0.25 -0.3125 -0.609375 -0.484375q-0.359375 -0.171875 -0.859375 -0.171875q-0.53125 0 -0.921875 0.203125q-0.390625 0.1875 -0.671875 0.5q-0.265625 0.3125 -0.421875 0.734375q-0.140625 0.40625 -0.1875 0.828125l4.1875 0z" fill-rule="nonzero"/><path fill="#d9ead3" d="m226.43832 175.01204l0 0c0 -6.384018 5.1752625 -11.55928 11.55928 -11.55928l121.82631 0c3.0657043 0 6.0058594 1.2178497 8.173645 3.3856354c2.1677856 2.1677856 3.3856506 5.1079407 3.3856506 8.173645l0 46.235764c0 6.384018 -5.1752625 11.55928 -11.559296 11.55928l-121.82631 0l0 0c-6.384018 0 -11.55928 -5.1752625 -11.55928 -11.55928z" fill-rule="evenodd"/><path stroke="#434343" stroke-width="2.0" stroke-linejoin="round" stroke-linecap="butt" d="m226.43832 175.01204l0 0c0 -6.384018 5.1752625 -11.55928 11.55928 -11.55928l121.82631 0c3.0657043 0 6.0058594 1.2178497 8.173645 3.3856354c2.1677856 2.1677856 3.3856506 5.1079407 3.3856506 8.173645l0 46.235764c0 6.384018 -5.1752625 11.55928 -11.559296 11.55928l-121.82631 0l0 0c-6.384018 0 -11.55928 -5.1752625 -11.55928 -11.55928z" fill-rule="evenodd"/><path fill="#000000" d="m247.96156 205.04991q-0.9375 -1.921875 -1.921875 -4.40625q-0.96875 -2.5 -1.765625 -5.34375l2.40625 0q0.203125 0.8125 0.46875 1.765625q0.265625 0.9375 0.578125 1.875q0.3125 0.9375 0.640625 1.828125q0.328125 0.890625 0.59375 1.59375q0.28125 -0.703125 0.59375 -1.59375q0.328125 -0.890625 0.625 -1.828125q0.3125 -0.9375 0.59375 -1.875q0.28125 -0.953125 0.484375 -1.765625l2.34375 0q-0.8125 2.84375 -1.796875 5.34375q-0.96875 2.484375 -1.90625 4.40625l-1.9375 0zm9.594437 0l-2.265625 0l0 -9.75l2.265625 0l0 9.75zm0.234375 -12.609375q0 0.625 -0.40625 1.0q-0.40625 0.375 -0.96875 0.375q-0.578125 0 -1.0 -0.375q-0.40625 -0.375 -0.40625 -1.0q0 -0.65625 0.40625 -1.03125q0.421875 -0.375 1.0 -0.375q0.5625 0 0.96875 0.375q0.40625 0.375 0.40625 1.03125zm4.3991394 7.703125q0 1.484375 0.703125 2.34375q0.71875 0.84375 1.96875 0.84375q0.546875 0 0.921875 -0.046875q0.390625 -0.046875 0.625 -0.09375l0 -5.609375q-0.296875 -0.203125 -0.796875 -0.375q-0.484375 -0.171875 -1.046875 -0.171875q-1.234375 0 -1.8125 0.84375q-0.5625 0.828125 -0.5625 2.265625zm6.484375 4.609375q-0.671875 0.203125 -1.6875 0.375q-1.015625 0.171875 -2.140625 0.171875q-1.15625 0 -2.078125 -0.359375q-0.90625 -0.359375 -1.5625 -1.015625q-0.640625 -0.671875 -0.984375 -1.609375q-0.34375 -0.9375 -0.34375 -2.109375q0 -1.15625 0.28125 -2.09375q0.296875 -0.953125 0.859375 -1.625q0.5625 -0.671875 1.359375 -1.03125q0.8125 -0.375 1.859375 -0.375q0.703125 0 1.234375 0.171875q0.546875 0.171875 0.9375 0.375l0 -4.6875l2.265625 -0.375l0 14.1875zm2.322235 -4.53125q0 -1.296875 0.375 -2.265625q0.390625 -0.96875 1.015625 -1.609375q0.640625 -0.640625 1.46875 -0.96875q0.828125 -0.328125 1.671875 -0.328125q2.015625 0 3.140625 1.25q1.140625 1.25 1.140625 3.734375q0 0.1875 -0.015625 0.421875q0 0.234375 -0.03125 0.421875l-6.421875 0q0.09375 1.171875 0.828125 1.8125q0.734375 0.640625 2.125 0.640625q0.828125 0 1.5 -0.140625q0.6875 -0.15625 1.078125 -0.328125l0.296875 1.859375q-0.1875 0.078125 -0.515625 0.1875q-0.3125 0.109375 -0.734375 0.1875q-0.421875 0.078125 -0.90625 0.140625q-0.484375 0.0625 -1.0 0.0625q-1.28125 0 -2.234375 -0.375q-0.953125 -0.390625 -1.5625 -1.078125q-0.609375 -0.6875 -0.921875 -1.609375q-0.296875 -0.921875 -0.296875 -2.015625zm6.546875 -1.015625q0 -0.46875 -0.125 -0.875q-0.125 -0.421875 -0.390625 -0.734375q-0.25 -0.3125 -0.609375 -0.484375q-0.359375 -0.171875 -0.859375 -0.171875q-0.53125 0 -0.921875 0.203125q-0.390625 0.1875 -0.671875 0.5q-0.265625 0.3125 -0.421875 0.734375q-0.140625 0.40625 -0.1875 0.828125l4.1875 0zm13.4808655 0.953125q0 1.15625 -0.34375 2.109375q-0.328125 0.953125 -0.953125 1.625q-0.609375 0.671875 -1.484375 1.046875q-0.859375 0.375 -1.90625 0.375q-1.046875 0 -1.90625 -0.375q-0.859375 -0.375 -1.484375 -1.046875q-0.609375 -0.671875 -0.953125 -1.625q-0.34375 -0.953125 -0.34375 -2.109375q0 -1.15625 0.34375 -2.09375q0.34375 -0.9375 0.96875 -1.609375q0.625 -0.671875 1.484375 -1.03125q0.859375 -0.375 1.890625 -0.375q1.03125 0 1.890625 0.375q0.875 0.359375 1.484375 1.03125q0.625 0.671875 0.96875 1.609375q0.34375 0.9375 0.34375 2.09375zm-2.3125 0q0 -1.453125 -0.625 -2.296875q-0.625 -0.859375 -1.75 -0.859375q-1.125 0 -1.75 0.859375q-0.625 0.84375 -0.625 2.296875q0 1.46875 0.625 2.328125q0.625 0.859375 1.75 0.859375q1.125 0 1.75 -0.859375q0.625 -0.859375 0.625 -2.328125zm11.425201 3.265625q0.90625 0 1.3125 -0.203125q0.40625 -0.21875 0.40625 -0.75q0 -0.484375 -0.4375 -0.796875q-0.4375 -0.3125 -1.4375 -0.6875q-0.625 -0.234375 -1.140625 -0.484375q-0.5 -0.25 -0.875 -0.578125q-0.375 -0.34375 -0.59375 -0.8125q-0.21875 -0.484375 -0.21875 -1.171875q0 -1.34375 0.984375 -2.109375q1.0 -0.78125 2.703125 -0.78125q0.84375 0 1.625 0.15625q0.796875 0.15625 1.1875 0.3125l-0.40625 1.828125q-0.375 -0.171875 -0.953125 -0.3125q-0.578125 -0.140625 -1.34375 -0.140625q-0.6875 0 -1.125 0.234375q-0.421875 0.234375 -0.421875 0.71875q0 0.25 0.078125 0.4375q0.078125 0.1875 0.28125 0.34375q0.21875 0.15625 0.546875 0.3125q0.34375 0.15625 0.828125 0.328125q0.796875 0.296875 1.359375 0.59375q0.5625 0.28125 0.921875 0.65625q0.359375 0.359375 0.53125 0.828125q0.171875 0.453125 0.171875 1.109375q0 1.40625 -1.046875 2.125q-1.03125 0.71875 -2.953125 0.71875q-1.28125 0 -2.078125 -0.21875q-0.78125 -0.21875 -1.09375 -0.34375l0.390625 -1.890625q0.5 0.203125 1.203125 0.390625q0.703125 0.1875 1.59375 0.1875zm14.916534 -3.265625q0 1.15625 -0.34375 2.109375q-0.328125 0.953125 -0.953125 1.625q-0.609375 0.671875 -1.484375 1.046875q-0.859375 0.375 -1.90625 0.375q-1.046875 0 -1.90625 -0.375q-0.859375 -0.375 -1.484375 -1.046875q-0.609375 -0.671875 -0.953125 -1.625q-0.34375 -0.953125 -0.34375 -2.109375q0 -1.15625 0.34375 -2.09375q0.34375 -0.9375 0.96875 -1.609375q0.625 -0.671875 1.484375 -1.03125q0.859375 -0.375 1.890625 -0.375q1.03125 0 1.890625 0.375q0.875 0.359375 1.484375 1.03125q0.625 0.671875 0.96875 1.609375q0.34375 0.9375 0.34375 2.09375zm-2.3125 0q0 -1.453125 -0.625 -2.296875q-0.625 -0.859375 -1.75 -0.859375q-1.125 0 -1.75 0.859375q-0.625 0.84375 -0.625 2.296875q0 1.46875 0.625 2.328125q0.625 0.859375 1.75 0.859375q1.125 0 1.75 -0.859375q0.625 -0.859375 0.625 -2.328125zm12.640808 4.59375q-0.65625 0.171875 -1.703125 0.34375q-1.03125 0.171875 -2.28125 0.171875q-1.1875 0 -1.984375 -0.328125q-0.78125 -0.34375 -1.265625 -0.9375q-0.46875 -0.59375 -0.671875 -1.421875q-0.203125 -0.828125 -0.203125 -1.828125l0 -5.453125l2.25 0l0 5.109375q0 1.5625 0.453125 2.234375q0.46875 0.671875 1.609375 0.671875q0.40625 0 0.859375 -0.03125q0.453125 -0.046875 0.6875 -0.09375l0 -7.890625l2.25 0l0 9.453125zm8.439117 -7.421875q-0.28125 -0.09375 -0.78125 -0.1875q-0.484375 -0.109375 -1.140625 -0.109375q-0.375 0 -0.796875 0.078125q-0.421875 0.0625 -0.59375 0.125l0 7.8125l-2.25 0l0 -9.296875q0.65625 -0.234375 1.625 -0.453125q0.984375 -0.21875 2.1875 -0.21875q0.21875 0 0.515625 0.03125q0.296875 0.03125 0.59375 0.078125q0.296875 0.046875 0.578125 0.109375q0.28125 0.0625 0.453125 0.125l-0.390625 1.90625zm1.4090881 2.84375q0 -1.078125 0.328125 -2.015625q0.34375 -0.9375 0.96875 -1.625q0.625 -0.703125 1.515625 -1.09375q0.90625 -0.390625 2.03125 -0.390625q1.375 0 2.609375 0.5l-0.484375 1.84375q-0.390625 -0.15625 -0.890625 -0.265625q-0.5 -0.125 -1.0625 -0.125q-1.3125 0 -2.015625 0.84375q-0.6875 0.828125 -0.6875 2.328125q0 1.453125 0.65625 2.3125q0.65625 0.84375 2.203125 0.84375q0.578125 0 1.140625 -0.109375q0.5625 -0.109375 0.96875 -0.28125l0.3125 1.859375q-0.375 0.1875 -1.125 0.34375q-0.75 0.15625 -1.5625 0.15625q-1.25 0 -2.171875 -0.375q-0.921875 -0.390625 -1.53125 -1.078125q-0.59375 -0.6875 -0.90625 -1.625q-0.296875 -0.9375 -0.296875 -2.046875zm8.805756 0.046875q0 -1.296875 0.375 -2.265625q0.390625 -0.96875 1.015625 -1.609375q0.640625 -0.640625 1.46875 -0.96875q0.828125 -0.328125 1.671875 -0.328125q2.015625 0 3.140625 1.25q1.140625 1.25 1.140625 3.734375q0 0.1875 -0.015625 0.421875q0 0.234375 -0.03125 0.421875l-6.421875 0q0.09375 1.171875 0.828125 1.8125q0.734375 0.640625 2.125 0.640625q0.828125 0 1.5 -0.140625q0.6875 -0.15625 1.078125 -0.328125l0.296875 1.859375q-0.1875 0.078125 -0.515625 0.1875q-0.3125 0.109375 -0.734375 0.1875q-0.421875 0.078125 -0.90625 0.140625q-0.484375 0.0625 -1.0 0.0625q-1.28125 0 -2.234375 -0.375q-0.953125 -0.390625 -1.5625 -1.078125q-0.609375 -0.6875 -0.921875 -1.609375q-0.296875 -0.921875 -0.296875 -2.015625zm6.546875 -1.015625q0 -0.46875 -0.125 -0.875q-0.125 -0.421875 -0.390625 -0.734375q-0.25 -0.3125 -0.609375 -0.484375q-0.359375 -0.171875 -0.859375 -0.171875q-0.53125 0 -0.921875 0.203125q-0.390625 0.1875 -0.671875 0.5q-0.265625 0.3125 -0.421875 0.734375q-0.140625 0.40625 -0.1875 0.828125l4.1875 0z" fill-rule="nonzero"/><path fill="#000000" fill-opacity="0.0" d="m195.99081 198.15355c7.6118927 0 11.416687 0.01574707 15.22377 0.03149414c3.8070984 0.01574707 7.6164703 0.03149414 15.232925 0.03149414" fill-rule="evenodd"/><path stroke="#000000" stroke-width="1.0" stroke-linejoin="round" stroke-linecap="butt" d="m195.99081 198.15355c7.6118927 0 11.416687 0.01574707 15.22377 0.03149414c1.9035492 0.007873535 3.807663 0.01574707 6.187958 0.021652222l3.0449677 0.0054473877" fill-rule="evenodd"/><path fill="#000000" stroke="#000000" stroke-width="1.0" stroke-linecap="butt" d="m220.4463 199.86388l4.5393066 -1.648407l-4.5368958 -1.6550598z" fill-rule="evenodd"/><path fill="#000000" fill-opacity="0.0" d="m371.3832 198.12993c7.612793 0 11.418518 0.01574707 15.225586 0.03149414c3.8070984 0.01574707 7.61557 0.03149414 15.23111 0.03149414" fill-rule="evenodd"/><path stroke="#000000" stroke-width="1.0" stroke-linejoin="round" stroke-linecap="butt" d="m371.3832 198.12993c7.6128235 0 11.418518 0.01574707 15.225586 0.03149414c1.9035339 0.007873535 3.8074646 0.01574707 6.187378 0.021652222l3.0437317 0.0054473877" fill-rule="evenodd"/><path fill="#000000" stroke="#000000" stroke-width="1.0" stroke-linecap="butt" d="m395.83868 199.84026l4.5393066 -1.648407l-4.5368958 -1.6550598z" fill-rule="evenodd"/></g></svg>