<svg version="1.1" viewBox="0.0 0.0 839.4645669291339 382.0787401574803" fill="none" stroke="none" stroke-linecap="square" stroke-miterlimit="10" xmlns:xlink="http://www.w3.org/1999/xlink" xmlns="http://www.w3.org/2000/svg"><clipPath id="p.0"><path d="m0 0l839.46454 0l0 382.07874l-839.46454 0l0 -382.07874z" clip-rule="nonzero"/></clipPath><g clip-path="url(#p.0)"><path fill="#000000" fill-opacity="0.0" d="m0 0l839.46454 0l0 382.07874l-839.46454 0z" fill-rule="evenodd"/><path fill="#cccccc" d="m73.41863 45.761974l0 0c0 -18.133078 14.699768 -32.83284 32.83284 -32.83284l624.69653 0c8.707825 0 17.05896 3.4591646 23.216309 9.616517c6.1573486 6.1573524 9.616516 14.508514 9.616516 23.216324l0 290.5548c0 18.133057 -14.699768 32.832825 -32.832825 32.832825l-624.69653 0c-18.133072 0 -32.83284 -14.699768 -32.83284 -32.832825z" fill-rule="evenodd"/><path stroke="#434343" stroke-width="3.0" stroke-linejoin="round" stroke-linecap="butt" d="m73.41863 45.761974l0 0c0 -18.133078 14.699768 -32.83284 32.83284 -32.83284l624.69653 0c8.707825 0 17.05896 3.4591646 23.216309 9.616517c6.1573486 6.1573524 9.616516 14.508514 9.616516 23.216324l0 290.5548c0 18.133057 -14.699768 32.832825 -32.832825 32.832825l-624.69653 0c-18.133072 0 -32.83284 -14.699768 -32.83284 -32.832825z" fill-rule="evenodd"/><path fill="#65aaff" d="m7.6377954 70.333565l0 0c0 -6.384018 5.175268 -11.559288 11.559287 -11.559288l154.26726 0c3.0657043 0 6.0058594 1.2178497 8.173645 3.3856392c2.1677856 2.1677818 3.3856354 5.107937 3.3856354 8.173649l0 46.235756c0 6.384018 -5.1752625 11.559296 -11.55928 11.559296l-154.26726 0l0 0c-6.384019 0 -11.559287 -5.1752777 -11.559287 -11.559296z" fill-rule="evenodd"/><path stroke="#434343" stroke-width="2.0" stroke-linejoin="round" stroke-linecap="butt" d="m7.6377954 70.333565l0 0c0 -6.384018 5.175268 -11.559288 11.559287 -11.559288l154.26726 0c3.0657043 0 6.0058594 1.2178497 8.173645 3.3856392c2.1677856 2.1677818 3.3856354 5.107937 3.3856354 8.173649l0 46.235756c0 6.384018 -5.1752625 11.559296 -11.55928 11.559296l-154.26726 0l0 0c-6.384019 0 -11.559287 -5.1752777 -11.559287 -11.559296z" fill-rule="evenodd"/><path fill="#000000" d="m60.851017 84.54331q0 -1.296875 0.375 -2.265625q0.390625 -0.96875 1.015625 -1.609375q0.640625 -0.640625 1.46875 -0.96875q0.8281212 -0.328125 1.6718712 -0.328125q2.015625 0 3.140625 1.25q1.140625 1.25 1.140625 3.734375q0 0.1875 -0.015625 0.421875q0 0.234375 -0.03125 0.421875l-6.421871 0q0.09375 1.171875 0.8281212 1.8125q0.734375 0.640625 2.125 0.640625q0.828125 0 1.5 -0.140625q0.6875 -0.15625 1.078125 -0.328125l0.296875 1.859375q-0.1875 0.078125 -0.515625 0.1875q-0.3125 0.109375 -0.734375 0.1875q-0.421875 0.078125 -0.90625 0.140625q-0.484375 0.0625 -1.0 0.0625q-1.28125 0 -2.2343712 -0.375q-0.953125 -0.390625 -1.5625 -1.078125q-0.609375 -0.6875 -0.921875 -1.609375q-0.296875 -0.921875 -0.296875 -2.015625zm6.546871 -1.015625q0 -0.46875 -0.125 -0.875q-0.125 -0.421875 -0.390625 -0.734375q-0.25 -0.3125 -0.609375 -0.484375q-0.359375 -0.171875 -0.859375 -0.171875q-0.53125 0 -0.921875 0.203125q-0.390625 0.1875 -0.6718712 0.5q-0.265625 0.3125 -0.421875 0.734375q-0.140625 0.40625 -0.1875 0.828125l4.187496 0zm8.152725 -0.71875l2.078125 -3.1875l2.375 0l-3.21875 4.59375q1.015625 1.3125 1.9375 2.65625q0.921875 1.328125 1.515625 2.5l-2.4375 0q-0.171875 -0.359375 -0.453125 -0.8125q-0.265625 -0.453125 -0.578125 -0.9375q-0.296875 -0.5 -0.640625 -0.984375q-0.328125 -0.5 -0.640625 -0.921875q-0.65625 0.84375 -1.28125 1.859375q-0.625 1.015625 -1.03125 1.796875l-2.3125 0q0.265625 -0.5625 0.65625 -1.1875q0.40625 -0.640625 0.84375 -1.296875q0.453125 -0.671875 0.921875 -1.328125q0.484375 -0.671875 0.953125 -1.265625l-3.234375 -4.671875l2.484375 0l2.0625 3.1875zm6.259781 -5.765625l2.25 -0.375l0 2.953125l3.46875 0l0 1.875l-3.46875 0l0 3.96875q0 1.1875 0.375 1.6875q0.375 0.5 1.265625 0.5q0.625 0 1.09375 -0.125q0.484375 -0.140625 0.765625 -0.25l0.359375 1.796875q-0.390625 0.171875 -1.03125 0.34375q-0.625 0.171875 -1.484375 0.171875q-1.046875 0 -1.75 -0.265625q-0.6875 -0.28125 -1.109375 -0.8125q-0.40625 -0.546875 -0.578125 -1.296875q-0.15625 -0.75 -0.15625 -1.71875l0 -8.453125zm7.19281 7.5q0 -1.296875 0.375 -2.265625q0.390625 -0.96875 1.015625 -1.609375q0.640625 -0.640625 1.46875 -0.96875q0.828125 -0.328125 1.671875 -0.328125q2.015625 0 3.140625 1.25q1.140625 1.25 1.140625 3.734375q0 0.1875 -0.015625 0.421875q0 0.234375 -0.03125 0.421875l-6.421875 0q0.09375 1.171875 0.828125 1.8125q0.734375 0.640625 2.125 0.640625q0.828125 0 1.5 -0.140625q0.6875 -0.15625 1.078125 -0.328125l0.296875 1.859375q-0.1875 0.078125 -0.515625 0.1875q-0.3125 0.109375 -0.734375 0.1875q-0.421875 0.078125 -0.90625 0.140625q-0.484375 0.0625 -1.0 0.0625q-1.28125 0 -2.234375 -0.375q-0.953125 -0.390625 -1.5625 -1.078125q-0.609375 -0.6875 -0.921875 -1.609375q-0.296875 -0.921875 -0.296875 -2.015625zm6.546875 -1.015625q0 -0.46875 -0.125 -0.875q-0.125 -0.421875 -0.390625 -0.734375q-0.25 -0.3125 -0.609375 -0.484375q-0.359375 -0.171875 -0.859375 -0.171875q-0.53125 0 -0.921875 0.203125q-0.390625 0.1875 -0.671875 0.5q-0.265625 0.3125 -0.421875 0.734375q-0.140625 0.40625 -0.1875 0.828125l4.1875 0zm10.215225 -1.875q-0.28125 -0.09375 -0.78125 -0.1875q-0.484375 -0.109375 -1.140625 -0.109375q-0.375 0 -0.796875 0.078125q-0.421875 0.0625 -0.59375 0.125l0 7.8125l-2.25 0l0 -9.296875q0.65625 -0.234375 1.625 -0.453125q0.984375 -0.21875 2.1875 -0.21875q0.21875 0 0.515625 0.03125q0.296875 0.03125 0.59375 0.078125q0.296875 0.046875 0.578125 0.109375q0.28125 0.0625 0.453125 0.125l-0.390625 1.90625zm1.9559631 -1.71875q0.65625 -0.1875 1.6875 -0.359375q1.046875 -0.171875 2.328125 -0.171875q1.1875 0 1.984375 0.328125q0.8125 0.328125 1.28125 0.921875q0.484375 0.578125 0.671875 1.421875q0.203125 0.828125 0.203125 1.8125l0 5.484375l-2.265625 0l0 -5.125q0 -0.78125 -0.109375 -1.328125q-0.09375 -0.5625 -0.328125 -0.90625q-0.234375 -0.34375 -0.640625 -0.5q-0.390625 -0.15625 -0.96875 -0.15625q-0.4375 0 -0.90625 0.0625q-0.453125 0.046875 -0.6875 0.078125l0 7.875l-2.25 0l0 -9.4375zm14.35141 7.859375q1.03125 0 1.578125 -0.125l0 -2.5q-0.1875 -0.046875 -0.546875 -0.09375q-0.34375 -0.0625 -0.78125 -0.0625q-0.375 0 -0.75 0.0625q-0.375 0.046875 -0.6875 0.203125q-0.3125 0.140625 -0.5 0.40625q-0.1875 0.265625 -0.1875 0.6875q0 0.796875 0.5 1.109375q0.515625 0.3125 1.375 0.3125zm-0.1875 -8.421875q1.109375 0 1.875 0.28125q0.765625 0.28125 1.21875 0.78125q0.46875 0.5 0.65625 1.21875q0.203125 0.71875 0.203125 1.578125l0 5.921875q-0.53125 0.109375 -1.59375 0.265625q-1.046875 0.15625 -2.359375 0.15625q-0.875 0 -1.609375 -0.171875q-0.734375 -0.15625 -1.25 -0.53125q-0.5 -0.375 -0.796875 -0.96875q-0.28125 -0.609375 -0.28125 -1.484375q0 -0.828125 0.328125 -1.40625q0.328125 -0.578125 0.875 -0.9375q0.5625 -0.375 1.296875 -0.53125q0.75 -0.15625 1.546875 -0.15625q0.375 0 0.78125 0.046875q0.40625 0.046875 0.875 0.15625l0 -0.375q0 -0.390625 -0.09375 -0.734375q-0.09375 -0.359375 -0.328125 -0.625q-0.234375 -0.28125 -0.625 -0.421875q-0.375 -0.15625 -0.953125 -0.15625q-0.78125 0 -1.4375 0.109375q-0.640625 0.109375 -1.0625 0.265625l-0.28125 -1.828125q0.4375 -0.15625 1.25 -0.296875q0.828125 -0.15625 1.765625 -0.15625zm10.103058 10.1875q-1.0 -0.015625 -1.671875 -0.21875q-0.65625 -0.21875 -1.046875 -0.59375q-0.390625 -0.375 -0.546875 -0.9375q-0.15625 -0.578125 -0.15625 -1.3125l0 -11.234375l2.25 -0.375l0 11.1875q0 0.40625 0.0625 0.6875q0.0625 0.28125 0.234375 0.484375q0.171875 0.1875 0.453125 0.296875q0.296875 0.09375 0.75 0.15625l-0.328125 1.859375z" fill-rule="nonzero"/><path fill="#000000" d="m71.43776 109.74644q0.90625 0 1.3125 -0.203125q0.40625 -0.21875 0.40625 -0.75q0 -0.484375 -0.4375 -0.796875q-0.4375 -0.3125 -1.4375 -0.6875q-0.625 -0.234375 -1.140625 -0.484375q-0.5 -0.25 -0.875 -0.578125q-0.375 -0.34375 -0.59375 -0.8125q-0.21875 -0.484375 -0.21875 -1.171875q0 -1.34375 0.984375 -2.109375q1.0 -0.78125 2.703125 -0.78125q0.84375 0 1.625 0.15625q0.796875 0.15625 1.1875 0.3125l-0.40625 1.828125q-0.375 -0.171875 -0.953125 -0.3125q-0.578125 -0.140625 -1.34375 -0.140625q-0.6875 0 -1.125 0.234375q-0.421875 0.234375 -0.421875 0.71875q0 0.25 0.078125 0.4375q0.078125 0.1875 0.28125 0.34375q0.21875 0.15625 0.546875 0.3125q0.34375 0.15625 0.828125 0.328125q0.796875 0.296875 1.359375 0.59375q0.5625 0.28125 0.921875 0.65625q0.359375 0.359375 0.53125 0.828125q0.171875 0.453125 0.171875 1.109375q0 1.40625 -1.046875 2.125q-1.03125 0.71875 -2.953125 0.71875q-1.28125 0 -2.078125 -0.21875q-0.78125 -0.21875 -1.09375 -0.34375l0.390625 -1.890625q0.5 0.203125 1.203125 0.390625q0.703125 0.1875 1.59375 0.1875zm14.916534 -3.265625q0 1.15625 -0.34375 2.109375q-0.328125 0.953125 -0.953125 1.625q-0.609375 0.671875 -1.484375 1.046875q-0.859375 0.375 -1.90625 0.375q-1.046875 0 -1.90625 -0.375q-0.859375 -0.375 -1.484375 -1.046875q-0.609375 -0.671875 -0.953125 -1.625q-0.34375 -0.953125 -0.34375 -2.109375q0 -1.15625 0.34375 -2.09375q0.34375 -0.9375 0.96875 -1.609375q0.625 -0.671875 1.484375 -1.03125q0.859375 -0.375 1.890625 -0.375q1.03125 0 1.890625 0.375q0.875 0.359375 1.484375 1.03125q0.625 0.671875 0.96875 1.609375q0.34375 0.9375 0.34375 2.09375zm-2.3125 0q0 -1.453125 -0.625 -2.296875q-0.625 -0.859375 -1.75 -0.859375q-1.125 0 -1.75 0.859375q-0.625 0.84375 -0.625 2.296875q0 1.46875 0.625 2.328125q0.625 0.859375 1.75 0.859375q1.125 0 1.75 -0.859375q0.625 -0.859375 0.625 -2.328125zm12.640808 4.59375q-0.65625 0.171875 -1.703125 0.34375q-1.03125 0.171875 -2.28125 0.171875q-1.1875 0 -1.984375 -0.328125q-0.78125 -0.34375 -1.265625 -0.9375q-0.46875 -0.59375 -0.671875 -1.421875q-0.203125 -0.828125 -0.203125 -1.828125l0 -5.453125l2.25 0l0 5.109375q0 1.5625 0.453125 2.234375q0.46875 0.671875 1.609375 0.671875q0.40625 0 0.859375 -0.03125q0.453125 -0.046875 0.6875 -0.09375l0 -7.890625l2.25 0l0 9.453125zm8.439102 -7.421875q-0.28125 -0.09375 -0.78125 -0.1875q-0.484375 -0.109375 -1.140625 -0.109375q-0.375 0 -0.796875 0.078125q-0.421875 0.0625 -0.59375 0.125l0 7.8125l-2.25 0l0 -9.296875q0.65625 -0.234375 1.625 -0.453125q0.984375 -0.21875 2.1875 -0.21875q0.21875 0 0.515625 0.03125q0.296875 0.03125 0.59375 0.078125q0.296875 0.046875 0.578125 0.109375q0.28125 0.0625 0.453125 0.125l-0.390625 1.90625zm1.4090881 2.84375q0 -1.078125 0.328125 -2.015625q0.34375 -0.9375 0.96875 -1.625q0.625 -0.703125 1.515625 -1.09375q0.90625 -0.390625 2.03125 -0.390625q1.375 0 2.609375 0.5l-0.484375 1.84375q-0.390625 -0.15625 -0.890625 -0.265625q-0.5 -0.125 -1.0625 -0.125q-1.3125 0 -2.015625 0.84375q-0.6875 0.828125 -0.6875 2.328125q0 1.453125 0.65625 2.3125q0.65625 0.84375 2.203125 0.84375q0.578125 0 1.140625 -0.109375q0.5625 -0.109375 0.96875 -0.28125l0.3125 1.859375q-0.375 0.1875 -1.125 0.34375q-0.75 0.15625 -1.5625 0.15625q-1.25 0 -2.171875 -0.375q-0.921875 -0.390625 -1.53125 -1.078125q-0.59375 -0.6875 -0.90625 -1.625q-0.296875 -0.9375 -0.296875 -2.046875zm8.805756 0.046875q0 -1.296875 0.375 -2.265625q0.390625 -0.96875 1.015625 -1.609375q0.640625 -0.640625 1.46875 -0.96875q0.828125 -0.328125 1.671875 -0.328125q2.015625 0 3.140625 1.25q1.140625 1.25 1.140625 3.734375q0 0.1875 -0.015625 0.421875q0 0.234375 -0.03125 0.421875l-6.421875 0q0.09375 1.171875 0.828125 1.8125q0.734375 0.640625 2.125 0.640625q0.828125 0 1.5 -0.140625q0.6875 -0.15625 1.078125 -0.328125l0.296875 1.859375q-0.1875 0.078125 -0.515625 0.1875q-0.3125 0.109375 -0.734375 0.1875q-0.421875 0.078125 -0.90625 0.140625q-0.484375 0.0625 -1.0 0.0625q-1.28125 0 -2.234375 -0.375q-0.953125 -0.390625 -1.5625 -1.078125q-0.609375 -0.6875 -0.921875 -1.609375q-0.296875 -0.921875 -0.296875 -2.015625zm6.546875 -1.015625q0 -0.46875 -0.125 -0.875q-0.125 -0.421875 -0.390625 -0.734375q-0.25 -0.3125 -0.609375 -0.484375q-0.359375 -0.171875 -0.859375 -0.171875q-0.53125 0 -0.921875 0.203125q-0.390625 0.1875 -0.671875 0.5q-0.265625 0.3125 -0.421875 0.734375q-0.140625 0.40625 -0.1875 0.828125l4.1875 0z" fill-rule="nonzero"/><path fill="#d9ead3" d="m222.2454 70.333565l0 0c0 -6.384018 5.1752625 -11.559288 11.55928 -11.559288l121.826324 0c3.0657043 0 6.0058594 1.2178497 8.173645 3.3856392c2.1677856 2.1677818 3.38562 5.107937 3.38562 8.173649l0 46.235756c0 6.384018 -5.1752625 11.559296 -11.559265 11.559296l-121.826324 0l0 0c-6.384018 0 -11.55928 -5.1752777 -11.55928 -11.559296z" fill-rule="evenodd"/><path stroke="#434343" stroke-width="2.0" stroke-linejoin="round" stroke-linecap="butt" d="m222.2454 70.333565l0 0c0 -6.384018 5.1752625 -11.559288 11.55928 -11.559288l121.826324 0c3.0657043 0 6.0058594 1.2178497 8.173645 3.3856392c2.1677856 2.1677818 3.38562 5.107937 3.38562 8.173649l0 46.235756c0 6.384018 -5.1752625 11.559296 -11.559265 11.559296l-121.826324 0l0 0c-6.384018 0 -11.55928 -5.1752777 -11.55928 -11.559296z" fill-rule="evenodd"/><path fill="#000000" d="m245.73035 98.74644q0.90625 0 1.3125 -0.203125q0.40625 -0.21875 0.40625 -0.75q0 -0.484375 -0.4375 -0.796875q-0.4375 -0.3125 -1.4375 -0.6875q-0.625 -0.234375 -1.140625 -0.484375q-0.5 -0.25 -0.875 -0.578125q-0.375 -0.34375 -0.59375 -0.8125q-0.21875 -0.484375 -0.21875 -1.171875q0 -1.34375 0.984375 -2.109375q1.0 -0.78125 2.703125 -0.78125q0.84375 0 1.625 0.15625q0.796875 0.15625 1.1875 0.3125l-0.40625 1.828125q-0.375 -0.171875 -0.953125 -0.3125q-0.578125 -0.140625 -1.34375 -0.140625q-0.6875 0 -1.125 0.234375q-0.421875 0.234375 -0.421875 0.71875q0 0.25 0.078125 0.4375q0.078125 0.1875 0.28125 0.34375q0.21875 0.15625 0.546875 0.3125q0.34375 0.15625 0.828125 0.328125q0.796875 0.296875 1.359375 0.59375q0.5625 0.28125 0.921875 0.65625q0.359375 0.359375 0.53125 0.828125q0.171875 0.453125 0.171875 1.109375q0 1.40625 -1.046875 2.125q-1.03125 0.71875 -2.953125 0.71875q-1.28125 0 -2.078125 -0.21875q-0.78125 -0.21875 -1.09375 -0.34375l0.390625 -1.890625q0.5 0.203125 1.203125 0.390625q0.703125 0.1875 1.59375 0.1875zm14.916534 -3.265625q0 1.15625 -0.34375 2.109375q-0.328125 0.953125 -0.953125 1.625q-0.609375 0.671875 -1.484375 1.046875q-0.859375 0.375 -1.90625 0.375q-1.046875 0 -1.90625 -0.375q-0.859375 -0.375 -1.484375 -1.046875q-0.609375 -0.671875 -0.953125 -1.625q-0.34375 -0.953125 -0.34375 -2.109375q0 -1.15625 0.34375 -2.09375q0.34375 -0.9375 0.96875 -1.609375q0.625 -0.671875 1.484375 -1.03125q0.859375 -0.375 1.890625 -0.375q1.03125 0 1.890625 0.375q0.875 0.359375 1.484375 1.03125q0.625 0.671875 0.96875 1.609375q0.34375 0.9375 0.34375 2.09375zm-2.3125 0q0 -1.453125 -0.625 -2.296875q-0.625 -0.859375 -1.75 -0.859375q-1.125 0 -1.75 0.859375q-0.625 0.84375 -0.625 2.296875q0 1.46875 0.625 2.328125q0.625 0.859375 1.75 0.859375q1.125 0 1.75 -0.859375q0.625 -0.859375 0.625 -2.328125zm12.640808 4.59375q-0.65625 0.171875 -1.703125 0.34375q-1.03125 0.171875 -2.28125 0.171875q-1.1875 0 -1.984375 -0.328125q-0.78125 -0.34375 -1.265625 -0.9375q-0.46875 -0.59375 -0.671875 -1.421875q-0.203125 -0.828125 -0.203125 -1.828125l0 -5.453125l2.25 0l0 5.109375q0 1.5625 0.453125 2.234375q0.46875 0.671875 1.609375 0.671875q0.40625 0 0.859375 -0.03125q0.453125 -0.046875 0.6875 -0.09375l0 -7.890625l2.25 0l0 9.453125zm8.439117 -7.421875q-0.28125 -0.09375 -0.78125 -0.1875q-0.484375 -0.109375 -1.140625 -0.109375q-0.375 0 -0.796875 0.078125q-0.421875 0.0625 -0.59375 0.125l0 7.8125l-2.25 0l0 -9.296875q0.65625 -0.234375 1.625 -0.453125q0.984375 -0.21875 2.1875 -0.21875q0.21875 0 0.515625 0.03125q0.296875 0.03125 0.59375 0.078125q0.296875 0.046875 0.578125 0.109375q0.28125 0.0625 0.453125 0.125l-0.390625 1.90625zm1.4090881 2.84375q0 -1.078125 0.328125 -2.015625q0.34375 -0.9375 0.96875 -1.625q0.625 -0.703125 1.515625 -1.09375q0.90625 -0.390625 2.03125 -0.390625q1.375 0 2.609375 0.5l-0.484375 1.84375q-0.390625 -0.15625 -0.890625 -0.265625q-0.5 -0.125 -1.0625 -0.125q-1.3125 0 -2.015625 0.84375q-0.6875 0.828125 -0.6875 2.328125q0 1.453125 0.65625 2.3125q0.65625 0.84375 2.203125 0.84375q0.578125 0 1.140625 -0.109375q0.5625 -0.109375 0.96875 -0.28125l0.3125 1.859375q-0.375 0.1875 -1.125 0.34375q-0.75 0.15625 -1.5625 0.15625q-1.25 0 -2.171875 -0.375q-0.921875 -0.390625 -1.53125 -1.078125q-0.59375 -0.6875 -0.90625 -1.625q-0.296875 -0.9375 -0.296875 -2.046875zm8.805756 0.046875q0 -1.296875 0.375 -2.265625q0.390625 -0.96875 1.015625 -1.609375q0.640625 -0.640625 1.46875 -0.96875q0.828125 -0.328125 1.671875 -0.328125q2.015625 0 3.140625 1.25q1.140625 1.25 1.140625 3.734375q0 0.1875 -0.015625 0.421875q0 0.234375 -0.03125 0.421875l-6.421875 0q0.09375 1.171875 0.828125 1.8125q0.734375 0.640625 2.125 0.640625q0.828125 0 1.5 -0.140625q0.6875 -0.15625 1.078125 -0.328125l0.296875 1.859375q-0.1875 0.078125 -0.515625 0.1875q-0.3125 0.109375 -0.734375 0.1875q-0.421875 0.078125 -0.90625 0.140625q-0.484375 0.0625 -1.0 0.0625q-1.28125 0 -2.234375 -0.375q-0.953125 -0.390625 -1.5625 -1.078125q-0.609375 -0.6875 -0.921875 -1.609375q-0.296875 -0.921875 -0.296875 -2.015625zm6.546875 -1.015625q0 -0.46875 -0.125 -0.875q-0.125 -0.421875 -0.390625 -0.734375q-0.25 -0.3125 -0.609375 -0.484375q-0.359375 -0.171875 -0.859375 -0.171875q-0.53125 0 -0.921875 0.203125q-0.390625 0.1875 -0.671875 0.5q-0.265625 0.3125 -0.421875 0.734375q-0.140625 0.40625 -0.1875 0.828125l4.1875 0zm8.999634 -3.59375q0.65625 -0.1875 1.6875 -0.359375q1.046875 -0.171875 2.328125 -0.171875q1.1875 0 1.984375 0.328125q0.8125 0.328125 1.28125 0.921875q0.484375 0.578125 0.671875 1.421875q0.203125 0.828125 0.203125 1.8125l0 5.484375l-2.265625 0l0 -5.125q0 -0.78125 -0.109375 -1.328125q-0.09375 -0.5625 -0.328125 -0.90625q-0.234375 -0.34375 -0.640625 -0.5q-0.390625 -0.15625 -0.96875 -0.15625q-0.4375 0 -0.90625 0.0625q-0.453125 0.046875 -0.6875 0.078125l0 7.875l-2.25 0l0 -9.4375zm19.742035 4.546875q0 1.15625 -0.34375 2.109375q-0.328125 0.953125 -0.953125 1.625q-0.609375 0.671875 -1.484375 1.046875q-0.859375 0.375 -1.90625 0.375q-1.046875 0 -1.90625 -0.375q-0.859375 -0.375 -1.484375 -1.046875q-0.609375 -0.671875 -0.953125 -1.625q-0.34375 -0.953125 -0.34375 -2.109375q0 -1.15625 0.34375 -2.09375q0.34375 -0.9375 0.96875 -1.609375q0.625 -0.671875 1.484375 -1.03125q0.859375 -0.375 1.890625 -0.375q1.03125 0 1.890625 0.375q0.875 0.359375 1.484375 1.03125q0.625 0.671875 0.96875 1.609375q0.34375 0.9375 0.34375 2.09375zm-2.3125 0q0 -1.453125 -0.625 -2.296875q-0.625 -0.859375 -1.75 -0.859375q-1.125 0 -1.75 0.859375q-0.625 0.84375 -0.625 2.296875q0 1.46875 0.625 2.328125q0.625 0.859375 1.75 0.859375q1.125 0 1.75 -0.859375q0.625 -0.859375 0.625 -2.328125zm6.406433 -0.015625q0 1.484375 0.703125 2.34375q0.71875 0.84375 1.96875 0.84375q0.546875 0 0.921875 -0.046875q0.390625 -0.046875 0.625 -0.09375l0 -5.609375q-0.296875 -0.203125 -0.796875 -0.375q-0.484375 -0.171875 -1.046875 -0.171875q-1.234375 0 -1.8125 0.84375q-0.5625 0.828125 -0.5625 2.265625zm6.484375 4.609375q-0.671875 0.203125 -1.6875 0.375q-1.015625 0.171875 -2.140625 0.171875q-1.15625 0 -2.078125 -0.359375q-0.90625 -0.359375 -1.5625 -1.015625q-0.640625 -0.671875 -0.984375 -1.609375q-0.34375 -0.9375 -0.34375 -2.109375q0 -1.15625 0.28125 -2.09375q0.296875 -0.953125 0.859375 -1.625q0.5625 -0.671875 1.359375 -1.03125q0.8125 -0.375 1.859375 -0.375q0.703125 0 1.234375 0.171875q0.546875 0.171875 0.9375 0.375l0 -4.6875l2.265625 -0.375l0 14.1875zm2.322235 -4.53125q0 -1.296875 0.375 -2.265625q0.390625 -0.96875 1.015625 -1.609375q0.640625 -0.640625 1.46875 -0.96875q0.828125 -0.328125 1.671875 -0.328125q2.015625 0 3.140625 1.25q1.140625 1.25 1.140625 3.734375q0 0.1875 -0.015625 0.421875q0 0.234375 -0.03125 0.421875l-6.421875 0q0.09375 1.171875 0.828125 1.8125q0.734375 0.640625 2.125 0.640625q0.828125 0 1.5 -0.140625q0.6875 -0.15625 1.078125 -0.328125l0.296875 1.859375q-0.1875 0.078125 -0.515625 0.1875q-0.3125 0.109375 -0.734375 0.1875q-0.421875 0.078125 -0.90625 0.140625q-0.484375 0.0625 -1.0 0.0625q-1.28125 0 -2.234375 -0.375q-0.953125 -0.390625 -1.5625 -1.078125q-0.609375 -0.6875 -0.921875 -1.609375q-0.296875 -0.921875 -0.296875 -2.015625zm6.546875 -1.015625q0 -0.46875 -0.125 -0.875q-0.125 -0.421875 -0.390625 -0.734375q-0.25 -0.3125 -0.609375 -0.484375q-0.359375 -0.171875 -0.859375 -0.171875q-0.53125 0 -0.921875 0.203125q-0.390625 0.1875 -0.671875 0.5q-0.265625 0.3125 -0.421875 0.734375q-0.140625 0.40625 -0.1875 0.828125l4.1875 0z" fill-rule="nonzero"/><path fill="#000000" fill-opacity="0.0" d="m185.02362 93.45145c9.30542 0 13.957275 0.01574707 18.610825 0.03149414c4.653549 0.01574707 9.308762 0.03149414 18.617523 0.03149414" fill-rule="evenodd"/><path stroke="#434343" stroke-width="1.0" stroke-linejoin="round" stroke-linecap="butt" d="m185.02362 93.45145c9.305405 0 13.957291 0.01574707 18.61084 0.03149414c2.326767 0.007873535 4.653946 0.01574707 7.5630493 0.021652222c1.4545441 0.0029525757 3.0545654 0.00541687 4.8727417 0.007133484l0.18171692 8.392334E-5" fill-rule="evenodd"/><path fill="#434343" stroke="#434343" stroke-width="1.0" stroke-linecap="butt" d="m216.25125 95.16354l4.5388184 -1.6497498l-4.537384 -1.653717z" fill-rule="evenodd"/><path fill="#efefef" d="m407.47336 70.36506l0 0c0 -6.384014 5.1752625 -11.559284 11.559265 -11.559284l79.59009 0c3.0657349 0 6.00589 1.2178497 8.173676 3.3856354c2.1677856 2.1677895 3.38562 5.107937 3.38562 8.173649l0 46.235764c0 6.3840103 -5.1752625 11.559288 -11.559296 11.559288l-79.59009 0c-6.3840027 0 -11.559265 -5.1752777 -11.559265 -11.559288z" fill-rule="evenodd"/><path stroke="#434343" stroke-width="2.0" stroke-linejoin="round" stroke-linecap="butt" d="m407.47336 70.36506l0 0c0 -6.384014 5.1752625 -11.559284 11.559265 -11.559284l79.59009 0c3.0657349 0 6.00589 1.2178497 8.173676 3.3856354c2.1677856 2.1677895 3.38562 5.107937 3.38562 8.173649l0 46.235764c0 6.3840103 -5.1752625 11.559288 -11.559296 11.559288l-79.59009 0c-6.3840027 0 -11.559265 -5.1752777 -11.559265 -11.559288z" fill-rule="evenodd"/><path fill="#000000" d="m438.3441 90.96544q0.65625 -0.1875 1.6875 -0.359375q1.046875 -0.171875 2.328125 -0.171875q1.1875 0 1.984375 0.328125q0.8125 0.328125 1.28125 0.921875q0.484375 0.578125 0.671875 1.421875q0.203125 0.828125 0.203125 1.8125l0 5.484375l-2.265625 0l0 -5.125q0 -0.78125 -0.109375 -1.328125q-0.09375 -0.5625 -0.328125 -0.90625q-0.234375 -0.34375 -0.640625 -0.5q-0.390625 -0.15625 -0.96875 -0.15625q-0.4375 0 -0.90625 0.0625q-0.453125 0.046875 -0.6875 0.078125l0 7.875l-2.25 0l0 -9.4375zm19.742035 4.546875q0 1.15625 -0.34375 2.109375q-0.328125 0.953125 -0.953125 1.625q-0.609375 0.671875 -1.484375 1.046875q-0.859375 0.375 -1.90625 0.375q-1.046875 0 -1.90625 -0.375q-0.859375 -0.375 -1.484375 -1.046875q-0.609375 -0.671875 -0.953125 -1.625q-0.34375 -0.953125 -0.34375 -2.109375q0 -1.15625 0.34375 -2.09375q0.34375 -0.9375 0.96875 -1.609375q0.625 -0.671875 1.484375 -1.03125q0.859375 -0.375 1.890625 -0.375q1.03125 0 1.890625 0.375q0.875 0.359375 1.484375 1.03125q0.625 0.671875 0.96875 1.609375q0.34375 0.9375 0.34375 2.09375zm-2.3125 0q0 -1.453125 -0.625 -2.296875q-0.625 -0.859375 -1.75 -0.859375q-1.125 0 -1.75 0.859375q-0.625 0.84375 -0.625 2.296875q0 1.46875 0.625 2.328125q0.625 0.859375 1.75 0.859375q1.125 0 1.75 -0.859375q0.625 -0.859375 0.625 -2.328125zm6.406433 -0.015625q0 1.484375 0.703125 2.34375q0.71875 0.84375 1.96875 0.84375q0.546875 0 0.921875 -0.046875q0.390625 -0.046875 0.625 -0.09375l0 -5.609375q-0.296875 -0.203125 -0.796875 -0.375q-0.484375 -0.171875 -1.046875 -0.171875q-1.234375 0 -1.8125 0.84375q-0.5625 0.828125 -0.5625 2.265625zm6.484375 4.609375q-0.671875 0.203125 -1.6875 0.375q-1.015625 0.171875 -2.140625 0.171875q-1.15625 0 -2.078125 -0.359375q-0.90625 -0.359375 -1.5625 -1.015625q-0.640625 -0.671875 -0.984375 -1.609375q-0.34375 -0.9375 -0.34375 -2.109375q0 -1.15625 0.28125 -2.09375q0.296875 -0.953125 0.859375 -1.625q0.5625 -0.671875 1.359375 -1.03125q0.8125 -0.375 1.859375 -0.375q0.703125 0 1.234375 0.171875q0.546875 0.171875 0.9375 0.375l0 -4.6875l2.265625 -0.375l0 14.1875zm2.322235 -4.53125q0 -1.296875 0.375 -2.265625q0.390625 -0.96875 1.015625 -1.609375q0.640625 -0.640625 1.46875 -0.96875q0.828125 -0.328125 1.6719055 -0.328125q2.015625 0 3.140625 1.25q1.140625 1.25 1.140625 3.734375q0 0.1875 -0.015625 0.421875q0 0.234375 -0.03125 0.421875l-6.4219055 0q0.09375 1.171875 0.828125 1.8125q0.7344055 0.640625 2.1250305 0.640625q0.828125 0 1.5 -0.140625q0.6875 -0.15625 1.078125 -0.328125l0.296875 1.859375q-0.1875 0.078125 -0.515625 0.1875q-0.3125 0.109375 -0.734375 0.1875q-0.421875 0.078125 -0.90625 0.140625q-0.484375 0.0625 -1.0 0.0625q-1.2812805 0 -2.2344055 -0.375q-0.953125 -0.390625 -1.5625 -1.078125q-0.609375 -0.6875 -0.921875 -1.609375q-0.296875 -0.921875 -0.296875 -2.015625zm6.5469055 -1.015625q0 -0.46875 -0.125 -0.875q-0.125 -0.421875 -0.390625 -0.734375q-0.25 -0.3125 -0.609375 -0.484375q-0.359375 -0.171875 -0.859375 -0.171875q-0.53125 0 -0.9219055 0.203125q-0.390625 0.1875 -0.671875 0.5q-0.265625 0.3125 -0.421875 0.734375q-0.140625 0.40625 -0.1875 0.828125l4.1875305 0z" fill-rule="nonzero"/><path fill="#000000" fill-opacity="0.0" d="m367.19028 93.45145c10.070679 0 15.105896 0.01574707 20.141327 0.03149414c5.0354614 0.01574707 10.071075 0.03149414 20.14215 0.03149414" fill-rule="evenodd"/><path stroke="#000000" stroke-width="1.0" stroke-linejoin="round" stroke-linecap="butt" d="m367.19028 93.45145c10.070679 0 15.105896 0.01574707 20.141327 0.03149414c2.5177307 0.007873535 5.035492 0.01574707 8.182709 0.021652222c1.5736084 0.0029525757 3.304596 0.00541687 5.2716064 0.007133484l0.6878357 2.822876E-4" fill-rule="evenodd"/><path fill="#000000" stroke="#000000" stroke-width="1.0" stroke-linecap="butt" d="m401.47308 95.16374l4.5387573 -1.6498947l-4.5374146 -1.6535721z" fill-rule="evenodd"/><path fill="#efefef" d="m243.36311 167.9215l0 0c0 -6.384018 5.1752777 -11.559296 11.55928 -11.559296l79.59009 0c3.0657349 0 6.0058594 1.2178497 8.173645 3.3856506c2.1677856 2.1677856 3.3856506 5.1079254 3.3856506 8.173645l0 46.23575c0 6.384018 -5.1752625 11.559296 -11.559296 11.559296l-79.59009 0c-6.3840027 0 -11.55928 -5.1752777 -11.55928 -11.559296z" fill-rule="evenodd"/><path stroke="#434343" stroke-width="2.0" stroke-linejoin="round" stroke-linecap="butt" d="m243.36311 167.9215l0 0c0 -6.384018 5.1752777 -11.559296 11.55928 -11.559296l79.59009 0c3.0657349 0 6.0058594 1.2178497 8.173645 3.3856506c2.1677856 2.1677856 3.3856506 5.1079254 3.3856506 8.173645l0 46.23575c0 6.384018 -5.1752625 11.559296 -11.559296 11.559296l-79.59009 0c-6.3840027 0 -11.55928 -5.1752777 -11.55928 -11.559296z" fill-rule="evenodd"/><path fill="#000000" d="m274.23386 188.52187q0.65625 -0.1875 1.6875 -0.359375q1.046875 -0.171875 2.328125 -0.171875q1.1875 0 1.984375 0.328125q0.8125 0.328125 1.28125 0.921875q0.484375 0.578125 0.671875 1.421875q0.203125 0.828125 0.203125 1.8125l0 5.484375l-2.265625 0l0 -5.125q0 -0.78125 -0.109375 -1.328125q-0.09375 -0.5625 -0.328125 -0.90625q-0.234375 -0.34375 -0.640625 -0.5q-0.390625 -0.15625 -0.96875 -0.15625q-0.4375 0 -0.90625 0.0625q-0.453125 0.046875 -0.6875 0.078125l0 7.875l-2.25 0l0 -9.4375zm19.742035 4.546875q0 1.15625 -0.34375 2.109375q-0.328125 0.953125 -0.953125 1.625q-0.609375 0.671875 -1.484375 1.046875q-0.859375 0.375 -1.90625 0.375q-1.046875 0 -1.90625 -0.375q-0.859375 -0.375 -1.484375 -1.046875q-0.609375 -0.671875 -0.953125 -1.625q-0.34375 -0.953125 -0.34375 -2.109375q0 -1.15625 0.34375 -2.09375q0.34375 -0.9375 0.96875 -1.609375q0.625 -0.671875 1.484375 -1.03125q0.859375 -0.375 1.890625 -0.375q1.03125 0 1.890625 0.375q0.875 0.359375 1.484375 1.03125q0.625 0.671875 0.96875 1.609375q0.34375 0.9375 0.34375 2.09375zm-2.3125 0q0 -1.453125 -0.625 -2.296875q-0.625 -0.859375 -1.75 -0.859375q-1.125 0 -1.75 0.859375q-0.625 0.84375 -0.625 2.296875q0 1.46875 0.625 2.328125q0.625 0.859375 1.75 0.859375q1.125 0 1.75 -0.859375q0.625 -0.859375 0.625 -2.328125zm6.406433 -0.015625q0 1.484375 0.703125 2.34375q0.71875 0.84375 1.96875 0.84375q0.546875 0 0.921875 -0.046875q0.390625 -0.046875 0.625 -0.09375l0 -5.609375q-0.296875 -0.203125 -0.796875 -0.375q-0.484375 -0.171875 -1.046875 -0.171875q-1.234375 0 -1.8125 0.84375q-0.5625 0.828125 -0.5625 2.265625zm6.484375 4.609375q-0.671875 0.203125 -1.6875 0.375q-1.015625 0.171875 -2.140625 0.171875q-1.15625 0 -2.078125 -0.359375q-0.90625 -0.359375 -1.5625 -1.015625q-0.640625 -0.671875 -0.984375 -1.609375q-0.34375 -0.9375 -0.34375 -2.109375q0 -1.15625 0.28125 -2.09375q0.296875 -0.953125 0.859375 -1.625q0.5625 -0.671875 1.359375 -1.03125q0.8125 -0.375 1.859375 -0.375q0.703125 0 1.234375 0.171875q0.546875 0.171875 0.9375 0.375l0 -4.6875l2.265625 -0.375l0 14.1875zm2.322235 -4.53125q0 -1.296875 0.375 -2.265625q0.390625 -0.96875 1.015625 -1.609375q0.640625 -0.640625 1.46875 -0.96875q0.828125 -0.328125 1.671875 -0.328125q2.015625 0 3.140625 1.25q1.140625 1.25 1.140625 3.734375q0 0.1875 -0.015625 0.421875q0 0.234375 -0.03125 0.421875l-6.421875 0q0.09375 1.171875 0.828125 1.8125q0.734375 0.640625 2.125 0.640625q0.828125 0 1.5 -0.140625q0.6875 -0.15625 1.078125 -0.328125l0.296875 1.859375q-0.1875 0.078125 -0.515625 0.1875q-0.3125 0.109375 -0.734375 0.1875q-0.421875 0.078125 -0.90625 0.140625q-0.484375 0.0625 -1.0 0.0625q-1.28125 0 -2.234375 -0.375q-0.953125 -0.390625 -1.5625 -1.078125q-0.609375 -0.6875 -0.921875 -1.609375q-0.296875 -0.921875 -0.296875 -2.015625zm6.546875 -1.015625q0 -0.46875 -0.125 -0.875q-0.125 -0.421875 -0.390625 -0.734375q-0.25 -0.3125 -0.609375 -0.484375q-0.359375 -0.171875 -0.859375 -0.171875q-0.53125 0 -0.921875 0.203125q-0.390625 0.1875 -0.671875 0.5q-0.265625 0.3125 -0.421875 0.734375q-0.140625 0.40625 -0.1875 0.828125l4.1875 0z" fill-rule="nonzero"/><path fill="#efefef" d="m376.77255 167.9215l0 0c0 -6.384018 5.175293 -11.559296 11.559296 -11.559296l79.59009 0c3.0657043 0 6.0058594 1.2178497 8.173645 3.3856506c2.1677856 2.1677856 3.3856506 5.1079254 3.3856506 8.173645l0 46.23575c0 6.384018 -5.1752625 11.559296 -11.559296 11.559296l-79.59009 0c-6.3840027 0 -11.559296 -5.1752777 -11.559296 -11.559296z" fill-rule="evenodd"/><path stroke="#434343" stroke-width="2.0" stroke-linejoin="round" stroke-linecap="butt" d="m376.77255 167.9215l0 0c0 -6.384018 5.175293 -11.559296 11.559296 -11.559296l79.59009 0c3.0657043 0 6.0058594 1.2178497 8.173645 3.3856506c2.1677856 2.1677856 3.3856506 5.1079254 3.3856506 8.173645l0 46.23575c0 6.384018 -5.1752625 11.559296 -11.559296 11.559296l-79.59009 0c-6.3840027 0 -11.559296 -5.1752777 -11.559296 -11.559296z" fill-rule="evenodd"/><path fill="#000000" d="m407.6433 188.52187q0.65625 -0.1875 1.6875 -0.359375q1.046875 -0.171875 2.328125 -0.171875q1.1875 0 1.984375 0.328125q0.8125 0.328125 1.28125 0.921875q0.484375 0.578125 0.671875 1.421875q0.203125 0.828125 0.203125 1.8125l0 5.484375l-2.265625 0l0 -5.125q0 -0.78125 -0.109375 -1.328125q-0.09375 -0.5625 -0.328125 -0.90625q-0.234375 -0.34375 -0.640625 -0.5q-0.390625 -0.15625 -0.96875 -0.15625q-0.4375 0 -0.90625 0.0625q-0.453125 0.046875 -0.6875 0.078125l0 7.875l-2.25 0l0 -9.4375zm19.742035 4.546875q0 1.15625 -0.34375 2.109375q-0.328125 0.953125 -0.953125 1.625q-0.609375 0.671875 -1.484375 1.046875q-0.859375 0.375 -1.90625 0.375q-1.046875 0 -1.90625 -0.375q-0.859375 -0.375 -1.484375 -1.046875q-0.609375 -0.671875 -0.953125 -1.625q-0.34375 -0.953125 -0.34375 -2.109375q0 -1.15625 0.34375 -2.09375q0.34375 -0.9375 0.96875 -1.609375q0.625 -0.671875 1.484375 -1.03125q0.859375 -0.375 1.890625 -0.375q1.03125 0 1.890625 0.375q0.875 0.359375 1.484375 1.03125q0.625 0.671875 0.96875 1.609375q0.34375 0.9375 0.34375 2.09375zm-2.3125 0q0 -1.453125 -0.625 -2.296875q-0.625 -0.859375 -1.75 -0.859375q-1.125 0 -1.75 0.859375q-0.625 0.84375 -0.625 2.296875q0 1.46875 0.625 2.328125q0.625 0.859375 1.75 0.859375q1.125 0 1.75 -0.859375q0.625 -0.859375 0.625 -2.328125zm6.406433 -0.015625q0 1.484375 0.703125 2.34375q0.71875 0.84375 1.96875 0.84375q0.546875 0 0.921875 -0.046875q0.390625 -0.046875 0.625 -0.09375l0 -5.609375q-0.296875 -0.203125 -0.796875 -0.375q-0.484375 -0.171875 -1.046875 -0.171875q-1.234375 0 -1.8125 0.84375q-0.5625 0.828125 -0.5625 2.265625zm6.484375 4.609375q-0.671875 0.203125 -1.6875 0.375q-1.015625 0.171875 -2.140625 0.171875q-1.15625 0 -2.078125 -0.359375q-0.90625 -0.359375 -1.5625 -1.015625q-0.640625 -0.671875 -0.984375 -1.609375q-0.34375 -0.9375 -0.34375 -2.109375q0 -1.15625 0.28125 -2.09375q0.296875 -0.953125 0.859375 -1.625q0.5625 -0.671875 1.359375 -1.03125q0.8125 -0.375 1.859375 -0.375q0.703125 0 1.234375 0.171875q0.546875 0.171875 0.9375 0.375l0 -4.6875l2.265625 -0.375l0 14.1875zm2.322235 -4.53125q0 -1.296875 0.375 -2.265625q0.390625 -0.96875 1.015625 -1.609375q0.640625 -0.640625 1.46875 -0.96875q0.828125 -0.328125 1.671875 -0.328125q2.015625 0 3.140625 1.25q1.140625 1.25 1.140625 3.734375q0 0.1875 -0.015625 0.421875q0 0.234375 -0.03125 0.421875l-6.421875 0q0.09375 1.171875 0.828125 1.8125q0.734375 0.640625 2.125 0.640625q0.828125 0 1.5 -0.140625q0.6875 -0.15625 1.078125 -0.328125l0.296875 1.859375q-0.1875 0.078125 -0.515625 0.1875q-0.3125 0.109375 -0.734375 0.1875q-0.421875 0.078125 -0.90625 0.140625q-0.484375 0.0625 -1.0 0.0625q-1.28125 0 -2.234375 -0.375q-0.953125 -0.390625 -1.5625 -1.078125q-0.609375 -0.6875 -0.921875 -1.609375q-0.296875 -0.921875 -0.296875 -2.015625zm6.546875 -1.015625q0 -0.46875 -0.125 -0.875q-0.125 -0.421875 -0.390625 -0.734375q-0.25 -0.3125 -0.609375 -0.484375q-0.359375 -0.171875 -0.859375 -0.171875q-0.53125 0 -0.921875 0.203125q-0.390625 0.1875 -0.671875 0.5q-0.265625 0.3125 -0.421875 0.734375q-0.140625 0.40625 -0.1875 0.828125l4.1875 0z" fill-rule="nonzero"/><path fill="#efefef" d="m577.203 70.39655l0 0c0 -6.3840103 5.175293 -11.559284 11.559265 -11.559284l79.59009 0c3.0657349 0 6.0059204 1.2178497 8.173706 3.3856392c2.1677856 2.1677856 3.38562 5.107933 3.38562 8.173645l0 46.235764c0 6.384018 -5.175293 11.559288 -11.559326 11.559288l-79.59009 0c-6.383972 0 -11.559265 -5.17527 -11.559265 -11.559288z" fill-rule="evenodd"/><path stroke="#434343" stroke-width="2.0" stroke-linejoin="round" stroke-linecap="butt" d="m577.203 70.39655l0 0c0 -6.3840103 5.175293 -11.559284 11.559265 -11.559284l79.59009 0c3.0657349 0 6.0059204 1.2178497 8.173706 3.3856392c2.1677856 2.1677856 3.38562 5.107933 3.38562 8.173645l0 46.235764c0 6.384018 -5.175293 11.559288 -11.559326 11.559288l-79.59009 0c-6.383972 0 -11.559265 -5.17527 -11.559265 -11.559288z" fill-rule="evenodd"/><path fill="#000000" d="m608.0737 90.99693q0.65625 -0.1875 1.6875 -0.359375q1.046875 -0.171875 2.328125 -0.171875q1.1875 0 1.984375 0.328125q0.8125 0.328125 1.28125 0.921875q0.484375 0.578125 0.671875 1.421875q0.203125 0.828125 0.203125 1.8125l0 5.484375l-2.265625 0l0 -5.125q0 -0.78125 -0.109375 -1.328125q-0.09375 -0.5625 -0.328125 -0.90625q-0.234375 -0.34375 -0.640625 -0.5q-0.390625 -0.15625 -0.96875 -0.15625q-0.4375 0 -0.90625 0.0625q-0.453125 0.046875 -0.6875 0.078125l0 7.875l-2.25 0l0 -9.4375zm19.742065 4.546875q0 1.15625 -0.34375 2.109375q-0.328125 0.953125 -0.953125 1.625q-0.609375 0.671875 -1.484375 1.046875q-0.859375 0.375 -1.90625 0.375q-1.046875 0 -1.90625 -0.375q-0.859375 -0.375 -1.484375 -1.046875q-0.609375 -0.671875 -0.953125 -1.625q-0.34375 -0.953125 -0.34375 -2.109375q0 -1.15625 0.34375 -2.09375q0.34375 -0.9375 0.96875 -1.609375q0.625 -0.671875 1.484375 -1.03125q0.859375 -0.375 1.890625 -0.375q1.03125 0 1.890625 0.375q0.875 0.359375 1.484375 1.03125q0.625 0.671875 0.96875 1.609375q0.34375 0.9375 0.34375 2.09375zm-2.3125 0q0 -1.453125 -0.625 -2.296875q-0.625 -0.859375 -1.75 -0.859375q-1.125 0 -1.75 0.859375q-0.625 0.84375 -0.625 2.296875q0 1.46875 0.625 2.328125q0.625 0.859375 1.75 0.859375q1.125 0 1.75 -0.859375q0.625 -0.859375 0.625 -2.328125zm6.406433 -0.015625q0 1.484375 0.703125 2.34375q0.71875 0.84375 1.96875 0.84375q0.546875 0 0.921875 -0.046875q0.390625 -0.046875 0.625 -0.09375l0 -5.609375q-0.296875 -0.203125 -0.796875 -0.375q-0.484375 -0.171875 -1.046875 -0.171875q-1.234375 0 -1.8125 0.84375q-0.5625 0.828125 -0.5625 2.265625zm6.484375 4.609375q-0.671875 0.203125 -1.6875 0.375q-1.015625 0.171875 -2.140625 0.171875q-1.15625 0 -2.078125 -0.359375q-0.90625 -0.359375 -1.5625 -1.015625q-0.640625 -0.671875 -0.984375 -1.609375q-0.34375 -0.9375 -0.34375 -2.109375q0 -1.15625 0.28125 -2.09375q0.296875 -0.953125 0.859375 -1.625q0.5625 -0.671875 1.359375 -1.03125q0.8125 -0.375 1.859375 -0.375q0.703125 0 1.234375 0.171875q0.546875 0.171875 0.9375 0.375l0 -4.6875l2.265625 -0.375l0 14.1875zm2.3222046 -4.53125q0 -1.296875 0.375 -2.265625q0.390625 -0.96875 1.015625 -1.609375q0.640625 -0.640625 1.46875 -0.96875q0.828125 -0.328125 1.671936 -0.328125q2.015625 0 3.140625 1.25q1.140625 1.25 1.140625 3.734375q0 0.1875 -0.015625 0.421875q0 0.234375 -0.03125 0.421875l-6.421936 0q0.09375 1.171875 0.828125 1.8125q0.73443604 0.640625 2.125061 0.640625q0.828125 0 1.5 -0.140625q0.6875 -0.15625 1.078125 -0.328125l0.296875 1.859375q-0.1875 0.078125 -0.515625 0.1875q-0.3125 0.109375 -0.734375 0.1875q-0.421875 0.078125 -0.90625 0.140625q-0.484375 0.0625 -1.0 0.0625q-1.281311 0 -2.234436 -0.375q-0.953125 -0.390625 -1.5625 -1.078125q-0.609375 -0.6875 -0.921875 -1.609375q-0.296875 -0.921875 -0.296875 -2.015625zm6.546936 -1.015625q0 -0.46875 -0.125 -0.875q-0.125 -0.421875 -0.390625 -0.734375q-0.25 -0.3125 -0.609375 -0.484375q-0.359375 -0.171875 -0.859375 -0.171875q-0.53125 0 -0.92193604 0.203125q-0.390625 0.1875 -0.671875 0.5q-0.265625 0.3125 -0.421875 0.734375q-0.140625 0.40625 -0.1875 0.828125l4.187561 0z" fill-rule="nonzero"/><path fill="#efefef" d="m510.182 167.95168l0 0c0 -6.384018 5.175293 -11.55928 11.559265 -11.55928l79.59009 0c3.0657349 0 6.0059204 1.2178497 8.173706 3.3856354c2.1677856 2.1677856 3.38562 5.1079254 3.38562 8.173645l0 46.235764c0 6.384018 -5.175293 11.55928 -11.559326 11.55928l-79.59009 0c-6.383972 0 -11.559265 -5.1752625 -11.559265 -11.55928z" fill-rule="evenodd"/><path stroke="#434343" stroke-width="2.0" stroke-linejoin="round" stroke-linecap="butt" d="m510.182 167.95168l0 0c0 -6.384018 5.175293 -11.55928 11.559265 -11.55928l79.59009 0c3.0657349 0 6.0059204 1.2178497 8.173706 3.3856354c2.1677856 2.1677856 3.38562 5.1079254 3.38562 8.173645l0 46.235764c0 6.384018 -5.175293 11.55928 -11.559326 11.55928l-79.59009 0c-6.383972 0 -11.559265 -5.1752625 -11.559265 -11.55928z" fill-rule="evenodd"/><path fill="#000000" d="m541.05273 188.55205q0.65625 -0.1875 1.6875 -0.359375q1.046875 -0.171875 2.328125 -0.171875q1.1875 0 1.984375 0.328125q0.8125 0.328125 1.28125 0.921875q0.484375 0.578125 0.671875 1.421875q0.203125 0.828125 0.203125 1.8125l0 5.484375l-2.265625 0l0 -5.125q0 -0.78125 -0.109375 -1.328125q-0.09375 -0.5625 -0.328125 -0.90625q-0.234375 -0.34375 -0.640625 -0.5q-0.390625 -0.15625 -0.96875 -0.15625q-0.4375 0 -0.90625 0.0625q-0.453125 0.046875 -0.6875 0.078125l0 7.875l-2.25 0l0 -9.4375zm19.742065 4.546875q0 1.15625 -0.34375 2.109375q-0.328125 0.953125 -0.953125 1.625q-0.609375 0.671875 -1.484375 1.046875q-0.859375 0.375 -1.90625 0.375q-1.046875 0 -1.90625 -0.375q-0.859375 -0.375 -1.484375 -1.046875q-0.609375 -0.671875 -0.953125 -1.625q-0.34375 -0.953125 -0.34375 -2.109375q0 -1.15625 0.34375 -2.09375q0.34375 -0.9375 0.96875 -1.609375q0.625 -0.671875 1.484375 -1.03125q0.859375 -0.375 1.890625 -0.375q1.03125 0 1.890625 0.375q0.875 0.359375 1.484375 1.03125q0.625 0.671875 0.96875 1.609375q0.34375 0.9375 0.34375 2.09375zm-2.3125 0q0 -1.453125 -0.625 -2.296875q-0.625 -0.859375 -1.75 -0.859375q-1.125 0 -1.75 0.859375q-0.625 0.84375 -0.625 2.296875q0 1.46875 0.625 2.328125q0.625 0.859375 1.75 0.859375q1.125 0 1.75 -0.859375q0.625 -0.859375 0.625 -2.328125zm6.406433 -0.015625q0 1.484375 0.703125 2.34375q0.71875 0.84375 1.96875 0.84375q0.546875 0 0.921875 -0.046875q0.390625 -0.046875 0.625 -0.09375l0 -5.609375q-0.296875 -0.203125 -0.796875 -0.375q-0.484375 -0.171875 -1.046875 -0.171875q-1.234375 0 -1.8125 0.84375q-0.5625 0.828125 -0.5625 2.265625zm6.484375 4.609375q-0.671875 0.203125 -1.6875 0.375q-1.015625 0.171875 -2.140625 0.171875q-1.15625 0 -2.078125 -0.359375q-0.90625 -0.359375 -1.5625 -1.015625q-0.640625 -0.671875 -0.984375 -1.609375q-0.34375 -0.9375 -0.34375 -2.109375q0 -1.15625 0.28125 -2.09375q0.296875 -0.953125 0.859375 -1.625q0.5625 -0.671875 1.359375 -1.03125q0.8125 -0.375 1.859375 -0.375q0.703125 0 1.234375 0.171875q0.546875 0.171875 0.9375 0.375l0 -4.6875l2.265625 -0.375l0 14.1875zm2.3222046 -4.53125q0 -1.296875 0.375 -2.265625q0.390625 -0.96875 1.015625 -1.609375q0.640625 -0.640625 1.46875 -0.96875q0.828125 -0.328125 1.671936 -0.328125q2.015625 0 3.140625 1.25q1.140625 1.25 1.140625 3.734375q0 0.1875 -0.015625 0.421875q0 0.234375 -0.03125 0.421875l-6.421936 0q0.09375 1.171875 0.828125 1.8125q0.73443604 0.640625 2.125061 0.640625q0.828125 0 1.5 -0.140625q0.6875 -0.15625 1.078125 -0.328125l0.296875 1.859375q-0.1875 0.078125 -0.515625 0.1875q-0.3125 0.109375 -0.734375 0.1875q-0.421875 0.078125 -0.90625 0.140625q-0.484375 0.0625 -1.0 0.0625q-1.281311 0 -2.234436 -0.375q-0.953125 -0.390625 -1.5625 -1.078125q-0.609375 -0.6875 -0.921875 -1.609375q-0.296875 -0.921875 -0.296875 -2.015625zm6.546936 -1.015625q0 -0.46875 -0.125 -0.875q-0.125 -0.421875 -0.390625 -0.734375q-0.25 -0.3125 -0.609375 -0.484375q-0.359375 -0.171875 -0.859375 -0.171875q-0.53125 0 -0.92193604 0.203125q-0.390625 0.1875 -0.671875 0.5q-0.265625 0.3125 -0.421875 0.734375q-0.140625 0.40625 -0.1875 0.828125l4.187561 0z" fill-rule="nonzero"/><path fill="#000000" fill-opacity="0.0" d="m294.71783 128.12862c0 7.0583496 0.015777588 10.589157 0.03152466 14.1167145c0.01574707 3.5275574 0.03149414 7.05188 0.03149414 14.1037445" fill-rule="evenodd"/><path stroke="#000000" stroke-width="1.0" stroke-linejoin="round" stroke-linecap="butt" d="m294.71783 128.12862c0 7.058365 0.01574707 10.589157 0.03149414 14.1167145c0.007904053 1.7637787 0.015777588 3.5267487 0.02166748 5.730255l0.0046081543 2.3734894" fill-rule="evenodd"/><path fill="#000000" stroke="#000000" stroke-width="1.0" stroke-linecap="butt" d="m293.12384 150.35052l1.6557312 4.5366516l1.6477356 -4.5395355z" fill-rule="evenodd"/><path fill="#000000" fill-opacity="0.0" d="m346.07178 191.03937c7.675171 0 11.511749 0.01574707 15.350342 0.03149414c3.8385925 0.01574707 7.6791687 0.03149414 15.358307 0.03149414" fill-rule="evenodd"/><path stroke="#000000" stroke-width="1.0" stroke-linejoin="round" stroke-linecap="butt" d="m346.07178 191.03937c7.6752014 0 11.511749 0.01574707 15.350342 0.03149414c1.919281 0.007873535 3.8390808 0.01574707 6.238983 0.021652222l3.1193237 0.0055389404" fill-rule="evenodd"/><path fill="#000000" stroke="#000000" stroke-width="1.0" stroke-linecap="butt" d="m370.77924 192.74979l4.5393066 -1.648468l-4.5369263 -1.6549988z" fill-rule="evenodd"/><path fill="#000000" fill-opacity="0.0" d="m479.48123 191.03937c7.675171 0 11.511749 0.01574707 15.350342 0.03149414c3.838562 0.01574707 7.679138 0.03149414 15.358307 0.03149414" fill-rule="evenodd"/><path stroke="#000000" stroke-width="1.0" stroke-linejoin="round" stroke-linecap="butt" d="m479.48123 191.03937c7.675171 0 11.511749 0.01574707 15.350342 0.03149414c1.919281 0.007873535 3.8390808 0.01574707 6.2389526 0.021652222l3.1193542 0.0055389404" fill-rule="evenodd"/><path fill="#000000" stroke="#000000" stroke-width="1.0" stroke-linecap="butt" d="m504.1887 192.74979l4.539276 -1.648468l-4.5368958 -1.6549988z" fill-rule="evenodd"/><path fill="#000000" fill-opacity="0.0" d="m510.182 93.48294c16.755249 0 25.132507 0.01574707 33.510498 0.03149414c8.37793 0.01574707 16.75653 0.03149414 33.513123 0.03149414" fill-rule="evenodd"/><path stroke="#000000" stroke-width="1.0" stroke-linejoin="round" stroke-linecap="butt" d="m510.182 93.48294c16.755249 0 25.132568 0.01574707 33.510498 0.03149414c4.188965 0.007873535 8.378113 0.01574707 13.614563 0.021652222c2.618225 0.0029525757 5.498291 0.00541687 8.771118 0.0071411133l5.1274414 0.0012512207" fill-rule="evenodd"/><path fill="#000000" stroke="#000000" stroke-width="1.0" stroke-linecap="butt" d="m571.2052 95.196205l4.538513 -1.6506271l-4.5376587 -1.6528397z" fill-rule="evenodd"/><path fill="#000000" fill-opacity="0.0" d="m510.182 93.48294c25.685059 0 51.370056 31.448814 51.370056 62.897644" fill-rule="evenodd"/><path stroke="#000000" stroke-width="1.0" stroke-linejoin="round" stroke-linecap="butt" d="m510.182 93.48294c12.842529 0 25.685059 7.8622055 35.316956 19.65551c4.815918 5.896652 8.829224 12.776085 11.638489 20.146904c1.4046631 3.6854095 2.5083008 7.4936676 3.2608032 11.363342c0.18811035 0.9674072 0.35430908 1.9386749 0.4977417 2.9128113c0.07171631 0.4870758 0.13775635 0.9748535 0.19805908 1.4632568c0.030090332 0.2441864 0.058776855 0.4885254 0.085998535 0.7330017l0.06640625 0.6306" fill-rule="evenodd"/><path fill="#000000" stroke="#000000" stroke-width="1.0" stroke-linecap="butt" d="m559.5969 150.47249l1.8806763 4.4480896l1.418457 -4.6163483z" fill-rule="evenodd"/><path fill="#d9d2e9" d="m725.85657 70.333565l0 0c0 -6.384018 5.175232 -11.559288 11.559265 -11.559288l79.59009 0c3.0657349 0 6.0058594 1.2178497 8.173645 3.3856392c2.1677856 2.1677818 3.38562 5.107937 3.38562 8.173649l0 46.235756c0 6.384018 -5.175232 11.559296 -11.559265 11.559296l-79.59009 0c-6.384033 0 -11.559265 -5.1752777 -11.559265 -11.559296z" fill-rule="evenodd"/><path stroke="#434343" stroke-width="2.0" stroke-linejoin="round" stroke-linecap="butt" d="m725.85657 70.333565l0 0c0 -6.384018 5.175232 -11.559288 11.559265 -11.559288l79.59009 0c3.0657349 0 6.0058594 1.2178497 8.173645 3.3856392c2.1677856 2.1677818 3.38562 5.107937 3.38562 8.173649l0 46.235756c0 6.384018 -5.175232 11.559296 -11.559265 11.559296l-79.59009 0c-6.384033 0 -11.559265 -5.1752777 -11.559265 -11.559296z" fill-rule="evenodd"/><path fill="#000000" d="m740.7847 94.672066q0 1.171875 0.5625 1.84375q0.5625 0.671875 1.53125 0.671875q0.4375 0 0.734375 -0.03125q0.296875 -0.046875 0.484375 -0.09375l0 -4.390625q-0.234375 -0.171875 -0.625 -0.296875q-0.375 -0.140625 -0.828125 -0.140625q-0.953125 0 -1.40625 0.65625q-0.453125 0.65625 -0.453125 1.78125zm5.09375 3.625q-0.53125 0.15625 -1.328125 0.28125q-0.796875 0.140625 -1.671875 0.140625q-0.921875 0 -1.640625 -0.265625q-0.71875 -0.28125 -1.21875 -0.796875q-0.5 -0.53125 -0.78125 -1.265625q-0.265625 -0.75 -0.265625 -1.671875q0 -0.90625 0.21875 -1.640625q0.234375 -0.75 0.671875 -1.265625q0.4375 -0.53125 1.0625 -0.8125q0.640625 -0.296875 1.46875 -0.296875q0.546875 0 0.96875 0.140625q0.4375 0.125 0.734375 0.28125l0 -3.671875l1.78125 -0.296875l0 11.140625zm1.8288574 -3.5625q0 -1.015625 0.296875 -1.765625q0.296875 -0.765625 0.796875 -1.265625q0.5 -0.515625 1.140625 -0.765625q0.65625 -0.265625 1.328125 -0.265625q1.578125 0 2.46875 0.984375q0.890625 0.984375 0.890625 2.9375q0 0.140625 -0.015625 0.328125q0 0.1875 -0.015625 0.328125l-5.0625 0q0.078125 0.921875 0.65625 1.4375q0.578125 0.5 1.671875 0.5q0.65625 0 1.1875 -0.109375q0.53125 -0.125 0.84375 -0.265625l0.234375 1.453125q-0.15625 0.078125 -0.40625 0.15625q-0.25 0.078125 -0.59375 0.140625q-0.328125 0.078125 -0.703125 0.109375q-0.375 0.046875 -0.78125 0.046875q-1.0 0 -1.75 -0.296875q-0.75 -0.296875 -1.234375 -0.828125q-0.484375 -0.546875 -0.71875 -1.265625q-0.234375 -0.734375 -0.234375 -1.59375zm5.140625 -0.796875q0 -0.359375 -0.109375 -0.6875q-0.09375 -0.328125 -0.296875 -0.5625q-0.1875 -0.25 -0.484375 -0.390625q-0.28125 -0.140625 -0.671875 -0.140625q-0.40625 0 -0.71875 0.15625q-0.3125 0.15625 -0.53125 0.40625q-0.203125 0.25 -0.328125 0.578125q-0.109375 0.3125 -0.15625 0.640625l3.296875 0zm5.5718994 3.3125q0.703125 0 1.015625 -0.15625q0.328125 -0.171875 0.328125 -0.578125q0 -0.390625 -0.34375 -0.640625q-0.34375 -0.25 -1.125 -0.53125q-0.484375 -0.1875 -0.890625 -0.375q-0.40625 -0.203125 -0.703125 -0.46875q-0.28125 -0.265625 -0.453125 -0.640625q-0.171875 -0.375 -0.171875 -0.90625q0 -1.0625 0.765625 -1.671875q0.78125 -0.609375 2.125 -0.609375q0.671875 0 1.28125 0.125q0.625 0.125 0.921875 0.25l-0.3125 1.4375q-0.296875 -0.140625 -0.75 -0.25q-0.453125 -0.109375 -1.0625 -0.109375q-0.53125 0 -0.875 0.1875q-0.328125 0.1875 -0.328125 0.5625q0 0.1875 0.0625 0.34375q0.0625 0.140625 0.21875 0.265625q0.171875 0.125 0.421875 0.25q0.265625 0.125 0.65625 0.25q0.625 0.234375 1.0625 0.46875q0.4375 0.21875 0.71875 0.515625q0.296875 0.28125 0.421875 0.65625q0.140625 0.359375 0.140625 0.875q0 1.09375 -0.8125 1.65625q-0.8125 0.5625 -2.328125 0.5625q-1.015625 0 -1.625 -0.171875q-0.609375 -0.15625 -0.859375 -0.265625l0.296875 -1.484375q0.40625 0.171875 0.953125 0.3125q0.546875 0.140625 1.25 0.140625zm4.697937 -8.40625l1.765625 -0.296875l0 2.3125l2.734375 0l0 1.484375l-2.734375 0l0 3.125q0 0.921875 0.296875 1.328125q0.296875 0.390625 1.0 0.390625q0.484375 0 0.84375 -0.09375q0.375 -0.109375 0.609375 -0.203125l0.28125 1.40625q-0.296875 0.125 -0.796875 0.265625q-0.5 0.140625 -1.171875 0.140625q-0.828125 0 -1.375 -0.21875q-0.546875 -0.21875 -0.875 -0.625q-0.328125 -0.421875 -0.453125 -1.015625q-0.125 -0.59375 -0.125 -1.359375l0 -6.640625zm8.001343 9.6875l-1.78125 0l0 -7.671875l1.78125 0l0 7.671875zm0.1875 -9.90625q0 0.5 -0.328125 0.796875q-0.3125 0.28125 -0.765625 0.28125q-0.453125 0 -0.78125 -0.28125q-0.3125 -0.296875 -0.3125 -0.796875q0 -0.515625 0.3125 -0.796875q0.328125 -0.296875 0.78125 -0.296875q0.453125 0 0.765625 0.296875q0.328125 0.28125 0.328125 0.796875zm2.06073 2.484375q0.515625 -0.140625 1.328125 -0.265625q0.828125 -0.140625 1.828125 -0.140625q0.9375 0 1.5625 0.265625q0.640625 0.25 1.0 0.71875q0.375 0.453125 0.53125 1.109375q0.15625 0.65625 0.15625 1.421875l0 4.3125l-1.765625 0l0 -4.03125q0 -0.609375 -0.09375 -1.046875q-0.078125 -0.4375 -0.265625 -0.703125q-0.171875 -0.265625 -0.484375 -0.390625q-0.3125 -0.125 -0.78125 -0.125q-0.328125 0 -0.703125 0.046875q-0.359375 0.03125 -0.53125 0.0625l0 6.1875l-1.78125 0l0 -7.421875zm11.2771 6.171875q0.8125 0 1.25 -0.078125l0 -1.96875q-0.15625 -0.046875 -0.4375 -0.078125q-0.265625 -0.046875 -0.609375 -0.046875q-0.296875 0 -0.59375 0.046875q-0.296875 0.03125 -0.546875 0.15625q-0.234375 0.109375 -0.390625 0.328125q-0.140625 0.203125 -0.140625 0.53125q0 0.625 0.390625 0.875q0.40625 0.234375 1.078125 0.234375zm-0.15625 -6.609375q0.890625 0 1.484375 0.21875q0.609375 0.21875 0.96875 0.625q0.359375 0.390625 0.5 0.953125q0.15625 0.5625 0.15625 1.234375l0 4.65625q-0.40625 0.078125 -1.234375 0.203125q-0.828125 0.125 -1.875 0.125q-0.6875 0 -1.265625 -0.140625q-0.5625 -0.125 -0.96875 -0.40625q-0.390625 -0.296875 -0.625 -0.765625q-0.21875 -0.46875 -0.21875 -1.15625q0 -0.65625 0.25 -1.109375q0.25 -0.46875 0.6875 -0.75q0.453125 -0.28125 1.03125 -0.40625q0.578125 -0.125 1.203125 -0.125q0.296875 0 0.609375 0.046875q0.328125 0.03125 0.703125 0.109375l0 -0.296875q0 -0.296875 -0.078125 -0.578125q-0.078125 -0.28125 -0.265625 -0.484375q-0.171875 -0.21875 -0.484375 -0.328125q-0.296875 -0.125 -0.75 -0.125q-0.609375 0 -1.125 0.09375q-0.515625 0.078125 -0.84375 0.203125l-0.21875 -1.4375q0.34375 -0.125 0.984375 -0.234375q0.65625 -0.125 1.375 -0.125zm5.201477 -1.828125l1.765625 -0.296875l0 2.3125l2.734375 0l0 1.484375l-2.734375 0l0 3.125q0 0.921875 0.296875 1.328125q0.296875 0.390625 1.0 0.390625q0.484375 0 0.84375 -0.09375q0.375 -0.109375 0.609375 -0.203125l0.28125 1.40625q-0.296875 0.125 -0.796875 0.265625q-0.5 0.140625 -1.171875 0.140625q-0.828125 0 -1.375 -0.21875q-0.546875 -0.21875 -0.875 -0.625q-0.328125 -0.421875 -0.453125 -1.015625q-0.125 -0.59375 -0.125 -1.359375l0 -6.640625zm8.001343 9.6875l-1.78125 0l0 -7.671875l1.78125 0l0 7.671875zm0.1875 -9.90625q0 0.5 -0.328125 0.796875q-0.3125 0.28125 -0.765625 0.28125q-0.453125 0 -0.78125 -0.28125q-0.3125 -0.296875 -0.3125 -0.796875q0 -0.515625 0.3125 -0.796875q0.328125 -0.296875 0.78125 -0.296875q0.453125 0 0.765625 0.296875q0.328125 0.28125 0.328125 0.796875zm8.99823 6.0625q0 0.90625 -0.265625 1.65625q-0.265625 0.75 -0.75 1.28125q-0.484375 0.53125 -1.171875 0.828125q-0.671875 0.28125 -1.5 0.28125q-0.8125 0 -1.484375 -0.28125q-0.671875 -0.296875 -1.15625 -0.828125q-0.484375 -0.53125 -0.765625 -1.28125q-0.265625 -0.75 -0.265625 -1.65625q0 -0.90625 0.265625 -1.640625q0.28125 -0.75 0.765625 -1.265625q0.5 -0.53125 1.171875 -0.8125q0.671875 -0.296875 1.46875 -0.296875q0.8125 0 1.484375 0.296875q0.6875 0.28125 1.171875 0.8125q0.484375 0.515625 0.75 1.265625q0.28125 0.734375 0.28125 1.640625zm-1.8125 0q0 -1.140625 -0.5 -1.796875q-0.484375 -0.671875 -1.375 -0.671875q-0.875 0 -1.375 0.671875q-0.484375 0.65625 -0.484375 1.796875q0 1.15625 0.484375 1.84375q0.5 0.671875 1.375 0.671875q0.890625 0 1.375 -0.671875q0.5 -0.6875 0.5 -1.84375zm3.6394653 -3.578125q0.515625 -0.140625 1.328125 -0.265625q0.828125 -0.140625 1.828125 -0.140625q0.9375 0 1.5625 0.265625q0.640625 0.25 1.0 0.71875q0.375 0.453125 0.53125 1.109375q0.15625 0.65625 0.15625 1.421875l0 4.3125l-1.765625 0l0 -4.03125q0 -0.609375 -0.09375 -1.046875q-0.078125 -0.4375 -0.265625 -0.703125q-0.171875 -0.265625 -0.484375 -0.390625q-0.3125 -0.125 -0.78125 -0.125q-0.328125 0 -0.703125 0.046875q-0.359375 0.03125 -0.53125 0.0625l0 6.1875l-1.78125 0l0 -7.421875z" fill-rule="nonzero"/><path fill="#d9d2e9" d="m729.1164 167.98448l0 0c0 -6.384018 5.175293 -11.55928 11.559265 -11.55928l79.59009 0c3.0657349 0 6.0058594 1.2178497 8.173645 3.3856354c2.1677856 2.1677856 3.3856812 5.1079254 3.3856812 8.173645l0 46.235764c0 6.384018 -5.175293 11.55928 -11.559326 11.55928l-79.59009 0c-6.383972 0 -11.559265 -5.1752625 -11.559265 -11.55928z" fill-rule="evenodd"/><path stroke="#434343" stroke-width="2.0" stroke-linejoin="round" stroke-linecap="butt" d="m729.1164 167.98448l0 0c0 -6.384018 5.175293 -11.55928 11.559265 -11.55928l79.59009 0c3.0657349 0 6.0058594 1.2178497 8.173645 3.3856354c2.1677856 2.1677856 3.3856812 5.1079254 3.3856812 8.173645l0 46.235764c0 6.384018 -5.175293 11.55928 -11.559326 11.55928l-79.59009 0c-6.383972 0 -11.559265 -5.1752625 -11.559265 -11.55928z" fill-rule="evenodd"/><path fill="#000000" d="m744.04456 192.32298q0 1.171875 0.5625 1.84375q0.5625 0.671875 1.53125 0.671875q0.4375 0 0.734375 -0.03125q0.296875 -0.046875 0.484375 -0.09375l0 -4.390625q-0.234375 -0.171875 -0.625 -0.296875q-0.375 -0.140625 -0.828125 -0.140625q-0.953125 0 -1.40625 0.65625q-0.453125 0.65625 -0.453125 1.78125zm5.09375 3.625q-0.53125 0.15625 -1.328125 0.28125q-0.796875 0.140625 -1.671875 0.140625q-0.921875 0 -1.640625 -0.265625q-0.71875 -0.28125 -1.21875 -0.796875q-0.5 -0.53125 -0.78125 -1.265625q-0.265625 -0.75 -0.265625 -1.671875q0 -0.90625 0.21875 -1.640625q0.234375 -0.75 0.671875 -1.265625q0.4375 -0.53125 1.0625 -0.8125q0.640625 -0.296875 1.46875 -0.296875q0.546875 0 0.96875 0.140625q0.4375 0.125 0.734375 0.28125l0 -3.671875l1.78125 -0.296875l0 11.140625zm1.8289185 -3.5625q0 -1.015625 0.296875 -1.765625q0.296875 -0.765625 0.796875 -1.265625q0.5 -0.515625 1.140625 -0.765625q0.65625 -0.265625 1.328125 -0.265625q1.578125 0 2.46875 0.984375q0.890625 0.984375 0.890625 2.9375q0 0.140625 -0.015625 0.328125q0 0.1875 -0.015625 0.328125l-5.0625 0q0.078125 0.921875 0.65625 1.4375q0.578125 0.5 1.671875 0.5q0.65625 0 1.1875 -0.109375q0.53125 -0.125 0.84375 -0.265625l0.234375 1.453125q-0.15625 0.078125 -0.40625 0.15625q-0.25 0.078125 -0.59375 0.140625q-0.328125 0.078125 -0.703125 0.109375q-0.375 0.046875 -0.78125 0.046875q-1.0 0 -1.75 -0.296875q-0.75 -0.296875 -1.234375 -0.828125q-0.484375 -0.546875 -0.71875 -1.265625q-0.234375 -0.734375 -0.234375 -1.59375zm5.140625 -0.796875q0 -0.359375 -0.109375 -0.6875q-0.09375 -0.328125 -0.296875 -0.5625q-0.1875 -0.25 -0.484375 -0.390625q-0.28125 -0.140625 -0.671875 -0.140625q-0.40625 0 -0.71875 0.15625q-0.3125 0.15625 -0.53125 0.40625q-0.203125 0.25 -0.328125 0.578125q-0.109375 0.3125 -0.15625 0.640625l3.296875 0zm5.5718384 3.3125q0.703125 0 1.015625 -0.15625q0.328125 -0.171875 0.328125 -0.578125q0 -0.390625 -0.34375 -0.640625q-0.34375 -0.25 -1.125 -0.53125q-0.484375 -0.1875 -0.890625 -0.375q-0.40625 -0.203125 -0.703125 -0.46875q-0.28125 -0.265625 -0.453125 -0.640625q-0.171875 -0.375 -0.171875 -0.90625q0 -1.0625 0.765625 -1.671875q0.78125 -0.609375 2.125 -0.609375q0.671875 0 1.28125 0.125q0.625 0.125 0.921875 0.25l-0.3125 1.4375q-0.296875 -0.140625 -0.75 -0.25q-0.453125 -0.109375 -1.0625 -0.109375q-0.53125 0 -0.875 0.1875q-0.328125 0.1875 -0.328125 0.5625q0 0.1875 0.0625 0.34375q0.0625 0.140625 0.21875 0.265625q0.171875 0.125 0.421875 0.25q0.265625 0.125 0.65625 0.25q0.625 0.234375 1.0625 0.46875q0.4375 0.21875 0.71875 0.515625q0.296875 0.28125 0.421875 0.65625q0.140625 0.359375 0.140625 0.875q0 1.09375 -0.8125 1.65625q-0.8125 0.5625 -2.328125 0.5625q-1.015625 0 -1.625 -0.171875q-0.609375 -0.15625 -0.859375 -0.265625l0.296875 -1.484375q0.40625 0.171875 0.953125 0.3125q0.546875 0.140625 1.25 0.140625zm4.697937 -8.40625l1.765625 -0.296875l0 2.3125l2.734375 0l0 1.484375l-2.734375 0l0 3.125q0 0.921875 0.296875 1.328125q0.296875 0.390625 1.0 0.390625q0.484375 0 0.84375 -0.09375q0.375 -0.109375 0.609375 -0.203125l0.28125 1.40625q-0.296875 0.125 -0.796875 0.265625q-0.5 0.140625 -1.171875 0.140625q-0.828125 0 -1.375 -0.21875q-0.546875 -0.21875 -0.875 -0.625q-0.328125 -0.421875 -0.453125 -1.015625q-0.125 -0.59375 -0.125 -1.359375l0 -6.640625zm8.001343 9.6875l-1.78125 0l0 -7.671875l1.78125 0l0 7.671875zm0.1875 -9.90625q0 0.5 -0.328125 0.796875q-0.3125 0.28125 -0.765625 0.28125q-0.453125 0 -0.78125 -0.28125q-0.3125 -0.296875 -0.3125 -0.796875q0 -0.515625 0.3125 -0.796875q0.328125 -0.296875 0.78125 -0.296875q0.453125 0 0.765625 0.296875q0.328125 0.28125 0.328125 0.796875zm2.060791 2.484375q0.515625 -0.140625 1.328125 -0.265625q0.828125 -0.140625 1.828125 -0.140625q0.9375 0 1.5625 0.265625q0.640625 0.25 1.0 0.71875q0.375 0.453125 0.53125 1.109375q0.15625 0.65625 0.15625 1.421875l0 4.3125l-1.765625 0l0 -4.03125q0 -0.609375 -0.09375 -1.046875q-0.078125 -0.4375 -0.265625 -0.703125q-0.171875 -0.265625 -0.484375 -0.390625q-0.3125 -0.125 -0.78125 -0.125q-0.328125 0 -0.703125 0.046875q-0.359375 0.03125 -0.53125 0.0625l0 6.1875l-1.78125 0l0 -7.421875zm11.277039 6.171875q0.8125 0 1.25 -0.078125l0 -1.96875q-0.15625 -0.046875 -0.4375 -0.078125q-0.265625 -0.046875 -0.609375 -0.046875q-0.296875 0 -0.59375 0.046875q-0.296875 0.03125 -0.546875 0.15625q-0.234375 0.109375 -0.390625 0.328125q-0.140625 0.203125 -0.140625 0.53125q0 0.625 0.390625 0.875q0.40625 0.234375 1.078125 0.234375zm-0.15625 -6.609375q0.890625 0 1.484375 0.21875q0.609375 0.21875 0.96875 0.625q0.359375 0.390625 0.5 0.953125q0.15625 0.5625 0.15625 1.234375l0 4.65625q-0.40625 0.078125 -1.234375 0.203125q-0.828125 0.125 -1.875 0.125q-0.6875 0 -1.265625 -0.140625q-0.5625 -0.125 -0.96875 -0.40625q-0.390625 -0.296875 -0.625 -0.765625q-0.21875 -0.46875 -0.21875 -1.15625q0 -0.65625 0.25 -1.109375q0.25 -0.46875 0.6875 -0.75q0.453125 -0.28125 1.03125 -0.40625q0.578125 -0.125 1.203125 -0.125q0.296875 0 0.609375 0.046875q0.328125 0.03125 0.703125 0.109375l0 -0.296875q0 -0.296875 -0.078125 -0.578125q-0.078125 -0.28125 -0.265625 -0.484375q-0.171875 -0.21875 -0.484375 -0.328125q-0.296875 -0.125 -0.75 -0.125q-0.609375 0 -1.125 0.09375q-0.515625 0.078125 -0.84375 0.203125l-0.21875 -1.4375q0.34375 -0.125 0.984375 -0.234375q0.65625 -0.125 1.375 -0.125zm5.201477 -1.828125l1.765625 -0.296875l0 2.3125l2.734375 0l0 1.484375l-2.734375 0l0 3.125q0 0.921875 0.296875 1.328125q0.296875 0.390625 1.0 0.390625q0.484375 0 0.84375 -0.09375q0.375 -0.109375 0.609375 -0.203125l0.28125 1.40625q-0.296875 0.125 -0.796875 0.265625q-0.5 0.140625 -1.171875 0.140625q-0.828125 0 -1.375 -0.21875q-0.546875 -0.21875 -0.875 -0.625q-0.328125 -0.421875 -0.453125 -1.015625q-0.125 -0.59375 -0.125 -1.359375l0 -6.640625zm8.001343 9.6875l-1.78125 0l0 -7.671875l1.78125 0l0 7.671875zm0.1875 -9.90625q0 0.5 -0.328125 0.796875q-0.3125 0.28125 -0.765625 0.28125q-0.453125 0 -0.78125 -0.28125q-0.3125 -0.296875 -0.3125 -0.796875q0 -0.515625 0.3125 -0.796875q0.328125 -0.296875 0.78125 -0.296875q0.453125 0 0.765625 0.296875q0.328125 0.28125 0.328125 0.796875zm8.99823 6.0625q0 0.90625 -0.265625 1.65625q-0.265625 0.75 -0.75 1.28125q-0.484375 0.53125 -1.171875 0.828125q-0.671875 0.28125 -1.5 0.28125q-0.8125 0 -1.484375 -0.28125q-0.671875 -0.296875 -1.15625 -0.828125q-0.484375 -0.53125 -0.765625 -1.28125q-0.265625 -0.75 -0.265625 -1.65625q0 -0.90625 0.265625 -1.640625q0.28125 -0.75 0.765625 -1.265625q0.5 -0.53125 1.171875 -0.8125q0.671875 -0.296875 1.46875 -0.296875q0.8125 0 1.484375 0.296875q0.6875 0.28125 1.171875 0.8125q0.484375 0.515625 0.75 1.265625q0.28125 0.734375 0.28125 1.640625zm-1.8125 0q0 -1.140625 -0.5 -1.796875q-0.484375 -0.671875 -1.375 -0.671875q-0.875 0 -1.375 0.671875q-0.484375 0.65625 -0.484375 1.796875q0 1.15625 0.484375 1.84375q0.5 0.671875 1.375 0.671875q0.890625 0 1.375 -0.671875q0.5 -0.6875 0.5 -1.84375zm3.6394653 -3.578125q0.515625 -0.140625 1.328125 -0.265625q0.828125 -0.140625 1.828125 -0.140625q0.9375 0 1.5625 0.265625q0.640625 0.25 1.0 0.71875q0.375 0.453125 0.53125 1.109375q0.15625 0.65625 0.15625 1.421875l0 4.3125l-1.765625 0l0 -4.03125q0 -0.609375 -0.09375 -1.046875q-0.078125 -0.4375 -0.265625 -0.703125q-0.171875 -0.265625 -0.484375 -0.390625q-0.3125 -0.125 -0.78125 -0.125q-0.328125 0 -0.703125 0.046875q-0.359375 0.03125 -0.53125 0.0625l0 6.1875l-1.78125 0l0 -7.421875z" fill-rule="nonzero"/><path fill="#efefef" d="m376.77255 265.47794l0 0c0 -6.384033 5.175293 -11.559296 11.559296 -11.559296l79.59009 0c3.0657043 0 6.0058594 1.2178497 8.173645 3.38562c2.1677856 2.1677856 3.3856506 5.1079407 3.3856506 8.173676l0 46.23575c0 6.3840027 -5.1752625 11.559296 -11.559296 11.559296l-79.59009 0c-6.3840027 0 -11.559296 -5.175293 -11.559296 -11.559296z" fill-rule="evenodd"/><path stroke="#434343" stroke-width="2.0" stroke-linejoin="round" stroke-linecap="butt" d="m376.77255 265.47794l0 0c0 -6.384033 5.175293 -11.559296 11.559296 -11.559296l79.59009 0c3.0657043 0 6.0058594 1.2178497 8.173645 3.38562c2.1677856 2.1677856 3.3856506 5.1079407 3.3856506 8.173676l0 46.23575c0 6.3840027 -5.1752625 11.559296 -11.559296 11.559296l-79.59009 0c-6.3840027 0 -11.559296 -5.175293 -11.559296 -11.559296z" fill-rule="evenodd"/><path fill="#000000" d="m407.6433 286.0783q0.65625 -0.1875 1.6875 -0.359375q1.046875 -0.171875 2.328125 -0.171875q1.1875 0 1.984375 0.328125q0.8125 0.328125 1.28125 0.921875q0.484375 0.578125 0.671875 1.421875q0.203125 0.828125 0.203125 1.8125l0 5.484375l-2.265625 0l0 -5.125q0 -0.78125 -0.109375 -1.328125q-0.09375 -0.5625 -0.328125 -0.90625q-0.234375 -0.34375 -0.640625 -0.5q-0.390625 -0.15625 -0.96875 -0.15625q-0.4375 0 -0.90625 0.0625q-0.453125 0.046875 -0.6875 0.078125l0 7.875l-2.25 0l0 -9.4375zm19.742035 4.546875q0 1.15625 -0.34375 2.109375q-0.328125 0.953125 -0.953125 1.625q-0.609375 0.671875 -1.484375 1.046875q-0.859375 0.375 -1.90625 0.375q-1.046875 0 -1.90625 -0.375q-0.859375 -0.375 -1.484375 -1.046875q-0.609375 -0.671875 -0.953125 -1.625q-0.34375 -0.953125 -0.34375 -2.109375q0 -1.15625 0.34375 -2.09375q0.34375 -0.9375 0.96875 -1.609375q0.625 -0.671875 1.484375 -1.03125q0.859375 -0.375 1.890625 -0.375q1.03125 0 1.890625 0.375q0.875 0.359375 1.484375 1.03125q0.625 0.671875 0.96875 1.609375q0.34375 0.9375 0.34375 2.09375zm-2.3125 0q0 -1.453125 -0.625 -2.296875q-0.625 -0.859375 -1.75 -0.859375q-1.125 0 -1.75 0.859375q-0.625 0.84375 -0.625 2.296875q0 1.46875 0.625 2.328125q0.625 0.859375 1.75 0.859375q1.125 0 1.75 -0.859375q0.625 -0.859375 0.625 -2.328125zm6.406433 -0.015625q0 1.484375 0.703125 2.34375q0.71875 0.84375 1.96875 0.84375q0.546875 0 0.921875 -0.046875q0.390625 -0.046875 0.625 -0.09375l0 -5.609375q-0.296875 -0.203125 -0.796875 -0.375q-0.484375 -0.171875 -1.046875 -0.171875q-1.234375 0 -1.8125 0.84375q-0.5625 0.828125 -0.5625 2.265625zm6.484375 4.609375q-0.671875 0.203125 -1.6875 0.375q-1.015625 0.171875 -2.140625 0.171875q-1.15625 0 -2.078125 -0.359375q-0.90625 -0.359375 -1.5625 -1.015625q-0.640625 -0.671875 -0.984375 -1.609375q-0.34375 -0.9375 -0.34375 -2.109375q0 -1.15625 0.28125 -2.09375q0.296875 -0.953125 0.859375 -1.625q0.5625 -0.671875 1.359375 -1.03125q0.8125 -0.375 1.859375 -0.375q0.703125 0 1.234375 0.171875q0.546875 0.171875 0.9375 0.375l0 -4.6875l2.265625 -0.375l0 14.1875zm2.322235 -4.53125q0 -1.296875 0.375 -2.265625q0.390625 -0.96875 1.015625 -1.609375q0.640625 -0.640625 1.46875 -0.96875q0.828125 -0.328125 1.671875 -0.328125q2.015625 0 3.140625 1.25q1.140625 1.25 1.140625 3.734375q0 0.1875 -0.015625 0.421875q0 0.234375 -0.03125 0.421875l-6.421875 0q0.09375 1.171875 0.828125 1.8125q0.734375 0.640625 2.125 0.640625q0.828125 0 1.5 -0.140625q0.6875 -0.15625 1.078125 -0.328125l0.296875 1.859375q-0.1875 0.078125 -0.515625 0.1875q-0.3125 0.109375 -0.734375 0.1875q-0.421875 0.078125 -0.90625 0.140625q-0.484375 0.0625 -1.0 0.0625q-1.28125 0 -2.234375 -0.375q-0.953125 -0.390625 -1.5625 -1.078125q-0.609375 -0.6875 -0.921875 -1.609375q-0.296875 -0.921875 -0.296875 -2.015625zm6.546875 -1.015625q0 -0.46875 -0.125 -0.875q-0.125 -0.421875 -0.390625 -0.734375q-0.25 -0.3125 -0.609375 -0.484375q-0.359375 -0.171875 -0.859375 -0.171875q-0.53125 0 -0.921875 0.203125q-0.390625 0.1875 -0.671875 0.5q-0.265625 0.3125 -0.421875 0.734375q-0.140625 0.40625 -0.1875 0.828125l4.1875 0z" fill-rule="nonzero"/><path fill="#000000" fill-opacity="0.0" d="m294.71744 225.71654c0 31.43306 41.02362 62.866135 82.04724 62.866135" fill-rule="evenodd"/><path stroke="#000000" stroke-width="1.0" stroke-linejoin="round" stroke-linecap="butt" d="m294.71744 225.71654c0 15.716537 10.25592 31.43306 25.63977 43.220474c7.691925 5.8937073 16.665833 10.805115 26.280762 14.243103c4.807434 1.7189941 9.775177 3.069641 14.822998 3.9905396c2.5238953 0.46044922 5.06781 0.81344604 7.6217957 1.0513306c0.3192749 0.029724121 0.63864136 0.057678223 0.9581909 0.08380127l0.7278137 0.055358887" fill-rule="evenodd"/><path fill="#000000" stroke="#000000" stroke-width="1.0" stroke-linecap="butt" d="m370.7078 290.01175l4.595978 -1.4830627l-4.473999 -1.8181458z" fill-rule="evenodd"/><path fill="#d9d2e9" d="m725.85657 265.47794l0 0c0 -6.384033 5.175232 -11.559296 11.559265 -11.559296l79.59009 0c3.0657349 0 6.0058594 1.2178497 8.173645 3.38562c2.1677856 2.1677856 3.38562 5.1079407 3.38562 8.173676l0 46.23575c0 6.3840027 -5.175232 11.559296 -11.559265 11.559296l-79.59009 0c-6.384033 0 -11.559265 -5.175293 -11.559265 -11.559296z" fill-rule="evenodd"/><path stroke="#434343" stroke-width="2.0" stroke-linejoin="round" stroke-linecap="butt" d="m725.85657 265.47794l0 0c0 -6.384033 5.175232 -11.559296 11.559265 -11.559296l79.59009 0c3.0657349 0 6.0058594 1.2178497 8.173645 3.38562c2.1677856 2.1677856 3.38562 5.1079407 3.38562 8.173676l0 46.23575c0 6.3840027 -5.175232 11.559296 -11.559265 11.559296l-79.59009 0c-6.384033 0 -11.559265 -5.175293 -11.559265 -11.559296z" fill-rule="evenodd"/><path fill="#000000" d="m740.7847 289.81644q0 1.171875 0.5625 1.84375q0.5625 0.671875 1.53125 0.671875q0.4375 0 0.734375 -0.03125q0.296875 -0.046875 0.484375 -0.09375l0 -4.390625q-0.234375 -0.171875 -0.625 -0.296875q-0.375 -0.140625 -0.828125 -0.140625q-0.953125 0 -1.40625 0.65625q-0.453125 0.65625 -0.453125 1.78125zm5.09375 3.625q-0.53125 0.15625 -1.328125 0.28125q-0.796875 0.140625 -1.671875 0.140625q-0.921875 0 -1.640625 -0.265625q-0.71875 -0.28125 -1.21875 -0.796875q-0.5 -0.53125 -0.78125 -1.265625q-0.265625 -0.75 -0.265625 -1.671875q0 -0.90625 0.21875 -1.640625q0.234375 -0.75 0.671875 -1.265625q0.4375 -0.53125 1.0625 -0.8125q0.640625 -0.296875 1.46875 -0.296875q0.546875 0 0.96875 0.140625q0.4375 0.125 0.734375 0.28125l0 -3.671875l1.78125 -0.296875l0 11.140625zm1.8288574 -3.5625q0 -1.015625 0.296875 -1.765625q0.296875 -0.765625 0.796875 -1.265625q0.5 -0.515625 1.140625 -0.765625q0.65625 -0.265625 1.328125 -0.265625q1.578125 0 2.46875 0.984375q0.890625 0.984375 0.890625 2.9375q0 0.140625 -0.015625 0.328125q0 0.1875 -0.015625 0.328125l-5.0625 0q0.078125 0.921875 0.65625 1.4375q0.578125 0.5 1.671875 0.5q0.65625 0 1.1875 -0.109375q0.53125 -0.125 0.84375 -0.265625l0.234375 1.453125q-0.15625 0.078125 -0.40625 0.15625q-0.25 0.078125 -0.59375 0.140625q-0.328125 0.078125 -0.703125 0.109375q-0.375 0.046875 -0.78125 0.046875q-1.0 0 -1.75 -0.296875q-0.75 -0.296875 -1.234375 -0.828125q-0.484375 -0.546875 -0.71875 -1.265625q-0.234375 -0.734375 -0.234375 -1.59375zm5.140625 -0.796875q0 -0.359375 -0.109375 -0.6875q-0.09375 -0.328125 -0.296875 -0.5625q-0.1875 -0.25 -0.484375 -0.390625q-0.28125 -0.140625 -0.671875 -0.140625q-0.40625 0 -0.71875 0.15625q-0.3125 0.15625 -0.53125 0.40625q-0.203125 0.25 -0.328125 0.578125q-0.109375 0.3125 -0.15625 0.640625l3.296875 0zm5.5718994 3.3125q0.703125 0 1.015625 -0.15625q0.328125 -0.171875 0.328125 -0.578125q0 -0.390625 -0.34375 -0.640625q-0.34375 -0.25 -1.125 -0.53125q-0.484375 -0.1875 -0.890625 -0.375q-0.40625 -0.203125 -0.703125 -0.46875q-0.28125 -0.265625 -0.453125 -0.640625q-0.171875 -0.375 -0.171875 -0.90625q0 -1.0625 0.765625 -1.671875q0.78125 -0.609375 2.125 -0.609375q0.671875 0 1.28125 0.125q0.625 0.125 0.921875 0.25l-0.3125 1.4375q-0.296875 -0.140625 -0.75 -0.25q-0.453125 -0.109375 -1.0625 -0.109375q-0.53125 0 -0.875 0.1875q-0.328125 0.1875 -0.328125 0.5625q0 0.1875 0.0625 0.34375q0.0625 0.140625 0.21875 0.265625q0.171875 0.125 0.421875 0.25q0.265625 0.125 0.65625 0.25q0.625 0.234375 1.0625 0.46875q0.4375 0.21875 0.71875 0.515625q0.296875 0.28125 0.421875 0.65625q0.140625 0.359375 0.140625 0.875q0 1.09375 -0.8125 1.65625q-0.8125 0.5625 -2.328125 0.5625q-1.015625 0 -1.625 -0.171875q-0.609375 -0.15625 -0.859375 -0.265625l0.296875 -1.484375q0.40625 0.171875 0.953125 0.3125q0.546875 0.140625 1.25 0.140625zm4.697937 -8.40625l1.765625 -0.296875l0 2.3125l2.734375 0l0 1.484375l-2.734375 0l0 3.125q0 0.921875 0.296875 1.328125q0.296875 0.390625 1.0 0.390625q0.484375 0 0.84375 -0.09375q0.375 -0.109375 0.609375 -0.203125l0.28125 1.40625q-0.296875 0.125 -0.796875 0.265625q-0.5 0.140625 -1.171875 0.140625q-0.828125 0 -1.375 -0.21875q-0.546875 -0.21875 -0.875 -0.625q-0.328125 -0.421875 -0.453125 -1.015625q-0.125 -0.59375 -0.125 -1.359375l0 -6.640625zm8.001343 9.6875l-1.78125 0l0 -7.671875l1.78125 0l0 7.671875zm0.1875 -9.90625q0 0.5 -0.328125 0.796875q-0.3125 0.28125 -0.765625 0.28125q-0.453125 0 -0.78125 -0.28125q-0.3125 -0.296875 -0.3125 -0.796875q0 -0.515625 0.3125 -0.796875q0.328125 -0.296875 0.78125 -0.296875q0.453125 0 0.765625 0.296875q0.328125 0.28125 0.328125 0.796875zm2.06073 2.484375q0.515625 -0.140625 1.328125 -0.265625q0.828125 -0.140625 1.828125 -0.140625q0.9375 0 1.5625 0.265625q0.640625 0.25 1.0 0.71875q0.375 0.453125 0.53125 1.109375q0.15625 0.65625 0.15625 1.421875l0 4.3125l-1.765625 0l0 -4.03125q0 -0.609375 -0.09375 -1.046875q-0.078125 -0.4375 -0.265625 -0.703125q-0.171875 -0.265625 -0.484375 -0.390625q-0.3125 -0.125 -0.78125 -0.125q-0.328125 0 -0.703125 0.046875q-0.359375 0.03125 -0.53125 0.0625l0 6.1875l-1.78125 0l0 -7.421875zm11.2771 6.171875q0.8125 0 1.25 -0.078125l0 -1.96875q-0.15625 -0.046875 -0.4375 -0.078125q-0.265625 -0.046875 -0.609375 -0.046875q-0.296875 0 -0.59375 0.046875q-0.296875 0.03125 -0.546875 0.15625q-0.234375 0.109375 -0.390625 0.328125q-0.140625 0.203125 -0.140625 0.53125q0 0.625 0.390625 0.875q0.40625 0.234375 1.078125 0.234375zm-0.15625 -6.609375q0.890625 0 1.484375 0.21875q0.609375 0.21875 0.96875 0.625q0.359375 0.390625 0.5 0.953125q0.15625 0.5625 0.15625 1.234375l0 4.65625q-0.40625 0.078125 -1.234375 0.203125q-0.828125 0.125 -1.875 0.125q-0.6875 0 -1.265625 -0.140625q-0.5625 -0.125 -0.96875 -0.40625q-0.390625 -0.296875 -0.625 -0.765625q-0.21875 -0.46875 -0.21875 -1.15625q0 -0.65625 0.25 -1.109375q0.25 -0.46875 0.6875 -0.75q0.453125 -0.28125 1.03125 -0.40625q0.578125 -0.125 1.203125 -0.125q0.296875 0 0.609375 0.046875q0.328125 0.03125 0.703125 0.109375l0 -0.296875q0 -0.296875 -0.078125 -0.578125q-0.078125 -0.28125 -0.265625 -0.484375q-0.171875 -0.21875 -0.484375 -0.328125q-0.296875 -0.125 -0.75 -0.125q-0.609375 0 -1.125 0.09375q-0.515625 0.078125 -0.84375 0.203125l-0.21875 -1.4375q0.34375 -0.125 0.984375 -0.234375q0.65625 -0.125 1.375 -0.125zm5.201477 -1.828125l1.765625 -0.296875l0 2.3125l2.734375 0l0 1.484375l-2.734375 0l0 3.125q0 0.921875 0.296875 1.328125q0.296875 0.390625 1.0 0.390625q0.484375 0 0.84375 -0.09375q0.375 -0.109375 0.609375 -0.203125l0.28125 1.40625q-0.296875 0.125 -0.796875 0.265625q-0.5 0.140625 -1.171875 0.140625q-0.828125 0 -1.375 -0.21875q-0.546875 -0.21875 -0.875 -0.625q-0.328125 -0.421875 -0.453125 -1.015625q-0.125 -0.59375 -0.125 -1.359375l0 -6.640625zm8.001343 9.6875l-1.78125 0l0 -7.671875l1.78125 0l0 7.671875zm0.1875 -9.90625q0 0.5 -0.328125 0.796875q-0.3125 0.28125 -0.765625 0.28125q-0.453125 0 -0.78125 -0.28125q-0.3125 -0.296875 -0.3125 -0.796875q0 -0.515625 0.3125 -0.796875q0.328125 -0.296875 0.78125 -0.296875q0.453125 0 0.765625 0.296875q0.328125 0.28125 0.328125 0.796875zm8.99823 6.0625q0 0.90625 -0.265625 1.65625q-0.265625 0.75 -0.75 1.28125q-0.484375 0.53125 -1.171875 0.828125q-0.671875 0.28125 -1.5 0.28125q-0.8125 0 -1.484375 -0.28125q-0.671875 -0.296875 -1.15625 -0.828125q-0.484375 -0.53125 -0.765625 -1.28125q-0.265625 -0.75 -0.265625 -1.65625q0 -0.90625 0.265625 -1.640625q0.28125 -0.75 0.765625 -1.265625q0.5 -0.53125 1.171875 -0.8125q0.671875 -0.296875 1.46875 -0.296875q0.8125 0 1.484375 0.296875q0.6875 0.28125 1.171875 0.8125q0.484375 0.515625 0.75 1.265625q0.28125 0.734375 0.28125 1.640625zm-1.8125 0q0 -1.140625 -0.5 -1.796875q-0.484375 -0.671875 -1.375 -0.671875q-0.875 0 -1.375 0.671875q-0.484375 0.65625 -0.484375 1.796875q0 1.15625 0.484375 1.84375q0.5 0.671875 1.375 0.671875q0.890625 0 1.375 -0.671875q0.5 -0.6875 0.5 -1.84375zm3.6394653 -3.578125q0.515625 -0.140625 1.328125 -0.265625q0.828125 -0.140625 1.828125 -0.140625q0.9375 0 1.5625 0.265625q0.640625 0.25 1.0 0.71875q0.375 0.453125 0.53125 1.109375q0.15625 0.65625 0.15625 1.421875l0 4.3125l-1.765625 0l0 -4.03125q0 -0.609375 -0.09375 -1.046875q-0.078125 -0.4375 -0.265625 -0.703125q-0.171875 -0.265625 -0.484375 -0.390625q-0.3125 -0.125 -0.78125 -0.125q-0.328125 0 -0.703125 0.046875q-0.359375 0.03125 -0.53125 0.0625l0 6.1875l-1.78125 0l0 -7.421875z" fill-rule="nonzero"/><path fill="#000000" fill-opacity="0.0" d="m479.48123 288.5958c61.59427 0 92.39322 0.01574707 123.18851 0.03149414c30.795227 0.01574707 61.586853 0.03149414 123.173706 0.03149414" fill-rule="evenodd"/><path stroke="#000000" stroke-width="1.0" stroke-linejoin="round" stroke-linecap="butt" d="m479.48123 288.5958c61.594208 0 92.39322 0.01574707 123.188446 0.03149414c15.397644 0.007873535 30.794373 0.01574707 50.04004 0.02166748c9.622864 0.002960205 20.207886 0.0054016113 32.23645 0.0071411133l34.897278 0.002319336" fill-rule="evenodd"/><path fill="#000000" stroke="#000000" stroke-width="1.0" stroke-linecap="butt" d="m719.8433 290.31012l4.538208 -1.6514282l-4.538025 -1.6520386z" fill-rule="evenodd"/><path fill="#000000" fill-opacity="0.0" d="m612.8907 191.06955c29.056274 0 43.58496 0.01574707 58.11255 0.03149414c14.527588 0.01574707 29.053955 0.0315094 58.10791 0.0315094" fill-rule="evenodd"/><path stroke="#000000" stroke-width="1.0" stroke-linejoin="round" stroke-linecap="butt" d="m612.8907 191.06955c29.056274 0 43.585022 0.01574707 58.11255 0.03149414c7.263794 0.007873535 14.527283 0.01574707 23.606506 0.021652222c4.539673 0.002960205 9.533325 0.00541687 15.207825 0.0071411133l13.293579 0.0018615723" fill-rule="evenodd"/><path fill="#000000" stroke="#000000" stroke-width="1.0" stroke-linecap="butt" d="m723.1109 192.78343l4.53833 -1.6510925l-4.537842 -1.6523743z" fill-rule="evenodd"/><path fill="#000000" fill-opacity="0.0" d="m679.9117 93.514435c11.486084 0 17.22815 -0.01574707 22.972229 -0.03149414c5.7440796 -0.01574707 11.490234 -0.03149414 22.98053 -0.03149414" fill-rule="evenodd"/><path stroke="#000000" stroke-width="1.0" stroke-linejoin="round" stroke-linecap="butt" d="m679.9117 93.514435c11.486145 0 17.22815 -0.01574707 22.972229 -0.03149414c2.8720703 -0.007873535 5.744629 -0.01574707 9.33551 -0.021652222c1.7953491 -0.0029525757 3.7703247 -0.00541687 6.0145874 -0.0071411133l1.6304321 -5.722046E-4" fill-rule="evenodd"/><path fill="#000000" stroke="#000000" stroke-width="1.0" stroke-linecap="butt" d="m719.865 95.1053l4.5375366 -1.6533356l-4.5386963 -1.6501236z" fill-rule="evenodd"/></g></svg>