<svg version="1.1" viewBox="0.0 0.0 542.6115485564304 420.9737532808399" fill="none" stroke="none" stroke-linecap="square" stroke-miterlimit="10" xmlns:xlink="http://www.w3.org/1999/xlink" xmlns="http://www.w3.org/2000/svg"><clipPath id="p.0"><path d="m0 0l542.6116 0l0 420.97375l-542.6116 0l0 -420.97375z" clip-rule="nonzero"/></clipPath><g clip-path="url(#p.0)"><path fill="#000000" fill-opacity="0.0" d="m0 0l542.6116 0l0 420.97375l-542.6116 0z" fill-rule="evenodd"/><path fill="#cccccc" d="m6.9120736 45.569416l0 0c0 -20.58449 16.687027 -37.271515 37.271515 -37.271515l454.24435 0c9.88504 0 19.365204 3.9268093 26.35495 10.916574c6.989746 6.989765 10.916565 16.469921 10.916565 26.354942l0 329.8349c0 20.584503 -16.687012 37.271515 -37.271515 37.271515l-454.24435 0c-20.58449 0 -37.271515 -16.687012 -37.271515 -37.271515z" fill-rule="evenodd"/><path stroke="#434343" stroke-width="3.0" stroke-linejoin="round" stroke-linecap="butt" d="m6.9120736 45.569416l0 0c0 -20.58449 16.687027 -37.271515 37.271515 -37.271515l454.24435 0c9.88504 0 19.365204 3.9268093 26.35495 10.916574c6.989746 6.989765 10.916565 16.469921 10.916565 26.354942l0 329.8349c0 20.584503 -16.687012 37.271515 -37.271515 37.271515l-454.24435 0c-20.58449 0 -37.271515 -16.687012 -37.271515 -37.271515z" fill-rule="evenodd"/><path fill="#000000" fill-opacity="0.0" d="m-12.137795 379.99475l-58.14173 0.34646606" fill-rule="evenodd"/><path stroke="#f3f3f3" stroke-width="3.0" stroke-linejoin="round" stroke-linecap="butt" d="m-30.137474 380.102l-40.14205 0.2392273" fill-rule="evenodd"/><path fill="#f3f3f3" stroke="#f3f3f3" stroke-width="3.0" stroke-linecap="butt" d="m-30.107948 385.05713l13.584524 -5.036255l-13.643578 -4.8739624z" fill-rule="evenodd"/><path fill="#d9ead3" d="m257.4265 38.79812l0 0c0 -6.004223 4.8673706 -10.871609 10.871613 -10.871609l145.15442 0c2.8833313 0 5.6485596 1.1453972 7.687378 3.1842194c2.0388184 2.0388222 3.1842346 4.804058 3.1842346 7.6873894l0 43.48513c0 6.004219 -4.867401 10.871605 -10.871613 10.871605l-145.15442 0l0 0c-6.004242 0 -10.871613 -4.867386 -10.871613 -10.871605z" fill-rule="evenodd"/><path stroke="#434343" stroke-width="2.0" stroke-linejoin="round" stroke-linecap="butt" d="m257.4265 38.79812l0 0c0 -6.004223 4.8673706 -10.871609 10.871613 -10.871609l145.15442 0c2.8833313 0 5.6485596 1.1453972 7.687378 3.1842194c2.0388184 2.0388222 3.1842346 4.804058 3.1842346 7.6873894l0 43.48513c0 6.004219 -4.867401 10.871605 -10.871613 10.871605l-145.15442 0l0 0c-6.004242 0 -10.871613 -4.867386 -10.871613 -10.871605z" fill-rule="evenodd"/><path fill="#000000" d="m278.33725 67.46068l-1.734375 0l0 -9.703125l1.734375 0l0 9.703125zm-0.890625 -11.453125q-0.453125 0 -0.78125 -0.3125q-0.328125 -0.3125 -0.328125 -0.828125q0 -0.515625 0.328125 -0.828125q0.328125 -0.3125 0.78125 -0.3125q0.46875 0 0.796875 0.3125q0.328125 0.3125 0.328125 0.828125q0 0.515625 -0.328125 0.828125q-0.328125 0.3125 -0.796875 0.3125zm3.8762817 2.03125q0.59375 -0.15625 1.578125 -0.3125q0.984375 -0.171875 2.28125 -0.171875q1.15625 0 1.921875 0.328125q0.765625 0.328125 1.21875 0.921875q0.453125 0.578125 0.640625 1.40625q0.1875 0.8125 0.1875 1.796875l0 5.453125l-1.734375 0l0 -5.078125q0 -0.890625 -0.125 -1.515625q-0.125 -0.640625 -0.40625 -1.03125q-0.265625 -0.390625 -0.734375 -0.5625q-0.46875 -0.1875 -1.15625 -0.1875q-0.28125 0 -0.578125 0.015625q-0.296875 0.015625 -0.578125 0.046875q-0.265625 0.03125 -0.484375 0.078125q-0.203125 0.03125 -0.296875 0.046875l0 8.1875l-1.734375 0l0 -9.421875zm12.443085 9.421875l-1.734375 0l0 -9.703125l1.734375 0l0 9.703125zm-0.890625 -11.453125q-0.453125 0 -0.78125 -0.3125q-0.328125 -0.3125 -0.328125 -0.828125q0 -0.515625 0.328125 -0.828125q0.328125 -0.3125 0.78125 -0.3125q0.46875 0 0.796875 0.3125q0.328125 0.3125 0.328125 0.828125q0 0.515625 -0.328125 0.828125q-0.328125 0.3125 -0.796875 0.3125zm5.4856567 1.75l3.6875 0l0 1.453125l-3.6875 0l0 4.484375q0 0.71875 0.109375 1.203125q0.125 0.46875 0.34375 0.75q0.21875 0.265625 0.546875 0.375q0.34375 0.109375 0.796875 0.109375q0.78125 0 1.25 -0.171875q0.484375 -0.171875 0.671875 -0.25l0.328125 1.4375q-0.25 0.125 -0.90625 0.3125q-0.65625 0.203125 -1.5 0.203125q-0.984375 0 -1.625 -0.25q-0.640625 -0.25 -1.03125 -0.75q-0.390625 -0.515625 -0.5625 -1.25q-0.15625 -0.734375 -0.15625 -1.703125l0 -8.65625l1.734375 -0.296875l0 3.0zm7.577942 4.125q0 2.390625 0.6875 4.421875q0.703125 2.03125 2.03125 3.765625l-1.21875 0.84375q-1.453125 -1.78125 -2.34375 -4.078125q-0.890625 -2.296875 -0.890625 -4.953125q0 -2.65625 0.890625 -4.953125q0.890625 -2.296875 2.34375 -4.078125l1.21875 0.84375q-1.328125 1.734375 -2.03125 3.765625q-0.6875 2.03125 -0.6875 4.421875zm8.560242 5.796875q-1.171875 0 -2.0625 -0.359375q-0.875 -0.375 -1.484375 -1.046875q-0.609375 -0.671875 -0.90625 -1.59375q-0.296875 -0.9375 -0.296875 -2.046875q0 -1.125 0.328125 -2.046875q0.328125 -0.9375 0.921875 -1.609375q0.59375 -0.6875 1.453125 -1.0625q0.875 -0.390625 1.9375 -0.390625q0.65625 0 1.3125 0.109375q0.65625 0.109375 1.25 0.34375l-0.390625 1.484375q-0.390625 -0.1875 -0.90625 -0.296875q-0.515625 -0.109375 -1.09375 -0.109375q-1.453125 0 -2.234375 0.921875q-0.765625 0.90625 -0.765625 2.65625q0 0.78125 0.171875 1.4375q0.171875 0.640625 0.546875 1.109375q0.390625 0.46875 0.984375 0.71875q0.609375 0.25 1.46875 0.25q0.6875 0 1.25 -0.125q0.5625 -0.125 0.875 -0.28125l0.234375 1.453125q-0.140625 0.09375 -0.421875 0.1875q-0.28125 0.078125 -0.640625 0.140625q-0.34375 0.0625 -0.75 0.109375q-0.40625 0.046875 -0.78125 0.046875zm12.79187 -5.0625q0 1.15625 -0.34375 2.09375q-0.328125 0.921875 -0.9375 1.59375q-0.609375 0.671875 -1.453125 1.046875q-0.828125 0.359375 -1.828125 0.359375q-0.984375 0 -1.828125 -0.359375q-0.84375 -0.375 -1.453125 -1.046875q-0.59375 -0.671875 -0.9375 -1.59375q-0.328125 -0.9375 -0.328125 -2.09375q0 -1.140625 0.328125 -2.078125q0.34375 -0.953125 0.9375 -1.625q0.609375 -0.671875 1.453125 -1.03125q0.84375 -0.359375 1.828125 -0.359375q1.0 0 1.828125 0.359375q0.84375 0.359375 1.453125 1.03125q0.609375 0.671875 0.9375 1.625q0.34375 0.9375 0.34375 2.078125zm-1.8125 0q0 -1.65625 -0.75 -2.609375q-0.734375 -0.953125 -2.0 -0.953125q-1.265625 0 -2.0 0.953125q-0.734375 0.953125 -0.734375 2.609375q0 1.640625 0.734375 2.609375q0.734375 0.953125 2.0 0.953125q1.265625 0 2.0 -0.953125q0.75 -0.96875 0.75 -2.609375zm4.257202 -4.578125q0.59375 -0.15625 1.578125 -0.3125q0.984375 -0.171875 2.28125 -0.171875q1.15625 0 1.921875 0.328125q0.765625 0.328125 1.21875 0.921875q0.453125 0.578125 0.640625 1.40625q0.1875 0.8125 0.1875 1.796875l0 5.453125l-1.734375 0l0 -5.078125q0 -0.890625 -0.125 -1.515625q-0.125 -0.640625 -0.40625 -1.03125q-0.265625 -0.390625 -0.734375 -0.5625q-0.46875 -0.1875 -1.15625 -0.1875q-0.28125 0 -0.578125 0.015625q-0.296875 0.015625 -0.578125 0.046875q-0.265625 0.03125 -0.484375 0.078125q-0.203125 0.03125 -0.296875 0.046875l0 8.1875l-1.734375 0l0 -9.421875zm14.489929 -5.0625q0.65625 0 1.109375 0.09375q0.46875 0.078125 0.6875 0.15625l-0.25 1.484375q-0.203125 -0.0625 -0.5625 -0.140625q-0.359375 -0.09375 -0.859375 -0.09375q-1.203125 0 -1.6875 0.671875q-0.484375 0.65625 -0.484375 1.765625l0 0.84375l3.71875 0l0 1.453125l-3.71875 0l0 8.25l-1.734375 0l0 -10.578125q0 -1.859375 0.90625 -2.875q0.921875 -1.03125 2.875 -1.03125zm5.21875 14.484375l-1.734375 0l0 -9.703125l1.734375 0l0 9.703125zm-0.875 -11.453125q-0.46875 0 -0.796875 -0.3125q-0.328125 -0.3125 -0.328125 -0.828125q0 -0.515625 0.328125 -0.828125q0.328125 -0.3125 0.796875 -0.3125q0.46875 0 0.796875 0.3125q0.328125 0.3125 0.328125 0.828125q0 0.515625 -0.328125 0.828125q-0.328125 0.3125 -0.796875 0.3125zm9.949097 10.484375q-0.234375 0.140625 -0.875 0.375q-0.640625 0.234375 -1.5 0.234375q-0.875 0 -1.65625 -0.28125q-0.765625 -0.28125 -1.34375 -0.859375q-0.578125 -0.59375 -0.921875 -1.46875q-0.328125 -0.875 -0.328125 -2.09375q0 -1.0625 0.3125 -1.9375q0.3125 -0.890625 0.921875 -1.53125q0.609375 -0.640625 1.484375 -1.0q0.875 -0.375 1.984375 -0.375q1.203125 0 2.109375 0.1875q0.90625 0.171875 1.53125 0.3125l0 8.65625q0 2.25 -1.15625 3.25q-1.15625 1.0 -3.515625 1.0q-0.90625 0 -1.71875 -0.15625q-0.8125 -0.140625 -1.40625 -0.34375l0.3125 -1.5q0.515625 0.203125 1.265625 0.359375q0.765625 0.15625 1.59375 0.15625q1.546875 0 2.21875 -0.625q0.6875 -0.609375 0.6875 -1.953125l0 -0.40625zm-0.015625 -7.203125q-0.265625 -0.078125 -0.703125 -0.140625q-0.4375 -0.0625 -1.1875 -0.0625q-1.40625 0 -2.15625 0.921875q-0.75 0.90625 -0.75 2.421875q0 0.828125 0.203125 1.4375q0.21875 0.59375 0.578125 0.984375q0.375 0.390625 0.84375 0.578125q0.484375 0.1875 0.984375 0.1875q0.6875 0 1.265625 -0.1875q0.578125 -0.203125 0.921875 -0.46875l0 -5.671875zm6.7677 7.171875q0 0.5 -0.34375 0.875q-0.328125 0.375 -0.90625 0.375q-0.578125 0 -0.921875 -0.375q-0.328125 -0.375 -0.328125 -0.875q0 -0.515625 0.328125 -0.875q0.34375 -0.375 0.921875 -0.375q0.578125 0 0.90625 0.375q0.34375 0.359375 0.34375 0.875zm0.9487915 4.484375q-0.21875 0 -0.578125 -0.0625q-0.359375 -0.046875 -0.59375 -0.140625l0.21875 -1.421875q0.1875 0.0625 0.4375 0.09375q0.234375 0.046875 0.4375 0.046875q0.90625 0 1.28125 -0.5625q0.390625 -0.546875 0.390625 -1.609375l0 -9.53125l1.734375 0l0 9.515625q0 1.859375 -0.859375 2.765625q-0.84375 0.90625 -2.46875 0.90625zm2.4375 -14.9375q-0.453125 0 -0.78125 -0.3125q-0.328125 -0.3125 -0.328125 -0.828125q0 -0.515625 0.328125 -0.828125q0.328125 -0.3125 0.78125 -0.3125q0.46875 0 0.796875 0.3125q0.328125 0.3125 0.328125 0.828125q0 0.515625 -0.328125 0.828125q-0.328125 0.3125 -0.796875 0.3125zm6.1262817 10.203125q1.0625 0 1.578125 -0.28125q0.515625 -0.28125 0.515625 -0.890625q0 -0.640625 -0.515625 -1.015625q-0.5 -0.375 -1.65625 -0.828125q-0.5625 -0.234375 -1.078125 -0.46875q-0.5 -0.234375 -0.875 -0.546875q-0.375 -0.3125 -0.609375 -0.765625q-0.21875 -0.453125 -0.21875 -1.09375q0 -1.296875 0.953125 -2.046875q0.953125 -0.75 2.59375 -0.75q0.40625 0 0.8125 0.046875q0.421875 0.046875 0.765625 0.109375q0.359375 0.0625 0.625 0.140625q0.28125 0.0625 0.4375 0.125l-0.328125 1.5q-0.28125 -0.15625 -0.875 -0.3125q-0.59375 -0.15625 -1.4375 -0.15625q-0.71875 0 -1.265625 0.296875q-0.546875 0.28125 -0.546875 0.890625q0 0.3125 0.125 0.5625q0.125 0.234375 0.375 0.4375q0.25 0.203125 0.625 0.375q0.375 0.15625 0.890625 0.34375q0.6875 0.265625 1.234375 0.515625q0.546875 0.25 0.921875 0.59375q0.390625 0.328125 0.59375 0.8125q0.203125 0.46875 0.203125 1.15625q0 1.34375 -1.0 2.03125q-1.0 0.6875 -2.84375 0.6875q-1.28125 0 -2.015625 -0.21875q-0.734375 -0.203125 -0.984375 -0.3125l0.3125 -1.5q0.296875 0.109375 0.953125 0.34375q0.65625 0.21875 1.734375 0.21875zm14.633209 -3.59375q0 1.15625 -0.34375 2.09375q-0.328125 0.921875 -0.9375 1.59375q-0.609375 0.671875 -1.453125 1.046875q-0.828125 0.359375 -1.828125 0.359375q-0.984375 0 -1.828125 -0.359375q-0.84375 -0.375 -1.453125 -1.046875q-0.59375 -0.671875 -0.9375 -1.59375q-0.328125 -0.9375 -0.328125 -2.09375q0 -1.140625 0.328125 -2.078125q0.34375 -0.953125 0.9375 -1.625q0.609375 -0.671875 1.453125 -1.03125q0.84375 -0.359375 1.828125 -0.359375q1.0 0 1.828125 0.359375q0.84375 0.359375 1.453125 1.03125q0.609375 0.671875 0.9375 1.625q0.34375 0.9375 0.34375 2.078125zm-1.8125 0q0 -1.65625 -0.75 -2.609375q-0.734375 -0.953125 -2.0 -0.953125q-1.265625 0 -2.0 0.953125q-0.734375 0.953125 -0.734375 2.609375q0 1.640625 0.734375 2.609375q0.734375 0.953125 2.0 0.953125q1.265625 0 2.0 -0.953125q0.75 -0.96875 0.75 -2.609375zm4.2571716 -4.578125q0.59375 -0.15625 1.578125 -0.3125q0.984375 -0.171875 2.28125 -0.171875q1.15625 0 1.921875 0.328125q0.765625 0.328125 1.21875 0.921875q0.453125 0.578125 0.640625 1.40625q0.1875 0.8125 0.1875 1.796875l0 5.453125l-1.734375 0l0 -5.078125q0 -0.890625 -0.125 -1.515625q-0.125 -0.640625 -0.40625 -1.03125q-0.265625 -0.390625 -0.734375 -0.5625q-0.46875 -0.1875 -1.15625 -0.1875q-0.28125 0 -0.578125 0.015625q-0.296875 0.015625 -0.578125 0.046875q-0.265625 0.03125 -0.484375 0.078125q-0.203125 0.03125 -0.296875 0.046875l0 8.1875l-1.734375 0l0 -9.421875zm11.60141 3.84375q0 -2.390625 -0.703125 -4.421875q-0.6875 -2.03125 -2.03125 -3.765625l1.234375 -0.84375q1.453125 1.78125 2.34375 4.078125q0.890625 2.296875 0.890625 4.953125q0 2.65625 -0.890625 4.953125q-0.890625 2.296875 -2.34375 4.078125l-1.234375 -0.84375q1.34375 -1.734375 2.03125 -3.765625q0.703125 -2.03125 0.703125 -4.421875z" fill-rule="nonzero"/><path fill="#65aaff" d="m257.4265 125.18132l0 0c0 -6.0042267 4.8673706 -10.871613 10.871613 -10.871613l145.15442 0c2.8833313 0 5.6485596 1.145401 7.687378 3.184227c2.0388184 2.0388184 3.1842346 4.8040543 3.1842346 7.6873856l0 43.485123c0 6.0042267 -4.867401 10.871613 -10.871613 10.871613l-145.15442 0l0 0c-6.004242 0 -10.871613 -4.867386 -10.871613 -10.871613z" fill-rule="evenodd"/><path stroke="#434343" stroke-width="2.0" stroke-linejoin="round" stroke-linecap="butt" d="m257.4265 125.18132l0 0c0 -6.0042267 4.8673706 -10.871613 10.871613 -10.871613l145.15442 0c2.8833313 0 5.6485596 1.145401 7.687378 3.184227c2.0388184 2.0388184 3.1842346 4.8040543 3.1842346 7.6873856l0 43.485123c0 6.0042267 -4.867401 10.871613 -10.871613 10.871613l-145.15442 0l0 0c-6.004242 0 -10.871613 -4.867386 -10.871613 -10.871613z" fill-rule="evenodd"/><path fill="#000000" d="m294.88333 151.39326q0.765625 0 1.109375 -0.1875q0.359375 -0.1875 0.359375 -0.625q0 -0.421875 -0.375 -0.6875q-0.375 -0.28125 -1.234375 -0.59375q-0.53125 -0.203125 -0.96875 -0.40625q-0.4375 -0.21875 -0.765625 -0.5q-0.3125 -0.296875 -0.5 -0.703125q-0.1875 -0.40625 -0.1875 -1.0q0 -1.15625 0.84375 -1.8125q0.859375 -0.671875 2.3125 -0.671875q0.734375 0 1.40625 0.140625q0.671875 0.140625 1.015625 0.265625l-0.359375 1.5625q-0.328125 -0.140625 -0.828125 -0.25q-0.484375 -0.125 -1.140625 -0.125q-0.59375 0 -0.96875 0.203125q-0.359375 0.1875 -0.359375 0.609375q0 0.203125 0.0625 0.375q0.078125 0.15625 0.25 0.296875q0.1875 0.125 0.46875 0.265625q0.296875 0.125 0.703125 0.28125q0.6875 0.25 1.171875 0.5q0.484375 0.25 0.796875 0.5625q0.3125 0.3125 0.453125 0.71875q0.140625 0.390625 0.140625 0.953125q0 1.1875 -0.890625 1.8125q-0.890625 0.609375 -2.53125 0.609375q-1.109375 0 -1.78125 -0.1875q-0.671875 -0.171875 -0.9375 -0.28125l0.328125 -1.625q0.4375 0.171875 1.03125 0.34375q0.609375 0.15625 1.375 0.15625zm5.1245117 -9.1875l1.9375 -0.3125l0 2.515625l2.96875 0l0 1.625l-2.96875 0l0 3.40625q0 1.0 0.3125 1.4375q0.328125 0.4375 1.09375 0.4375q0.53125 0 0.9375 -0.109375q0.40625 -0.125 0.640625 -0.21875l0.328125 1.546875q-0.34375 0.140625 -0.890625 0.28125q-0.546875 0.15625 -1.28125 0.15625q-0.890625 0 -1.5 -0.234375q-0.59375 -0.234375 -0.953125 -0.6875q-0.34375 -0.46875 -0.484375 -1.109375q-0.140625 -0.65625 -0.140625 -1.484375l0 -7.25zm9.719269 9.21875q0.90625 0 1.359375 -0.09375l0 -2.140625q-0.15625 -0.046875 -0.46875 -0.09375q-0.296875 -0.0625 -0.65625 -0.0625q-0.328125 0 -0.65625 0.0625q-0.328125 0.046875 -0.59375 0.171875q-0.265625 0.125 -0.421875 0.359375q-0.15625 0.234375 -0.15625 0.578125q0 0.6875 0.421875 0.953125q0.4375 0.265625 1.171875 0.265625zm-0.15625 -7.21875q0.953125 0 1.609375 0.25q0.65625 0.234375 1.046875 0.671875q0.40625 0.421875 0.5625 1.046875q0.171875 0.609375 0.171875 1.34375l0 5.078125q-0.453125 0.09375 -1.359375 0.21875q-0.890625 0.140625 -2.03125 0.140625q-0.75 0 -1.375 -0.140625q-0.625 -0.140625 -1.0625 -0.453125q-0.4375 -0.328125 -0.6875 -0.84375q-0.25 -0.515625 -0.25 -1.265625q0 -0.71875 0.28125 -1.203125q0.28125 -0.5 0.75 -0.8125q0.484375 -0.3125 1.109375 -0.453125q0.640625 -0.140625 1.328125 -0.140625q0.328125 0 0.671875 0.046875q0.359375 0.03125 0.75 0.140625l0 -0.328125q0 -0.328125 -0.078125 -0.625q-0.078125 -0.3125 -0.28125 -0.546875q-0.203125 -0.234375 -0.53125 -0.359375q-0.328125 -0.125 -0.8125 -0.125q-0.671875 0 -1.234375 0.09375q-0.5625 0.09375 -0.90625 0.21875l-0.25 -1.5625q0.375 -0.125 1.078125 -0.25q0.703125 -0.140625 1.5 -0.140625zm5.669037 -2.0l1.9375 -0.3125l0 2.515625l2.96875 0l0 1.625l-2.96875 0l0 3.40625q0 1.0 0.3125 1.4375q0.328125 0.4375 1.09375 0.4375q0.53125 0 0.9375 -0.109375q0.40625 -0.125 0.640625 -0.21875l0.328125 1.546875q-0.34375 0.140625 -0.890625 0.28125q-0.546875 0.15625 -1.28125 0.15625q-0.890625 0 -1.5 -0.234375q-0.59375 -0.234375 -0.953125 -0.6875q-0.34375 -0.46875 -0.484375 -1.109375q-0.140625 -0.65625 -0.140625 -1.484375l0 -7.25zm13.641144 10.328125q-0.5625 0.140625 -1.453125 0.28125q-0.890625 0.15625 -1.96875 0.15625q-1.015625 0 -1.703125 -0.28125q-0.671875 -0.296875 -1.078125 -0.796875q-0.40625 -0.515625 -0.578125 -1.21875q-0.171875 -0.71875 -0.171875 -1.578125l0 -4.6875l1.9375 0l0 4.390625q0 1.34375 0.390625 1.921875q0.390625 0.578125 1.359375 0.578125q0.359375 0 0.75 -0.03125q0.390625 -0.03125 0.578125 -0.078125l0 -6.78125l1.9375 0l0 8.125zm4.562378 -1.140625q0.765625 0 1.109375 -0.1875q0.359375 -0.1875 0.359375 -0.625q0 -0.421875 -0.375 -0.6875q-0.375 -0.28125 -1.234375 -0.59375q-0.53125 -0.203125 -0.96875 -0.40625q-0.4375 -0.21875 -0.765625 -0.5q-0.3125 -0.296875 -0.5 -0.703125q-0.1875 -0.40625 -0.1875 -1.0q0 -1.15625 0.84375 -1.8125q0.859375 -0.671875 2.3125 -0.671875q0.734375 0 1.40625 0.140625q0.671875 0.140625 1.015625 0.265625l-0.359375 1.5625q-0.328125 -0.140625 -0.828125 -0.25q-0.484375 -0.125 -1.140625 -0.125q-0.59375 0 -0.96875 0.203125q-0.359375 0.1875 -0.359375 0.609375q0 0.203125 0.0625 0.375q0.078125 0.15625 0.25 0.296875q0.1875 0.125 0.46875 0.265625q0.296875 0.125 0.703125 0.28125q0.6875 0.25 1.171875 0.5q0.484375 0.25 0.796875 0.5625q0.3125 0.3125 0.453125 0.71875q0.140625 0.390625 0.140625 0.953125q0 1.1875 -0.890625 1.8125q-0.890625 0.609375 -2.53125 0.609375q-1.109375 0 -1.78125 -0.1875q-0.671875 -0.171875 -0.9375 -0.28125l0.328125 -1.625q0.4375 0.171875 1.03125 0.34375q0.609375 0.15625 1.375 0.15625zm8.540039 -2.265625l7.421875 0l0 1.625l-7.421875 0l0 -1.625zm0 -3.46875l7.421875 0l0 1.640625l-7.421875 0l0 -1.640625zm20.78476 7.125q-0.546875 -0.90625 -1.21875 -1.953125q-0.671875 -1.0625 -1.390625 -2.125q-0.71875 -1.0625 -1.46875 -2.0625q-0.734375 -1.0 -1.40625 -1.796875l0 7.9375l-1.984375 0l0 -11.09375l1.640625 0q0.640625 0.671875 1.375 1.59375q0.75 0.921875 1.484375 1.921875q0.75 0.984375 1.4375 1.984375q0.703125 1.0 1.25 1.859375l0 -7.359375l2.0 0l0 11.09375l-1.71875 0zm4.371277 0l0 -11.09375l7.125 0l0 1.71875l-5.109375 0l0 2.734375l4.546875 0l0 1.6875l-4.546875 0l0 3.234375l5.484375 0l0 1.71875l-7.5 0zm16.485413 -9.84375q0.25 0.875 0.53125 1.8125q0.296875 0.921875 0.609375 1.859375q0.3125 0.9375 0.625 1.84375q0.3125 0.90625 0.59375 1.703125q0.25 -0.859375 0.46875 -1.875q0.21875 -1.015625 0.4375 -2.109375q0.234375 -1.109375 0.453125 -2.234375q0.21875 -1.140625 0.40625 -2.25l2.078125 0q-0.5625 3.015625 -1.25 5.796875q-0.6875 2.765625 -1.53125 5.296875l-1.921875 0q-1.25 -3.234375 -2.421875 -7.0625q-0.59375 1.9375 -1.203125 3.6875q-0.59375 1.75 -1.203125 3.375l-1.921875 0q-0.875 -2.53125 -1.5625 -5.296875q-0.671875 -2.78125 -1.21875 -5.796875l2.15625 0q0.1875 1.09375 0.40625 2.234375q0.21875 1.125 0.4375 2.234375q0.234375 1.09375 0.46875 2.125q0.25 1.015625 0.5 1.875q0.296875 -0.8125 0.609375 -1.71875q0.3125 -0.90625 0.609375 -1.84375q0.3125 -0.9375 0.59375 -1.859375q0.28125 -0.921875 0.515625 -1.796875l1.734375 0z" fill-rule="nonzero"/><path fill="#000000" fill-opacity="0.0" d="m340.87534 93.154854c0 5.2886963 0.01574707 7.931717 0.03149414 10.577385c0.01574707 2.6456757 0.03149414 5.2939835 0.03149414 10.587975" fill-rule="evenodd"/><path stroke="#434343" stroke-width="1.0" stroke-linejoin="round" stroke-linecap="butt" d="m340.87534 93.154854c0 5.2886963 0.01574707 7.931717 0.03149414 10.577385c0.007873535 1.3228378 0.01574707 2.6463318 0.021636963 4.300865l7.6293945E-4 0.287117" fill-rule="evenodd"/><path fill="#434343" stroke="#434343" stroke-width="1.0" stroke-linecap="butt" d="m339.2775 108.32272l1.6585999 4.5355835l1.6448364 -4.540596z" fill-rule="evenodd"/><path fill="#000000" fill-opacity="0.0" d="m340.87534 182.51831l86.36218 0l0 37.16536l-86.36218 0z" fill-rule="evenodd"/><path fill="#000000" d="m357.2816 205.59831q-0.421875 -1.0625 -0.890625 -2.40625q-0.453125 -1.359375 -0.828125 -2.828125q-0.375 1.46875 -0.84375 2.828125q-0.453125 1.34375 -0.859375 2.40625l-1.1875 0q-0.671875 -1.515625 -1.328125 -3.4375q-0.640625 -1.9375 -1.203125 -4.1875l1.46875 0q0.140625 0.6875 0.34375 1.5q0.203125 0.8125 0.421875 1.625q0.234375 0.796875 0.484375 1.546875q0.25 0.734375 0.46875 1.296875q0.25 -0.6875 0.484375 -1.453125q0.25 -0.78125 0.46875 -1.5625q0.21875 -0.78125 0.421875 -1.53125q0.203125 -0.765625 0.34375 -1.421875l1.125 0q0.140625 0.65625 0.328125 1.421875q0.1875 0.75 0.40625 1.53125q0.21875 0.78125 0.453125 1.5625q0.25 0.765625 0.5 1.453125q0.21875 -0.5625 0.453125 -1.296875q0.25 -0.75 0.484375 -1.546875q0.234375 -0.8125 0.4375 -1.625q0.21875 -0.8125 0.359375 -1.5l1.40625 0q-0.578125 2.25 -1.21875 4.1875q-0.640625 1.921875 -1.3125 3.4375l-1.1875 0zm7.7316895 -0.984375q0.484375 0 0.859375 -0.015625q0.375 -0.03125 0.625 -0.078125l0 -2.28125q-0.15625 -0.0625 -0.484375 -0.109375q-0.328125 -0.0625 -0.796875 -0.0625q-0.296875 0 -0.65625 0.046875q-0.34375 0.046875 -0.625 0.1875q-0.28125 0.125 -0.46875 0.375q-0.1875 0.234375 -0.1875 0.640625q0 0.734375 0.46875 1.015625q0.46875 0.28125 1.265625 0.28125zm-0.109375 -6.828125q0.8125 0 1.375 0.21875q0.5625 0.203125 0.90625 0.59375q0.34375 0.390625 0.484375 0.921875q0.15625 0.53125 0.15625 1.1875l0 4.765625q-0.171875 0.015625 -0.484375 0.078125q-0.3125 0.046875 -0.71875 0.09375q-0.390625 0.046875 -0.859375 0.078125q-0.453125 0.03125 -0.90625 0.03125q-0.640625 0 -1.1875 -0.140625q-0.546875 -0.125 -0.953125 -0.40625q-0.390625 -0.28125 -0.609375 -0.75q-0.21875 -0.46875 -0.21875 -1.125q0 -0.640625 0.25 -1.09375q0.265625 -0.453125 0.703125 -0.734375q0.4375 -0.28125 1.015625 -0.40625q0.59375 -0.125 1.25 -0.125q0.203125 0 0.421875 0.015625q0.21875 0.015625 0.40625 0.0625q0.203125 0.03125 0.34375 0.0625q0.15625 0.03125 0.21875 0.046875l0 -0.390625q0 -0.328125 -0.078125 -0.65625q-0.078125 -0.328125 -0.265625 -0.578125q-0.1875 -0.265625 -0.515625 -0.421875q-0.328125 -0.15625 -0.859375 -0.15625q-0.671875 0 -1.1875 0.09375q-0.5 0.09375 -0.75 0.203125l-0.15625 -1.125q0.265625 -0.125 0.875 -0.234375q0.625 -0.109375 1.34375 -0.109375zm7.9943542 0.03125q0.171875 0 0.390625 0.03125q0.234375 0.015625 0.453125 0.046875q0.234375 0.03125 0.40625 0.078125q0.1875 0.03125 0.28125 0.0625l-0.234375 1.1875q-0.171875 -0.0625 -0.546875 -0.140625q-0.359375 -0.078125 -0.953125 -0.078125q-0.375 0 -0.75 0.078125q-0.375 0.078125 -0.5 0.109375l0 6.40625l-1.359375 0l0 -7.296875q0.484375 -0.171875 1.203125 -0.328125q0.71875 -0.15625 1.609375 -0.15625zm2.844818 0.375q0.46875 -0.109375 1.234375 -0.234375q0.78125 -0.140625 1.78125 -0.140625q0.734375 0 1.234375 0.203125q0.5 0.1875 0.84375 0.578125q0.09375 -0.078125 0.3125 -0.203125q0.21875 -0.140625 0.546875 -0.265625q0.328125 -0.125 0.71875 -0.21875q0.390625 -0.09375 0.84375 -0.09375q0.890625 0 1.4375 0.265625q0.5625 0.25 0.875 0.71875q0.3125 0.46875 0.421875 1.109375q0.109375 0.640625 0.109375 1.40625l0 4.28125l-1.359375 0l0 -3.984375q0 -0.671875 -0.0625 -1.15625q-0.0625 -0.484375 -0.25 -0.796875q-0.1875 -0.328125 -0.5 -0.484375q-0.3125 -0.15625 -0.8125 -0.15625q-0.6875 0 -1.140625 0.1875q-0.4375 0.171875 -0.609375 0.328125q0.125 0.375 0.171875 0.828125q0.0625 0.453125 0.0625 0.953125l0 4.28125l-1.359375 0l0 -3.984375q0 -0.671875 -0.078125 -1.15625q-0.0625 -0.484375 -0.25 -0.796875q-0.1875 -0.328125 -0.5 -0.484375q-0.3125 -0.15625 -0.796875 -0.15625q-0.203125 0 -0.4375 0.015625q-0.234375 0.015625 -0.453125 0.046875q-0.203125 0.015625 -0.390625 0.046875q-0.171875 0.015625 -0.234375 0.03125l0 6.4375l-1.359375 0l0 -7.40625zm18.68158 7.1875q-0.46875 0.109375 -1.234375 0.234375q-0.765625 0.140625 -1.78125 0.140625q-0.875 0 -1.484375 -0.25q-0.59375 -0.265625 -0.96875 -0.734375q-0.359375 -0.46875 -0.53125 -1.09375q-0.15625 -0.640625 -0.15625 -1.421875l0 -4.28125l1.375 0l0 3.984375q0 1.390625 0.4375 2.0q0.4375 0.59375 1.484375 0.59375q0.21875 0 0.453125 0q0.234375 -0.015625 0.4375 -0.03125q0.203125 -0.03125 0.359375 -0.046875q0.171875 -0.03125 0.25 -0.0625l0 -6.4375l1.359375 0l0 7.40625zm7.6470947 -3.578125q0 -1.328125 -0.671875 -2.046875q-0.65625 -0.71875 -1.75 -0.71875q-0.625 0 -0.96875 0.046875q-0.34375 0.03125 -0.546875 0.09375l0 4.8125q0.25 0.203125 0.71875 0.390625q0.46875 0.1875 1.03125 0.1875q0.578125 0 1.0 -0.203125q0.421875 -0.21875 0.6875 -0.59375q0.265625 -0.375 0.375 -0.875q0.125 -0.5 0.125 -1.09375zm1.421875 0q0 0.859375 -0.234375 1.59375q-0.21875 0.734375 -0.671875 1.265625q-0.4375 0.53125 -1.078125 0.828125q-0.625 0.28125 -1.453125 0.28125q-0.65625 0 -1.171875 -0.171875q-0.5 -0.171875 -0.75 -0.34375l0 3.0625l-1.359375 0l0 -10.109375q0.484375 -0.109375 1.203125 -0.25q0.734375 -0.140625 1.6875 -0.140625q0.875 0 1.578125 0.28125q0.703125 0.28125 1.203125 0.796875q0.5 0.5 0.765625 1.25q0.28125 0.734375 0.28125 1.65625zm3.2419434 -0.578125q0 1.875 0.546875 3.46875q0.546875 1.59375 1.59375 2.953125l-0.96875 0.671875q-1.140625 -1.40625 -1.84375 -3.203125q-0.6875 -1.8125 -0.6875 -3.890625q0 -2.09375 0.6875 -3.890625q0.703125 -1.8125 1.84375 -3.203125l0.96875 0.65625q-1.046875 1.359375 -1.59375 2.953125q-0.546875 1.59375 -0.546875 3.484375zm5.671997 0q0 -1.890625 -0.546875 -3.484375q-0.546875 -1.59375 -1.59375 -2.953125l0.953125 -0.65625q1.15625 1.390625 1.84375 3.203125q0.703125 1.796875 0.703125 3.890625q0 2.078125 -0.703125 3.890625q-0.6875 1.796875 -1.84375 3.203125l-0.953125 -0.671875q1.046875 -1.359375 1.59375 -2.953125q0.546875 -1.59375 0.546875 -3.46875z" fill-rule="nonzero"/><path fill="#65aaff" d="m257.4265 233.53433l0 0c0 -6.0042114 4.8673706 -10.871597 10.871613 -10.871597l145.15442 0c2.8833313 0 5.6485596 1.1453857 7.687378 3.1842194c2.0388184 2.0388184 3.1842346 4.8040466 3.1842346 7.687378l0 43.485138c0 6.0042114 -4.867401 10.871613 -10.871613 10.871613l-145.15442 0l0 0c-6.004242 0 -10.871613 -4.867401 -10.871613 -10.871613z" fill-rule="evenodd"/><path stroke="#434343" stroke-width="2.0" stroke-linejoin="round" stroke-linecap="butt" d="m257.4265 233.53433l0 0c0 -6.0042114 4.8673706 -10.871597 10.871613 -10.871597l145.15442 0c2.8833313 0 5.6485596 1.1453857 7.687378 3.1842194c2.0388184 2.0388184 3.1842346 4.8040466 3.1842346 7.687378l0 43.485138c0 6.0042114 -4.867401 10.871613 -10.871613 10.871613l-145.15442 0l0 0c-6.004242 0 -10.871613 -4.867401 -10.871613 -10.871613z" fill-rule="evenodd"/><path fill="#000000" d="m287.07532 259.74628q0.765625 0 1.109375 -0.1875q0.359375 -0.1875 0.359375 -0.625q0 -0.421875 -0.375 -0.6875q-0.375 -0.28125 -1.234375 -0.59375q-0.53125 -0.203125 -0.96875 -0.40625q-0.4375 -0.21875 -0.765625 -0.5q-0.3125 -0.296875 -0.5 -0.703125q-0.1875 -0.40625 -0.1875 -1.0q0 -1.15625 0.84375 -1.8125q0.859375 -0.671875 2.3125 -0.671875q0.734375 0 1.40625 0.140625q0.671875 0.140625 1.015625 0.265625l-0.359375 1.5625q-0.328125 -0.140625 -0.828125 -0.25q-0.484375 -0.125 -1.140625 -0.125q-0.59375 0 -0.96875 0.203125q-0.359375 0.1875 -0.359375 0.609375q0 0.203125 0.0625 0.375q0.078125 0.15625 0.25 0.296875q0.1875 0.125 0.46875 0.265625q0.296875 0.125 0.703125 0.28125q0.6875 0.25 1.171875 0.5q0.484375 0.25 0.796875 0.5625q0.3125 0.3125 0.453125 0.71875q0.140625 0.390625 0.140625 0.953125q0 1.1875 -0.890625 1.8125q-0.890625 0.609375 -2.53125 0.609375q-1.109375 0 -1.78125 -0.1875q-0.671875 -0.171875 -0.9375 -0.28125l0.328125 -1.625q0.4375 0.171875 1.03125 0.34375q0.609375 0.15625 1.375 0.15625zm5.1245117 -9.1875l1.9375 -0.3125l0 2.515625l2.96875 0l0 1.625l-2.96875 0l0 3.40625q0 1.0 0.3125 1.4375q0.328125 0.4375 1.09375 0.4375q0.53125 0 0.9375 -0.109375q0.40625 -0.125 0.640625 -0.21875l0.328125 1.546875q-0.34375 0.140625 -0.890625 0.28125q-0.546875 0.15625 -1.28125 0.15625q-0.890625 0 -1.5 -0.234375q-0.59375 -0.234375 -0.953125 -0.6875q-0.34375 -0.46875 -0.484375 -1.109375q-0.140625 -0.65625 -0.140625 -1.484375l0 -7.25zm9.719269 9.21875q0.90625 0 1.359375 -0.09375l0 -2.140625q-0.15625 -0.046875 -0.46875 -0.09375q-0.296875 -0.0625 -0.65625 -0.0625q-0.328125 0 -0.65625 0.0625q-0.328125 0.046875 -0.59375 0.171875q-0.265625 0.125 -0.421875 0.359375q-0.15625 0.234375 -0.15625 0.578125q0 0.6875 0.421875 0.953125q0.4375 0.265625 1.171875 0.265625zm-0.15625 -7.21875q0.953125 0 1.609375 0.25q0.65625 0.234375 1.046875 0.671875q0.40625 0.421875 0.5625 1.046875q0.171875 0.609375 0.171875 1.34375l0 5.078125q-0.453125 0.09375 -1.359375 0.21875q-0.890625 0.140625 -2.03125 0.140625q-0.75 0 -1.375 -0.140625q-0.625 -0.140625 -1.0625 -0.453125q-0.4375 -0.328125 -0.6875 -0.84375q-0.25 -0.515625 -0.25 -1.265625q0 -0.71875 0.28125 -1.203125q0.28125 -0.5 0.75 -0.8125q0.484375 -0.3125 1.109375 -0.453125q0.640625 -0.140625 1.328125 -0.140625q0.328125 0 0.671875 0.046875q0.359375 0.03125 0.75 0.140625l0 -0.328125q0 -0.328125 -0.078125 -0.625q-0.078125 -0.3125 -0.28125 -0.546875q-0.203125 -0.234375 -0.53125 -0.359375q-0.328125 -0.125 -0.8125 -0.125q-0.671875 0 -1.234375 0.09375q-0.5625 0.09375 -0.90625 0.21875l-0.25 -1.5625q0.375 -0.125 1.078125 -0.25q0.703125 -0.140625 1.5 -0.140625zm5.669037 -2.0l1.9375 -0.3125l0 2.515625l2.96875 0l0 1.625l-2.96875 0l0 3.40625q0 1.0 0.3125 1.4375q0.328125 0.4375 1.09375 0.4375q0.53125 0 0.9375 -0.109375q0.40625 -0.125 0.640625 -0.21875l0.328125 1.546875q-0.34375 0.140625 -0.890625 0.28125q-0.546875 0.15625 -1.28125 0.15625q-0.890625 0 -1.5 -0.234375q-0.59375 -0.234375 -0.953125 -0.6875q-0.34375 -0.46875 -0.484375 -1.109375q-0.140625 -0.65625 -0.140625 -1.484375l0 -7.25zm13.641144 10.328125q-0.5625 0.140625 -1.453125 0.28125q-0.890625 0.15625 -1.96875 0.15625q-1.015625 0 -1.703125 -0.28125q-0.671875 -0.296875 -1.078125 -0.796875q-0.40625 -0.515625 -0.578125 -1.21875q-0.171875 -0.71875 -0.171875 -1.578125l0 -4.6875l1.9375 0l0 4.390625q0 1.34375 0.390625 1.921875q0.390625 0.578125 1.359375 0.578125q0.359375 0 0.75 -0.03125q0.390625 -0.03125 0.578125 -0.078125l0 -6.78125l1.9375 0l0 8.125zm4.562378 -1.140625q0.765625 0 1.109375 -0.1875q0.359375 -0.1875 0.359375 -0.625q0 -0.421875 -0.375 -0.6875q-0.375 -0.28125 -1.234375 -0.59375q-0.53125 -0.203125 -0.96875 -0.40625q-0.4375 -0.21875 -0.765625 -0.5q-0.3125 -0.296875 -0.5 -0.703125q-0.1875 -0.40625 -0.1875 -1.0q0 -1.15625 0.84375 -1.8125q0.859375 -0.671875 2.3125 -0.671875q0.734375 0 1.40625 0.140625q0.671875 0.140625 1.015625 0.265625l-0.359375 1.5625q-0.328125 -0.140625 -0.828125 -0.25q-0.484375 -0.125 -1.140625 -0.125q-0.59375 0 -0.96875 0.203125q-0.359375 0.1875 -0.359375 0.609375q0 0.203125 0.0625 0.375q0.078125 0.15625 0.25 0.296875q0.1875 0.125 0.46875 0.265625q0.296875 0.125 0.703125 0.28125q0.6875 0.25 1.171875 0.5q0.484375 0.25 0.796875 0.5625q0.3125 0.3125 0.453125 0.71875q0.140625 0.390625 0.140625 0.953125q0 1.1875 -0.890625 1.8125q-0.890625 0.609375 -2.53125 0.609375q-1.109375 0 -1.78125 -0.1875q-0.671875 -0.171875 -0.9375 -0.28125l0.328125 -1.625q0.4375 0.171875 1.03125 0.34375q0.609375 0.15625 1.375 0.15625zm8.540039 -2.265625l7.421875 0l0 1.625l-7.421875 0l0 -1.625zm0 -3.46875l7.421875 0l0 1.640625l-7.421875 0l0 -1.640625zm16.37851 -4.078125q2.390625 0 3.65625 0.890625q1.28125 0.875 1.28125 2.6875q0 2.25 -2.21875 3.046875q0.296875 0.375 0.671875 0.90625q0.390625 0.515625 0.78125 1.140625q0.40625 0.609375 0.78125 1.265625q0.375 0.640625 0.65625 1.265625l-2.25 0q-0.3125 -0.578125 -0.671875 -1.15625q-0.34375 -0.59375 -0.703125 -1.140625q-0.359375 -0.546875 -0.71875 -1.03125q-0.34375 -0.5 -0.640625 -0.875q-0.234375 0.015625 -0.390625 0.015625q-0.15625 0 -0.3125 0l-0.96875 0l0 4.1875l-2.015625 0l0 -10.921875q0.734375 -0.171875 1.5625 -0.21875q0.84375 -0.0625 1.5 -0.0625zm0.140625 1.75q-0.640625 0 -1.1875 0.046875l0 3.578125l0.875 0q0.734375 0 1.296875 -0.078125q0.5625 -0.078125 0.9375 -0.28125q0.375 -0.21875 0.5625 -0.5625q0.203125 -0.359375 0.203125 -0.890625q0 -0.515625 -0.203125 -0.859375q-0.1875 -0.359375 -0.546875 -0.5625q-0.359375 -0.21875 -0.859375 -0.296875q-0.484375 -0.09375 -1.078125 -0.09375zm7.0368958 9.453125l0 -11.09375l7.125 0l0 1.71875l-5.109375 0l0 2.734375l4.546875 0l0 1.6875l-4.546875 0l0 3.234375l5.484375 0l0 1.71875l-7.5 0zm16.975403 0q-0.21875 -0.65625 -0.46875 -1.296875q-0.234375 -0.640625 -0.453125 -1.3125l-4.671875 0q-0.234375 0.671875 -0.46875 1.328125q-0.21875 0.640625 -0.453125 1.28125l-2.09375 0q0.625 -1.78125 1.1875 -3.28125q0.5625 -1.5 1.09375 -2.84375q0.53125 -1.34375 1.0625 -2.5625q0.53125 -1.21875 1.09375 -2.40625l1.90625 0q0.546875 1.1875 1.078125 2.40625q0.53125 1.21875 1.0625 2.5625q0.546875 1.34375 1.109375 2.84375q0.5625 1.5 1.1875 3.28125l-2.171875 0zm-3.265625 -8.9375q-0.359375 0.84375 -0.84375 2.0625q-0.46875 1.21875 -0.984375 2.640625l3.65625 0q-0.515625 -1.421875 -1.0 -2.65625q-0.46875 -1.234375 -0.828125 -2.046875zm8.865906 7.28125q0.171875 0.015625 0.453125 0.03125q0.296875 0 0.796875 0q2.03125 0 3.03125 -1.03125q1.0 -1.046875 1.0 -2.890625q0 -1.890625 -0.984375 -2.890625q-0.96875 -1.015625 -3.015625 -1.015625q-0.890625 0 -1.28125 0.046875l0 7.75zm7.390625 -3.890625q0 1.4375 -0.453125 2.5q-0.4375 1.0625 -1.265625 1.78125q-0.828125 0.703125 -1.984375 1.046875q-1.15625 0.34375 -2.5625 0.34375q-0.671875 0 -1.53125 -0.0625q-0.84375 -0.046875 -1.609375 -0.21875l0 -10.765625q0.765625 -0.1875 1.625 -0.234375q0.875 -0.046875 1.546875 -0.046875q1.390625 0 2.53125 0.328125q1.15625 0.328125 1.984375 1.03125q0.828125 0.6875 1.265625 1.75q0.453125 1.0625 0.453125 2.546875zm5.3681335 -0.625q0.71875 -1.203125 1.40625 -2.4375q0.6875 -1.234375 1.25 -2.484375l2.234375 0q-0.890625 1.703125 -1.859375 3.375q-0.96875 1.671875 -2.078125 3.359375l0 4.359375l-2.015625 0l0 -4.3125q-1.109375 -1.71875 -2.09375 -3.390625q-0.96875 -1.6875 -1.859375 -3.390625l2.375 0q0.546875 1.25 1.21875 2.484375q0.671875 1.234375 1.421875 2.4375z" fill-rule="nonzero"/><path fill="#000000" fill-opacity="0.0" d="m340.87534 179.53806c0 10.78125 0.01574707 16.172745 0.03149414 21.5625c0.01574707 5.3897705 0.03149414 10.777817 0.03149414 21.555618" fill-rule="evenodd"/><path stroke="#434343" stroke-width="1.0" stroke-linejoin="round" stroke-linecap="butt" d="m340.87534 179.53806c0 10.78125 0.01574707 16.172745 0.03149414 21.5625c0.007873535 2.6948853 0.01574707 5.389328 0.021636963 8.757309c0.002960205 1.68396 0.005432129 3.5363007 0.0071411133 5.6412964l4.272461E-4 1.1570129" fill-rule="evenodd"/><path fill="#434343" stroke="#434343" stroke-width="1.0" stroke-linecap="butt" d="m339.28433 216.6568l1.6534424 4.5374603l1.6499939 -4.5387115z" fill-rule="evenodd"/><path fill="#65aaff" d="m257.4265 341.88605l0 0c0 -6.004242 4.8673706 -10.871613 10.871613 -10.871613l145.15442 0c2.8833313 0 5.6485596 1.1453857 7.687378 3.1842346c2.0388184 2.0388184 3.1842346 4.8040466 3.1842346 7.687378l0 43.485138c0 6.0042114 -4.867401 10.871582 -10.871613 10.871582l-145.15442 0l0 0c-6.004242 0 -10.871613 -4.8673706 -10.871613 -10.871582z" fill-rule="evenodd"/><path stroke="#434343" stroke-width="2.0" stroke-linejoin="round" stroke-linecap="butt" d="m257.4265 341.88605l0 0c0 -6.004242 4.8673706 -10.871613 10.871613 -10.871613l145.15442 0c2.8833313 0 5.6485596 1.1453857 7.687378 3.1842346c2.0388184 2.0388184 3.1842346 4.8040466 3.1842346 7.687378l0 43.485138c0 6.0042114 -4.867401 10.871582 -10.871613 10.871582l-145.15442 0l0 0c-6.004242 0 -10.871613 -4.8673706 -10.871613 -10.871582z" fill-rule="evenodd"/><path fill="#000000" d="m276.6913 368.098q0.765625 0 1.109375 -0.1875q0.359375 -0.1875 0.359375 -0.625q0 -0.421875 -0.375 -0.6875q-0.375 -0.28125 -1.234375 -0.59375q-0.53125 -0.203125 -0.96875 -0.40625q-0.4375 -0.21875 -0.765625 -0.5q-0.3125 -0.296875 -0.5 -0.703125q-0.1875 -0.40625 -0.1875 -1.0q0 -1.15625 0.84375 -1.8125q0.859375 -0.671875 2.3125 -0.671875q0.734375 0 1.40625 0.140625q0.671875 0.140625 1.015625 0.265625l-0.359375 1.5625q-0.328125 -0.140625 -0.828125 -0.25q-0.484375 -0.125 -1.140625 -0.125q-0.59375 0 -0.96875 0.203125q-0.359375 0.1875 -0.359375 0.609375q0 0.203125 0.0625 0.375q0.078125 0.15625 0.25 0.296875q0.1875 0.125 0.46875 0.265625q0.296875 0.125 0.703125 0.28125q0.6875 0.25 1.171875 0.5q0.484375 0.25 0.796875 0.5625q0.3125 0.3125 0.453125 0.71875q0.140625 0.390625 0.140625 0.953125q0 1.1875 -0.890625 1.8125q-0.890625 0.609375 -2.53125 0.609375q-1.109375 0 -1.78125 -0.1875q-0.671875 -0.171875 -0.9375 -0.28125l0.328125 -1.625q0.4375 0.171875 1.03125 0.34375q0.609375 0.15625 1.375 0.15625zm5.1245117 -9.1875l1.9375 -0.3125l0 2.515625l2.96875 0l0 1.625l-2.96875 0l0 3.40625q0 1.0 0.3125 1.4375q0.328125 0.4375 1.09375 0.4375q0.53125 0 0.9375 -0.109375q0.40625 -0.125 0.640625 -0.21875l0.328125 1.546875q-0.34375 0.140625 -0.890625 0.28125q-0.546875 0.15625 -1.28125 0.15625q-0.890625 0 -1.5 -0.234375q-0.59375 -0.234375 -0.953125 -0.6875q-0.34375 -0.46875 -0.484375 -1.109375q-0.140625 -0.65625 -0.140625 -1.484375l0 -7.25zm9.719269 9.21875q0.90625 0 1.359375 -0.09375l0 -2.140625q-0.15625 -0.046875 -0.46875 -0.09375q-0.296875 -0.0625 -0.65625 -0.0625q-0.328125 0 -0.65625 0.0625q-0.328125 0.046875 -0.59375 0.171875q-0.265625 0.125 -0.421875 0.359375q-0.15625 0.234375 -0.15625 0.578125q0 0.6875 0.421875 0.953125q0.4375 0.265625 1.171875 0.265625zm-0.15625 -7.21875q0.953125 0 1.609375 0.25q0.65625 0.234375 1.046875 0.671875q0.40625 0.421875 0.5625 1.046875q0.171875 0.609375 0.171875 1.34375l0 5.078125q-0.453125 0.09375 -1.359375 0.21875q-0.890625 0.140625 -2.03125 0.140625q-0.75 0 -1.375 -0.140625q-0.625 -0.140625 -1.0625 -0.453125q-0.4375 -0.328125 -0.6875 -0.84375q-0.25 -0.515625 -0.25 -1.265625q0 -0.71875 0.28125 -1.203125q0.28125 -0.5 0.75 -0.8125q0.484375 -0.3125 1.109375 -0.453125q0.640625 -0.140625 1.328125 -0.140625q0.328125 0 0.671875 0.046875q0.359375 0.03125 0.75 0.140625l0 -0.328125q0 -0.328125 -0.078125 -0.625q-0.078125 -0.3125 -0.28125 -0.546875q-0.203125 -0.234375 -0.53125 -0.359375q-0.328125 -0.125 -0.8125 -0.125q-0.671875 0 -1.234375 0.09375q-0.5625 0.09375 -0.90625 0.21875l-0.25 -1.5625q0.375 -0.125 1.078125 -0.25q0.703125 -0.140625 1.5 -0.140625zm5.6690063 -2.0l1.9375 -0.3125l0 2.515625l2.96875 0l0 1.625l-2.96875 0l0 3.40625q0 1.0 0.3125 1.4375q0.328125 0.4375 1.09375 0.4375q0.53125 0 0.9375 -0.109375q0.40625 -0.125 0.640625 -0.21875l0.328125 1.546875q-0.34375 0.140625 -0.890625 0.28125q-0.546875 0.15625 -1.28125 0.15625q-0.890625 0 -1.5 -0.234375q-0.59375 -0.234375 -0.953125 -0.6875q-0.34375 -0.46875 -0.484375 -1.109375q-0.140625 -0.65625 -0.140625 -1.484375l0 -7.25zm13.641144 10.328125q-0.5625 0.140625 -1.453125 0.28125q-0.890625 0.15625 -1.96875 0.15625q-1.015625 0 -1.703125 -0.28125q-0.671875 -0.296875 -1.078125 -0.796875q-0.40625 -0.515625 -0.578125 -1.21875q-0.171875 -0.71875 -0.171875 -1.578125l0 -4.6875l1.9375 0l0 4.390625q0 1.34375 0.390625 1.921875q0.390625 0.578125 1.359375 0.578125q0.359375 0 0.75 -0.03125q0.390625 -0.03125 0.578125 -0.078125l0 -6.78125l1.9375 0l0 8.125zm4.5624084 -1.140625q0.765625 0 1.109375 -0.1875q0.359375 -0.1875 0.359375 -0.625q0 -0.421875 -0.375 -0.6875q-0.375 -0.28125 -1.234375 -0.59375q-0.53125 -0.203125 -0.96875 -0.40625q-0.4375 -0.21875 -0.765625 -0.5q-0.3125 -0.296875 -0.5 -0.703125q-0.1875 -0.40625 -0.1875 -1.0q0 -1.15625 0.84375 -1.8125q0.859375 -0.671875 2.3125 -0.671875q0.734375 0 1.40625 0.140625q0.671875 0.140625 1.015625 0.265625l-0.359375 1.5625q-0.328125 -0.140625 -0.828125 -0.25q-0.484375 -0.125 -1.140625 -0.125q-0.59375 0 -0.96875 0.203125q-0.359375 0.1875 -0.359375 0.609375q0 0.203125 0.0625 0.375q0.078125 0.15625 0.25 0.296875q0.1875 0.125 0.46875 0.265625q0.296875 0.125 0.703125 0.28125q0.6875 0.25 1.171875 0.5q0.484375 0.25 0.796875 0.5625q0.3125 0.3125 0.453125 0.71875q0.140625 0.390625 0.140625 0.953125q0 1.1875 -0.890625 1.8125q-0.890625 0.609375 -2.53125 0.609375q-1.109375 0 -1.78125 -0.1875q-0.671875 -0.171875 -0.9375 -0.28125l0.328125 -1.625q0.4375 0.171875 1.03125 0.34375q0.609375 0.15625 1.375 0.15625zm8.540009 -2.265625l7.421875 0l0 1.625l-7.421875 0l0 -1.625zm0 -3.46875l7.421875 0l0 1.640625l-7.421875 0l0 -1.640625zm16.37854 -4.078125q2.390625 0 3.65625 0.890625q1.28125 0.875 1.28125 2.6875q0 2.25 -2.21875 3.046875q0.296875 0.375 0.671875 0.90625q0.390625 0.515625 0.78125 1.140625q0.40625 0.609375 0.78125 1.265625q0.375 0.640625 0.65625 1.265625l-2.25 0q-0.3125 -0.578125 -0.671875 -1.15625q-0.34375 -0.59375 -0.703125 -1.140625q-0.359375 -0.546875 -0.71875 -1.03125q-0.34375 -0.5 -0.640625 -0.875q-0.234375 0.015625 -0.390625 0.015625q-0.15625 0 -0.3125 0l-0.96875 0l0 4.1875l-2.015625 0l0 -10.921875q0.734375 -0.171875 1.5625 -0.21875q0.84375 -0.0625 1.5 -0.0625zm0.140625 1.75q-0.640625 0 -1.1875 0.046875l0 3.578125l0.875 0q0.734375 0 1.296875 -0.078125q0.5625 -0.078125 0.9375 -0.28125q0.375 -0.21875 0.5625 -0.5625q0.203125 -0.359375 0.203125 -0.890625q0 -0.515625 -0.203125 -0.859375q-0.1875 -0.359375 -0.546875 -0.5625q-0.359375 -0.21875 -0.859375 -0.296875q-0.484375 -0.09375 -1.078125 -0.09375zm11.302521 9.6875q-1.125 0 -1.953125 -0.328125q-0.8125 -0.328125 -1.34375 -0.90625q-0.53125 -0.59375 -0.796875 -1.390625q-0.25 -0.8125 -0.25 -1.765625l0 -6.9375l2.03125 0l0 6.734375q0 0.765625 0.15625 1.296875q0.171875 0.53125 0.484375 0.875q0.3125 0.328125 0.734375 0.5q0.4375 0.15625 0.953125 0.15625q0.53125 0 0.96875 -0.15625q0.4375 -0.171875 0.734375 -0.5q0.3125 -0.34375 0.484375 -0.875q0.171875 -0.53125 0.171875 -1.296875l0 -6.734375l2.03125 0l0 6.9375q0 0.953125 -0.265625 1.765625q-0.265625 0.796875 -0.796875 1.390625q-0.53125 0.578125 -1.375 0.90625q-0.828125 0.328125 -1.96875 0.328125zm14.451141 -0.234375q-0.546875 -0.90625 -1.21875 -1.953125q-0.671875 -1.0625 -1.390625 -2.125q-0.71875 -1.0625 -1.46875 -2.0625q-0.734375 -1.0 -1.40625 -1.796875l0 7.9375l-1.984375 0l0 -11.09375l1.640625 0q0.640625 0.671875 1.375 1.59375q0.75 0.921875 1.484375 1.921875q0.75 0.984375 1.4375 1.984375q0.703125 1.0 1.25 1.859375l0 -7.359375l2.0 0l0 11.09375l-1.71875 0zm11.840027 0q-0.546875 -0.90625 -1.21875 -1.953125q-0.671875 -1.0625 -1.390625 -2.125q-0.71875 -1.0625 -1.46875 -2.0625q-0.734375 -1.0 -1.40625 -1.796875l0 7.9375l-1.984375 0l0 -11.09375l1.640625 0q0.640625 0.671875 1.375 1.59375q0.75 0.921875 1.484375 1.921875q0.75 0.984375 1.4375 1.984375q0.703125 1.0 1.25 1.859375l0 -7.359375l2.0 0l0 11.09375l-1.71875 0zm4.371277 -11.09375l2.015625 0l0 11.09375l-2.015625 0l0 -11.09375zm12.140747 11.09375q-0.546875 -0.90625 -1.21875 -1.953125q-0.671875 -1.0625 -1.390625 -2.125q-0.71875 -1.0625 -1.46875 -2.0625q-0.734375 -1.0 -1.40625 -1.796875l0 7.9375l-1.984375 0l0 -11.09375l1.640625 0q0.640625 0.671875 1.375 1.59375q0.75 0.921875 1.484375 1.921875q0.75 0.984375 1.4375 1.984375q0.703125 1.0 1.25 1.859375l0 -7.359375l2.0 0l0 11.09375l-1.71875 0zm9.558777 -9.5625q-1.71875 0 -2.625 1.0625q-0.90625 1.0625 -0.90625 2.953125q0 0.890625 0.21875 1.640625q0.21875 0.734375 0.640625 1.265625q0.421875 0.53125 1.046875 0.828125q0.640625 0.296875 1.5 0.296875q0.515625 0 0.90625 -0.03125q0.390625 -0.046875 0.609375 -0.109375l0 -3.984375l2.015625 0l0 5.328125q-0.421875 0.15625 -1.421875 0.34375q-0.984375 0.1875 -2.28125 0.1875q-1.1875 0 -2.1875 -0.375q-0.984375 -0.390625 -1.6875 -1.125q-0.703125 -0.734375 -1.09375 -1.796875q-0.375 -1.078125 -0.375 -2.46875q0 -1.390625 0.421875 -2.46875q0.4375 -1.078125 1.171875 -1.8125q0.734375 -0.75 1.71875 -1.125q1.0 -0.390625 2.109375 -0.390625q0.78125 0 1.375 0.109375q0.59375 0.09375 1.03125 0.234375q0.4375 0.125 0.71875 0.265625q0.28125 0.140625 0.390625 0.203125l-0.609375 1.65625q-0.484375 -0.296875 -1.203125 -0.484375q-0.703125 -0.203125 -1.484375 -0.203125z" fill-rule="nonzero"/><path fill="#000000" fill-opacity="0.0" d="m340.87534 287.89108c0 10.780823 0.01574707 16.171875 0.03149414 21.561646c0.01574707 5.38974 0.03149414 10.778229 0.03149414 21.556458" fill-rule="evenodd"/><path stroke="#000000" stroke-width="1.0" stroke-linejoin="round" stroke-linecap="butt" d="m340.87534 287.89108c0 10.780823 0.01574707 16.171875 0.03149414 21.561646c0.007873535 2.6948547 0.01574707 5.389435 0.021636963 8.757538c0.002960205 1.684082 0.005432129 3.5365295 0.0071411133 5.641571l4.272461E-4 1.1573486" fill-rule="evenodd"/><path fill="#000000" stroke="#000000" stroke-width="1.0" stroke-linecap="butt" d="m339.28433 325.00983l1.6534424 4.537445l1.6499939 -4.5386963z" fill-rule="evenodd"/><path fill="#000000" fill-opacity="0.0" d="m340.87534 290.86877l86.36218 0l0 37.165344l-86.36218 0z" fill-rule="evenodd"/><path fill="#000000" d="m352.82846 312.9644q0.828125 0 1.234375 -0.21875q0.40625 -0.21875 0.40625 -0.703125q0 -0.5 -0.40625 -0.78125q-0.390625 -0.296875 -1.296875 -0.671875q-0.4375 -0.171875 -0.84375 -0.359375q-0.40625 -0.1875 -0.703125 -0.421875q-0.28125 -0.25 -0.46875 -0.59375q-0.171875 -0.359375 -0.171875 -0.875q0 -1.015625 0.75 -1.609375q0.75 -0.59375 2.03125 -0.59375q0.328125 0 0.640625 0.046875q0.328125 0.03125 0.609375 0.078125q0.28125 0.046875 0.484375 0.109375q0.21875 0.0625 0.34375 0.109375l-0.25 1.171875q-0.234375 -0.125 -0.703125 -0.25q-0.46875 -0.125 -1.125 -0.125q-0.5625 0 -1.0 0.234375q-0.421875 0.21875 -0.421875 0.703125q0 0.25 0.09375 0.453125q0.09375 0.1875 0.296875 0.34375q0.203125 0.140625 0.484375 0.28125q0.296875 0.125 0.71875 0.28125q0.53125 0.203125 0.953125 0.40625q0.4375 0.1875 0.734375 0.453125q0.296875 0.265625 0.453125 0.640625q0.171875 0.375 0.171875 0.90625q0 1.0625 -0.796875 1.609375q-0.78125 0.53125 -2.21875 0.53125q-1.015625 0 -1.59375 -0.171875q-0.5625 -0.15625 -0.765625 -0.25l0.234375 -1.171875q0.234375 0.09375 0.75 0.265625q0.515625 0.171875 1.375 0.171875zm6.0367126 -6.640625l2.875 0l0 1.140625l-2.875 0l0 3.53125q0 0.5625 0.078125 0.9375q0.09375 0.375 0.265625 0.59375q0.171875 0.203125 0.4375 0.296875q0.265625 0.078125 0.625 0.078125q0.609375 0 0.984375 -0.125q0.375 -0.140625 0.515625 -0.203125l0.265625 1.125q-0.203125 0.109375 -0.71875 0.25q-0.515625 0.15625 -1.171875 0.15625q-0.78125 0 -1.28125 -0.1875q-0.5 -0.203125 -0.8125 -0.59375q-0.3125 -0.40625 -0.4375 -0.984375q-0.125 -0.578125 -0.125 -1.34375l0 -6.796875l1.375 -0.234375l0 2.359375zm7.18869 6.640625q0.484375 0 0.859375 -0.015625q0.375 -0.03125 0.625 -0.078125l0 -2.28125q-0.15625 -0.0625 -0.484375 -0.109375q-0.328125 -0.0625 -0.796875 -0.0625q-0.296875 0 -0.65625 0.046875q-0.34375 0.046875 -0.625 0.1875q-0.28125 0.125 -0.46875 0.375q-0.1875 0.234375 -0.1875 0.640625q0 0.734375 0.46875 1.015625q0.46875 0.28125 1.265625 0.28125zm-0.109375 -6.828125q0.8125 0 1.375 0.21875q0.5625 0.203125 0.90625 0.59375q0.34375 0.390625 0.484375 0.921875q0.15625 0.53125 0.15625 1.1875l0 4.765625q-0.171875 0.015625 -0.484375 0.078125q-0.3125 0.046875 -0.71875 0.09375q-0.390625 0.046875 -0.859375 0.078125q-0.453125 0.03125 -0.90625 0.03125q-0.640625 0 -1.1875 -0.140625q-0.546875 -0.125 -0.953125 -0.40625q-0.390625 -0.28125 -0.609375 -0.75q-0.21875 -0.46875 -0.21875 -1.125q0 -0.640625 0.25 -1.09375q0.265625 -0.453125 0.703125 -0.734375q0.4375 -0.28125 1.015625 -0.40625q0.59375 -0.125 1.25 -0.125q0.203125 0 0.421875 0.015625q0.21875 0.015625 0.40625 0.0625q0.203125 0.03125 0.34375 0.0625q0.15625 0.03125 0.21875 0.046875l0 -0.390625q0 -0.328125 -0.078125 -0.65625q-0.078125 -0.328125 -0.265625 -0.578125q-0.1875 -0.265625 -0.515625 -0.421875q-0.328125 -0.15625 -0.859375 -0.15625q-0.671875 0 -1.1875 0.09375q-0.5 0.09375 -0.75 0.203125l-0.15625 -1.125q0.265625 -0.125 0.875 -0.234375q0.625 -0.109375 1.34375 -0.109375zm7.9943542 0.03125q0.171875 0 0.390625 0.03125q0.234375 0.015625 0.453125 0.046875q0.234375 0.03125 0.40625 0.078125q0.1875 0.03125 0.28125 0.0625l-0.234375 1.1875q-0.171875 -0.0625 -0.546875 -0.140625q-0.359375 -0.078125 -0.953125 -0.078125q-0.375 0 -0.75 0.078125q-0.375 0.078125 -0.5 0.109375l0 6.40625l-1.359375 0l0 -7.296875q0.484375 -0.171875 1.203125 -0.328125q0.71875 -0.15625 1.609375 -0.15625zm4.126068 0.15625l2.875 0l0 1.140625l-2.875 0l0 3.53125q0 0.5625 0.078125 0.9375q0.09375 0.375 0.265625 0.59375q0.171875 0.203125 0.4375 0.296875q0.265625 0.078125 0.625 0.078125q0.609375 0 0.984375 -0.125q0.375 -0.140625 0.515625 -0.203125l0.265625 1.125q-0.203125 0.109375 -0.71875 0.25q-0.515625 0.15625 -1.171875 0.15625q-0.78125 0 -1.28125 -0.1875q-0.5 -0.203125 -0.8125 -0.59375q-0.3125 -0.40625 -0.4375 -0.984375q-0.125 -0.578125 -0.125 -1.34375l0 -6.796875l1.375 -0.234375l0 2.359375zm5.9387207 3.25q0 1.875 0.546875 3.46875q0.546875 1.59375 1.59375 2.953125l-0.96875 0.671875q-1.140625 -1.40625 -1.84375 -3.203125q-0.6875 -1.8125 -0.6875 -3.890625q0 -2.09375 0.6875 -3.890625q0.703125 -1.8125 1.84375 -3.203125l0.96875 0.65625q-1.046875 1.359375 -1.59375 2.953125q-0.546875 1.59375 -0.546875 3.484375zm5.6719666 0q0 -1.890625 -0.546875 -3.484375q-0.546875 -1.59375 -1.59375 -2.953125l0.953125 -0.65625q1.15625 1.390625 1.84375 3.203125q0.703125 1.796875 0.703125 3.890625q0 2.078125 -0.703125 3.890625q-0.6875 1.796875 -1.84375 3.203125l-0.953125 -0.671875q1.046875 -1.359375 1.59375 -2.953125q0.546875 -1.59375 0.546875 -3.46875z" fill-rule="nonzero"/><path fill="#000000" fill-opacity="0.0" d="m424.32416 363.6286c12.5 0 24.992126 -27.086609 25.0 -54.173218c0.007873535 -27.086609 -12.468506 -54.173233 -24.937012 -54.173233" fill-rule="evenodd"/><path stroke="#434343" stroke-width="1.0" stroke-linejoin="round" stroke-linecap="butt" d="m424.32416 363.6286c12.5 0 24.992126 -27.086609 25.0 -54.173218c0.0039367676 -13.543304 -3.1131897 -27.086609 -7.7898865 -37.24411c-2.3383179 -5.0787354 -5.066559 -9.311005 -7.989502 -12.273621c-0.7307129 -0.7406311 -1.4735718 -1.401947 -2.2256165 -1.9772644c-0.37600708 -0.2876587 -0.75427246 -0.553833 -1.134491 -0.79766846l-0.08294678 -0.051940918" fill-rule="evenodd"/><path fill="#434343" stroke="#434343" stroke-width="1.0" stroke-linecap="butt" d="m430.6051 255.53761l-4.8256226 0.19007874l3.8188171 2.9562378z" fill-rule="evenodd"/><path fill="#000000" fill-opacity="0.0" d="m449.32416 290.8714l86.36218 0l0 37.165344l-86.36218 0z" fill-rule="evenodd"/><path fill="#000000" d="m461.27728 312.967q0.828125 0 1.234375 -0.21875q0.40625 -0.21875 0.40625 -0.703125q0 -0.5 -0.40625 -0.78125q-0.390625 -0.296875 -1.296875 -0.671875q-0.4375 -0.171875 -0.84375 -0.359375q-0.40625 -0.1875 -0.703125 -0.421875q-0.28125 -0.25 -0.46875 -0.59375q-0.171875 -0.359375 -0.171875 -0.875q0 -1.015625 0.75 -1.609375q0.75 -0.59375 2.03125 -0.59375q0.328125 0 0.640625 0.046875q0.328125 0.03125 0.609375 0.078125q0.28125 0.046875 0.484375 0.109375q0.21875 0.0625 0.34375 0.109375l-0.25 1.171875q-0.234375 -0.125 -0.703125 -0.25q-0.46875 -0.125 -1.125 -0.125q-0.5625 0 -1.0 0.234375q-0.421875 0.21875 -0.421875 0.703125q0 0.25 0.09375 0.453125q0.09375 0.1875 0.296875 0.34375q0.203125 0.140625 0.484375 0.28125q0.296875 0.125 0.71875 0.28125q0.53125 0.203125 0.953125 0.40625q0.4375 0.1875 0.734375 0.453125q0.296875 0.265625 0.453125 0.640625q0.171875 0.375 0.171875 0.90625q0 1.0625 -0.796875 1.609375q-0.78125 0.53125 -2.21875 0.53125q-1.015625 0 -1.59375 -0.171875q-0.5625 -0.15625 -0.765625 -0.25l0.234375 -1.171875q0.234375 0.09375 0.75 0.265625q0.515625 0.171875 1.375 0.171875zm6.0367126 -6.640625l2.875 0l0 1.140625l-2.875 0l0 3.53125q0 0.5625 0.078125 0.9375q0.09375 0.375 0.265625 0.59375q0.171875 0.203125 0.4375 0.296875q0.265625 0.078125 0.625 0.078125q0.609375 0 0.984375 -0.125q0.375 -0.140625 0.515625 -0.203125l0.265625 1.125q-0.203125 0.109375 -0.71875 0.25q-0.515625 0.15625 -1.171875 0.15625q-0.78125 0 -1.28125 -0.1875q-0.5 -0.203125 -0.8125 -0.59375q-0.3125 -0.40625 -0.4375 -0.984375q-0.125 -0.578125 -0.125 -1.34375l0 -6.796875l1.375 -0.234375l0 2.359375zm11.139618 3.8125q0 0.90625 -0.265625 1.640625q-0.265625 0.734375 -0.75 1.265625q-0.46875 0.53125 -1.140625 0.8125q-0.65625 0.28125 -1.421875 0.28125q-0.78125 0 -1.4375 -0.28125q-0.65625 -0.28125 -1.140625 -0.8125q-0.46875 -0.53125 -0.734375 -1.265625q-0.265625 -0.734375 -0.265625 -1.640625q0 -0.890625 0.265625 -1.625q0.265625 -0.75 0.734375 -1.265625q0.484375 -0.53125 1.140625 -0.8125q0.65625 -0.296875 1.4375 -0.296875q0.765625 0 1.421875 0.296875q0.671875 0.28125 1.140625 0.8125q0.484375 0.515625 0.75 1.265625q0.265625 0.734375 0.265625 1.625zm-1.421875 0q0 -1.28125 -0.59375 -2.03125q-0.578125 -0.765625 -1.5625 -0.765625q-1.0 0 -1.578125 0.765625q-0.578125 0.75 -0.578125 2.03125q0 1.296875 0.578125 2.046875q0.578125 0.75 1.578125 0.75q0.984375 0 1.5625 -0.75q0.59375 -0.75 0.59375 -2.046875zm8.631592 0.015625q0 -1.328125 -0.671875 -2.046875q-0.65625 -0.71875 -1.75 -0.71875q-0.625 0 -0.96875 0.046875q-0.34375 0.03125 -0.546875 0.09375l0 4.8125q0.25 0.203125 0.71875 0.390625q0.46875 0.1875 1.03125 0.1875q0.578125 0 1.0 -0.203125q0.421875 -0.21875 0.6875 -0.59375q0.265625 -0.375 0.375 -0.875q0.125 -0.5 0.125 -1.09375zm1.421875 0q0 0.859375 -0.234375 1.59375q-0.21875 0.734375 -0.671875 1.265625q-0.4375 0.53125 -1.078125 0.828125q-0.625 0.28125 -1.453125 0.28125q-0.65625 0 -1.171875 -0.171875q-0.5 -0.171875 -0.75 -0.34375l0 3.0625l-1.359375 0l0 -10.109375q0.484375 -0.109375 1.203125 -0.25q0.734375 -0.140625 1.6875 -0.140625q0.875 0 1.578125 0.28125q0.703125 0.28125 1.203125 0.796875q0.5 0.5 0.765625 1.25q0.28125 0.734375 0.28125 1.65625zm3.2419434 -0.578125q0 1.875 0.546875 3.46875q0.546875 1.59375 1.59375 2.953125l-0.96875 0.671875q-1.140625 -1.40625 -1.84375 -3.203125q-0.6875 -1.8125 -0.6875 -3.890625q0 -2.09375 0.6875 -3.890625q0.703125 -1.8125 1.84375 -3.203125l0.96875 0.65625q-1.046875 1.359375 -1.59375 2.953125q-0.546875 1.59375 -0.546875 3.484375zm5.6719666 0q0 -1.890625 -0.546875 -3.484375q-0.546875 -1.59375 -1.59375 -2.953125l0.953125 -0.65625q1.15625 1.390625 1.84375 3.203125q0.703125 1.796875 0.703125 3.890625q0 2.078125 -0.703125 3.890625q-0.6875 1.796875 -1.84375 3.203125l-0.953125 -0.671875q1.046875 -1.359375 1.59375 -2.953125q0.546875 -1.59375 0.546875 -3.46875z" fill-rule="nonzero"/><path fill="#f4cccc" d="m58.644356 341.88474l0 0c0 -6.004242 4.867386 -10.871613 10.871613 -10.871613l145.15442 0c2.8833313 0 5.648575 1.1453857 7.687393 3.1842346c2.0388184 2.0388184 3.1842194 4.8040466 3.1842194 7.687378l0 43.485138c0 6.0042114 -4.867386 10.871582 -10.871613 10.871582l-145.15442 0l0 0c-6.0042267 0 -10.871613 -4.8673706 -10.871613 -10.871582z" fill-rule="evenodd"/><path stroke="#434343" stroke-width="2.0" stroke-linejoin="round" stroke-linecap="butt" d="m58.644356 341.88474l0 0c0 -6.004242 4.867386 -10.871613 10.871613 -10.871613l145.15442 0c2.8833313 0 5.648575 1.1453857 7.687393 3.1842346c2.0388184 2.0388184 3.1842194 4.8040466 3.1842194 7.687378l0 43.485138c0 6.0042114 -4.867386 10.871582 -10.871613 10.871582l-145.15442 0l0 0c-6.0042267 0 -10.871613 -4.8673706 -10.871613 -10.871582z" fill-rule="evenodd"/><path fill="#000000" d="m106.9215 362.89105q-0.328125 -0.25 -0.921875 -0.484375q-0.59375 -0.25 -1.296875 -0.25q-0.75 0 -1.28125 0.265625q-0.53125 0.265625 -0.875 0.75q-0.328125 0.46875 -0.484375 1.125q-0.140625 0.65625 -0.140625 1.40625q0 1.6875 0.828125 2.609375q0.84375 0.921875 2.25 0.921875q0.703125 0 1.171875 -0.0625q0.484375 -0.0625 0.75 -0.140625l0 -6.140625zm0 -6.515625l1.734375 -0.3125l0 14.203125q-0.59375 0.171875 -1.53125 0.328125q-0.9375 0.171875 -2.140625 0.171875q-1.125 0 -2.03125 -0.34375q-0.890625 -0.359375 -1.53125 -1.015625q-0.625 -0.65625 -0.96875 -1.59375q-0.34375 -0.9375 -0.34375 -2.109375q0 -1.125 0.28125 -2.046875q0.296875 -0.9375 0.859375 -1.609375q0.5625 -0.671875 1.359375 -1.046875q0.8125 -0.375 1.859375 -0.375q0.84375 0 1.484375 0.21875q0.640625 0.21875 0.96875 0.4375l0 -4.90625zm4.1760406 9.34375q0 -1.296875 0.375 -2.25q0.375 -0.96875 0.984375 -1.59375q0.609375 -0.640625 1.40625 -0.953125q0.8125 -0.3125 1.65625 -0.3125q1.953125 0 3.0 1.21875q1.046875 1.21875 1.046875 3.71875q0 0.109375 0 0.296875q0 0.171875 -0.015625 0.3125l-6.640625 0q0.109375 1.515625 0.875 2.296875q0.765625 0.78125 2.390625 0.78125q0.90625 0 1.53125 -0.15625q0.625 -0.15625 0.9375 -0.296875l0.25 1.453125q-0.3125 0.15625 -1.109375 0.34375q-0.796875 0.1875 -1.796875 0.1875q-1.265625 0 -2.203125 -0.375q-0.921875 -0.390625 -1.515625 -1.0625q-0.59375 -0.671875 -0.890625 -1.59375q-0.28125 -0.921875 -0.28125 -2.015625zm6.65625 -0.953125q0.015625 -1.171875 -0.59375 -1.921875q-0.59375 -0.765625 -1.65625 -0.765625q-0.609375 0 -1.0625 0.234375q-0.453125 0.234375 -0.78125 0.609375q-0.3125 0.375 -0.484375 0.859375q-0.171875 0.484375 -0.234375 0.984375l4.8125 0zm6.5694733 4.53125q1.0625 0 1.578125 -0.28125q0.515625 -0.28125 0.515625 -0.890625q0 -0.640625 -0.515625 -1.015625q-0.5 -0.375 -1.65625 -0.828125q-0.5625 -0.234375 -1.078125 -0.46875q-0.5 -0.234375 -0.875 -0.546875q-0.375 -0.3125 -0.609375 -0.765625q-0.21875 -0.453125 -0.21875 -1.09375q0 -1.296875 0.953125 -2.046875q0.953125 -0.75 2.59375 -0.75q0.40625 0 0.8125 0.046875q0.421875 0.046875 0.765625 0.109375q0.359375 0.0625 0.625 0.140625q0.28125 0.0625 0.4375 0.125l-0.328125 1.5q-0.28125 -0.15625 -0.875 -0.3125q-0.59375 -0.15625 -1.4375 -0.15625q-0.71875 0 -1.265625 0.296875q-0.546875 0.28125 -0.546875 0.890625q0 0.3125 0.125 0.5625q0.125 0.234375 0.375 0.4375q0.25 0.203125 0.625 0.375q0.375 0.15625 0.890625 0.34375q0.6875 0.265625 1.234375 0.515625q0.546875 0.25 0.921875 0.59375q0.390625 0.328125 0.59375 0.8125q0.20311737 0.46875 0.20311737 1.15625q0 1.34375 -0.9999924 2.03125q-1.0 0.6875 -2.84375 0.6875q-1.28125 0 -2.015625 -0.21875q-0.734375 -0.203125 -0.984375 -0.3125l0.3125 -1.5q0.296875 0.109375 0.953125 0.34375q0.65625 0.21875 1.734375 0.21875zm7.6800613 -8.453125l3.6875 0l0 1.453125l-3.6875 0l0 4.484375q0 0.71875 0.109375 1.203125q0.125 0.46875 0.34375 0.75q0.21875 0.265625 0.546875 0.375q0.34375 0.109375 0.796875 0.109375q0.78125 0 1.25 -0.171875q0.484375 -0.171875 0.671875 -0.25l0.328125 1.4375q-0.25 0.125 -0.90625 0.3125q-0.65625 0.203125 -1.5 0.203125q-0.984375 0 -1.625 -0.25q-0.640625 -0.25 -1.03125 -0.75q-0.390625 -0.515625 -0.5625 -1.25q-0.15625 -0.734375 -0.15625 -1.703125l0 -8.65625l1.734375 -0.296875l0 3.0zm9.468567 -0.203125q0.21875 0 0.5 0.03125q0.296875 0.03125 0.578125 0.078125q0.28125 0.046875 0.515625 0.09375q0.234375 0.046875 0.34375 0.078125l-0.296875 1.515625q-0.203125 -0.078125 -0.6875 -0.171875q-0.46875 -0.109375 -1.21875 -0.109375q-0.484375 0 -0.96875 0.109375q-0.46875 0.09375 -0.609375 0.125l0 8.15625l-1.734375 0l0 -9.296875q0.609375 -0.21875 1.515625 -0.40625q0.921875 -0.203125 2.0625 -0.203125zm12.185684 5.0625q0 1.15625 -0.34375 2.09375q-0.328125 0.921875 -0.9375 1.59375q-0.609375 0.671875 -1.453125 1.046875q-0.828125 0.359375 -1.828125 0.359375q-0.984375 0 -1.828125 -0.359375q-0.84375 -0.375 -1.453125 -1.046875q-0.59375 -0.671875 -0.9375 -1.59375q-0.328125 -0.9375 -0.328125 -2.09375q0 -1.140625 0.328125 -2.078125q0.34375 -0.953125 0.9375 -1.625q0.609375 -0.671875 1.453125 -1.03125q0.84375 -0.359375 1.828125 -0.359375q1.0 0 1.828125 0.359375q0.84375 0.359375 1.453125 1.03125q0.609375 0.671875 0.9375 1.625q0.34375 0.9375 0.34375 2.078125zm-1.8125 0q0 -1.65625 -0.75 -2.609375q-0.734375 -0.953125 -2.0 -0.953125q-1.265625 0 -2.0 0.953125q-0.734375 0.953125 -0.734375 2.609375q0 1.640625 0.734375 2.609375q0.734375 0.953125 2.0 0.953125q1.265625 0 2.0 -0.953125q0.75 -0.96875 0.75 -2.609375zm2.8552246 6.65625q0.203125 0.09375 0.53125 0.171875q0.328125 0.09375 0.640625 0.09375q1.03125 0 1.609375 -0.46875q0.578125 -0.453125 1.03125 -1.484375q-1.171875 -2.234375 -2.1875 -4.734375q-1.015625 -2.515625 -1.6875 -5.09375l1.875 0q0.203125 0.84375 0.484375 1.8125q0.296875 0.96875 0.640625 2.0q0.359375 1.015625 0.765625 2.046875q0.421875 1.03125 0.859375 1.984375q0.71875 -1.96875 1.234375 -3.890625q0.515625 -1.921875 0.984375 -3.953125l1.796875 0q-0.671875 2.75 -1.5 5.28125q-0.8125 2.515625 -1.765625 4.71875q-0.375 0.84375 -0.78125 1.4375q-0.390625 0.609375 -0.875 1.0q-0.484375 0.40625 -1.09375 0.578125q-0.609375 0.1875 -1.375 0.1875q-0.203125 0 -0.4375 -0.03125q-0.21875 -0.015625 -0.4375 -0.0625q-0.203125 -0.046875 -0.390625 -0.109375q-0.171875 -0.046875 -0.25 -0.09375l0.328125 -1.390625zm9.865906 -6.640625q0 -1.296875 0.375 -2.25q0.375 -0.96875 0.984375 -1.59375q0.609375 -0.640625 1.40625 -0.953125q0.8125 -0.3125 1.65625 -0.3125q1.953125 0 3.0 1.21875q1.046875 1.21875 1.046875 3.71875q0 0.109375 0 0.296875q0 0.171875 -0.015625 0.3125l-6.640625 0q0.109375 1.515625 0.875 2.296875q0.765625 0.78125 2.390625 0.78125q0.90625 0 1.53125 -0.15625q0.625 -0.15625 0.9375 -0.296875l0.25 1.453125q-0.3125 0.15625 -1.109375 0.34375q-0.796875 0.1875 -1.796875 0.1875q-1.265625 0 -2.203125 -0.375q-0.921875 -0.390625 -1.515625 -1.0625q-0.59375 -0.671875 -0.890625 -1.59375q-0.28125 -0.921875 -0.28125 -2.015625zm6.65625 -0.953125q0.015625 -1.171875 -0.59375 -1.921875q-0.59375 -0.765625 -1.65625 -0.765625q-0.609375 0 -1.0625 0.234375q-0.453125 0.234375 -0.78125 0.609375q-0.3125 0.375 -0.484375 0.859375q-0.171875 0.484375 -0.234375 0.984375l4.8125 0zm10.585098 -1.875q-0.328125 -0.25 -0.921875 -0.484375q-0.59375 -0.25 -1.296875 -0.25q-0.75 0 -1.28125 0.265625q-0.53125 0.265625 -0.875 0.75q-0.328125 0.46875 -0.484375 1.125q-0.140625 0.65625 -0.140625 1.40625q0 1.6875 0.828125 2.609375q0.84375 0.921875 2.25 0.921875q0.703125 0 1.171875 -0.0625q0.484375 -0.0625 0.75 -0.140625l0 -6.140625zm0 -6.515625l1.734375 -0.3125l0 14.203125q-0.59375 0.171875 -1.53125 0.328125q-0.9375 0.171875 -2.140625 0.171875q-1.125 0 -2.03125 -0.34375q-0.890625 -0.359375 -1.53125 -1.015625q-0.625 -0.65625 -0.96875 -1.59375q-0.34375 -0.9375 -0.34375 -2.109375q0 -1.125 0.28125 -2.046875q0.296875 -0.9375 0.859375 -1.609375q0.5625 -0.671875 1.359375 -1.046875q0.8125 -0.375 1.859375 -0.375q0.84375 0 1.484375 0.21875q0.640625 0.21875 0.96875 0.4375l0 -4.90625z" fill-rule="nonzero"/><path fill="#000000" fill-opacity="0.0" d="m257.4265 255.2769c-57.669296 0 -115.33859 37.87401 -115.33859 75.74803" fill-rule="evenodd"/><path stroke="#434343" stroke-width="1.0" stroke-linejoin="round" stroke-linecap="butt" d="m257.4265 255.2769c-57.669296 0 -115.33859 37.87401 -115.33859 75.74803" fill-rule="evenodd"/><path fill="#000000" fill-opacity="0.0" d="m257.4265 146.92389c-57.669296 0 -115.33859 92.04724 -115.33859 184.09448" fill-rule="evenodd"/><path stroke="#434343" stroke-width="1.0" stroke-linejoin="round" stroke-linecap="butt" d="m257.4265 146.92389c-28.834656 0 -57.669296 23.01181 -79.29527 57.529526c-10.813004 17.25885 -19.823822 37.394196 -26.131409 58.96776c-3.153778 10.786804 -5.6317596 21.933136 -7.321289 33.259277c-0.84477234 5.6630554 -1.4924164 11.371063 -1.9288788 17.101532c-0.21824646 2.8652344 -0.383667 5.7361145 -0.4945526 8.609772c-0.027709961 0.7184143 -0.052017212 1.4370117 -0.072891235 2.1557312l-0.012557983 0.47143555" fill-rule="evenodd"/><path fill="#434343" stroke="#434343" stroke-width="1.0" stroke-linecap="butt" d="m140.51808 324.99643l1.5897522 4.5601807l1.7134094 -4.515167z" fill-rule="evenodd"/><path fill="#000000" fill-opacity="0.0" d="m160.16719 222.66194l86.3622 0l0 37.16536l-86.3622 0z" fill-rule="evenodd"/><path fill="#000000" d="m175.26094 239.72632q-0.25 -0.203125 -0.71875 -0.390625q-0.46875 -0.1875 -1.015625 -0.1875q-0.59375 0 -1.015625 0.21875q-0.40625 0.203125 -0.671875 0.578125q-0.265625 0.375 -0.390625 0.890625q-0.109375 0.515625 -0.109375 1.09375q0 1.328125 0.65625 2.0625q0.65625 0.71875 1.765625 0.71875q0.546875 0 0.921875 -0.046875q0.375 -0.046875 0.578125 -0.109375l0 -4.828125zm0 -5.125l1.359375 -0.234375l0 11.15625q-0.46875 0.125 -1.203125 0.25q-0.71875 0.140625 -1.671875 0.140625q-0.890625 0 -1.59375 -0.265625q-0.703125 -0.28125 -1.203125 -0.796875q-0.484375 -0.515625 -0.765625 -1.25q-0.265625 -0.75 -0.265625 -1.671875q0 -0.875 0.21875 -1.609375q0.234375 -0.734375 0.671875 -1.25q0.4375 -0.53125 1.078125 -0.828125q0.640625 -0.296875 1.453125 -0.296875q0.671875 0 1.171875 0.171875q0.5 0.171875 0.75 0.34375l0 -3.859375zm3.2888184 7.34375q0 -1.015625 0.28125 -1.765625q0.296875 -0.75 0.78125 -1.25q0.484375 -0.5 1.109375 -0.75q0.640625 -0.25 1.296875 -0.25q1.546875 0 2.359375 0.96875q0.828125 0.953125 0.828125 2.921875q0 0.078125 0 0.21875q0 0.140625 -0.015625 0.265625l-5.21875 0q0.078125 1.1875 0.671875 1.796875q0.609375 0.609375 1.890625 0.609375q0.71875 0 1.203125 -0.125q0.5 -0.125 0.75 -0.234375l0.1875 1.140625q-0.25 0.125 -0.875 0.265625q-0.625 0.15625 -1.40625 0.15625q-1.0 0 -1.734375 -0.296875q-0.71875 -0.296875 -1.1875 -0.828125q-0.46875 -0.53125 -0.703125 -1.25q-0.21875 -0.734375 -0.21875 -1.59375zm5.234375 -0.75q0.015625 -0.921875 -0.46875 -1.515625q-0.46875 -0.59375 -1.3125 -0.59375q-0.46875 0 -0.828125 0.1875q-0.359375 0.1875 -0.609375 0.484375q-0.25 0.28125 -0.390625 0.671875q-0.125 0.375 -0.171875 0.765625l3.78125 0zm5.161621 3.5625q0.828125 0 1.234375 -0.21875q0.40625 -0.21875 0.40625 -0.703125q0 -0.5 -0.40625 -0.78125q-0.390625 -0.296875 -1.296875 -0.671875q-0.4375 -0.171875 -0.84375 -0.359375q-0.40625 -0.1875 -0.703125 -0.421875q-0.28125 -0.25 -0.46875 -0.59375q-0.171875 -0.359375 -0.171875 -0.875q0 -1.015625 0.75 -1.609375q0.75 -0.59375 2.03125 -0.59375q0.328125 0 0.640625 0.046875q0.328125 0.03125 0.609375 0.078125q0.28125 0.046875 0.484375 0.109375q0.21875 0.0625 0.34375 0.109375l-0.25 1.171875q-0.234375 -0.125 -0.703125 -0.25q-0.46875 -0.125 -1.125 -0.125q-0.5625 0 -1.0 0.234375q-0.421875 0.21875 -0.421875 0.703125q0 0.25 0.09375 0.453125q0.09375 0.1875 0.296875 0.34375q0.203125 0.140625 0.484375 0.28125q0.296875 0.125 0.71875 0.28125q0.53125 0.203125 0.953125 0.40625q0.4375 0.1875 0.734375 0.453125q0.296875 0.265625 0.453125 0.640625q0.171875 0.375 0.171875 0.90625q0 1.0625 -0.796875 1.609375q-0.78125 0.53125 -2.21875 0.53125q-1.015625 0 -1.59375 -0.171875q-0.5625 -0.15625 -0.765625 -0.25l0.234375 -1.171875q0.234375 0.09375 0.75 0.265625q0.515625 0.171875 1.375 0.171875zm6.0367126 -6.640625l2.875 0l0 1.140625l-2.875 0l0 3.53125q0 0.5625 0.078125 0.9375q0.09375 0.375 0.265625 0.59375q0.171875 0.203125 0.4375 0.296875q0.265625 0.078125 0.625 0.078125q0.609375 0 0.984375 -0.125q0.375 -0.140625 0.515625 -0.203125l0.265625 1.125q-0.203125 0.109375 -0.71875 0.25q-0.515625 0.15625 -1.171875 0.15625q-0.78125 0 -1.28125 -0.1875q-0.5 -0.203125 -0.8125 -0.59375q-0.3125 -0.40625 -0.4375 -0.984375q-0.125 -0.578125 -0.125 -1.34375l0 -6.796875l1.375 -0.234375l0 2.359375zm7.4230804 -0.15625q0.171875 0 0.390625 0.03125q0.234375 0.015625 0.453125 0.046875q0.234375 0.03125 0.40625 0.078125q0.1875 0.03125 0.28125 0.0625l-0.234375 1.1875q-0.171875 -0.0625 -0.546875 -0.140625q-0.359375 -0.078125 -0.953125 -0.078125q-0.375 0 -0.75 0.078125q-0.375 0.078125 -0.5 0.109375l0 6.40625l-1.359375 0l0 -7.296875q0.484375 -0.171875 1.203125 -0.328125q0.71875 -0.15625 1.609375 -0.15625zm9.579208 3.96875q0 0.90625 -0.265625 1.640625q-0.265625 0.734375 -0.75 1.265625q-0.46875 0.53125 -1.140625 0.8125q-0.65625 0.28125 -1.421875 0.28125q-0.78125 0 -1.4375 -0.28125q-0.65625 -0.28125 -1.140625 -0.8125q-0.46875 -0.53125 -0.734375 -1.265625q-0.265625 -0.734375 -0.265625 -1.640625q0 -0.890625 0.265625 -1.625q0.265625 -0.75 0.734375 -1.265625q0.484375 -0.53125 1.140625 -0.8125q0.65625 -0.296875 1.4375 -0.296875q0.765625 0 1.421875 0.296875q0.671875 0.28125 1.140625 0.8125q0.484375 0.515625 0.75 1.265625q0.265625 0.734375 0.265625 1.625zm-1.421875 0q0 -1.28125 -0.59375 -2.03125q-0.578125 -0.765625 -1.5625 -0.765625q-1.0 0 -1.578125 0.765625q-0.578125 0.75 -0.578125 2.03125q0 1.296875 0.578125 2.046875q0.578125 0.75 1.578125 0.75q0.984375 0 1.5625 -0.75q0.59375 -0.75 0.59375 -2.046875zm2.2387543 5.234375q0.15625 0.078125 0.40625 0.140625q0.265625 0.0625 0.515625 0.0625q0.8125 0 1.265625 -0.359375q0.453125 -0.359375 0.8125 -1.15625q-0.921875 -1.765625 -1.71875 -3.734375q-0.796875 -1.96875 -1.328125 -4.0l1.46875 0q0.15625 0.65625 0.375 1.421875q0.234375 0.765625 0.515625 1.578125q0.28125 0.796875 0.59375 1.609375q0.328125 0.796875 0.6875 1.546875q0.546875 -1.53125 0.953125 -3.046875q0.421875 -1.515625 0.78125 -3.109375l1.40625 0q-0.515625 2.15625 -1.171875 4.140625q-0.640625 1.984375 -1.390625 3.71875q-0.296875 0.65625 -0.609375 1.125q-0.3125 0.484375 -0.703125 0.796875q-0.375 0.3125 -0.859375 0.453125q-0.46875 0.140625 -1.0625 0.140625q-0.15625 0 -0.34375 -0.015625q-0.171875 -0.015625 -0.34375 -0.0625q-0.171875 -0.03125 -0.3125 -0.078125q-0.125 -0.046875 -0.1875 -0.078125l0.25 -1.09375zm9.50293 -5.796875q0 1.875 0.546875 3.46875q0.546875 1.59375 1.59375 2.953125l-0.96875 0.671875q-1.140625 -1.40625 -1.84375 -3.203125q-0.6875 -1.8125 -0.6875 -3.890625q0 -2.09375 0.6875 -3.890625q0.703125 -1.8125 1.84375 -3.203125l0.96875 0.65625q-1.046875 1.359375 -1.59375 2.953125q-0.546875 1.59375 -0.546875 3.484375zm5.671982 0q0 -1.890625 -0.546875 -3.484375q-0.546875 -1.59375 -1.59375 -2.953125l0.953125 -0.65625q1.15625 1.390625 1.84375 3.203125q0.703125 1.796875 0.703125 3.890625q0 2.078125 -0.703125 3.890625q-0.6875 1.796875 -1.84375 3.203125l-0.953125 -0.671875q1.046875 -1.359375 1.59375 -2.953125q0.546875 -1.59375 0.546875 -3.46875z" fill-rule="nonzero"/></g></svg>